#Produced by Art of Illusion 2.8.1, Sun May 13 14:30:56 PDT 2012
mtllib gost.mtl
g Sphere_1
usemtl gost
v 0.51367 1.59945 0.23066
v -0.40898 1.59945 0.23066
v -0.40898 0.7179 0.31066
v 0.51367 0.7179 0.31066
v 0.51367 1.59945 -0.10066
v -0.40898 1.59945 -0.10066
v -0.40898 0.7779 -0.08066
v 0.51367 0.7779 -0.08066
v 0.28301 1.96522 0.23066
v -0.17832 1.96522 0.23066
v -0.17832 0.23213 0.55066
v 0.28301 0.23213 0.55066
v 0.28301 1.96522 -0.10066
v -0.17832 1.96522 -0.10066
v -0.17832 0.24213 -0.10066
v 0.28301 0.24213 -0.10066
v 0.28301 1.59945 0.46132
v -0.17832 1.59945 0.46132
v -0.17832 0.5379 0.56132
v 0.28301 0.5379 0.56132
v 0.28301 1.59945 -0.26132
v -0.17832 1.59945 -0.26132
v -0.17832 0.8379 -0.26132
v 0.28301 0.8379 -0.26132
v 0.57434 1.58156 0.07
v -0.46965 1.58156 0.07
v 0.57434 0.7458 0.09
v -0.46965 0.7458 0.09
v 0.05235 2.04039 0.21622
v 0.05235 2.04039 -0.08622
v 0.54434 1.19368 0.21622
v -0.43965 1.19368 0.21622
v 0.54434 1.19368 -0.08622
v -0.43965 1.19368 -0.08622
v 0.45186 1.88865 0.07
v -0.34717 1.88865 0.07
v 0.61186 0.2287 0.07
v -0.48717 0.2287 0.07
v 0.05235 1.96865 0.39952
v 0.05235 0.1987 0.93952
v 0.05235 1.88865 -0.19952
v 0.05235 0.3187 -0.19952
v 0.45186 1.19368 0.39952
v -0.34717 1.19368 0.39952
v 0.45186 1.19368 -0.19952
v -0.34717 1.19368 -0.19952
v 0.26856 2.04039 0.07
v -0.16387 2.04039 0.07
v 0.05235 1.58156 0.52199
v 0.05235 0.6958 0.65199
v 0.05235 1.58156 -0.32199
v 0.05235 0.8558 -0.32199
v 0.26856 1.19368 0.52199
v -0.16387 1.19368 0.52199
v 0.26856 1.19368 -0.32199
v -0.16387 1.19368 -0.32199
v 0.58735 1.19368 0.07
v -0.48265 1.19368 0.07
v 0.05235 2.09368 0.07
v 0.05235 1.19368 0.565
v 0.05235 1.19368 -0.365
vn 0.82431 0.25736 0.50427
vn -0.82431 0.25736 0.50427
vn -0.87519 -0.02788 0.48297
vn 0.87227 -0.0177 0.48871
vn 0.78545 0.23491 -0.57261
vn -0.78545 0.23491 -0.57261
vn -0.77736 -0.11097 -0.61919
vn 0.77538 -0.10422 -0.62284
vn 0.52452 0.67983 0.51255
vn -0.52452 0.67983 0.51255
vn -0.83312 -0.05363 0.55048
vn 0.82851 -0.04771 0.55794
vn 0.44742 0.64475 -0.61977
vn -0.44742 0.64475 -0.61977
vn -0.42543 -0.21047 -0.88018
vn 0.41612 -0.20637 -0.88558
vn 0.47954 0.26852 0.83542
vn -0.47954 0.26852 0.83542
vn -0.68277 0.09078 0.72497
vn 0.68277 0.09078 0.72497
vn 0.39805 0.24475 -0.88411
vn -0.39805 0.24475 -0.88411
vn -0.41702 -0.18185 -0.89052
vn 0.41702 -0.18185 -0.89052
vn 0.9799 0.19927 0.00904
vn -0.9799 0.19927 0.00904
vn 0.99958 0.0201 -0.02065
vn -0.99973 0.0004 -0.02344
vn 0 0.9305 0.3663
vn 0 0.82396 -0.56665
vn 0.93125 0.02558 0.36348
vn -0.93125 0.02558 0.36348
vn 0.88659 -0.00948 -0.46246
vn -0.88659 -0.00948 -0.46246
vn 0.81671 0.57691 0.01255
vn -0.81671 0.57691 0.01255
vn 0.96893 -0.12181 -0.21524
vn -0.96474 -0.14588 -0.21908
vn 0 0.67701 0.73597
vn 0 0.29458 0.95563
vn -0 0.46858 -0.88342
vn 0 -0.2519 -0.96775
vn 0.74491 0.06985 0.6635
vn -0.74491 0.06985 0.6635
vn 0.65846 -0.01228 -0.75252
vn -0.65846 -0.01228 -0.75252
vn 0.43368 0.90101 0.00975
vn -0.43368 0.90101 0.00975
vn 0 0.2098 0.97774
vn 0 0.23908 0.971
vn 0 0.24197 -0.97028
vn 0 -0.18199 -0.9833
vn 0.39477 0.10747 0.91247
vn -0.39477 0.10747 0.91247
vn 0.38058 -0.00825 -0.92471
vn -0.38058 -0.00825 -0.92471
vn 0.99999 0.00225 0.0048
vn -0.99999 0.00225 0.0048
vn 0 0.99995 0.00988
vn 0 0.14178 0.9899
vn 0 -0.00797 -0.99997
f 57//57 25//25 31//31
f 25//25 35//35 1//1
f 25//25 1//1 31//31
f 31//31 1//1 43//43
f 35//35 47//47 9//9
f 35//35 9//9 1//1
f 1//1 9//9 17//17
f 1//1 17//17 43//43
f 43//43 17//17 53//53
f 47//47 59//59 29//29
f 47//47 29//29 9//9
f 9//9 29//29 39//39
f 9//9 39//39 17//17
f 17//17 39//39 49//49
f 17//17 49//49 53//53
f 53//53 49//49 60//60
f 58//58 32//32 26//26
f 26//26 2//2 36//36
f 26//26 32//32 2//2
f 32//32 44//44 2//2
f 36//36 10//10 48//48
f 36//36 2//2 10//10
f 2//2 18//18 10//10
f 2//2 44//44 18//18
f 44//44 54//54 18//18
f 48//48 29//29 59//59
f 48//48 10//10 29//29
f 10//10 39//39 29//29
f 10//10 18//18 39//39
f 18//18 49//49 39//39
f 18//18 54//54 49//49
f 54//54 60//60 49//49
f 58//58 28//28 32//32
f 28//28 38//38 3//3
f 28//28 3//3 32//32
f 32//32 3//3 44//44
f 38//38 11//11 3//3
f 3//3 11//11 19//19
f 3//3 19//19 44//44
f 44//44 19//19 54//54
f 11//11 40//40 19//19
f 19//19 40//40 50//50
f 19//19 50//50 54//54
f 54//54 50//50 60//60
f 57//57 31//31 27//27
f 27//27 4//4 37//37
f 27//27 31//31 4//4
f 31//31 43//43 4//4
f 37//37 4//4 12//12
f 4//4 20//20 12//12
f 4//4 43//43 20//20
f 43//43 53//53 20//20
f 12//12 20//20 40//40
f 20//20 50//50 40//40
f 20//20 53//53 50//50
f 53//53 60//60 50//50
f 57//57 33//33 25//25
f 25//25 5//5 35//35
f 25//25 33//33 5//5
f 33//33 45//45 5//5
f 35//35 13//13 47//47
f 35//35 5//5 13//13
f 5//5 21//21 13//13
f 5//5 45//45 21//21
f 45//45 55//55 21//21
f 47//47 30//30 59//59
f 47//47 13//13 30//30
f 13//13 41//41 30//30
f 13//13 21//21 41//41
f 21//21 51//51 41//41
f 21//21 55//55 51//51
f 55//55 61//61 51//51
f 58//58 26//26 34//34
f 26//26 36//36 6//6
f 26//26 6//6 34//34
f 34//34 6//6 46//46
f 36//36 48//48 14//14
f 36//36 14//14 6//6
f 6//6 14//14 22//22
f 6//6 22//22 46//46
f 46//46 22//22 56//56
f 48//48 59//59 30//30
f 48//48 30//30 14//14
f 14//14 30//30 41//41
f 14//14 41//41 22//22
f 22//22 41//41 51//51
f 22//22 51//51 56//56
f 56//56 51//51 61//61
f 58//58 34//34 28//28
f 28//28 7//7 38//38
f 28//28 34//34 7//7
f 34//34 46//46 7//7
f 38//38 7//7 15//15
f 7//7 23//23 15//15
f 7//7 46//46 23//23
f 46//46 56//56 23//23
f 15//15 23//23 42//42
f 23//23 52//52 42//42
f 23//23 56//56 52//52
f 56//56 61//61 52//52
f 57//57 27//27 33//33
f 27//27 37//37 8//8
f 27//27 8//8 33//33
f 33//33 8//8 45//45
f 37//37 16//16 8//8
f 8//8 16//16 24//24
f 8//8 24//24 45//45
f 45//45 24//24 55//55
f 16//16 42//42 24//24
f 24//24 42//42 52//52
f 24//24 52//52 55//55
f 55//55 52//52 61//61
g Sphere_6
usemtl white
v -0.01566 1.65717 -0.2
v -0.30558 1.65717 -0.2
v -0.01566 1.36018 -0.2
v -0.30558 1.36018 -0.2
v -0.16062 1.65717 -0.05504
v -0.16062 1.36018 -0.05504
v -0.16062 1.65717 -0.34496
v -0.16062 1.36018 -0.34496
v -0.01566 1.50868 -0.05504
v -0.30558 1.50868 -0.05504
v -0.01566 1.50868 -0.34496
v -0.30558 1.50868 -0.34496
v 0.04438 1.50868 -0.2
v -0.36562 1.50868 -0.2
v -0.16062 1.71868 -0.2
v -0.16062 1.29868 -0.2
v -0.16062 1.50868 0.005
v -0.16062 1.50868 -0.405
vn 0.71244 0.70173 0
vn -0.71244 0.70173 0
vn 0.71244 -0.70173 0
vn -0.71244 -0.70173 0
vn -0 0.70173 0.71244
vn 0 -0.70173 0.71244
vn 0 0.70173 -0.71244
vn 0 -0.70173 -0.71244
vn 0.70711 0 0.70711
vn -0.70711 0 0.70711
vn 0.70711 0 -0.70711
vn -0.70711 0 -0.70711
vn 1 0 0
vn -1 0 0
vn 0 1 0
vn 0 -1 0
vn 0 0 1
vn 0 0 -1
f 74//74 62//62 70//70
f 62//62 76//76 66//66
f 62//62 66//66 70//70
f 70//70 66//66 78//78
f 75//75 71//71 63//63
f 63//63 66//66 76//76
f 63//63 71//71 66//66
f 71//71 78//78 66//66
f 75//75 65//65 71//71
f 65//65 77//77 67//67
f 65//65 67//67 71//71
f 71//71 67//67 78//78
f 74//74 70//70 64//64
f 64//64 67//67 77//77
f 64//64 70//70 67//67
f 70//70 78//78 67//67
f 74//74 72//72 62//62
f 62//62 68//68 76//76
f 62//62 72//72 68//68
f 72//72 79//79 68//68
f 75//75 63//63 73//73
f 63//63 76//76 68//68
f 63//63 68//68 73//73
f 73//73 68//68 79//79
f 75//75 73//73 65//65
f 65//65 69//69 77//77
f 65//65 73//73 69//69
f 73//73 79//79 69//69
f 74//74 64//64 72//72
f 64//64 77//77 69//69
f 64//64 69//69 72//72
f 72//72 69//69 79//79
g Sphere_6_1
usemtl white
v 0.39027 1.66717 -0.2
v 0.10035 1.66717 -0.2
v 0.39027 1.37018 -0.2
v 0.10035 1.37018 -0.2
v 0.24531 1.66717 -0.05504
v 0.24531 1.37018 -0.05504
v 0.24531 1.66717 -0.34496
v 0.24531 1.37018 -0.34496
v 0.39027 1.51868 -0.05504
v 0.10035 1.51868 -0.05504
v 0.39027 1.51868 -0.34496
v 0.10035 1.51868 -0.34496
v 0.45031 1.51868 -0.2
v 0.04031 1.51868 -0.2
v 0.24531 1.72868 -0.2
v 0.24531 1.30868 -0.2
v 0.24531 1.51868 0.005
v 0.24531 1.51868 -0.405
vn 0.71244 0.70173 0
vn -0.71244 0.70173 0
vn 0.71244 -0.70173 0
vn -0.71244 -0.70173 0
vn -0 0.70173 0.71244
vn 0 -0.70173 0.71244
vn 0 0.70173 -0.71244
vn 0 -0.70173 -0.71244
vn 0.70711 0 0.70711
vn -0.70711 0 0.70711
vn 0.70711 0 -0.70711
vn -0.70711 0 -0.70711
vn 1 0 0
vn -1 0 0
vn 0 1 0
vn 0 -1 0
vn 0 0 1
vn 0 0 -1
f 92//92 80//80 88//88
f 80//80 94//94 84//84
f 80//80 84//84 88//88
f 88//88 84//84 96//96
f 93//93 89//89 81//81
f 81//81 84//84 94//94
f 81//81 89//89 84//84
f 89//89 96//96 84//84
f 93//93 83//83 89//89
f 83//83 95//95 85//85
f 83//83 85//85 89//89
f 89//89 85//85 96//96
f 92//92 88//88 82//82
f 82//82 85//85 95//95
f 82//82 88//88 85//85
f 88//88 96//96 85//85
f 92//92 90//90 80//80
f 80//80 86//86 94//94
f 80//80 90//90 86//86
f 90//90 97//97 86//86
f 93//93 81//81 91//91
f 81//81 94//94 86//86
f 81//81 86//86 91//91
f 91//91 86//86 97//97
f 93//93 91//91 83//83
f 83//83 87//87 95//95
f 83//83 91//91 87//87
f 91//91 97//97 87//87
f 92//92 82//82 90//90
f 82//82 95//95 87//87
f 82//82 87//87 90//90
f 90//90 87//87 97//97
