999
DXF file generated by Cheetah3D
0
SECTION
2
ENTITIES
0
3DFACE
8
coconut_palm9_trunk
10
0.141498
20
0.017374
30
0.000000
11
0.133203
21
-0.073836
31
0.000000
12
0.121305
22
-0.049549
32
0.481427
13
0.140046
23
0.017257
33
0.476434
0
3DFACE
8
coconut_palm9_trunk
10
0.133203
20
-0.073836
30
0.000000
11
0.071449
21
-0.153224
31
0.000000
12
0.068451
22
-0.085459
32
0.492131
13
0.121305
23
-0.049549
33
0.481427
0
3DFACE
8
coconut_palm9_trunk
10
0.071449
20
-0.153224
30
0.000000
11
-0.030620
21
-0.157528
31
0.000000
12
0.009087
22
-0.094318
32
0.503583
13
0.068451
23
-0.085459
33
0.492131
0
3DFACE
8
coconut_palm9_trunk
10
-0.030620
20
-0.157528
30
0.000000
11
-0.125086
21
-0.116644
31
0.000000
12
-0.051053
22
-0.071159
32
0.514579
13
0.009087
23
-0.094318
33
0.503583
0
3DFACE
8
coconut_palm9_trunk
10
-0.125086
20
-0.116644
30
0.000000
11
-0.164284
21
-0.020171
31
0.000000
12
-0.078392
22
-0.009564
32
0.518401
13
-0.051053
23
-0.071159
33
0.514579
0
3DFACE
8
coconut_palm9_trunk
10
-0.164284
20
-0.020171
30
0.000000
11
-0.141338
21
0.078345
31
0.000000
12
-0.077227
22
0.062736
32
0.516444
13
-0.078392
23
-0.009564
33
0.518401
0
3DFACE
8
coconut_palm9_trunk
10
-0.141338
20
0.078345
30
0.000000
11
-0.069103
21
0.148191
31
0.000000
12
-0.020320
22
0.107538
32
0.504439
13
-0.077227
23
0.062736
33
0.516444
0
3DFACE
8
coconut_palm9_trunk
10
-0.069103
20
0.148191
30
0.000000
11
0.028324
21
0.145717
31
0.000000
12
0.049400
22
0.119046
32
0.490967
13
-0.020320
23
0.107538
33
0.504439
0
3DFACE
8
coconut_palm9_trunk
10
0.028324
20
0.145717
30
0.000000
11
0.108402
21
0.101086
31
0.000000
12
0.112158
22
0.083669
32
0.480074
13
0.049400
23
0.119046
33
0.490967
0
3DFACE
8
coconut_palm9_trunk
10
0.108402
20
0.101086
30
0.000000
11
0.141498
21
0.017374
31
0.000000
12
0.140046
22
0.017257
32
0.476434
13
0.112158
23
0.083669
33
0.480074
0
3DFACE
8
coconut_palm9_trunk
10
0.140046
20
0.017257
30
0.476434
11
0.121305
21
-0.049549
31
0.481427
12
0.251749
22
-0.038798
32
0.956011
13
0.243969
23
0.028632
33
0.955983
0
3DFACE
8
coconut_palm9_trunk
10
0.121305
20
-0.049549
30
0.481427
11
0.068451
21
-0.085459
31
0.492131
12
0.196153
22
-0.076276
32
0.970509
13
0.251749
23
-0.038798
33
0.956011
0
3DFACE
8
coconut_palm9_trunk
10
0.068451
20
-0.085459
30
0.492131
11
0.009087
21
-0.094318
31
0.503583
12
0.135914
22
-0.076468
32
0.985049
13
0.196153
23
-0.076276
33
0.970509
0
3DFACE
8
coconut_palm9_trunk
10
0.009087
20
-0.094318
30
0.503583
11
-0.051053
21
-0.071159
31
0.514579
12
0.085050
22
-0.047979
32
0.996498
13
0.135914
23
-0.076468
33
0.985049
0
3DFACE
8
coconut_palm9_trunk
10
-0.051053
20
-0.071159
30
0.514579
11
-0.078392
21
-0.009564
31
0.518401
12
0.063264
22
0.006444
32
1.000206
13
0.085050
23
-0.047979
33
0.996498
0
3DFACE
8
coconut_palm9_trunk
10
-0.078392
20
-0.009564
30
0.518401
11
-0.077227
21
0.062736
31
0.516444
12
0.068598
22
0.066055
32
0.997240
13
0.063264
23
0.006444
33
1.000206
0
3DFACE
8
coconut_palm9_trunk
10
-0.077227
20
0.062736
30
0.516444
11
-0.020320
21
0.107538
31
0.504439
12
0.114865
22
0.102037
32
0.985080
13
0.068598
23
0.066055
33
0.997240
0
3DFACE
8
coconut_palm9_trunk
10
-0.020320
20
0.107538
30
0.504439
11
0.049400
21
0.119046
31
0.490967
12
0.174980
22
0.133517
32
0.969687
13
0.114865
23
0.102037
33
0.985080
0
3DFACE
8
coconut_palm9_trunk
10
0.049400
20
0.119046
30
0.490967
11
0.112158
21
0.083669
31
0.480074
12
0.230078
22
0.090992
32
0.957576
13
0.174980
23
0.133517
33
0.969687
0
3DFACE
8
coconut_palm9_trunk
10
0.112158
20
0.083669
30
0.480074
11
0.140046
21
0.017257
31
0.476434
12
0.243969
22
0.028632
32
0.955983
13
0.230078
23
0.090992
33
0.957576
0
3DFACE
8
coconut_palm9_trunk
10
0.243969
20
0.028632
30
0.955983
11
0.251749
21
-0.038798
31
0.956011
12
0.338917
22
-0.029923
32
1.453835
13
0.340464
23
0.035349
33
1.452709
0
3DFACE
8
coconut_palm9_trunk
10
0.251749
20
-0.038798
30
0.956011
11
0.196153
21
-0.076276
31
0.970509
12
0.286879
22
-0.069837
32
1.462073
13
0.338917
23
-0.029923
33
1.453835
0
3DFACE
8
coconut_palm9_trunk
10
0.196153
20
-0.076276
30
0.970509
11
0.135914
21
-0.076468
31
0.985049
12
0.223521
22
-0.082257
32
1.471585
13
0.286879
23
-0.069837
33
1.462073
0
3DFACE
8
coconut_palm9_trunk
10
0.135914
20
-0.076468
30
0.985049
11
0.085050
21
-0.047979
31
0.996498
12
0.168805
22
-0.047138
32
1.479152
13
0.223521
23
-0.082257
33
1.471585
0
3DFACE
8
coconut_palm9_trunk
10
0.085050
20
-0.047979
30
0.996498
11
0.063264
21
0.006444
31
1.000206
12
0.143809
22
0.011203
32
1.482020
13
0.168805
23
-0.047138
33
1.479152
0
3DFACE
8
coconut_palm9_trunk
10
0.063264
20
0.006444
30
1.000206
11
0.068598
21
0.066055
31
0.997240
12
0.156687
22
0.072372
32
1.479286
13
0.143809
23
0.011203
33
1.482020
0
3DFACE
8
coconut_palm9_trunk
10
0.068598
20
0.066055
30
0.997240
11
0.114865
21
0.102037
31
0.985080
12
0.200590
22
0.117027
32
1.472217
13
0.156687
23
0.072372
33
1.479286
0
3DFACE
8
coconut_palm9_trunk
10
0.114865
20
0.102037
30
0.985080
11
0.174980
21
0.133517
31
0.969687
12
0.261589
22
0.116342
32
1.463242
13
0.200590
23
0.117027
33
1.472217
0
3DFACE
8
coconut_palm9_trunk
10
0.174980
20
0.133517
30
0.969687
11
0.230078
21
0.090992
31
0.957576
12
0.317227
22
0.092643
32
1.455356
13
0.261589
23
0.116342
33
1.463242
0
3DFACE
8
coconut_palm9_trunk
10
0.230078
20
0.090992
30
0.957576
11
0.243969
21
0.028632
31
0.955983
12
0.340464
22
0.035349
32
1.452709
13
0.317227
23
0.092643
33
1.455356
0
3DFACE
8
coconut_palm9_trunk
10
0.340464
20
0.035349
30
1.452709
11
0.338917
21
-0.029923
31
1.453835
12
0.379605
22
-0.018515
32
1.956874
13
0.397296
23
0.035777
33
1.955672
0
3DFACE
8
coconut_palm9_trunk
10
0.338917
20
-0.029923
30
1.453835
11
0.286879
21
-0.069837
31
1.462073
12
0.341529
22
-0.059109
32
1.959360
13
0.379605
23
-0.018515
33
1.956874
0
3DFACE
8
coconut_palm9_trunk
10
0.286879
20
-0.069837
30
1.462073
11
0.223521
21
-0.082257
31
1.471585
12
0.284247
22
-0.071330
32
1.963019
13
0.341529
23
-0.059109
33
1.959360
0
3DFACE
8
coconut_palm9_trunk
10
0.223521
20
-0.082257
30
1.471585
11
0.168805
21
-0.047138
31
1.479152
12
0.223965
22
-0.049450
32
1.966802
13
0.284247
23
-0.071330
33
1.963019
0
3DFACE
8
coconut_palm9_trunk
10
0.168805
20
-0.047138
30
1.479152
11
0.143809
21
0.011203
31
1.482020
12
0.219226
22
0.013912
32
1.967015
13
0.223965
23
-0.049450
33
1.966802
0
3DFACE
8
coconut_palm9_trunk
10
0.143809
20
0.011203
30
1.482020
11
0.156687
21
0.072372
31
1.479286
12
0.226216
22
0.066726
32
1.966505
13
0.219226
23
0.013912
33
1.967015
0
3DFACE
8
coconut_palm9_trunk
10
0.156687
20
0.072372
30
1.479286
11
0.200590
21
0.117027
31
1.472217
12
0.265226
22
0.104930
32
1.963993
13
0.226216
23
0.066726
33
1.966505
0
3DFACE
8
coconut_palm9_trunk
10
0.200590
20
0.117027
30
1.472217
11
0.261589
21
0.116342
31
1.463242
12
0.322408
22
0.125212
32
1.960340
13
0.265226
23
0.104930
33
1.963993
0
3DFACE
8
coconut_palm9_trunk
10
0.261589
20
0.116342
30
1.463242
11
0.317227
21
0.092643
31
1.455356
12
0.371632
22
0.088472
32
1.957249
13
0.322408
23
0.125212
33
1.960340
0
3DFACE
8
coconut_palm9_trunk
10
0.317227
20
0.092643
30
1.455356
11
0.340464
21
0.035349
31
1.452709
12
0.397296
22
0.035777
32
1.955672
13
0.371632
23
0.088472
33
1.957249
0
3DFACE
8
coconut_palm9_trunk
10
0.397296
20
0.035777
30
1.955672
11
0.379605
21
-0.018515
31
1.956874
12
0.387853
22
-0.011508
32
2.462524
13
0.396525
23
0.045537
33
2.463005
0
3DFACE
8
coconut_palm9_trunk
10
0.379605
20
-0.018515
30
1.956874
11
0.341529
21
-0.059109
31
1.959360
12
0.345052
22
-0.051151
32
2.461226
13
0.387853
23
-0.011508
33
2.462524
0
3DFACE
8
coconut_palm9_trunk
10
0.341529
20
-0.059109
30
1.959360
11
0.284247
21
-0.071330
31
1.963019
12
0.288677
22
-0.050749
32
2.459736
13
0.345052
23
-0.051151
33
2.461226
0
3DFACE
8
coconut_palm9_trunk
10
0.284247
20
-0.071330
30
1.963019
11
0.223965
21
-0.049450
31
1.966802
12
0.241215
22
-0.025367
32
2.458583
13
0.288677
23
-0.050749
33
2.459736
0
3DFACE
8
coconut_palm9_trunk
10
0.223965
20
-0.049450
30
1.966802
11
0.219226
21
0.013912
31
1.967015
12
0.203296
22
0.021811
32
2.457775
13
0.241215
23
-0.025367
33
2.458583
0
3DFACE
8
coconut_palm9_trunk
10
0.219226
20
0.013912
30
1.967015
11
0.226216
21
0.066726
31
1.966505
12
0.224284
22
0.079194
32
2.458602
13
0.203296
23
0.021811
33
2.457775
0
3DFACE
8
coconut_palm9_trunk
10
0.226216
20
0.066726
30
1.966505
11
0.265226
21
0.104930
31
1.963993
12
0.268625
22
0.112778
32
2.459942
13
0.224284
23
0.079194
33
2.458602
0
3DFACE
8
coconut_palm9_trunk
10
0.265226
20
0.104930
30
1.963993
11
0.322408
21
0.125212
31
1.960340
12
0.323853
22
0.130346
32
2.461484
13
0.268625
23
0.112778
33
2.459942
0
3DFACE
8
coconut_palm9_trunk
10
0.322408
20
0.125212
30
1.960340
11
0.371632
21
0.088472
31
1.957249
12
0.374863
22
0.099307
32
2.462682
13
0.323853
23
0.130346
33
2.461484
0
3DFACE
8
coconut_palm9_trunk
10
0.371632
20
0.088472
30
1.957249
11
0.397296
21
0.035777
31
1.955672
12
0.396525
22
0.045537
32
2.463005
13
0.374863
23
0.099307
33
2.462682
0
3DFACE
8
coconut_palm9_trunk
10
0.396525
20
0.045537
30
2.463005
11
0.387853
21
-0.011508
31
2.462524
12
0.310742
22
-0.002200
32
2.963350
13
0.333718
23
0.048808
33
2.966841
0
3DFACE
8
coconut_palm9_trunk
10
0.387853
20
-0.011508
30
2.462524
11
0.345052
21
-0.051151
31
2.461226
12
0.275521
22
-0.039176
32
2.958512
13
0.310742
23
-0.002200
33
2.963350
0
3DFACE
8
coconut_palm9_trunk
10
0.345052
20
-0.051151
30
2.461226
11
0.288677
21
-0.050749
31
2.459736
12
0.221736
22
-0.058125
32
2.951591
13
0.275521
23
-0.039176
33
2.958512
0
3DFACE
8
coconut_palm9_trunk
10
0.288677
20
-0.050749
30
2.459736
11
0.241215
21
-0.025367
31
2.458583
12
0.171417
22
-0.027187
32
2.945728
13
0.221736
23
-0.058125
33
2.951591
0
3DFACE
8
coconut_palm9_trunk
10
0.241215
20
-0.025367
30
2.458583
11
0.203296
21
0.021811
31
2.457775
12
0.160155
22
0.027497
32
2.945021
13
0.171417
23
-0.027187
33
2.945728
0
3DFACE
8
coconut_palm9_trunk
10
0.203296
20
0.021811
30
2.457775
11
0.224284
21
0.079194
31
2.458602
12
0.170335
22
0.076325
32
2.946906
13
0.160155
23
0.027497
33
2.945021
0
3DFACE
8
coconut_palm9_trunk
10
0.224284
20
0.079194
30
2.458602
11
0.268625
21
0.112778
31
2.459942
12
0.200067
22
0.123719
32
2.951200
13
0.170335
23
0.076325
33
2.946906
0
3DFACE
8
coconut_palm9_trunk
10
0.268625
20
0.112778
30
2.459942
11
0.323853
21
0.130346
31
2.461484
12
0.255181
22
0.115767
32
2.957941
13
0.200067
23
0.123719
33
2.951200
0
3DFACE
8
coconut_palm9_trunk
10
0.323853
20
0.130346
30
2.461484
11
0.374863
21
0.099307
31
2.462682
12
0.308442
22
0.101507
32
2.964369
13
0.255181
23
0.115767
33
2.957941
0
3DFACE
8
coconut_palm9_trunk
10
0.374863
20
0.099307
30
2.462682
11
0.396525
21
0.045537
31
2.463005
12
0.333718
22
0.048808
32
2.966841
13
0.308442
23
0.101507
33
2.964369
0
3DFACE
8
coconut_palm9_trunk
10
0.333718
20
0.048808
30
2.966841
11
0.310742
21
-0.002200
31
2.963350
12
0.213649
22
-0.049867
32
3.454963
13
0.221214
23
-0.001339
33
3.458311
0
3DFACE
8
coconut_palm9_trunk
10
0.310742
20
-0.002200
30
2.963350
11
0.275521
21
-0.039176
31
2.958512
12
0.182676
22
-0.093141
32
3.446713
13
0.213649
23
-0.049867
33
3.454963
0
3DFACE
8
coconut_palm9_trunk
10
0.275521
20
-0.039176
30
2.958512
11
0.221736
21
-0.058125
31
2.951591
12
0.130031
22
-0.090154
32
3.435371
13
0.182676
23
-0.093141
33
3.446713
0
3DFACE
8
coconut_palm9_trunk
10
0.221736
20
-0.058125
30
2.951591
11
0.171417
21
-0.027187
31
2.945728
12
0.082960
22
-0.069758
32
3.425847
13
0.130031
23
-0.090154
33
3.435371
0
3DFACE
8
coconut_palm9_trunk
10
0.171417
20
-0.027187
30
2.945728
11
0.160155
21
0.027497
31
2.945021
12
0.067999
22
-0.020151
32
3.424322
13
0.082960
23
-0.069758
33
3.425847
0
3DFACE
8
coconut_palm9_trunk
10
0.160155
20
0.027497
30
2.945021
11
0.170335
21
0.076325
31
2.946906
12
0.075594
22
0.028595
32
3.427675
13
0.067999
23
-0.020151
33
3.424322
0
3DFACE
8
coconut_palm9_trunk
10
0.170335
20
0.076325
30
2.946906
11
0.200067
21
0.123719
31
2.951200
12
0.108971
22
0.067139
32
3.436286
13
0.075594
23
0.028595
33
3.427675
0
3DFACE
8
coconut_palm9_trunk
10
0.200067
20
0.123719
30
2.951200
11
0.255181
21
0.115767
31
2.957941
12
0.161247
22
0.078013
32
3.448045
13
0.108971
23
0.067139
33
3.436286
0
3DFACE
8
coconut_palm9_trunk
10
0.255181
20
0.115767
30
2.957941
11
0.308442
21
0.101507
31
2.964369
12
0.211257
22
0.052767
32
3.458044
13
0.161247
23
0.078013
33
3.448045
0
3DFACE
8
coconut_palm9_trunk
10
0.308442
20
0.101507
30
2.964369
11
0.333718
21
0.048808
31
2.966841
12
0.221214
22
-0.001339
32
3.458311
13
0.211257
23
0.052767
33
3.458044
0
3DFACE
8
coconut_palm9_trunk
10
0.221214
20
-0.001339
30
3.458311
11
0.213649
21
-0.049867
31
3.454963
12
0.095767
22
-0.096355
32
3.939918
13
0.113334
23
-0.051636
33
3.947108
0
3DFACE
8
coconut_palm9_trunk
10
0.213649
20
-0.049867
30
3.454963
11
0.182676
21
-0.093141
31
3.446713
12
0.068091
22
-0.133795
32
3.930282
13
0.095767
23
-0.096355
33
3.939918
0
3DFACE
8
coconut_palm9_trunk
10
0.182676
20
-0.093141
30
3.446713
11
0.130031
21
-0.090154
31
3.435371
12
0.022266
22
-0.131925
32
3.917601
13
0.068091
23
-0.133795
33
3.930282
0
3DFACE
8
coconut_palm9_trunk
10
0.130031
20
-0.090154
30
3.435371
11
0.082960
21
-0.069758
31
3.425847
12
-0.021332
22
-0.115837
32
3.906270
13
0.022266
23
-0.131925
33
3.917601
0
3DFACE
8
coconut_palm9_trunk
10
0.082960
20
-0.069758
30
3.425847
11
0.067999
21
-0.020151
31
3.424322
12
-0.044080
22
-0.070964
32
3.902228
13
-0.021332
23
-0.115837
33
3.906270
0
3DFACE
8
coconut_palm9_trunk
10
0.067999
20
-0.020151
30
3.424322
11
0.075594
21
0.028595
31
3.427675
12
-0.033068
22
-0.022093
32
3.907804
13
-0.044080
23
-0.070964
33
3.902228
0
3DFACE
8
coconut_palm9_trunk
10
0.075594
20
0.028595
30
3.427675
11
0.108971
21
0.067139
31
3.436286
12
0.001001
22
0.012778
32
3.919090
13
-0.033068
23
-0.022093
33
3.907804
0
3DFACE
8
coconut_palm9_trunk
10
0.108971
20
0.067139
30
3.436286
11
0.161247
21
0.078013
31
3.448045
12
0.047094
22
0.007005
32
3.931646
13
0.001001
23
0.012778
33
3.919090
0
3DFACE
8
coconut_palm9_trunk
10
0.161247
20
0.078013
30
3.448045
11
0.211257
21
0.052767
31
3.458044
12
0.083766
22
-0.013833
32
3.940803
13
0.047094
23
0.007005
33
3.931646
0
3DFACE
8
coconut_palm9_trunk
10
0.211257
20
0.052767
30
3.458044
11
0.221214
21
-0.001339
31
3.458311
12
0.113334
22
-0.051636
32
3.947108
13
0.083766
23
-0.013833
33
3.940803
0
3DFACE
8
coconut_palm9_trunk
10
0.113334
20
-0.051636
30
3.947108
11
0.095767
21
-0.096355
31
3.939918
12
0.070138
22
-0.210783
32
4.443839
13
0.071248
23
-0.123370
33
4.449677
0
3DFACE
8
coconut_palm9_trunk
10
0.095767
20
-0.096355
30
3.939918
11
0.068091
21
-0.133795
31
3.930282
12
0.004237
22
-0.267642
32
4.422568
13
0.070138
23
-0.210783
33
4.443839
0
3DFACE
8
coconut_palm9_trunk
10
0.068091
20
-0.133795
30
3.930282
11
0.022266
21
-0.131925
31
3.917601
12
-0.078153
22
-0.268621
32
4.400416
13
0.004237
23
-0.267642
33
4.422568
0
3DFACE
8
coconut_palm9_trunk
10
0.022266
20
-0.131925
30
3.917601
11
-0.021332
21
-0.115837
31
3.906270
12
-0.150709
22
-0.231517
32
4.383315
13
-0.078153
23
-0.268621
33
4.400416
0
3DFACE
8
coconut_palm9_trunk
10
-0.021332
20
-0.115837
30
3.906270
11
-0.044080
21
-0.070964
31
3.902228
12
-0.166340
22
-0.152542
32
4.384129
13
-0.150709
23
-0.231517
33
4.383315
0
3DFACE
8
coconut_palm9_trunk
10
-0.044080
20
-0.070964
30
3.902228
11
-0.033068
21
-0.022093
31
3.907804
12
-0.159093
22
-0.079397
32
4.390707
13
-0.166340
23
-0.152542
33
4.384129
0
3DFACE
8
coconut_palm9_trunk
10
-0.033068
20
-0.022093
30
3.907804
11
0.001001
21
0.012778
31
3.919090
12
-0.109841
22
-0.020843
32
4.407623
13
-0.159093
23
-0.079397
33
4.390707
0
3DFACE
8
coconut_palm9_trunk
10
0.001001
20
0.012778
30
3.919090
11
0.047094
21
0.007005
31
3.931646
12
-0.032041
22
-0.007227
32
4.429345
13
-0.109841
23
-0.020843
33
4.407623
0
3DFACE
8
coconut_palm9_trunk
10
0.047094
20
0.007005
30
3.931646
11
0.083766
21
-0.013833
31
3.940803
12
0.031966
22
-0.054252
32
4.443525
13
-0.032041
23
-0.007227
33
4.429345
0
3DFACE
8
coconut_palm9_trunk
10
0.083766
20
-0.013833
30
3.940803
11
0.113334
21
-0.051636
31
3.947108
12
0.071248
22
-0.123370
32
4.449677
13
0.031966
23
-0.054252
33
4.443525
0
3DFACE
8
coconut_palm9_trunk
10
0.071248
20
-0.123370
30
4.449677
11
0.070138
21
-0.210783
31
4.443839
12
-0.167249
22
-0.134090
32
4.903533
13
-0.167980
23
-0.126688
33
4.903744
0
3DFACE
8
coconut_palm9_trunk
10
0.070138
20
-0.210783
30
4.443839
11
0.004237
21
-0.267642
31
4.422568
12
-0.173251
22
-0.138247
32
4.901706
13
-0.167249
23
-0.134090
33
4.903533
0
3DFACE
8
coconut_palm9_trunk
10
0.004237
20
-0.267642
30
4.422568
11
-0.078153
21
-0.268621
31
4.400416
12
-0.179824
22
-0.138125
32
4.899961
13
-0.173251
23
-0.138247
33
4.901706
0
3DFACE
8
coconut_palm9_trunk
10
-0.078153
20
-0.268621
30
4.400416
11
-0.150709
21
-0.231517
31
4.383315
12
-0.185045
22
-0.134739
32
4.898755
13
-0.179824
23
-0.138125
33
4.899961
0
3DFACE
8
coconut_palm9_trunk
10
-0.150709
20
-0.231517
30
4.383315
11
-0.166340
21
-0.152542
31
4.384129
12
-0.188797
22
-0.129245
32
4.898055
13
-0.185045
23
-0.134739
33
4.898755
0
3DFACE
8
coconut_palm9_trunk
10
-0.166340
20
-0.152542
30
4.384129
11
-0.159093
21
-0.079397
31
4.390707
12
-0.186609
22
-0.122979
32
4.898981
13
-0.188797
23
-0.129245
33
4.898055
0
3DFACE
8
coconut_palm9_trunk
10
-0.159093
20
-0.079397
30
4.390707
11
-0.109841
21
-0.020843
31
4.407623
12
-0.182561
22
-0.118007
32
4.900332
13
-0.186609
23
-0.122979
33
4.898981
0
3DFACE
8
coconut_palm9_trunk
10
-0.109841
20
-0.020843
30
4.407623
11
-0.032041
21
-0.007227
31
4.429345
12
-0.175887
22
-0.116077
32
4.902216
13
-0.182561
23
-0.118007
33
4.900332
0
3DFACE
8
coconut_palm9_trunk
10
-0.032041
20
-0.007227
30
4.429345
11
0.031966
21
-0.054252
31
4.443525
12
-0.170229
22
-0.120392
32
4.903489
13
-0.175887
23
-0.116077
33
4.902216
0
3DFACE
8
coconut_palm9_trunk
10
0.031966
20
-0.054252
30
4.443525
11
0.071248
21
-0.123370
31
4.449677
12
-0.167980
22
-0.126688
32
4.903744
13
-0.170229
23
-0.120392
33
4.903489
0
3DFACE
8
coconut_palm9_trunk
10
-0.167980
20
-0.126688
30
4.903744
11
-0.167249
21
-0.134090
31
4.903533
12
-0.177743
22
-0.127859
32
4.901077
13
-0.177743
23
-0.127859
33
4.901077
0
3DFACE
8
coconut_palm9_trunk
10
-0.167249
20
-0.134090
30
4.903533
11
-0.173251
21
-0.138247
31
4.901706
12
-0.177743
22
-0.127859
32
4.901077
13
-0.177743
23
-0.127859
33
4.901077
0
3DFACE
8
coconut_palm9_trunk
10
-0.173251
20
-0.138247
30
4.901706
11
-0.179824
21
-0.138125
31
4.899961
12
-0.177743
22
-0.127859
32
4.901077
13
-0.177743
23
-0.127859
33
4.901077
0
3DFACE
8
coconut_palm9_trunk
10
-0.179824
20
-0.138125
30
4.899961
11
-0.185045
21
-0.134739
31
4.898755
12
-0.177743
22
-0.127859
32
4.901077
13
-0.177743
23
-0.127859
33
4.901077
0
3DFACE
8
coconut_palm9_trunk
10
-0.185045
20
-0.134739
30
4.898755
11
-0.188797
21
-0.129245
31
4.898055
12
-0.177743
22
-0.127859
32
4.901077
13
-0.177743
23
-0.127859
33
4.901077
0
3DFACE
8
coconut_palm9_trunk
10
-0.188797
20
-0.129245
30
4.898055
11
-0.186609
21
-0.122979
31
4.898981
12
-0.177743
22
-0.127859
32
4.901077
13
-0.177743
23
-0.127859
33
4.901077
0
3DFACE
8
coconut_palm9_trunk
10
-0.186609
20
-0.122979
30
4.898981
11
-0.182561
21
-0.118007
31
4.900332
12
-0.177743
22
-0.127859
32
4.901077
13
-0.177743
23
-0.127859
33
4.901077
0
3DFACE
8
coconut_palm9_trunk
10
-0.182561
20
-0.118007
30
4.900332
11
-0.175887
21
-0.116077
31
4.902216
12
-0.177743
22
-0.127859
32
4.901077
13
-0.177743
23
-0.127859
33
4.901077
0
3DFACE
8
coconut_palm9_trunk
10
-0.175887
20
-0.116077
30
4.902216
11
-0.170229
21
-0.120392
31
4.903489
12
-0.177743
22
-0.127859
32
4.901077
13
-0.177743
23
-0.127859
33
4.901077
0
3DFACE
8
coconut_palm9_trunk
10
-0.170229
20
-0.120392
30
4.903489
11
-0.167980
21
-0.126688
31
4.903744
12
-0.177743
22
-0.127859
32
4.901077
13
-0.177743
23
-0.127859
33
4.901077
0
3DFACE
8
coconut_palm9_leaves
10
0.075969
20
-1.118272
30
4.975938
11
-0.007615
21
-1.110574
31
4.469828
12
0.067478
22
-1.623612
32
4.507123
13
0.151061
23
-1.631311
33
5.013233
0
3DFACE
8
coconut_palm9_leaves
10
-0.021691
20
-0.619031
30
5.030249
11
-0.105275
21
-0.611333
31
4.524139
12
-0.007615
22
-1.110574
32
4.469828
13
0.075969
23
-1.118272
33
4.975938
0
3DFACE
8
coconut_palm9_leaves
10
-0.131316
20
-0.132215
30
5.136250
11
-0.214899
21
-0.124517
31
4.630141
12
-0.105275
22
-0.611333
32
4.524139
13
-0.021691
23
-0.619031
33
5.030249
0
3DFACE
8
coconut_palm9_leaves
10
0.034177
20
-1.114423
30
4.722882
11
0.277921
21
-1.061951
31
4.702733
12
0.344315
22
-1.587929
32
4.780000
13
0.109270
23
-1.627461
33
4.760178
0
3DFACE
8
coconut_palm9_leaves
10
-0.219180
20
-1.175027
30
4.783435
11
0.034177
21
-1.114423
31
4.722882
12
0.109270
22
-1.627461
32
4.760178
13
-0.156765
23
-1.680142
33
4.862596
0
3DFACE
8
coconut_palm9_leaves
10
-0.063483
20
-0.615182
30
4.777194
11
0.182844
21
-0.552668
31
4.741379
12
0.277921
22
-1.061951
32
4.702733
13
0.034177
23
-1.114423
33
4.722882
0
3DFACE
8
coconut_palm9_leaves
10
-0.311324
20
-0.679462
30
4.819670
11
-0.063483
21
-0.615182
31
4.777194
12
0.034177
22
-1.114423
32
4.722882
13
-0.219180
23
-1.175027
33
4.783435
0
3DFACE
8
coconut_palm9_leaves
10
-0.173107
20
-0.128366
30
4.883196
11
0.073205
21
-0.061581
31
4.844823
12
0.182844
22
-0.552668
32
4.741379
13
-0.063483
23
-0.615182
33
4.777194
0
3DFACE
8
coconut_palm9_leaves
10
-0.419419
20
-0.195150
30
4.921569
11
-0.173107
21
-0.128366
31
4.883196
12
-0.063483
22
-0.615182
32
4.777194
13
-0.311324
23
-0.679462
33
4.819670
0
3DFACE
8
coconut_palm9_leaves
10
-0.910321
20
0.110659
30
5.610259
11
-1.038879
21
0.488474
31
5.261121
12
-1.381735
22
0.637566
32
5.655802
13
-1.253177
23
0.259751
33
6.004940
0
3DFACE
8
coconut_palm9_leaves
10
-0.520979
20
-0.089811
30
5.307868
11
-0.649538
21
0.288004
31
4.958729
12
-1.038879
22
0.488474
32
5.261121
13
-0.910321
23
0.110659
33
5.610259
0
3DFACE
8
coconut_palm9_leaves
10
-0.109954
20
-0.317150
30
5.062108
11
-0.238513
21
0.060665
31
4.712971
12
-0.649538
22
0.288004
32
4.958729
13
-0.520979
23
-0.089811
33
5.307868
0
3DFACE
8
coconut_palm9_leaves
10
-0.974600
20
0.299567
30
5.435689
11
-1.138000
21
0.120941
31
5.340197
12
-1.463287
22
0.248468
32
5.779801
13
-1.317456
23
0.448659
33
5.830371
0
3DFACE
8
coconut_palm9_leaves
10
-0.791969
20
0.455617
30
5.575541
11
-0.974600
21
0.299567
31
5.435689
12
-1.317456
22
0.448659
32
5.830371
13
-1.102036
23
0.575427
33
6.002765
0
3DFACE
8
coconut_palm9_leaves
10
-0.585258
20
0.099097
30
5.133298
11
-0.751522
21
-0.072900
31
5.015914
12
-1.138000
22
0.120941
32
5.340197
13
-0.974600
23
0.299567
33
5.435689
0
3DFACE
8
coconut_palm9_leaves
10
-0.416264
20
0.267581
30
5.258418
11
-0.585258
21
0.099097
31
5.133298
12
-0.974600
22
0.299567
32
5.435689
13
-0.791969
23
0.455617
33
5.575541
0
3DFACE
8
coconut_palm9_leaves
10
-0.174233
20
-0.128243
30
4.887539
11
-0.339097
21
-0.300022
31
4.764676
12
-0.751522
22
-0.072900
32
5.015914
13
-0.585258
23
0.099097
33
5.133298
0
3DFACE
8
coconut_palm9_leaves
10
-0.009370
20
0.043537
30
5.010403
11
-0.174233
21
-0.128243
31
4.887539
12
-0.585258
22
0.099097
32
5.133298
13
-0.416264
23
0.267581
33
5.258418
0
3DFACE
8
coconut_palm9_leaves
10
1.249392
20
-0.069579
30
4.488455
11
0.925813
21
-0.263947
31
4.106840
12
1.285642
22
-0.250320
32
3.314481
13
1.631604
23
-0.053203
33
3.720305
0
3DFACE
8
coconut_palm9_leaves
10
0.674626
20
-0.060573
30
4.757298
11
0.351047
21
-0.254941
31
4.375682
12
0.925813
22
-0.263947
32
4.106840
13
1.249392
23
-0.069579
33
4.488455
0
3DFACE
8
coconut_palm9_leaves
10
0.066882
20
-0.039730
30
4.772367
11
-0.256696
21
-0.234098
31
4.390752
12
0.351047
22
-0.254941
32
4.375682
13
0.674626
23
-0.060573
33
4.757298
0
3DFACE
8
coconut_palm9_leaves
10
1.087603
20
-0.166763
30
4.297647
11
1.019069
21
0.120426
31
4.065085
12
1.131563
22
0.145596
32
3.126557
13
1.461498
23
-0.151409
33
3.512657
0
3DFACE
8
coconut_palm9_leaves
10
1.089724
20
-0.442061
30
4.303267
11
1.087603
21
-0.166763
31
4.297647
12
1.461498
22
-0.151409
32
3.512657
13
1.316951
23
-0.415576
33
3.316433
0
3DFACE
8
coconut_palm9_leaves
10
0.512837
20
-0.157757
30
4.566490
11
0.514017
21
0.123339
31
4.420222
12
1.019069
22
0.120426
32
4.065085
13
1.087603
23
-0.166763
33
4.297647
0
3DFACE
8
coconut_palm9_leaves
10
0.510087
20
-0.437135
30
4.673208
11
0.512837
21
-0.157757
31
4.566490
12
1.087603
22
-0.166763
32
4.297647
13
1.089724
23
-0.442061
33
4.303267
0
3DFACE
8
coconut_palm9_leaves
10
-0.094907
20
-0.136914
30
4.581560
11
-0.073848
21
0.142639
31
4.455291
12
0.514017
22
0.123339
32
4.420222
13
0.512837
23
-0.157757
33
4.566490
0
3DFACE
8
coconut_palm9_leaves
10
-0.115966
20
-0.416467
30
4.707829
11
-0.094907
21
-0.136914
31
4.581560
12
0.512837
22
-0.157757
32
4.566490
13
0.510087
23
-0.437135
33
4.673208
0
3DFACE
8
coconut_palm9_leaves
10
0.062735
20
0.895946
30
5.044613
11
0.293784
21
0.731415
31
4.674881
12
0.535984
22
1.196393
32
4.386195
13
0.304935
23
1.360924
33
4.755927
0
3DFACE
8
coconut_palm9_leaves
10
-0.112226
20
0.405223
30
5.031882
11
0.118823
21
0.240692
31
4.662150
12
0.293784
22
0.731415
32
4.674881
13
0.062735
23
0.895946
33
5.044613
0
3DFACE
8
coconut_palm9_leaves
10
-0.232845
20
-0.052198
30
4.852878
11
-0.001795
21
-0.216729
31
4.483146
12
0.118823
22
0.240692
32
4.662150
13
-0.112226
23
0.405223
33
5.031882
0
3DFACE
8
coconut_palm9_leaves
10
0.178259
20
0.813680
30
4.859747
11
0.010752
21
0.900369
31
4.639179
12
0.255831
22
1.285001
32
4.224338
13
0.420459
23
1.278659
33
4.571060
0
3DFACE
8
coconut_palm9_leaves
10
0.382620
20
0.736781
30
4.949267
11
0.178259
21
0.813680
31
4.859747
12
0.420459
22
1.278659
32
4.571060
13
0.651569
23
1.185053
33
4.531433
0
3DFACE
8
coconut_palm9_leaves
10
0.003299
20
0.322958
30
4.847016
11
-0.172450
21
0.429217
31
4.686852
12
0.010752
22
0.900369
32
4.639179
13
0.178259
23
0.813680
33
4.859747
0
3DFACE
8
coconut_palm9_leaves
10
0.186484
20
0.222601
30
4.986349
11
0.003299
21
0.322958
31
4.847016
12
0.178259
22
0.813680
32
4.859747
13
0.382620
23
0.736781
33
4.949267
0
3DFACE
8
coconut_palm9_leaves
10
-0.117320
20
-0.134464
30
4.668012
11
-0.294146
21
-0.020770
31
4.522713
12
-0.172450
22
0.429217
32
4.686852
13
0.003299
23
0.322958
33
4.847016
0
3DFACE
8
coconut_palm9_leaves
10
0.059506
20
-0.248158
30
4.813312
11
-0.117320
21
-0.134464
31
4.668012
12
0.003299
22
0.322958
32
4.847016
13
0.186484
23
0.222601
33
4.986349
0
3DFACE
8
coconut_palm9_leaves
10
0.020415
20
-0.891701
30
4.397139
11
-0.067787
21
-0.595294
31
4.219664
12
0.060819
22
-0.612875
32
3.735267
13
0.149228
23
-0.909257
33
3.912214
0
3DFACE
8
coconut_palm9_leaves
10
-0.062231
20
-0.632827
30
4.712554
11
-0.150434
21
-0.336419
31
4.535080
12
-0.067787
22
-0.595294
32
4.219664
13
0.020415
23
-0.891701
33
4.397139
0
3DFACE
8
coconut_palm9_leaves
10
-0.107680
20
-0.278900
30
4.889674
11
-0.195882
21
0.017507
31
4.712200
12
-0.150434
22
-0.336419
32
4.535080
13
-0.062231
23
-0.632827
33
4.712554
0
3DFACE
8
coconut_palm9_leaves
10
-0.023686
20
-0.743498
30
4.308401
11
0.180319
21
-0.654112
31
4.261818
12
0.310850
22
-0.553195
32
3.771362
13
0.105126
23
-0.761053
33
3.823477
0
3DFACE
8
coconut_palm9_leaves
10
-0.207486
20
-0.763628
30
4.280169
11
-0.023686
21
-0.743498
31
4.308401
12
0.105126
22
-0.761053
32
3.823477
13
-0.064219
23
-0.697573
33
3.742311
0
3DFACE
8
coconut_palm9_leaves
10
-0.106332
20
-0.484623
30
4.623817
11
0.092665
21
-0.442667
31
4.595251
12
0.180319
22
-0.654112
32
4.261818
13
-0.023686
23
-0.743498
33
4.308401
0
3DFACE
8
coconut_palm9_leaves
10
-0.301329
20
-0.518384
30
4.637472
11
-0.106332
21
-0.484623
31
4.623817
12
-0.023686
22
-0.743498
32
4.308401
13
-0.207486
23
-0.763628
33
4.280169
0
3DFACE
8
coconut_palm9_leaves
10
-0.151781
20
-0.130697
30
4.800937
11
0.046312
21
-0.102401
31
4.775536
12
0.092665
22
-0.442667
32
4.595251
13
-0.106332
23
-0.484623
33
4.623817
0
3DFACE
8
coconut_palm9_leaves
10
-0.349875
20
-0.158992
30
4.826338
11
-0.151781
21
-0.130697
31
4.800937
12
-0.106332
22
-0.484623
32
4.623817
13
-0.301329
23
-0.518384
33
4.637472
0
3DFACE
8
coconut_palm9_leaves
10
-0.125645
20
0.714816
30
4.936537
11
0.124048
21
0.649400
31
4.606375
12
0.203477
22
1.054351
32
4.575506
13
-0.046216
23
1.119767
33
4.905668
0
3DFACE
8
coconut_palm9_leaves
10
-0.201856
20
0.308673
30
4.954233
11
0.047837
21
0.243258
31
4.624071
12
0.124048
22
0.649400
32
4.606375
13
-0.125645
23
0.714816
33
4.936537
0
3DFACE
8
coconut_palm9_leaves
10
-0.276208
20
-0.098035
30
4.964398
11
-0.026515
21
-0.163451
31
4.634236
12
0.047837
22
0.243258
32
4.624071
13
-0.201856
23
0.308673
33
4.954233
0
3DFACE
8
coconut_palm9_leaves
10
-0.000799
20
0.682108
30
4.771456
11
-0.163178
21
0.707452
31
4.640780
12
-0.082869
22
1.110508
32
4.605247
13
0.078631
23
1.087059
33
4.740587
0
3DFACE
8
coconut_palm9_leaves
10
0.162745
20
0.656379
30
4.897397
11
-0.000799
21
0.682108
31
4.771456
12
0.078631
22
1.087059
32
4.740587
13
0.243580
23
1.062230
33
4.861734
0
3DFACE
8
coconut_palm9_leaves
10
-0.077010
20
0.275965
30
4.789153
11
-0.239701
21
0.302406
31
4.660420
12
-0.163178
22
0.707452
32
4.640780
13
-0.000799
23
0.682108
33
4.771456
0
3DFACE
8
coconut_palm9_leaves
10
0.085877
20
0.249469
30
4.917094
11
-0.077010
21
0.275965
31
4.789153
12
-0.000799
22
0.682108
32
4.771456
13
0.162745
23
0.656379
33
4.897397
0
3DFACE
8
coconut_palm9_leaves
10
-0.151362
20
-0.130743
30
4.799317
11
-0.314066
21
-0.103807
31
4.670969
12
-0.239701
22
0.302406
32
4.660420
13
-0.077010
23
0.275965
33
4.789153
0
3DFACE
8
coconut_palm9_leaves
10
0.011343
20
-0.157678
30
4.927665
11
-0.151362
21
-0.130743
31
4.799317
12
-0.077010
22
0.275965
32
4.789153
13
0.085877
23
0.249469
33
4.917094
0
3DFACE
8
coconut_palm9_leaves
10
0.296535
20
-0.628483
30
5.914386
11
0.429428
21
-0.983450
31
5.452378
12
0.765430
22
-1.360920
32
5.777406
13
0.632537
23
-1.005953
33
6.239413
0
3DFACE
8
coconut_palm9_leaves
10
0.014395
20
-0.280445
30
5.523568
11
0.147288
21
-0.635412
31
5.061560
12
0.429428
22
-0.983450
32
5.452378
13
0.296535
23
-0.628483
33
5.914386
0
3DFACE
8
coconut_palm9_leaves
10
-0.235224
20
0.048644
30
5.097497
11
-0.102331
21
-0.306323
31
4.635489
12
0.147288
22
-0.635412
32
5.061560
13
0.014395
23
-0.280445
33
5.523568
0
3DFACE
8
coconut_palm9_leaves
10
0.362982
20
-0.805967
30
5.683382
11
0.632092
21
-0.662086
31
5.623297
12
0.988478
22
-1.045854
32
5.905067
13
0.698983
23
-1.183436
33
6.008409
0
3DFACE
8
coconut_palm9_leaves
10
0.122529
20
-0.966091
30
5.710677
11
0.362982
21
-0.805967
31
5.683382
12
0.698983
22
-1.183436
32
6.008409
13
0.489965
23
-1.363312
33
6.007076
0
3DFACE
8
coconut_palm9_leaves
10
0.080841
20
-0.457929
30
5.292564
11
0.341472
21
-0.311713
31
5.251559
12
0.632092
22
-0.662086
32
5.623297
13
0.362982
23
-0.805967
33
5.683382
0
3DFACE
8
coconut_palm9_leaves
10
-0.174834
20
-0.607076
30
5.328366
11
0.080841
21
-0.457929
31
5.292564
12
0.362982
22
-0.805967
32
5.683382
13
0.122529
23
-0.966091
33
5.710677
0
3DFACE
8
coconut_palm9_leaves
10
-0.168777
20
-0.128839
30
4.866493
11
0.090961
21
0.016739
31
4.830846
12
0.341472
22
-0.311713
32
5.251559
13
0.080841
23
-0.457929
33
5.292564
0
3DFACE
8
coconut_palm9_leaves
10
-0.428515
20
-0.274417
30
4.902141
11
-0.168777
21
-0.128839
31
4.866493
12
0.080841
22
-0.457929
32
5.292564
13
-0.174834
23
-0.607076
33
5.328366
0
3DFACE
8
coconut_palm9_leaves
10
0.552819
20
0.411464
30
5.354629
11
0.618655
21
0.224397
31
5.006909
12
1.094338
22
0.449892
32
4.689864
13
1.028501
23
0.636959
33
5.037584
0
3DFACE
8
coconut_palm9_leaves
10
0.123844
20
0.165988
30
5.269555
11
0.189681
21
-0.021079
31
4.921836
12
0.618655
22
0.224397
32
5.006909
13
0.552819
23
0.411464
33
5.354629
0
3DFACE
8
coconut_palm9_leaves
10
-0.185014
20
-0.037129
30
4.976008
11
-0.119177
21
-0.224196
31
4.628287
12
0.189681
22
-0.021079
32
4.921836
13
0.123844
23
0.165988
33
5.269555
0
3DFACE
8
coconut_palm9_leaves
10
0.585737
20
0.317931
30
5.180769
11
0.547860
21
0.518637
31
4.978894
12
0.927999
22
0.674582
32
4.511894
13
1.061419
23
0.543425
33
4.863724
0
3DFACE
8
coconut_palm9_leaves
10
0.682966
20
0.131659
30
5.222418
11
0.585737
21
0.317931
31
5.180769
12
1.061419
22
0.543425
32
4.863724
13
1.144992
23
0.332773
33
4.756761
0
3DFACE
8
coconut_palm9_leaves
10
0.156762
20
0.072454
30
5.095695
11
0.123464
21
0.285204
31
4.977725
12
0.547860
22
0.518637
32
4.978894
13
0.585737
23
0.317931
33
5.180769
0
3DFACE
8
coconut_palm9_leaves
10
0.207081
20
-0.133588
30
5.190334
11
0.156762
21
0.072454
31
5.095695
12
0.585737
22
0.317931
32
5.180769
13
0.682966
23
0.131659
33
5.222418
0
3DFACE
8
coconut_palm9_leaves
10
-0.152095
20
-0.130663
30
4.802148
11
-0.183014
21
0.086026
31
4.707353
12
0.123464
22
0.285204
32
4.977725
13
0.156762
23
0.072454
33
5.095695
0
3DFACE
8
coconut_palm9_leaves
10
-0.121176
20
-0.347352
30
4.896943
11
-0.152095
21
-0.130663
31
4.802148
12
0.156762
22
0.072454
32
5.095695
13
0.207081
23
-0.133588
33
5.190334
0
3DFACE
8
coconut_palm9_leaves
10
-0.951906
20
-0.576436
30
4.629575
11
-0.773607
21
-0.399135
31
4.388963
12
-0.887116
22
-0.502361
32
3.823601
13
-1.065415
23
-0.679662
33
4.064213
0
3DFACE
8
coconut_palm9_leaves
10
-0.610101
20
-0.397497
30
4.866349
11
-0.431802
21
-0.220196
31
4.625737
12
-0.773607
22
-0.399135
32
4.388963
13
-0.951906
23
-0.576436
33
4.629575
0
3DFACE
8
coconut_palm9_leaves
10
-0.227678
20
-0.220796
30
4.870127
11
-0.049380
21
-0.043495
31
4.629515
12
-0.431802
22
-0.220196
32
4.625737
13
-0.610101
23
-0.397497
33
4.866349
0
3DFACE
8
coconut_palm9_leaves
10
-0.862756
20
-0.487785
30
4.509269
11
-0.726849
21
-0.656789
31
4.387161
12
-0.688455
22
-0.694262
32
3.774018
13
-0.976266
23
-0.591011
33
3.943907
0
3DFACE
8
coconut_palm9_leaves
10
-0.947711
20
-0.307955
30
4.490571
11
-0.862756
21
-0.487785
31
4.509269
12
-0.976266
22
-0.591011
32
3.943907
13
-0.958688
23
-0.372182
33
3.833139
0
3DFACE
8
coconut_palm9_leaves
10
-0.520951
20
-0.308847
30
4.746043
11
-0.431736
21
-0.494666
31
4.676359
12
-0.726849
22
-0.656789
32
4.387161
13
-0.862756
23
-0.487785
33
4.509269
0
3DFACE
8
coconut_palm9_leaves
10
-0.608731
20
-0.124651
30
4.790338
11
-0.520951
21
-0.308847
31
4.746043
12
-0.862756
22
-0.487785
32
4.509269
13
-0.947711
23
-0.307955
33
4.490571
0
3DFACE
8
coconut_palm9_leaves
10
-0.138529
20
-0.132145
30
4.749821
11
-0.061525
21
-0.322400
31
4.693420
12
-0.431736
22
-0.494666
32
4.676359
13
-0.520951
23
-0.308847
33
4.746043
0
3DFACE
8
coconut_palm9_leaves
10
-0.215533
20
0.058110
30
4.806221
11
-0.138529
21
-0.132145
31
4.749821
12
-0.520951
22
-0.308847
32
4.746043
13
-0.608731
23
-0.124651
33
4.790338
0
3DFACE
8
coconut_palm9_leaves
10
0.484996
20
-0.538689
30
5.663264
11
0.514089
21
-0.709524
31
5.224656
12
1.037992
22
-0.994887
32
5.151220
13
1.008899
23
-0.824053
33
5.589829
0
3DFACE
8
coconut_palm9_leaves
10
0.079948
20
-0.259055
30
5.400013
11
0.109040
21
-0.429890
31
4.961404
12
0.514089
22
-0.709524
32
5.224656
13
0.484996
23
-0.538689
33
5.663264
0
3DFACE
8
coconut_palm9_leaves
10
-0.153361
20
-0.046697
30
4.970226
11
-0.124268
21
-0.217532
31
4.531617
12
0.109040
22
-0.429890
32
4.961404
13
0.079948
23
-0.259055
33
5.400013
0
3DFACE
8
coconut_palm9_leaves
10
0.499543
20
-0.624107
30
5.443960
11
0.741688
21
-0.459126
31
5.306945
12
1.175509
22
-0.667333
32
5.093799
13
1.023445
23
-0.909470
33
5.370524
0
3DFACE
8
coconut_palm9_leaves
10
0.363895
20
-0.822189
30
5.430968
11
0.499543
21
-0.624107
31
5.443960
12
1.023445
22
-0.909470
32
5.370524
13
0.868034
23
-1.073239
33
5.232596
0
3DFACE
8
coconut_palm9_leaves
10
0.094494
20
-0.344473
30
5.180708
11
0.317487
21
-0.185019
31
5.132931
12
0.741688
22
-0.459126
32
5.306945
13
0.499543
23
-0.624107
33
5.443960
0
3DFACE
8
coconut_palm9_leaves
10
-0.102500
20
-0.515002
30
5.208108
11
0.094494
21
-0.344473
31
5.180708
12
0.499543
22
-0.624107
32
5.443960
13
0.363895
23
-0.822189
33
5.430968
0
3DFACE
8
coconut_palm9_leaves
10
-0.138815
20
-0.132114
30
4.750921
11
0.079064
21
0.025390
31
4.729541
12
0.317487
22
-0.185019
32
5.132931
13
0.094494
23
-0.344473
33
5.180708
0
3DFACE
8
coconut_palm9_leaves
10
-0.356693
20
-0.289619
30
4.772303
11
-0.138815
21
-0.132114
31
4.750921
12
0.094494
22
-0.344473
32
5.180708
13
-0.102500
23
-0.515002
33
5.208108
0
3DFACE
8
coconut_palm9_leaves
10
0.578349
20
0.011618
30
5.508395
11
0.910917
21
-0.217531
31
5.122407
12
1.331893
22
-0.201159
32
5.477886
13
0.999324
23
0.027990
33
5.863873
0
3DFACE
8
coconut_palm9_leaves
10
0.155382
20
-0.004906
30
5.155309
11
0.487951
21
-0.234055
31
4.769321
12
0.910917
22
-0.217531
32
5.122407
13
0.578349
23
0.011618
33
5.508395
0
3DFACE
8
coconut_palm9_leaves
10
-0.268720
20
-0.021517
30
4.803593
11
0.063849
21
-0.250665
31
4.417605
12
0.487951
22
-0.234055
32
4.769321
13
0.155382
23
-0.004906
33
5.155309
0
3DFACE
8
coconut_palm9_leaves
10
0.744633
20
-0.102957
30
5.315401
11
0.811472
21
0.150854
31
5.223272
12
1.231791
22
0.167165
32
5.580145
13
1.165608
23
-0.086585
33
5.670879
0
3DFACE
8
coconut_palm9_leaves
10
0.676842
20
-0.356841
30
5.408677
11
0.744633
21
-0.102957
31
5.315401
12
1.165608
22
-0.086585
32
5.670879
13
1.096560
23
-0.340553
33
5.765047
0
3DFACE
8
coconut_palm9_leaves
10
0.321666
20
-0.119481
30
4.962315
11
0.388701
21
0.134353
31
4.869541
12
0.811472
22
0.150854
32
5.223272
13
0.744633
23
-0.102957
33
5.315401
0
3DFACE
8
coconut_palm9_leaves
10
0.254473
20
-0.373326
30
5.055280
11
0.321666
21
-0.119481
31
4.962315
12
0.744633
22
-0.102957
32
5.315401
13
0.676842
23
-0.356841
33
5.408677
0
3DFACE
8
coconut_palm9_leaves
10
-0.102435
20
-0.136091
30
4.610600
11
-0.035422
21
0.117745
31
4.517646
12
0.388701
22
0.134353
32
4.869541
13
0.321666
23
-0.119481
33
4.962315
0
3DFACE
8
coconut_palm9_leaves
10
-0.169449
20
-0.389927
30
4.703552
11
-0.102435
21
-0.136091
31
4.610600
12
0.321666
22
-0.119481
32
4.962315
13
0.254473
23
-0.373326
33
5.055280
0
3DFACE
8
coconut_palm9_leaves
10
0.615360
20
-0.280759
30
4.455044
11
0.385142
21
-0.295449
31
4.331271
12
0.304213
22
-0.202650
32
3.724296
13
0.535527
23
-0.187825
33
3.847245
0
3DFACE
8
coconut_palm9_leaves
10
0.331745
20
-0.227796
30
4.746380
11
0.101527
21
-0.242486
31
4.622606
12
0.385142
22
-0.295449
32
4.331271
13
0.615360
23
-0.280759
33
4.455044
0
3DFACE
8
coconut_palm9_leaves
10
-0.012114
20
-0.126037
30
4.768096
11
-0.242332
21
-0.140726
31
4.644323
12
0.101527
22
-0.242486
32
4.622606
13
0.331745
23
-0.227796
33
4.746380
0
3DFACE
8
coconut_palm9_leaves
10
0.500251
20
-0.288104
30
4.393158
11
0.473844
21
-0.096243
31
4.275623
12
0.195165
22
0.053626
32
3.693087
13
0.420098
23
-0.195210
33
3.785190
0
3DFACE
8
coconut_palm9_leaves
10
0.458795
20
-0.444327
30
4.377637
11
0.500251
21
-0.288104
31
4.393158
12
0.420098
22
-0.195210
32
3.785190
13
0.246344
23
-0.304546
33
3.707927
0
3DFACE
8
coconut_palm9_leaves
10
0.216636
20
-0.235141
30
4.684493
11
0.257863
21
-0.068497
31
4.608611
12
0.473844
22
-0.096243
32
4.275623
13
0.500251
23
-0.288104
33
4.393158
0
3DFACE
8
coconut_palm9_leaves
10
0.174266
20
-0.398547
30
4.734836
11
0.216636
21
-0.235141
31
4.684493
12
0.500251
22
-0.288104
32
4.393158
13
0.458795
23
-0.444327
33
4.377637
0
3DFACE
8
coconut_palm9_leaves
10
-0.127223
20
-0.133381
30
4.706209
11
-0.067321
21
0.026115
31
4.643469
12
0.257863
22
-0.068497
32
4.608611
13
0.216636
23
-0.235141
33
4.684493
0
3DFACE
8
coconut_palm9_leaves
10
-0.187125
20
-0.292878
30
4.768951
11
-0.127223
21
-0.133381
31
4.706209
12
0.216636
22
-0.235141
32
4.684493
13
0.174266
23
-0.398547
33
4.734836
0
3DFACE
8
coconut_palm9_leaves
10
-0.743970
20
-0.741351
30
4.552676
11
-0.605204
21
-0.542853
31
4.387086
12
-0.518782
22
-0.588669
32
3.771021
13
-0.657547
23
-0.787167
33
3.936610
0
3DFACE
8
coconut_palm9_leaves
10
-0.514123
20
-0.489691
30
4.841156
11
-0.375357
21
-0.291193
31
4.675567
12
-0.605204
22
-0.542853
32
4.387086
13
-0.743970
23
-0.741351
33
4.552676
0
3DFACE
8
coconut_palm9_leaves
10
-0.141312
20
0.116589
30
4.764099
11
-0.119633
21
-0.134211
31
4.676932
12
-0.640231
22
-0.209820
32
4.712552
13
-0.673456
23
0.039222
33
4.787275
0
3DFACE
8
coconut_palm9_leaves
10
-0.119633
20
-0.134211
30
4.676932
11
-0.097953
21
-0.385011
31
4.589764
12
-0.608451
22
-0.459238
32
4.610680
13
-0.640231
23
-0.209820
33
4.712552
0
3DFACE
8
coconut_palm9_leaves
10
-0.673456
20
0.039222
30
4.787275
11
-0.640231
21
-0.209820
31
4.712552
12
-1.154713
22
-0.285769
32
4.545732
13
-1.195352
23
-0.038219
33
4.552730
0
3DFACE
8
coconut_palm9_leaves
10
-0.640231
20
-0.209820
30
4.712552
11
-0.608451
21
-0.459238
31
4.610680
12
-1.087364
22
-0.530397
32
4.379701
13
-1.154713
23
-0.285769
33
4.545732
0
3DFACE
8
coconut_palm9_leaves
10
-1.195352
20
-0.038219
30
4.552730
11
-1.154713
21
-0.285769
31
4.545732
12
-1.550876
22
-0.346484
32
4.050295
13
-1.519632
23
-0.089293
33
3.920877
0
3DFACE
8
coconut_palm9_leaves
10
-1.154713
20
-0.285769
30
4.545732
11
-1.087364
21
-0.530397
31
4.379701
12
-1.353840
22
-0.572902
32
3.772544
13
-1.550876
23
-0.346484
33
4.050295
0
3DFACE
8
coconut_palm9_leaves
10
-0.220675
20
-0.223406
30
4.873265
11
-0.018590
21
-0.045016
31
4.480597
12
-0.539189
22
-0.120625
32
4.516218
13
-0.741274
23
-0.299015
33
4.908886
0
3DFACE
8
coconut_palm9_leaves
10
-0.741274
20
-0.299015
30
4.908886
11
-0.539189
21
-0.120625
31
4.516218
12
-1.053670
22
-0.196575
32
4.349398
13
-1.255756
23
-0.374964
33
4.742067
0
3DFACE
8
coconut_palm9_leaves
10
-1.255756
20
-0.374964
30
4.742067
11
-1.053670
21
-0.196575
31
4.349398
12
-1.449833
22
-0.257289
32
3.853960
13
-1.651918
23
-0.435678
33
4.246630
0
3DFACE
8
coconut_palm9_leaves
10
0.027332
20
-0.264282
30
4.899970
11
-0.141782
21
-0.131790
31
4.762367
12
-0.035898
22
0.289952
32
5.019022
13
0.136976
23
0.165544
33
5.154698
0
3DFACE
8
coconut_palm9_leaves
10
-0.141782
20
-0.131790
30
4.762367
11
-0.310897
21
0.000702
31
4.624766
12
-0.203930
22
0.419598
32
4.872579
13
-0.035898
23
0.289952
33
5.019022
0
3DFACE
8
coconut_palm9_leaves
10
0.136976
20
0.165544
30
5.154698
11
-0.035898
21
0.289952
31
5.019022
12
0.106796
22
0.748836
32
5.189528
13
0.293827
23
0.645084
33
5.302275
0
3DFACE
8
coconut_palm9_leaves
10
-0.035898
20
0.289952
30
5.019022
11
-0.203930
21
0.419598
31
4.872579
12
-0.053337
22
0.876379
32
5.008460
13
0.106796
23
0.748836
33
5.189528
0
3DFACE
8
coconut_palm9_leaves
10
0.293827
20
0.645084
30
5.302275
11
0.106796
21
0.748836
31
5.189528
12
0.306241
22
1.247304
32
5.198893
13
0.519807
23
1.166887
33
5.244030
0
3DFACE
8
coconut_palm9_leaves
10
0.106796
20
0.748836
30
5.189528
11
-0.053337
21
0.876379
31
5.008460
12
0.161245
22
1.362678
32
4.938438
13
0.306241
23
1.247304
33
5.198893
0
3DFACE
8
coconut_palm9_leaves
10
-0.297883
20
-0.123444
30
4.954384
11
0.014319
21
-0.140136
31
4.570352
12
0.120203
22
0.281607
32
4.827006
13
-0.191999
23
0.298298
33
5.211037
0
3DFACE
8
coconut_palm9_leaves
10
-0.191999
20
0.298298
30
5.211037
11
0.120203
21
0.281607
31
4.827006
12
0.262897
22
0.740490
32
4.997512
13
-0.049305
23
0.757182
33
5.381543
0
3DFACE
8
coconut_palm9_leaves
10
-0.049305
20
0.757182
30
5.381543
11
0.262897
21
0.740490
31
4.997512
12
0.462342
22
1.238958
32
5.006877
13
0.150141
23
1.255650
33
5.390909
0
3DFACE
8
coconut_palm9_leaves
10
-0.048473
20
0.124544
30
4.806373
11
-0.118662
21
-0.134317
31
4.673188
12
-0.639115
22
0.094184
32
4.505496
13
-0.568633
23
0.352796
33
4.639653
0
3DFACE
8
coconut_palm9_leaves
10
-0.118662
20
-0.134317
30
4.673188
11
-0.188851
21
-0.393178
31
4.540004
12
-0.710113
22
-0.164442
32
4.372929
13
-0.639115
23
0.094184
33
4.505496
0
3DFACE
8
coconut_palm9_leaves
10
-0.568633
20
0.352796
30
4.639653
11
-0.639115
21
0.094184
31
4.505496
12
-1.162973
22
0.322572
32
4.348405
13
-1.092633
23
0.580643
33
4.486899
0
3DFACE
8
coconut_palm9_leaves
10
-0.639115
20
0.094184
30
4.505496
11
-0.710113
21
-0.164442
31
4.372929
12
-1.236323
22
0.064371
32
4.219482
13
-1.162973
23
0.322572
33
4.348405
0
3DFACE
8
coconut_palm9_leaves
10
-1.092633
20
0.580643
30
4.486899
11
-1.162973
21
0.322572
31
4.348405
12
-1.692535
22
0.550645
32
4.209949
13
-1.623324
23
0.807767
33
4.358572
0
3DFACE
8
coconut_palm9_leaves
10
-1.162973
20
0.322572
30
4.348405
11
-1.236323
21
0.064371
31
4.219482
12
-1.770344
22
0.292946
32
4.090173
13
-1.692535
23
0.550645
33
4.209949
0
3DFACE
8
coconut_palm9_leaves
10
-0.235648
20
-0.235126
30
4.930680
11
-0.001676
21
-0.033508
31
4.415697
12
-0.522128
22
0.194994
32
4.248003
13
-0.756100
23
-0.006625
33
4.762988
0
3DFACE
8
coconut_palm9_leaves
10
-0.756100
20
-0.006625
30
4.762988
11
-0.522128
21
0.194994
31
4.248003
12
-1.045987
22
0.423381
32
4.090913
13
-1.279960
23
0.221763
33
4.605897
0
3DFACE
8
coconut_palm9_leaves
10
-1.279960
20
0.221763
30
4.605897
11
-1.045987
21
0.423381
31
4.090913
12
-1.575549
22
0.651454
32
3.952457
13
-1.809521
23
0.449836
33
4.467442
0
3DFACE
8
coconut_palm9_leaves
10
-0.113871
20
-0.300350
30
4.726549
11
-0.116361
21
-0.134569
31
4.664314
12
0.114451
22
-0.017277
32
4.900433
13
0.131451
23
-0.176621
33
4.965906
0
3DFACE
8
coconut_palm9_leaves
10
-0.116361
20
-0.134569
30
4.664314
11
-0.118852
21
0.031212
31
4.602078
12
0.109087
22
0.145917
32
4.821280
13
0.114451
23
-0.017277
33
4.900433
0
3DFACE
8
coconut_palm9_leaves
10
0.131451
20
-0.176621
30
4.965906
11
0.114451
21
-0.017277
31
4.900433
12
0.453112
22
0.132428
32
4.968987
13
0.504523
23
-0.014487
33
5.006880
0
3DFACE
8
coconut_palm9_leaves
10
0.114451
20
-0.017277
30
4.900433
11
0.109087
21
0.145917
31
4.821280
12
0.440092
22
0.287941
32
4.834943
13
0.453112
23
0.132428
33
4.968987
0
3DFACE
8
coconut_palm9_leaves
10
0.504523
20
-0.014487
30
5.006880
11
0.453112
21
0.132428
31
4.968987
12
0.810411
22
0.264196
32
4.716422
13
0.847493
23
0.104506
33
4.671474
0
3DFACE
8
coconut_palm9_leaves
10
0.453112
20
0.132428
30
4.968987
11
0.440092
21
0.287941
31
4.834943
12
0.717441
22
0.378964
32
4.499144
13
0.810411
23
0.264196
33
4.716422
0
3DFACE
8
coconut_palm9_leaves
10
-0.136034
20
-0.069098
30
4.792830
11
-0.096689
21
-0.200040
31
4.535798
12
0.134124
22
-0.082749
32
4.771916
13
0.094779
23
0.048194
33
5.028949
0
3DFACE
8
coconut_palm9_leaves
10
0.094779
20
0.048194
30
5.028949
11
0.134124
21
-0.082749
31
4.771916
12
0.472784
22
0.066957
32
4.840470
13
0.433439
23
0.197899
33
5.097503
0
3DFACE
8
coconut_palm9_leaves
10
0.433439
20
0.197899
30
5.097503
11
0.472784
21
0.066957
31
4.840470
12
0.830083
22
0.198724
32
4.587906
13
0.790738
23
0.329667
33
4.844938
0
3DFACE
8
coconut_palm9_leaves
10
0.014221
20
-0.277263
30
5.017376
11
-0.168062
21
-0.128917
31
4.863735
12
-0.018546
22
0.344861
32
5.112752
13
0.170823
23
0.209605
33
5.261515
0
3DFACE
8
coconut_palm9_leaves
10
-0.168062
20
-0.128917
30
4.863735
11
-0.350345
21
0.019429
31
4.710095
12
-0.199447
22
0.487736
32
4.943870
13
-0.018546
23
0.344861
33
5.112752
0
3DFACE
8
coconut_palm9_leaves
10
0.170823
20
0.209605
30
5.261515
11
-0.018546
21
0.344861
31
5.112752
12
0.187971
22
0.863561
32
5.214990
13
0.401586
23
0.756302
33
5.317150
0
3DFACE
8
coconut_palm9_leaves
10
-0.018546
20
0.344861
30
5.112752
11
-0.199447
21
0.487736
31
4.943870
12
0.017741
22
0.995633
32
4.984406
13
0.187971
23
0.863561
33
5.214990
0
3DFACE
8
coconut_palm9_leaves
10
0.401586
20
0.756302
30
5.317150
11
0.187971
21
0.863561
31
5.214990
12
0.470514
22
1.398591
32
5.043821
13
0.718995
23
1.296645
33
5.016723
0
3DFACE
8
coconut_palm9_leaves
10
0.187971
20
0.863561
30
5.214990
11
0.017741
21
0.995633
31
4.984406
12
0.310547
22
1.476816
32
4.676492
13
0.470514
23
1.398591
33
5.043821
0
3DFACE
8
coconut_palm9_leaves
10
-0.309810
20
-0.065655
30
5.075183
11
-0.026314
21
-0.192179
31
4.652288
12
0.123202
22
0.281599
32
4.901304
13
-0.160294
23
0.408123
33
5.324199
0
3DFACE
8
coconut_palm9_leaves
10
-0.160294
20
0.408123
30
5.324199
11
0.123202
21
0.281599
31
4.901304
12
0.329719
22
0.800299
32
5.003542
13
0.046223
23
0.926823
33
5.426437
0
3DFACE
8
coconut_palm9_leaves
10
0.046223
20
0.926823
30
5.426437
11
0.329719
21
0.800299
31
5.003542
12
0.612263
22
1.335329
32
4.832374
13
0.328767
23
1.461853
33
5.255268
0
3DFACE
8
coconut_palm9_leaves
10
-0.237390
20
0.129940
30
4.772228
11
-0.133299
21
-0.132717
31
4.729648
12
-0.545454
22
-0.359909
32
5.041932
13
-0.659482
23
-0.104402
33
5.080321
0
3DFACE
8
coconut_palm9_leaves
10
-0.133299
20
-0.132717
30
4.729648
11
-0.029208
21
-0.395374
31
4.687067
12
-0.439904
22
-0.623494
32
4.986111
13
-0.545454
23
-0.359909
33
5.041932
0
3DFACE
8
coconut_palm9_leaves
10
-0.659482
20
-0.104402
30
5.080321
11
-0.545454
21
-0.359909
31
5.041932
12
-1.009989
22
-0.639416
32
5.229632
13
-1.149034
23
-0.405981
33
5.228939
0
3DFACE
8
coconut_palm9_leaves
10
-0.545454
20
-0.359909
30
5.041932
11
-0.439904
21
-0.623494
31
4.986111
12
-0.905684
22
-0.911443
32
5.120402
13
-1.009989
23
-0.639416
33
5.229632
0
3DFACE
8
coconut_palm9_leaves
10
-1.149034
20
-0.405981
30
5.228939
11
-1.009989
21
-0.639416
31
5.229632
12
-1.517288
22
-0.979248
32
5.192188
13
-1.667109
23
-0.767036
33
5.092561
0
3DFACE
8
coconut_palm9_leaves
10
-1.009989
20
-0.639416
30
5.229632
11
-0.905684
21
-0.911443
31
5.120402
12
-1.388903
22
-1.250985
32
4.973731
13
-1.517288
23
-0.979248
33
5.192188
0
3DFACE
8
coconut_palm9_leaves
10
-0.061858
20
-0.153542
30
4.991381
11
-0.204741
21
-0.111893
31
4.467914
12
-0.616896
22
-0.339084
32
4.780198
13
-0.474012
23
-0.380734
33
5.303666
0
3DFACE
8
coconut_palm9_leaves
10
-0.474012
20
-0.380734
30
5.303666
11
-0.616896
21
-0.339084
31
4.780198
12
-1.081431
22
-0.618592
32
4.967898
13
-0.938547
23
-0.660241
33
5.491365
0
3DFACE
8
coconut_palm9_leaves
10
-0.938547
20
-0.660241
30
5.491365
11
-1.081431
21
-0.618592
31
4.967898
12
-1.588730
22
-0.958423
32
4.930455
13
-1.445846
23
-1.000072
33
5.453922
0
3DFACE
8
coconut_palm9_leaves
10
-0.280730
20
-0.347842
30
4.781116
11
-0.131163
21
-0.132951
31
4.721406
12
0.240015
22
-0.266186
32
5.077665
13
0.107650
23
-0.485584
33
5.137549
0
3DFACE
8
coconut_palm9_leaves
10
-0.131163
20
-0.132951
30
4.721406
11
0.018404
21
0.081941
31
4.661697
12
0.388623
22
-0.049164
32
4.999541
13
0.240015
23
-0.266186
33
5.077665
0
3DFACE
8
coconut_palm9_leaves
10
0.107650
20
-0.485584
30
5.137549
11
0.240015
21
-0.266186
31
5.077665
12
0.721101
22
-0.413492
32
5.290746
13
0.638150
23
-0.641906
33
5.312598
0
3DFACE
8
coconut_palm9_leaves
10
0.240015
20
-0.266186
30
5.077665
11
0.388623
21
-0.049164
31
4.999541
12
0.877722
22
-0.191619
32
5.144602
13
0.721101
23
-0.413492
33
5.290746
0
3DFACE
8
coconut_palm9_leaves
10
0.638150
20
-0.641906
30
5.312598
11
0.721101
21
-0.413492
31
5.290746
12
1.315427
22
-0.561127
32
5.217490
13
1.276408
23
-0.788135
33
5.113228
0
3DFACE
8
coconut_palm9_leaves
10
0.721101
20
-0.413492
30
5.290746
11
0.877722
21
-0.191619
31
5.144602
12
1.446770
22
-0.317394
32
4.921796
13
1.315427
23
-0.561127
33
5.217490
0
3DFACE
8
coconut_palm9_leaves
10
-0.152321
20
-0.039111
30
4.948938
11
-0.110004
21
-0.226790
31
4.493876
12
0.261173
22
-0.360025
32
4.850135
13
0.218857
23
-0.172346
33
5.305197
0
3DFACE
8
coconut_palm9_leaves
10
0.218857
20
-0.172346
30
5.305197
11
0.261173
21
-0.360025
31
4.850135
12
0.742260
22
-0.507331
32
5.063215
13
0.699943
23
-0.319653
33
5.518277
0
3DFACE
8
coconut_palm9_leaves
10
0.699943
20
-0.319653
30
5.518277
11
0.742260
21
-0.507331
31
5.063215
12
1.336584
22
-0.654967
32
4.989959
13
1.294268
23
-0.467288
33
5.445022
0
3DFACE
8
coconut_palm9_leaves
10
-0.410775
20
-0.198005
30
4.932225
11
-0.176335
21
-0.128013
31
4.895647
12
-0.004445
22
-0.546844
32
5.082124
13
-0.231584
23
-0.628100
33
5.114272
0
3DFACE
8
coconut_palm9_leaves
10
-0.176335
20
-0.128013
30
4.895647
11
0.058104
21
-0.058021
31
4.859069
12
0.230091
22
-0.470120
32
5.032461
13
-0.004445
23
-0.546844
33
5.082124
0
3DFACE
8
coconut_palm9_leaves
10
-0.231584
20
-0.628100
30
5.114272
11
-0.004445
21
-0.546844
31
5.082124
12
0.222801
22
-0.992482
32
5.124069
13
0.018229
23
-1.094243
33
5.115423
0
3DFACE
8
coconut_palm9_leaves
10
-0.004445
20
-0.546844
30
5.082124
11
0.230091
21
-0.470120
31
5.032461
12
0.463238
22
-0.899173
32
5.022195
13
0.222801
23
-0.992482
33
5.124069
0
3DFACE
8
coconut_palm9_leaves
10
0.018229
20
-1.094243
30
5.115423
11
0.222801
21
-0.992482
31
5.124069
12
0.515938
22
-1.421334
32
4.901801
13
0.338811
23
-1.516308
33
4.783492
0
3DFACE
8
coconut_palm9_leaves
10
0.222801
20
-0.992482
30
5.124069
11
0.463238
21
-0.899173
31
5.022195
12
0.754749
22
-1.266249
32
4.688719
13
0.515938
23
-1.421334
33
4.901801
0
3DFACE
8
coconut_palm9_leaves
10
-0.131153
20
-0.127340
30
5.120502
11
-0.221517
21
-0.128686
31
4.670792
12
-0.049627
22
-0.547517
32
4.857268
13
0.040737
23
-0.546170
33
5.306980
0
3DFACE
8
coconut_palm9_leaves
10
0.040737
20
-0.546170
30
5.306980
11
-0.049627
21
-0.547517
31
4.857268
12
0.177619
22
-0.993155
32
4.899213
13
0.267984
23
-0.991809
33
5.348925
0
3DFACE
8
coconut_palm9_leaves
10
0.267984
20
-0.991809
30
5.348925
11
0.177619
21
-0.993155
31
4.899213
12
0.470755
22
-1.422007
32
4.676946
13
0.561120
23
-1.420660
33
5.126657
0
3DFACE
8
coconut_palm9_leaves
10
0.004211
20
-0.067072
30
4.754132
11
-0.115985
21
-0.134610
31
4.662864
12
-0.313827
22
0.115540
32
4.736204
13
-0.194016
23
0.183769
33
4.827119
0
3DFACE
8
coconut_palm9_leaves
10
-0.115985
20
-0.134610
30
4.662864
11
-0.236182
21
-0.202148
31
4.571596
12
-0.433584
22
0.047651
32
4.644271
13
-0.313827
23
0.115540
33
4.736204
0
3DFACE
8
coconut_palm9_leaves
10
-0.194016
20
0.183769
30
4.827119
11
-0.313827
21
0.115540
31
4.736204
12
-0.510944
22
0.369704
32
4.797231
13
-0.391780
23
0.439779
33
4.885873
0
3DFACE
8
coconut_palm9_leaves
10
-0.313827
20
0.115540
30
4.736204
11
-0.433584
21
0.047651
31
4.644271
12
-0.629700
22
0.301565
32
4.702448
13
-0.510944
23
0.369704
33
4.797231
0
3DFACE
8
coconut_palm9_leaves
10
-0.391780
20
0.439779
30
4.885873
11
-0.510944
21
0.369704
31
4.797231
12
-0.706359
22
0.630334
32
4.836569
13
-0.587830
23
0.703692
33
4.919388
0
3DFACE
8
coconut_palm9_leaves
10
-0.510944
20
0.369704
30
4.797231
11
-0.629700
21
0.301565
31
4.702448
12
-0.823288
22
0.562298
32
4.735209
13
-0.706359
23
0.630334
33
4.836569
0
3DFACE
8
coconut_palm9_leaves
10
-0.176235
20
-0.209723
30
4.797633
11
-0.055735
21
-0.059497
31
4.528095
12
-0.253577
22
0.190653
32
4.601435
13
-0.374077
23
0.040427
33
4.870974
0
3DFACE
8
coconut_palm9_leaves
10
-0.374077
20
0.040427
30
4.870974
11
-0.253577
21
0.190653
31
4.601435
12
-0.450694
22
0.444817
32
4.662462
13
-0.571194
23
0.294591
33
4.932001
0
3DFACE
8
coconut_palm9_leaves
10
-0.571194
20
0.294591
30
4.932001
11
-0.450694
21
0.444817
31
4.662462
12
-0.646109
22
0.705447
32
4.701799
13
-0.766609
23
0.555221
33
4.971337
0
3DFACE
8
coconut_palm9_leaves
10
-0.011006
20
-0.212645
30
5.029437
11
-0.177036
21
-0.127936
31
4.898349
12
0.088802
22
0.186677
32
4.717080
13
0.263527
23
0.107662
33
4.828897
0
3DFACE
8
coconut_palm9_leaves
10
-0.177036
20
-0.127936
30
4.898349
11
-0.343066
21
-0.043228
31
4.767261
12
-0.088953
22
0.252280
32
4.578813
13
0.088802
23
0.186677
33
4.717080
0
3DFACE
8
coconut_palm9_leaves
10
0.263527
20
0.107662
30
4.828897
11
0.088802
21
0.186677
31
4.717080
12
0.308919
22
0.363196
32
4.323256
13
0.478732
23
0.253972
33
4.367629
0
3DFACE
8
coconut_palm9_leaves
10
0.088802
20
0.186677
30
4.717080
11
-0.088953
21
0.252280
31
4.578813
12
0.088790
22
0.359010
32
4.156885
13
0.308919
23
0.363196
33
4.323256
0
3DFACE
8
coconut_palm9_leaves
10
0.478732
20
0.253972
30
4.367629
11
0.308919
21
0.363196
31
4.323256
12
0.341832
22
0.203319
32
3.717228
13
0.428382
23
-0.037742
33
3.720738
0
3DFACE
8
coconut_palm9_leaves
10
0.308919
20
0.363196
30
4.323256
11
0.088790
21
0.359010
31
4.156885
12
-0.001789
22
0.043284
32
3.604890
13
0.341832
23
0.203319
33
3.717228
0
3DFACE
8
coconut_palm9_leaves
10
-0.146619
20
0.049690
30
4.938993
11
-0.207453
21
-0.305562
31
4.857704
12
0.058385
22
0.009051
32
4.676436
13
0.119219
23
0.364303
33
4.757724
0
3DFACE
8
coconut_palm9_leaves
10
0.119219
20
0.364303
30
4.757724
11
0.058385
21
0.009051
31
4.676436
12
0.278503
22
0.185570
32
4.282612
13
0.339336
23
0.540822
33
4.363900
0
3DFACE
8
coconut_palm9_leaves
10
0.339336
20
0.540822
30
4.363900
11
0.278503
21
0.185570
31
4.282612
12
0.310571
22
0.025589
32
3.677136
13
0.372853
23
0.381019
33
3.757804
0
3DFACE
8
coconut_palm9_leaves
10
0.073980
20
-0.092132
30
4.954607
11
-0.149544
21
-0.130941
31
4.792309
12
-0.074546
22
0.356299
32
4.546258
13
0.152647
23
0.398766
33
4.695003
0
3DFACE
8
coconut_palm9_leaves
10
-0.149544
20
-0.130941
30
4.792309
11
-0.373069
21
-0.169751
31
4.630012
12
-0.296985
22
0.303408
32
4.378812
13
-0.074546
23
0.356299
33
4.546258
0
3DFACE
8
coconut_palm9_leaves
10
0.152647
20
0.398766
30
4.695003
11
-0.074546
21
0.356299
31
4.546258
12
0.032931
22
0.760968
32
4.171576
13
0.273387
23
0.784941
33
4.268934
0
3DFACE
8
coconut_palm9_leaves
10
-0.074546
20
0.356299
30
4.546258
11
-0.296985
21
0.303408
31
4.378812
12
-0.182528
22
0.657019
32
3.973979
13
0.032931
23
0.760968
33
4.171576
0
3DFACE
8
coconut_palm9_leaves
10
0.273387
20
0.784941
30
4.268934
11
0.032931
21
0.760968
31
4.171576
12
0.182748
22
0.973024
32
3.604695
13
0.444761
23
0.905253
33
3.603375
0
3DFACE
8
coconut_palm9_leaves
10
0.032931
20
0.760968
30
4.171576
11
-0.182528
21
0.657019
31
3.973979
12
-0.036585
22
0.736563
32
3.376853
13
0.182748
23
0.973024
33
3.604695
0
3DFACE
8
coconut_palm9_leaves
10
-0.277172
20
0.067396
30
4.905934
11
-0.021917
21
-0.329279
31
4.678684
12
0.053081
22
0.157961
32
4.432633
13
-0.202173
23
0.554636
33
4.659883
0
3DFACE
8
coconut_palm9_leaves
10
-0.202173
20
0.554636
30
4.659883
11
0.053081
21
0.157961
31
4.432633
12
0.160558
22
0.562631
32
4.057951
13
-0.094696
23
0.959305
33
4.285200
0
3DFACE
8
coconut_palm9_leaves
10
-0.094696
20
0.959305
30
4.285200
11
0.160558
21
0.562631
31
4.057951
12
0.305263
22
0.774059
32
3.481703
13
0.057721
23
1.171680
33
3.723743
0
3DFACE
8
coconut_palm9_leaves
10
-0.351000
20
0.015309
30
4.925941
11
-0.176665
21
-0.127977
31
4.896921
12
-0.412093
22
-0.451932
32
5.102772
13
-0.585457
23
-0.306657
33
5.132454
0
3DFACE
8
coconut_palm9_leaves
10
-0.176665
20
-0.127977
30
4.896921
11
-0.002332
21
-0.271262
31
4.867901
12
-0.238499
22
-0.595588
32
5.075890
13
-0.412093
23
-0.451932
33
5.102772
0
3DFACE
8
coconut_palm9_leaves
10
-0.585457
20
-0.306657
30
5.132454
11
-0.412093
21
-0.451932
31
5.102772
12
-0.645297
22
-0.761411
32
5.332967
13
-0.816207
23
-0.609536
33
5.367923
0
3DFACE
8
coconut_palm9_leaves
10
-0.412093
20
-0.451932
30
5.102772
11
-0.238499
21
-0.595588
31
5.075890
12
-0.472651
22
-0.903089
32
5.314472
13
-0.645297
23
-0.761411
33
5.332967
0
3DFACE
8
coconut_palm9_leaves
10
-0.816207
20
-0.609536
30
5.367923
11
-0.645297
21
-0.761411
31
5.332967
12
-0.873304
22
-1.043828
32
5.604466
13
-1.039163
23
-0.877402
33
5.652506
0
3DFACE
8
coconut_palm9_leaves
10
-0.645297
20
-0.761411
30
5.332967
11
-0.472651
21
-0.903089
31
5.314472
12
-0.700656
22
-1.177622
32
5.604117
13
-0.873304
23
-1.043828
33
5.604466
0
3DFACE
8
coconut_palm9_leaves
10
-0.079536
20
-0.048797
30
5.086743
11
-0.273796
21
-0.207157
31
4.707099
12
-0.509223
22
-0.531112
32
4.912950
13
-0.314963
23
-0.372752
33
5.292595
0
3DFACE
8
coconut_palm9_leaves
10
-0.314963
20
-0.372752
30
5.292595
11
-0.509223
21
-0.531112
31
4.912950
12
-0.742427
22
-0.840591
32
5.143145
13
-0.548167
23
-0.682231
33
5.522789
0
3DFACE
8
coconut_palm9_leaves
10
-0.548167
20
-0.682231
30
5.522789
11
-0.742427
21
-0.840591
31
5.143145
12
-0.970435
22
-1.123008
32
5.414645
13
-0.776174
23
-0.964648
33
5.794289
0
3DFACE
8
coconut_palm9_leaves
10
-0.260348
20
0.025519
30
4.807092
11
-0.142391
21
-0.131723
31
4.764716
12
-0.444740
22
-0.390442
32
4.758361
13
-0.573137
23
-0.244773
33
4.786896
0
3DFACE
8
coconut_palm9_leaves
10
-0.142391
20
-0.131723
30
4.764716
11
-0.024433
21
-0.288966
31
4.722339
12
-0.312704
22
-0.538736
32
4.700303
13
-0.444740
23
-0.390442
33
4.758361
0
3DFACE
8
coconut_palm9_leaves
10
-0.573137
20
-0.244773
30
4.786896
11
-0.444740
21
-0.390442
31
4.758361
12
-0.674587
22
-0.642102
32
4.469880
13
-0.789960
23
-0.499083
33
4.427522
0
3DFACE
8
coconut_palm9_leaves
10
-0.444740
20
-0.390442
30
4.758361
11
-0.312704
21
-0.538736
31
4.700303
12
-0.485553
22
-0.752236
32
4.358265
13
-0.674587
23
-0.642102
33
4.469880
0
3DFACE
8
coconut_palm9_leaves
10
-0.789960
20
-0.499083
30
4.427522
11
-0.674587
21
-0.642102
31
4.469880
12
-0.588164
22
-0.687918
32
3.853816
13
-0.576221
23
-0.446956
33
3.757379
0
3DFACE
8
coconut_palm9_leaves
10
-0.674587
20
-0.642102
30
4.469880
11
-0.485553
21
-0.752236
31
4.358265
12
-0.236753
22
-0.657083
32
3.756053
13
-0.588164
23
-0.687918
33
3.853816
0
3DFACE
8
coconut_palm9_leaves
10
-0.211774
20
-0.230972
30
4.847511
11
-0.073008
21
-0.032474
31
4.681921
12
-0.375357
22
-0.291193
32
4.675567
13
-0.514123
23
-0.489691
33
4.841156
0
3DFACE
8
coconut_palm9_coconuts
10
-0.182439
20
-0.170983
30
4.733676
11
-0.208028
21
-0.175744
31
4.739021
12
-0.206200
22
-0.163526
32
4.724410
13
-0.206200
23
-0.163526
33
4.724410
0
3DFACE
8
coconut_palm9_coconuts
10
-0.208028
20
-0.175744
30
4.739021
11
-0.233119
21
-0.191752
31
4.731666
12
-0.229952
22
-0.170589
32
4.706359
13
-0.206200
23
-0.163526
33
4.724410
0
3DFACE
8
coconut_palm9_coconuts
10
-0.233119
20
-0.191752
30
4.731666
11
-0.250989
21
-0.214718
31
4.713583
12
-0.247332
22
-0.190281
32
4.684360
13
-0.229952
23
-0.170589
33
4.706359
0
3DFACE
8
coconut_palm9_coconuts
10
-0.250989
20
-0.214718
30
4.713583
11
-0.256849
21
-0.238487
31
4.689615
12
-0.253682
22
-0.217324
32
4.664308
13
-0.247332
23
-0.190281
33
4.684360
0
3DFACE
8
coconut_palm9_coconuts
10
-0.256849
20
-0.238487
30
4.689615
11
-0.249129
21
-0.256692
31
4.666185
12
-0.247301
22
-0.244473
32
4.651574
13
-0.253682
23
-0.217324
33
4.664308
0
3DFACE
8
coconut_palm9_coconuts
10
-0.249129
20
-0.256692
30
4.666185
11
-0.229898
21
-0.264453
31
4.649573
12
-0.247301
22
-0.244473
32
4.651574
13
-0.247301
23
-0.244473
33
4.651574
0
3DFACE
8
coconut_palm9_coconuts
10
-0.182439
20
-0.170983
30
4.733676
11
-0.196729
21
-0.188841
31
4.747200
12
-0.208028
22
-0.175744
32
4.739021
13
-0.208028
23
-0.175744
33
4.739021
0
3DFACE
8
coconut_palm9_coconuts
10
-0.196729
20
-0.188841
30
4.747200
11
-0.213548
21
-0.214437
31
4.745834
12
-0.233119
22
-0.191752
32
4.731666
13
-0.208028
23
-0.175744
33
4.739021
0
3DFACE
8
coconut_palm9_coconuts
10
-0.213548
20
-0.214437
30
4.745834
11
-0.228390
21
-0.240912
31
4.729941
12
-0.250989
22
-0.214718
32
4.713583
13
-0.233119
23
-0.191752
33
4.731666
0
3DFACE
8
coconut_palm9_coconuts
10
-0.228390
20
-0.240912
30
4.729941
11
-0.237278
21
-0.261172
31
4.703783
12
-0.256849
22
-0.238487
32
4.689615
13
-0.250989
23
-0.214718
33
4.713583
0
3DFACE
8
coconut_palm9_coconuts
10
-0.237278
20
-0.261172
30
4.703783
11
-0.237830
21
-0.269789
31
4.674365
12
-0.249129
22
-0.256692
32
4.666185
13
-0.256849
23
-0.238487
33
4.689615
0
3DFACE
8
coconut_palm9_coconuts
10
-0.237830
20
-0.269789
30
4.674365
11
-0.229898
21
-0.264453
31
4.649573
12
-0.249129
22
-0.256692
32
4.666185
13
-0.249129
23
-0.256692
33
4.666185
0
3DFACE
8
coconut_palm9_coconuts
10
-0.182439
20
-0.170983
30
4.733676
11
-0.178921
21
-0.195145
31
4.744158
12
-0.196729
22
-0.188841
32
4.747200
13
-0.196729
23
-0.188841
33
4.747200
0
3DFACE
8
coconut_palm9_coconuts
10
-0.178921
20
-0.195145
30
4.744158
11
-0.182704
21
-0.225356
31
4.740562
12
-0.213548
22
-0.214437
32
4.745834
13
-0.196729
23
-0.188841
33
4.747200
0
3DFACE
8
coconut_palm9_coconuts
10
-0.182704
20
-0.225356
30
4.740562
11
-0.192774
21
-0.253520
31
4.723855
12
-0.228390
22
-0.240912
32
4.729941
13
-0.213548
23
-0.214437
33
4.745834
0
3DFACE
8
coconut_palm9_coconuts
10
-0.192774
20
-0.253520
30
4.723855
11
-0.206434
21
-0.272091
31
4.698512
12
-0.237278
22
-0.261172
32
4.703783
13
-0.228390
23
-0.240912
33
4.729941
0
3DFACE
8
coconut_palm9_coconuts
10
-0.206434
20
-0.272091
30
4.698512
11
-0.220022
21
-0.276092
31
4.671322
12
-0.237830
22
-0.269789
32
4.674365
13
-0.237278
23
-0.261172
33
4.703783
0
3DFACE
8
coconut_palm9_coconuts
10
-0.220022
20
-0.276092
30
4.671322
11
-0.229898
21
-0.264453
31
4.649573
12
-0.237830
22
-0.269789
32
4.674365
13
-0.237830
23
-0.269789
33
4.674365
0
3DFACE
8
coconut_palm9_coconuts
10
-0.182439
20
-0.170983
30
4.733676
11
-0.165036
21
-0.190963
31
4.731674
12
-0.178921
22
-0.195145
32
4.744158
13
-0.178921
23
-0.195145
33
4.744158
0
3DFACE
8
coconut_palm9_coconuts
10
-0.165036
20
-0.190963
30
4.731674
11
-0.158655
21
-0.218112
31
4.718941
12
-0.182704
22
-0.225356
32
4.740562
13
-0.178921
23
-0.195145
33
4.744158
0
3DFACE
8
coconut_palm9_coconuts
10
-0.158655
20
-0.218112
30
4.718941
11
-0.165005
21
-0.245155
31
4.698888
12
-0.192774
22
-0.253520
32
4.723855
13
-0.182704
23
-0.225356
33
4.740562
0
3DFACE
8
coconut_palm9_coconuts
10
-0.165005
20
-0.245155
30
4.698888
11
-0.182385
21
-0.264847
31
4.676890
12
-0.206434
22
-0.272091
32
4.698512
13
-0.192774
23
-0.253520
33
4.723855
0
3DFACE
8
coconut_palm9_coconuts
10
-0.182385
20
-0.264847
30
4.676890
11
-0.206137
21
-0.271910
31
4.658838
12
-0.220022
22
-0.276092
32
4.671322
13
-0.206434
23
-0.272091
33
4.698512
0
3DFACE
8
coconut_palm9_coconuts
10
-0.206137
20
-0.271910
30
4.658838
11
-0.229898
21
-0.264453
31
4.649573
12
-0.220022
22
-0.276092
32
4.671322
13
-0.220022
23
-0.276092
33
4.671322
0
3DFACE
8
coconut_palm9_coconuts
10
-0.182439
20
-0.170983
30
4.733676
11
-0.163208
21
-0.178744
31
4.717063
12
-0.165036
22
-0.190963
32
4.731674
13
-0.165036
23
-0.190963
33
4.731674
0
3DFACE
8
coconut_palm9_coconuts
10
-0.163208
20
-0.178744
30
4.717063
11
-0.155488
21
-0.196948
31
4.693635
12
-0.158655
22
-0.218112
32
4.718941
13
-0.165036
23
-0.190963
33
4.731674
0
3DFACE
8
coconut_palm9_coconuts
10
-0.155488
20
-0.196948
30
4.693635
11
-0.161348
21
-0.220718
31
4.669667
12
-0.165005
22
-0.245155
32
4.698888
13
-0.158655
23
-0.218112
33
4.718941
0
3DFACE
8
coconut_palm9_coconuts
10
-0.161348
20
-0.220718
30
4.669667
11
-0.179218
21
-0.243683
31
4.651582
12
-0.182385
22
-0.264847
32
4.676890
13
-0.165005
23
-0.245155
33
4.698888
0
3DFACE
8
coconut_palm9_coconuts
10
-0.179218
20
-0.243683
30
4.651582
11
-0.204309
21
-0.259692
31
4.644228
12
-0.206137
22
-0.271910
32
4.658838
13
-0.182385
23
-0.264847
33
4.676890
0
3DFACE
8
coconut_palm9_coconuts
10
-0.204309
20
-0.259692
30
4.644228
11
-0.229898
21
-0.264453
31
4.649573
12
-0.206137
22
-0.271910
32
4.658838
13
-0.206137
23
-0.271910
33
4.658838
0
3DFACE
8
coconut_palm9_coconuts
10
-0.182439
20
-0.170983
30
4.733676
11
-0.174507
21
-0.165647
31
4.708883
12
-0.163208
22
-0.178744
32
4.717063
13
-0.163208
23
-0.178744
33
4.717063
0
3DFACE
8
coconut_palm9_coconuts
10
-0.174507
20
-0.165647
30
4.708883
11
-0.175059
21
-0.174263
31
4.679467
12
-0.155488
22
-0.196948
32
4.693635
13
-0.163208
23
-0.178744
33
4.717063
0
3DFACE
8
coconut_palm9_coconuts
10
-0.175059
20
-0.174263
30
4.679467
11
-0.183947
21
-0.194523
31
4.653307
12
-0.161348
22
-0.220718
32
4.669667
13
-0.155488
23
-0.196948
33
4.693635
0
3DFACE
8
coconut_palm9_coconuts
10
-0.183947
20
-0.194523
30
4.653307
11
-0.198789
21
-0.220998
31
4.637414
12
-0.179218
22
-0.243683
32
4.651582
13
-0.161348
23
-0.220718
33
4.669667
0
3DFACE
8
coconut_palm9_coconuts
10
-0.198789
20
-0.220998
30
4.637414
11
-0.215608
21
-0.246594
31
4.636048
12
-0.204309
22
-0.259692
32
4.644228
13
-0.179218
23
-0.243683
33
4.651582
0
3DFACE
8
coconut_palm9_coconuts
10
-0.215608
20
-0.246594
30
4.636048
11
-0.229898
21
-0.264453
31
4.649573
12
-0.204309
22
-0.259692
32
4.644228
13
-0.204309
23
-0.259692
33
4.644228
0
3DFACE
8
coconut_palm9_coconuts
10
-0.182439
20
-0.170983
30
4.733676
11
-0.192315
21
-0.159343
31
4.711926
12
-0.174507
22
-0.165647
32
4.708883
13
-0.174507
23
-0.165647
33
4.708883
0
3DFACE
8
coconut_palm9_coconuts
10
-0.192315
20
-0.159343
30
4.711926
11
-0.205903
21
-0.163345
31
4.684738
12
-0.175059
22
-0.174263
32
4.679467
13
-0.174507
23
-0.165647
33
4.708883
0
3DFACE
8
coconut_palm9_coconuts
10
-0.205903
20
-0.163345
30
4.684738
11
-0.219563
21
-0.181916
31
4.659394
12
-0.183947
22
-0.194523
32
4.653307
13
-0.175059
23
-0.174263
33
4.679467
0
3DFACE
8
coconut_palm9_coconuts
10
-0.219563
20
-0.181916
30
4.659394
11
-0.229633
21
-0.210080
31
4.642686
12
-0.198789
22
-0.220998
32
4.637414
13
-0.183947
23
-0.194523
33
4.653307
0
3DFACE
8
coconut_palm9_coconuts
10
-0.229633
20
-0.210080
30
4.642686
11
-0.233416
21
-0.240291
31
4.639091
12
-0.215608
22
-0.246594
32
4.636048
13
-0.198789
23
-0.220998
33
4.637414
0
3DFACE
8
coconut_palm9_coconuts
10
-0.233416
20
-0.240291
30
4.639091
11
-0.229898
21
-0.264453
31
4.649573
12
-0.215608
22
-0.246594
32
4.636048
13
-0.215608
23
-0.246594
33
4.636048
0
3DFACE
8
coconut_palm9_coconuts
10
-0.182439
20
-0.170983
30
4.733676
11
-0.206200
21
-0.163526
31
4.724410
12
-0.192315
22
-0.159343
32
4.711926
13
-0.192315
23
-0.159343
33
4.711926
0
3DFACE
8
coconut_palm9_coconuts
10
-0.206200
20
-0.163526
30
4.724410
11
-0.229952
21
-0.170589
31
4.706359
12
-0.205903
22
-0.163345
32
4.684738
13
-0.192315
23
-0.159343
33
4.711926
0
3DFACE
8
coconut_palm9_coconuts
10
-0.229952
20
-0.170589
30
4.706359
11
-0.247332
21
-0.190281
31
4.684360
12
-0.219563
22
-0.181916
32
4.659394
13
-0.205903
23
-0.163345
33
4.684738
0
3DFACE
8
coconut_palm9_coconuts
10
-0.247332
20
-0.190281
30
4.684360
11
-0.253682
21
-0.217324
31
4.664308
12
-0.229633
22
-0.210080
32
4.642686
13
-0.219563
23
-0.181916
33
4.659394
0
3DFACE
8
coconut_palm9_coconuts
10
-0.253682
20
-0.217324
30
4.664308
11
-0.247301
21
-0.244473
31
4.651574
12
-0.233416
22
-0.240291
32
4.639091
13
-0.229633
23
-0.210080
33
4.642686
0
3DFACE
8
coconut_palm9_coconuts
10
-0.247301
20
-0.244473
30
4.651574
11
-0.229898
21
-0.264453
31
4.649573
12
-0.233416
22
-0.240291
32
4.639091
13
-0.233416
23
-0.240291
33
4.639091
0
3DFACE
8
coconut_palm9_coconuts
10
-0.183433
20
0.025021
30
4.707550
11
-0.172191
21
0.017095
31
4.694249
12
-0.159261
22
0.036055
32
4.707642
13
-0.159261
23
0.036055
33
4.707642
0
3DFACE
8
coconut_palm9_coconuts
10
-0.183433
20
0.025021
30
4.707550
11
-0.200857
21
0.001580
31
4.716867
12
-0.181385
22
-0.012148
32
4.693830
13
-0.172191
23
0.017095
33
4.694249
0
3DFACE
8
coconut_palm9_coconuts
10
-0.200857
20
0.001580
30
4.716867
11
-0.206863
21
-0.027988
31
4.733098
12
-0.184380
22
-0.043840
32
4.706495
13
-0.181385
23
-0.012148
33
4.693830
0
3DFACE
8
coconut_palm9_coconuts
10
-0.206863
20
-0.027988
30
4.733098
11
-0.199844
21
-0.055760
31
4.751892
12
-0.180372
22
-0.069488
32
4.728854
13
-0.184380
23
-0.043840
33
4.706495
0
3DFACE
8
coconut_palm9_coconuts
10
-0.199844
20
-0.055760
30
4.751892
11
-0.181678
21
-0.074295
31
4.768214
12
-0.170436
22
-0.082220
32
4.754913
13
-0.180372
23
-0.069488
33
4.728854
0
3DFACE
8
coconut_palm9_coconuts
10
-0.181678
20
-0.074295
30
4.768214
11
-0.157235
21
-0.078625
31
4.777690
12
-0.170436
22
-0.082220
32
4.754913
13
-0.170436
23
-0.082220
33
4.754913
0
3DFACE
8
coconut_palm9_coconuts
10
-0.172191
20
0.017095
30
4.694249
11
-0.153295
21
0.015776
31
4.691542
12
-0.159261
22
0.036055
32
4.707642
13
-0.159261
23
0.036055
33
4.707642
0
3DFACE
8
coconut_palm9_coconuts
10
-0.172191
20
0.017095
30
4.694249
11
-0.181385
21
-0.012148
31
4.693830
12
-0.148657
22
-0.014434
32
4.689141
13
-0.153295
23
0.015776
33
4.691542
0
3DFACE
8
coconut_palm9_coconuts
10
-0.181385
20
-0.012148
30
4.693830
11
-0.184380
21
-0.043840
31
4.706495
12
-0.146588
22
-0.046479
32
4.701082
13
-0.148657
23
-0.014434
33
4.689141
0
3DFACE
8
coconut_palm9_coconuts
10
-0.184380
20
-0.043840
30
4.706495
11
-0.180372
21
-0.069488
31
4.728854
12
-0.147644
22
-0.071774
32
4.724165
13
-0.146588
23
-0.046479
33
4.701082
0
3DFACE
8
coconut_palm9_coconuts
10
-0.180372
20
-0.069488
30
4.728854
11
-0.170436
21
-0.082220
31
4.754913
12
-0.151541
22
-0.083540
32
4.752206
13
-0.147644
23
-0.071774
33
4.724165
0
3DFACE
8
coconut_palm9_coconuts
10
-0.170436
20
-0.082220
30
4.754913
11
-0.157235
21
-0.078625
31
4.777690
12
-0.151541
22
-0.083540
32
4.752206
13
-0.151541
23
-0.083540
33
4.752206
0
3DFACE
8
coconut_palm9_coconuts
10
-0.153295
20
0.015776
30
4.691542
11
-0.137814
21
0.021836
31
4.701015
12
-0.159261
22
0.036055
32
4.707642
13
-0.159261
23
0.036055
33
4.707642
0
3DFACE
8
coconut_palm9_coconuts
10
-0.153295
20
0.015776
30
4.691542
11
-0.148657
21
-0.014434
31
4.689141
12
-0.121843
22
-0.003938
32
4.705549
13
-0.137814
23
0.021836
33
4.701015
0
3DFACE
8
coconut_palm9_coconuts
10
-0.148657
20
-0.014434
30
4.689141
11
-0.146588
21
-0.046479
31
4.701082
12
-0.115626
22
-0.034359
32
4.720028
13
-0.121843
23
-0.003938
33
4.705549
0
3DFACE
8
coconut_palm9_coconuts
10
-0.146588
20
-0.046479
30
4.701082
11
-0.147644
21
-0.071774
31
4.724165
12
-0.120830
22
-0.061278
32
4.740574
13
-0.115626
23
-0.034359
33
4.720028
0
3DFACE
8
coconut_palm9_coconuts
10
-0.147644
20
-0.071774
30
4.724165
11
-0.151541
21
-0.083540
31
4.752206
12
-0.136060
22
-0.077480
32
4.761679
13
-0.120830
23
-0.061278
33
4.740574
0
3DFACE
8
coconut_palm9_coconuts
10
-0.151541
20
-0.083540
30
4.752206
11
-0.157235
21
-0.078625
31
4.777690
12
-0.136060
22
-0.077480
32
4.761679
13
-0.136060
23
-0.077480
33
4.761679
0
3DFACE
8
coconut_palm9_coconuts
10
-0.137814
20
0.021836
30
4.701015
11
-0.134817
21
0.031726
31
4.717119
12
-0.159261
22
0.036055
32
4.707642
13
-0.159261
23
0.036055
33
4.707642
0
3DFACE
8
coconut_palm9_coconuts
10
-0.137814
20
0.021836
30
4.701015
11
-0.121843
21
-0.003938
31
4.705549
12
-0.116652
22
0.013191
32
4.733441
13
-0.134817
23
0.031726
33
4.717119
0
3DFACE
8
coconut_palm9_coconuts
10
-0.121843
20
-0.003938
30
4.705549
11
-0.115626
21
-0.034359
31
4.720028
12
-0.109632
22
-0.014581
32
4.752236
13
-0.116652
23
0.013191
33
4.733441
0
3DFACE
8
coconut_palm9_coconuts
10
-0.115626
20
-0.034359
30
4.720028
11
-0.120830
21
-0.061278
31
4.740574
12
-0.115639
22
-0.044149
32
4.768466
13
-0.109632
23
-0.014581
33
4.752236
0
3DFACE
8
coconut_palm9_coconuts
10
-0.120830
20
-0.061278
30
4.740574
11
-0.136060
21
-0.077480
31
4.761679
12
-0.133062
22
-0.067590
32
4.777783
13
-0.115639
23
-0.044149
33
4.768466
0
3DFACE
8
coconut_palm9_coconuts
10
-0.136060
20
-0.077480
30
4.761679
11
-0.157235
21
-0.078625
31
4.777690
12
-0.133062
22
-0.067590
32
4.777783
13
-0.133062
23
-0.067590
33
4.777783
0
3DFACE
8
coconut_palm9_coconuts
10
-0.134817
20
0.031726
30
4.717119
11
-0.146059
21
0.039651
31
4.730421
12
-0.159261
22
0.036055
32
4.707642
13
-0.159261
23
0.036055
33
4.707642
0
3DFACE
8
coconut_palm9_coconuts
10
-0.134817
20
0.031726
30
4.717119
11
-0.116652
21
0.013191
31
4.733441
12
-0.136123
22
0.026919
32
4.756480
13
-0.146059
23
0.039651
33
4.730421
0
3DFACE
8
coconut_palm9_coconuts
10
-0.116652
20
0.013191
30
4.733441
11
-0.109632
21
-0.014581
31
4.752236
12
-0.132116
22
0.001271
32
4.778838
13
-0.136123
23
0.026919
33
4.756480
0
3DFACE
8
coconut_palm9_coconuts
10
-0.109632
20
-0.014581
30
4.752236
11
-0.115639
21
-0.044149
31
4.768466
12
-0.135110
22
-0.030421
32
4.791504
13
-0.132116
23
0.001271
33
4.778838
0
3DFACE
8
coconut_palm9_coconuts
10
-0.115639
20
-0.044149
30
4.768466
11
-0.133062
21
-0.067590
31
4.777783
12
-0.144304
22
-0.059665
32
4.791084
13
-0.135110
23
-0.030421
33
4.791504
0
3DFACE
8
coconut_palm9_coconuts
10
-0.133062
20
-0.067590
30
4.777783
11
-0.157235
21
-0.078625
31
4.777690
12
-0.144304
22
-0.059665
32
4.791084
13
-0.144304
23
-0.059665
33
4.791084
0
3DFACE
8
coconut_palm9_coconuts
10
-0.146059
20
0.039651
30
4.730421
11
-0.164955
21
0.040971
31
4.733127
12
-0.159261
22
0.036055
32
4.707642
13
-0.159261
23
0.036055
33
4.707642
0
3DFACE
8
coconut_palm9_coconuts
10
-0.146059
20
0.039651
30
4.730421
11
-0.136123
21
0.026919
31
4.756480
12
-0.168852
22
0.029205
32
4.761168
13
-0.164955
23
0.040971
33
4.733127
0
3DFACE
8
coconut_palm9_coconuts
10
-0.136123
20
0.026919
30
4.756480
11
-0.132116
21
0.001271
31
4.778838
12
-0.169907
22
0.003910
32
4.784251
13
-0.168852
23
0.029205
33
4.761168
0
3DFACE
8
coconut_palm9_coconuts
10
-0.132116
20
0.001271
30
4.778838
11
-0.135110
21
-0.030421
31
4.791504
12
-0.167839
22
-0.028135
32
4.796192
13
-0.169907
23
0.003910
33
4.784251
0
3DFACE
8
coconut_palm9_coconuts
10
-0.135110
20
-0.030421
30
4.791504
11
-0.144304
21
-0.059665
31
4.791084
12
-0.163200
22
-0.058345
32
4.793791
13
-0.167839
23
-0.028135
33
4.796192
0
3DFACE
8
coconut_palm9_coconuts
10
-0.144304
20
-0.059665
30
4.791084
11
-0.157235
21
-0.078625
31
4.777690
12
-0.163200
22
-0.058345
32
4.793791
13
-0.163200
23
-0.058345
33
4.793791
0
3DFACE
8
coconut_palm9_coconuts
10
-0.164955
20
0.040971
30
4.733127
11
-0.180436
21
0.034911
31
4.723654
12
-0.159261
22
0.036055
32
4.707642
13
-0.159261
23
0.036055
33
4.707642
0
3DFACE
8
coconut_palm9_coconuts
10
-0.164955
20
0.040971
30
4.733127
11
-0.168852
21
0.029205
31
4.761168
12
-0.195665
22
0.018709
32
4.744760
13
-0.180436
23
0.034911
33
4.723654
0
3DFACE
8
coconut_palm9_coconuts
10
-0.168852
20
0.029205
30
4.761168
11
-0.169907
21
0.003910
31
4.784251
12
-0.200869
22
-0.008210
32
4.765305
13
-0.195665
23
0.018709
33
4.744760
0
3DFACE
8
coconut_palm9_coconuts
10
-0.169907
20
0.003910
30
4.784251
11
-0.167839
21
-0.028135
31
4.796192
12
-0.194652
22
-0.038631
32
4.779784
13
-0.200869
23
-0.008210
33
4.765305
0
3DFACE
8
coconut_palm9_coconuts
10
-0.167839
20
-0.028135
30
4.796192
11
-0.163200
21
-0.058345
31
4.793791
12
-0.178681
22
-0.064405
32
4.784317
13
-0.194652
23
-0.038631
33
4.779784
0
3DFACE
8
coconut_palm9_coconuts
10
-0.163200
20
-0.058345
30
4.793791
11
-0.157235
21
-0.078625
31
4.777690
12
-0.178681
22
-0.064405
32
4.784317
13
-0.178681
23
-0.064405
33
4.784317
0
3DFACE
8
coconut_palm9_coconuts
10
-0.180436
20
0.034911
30
4.723654
11
-0.183433
21
0.025021
31
4.707550
12
-0.159261
22
0.036055
32
4.707642
13
-0.159261
23
0.036055
33
4.707642
0
3DFACE
8
coconut_palm9_coconuts
10
-0.180436
20
0.034911
30
4.723654
11
-0.195665
21
0.018709
31
4.744760
12
-0.200857
22
0.001580
32
4.716867
13
-0.183433
23
0.025021
33
4.707550
0
3DFACE
8
coconut_palm9_coconuts
10
-0.195665
20
0.018709
30
4.744760
11
-0.200869
21
-0.008210
31
4.765305
12
-0.206863
22
-0.027988
32
4.733098
13
-0.200857
23
0.001580
33
4.716867
0
3DFACE
8
coconut_palm9_coconuts
10
-0.200869
20
-0.008210
30
4.765305
11
-0.194652
21
-0.038631
31
4.779784
12
-0.199844
22
-0.055760
32
4.751892
13
-0.206863
23
-0.027988
33
4.733098
0
3DFACE
8
coconut_palm9_coconuts
10
-0.194652
20
-0.038631
30
4.779784
11
-0.178681
21
-0.064405
31
4.784317
12
-0.181678
22
-0.074295
32
4.768214
13
-0.199844
23
-0.055760
33
4.751892
0
3DFACE
8
coconut_palm9_coconuts
10
-0.178681
20
-0.064405
30
4.784317
11
-0.157235
21
-0.078625
31
4.777690
12
-0.181678
22
-0.074295
32
4.768214
13
-0.181678
23
-0.074295
33
4.768214
0
3DFACE
8
coconut_palm9_coconuts
10
0.088209
20
-0.192638
30
4.602955
11
0.085904
21
-0.193451
31
4.583978
12
0.095482
22
-0.216358
32
4.593442
13
0.095482
23
-0.216358
33
4.593442
0
3DFACE
8
coconut_palm9_coconuts
10
0.088209
20
-0.192638
30
4.602955
11
0.065014
21
-0.174781
31
4.612069
12
0.061022
22
-0.176190
32
4.579200
13
0.085904
23
-0.193451
33
4.583978
0
3DFACE
8
coconut_palm9_coconuts
10
0.065014
20
-0.174781
30
4.612069
11
0.032114
21
-0.167572
31
4.618341
12
0.027502
22
-0.169200
32
4.580389
13
0.061022
23
-0.176190
33
4.579200
0
3DFACE
8
coconut_palm9_coconuts
10
0.032114
20
-0.167572
30
4.618341
11
-0.001678
21
-0.172943
31
4.620093
12
-0.005672
22
-0.174353
32
4.587224
13
0.027502
23
-0.169200
33
4.580389
0
3DFACE
8
coconut_palm9_coconuts
10
-0.001678
20
-0.172943
30
4.620093
11
-0.027306
21
-0.189455
31
4.616854
12
-0.029611
22
-0.190269
32
4.597876
13
-0.005672
23
-0.174353
33
4.587224
0
3DFACE
8
coconut_palm9_coconuts
10
-0.027306
20
-0.189455
30
4.616854
11
-0.037903
21
-0.212683
31
4.609490
12
-0.029611
22
-0.190269
32
4.597876
13
-0.029611
23
-0.190269
33
4.597876
0
3DFACE
8
coconut_palm9_coconuts
10
0.085904
20
-0.193451
30
4.583978
11
0.083975
21
-0.207539
31
4.571176
12
0.095482
22
-0.216358
32
4.593442
13
0.095482
23
-0.216358
33
4.593442
0
3DFACE
8
coconut_palm9_coconuts
10
0.085904
20
-0.193451
30
4.583978
11
0.061022
21
-0.176190
31
4.579200
12
0.057681
22
-0.200591
32
4.557023
13
0.083975
23
-0.207539
33
4.571176
0
3DFACE
8
coconut_palm9_coconuts
10
0.061022
20
-0.176190
30
4.579200
11
0.027502
21
-0.169200
31
4.580389
12
0.023646
22
-0.197375
32
4.554778
13
0.057681
23
-0.200591
33
4.557023
0
3DFACE
8
coconut_palm9_coconuts
10
0.027502
20
-0.169200
30
4.580389
11
-0.005672
21
-0.174353
31
4.587224
12
-0.009011
22
-0.198754
32
4.565047
13
0.023646
23
-0.197375
33
4.554778
0
3DFACE
8
coconut_palm9_coconuts
10
-0.005672
20
-0.174353
30
4.587224
11
-0.029611
21
-0.190269
31
4.597876
12
-0.031540
22
-0.204357
32
4.585073
13
-0.009011
23
-0.198754
33
4.565047
0
3DFACE
8
coconut_palm9_coconuts
10
-0.029611
20
-0.190269
30
4.597876
11
-0.037903
21
-0.212683
31
4.609490
12
-0.031540
22
-0.204357
32
4.585073
13
-0.031540
23
-0.204357
33
4.585073
0
3DFACE
8
coconut_palm9_coconuts
10
0.083975
20
-0.207539
30
4.571176
11
0.083554
21
-0.226649
31
4.572044
12
0.095482
22
-0.216358
32
4.593442
13
0.095482
23
-0.216358
33
4.593442
0
3DFACE
8
coconut_palm9_coconuts
10
0.083975
20
-0.207539
30
4.571176
11
0.057681
21
-0.200591
31
4.557023
12
0.056951
22
-0.233690
32
4.558528
13
0.083554
23
-0.226649
33
4.572044
0
3DFACE
8
coconut_palm9_coconuts
10
0.057681
20
-0.200591
30
4.557023
11
0.023646
21
-0.197375
31
4.554778
12
0.022801
22
-0.235595
32
4.556522
13
0.056951
23
-0.233690
33
4.558528
0
3DFACE
8
coconut_palm9_coconuts
10
0.023646
20
-0.197375
30
4.554778
11
-0.009011
21
-0.198754
31
4.565047
12
-0.009742
22
-0.231853
32
4.566554
13
0.022801
23
-0.235595
33
4.556522
0
3DFACE
8
coconut_palm9_coconuts
10
-0.009011
20
-0.198754
30
4.565047
11
-0.031540
21
-0.204357
31
4.585073
12
-0.031961
22
-0.223467
32
4.585941
13
-0.009742
23
-0.231853
33
4.566554
0
3DFACE
8
coconut_palm9_coconuts
10
-0.031540
20
-0.204357
30
4.585073
11
-0.037903
21
-0.212683
31
4.609490
12
-0.031961
22
-0.223467
32
4.585941
13
-0.031961
23
-0.223467
33
4.585941
0
3DFACE
8
coconut_palm9_coconuts
10
0.083554
20
-0.226649
30
4.572044
11
0.084885
21
-0.239586
31
4.586082
12
0.095482
22
-0.216358
32
4.593442
13
0.095482
23
-0.216358
33
4.593442
0
3DFACE
8
coconut_palm9_coconuts
10
0.083554
20
-0.226649
30
4.572044
11
0.056951
21
-0.233690
31
4.558528
12
0.059257
22
-0.256099
32
4.582840
13
0.084885
23
-0.239586
33
4.586082
0
3DFACE
8
coconut_palm9_coconuts
10
0.056951
20
-0.233690
30
4.558528
11
0.022801
21
-0.235595
31
4.556522
12
0.025466
22
-0.261469
32
4.584590
13
0.059257
23
-0.256099
33
4.582840
0
3DFACE
8
coconut_palm9_coconuts
10
0.022801
20
-0.235595
30
4.556522
11
-0.009742
21
-0.231853
31
4.566554
12
-0.007435
22
-0.254261
32
4.590865
13
0.025466
23
-0.261469
33
4.584590
0
3DFACE
8
coconut_palm9_coconuts
10
-0.009742
20
-0.231853
30
4.566554
11
-0.031961
21
-0.223467
31
4.585941
12
-0.030629
22
-0.236404
32
4.599976
13
-0.007435
23
-0.254261
33
4.590865
0
3DFACE
8
coconut_palm9_coconuts
10
-0.031961
20
-0.223467
30
4.585941
11
-0.037903
21
-0.212683
31
4.609490
12
-0.030629
22
-0.236404
32
4.599976
13
-0.030629
23
-0.236404
33
4.599976
0
3DFACE
8
coconut_palm9_coconuts
10
0.084885
20
-0.239586
30
4.586082
11
0.087190
21
-0.238773
31
4.605059
12
0.095482
22
-0.216358
32
4.593442
13
0.095482
23
-0.216358
33
4.593442
0
3DFACE
8
coconut_palm9_coconuts
10
0.084885
20
-0.239586
30
4.586082
11
0.059257
21
-0.256099
31
4.582840
12
0.063250
22
-0.254689
32
4.615710
13
0.087190
23
-0.238773
33
4.605059
0
3DFACE
8
coconut_palm9_coconuts
10
0.059257
20
-0.256099
30
4.582840
11
0.025466
21
-0.261469
31
4.584590
12
0.030077
22
-0.259842
32
4.622547
13
0.063250
23
-0.254689
33
4.615710
0
3DFACE
8
coconut_palm9_coconuts
10
0.025466
20
-0.261469
30
4.584590
11
-0.007435
21
-0.254261
31
4.590865
12
-0.003442
22
-0.252852
32
4.623733
13
0.030077
23
-0.259842
33
4.622547
0
3DFACE
8
coconut_palm9_coconuts
10
-0.007435
20
-0.254261
30
4.590865
11
-0.030629
21
-0.236404
31
4.599976
12
-0.028324
22
-0.235590
32
4.618955
13
-0.003442
23
-0.252852
33
4.623733
0
3DFACE
8
coconut_palm9_coconuts
10
-0.030629
20
-0.236404
30
4.599976
11
-0.037903
21
-0.212683
31
4.609490
12
-0.028324
22
-0.235590
32
4.618955
13
-0.028324
23
-0.235590
33
4.618955
0
3DFACE
8
coconut_palm9_coconuts
10
0.087190
20
-0.238773
30
4.605059
11
0.089119
21
-0.224685
31
4.617861
12
0.095482
22
-0.216358
32
4.593442
13
0.095482
23
-0.216358
33
4.593442
0
3DFACE
8
coconut_palm9_coconuts
10
0.087190
20
-0.238773
30
4.605059
11
0.063250
21
-0.254689
31
4.615710
12
0.066591
22
-0.230288
32
4.637885
13
0.089119
23
-0.224685
33
4.617861
0
3DFACE
8
coconut_palm9_coconuts
10
0.063250
20
-0.254689
30
4.615710
11
0.030077
21
-0.259842
31
4.622547
12
0.033933
22
-0.231666
32
4.648155
13
0.066591
23
-0.230288
33
4.637885
0
3DFACE
8
coconut_palm9_coconuts
10
0.030077
20
-0.259842
30
4.622547
11
-0.003442
21
-0.252852
31
4.623733
12
-0.000102
22
-0.228450
32
4.645912
13
0.033933
23
-0.231666
33
4.648155
0
3DFACE
8
coconut_palm9_coconuts
10
-0.003442
20
-0.252852
30
4.623733
11
-0.028324
21
-0.235590
31
4.618955
12
-0.026396
22
-0.221502
32
4.631759
13
-0.000102
23
-0.228450
33
4.645912
0
3DFACE
8
coconut_palm9_coconuts
10
-0.028324
20
-0.235590
30
4.618955
11
-0.037903
21
-0.212683
31
4.609490
12
-0.026396
22
-0.221502
32
4.631759
13
-0.026396
23
-0.221502
33
4.631759
0
3DFACE
8
coconut_palm9_coconuts
10
0.089119
20
-0.224685
30
4.617861
11
0.089541
21
-0.205575
31
4.616992
12
0.095482
22
-0.216358
32
4.593442
13
0.095482
23
-0.216358
33
4.593442
0
3DFACE
8
coconut_palm9_coconuts
10
0.089119
20
-0.224685
30
4.617861
11
0.066591
21
-0.230288
31
4.637885
12
0.067321
22
-0.197189
32
4.636381
13
0.089541
23
-0.205575
33
4.616992
0
3DFACE
8
coconut_palm9_coconuts
10
0.066591
20
-0.230288
30
4.637885
11
0.033933
21
-0.231666
31
4.648155
12
0.034777
22
-0.193447
32
4.646412
13
0.067321
23
-0.197189
33
4.636381
0
3DFACE
8
coconut_palm9_coconuts
10
0.033933
20
-0.231666
30
4.648155
11
-0.000102
21
-0.228450
31
4.645912
12
0.000629
22
-0.195351
32
4.644403
13
0.034777
23
-0.193447
33
4.646412
0
3DFACE
8
coconut_palm9_coconuts
10
-0.000102
20
-0.228450
30
4.645912
11
-0.026396
21
-0.221502
31
4.631759
12
-0.025974
22
-0.202393
32
4.630886
13
0.000629
23
-0.195351
33
4.644403
0
3DFACE
8
coconut_palm9_coconuts
10
-0.026396
20
-0.221502
30
4.631759
11
-0.037903
21
-0.212683
31
4.609490
12
-0.025974
22
-0.202393
32
4.630886
13
-0.025974
23
-0.202393
33
4.630886
0
3DFACE
8
coconut_palm9_coconuts
10
0.089541
20
-0.205575
30
4.616992
11
0.088209
21
-0.192638
31
4.602955
12
0.095482
22
-0.216358
32
4.593442
13
0.095482
23
-0.216358
33
4.593442
0
3DFACE
8
coconut_palm9_coconuts
10
0.089541
20
-0.205575
30
4.616992
11
0.067321
21
-0.197189
31
4.636381
12
0.065014
22
-0.174781
32
4.612069
13
0.088209
23
-0.192638
33
4.602955
0
3DFACE
8
coconut_palm9_coconuts
10
0.067321
20
-0.197189
30
4.636381
11
0.034777
21
-0.193447
31
4.646412
12
0.032114
22
-0.167572
32
4.618341
13
0.065014
23
-0.174781
33
4.612069
0
3DFACE
8
coconut_palm9_coconuts
10
0.034777
20
-0.193447
30
4.646412
11
0.000629
21
-0.195351
31
4.644403
12
-0.001678
22
-0.172943
32
4.620093
13
0.032114
23
-0.167572
33
4.618341
0
3DFACE
8
coconut_palm9_coconuts
10
0.000629
20
-0.195351
30
4.644403
11
-0.025974
21
-0.202393
31
4.630886
12
-0.027306
22
-0.189455
32
4.616854
13
-0.001678
23
-0.172943
33
4.620093
0
3DFACE
8
coconut_palm9_coconuts
10
-0.025974
20
-0.202393
30
4.630886
11
-0.037903
21
-0.212683
31
4.609490
12
-0.027306
22
-0.189455
32
4.616854
13
-0.027306
23
-0.189455
33
4.616854
0
3DFACE
8
coconut_palm9_coconuts
10
-0.099118
20
-0.223024
30
4.647763
11
-0.112781
21
-0.244639
31
4.654987
12
-0.119498
22
-0.237401
32
4.638597
13
-0.119498
23
-0.237401
33
4.638597
0
3DFACE
8
coconut_palm9_coconuts
10
-0.112781
20
-0.244639
30
4.654987
11
-0.116593
21
-0.274845
31
4.651386
12
-0.128228
22
-0.262309
32
4.623000
13
-0.119498
23
-0.237401
33
4.638597
0
3DFACE
8
coconut_palm9_coconuts
10
-0.116593
20
-0.274845
30
4.651386
11
-0.109533
21
-0.305549
31
4.637927
12
-0.122968
22
-0.291074
32
4.605148
13
-0.128228
23
-0.262309
33
4.623000
0
3DFACE
8
coconut_palm9_coconuts
10
-0.109533
20
-0.305549
30
4.637927
11
-0.093493
21
-0.328525
31
4.618213
12
-0.105127
22
-0.315989
32
4.589826
13
-0.122968
23
-0.291074
33
4.605148
0
3DFACE
8
coconut_palm9_coconuts
10
-0.093493
20
-0.328525
30
4.618213
11
-0.072770
21
-0.337615
31
4.597529
12
-0.079487
22
-0.330377
32
4.581140
13
-0.105127
23
-0.315989
33
4.589826
0
3DFACE
8
coconut_palm9_coconuts
10
-0.072770
20
-0.337615
30
4.597529
11
-0.052917
21
-0.330384
31
4.581417
12
-0.079487
22
-0.330377
32
4.581140
13
-0.079487
23
-0.330377
33
4.581140
0
3DFACE
8
coconut_palm9_coconuts
10
-0.099118
20
-0.223024
30
4.647763
11
-0.096247
21
-0.243428
31
4.664541
12
-0.112781
22
-0.244639
32
4.654987
13
-0.112781
23
-0.244639
33
4.654987
0
3DFACE
8
coconut_palm9_coconuts
10
-0.096247
20
-0.243428
30
4.664541
11
-0.087956
21
-0.272747
31
4.667934
12
-0.116593
22
-0.274845
32
4.651386
13
-0.112781
23
-0.244639
33
4.654987
0
3DFACE
8
coconut_palm9_coconuts
10
-0.087956
20
-0.272747
30
4.667934
11
-0.076465
21
-0.303127
31
4.657034
12
-0.109533
22
-0.305549
32
4.637927
13
-0.116593
23
-0.274845
33
4.651386
0
3DFACE
8
coconut_palm9_coconuts
10
-0.076465
20
-0.303127
30
4.657034
11
-0.064855
21
-0.326427
31
4.634762
12
-0.093493
22
-0.328525
32
4.618213
13
-0.109533
23
-0.305549
33
4.637927
0
3DFACE
8
coconut_palm9_coconuts
10
-0.064855
20
-0.326427
30
4.634762
11
-0.056236
21
-0.336404
31
4.607083
12
-0.072770
22
-0.337615
32
4.597529
13
-0.093493
23
-0.328525
33
4.618213
0
3DFACE
8
coconut_palm9_coconuts
10
-0.056236
20
-0.336404
30
4.607083
11
-0.052917
21
-0.330384
31
4.581417
12
-0.072770
22
-0.337615
32
4.597529
13
-0.072770
23
-0.337615
33
4.597529
0
3DFACE
8
coconut_palm9_coconuts
10
-0.099118
20
-0.223024
30
4.647763
11
-0.079582
21
-0.234477
31
4.661663
12
-0.096247
22
-0.243428
32
4.664541
13
-0.096247
23
-0.243428
33
4.664541
0
3DFACE
8
coconut_palm9_coconuts
10
-0.079582
20
-0.234477
30
4.661663
11
-0.059090
21
-0.257245
31
4.662950
12
-0.087956
22
-0.272747
32
4.667934
13
-0.096247
23
-0.243428
33
4.664541
0
3DFACE
8
coconut_palm9_coconuts
10
-0.059090
20
-0.257245
30
4.662950
11
-0.043135
21
-0.285227
31
4.651279
12
-0.076465
22
-0.303127
32
4.657034
13
-0.087956
23
-0.272747
33
4.667934
0
3DFACE
8
coconut_palm9_coconuts
10
-0.043135
20
-0.285227
30
4.651279
11
-0.035990
21
-0.310925
31
4.629776
12
-0.064855
22
-0.326427
32
4.634762
13
-0.076465
23
-0.303127
33
4.657034
0
3DFACE
8
coconut_palm9_coconuts
10
-0.035990
20
-0.310925
30
4.629776
11
-0.039570
21
-0.327453
31
4.604205
12
-0.056236
22
-0.336404
32
4.607083
13
-0.064855
23
-0.326427
33
4.634762
0
3DFACE
8
coconut_palm9_coconuts
10
-0.039570
20
-0.327453
30
4.604205
11
-0.052917
21
-0.330384
31
4.581417
12
-0.056236
22
-0.336404
32
4.607083
13
-0.056236
23
-0.336404
33
4.607083
0
3DFACE
8
coconut_palm9_coconuts
10
-0.099118
20
-0.223024
30
4.647763
11
-0.072548
21
-0.223031
31
4.648039
12
-0.079582
22
-0.234477
32
4.661663
13
-0.079582
23
-0.234477
33
4.661663
0
3DFACE
8
coconut_palm9_coconuts
10
-0.072548
20
-0.223031
30
4.648039
11
-0.046907
21
-0.237419
31
4.639353
12
-0.059090
22
-0.257245
32
4.662950
13
-0.079582
23
-0.234477
33
4.661663
0
3DFACE
8
coconut_palm9_coconuts
10
-0.046907
20
-0.237419
30
4.639353
11
-0.029066
21
-0.262334
31
4.624031
12
-0.043135
22
-0.285227
32
4.651279
13
-0.059090
23
-0.257245
33
4.662950
0
3DFACE
8
coconut_palm9_coconuts
10
-0.029066
20
-0.262334
30
4.624031
11
-0.023806
21
-0.291099
31
4.606179
12
-0.035990
22
-0.310925
32
4.629776
13
-0.043135
23
-0.285227
33
4.651279
0
3DFACE
8
coconut_palm9_coconuts
10
-0.023806
20
-0.291099
30
4.606179
11
-0.032536
21
-0.316007
31
4.590581
12
-0.039570
22
-0.327453
32
4.604205
13
-0.035990
23
-0.310925
33
4.629776
0
3DFACE
8
coconut_palm9_coconuts
10
-0.032536
20
-0.316007
30
4.590581
11
-0.052917
21
-0.330384
31
4.581417
12
-0.039570
22
-0.327453
32
4.604205
13
-0.039570
23
-0.327453
33
4.604205
0
3DFACE
8
coconut_palm9_coconuts
10
-0.099118
20
-0.223024
30
4.647763
11
-0.079265
21
-0.215793
31
4.631649
12
-0.072548
22
-0.223031
32
4.648039
13
-0.072548
23
-0.223031
33
4.648039
0
3DFACE
8
coconut_palm9_coconuts
10
-0.079265
20
-0.215793
30
4.631649
11
-0.058542
21
-0.224883
31
4.610965
12
-0.046907
22
-0.237419
32
4.639353
13
-0.072548
23
-0.223031
33
4.648039
0
3DFACE
8
coconut_palm9_coconuts
10
-0.058542
20
-0.224883
30
4.610965
11
-0.042501
21
-0.247859
31
4.591252
12
-0.029066
22
-0.262334
32
4.624031
13
-0.046907
23
-0.237419
33
4.639353
0
3DFACE
8
coconut_palm9_coconuts
10
-0.042501
20
-0.247859
30
4.591252
11
-0.035441
21
-0.278563
31
4.577792
12
-0.023806
22
-0.291099
32
4.606179
13
-0.029066
23
-0.262334
33
4.624031
0
3DFACE
8
coconut_palm9_coconuts
10
-0.035441
20
-0.278563
30
4.577792
11
-0.039254
21
-0.308769
31
4.574193
12
-0.032536
22
-0.316007
32
4.590581
13
-0.023806
23
-0.291099
33
4.606179
0
3DFACE
8
coconut_palm9_coconuts
10
-0.039254
20
-0.308769
30
4.574193
11
-0.052917
21
-0.330384
31
4.581417
12
-0.032536
22
-0.316007
32
4.590581
13
-0.032536
23
-0.316007
33
4.590581
0
3DFACE
8
coconut_palm9_coconuts
10
-0.099118
20
-0.223024
30
4.647763
11
-0.095799
21
-0.217004
31
4.622096
12
-0.079265
22
-0.215793
32
4.631649
13
-0.079265
23
-0.215793
33
4.631649
0
3DFACE
8
coconut_palm9_coconuts
10
-0.095799
20
-0.217004
30
4.622096
11
-0.087179
21
-0.226981
31
4.594417
12
-0.058542
22
-0.224883
32
4.610965
13
-0.079265
23
-0.215793
33
4.631649
0
3DFACE
8
coconut_palm9_coconuts
10
-0.087179
20
-0.226981
30
4.594417
11
-0.075569
21
-0.250281
31
4.572144
12
-0.042501
22
-0.247859
32
4.591252
13
-0.058542
23
-0.224883
33
4.610965
0
3DFACE
8
coconut_palm9_coconuts
10
-0.075569
20
-0.250281
30
4.572144
11
-0.064079
21
-0.280661
31
4.561244
12
-0.035441
22
-0.278563
32
4.577792
13
-0.042501
23
-0.247859
33
4.591252
0
3DFACE
8
coconut_palm9_coconuts
10
-0.064079
20
-0.280661
30
4.561244
11
-0.055787
21
-0.309980
31
4.564638
12
-0.039254
22
-0.308769
32
4.574193
13
-0.035441
23
-0.278563
33
4.577792
0
3DFACE
8
coconut_palm9_coconuts
10
-0.055787
20
-0.309980
30
4.564638
11
-0.052917
21
-0.330384
31
4.581417
12
-0.039254
22
-0.308769
32
4.574193
13
-0.039254
23
-0.308769
33
4.574193
0
3DFACE
8
coconut_palm9_coconuts
10
-0.099118
20
-0.223024
30
4.647763
11
-0.112464
21
-0.225955
31
4.624973
12
-0.095799
22
-0.217004
32
4.622096
13
-0.095799
23
-0.217004
33
4.622096
0
3DFACE
8
coconut_palm9_coconuts
10
-0.112464
20
-0.225955
30
4.624973
11
-0.116044
21
-0.242483
31
4.599401
12
-0.087179
22
-0.226981
32
4.594417
13
-0.095799
23
-0.217004
33
4.622096
0
3DFACE
8
coconut_palm9_coconuts
10
-0.116044
20
-0.242483
30
4.599401
11
-0.108900
21
-0.268181
31
4.577900
12
-0.075569
22
-0.250281
32
4.572144
13
-0.087179
23
-0.226981
33
4.594417
0
3DFACE
8
coconut_palm9_coconuts
10
-0.108900
20
-0.268181
30
4.577900
11
-0.092944
21
-0.296163
31
4.566229
12
-0.064079
22
-0.280661
32
4.561244
13
-0.075569
23
-0.250281
33
4.572144
0
3DFACE
8
coconut_palm9_coconuts
10
-0.092944
20
-0.296163
30
4.566229
11
-0.072453
21
-0.318931
31
4.567516
12
-0.055787
22
-0.309980
32
4.564638
13
-0.064079
23
-0.280661
33
4.561244
0
3DFACE
8
coconut_palm9_coconuts
10
-0.072453
20
-0.318931
30
4.567516
11
-0.052917
21
-0.330384
31
4.581417
12
-0.055787
22
-0.309980
32
4.564638
13
-0.055787
23
-0.309980
33
4.564638
0
3DFACE
8
coconut_palm9_coconuts
10
-0.099118
20
-0.223024
30
4.647763
11
-0.119498
21
-0.237401
31
4.638597
12
-0.112464
22
-0.225955
32
4.624973
13
-0.112464
23
-0.225955
33
4.624973
0
3DFACE
8
coconut_palm9_coconuts
10
-0.119498
20
-0.237401
30
4.638597
11
-0.128228
21
-0.262309
31
4.623000
12
-0.116044
22
-0.242483
32
4.599401
13
-0.112464
23
-0.225955
33
4.624973
0
3DFACE
8
coconut_palm9_coconuts
10
-0.128228
20
-0.262309
30
4.623000
11
-0.122968
21
-0.291074
31
4.605148
12
-0.108900
22
-0.268181
32
4.577900
13
-0.116044
23
-0.242483
33
4.599401
0
3DFACE
8
coconut_palm9_coconuts
10
-0.122968
20
-0.291074
30
4.605148
11
-0.105127
21
-0.315989
31
4.589826
12
-0.092944
22
-0.296163
32
4.566229
13
-0.108900
23
-0.268181
33
4.577900
0
3DFACE
8
coconut_palm9_coconuts
10
-0.105127
20
-0.315989
30
4.589826
11
-0.079487
21
-0.330377
31
4.581140
12
-0.072453
22
-0.318931
32
4.567516
13
-0.092944
23
-0.296163
33
4.566229
0
3DFACE
8
coconut_palm9_coconuts
10
-0.079487
20
-0.330377
30
4.581140
11
-0.052917
21
-0.330384
31
4.581417
12
-0.072453
22
-0.318931
32
4.567516
13
-0.072453
23
-0.318931
33
4.567516
0
ENDSEC
0
EOF
