999
DXF file generated by Cheetah3D
0
SECTION
2
ENTITIES
0
3DFACE
8
coconut_palm7_trunk
10
-0.002519
20
0.144302
30
0.000000
11
0.097833
21
0.139720
31
0.000000
12
0.056568
22
0.141602
32
0.459580
13
-0.002986
23
0.167390
33
0.448180
0
3DFACE
8
coconut_palm7_trunk
10
0.097833
20
0.139720
30
0.000000
11
0.149859
21
0.051601
31
-0.000000
12
0.091604
22
0.095248
32
0.479519
13
0.056568
23
0.141602
33
0.459580
0
3DFACE
8
coconut_palm7_trunk
10
0.149859
20
0.051601
30
-0.000000
11
0.167010
21
-0.051060
31
-0.000000
12
0.117393
22
0.032480
32
0.506339
13
0.091604
23
0.095248
33
0.479519
0
3DFACE
8
coconut_palm7_trunk
10
0.167010
20
-0.051060
30
-0.000000
11
0.104223
21
-0.138309
31
-0.000000
12
0.066263
22
-0.016788
32
0.526837
13
0.117393
23
0.032480
33
0.506339
0
3DFACE
8
coconut_palm7_trunk
10
0.104223
20
-0.138309
30
-0.000000
11
0.003003
21
-0.172045
31
-0.000000
12
0.000666
22
-0.041842
32
0.536956
13
0.066263
23
-0.016788
33
0.526837
0
3DFACE
8
coconut_palm7_trunk
10
0.003003
20
-0.172045
30
-0.000000
11
-0.084527
21
-0.120717
31
-0.000000
12
-0.057856
22
-0.008709
32
0.522476
13
0.000666
23
-0.041842
33
0.536956
0
3DFACE
8
coconut_palm7_trunk
10
-0.084527
20
-0.120717
30
-0.000000
11
-0.168590
21
-0.058050
31
-0.000000
12
-0.109516
22
0.031235
32
0.505155
13
-0.057856
23
-0.008709
33
0.522476
0
3DFACE
8
coconut_palm7_trunk
10
-0.168590
20
-0.058050
30
-0.000000
11
-0.147188
21
0.045001
31
0.000000
12
-0.110708
22
0.096382
32
0.477513
13
-0.109516
23
0.031235
33
0.505155
0
3DFACE
8
coconut_palm7_trunk
10
-0.147188
20
0.045001
30
0.000000
11
-0.090521
21
0.120126
31
0.000000
12
-0.062141
22
0.140192
32
0.459284
13
-0.110708
23
0.096382
33
0.477513
0
3DFACE
8
coconut_palm7_trunk
10
-0.090521
20
0.120126
30
0.000000
11
-0.002519
21
0.144302
31
0.000000
12
-0.002986
22
0.167390
32
0.448180
13
-0.062141
23
0.140192
33
0.459284
0
3DFACE
8
coconut_palm7_trunk
10
-0.002986
20
0.167390
30
0.448180
11
0.056568
21
0.141602
31
0.459580
12
0.058723
22
0.432923
32
0.798157
13
-0.006391
23
0.445409
33
0.778604
0
3DFACE
8
coconut_palm7_trunk
10
0.056568
20
0.141602
30
0.459580
11
0.091604
21
0.095248
31
0.479519
12
0.093259
22
0.401053
32
0.845246
13
0.058723
23
0.432923
33
0.798157
0
3DFACE
8
coconut_palm7_trunk
10
0.091604
20
0.095248
30
0.479519
11
0.117393
21
0.032480
31
0.506339
12
0.102347
22
0.363412
32
0.900536
13
0.093259
23
0.401053
33
0.845246
0
3DFACE
8
coconut_palm7_trunk
10
0.117393
20
0.032480
30
0.506339
11
0.066263
21
-0.016788
31
0.526837
12
0.055208
22
0.336105
32
0.939685
13
0.102347
23
0.363412
33
0.900536
0
3DFACE
8
coconut_palm7_trunk
10
0.066263
20
-0.016788
30
0.526837
11
0.000666
21
-0.041842
31
0.536956
12
-0.004105
22
0.314418
32
0.970440
13
0.055208
23
0.336105
33
0.939685
0
3DFACE
8
coconut_palm7_trunk
10
0.000666
20
-0.041842
30
0.536956
11
-0.057856
21
-0.008709
31
0.522476
12
-0.073035
22
0.327081
32
0.950068
13
-0.004105
23
0.314418
33
0.970440
0
3DFACE
8
coconut_palm7_trunk
10
-0.057856
20
-0.008709
30
0.522476
11
-0.109516
21
0.031235
31
0.505155
12
-0.107287
22
0.360903
32
0.899380
13
-0.073035
23
0.327081
33
0.950068
0
3DFACE
8
coconut_palm7_trunk
10
-0.109516
20
0.031235
30
0.505155
11
-0.110708
21
0.096382
31
0.477513
12
-0.115160
22
0.399610
32
0.842539
13
-0.107287
23
0.360903
33
0.899380
0
3DFACE
8
coconut_palm7_trunk
10
-0.110708
20
0.096382
30
0.477513
11
-0.062141
21
0.140192
31
0.459284
12
-0.061923
22
0.423914
32
0.808429
13
-0.115160
23
0.399610
33
0.842539
0
3DFACE
8
coconut_palm7_trunk
10
-0.062141
20
0.140192
30
0.459284
11
-0.002986
21
0.167390
31
0.448180
12
-0.006391
22
0.445409
32
0.778604
13
-0.061923
23
0.423914
33
0.808429
0
3DFACE
8
coconut_palm7_trunk
10
-0.006391
20
0.445409
30
0.778604
11
0.058723
21
0.432923
31
0.798157
12
0.048230
22
0.866343
32
1.023371
13
-0.018346
23
0.875967
33
1.003366
0
3DFACE
8
coconut_palm7_trunk
10
0.058723
20
0.432923
30
0.798157
11
0.093259
21
0.401053
31
0.845246
12
0.082412
22
0.838722
32
1.075037
13
0.048230
23
0.866343
33
1.023371
0
3DFACE
8
coconut_palm7_trunk
10
0.093259
20
0.401053
30
0.845246
11
0.102347
21
0.363412
31
0.900536
12
0.067034
22
0.809622
32
1.127525
13
0.082412
23
0.838722
33
1.075037
0
3DFACE
8
coconut_palm7_trunk
10
0.102347
20
0.363412
30
0.900536
11
0.055208
21
0.336105
31
0.939685
12
0.044765
22
0.781633
32
1.177654
13
0.067034
23
0.809622
33
1.127525
0
3DFACE
8
coconut_palm7_trunk
10
0.055208
20
0.336105
30
0.939685
11
-0.004105
21
0.314418
31
0.970440
12
-0.016548
22
0.772952
32
1.191236
13
0.044765
23
0.781633
33
1.177654
0
3DFACE
8
coconut_palm7_trunk
10
-0.004105
20
0.314418
30
0.970440
11
-0.073035
21
0.327081
31
0.950068
12
-0.083318
22
0.775686
32
1.183874
13
-0.016548
23
0.772952
33
1.191236
0
3DFACE
8
coconut_palm7_trunk
10
-0.073035
20
0.327081
30
0.950068
11
-0.107287
21
0.360903
31
0.899380
12
-0.117199
22
0.803595
32
1.131873
13
-0.083318
23
0.775686
33
1.183874
0
3DFACE
8
coconut_palm7_trunk
10
-0.107287
20
0.360903
30
0.899380
11
-0.115160
21
0.399610
31
0.842539
12
-0.109552
22
0.833753
32
1.077176
13
-0.117199
23
0.803595
33
1.131873
0
3DFACE
8
coconut_palm7_trunk
10
-0.115160
20
0.399610
30
0.842539
11
-0.061923
21
0.423914
31
0.808429
12
-0.081175
22
0.861651
32
1.027261
13
-0.109552
23
0.833753
33
1.077176
0
3DFACE
8
coconut_palm7_trunk
10
-0.061923
20
0.423914
30
0.808429
11
-0.006391
21
0.445409
31
0.778604
12
-0.018346
22
0.875967
32
1.003366
13
-0.081175
23
0.861651
33
1.027261
0
3DFACE
8
coconut_palm7_trunk
10
-0.018346
20
0.875967
30
1.003366
11
0.048230
21
0.866343
31
1.023371
12
0.034059
22
1.284423
32
1.309515
13
-0.024248
23
1.299993
33
1.285588
0
3DFACE
8
coconut_palm7_trunk
10
0.048230
20
0.866343
30
1.023371
11
0.082412
21
0.838722
31
1.075037
12
0.060762
22
1.254905
32
1.352619
13
0.034059
23
1.284423
33
1.309515
0
3DFACE
8
coconut_palm7_trunk
10
0.082412
20
0.838722
30
1.075037
11
0.067034
21
0.809622
31
1.127525
12
0.079299
22
1.220615
32
1.402304
13
0.060762
23
1.254905
33
1.352619
0
3DFACE
8
coconut_palm7_trunk
10
0.067034
20
0.809622
30
1.127525
11
0.044765
21
0.781633
31
1.177654
12
0.028682
22
1.198405
32
1.432800
13
0.079299
23
1.220615
33
1.402304
0
3DFACE
8
coconut_palm7_trunk
10
0.044765
20
0.781633
30
1.177654
11
-0.016548
21
0.772952
31
1.191236
12
-0.022100
22
1.176931
32
1.462219
13
0.028682
23
1.198405
33
1.432800
0
3DFACE
8
coconut_palm7_trunk
10
-0.016548
20
0.772952
30
1.191236
11
-0.083318
21
0.775686
31
1.183874
12
-0.077923
22
1.193024
32
1.437703
13
-0.022100
23
1.176931
33
1.462219
0
3DFACE
8
coconut_palm7_trunk
10
-0.083318
20
0.775686
30
1.183874
11
-0.117199
21
0.803595
31
1.131873
12
-0.121526
22
1.217623
32
1.401297
13
-0.077923
23
1.193024
33
1.437703
0
3DFACE
8
coconut_palm7_trunk
10
-0.117199
20
0.803595
30
1.131873
11
-0.109552
21
0.833753
31
1.077176
12
-0.109077
22
1.252100
32
1.352159
13
-0.121526
23
1.217623
33
1.401297
0
3DFACE
8
coconut_palm7_trunk
10
-0.109552
20
0.833753
30
1.077176
11
-0.081175
21
0.861651
31
1.027261
12
-0.081177
22
1.281719
32
1.310351
13
-0.109077
23
1.252100
33
1.352159
0
3DFACE
8
coconut_palm7_trunk
10
-0.081175
20
0.861651
30
1.027261
11
-0.018346
21
0.875967
31
1.003366
12
-0.024248
22
1.299993
32
1.285588
13
-0.081177
23
1.281719
33
1.310351
0
3DFACE
8
coconut_palm7_trunk
10
-0.024248
20
1.299993
30
1.285588
11
0.034059
21
1.284423
31
1.309515
12
0.011751
22
1.683376
32
1.619996
13
-0.040167
23
1.689085
33
1.611877
0
3DFACE
8
coconut_palm7_trunk
10
0.034059
20
1.284423
30
1.309515
11
0.060762
21
1.254905
31
1.352619
12
0.045652
22
1.655790
32
1.653300
13
0.011751
23
1.683376
33
1.619996
0
3DFACE
8
coconut_palm7_trunk
10
0.060762
20
1.254905
30
1.352619
11
0.079299
21
1.220615
31
1.402304
12
0.044853
22
1.620133
32
1.695089
13
0.045652
23
1.655790
33
1.653300
0
3DFACE
8
coconut_palm7_trunk
10
0.079299
20
1.220615
30
1.402304
11
0.028682
21
1.198405
31
1.432800
12
0.014121
22
1.590210
32
1.729311
13
0.044853
23
1.620133
33
1.695089
0
3DFACE
8
coconut_palm7_trunk
10
0.028682
20
1.198405
30
1.432800
11
-0.022100
21
1.176931
31
1.462219
12
-0.038148
22
1.573383
32
1.747602
13
0.014121
23
1.590210
33
1.729311
0
3DFACE
8
coconut_palm7_trunk
10
-0.022100
20
1.176931
30
1.462219
11
-0.077923
21
1.193024
31
1.437703
12
-0.087983
22
1.590810
32
1.725860
13
-0.038148
23
1.573383
33
1.747602
0
3DFACE
8
coconut_palm7_trunk
10
-0.077923
20
1.193024
30
1.437703
11
-0.121526
21
1.217623
31
1.401297
12
-0.121964
22
1.616843
32
1.694441
13
-0.087983
23
1.590810
33
1.725860
0
3DFACE
8
coconut_palm7_trunk
10
-0.121526
20
1.217623
30
1.401297
11
-0.109077
21
1.252100
31
1.352159
12
-0.134593
22
1.654119
32
1.650374
13
-0.121964
23
1.616843
33
1.694441
0
3DFACE
8
coconut_palm7_trunk
10
-0.109077
20
1.252100
30
1.352159
11
-0.081177
21
1.281719
31
1.310351
12
-0.096873
22
1.685537
32
1.614505
13
-0.134593
23
1.654119
33
1.650374
0
3DFACE
8
coconut_palm7_trunk
10
-0.081177
20
1.281719
30
1.310351
11
-0.024248
21
1.299993
31
1.285588
12
-0.040167
22
1.689085
32
1.611877
13
-0.096873
23
1.685537
33
1.614505
0
3DFACE
8
coconut_palm7_trunk
10
-0.040167
20
1.689085
30
1.611877
11
0.011751
21
1.683376
31
1.619996
12
0.020404
22
2.035759
32
1.984266
13
-0.032246
23
2.052871
33
1.967322
0
3DFACE
8
coconut_palm7_trunk
10
0.011751
20
1.683376
30
1.619996
11
0.045652
21
1.655790
31
1.653300
12
0.052229
22
2.003651
32
2.015049
13
0.020404
23
2.035759
33
1.984266
0
3DFACE
8
coconut_palm7_trunk
10
0.045652
20
1.655790
30
1.653300
11
0.044853
21
1.620133
31
1.695089
12
0.058252
22
1.962972
32
2.053511
13
0.052229
23
2.003651
33
2.015049
0
3DFACE
8
coconut_palm7_trunk
10
0.044853
20
1.620133
30
1.695089
11
0.014121
21
1.590210
31
1.729311
12
0.024128
22
1.929134
32
2.084901
13
0.058252
23
1.962972
33
2.053511
0
3DFACE
8
coconut_palm7_trunk
10
0.014121
20
1.590210
30
1.729311
11
-0.038148
21
1.573383
31
1.747602
12
-0.029993
22
1.923789
32
2.089134
13
0.024128
23
1.929134
33
2.084901
0
3DFACE
8
coconut_palm7_trunk
10
-0.038148
20
1.573383
30
1.747602
11
-0.087983
21
1.590810
31
1.725860
12
-0.076981
22
1.934883
32
2.077984
13
-0.029993
23
1.923789
33
2.089134
0
3DFACE
8
coconut_palm7_trunk
10
-0.087983
20
1.590810
30
1.725860
11
-0.121964
21
1.616843
31
1.694441
12
-0.111725
22
1.962003
32
2.051905
13
-0.076981
23
1.934883
33
2.077984
0
3DFACE
8
coconut_palm7_trunk
10
-0.121964
20
1.616843
30
1.694441
11
-0.134593
21
1.654119
31
1.650374
12
-0.110651
22
1.999929
32
2.016146
13
-0.111725
23
1.962003
33
2.051905
0
3DFACE
8
coconut_palm7_trunk
10
-0.134593
20
1.654119
30
1.650374
11
-0.096873
21
1.685537
31
1.614505
12
-0.079633
22
2.029536
32
1.988659
13
-0.110651
23
1.999929
33
2.016146
0
3DFACE
8
coconut_palm7_trunk
10
-0.096873
20
1.685537
30
1.614505
11
-0.040167
21
1.689085
31
1.611877
12
-0.032246
22
2.052871
32
1.967322
13
-0.079633
23
2.029536
33
1.988659
0
3DFACE
8
coconut_palm7_trunk
10
-0.032246
20
2.052871
30
1.967322
11
0.020404
21
2.035759
31
1.984266
12
0.025878
22
2.329102
32
2.396648
13
-0.024446
23
2.334971
33
2.391876
0
3DFACE
8
coconut_palm7_trunk
10
0.020404
20
2.035759
30
1.984266
11
0.052229
21
2.003651
31
2.015049
12
0.050589
22
2.293498
32
2.423562
13
0.025878
23
2.329102
33
2.396648
0
3DFACE
8
coconut_palm7_trunk
10
0.052229
20
2.003651
30
2.015049
11
0.058252
21
1.962972
31
2.053511
12
0.065503
22
2.251415
32
2.455262
13
0.050589
23
2.293498
33
2.423562
0
3DFACE
8
coconut_palm7_trunk
10
0.058252
20
1.962972
30
2.053511
11
0.024128
21
1.929134
31
2.084901
12
0.024862
22
2.221710
32
2.477254
13
0.065503
23
2.251415
33
2.455262
0
3DFACE
8
coconut_palm7_trunk
10
0.024128
20
1.929134
30
2.084901
11
-0.029993
21
1.923789
31
2.089134
12
-0.022213
22
2.207044
32
2.487909
13
0.024862
23
2.221710
33
2.477254
0
3DFACE
8
coconut_palm7_trunk
10
-0.029993
20
1.923789
30
2.089134
11
-0.076981
21
1.934883
31
2.077984
12
-0.071776
22
2.218042
32
2.479291
13
-0.022213
23
2.207044
33
2.487909
0
3DFACE
8
coconut_palm7_trunk
10
-0.076981
20
1.934883
30
2.077984
11
-0.111725
21
1.962003
31
2.051905
12
-0.105118
22
2.250556
32
2.454651
13
-0.071776
23
2.218042
33
2.479291
0
3DFACE
8
coconut_palm7_trunk
10
-0.111725
20
1.962003
30
2.051905
11
-0.110651
21
1.999929
31
2.016146
12
-0.106443
22
2.293380
32
2.422503
13
-0.105118
23
2.250556
33
2.454651
0
3DFACE
8
coconut_palm7_trunk
10
-0.110651
20
1.999929
30
2.016146
11
-0.079633
21
2.029536
31
1.988659
12
-0.075351
22
2.328497
32
2.396368
13
-0.106443
23
2.293380
33
2.422503
0
3DFACE
8
coconut_palm7_trunk
10
-0.079633
20
2.029536
30
1.988659
11
-0.032246
21
2.052871
31
1.967322
12
-0.024446
22
2.334971
32
2.391876
13
-0.075351
23
2.328497
33
2.396368
0
3DFACE
8
coconut_palm7_trunk
10
-0.024446
20
2.334971
30
2.391876
11
0.025878
21
2.329102
31
2.396648
12
0.029082
22
2.617256
32
2.807813
13
-0.013362
23
2.633968
33
2.797550
0
3DFACE
8
coconut_palm7_trunk
10
0.025878
20
2.329102
30
2.396648
11
0.050589
21
2.293498
31
2.423562
12
0.056985
22
2.587403
32
2.826097
13
0.029082
23
2.617256
33
2.807813
0
3DFACE
8
coconut_palm7_trunk
10
0.050589
20
2.293498
30
2.423562
11
0.065503
21
2.251415
31
2.455262
12
0.059681
22
2.548325
32
2.849984
13
0.056985
23
2.587403
33
2.826097
0
3DFACE
8
coconut_palm7_trunk
10
0.065503
20
2.251415
30
2.455262
11
0.024862
21
2.221710
31
2.477254
12
0.040698
22
2.507018
32
2.875194
13
0.059681
23
2.548325
33
2.849984
0
3DFACE
8
coconut_palm7_trunk
10
0.024862
20
2.221710
30
2.477254
11
-0.022213
21
2.207044
31
2.487909
12
-0.010891
22
2.492439
32
2.884028
13
0.040698
23
2.507018
33
2.875194
0
3DFACE
8
coconut_palm7_trunk
10
-0.022213
20
2.207044
30
2.487909
11
-0.071776
21
2.218042
31
2.479291
12
-0.051842
22
2.519134
32
2.867678
13
-0.010891
23
2.492439
33
2.884028
0
3DFACE
8
coconut_palm7_trunk
10
-0.071776
20
2.218042
30
2.479291
11
-0.105118
21
2.250556
31
2.454651
12
-0.092367
22
2.543807
32
2.852561
13
-0.051842
23
2.519134
33
2.867678
0
3DFACE
8
coconut_palm7_trunk
10
-0.105118
20
2.250556
30
2.454651
11
-0.106443
21
2.293380
31
2.422503
12
-0.084580
22
2.586231
32
2.826655
13
-0.092367
23
2.543807
33
2.852561
0
3DFACE
8
coconut_palm7_trunk
10
-0.106443
20
2.293380
30
2.422503
11
-0.075351
21
2.328497
31
2.396368
12
-0.053490
22
2.614198
32
2.809597
13
-0.084580
23
2.586231
33
2.826655
0
3DFACE
8
coconut_palm7_trunk
10
-0.075351
20
2.328497
30
2.396368
11
-0.024446
21
2.334971
31
2.391876
12
-0.013362
22
2.633968
32
2.797550
13
-0.053490
23
2.614198
33
2.809597
0
3DFACE
8
coconut_palm7_trunk
10
-0.013362
20
2.633968
30
2.797550
11
0.029082
21
2.617256
31
2.807813
12
0.116931
22
2.940024
32
3.208149
13
0.029582
23
2.954928
33
3.201894
0
3DFACE
8
coconut_palm7_trunk
10
0.029082
20
2.617256
30
2.807813
11
0.056985
21
2.587403
31
2.826097
12
0.159938
22
2.870393
32
3.241786
13
0.116931
23
2.940024
33
3.208149
0
3DFACE
8
coconut_palm7_trunk
10
0.056985
20
2.587403
30
2.826097
11
0.059681
21
2.548325
31
2.849984
12
0.154041
22
2.797206
32
3.277699
13
0.159938
23
2.870393
33
3.241786
0
3DFACE
8
coconut_palm7_trunk
10
0.059681
20
2.548325
30
2.849984
11
0.040698
21
2.507018
31
2.875194
12
0.112481
22
2.734575
32
3.308792
13
0.154041
23
2.797206
33
3.277699
0
3DFACE
8
coconut_palm7_trunk
10
0.040698
20
2.507018
30
2.875194
11
-0.010891
21
2.492439
31
2.884028
12
0.034006
22
2.701469
32
3.325823
13
0.112481
23
2.734575
33
3.308792
0
3DFACE
8
coconut_palm7_trunk
10
-0.010891
20
2.492439
30
2.884028
11
-0.051842
21
2.519134
31
2.867678
12
-0.041441
22
2.738341
32
3.308671
13
0.034006
23
2.701469
33
3.325823
0
3DFACE
8
coconut_palm7_trunk
10
-0.051842
20
2.519134
30
2.867678
11
-0.092367
21
2.543807
31
2.852561
12
-0.091781
22
2.794131
32
3.282010
13
-0.041441
23
2.738341
33
3.308671
0
3DFACE
8
coconut_palm7_trunk
10
-0.092367
20
2.543807
30
2.852561
11
-0.084580
21
2.586231
31
2.826655
12
-0.099827
22
2.868533
32
3.245748
13
-0.091781
23
2.794131
33
3.282010
0
3DFACE
8
coconut_palm7_trunk
10
-0.084580
20
2.586231
30
2.826655
11
-0.053490
21
2.614198
31
2.809597
12
-0.043937
22
2.922450
32
3.218698
13
-0.099827
23
2.868533
33
3.245748
0
3DFACE
8
coconut_palm7_trunk
10
-0.053490
20
2.614198
30
2.809597
11
-0.013362
21
2.633968
31
2.797550
12
0.029582
22
2.954928
32
3.201894
13
-0.043937
23
2.922450
33
3.218698
0
3DFACE
8
coconut_palm7_trunk
10
0.029582
20
2.954928
30
3.201894
11
0.116931
21
2.940024
31
3.208149
12
-0.012631
22
2.996177
32
3.736345
13
-0.019305
23
2.997950
33
3.735611
0
3DFACE
8
coconut_palm7_trunk
10
0.116931
20
2.940024
30
3.208149
11
0.159938
21
2.870393
31
3.241786
12
-0.007807
22
2.991217
32
3.738399
13
-0.012631
23
2.996177
33
3.736345
0
3DFACE
8
coconut_palm7_trunk
10
0.159938
20
2.870393
30
3.241786
11
0.154041
21
2.797206
31
3.277699
12
-0.007941
22
2.984458
32
3.741197
13
-0.007807
23
2.991217
33
3.738399
0
3DFACE
8
coconut_palm7_trunk
10
0.154041
20
2.797206
30
3.277699
11
0.112481
21
2.734575
31
3.308792
12
-0.012095
22
2.978988
32
3.743461
13
-0.007941
23
2.984458
33
3.741197
0
3DFACE
8
coconut_palm7_trunk
10
0.112481
20
2.734575
30
3.308792
11
0.034006
21
2.701469
31
3.325823
12
-0.018929
22
2.976374
32
3.744543
13
-0.012095
23
2.978988
33
3.743461
0
3DFACE
8
coconut_palm7_trunk
10
0.034006
20
2.701469
30
3.325823
11
-0.041441
21
2.738341
31
3.308671
12
-0.026239
22
2.978271
32
3.743757
13
-0.018929
23
2.976374
33
3.744543
0
3DFACE
8
coconut_palm7_trunk
10
-0.041441
20
2.738341
30
3.308671
11
-0.091781
21
2.794131
31
3.282010
12
-0.029339
22
2.984396
32
3.741221
13
-0.026239
23
2.978271
33
3.743757
0
3DFACE
8
coconut_palm7_trunk
10
-0.091781
20
2.794131
30
3.282010
11
-0.099827
21
2.868533
31
3.245748
12
-0.028866
22
2.990396
32
3.738738
13
-0.029339
23
2.984396
33
3.741221
0
3DFACE
8
coconut_palm7_trunk
10
-0.099827
20
2.868533
30
3.245748
11
-0.043937
21
2.922450
31
3.218698
12
-0.026400
22
2.996576
32
3.736179
13
-0.028866
23
2.990396
33
3.738738
0
3DFACE
8
coconut_palm7_trunk
10
-0.043937
20
2.922450
30
3.218698
11
0.029582
21
2.954928
31
3.201894
12
-0.019305
22
2.997950
32
3.735611
13
-0.026400
23
2.996576
33
3.736179
0
3DFACE
8
coconut_palm7_trunk
10
-0.019305
20
2.997950
30
3.735611
11
-0.012631
21
2.996177
31
3.736345
12
-0.018955
22
2.987480
32
3.739945
13
-0.018955
23
2.987480
33
3.739945
0
3DFACE
8
coconut_palm7_trunk
10
-0.012631
20
2.996177
30
3.736345
11
-0.007807
21
2.991217
31
3.738399
12
-0.018955
22
2.987480
32
3.739945
13
-0.018955
23
2.987480
33
3.739945
0
3DFACE
8
coconut_palm7_trunk
10
-0.007807
20
2.991217
30
3.738399
11
-0.007941
21
2.984458
31
3.741197
12
-0.018955
22
2.987480
32
3.739945
13
-0.018955
23
2.987480
33
3.739945
0
3DFACE
8
coconut_palm7_trunk
10
-0.007941
20
2.984458
30
3.741197
11
-0.012095
21
2.978988
31
3.743461
12
-0.018955
22
2.987480
32
3.739945
13
-0.018955
23
2.987480
33
3.739945
0
3DFACE
8
coconut_palm7_trunk
10
-0.012095
20
2.978988
30
3.743461
11
-0.018929
21
2.976374
31
3.744543
12
-0.018955
22
2.987480
32
3.739945
13
-0.018955
23
2.987480
33
3.739945
0
3DFACE
8
coconut_palm7_trunk
10
-0.018929
20
2.976374
30
3.744543
11
-0.026239
21
2.978271
31
3.743757
12
-0.018955
22
2.987480
32
3.739945
13
-0.018955
23
2.987480
33
3.739945
0
3DFACE
8
coconut_palm7_trunk
10
-0.026239
20
2.978271
30
3.743757
11
-0.029339
21
2.984396
31
3.741221
12
-0.018955
22
2.987480
32
3.739945
13
-0.018955
23
2.987480
33
3.739945
0
3DFACE
8
coconut_palm7_trunk
10
-0.029339
20
2.984396
30
3.741221
11
-0.028866
21
2.990396
31
3.738738
12
-0.018955
22
2.987480
32
3.739945
13
-0.018955
23
2.987480
33
3.739945
0
3DFACE
8
coconut_palm7_trunk
10
-0.028866
20
2.990396
30
3.738738
11
-0.026400
21
2.996576
31
3.736179
12
-0.018955
22
2.987480
32
3.739945
13
-0.018955
23
2.987480
33
3.739945
0
3DFACE
8
coconut_palm7_trunk
10
-0.026400
20
2.996576
30
3.736179
11
-0.019305
21
2.997950
31
3.735611
12
-0.018955
22
2.987480
32
3.739945
13
-0.018955
23
2.987480
33
3.739945
0
3DFACE
8
coconut_palm7_leaves
10
-0.594539
20
3.764878
30
3.526743
11
-0.400187
21
3.696224
31
3.050153
12
-0.643455
22
4.122697
32
2.947485
13
-0.837748
23
4.187970
33
3.418721
0
3DFACE
8
coconut_palm7_leaves
10
-0.351990
20
3.374024
30
3.706745
11
-0.157722
21
3.310142
31
3.240549
12
-0.400187
22
3.696224
32
3.050153
13
-0.594539
23
3.764878
33
3.526743
0
3DFACE
8
coconut_palm7_leaves
10
-0.111443
20
3.004166
30
3.926571
11
0.082757
21
2.944193
31
3.467779
12
-0.157722
22
3.310142
32
3.240549
13
-0.351990
23
3.374024
33
3.706745
0
3DFACE
8
coconut_palm7_leaves
10
-0.497440
20
3.734962
30
3.297411
11
-0.689234
21
3.591341
31
3.251299
12
-0.936391
22
4.034317
32
3.171782
13
-0.740649
23
4.158053
33
3.189389
0
3DFACE
8
coconut_palm7_leaves
10
-0.306634
20
3.893655
30
3.374126
11
-0.497440
21
3.734962
31
3.297411
12
-0.740649
22
4.158053
32
3.189389
13
-0.543988
23
4.320718
33
3.301614
0
3DFACE
8
coconut_palm7_leaves
10
-0.254891
20
3.344108
30
3.477413
11
-0.443086
21
3.189216
31
3.421255
12
-0.689234
22
3.591341
32
3.251299
13
-0.497440
23
3.734962
33
3.297411
0
3DFACE
8
coconut_palm7_leaves
10
-0.067005
20
3.501736
30
3.538548
11
-0.254891
21
3.344108
31
3.477413
12
-0.497440
22
3.734962
32
3.297411
13
-0.306634
23
3.893655
33
3.374126
0
3DFACE
8
coconut_palm7_leaves
10
-0.014344
20
2.974250
30
3.697239
11
-0.200762
21
2.815506
31
3.640101
12
-0.443086
22
3.189216
32
3.421255
13
-0.254891
23
3.344108
33
3.477413
0
3DFACE
8
coconut_palm7_leaves
10
0.172073
20
3.132994
30
3.754376
11
-0.014344
21
2.974250
31
3.697239
12
-0.254891
22
3.344108
32
3.477413
13
-0.067005
23
3.501736
33
3.538548
0
3DFACE
8
coconut_palm7_leaves
10
-0.728492
20
2.635492
30
4.212766
11
-0.926455
21
2.551830
31
3.727776
12
-1.392839
22
2.320129
32
3.880430
13
-1.194876
23
2.403791
33
4.365420
0
3DFACE
8
coconut_palm7_leaves
10
-0.294148
20
2.801401
30
3.959808
11
-0.492118
21
2.718132
31
3.478550
12
-0.926455
22
2.551830
32
3.727776
13
-0.728492
23
2.635492
33
4.212766
0
3DFACE
8
coconut_palm7_leaves
10
0.115558
20
2.927355
30
3.653349
11
-0.082191
21
2.831414
31
3.169803
12
-0.492118
22
2.718132
32
3.478550
13
-0.294148
23
2.801401
33
3.959808
0
3DFACE
8
coconut_palm7_leaves
10
-0.827474
20
2.593661
30
3.970271
11
-0.742579
21
2.326382
31
3.952752
12
-1.207183
22
2.071027
32
4.050313
13
-1.293858
23
2.361960
33
4.122925
0
3DFACE
8
coconut_palm7_leaves
10
-0.930081
20
2.829418
30
3.943114
11
-0.827474
21
2.593661
31
3.970271
12
-1.293858
22
2.361960
32
4.122925
13
-1.416950
23
2.565265
33
4.052989
0
3DFACE
8
coconut_palm7_leaves
10
-0.393129
20
2.759570
30
3.717312
11
-0.308332
21
2.502901
31
3.723501
12
-0.742579
22
2.326382
32
3.952752
13
-0.827474
23
2.593661
33
3.970271
0
3DFACE
8
coconut_palm7_leaves
10
-0.481470
20
3.010781
30
3.704069
11
-0.393129
21
2.759570
31
3.717312
12
-0.827474
22
2.593661
32
3.970271
13
-0.930081
23
2.829418
33
3.943114
0
3DFACE
8
coconut_palm7_leaves
10
0.016593
20
2.884557
30
3.411305
11
0.099646
21
2.630890
31
3.433088
12
-0.308332
22
2.502901
32
3.723501
13
-0.393129
23
2.759570
33
3.717312
0
3DFACE
8
coconut_palm7_leaves
10
-0.066494
20
3.140145
30
3.397655
11
0.016593
21
2.884557
31
3.411305
12
-0.393129
22
2.759570
32
3.717312
13
-0.481470
23
3.010781
33
3.704069
0
3DFACE
8
coconut_palm7_leaves
10
-0.690989
20
3.250403
30
4.529175
11
-1.038648
21
3.388189
31
4.087631
12
-1.392484
22
3.595449
32
4.491425
13
-1.044826
23
3.457665
33
4.932968
0
3DFACE
8
coconut_palm7_leaves
10
-0.278744
20
3.064144
30
4.182930
11
-0.626402
21
3.201929
31
3.741387
12
-1.038648
22
3.388189
32
4.087631
13
-0.690989
23
3.250403
33
4.529175
0
3DFACE
8
coconut_palm7_leaves
10
0.164492
20
2.890987
30
3.871629
11
-0.183159
21
3.028398
31
3.429408
12
-0.626402
22
3.201929
32
3.741387
13
-0.278744
23
3.064144
33
4.182930
0
3DFACE
8
coconut_palm7_leaves
10
-0.864819
20
3.319295
30
4.308403
11
-0.962937
21
3.057579
31
4.327978
12
-1.293852
22
3.278064
32
4.765561
13
-1.218655
23
3.526557
33
4.712196
0
3DFACE
8
coconut_palm7_leaves
10
-0.738694
20
3.592029
30
4.318551
11
-0.864819
21
3.319295
31
4.308403
12
-1.218655
22
3.526557
32
4.712196
13
-1.053178
23
3.804859
33
4.741815
0
3DFACE
8
coconut_palm7_leaves
10
-0.452573
20
3.133036
30
3.962159
11
-0.556626
21
2.864358
31
3.965028
12
-0.962937
22
3.057579
32
4.327978
13
-0.864819
23
3.319295
33
4.308403
0
3DFACE
8
coconut_palm7_leaves
10
-0.344108
20
3.403661
30
3.964447
11
-0.452573
21
3.133036
31
3.962159
12
-0.864819
22
3.319295
32
4.308403
13
-0.738694
23
3.592029
33
4.318551
0
3DFACE
8
coconut_palm7_leaves
10
-0.009337
20
2.959880
30
3.650857
11
-0.112560
21
2.689058
31
3.649048
12
-0.556626
22
2.864358
32
3.965028
13
-0.452573
23
3.133036
33
3.962159
0
3DFACE
8
coconut_palm7_leaves
10
0.093886
20
3.230702
30
3.652665
11
-0.009337
21
2.959880
31
3.650857
12
-0.452573
22
3.133036
32
3.962159
13
-0.344108
23
3.403661
33
3.964447
0
3DFACE
8
coconut_palm7_leaves
10
0.629232
20
2.511730
30
4.250112
11
0.609731
21
2.219451
31
3.848135
12
0.942454
22
1.853108
32
3.994124
13
0.961956
23
2.145387
33
4.396100
0
3DFACE
8
coconut_palm7_leaves
10
0.315609
20
2.805923
30
3.995022
11
0.296074
21
2.515540
31
3.599128
12
0.609731
22
2.219451
32
3.848135
13
0.629232
23
2.511730
33
4.250112
0
3DFACE
8
coconut_palm7_leaves
10
0.018690
20
3.053577
30
3.682573
11
-0.000719
21
2.756034
31
3.286873
12
0.296074
22
2.515540
32
3.599128
13
0.315609
23
2.805923
33
3.995022
0
3DFACE
8
coconut_palm7_leaves
10
0.619481
20
2.365590
30
4.049123
11
0.823358
21
2.471096
31
3.927571
12
1.155910
22
2.081592
32
4.019820
13
0.952205
23
1.999247
33
4.195112
0
3DFACE
8
coconut_palm7_leaves
10
0.426467
20
2.226268
30
4.125212
11
0.619481
21
2.365590
31
4.049123
12
0.952205
22
1.999247
32
4.195112
13
0.766838
23
1.829297
33
4.223517
0
3DFACE
8
coconut_palm7_leaves
10
0.305858
20
2.659784
30
3.794034
11
0.507997
21
2.776938
31
3.694094
12
0.823358
22
2.471096
32
3.927571
13
0.619481
23
2.365590
33
4.049123
0
3DFACE
8
coconut_palm7_leaves
10
0.106038
20
2.536544
30
3.886874
11
0.305858
21
2.659784
31
3.794034
12
0.619481
22
2.365590
32
4.049123
13
0.426467
23
2.226268
33
4.125212
0
3DFACE
8
coconut_palm7_leaves
10
0.008940
20
2.907377
30
3.481663
11
0.211176
21
3.025346
31
3.384885
12
0.507997
22
2.776938
32
3.694094
13
0.305858
23
2.659784
33
3.794034
0
3DFACE
8
coconut_palm7_leaves
10
-0.193275
20
2.788258
30
3.576647
11
0.008940
21
2.907377
31
3.481663
12
0.305858
22
2.659784
32
3.794034
13
0.106038
23
2.536544
33
3.886874
0
3DFACE
8
coconut_palm7_leaves
10
0.762395
20
3.786582
30
4.101699
11
0.980226
21
3.520662
31
3.642275
12
1.463982
22
3.835098
32
3.613369
13
1.246151
23
4.101017
33
4.072793
0
3DFACE
8
coconut_palm7_leaves
10
0.309621
20
3.449251
30
4.033212
11
0.527453
21
3.183331
31
3.573788
12
0.980226
22
3.520662
32
3.642275
13
0.762395
23
3.786582
33
4.101699
0
3DFACE
8
coconut_palm7_leaves
10
-0.121404
20
3.101881
30
3.909754
11
0.096433
21
2.835705
31
3.451630
12
0.527453
22
3.183331
32
3.573788
13
0.309621
23
3.449251
33
4.033212
0
3DFACE
8
coconut_palm7_leaves
10
0.871310
20
3.653622
30
3.871987
11
0.760678
21
3.847802
31
3.675902
12
1.249380
22
4.143292
32
3.597501
13
1.355066
23
3.968058
33
3.843081
0
3DFACE
8
coconut_palm7_leaves
10
0.999314
20
3.449514
30
4.019928
11
0.871310
21
3.653622
31
3.871987
12
1.355066
22
3.968058
32
3.843081
13
1.501290
23
3.754736
33
3.943183
0
3DFACE
8
coconut_palm7_leaves
10
0.418537
20
3.316291
30
3.803500
11
0.305163
21
3.518119
31
3.628511
12
0.760678
22
3.847802
32
3.675902
13
0.871310
23
3.653622
33
3.871987
0
3DFACE
8
coconut_palm7_leaves
10
0.535218
20
3.113128
30
3.970553
11
0.418537
21
3.316291
31
3.803500
12
0.871310
22
3.653622
32
3.871987
13
0.999314
23
3.449514
33
4.019928
0
3DFACE
8
coconut_palm7_leaves
10
-0.012488
20
2.968922
30
3.680041
11
-0.125421
21
3.173117
31
3.509647
12
0.305163
22
3.518119
32
3.628511
13
0.418537
23
3.316291
33
3.803500
0
3DFACE
8
coconut_palm7_leaves
10
0.100446
20
2.764726
30
3.850436
11
-0.012488
21
2.968922
31
3.680041
12
0.418537
22
3.316291
32
3.803500
13
0.535218
23
3.113128
33
3.970553
0
3DFACE
8
coconut_palm7_leaves
10
0.550522
20
1.996080
30
3.539266
11
0.319244
21
2.115535
31
3.239188
12
0.370929
22
1.741531
32
2.845665
13
0.601592
23
1.657295
33
3.154631
0
3DFACE
8
coconut_palm7_leaves
10
0.360870
20
2.415644
30
3.658335
11
0.129365
21
2.548054
31
3.352117
12
0.319244
22
2.115535
32
3.239188
13
0.550522
23
1.996080
33
3.539266
0
3DFACE
8
coconut_palm7_leaves
10
0.127758
20
2.830772
30
3.613377
11
-0.103725
21
2.961970
31
3.290851
12
0.129365
22
2.548054
32
3.352117
13
0.360870
23
2.415644
33
3.658335
0
3DFACE
8
coconut_palm7_leaves
10
0.434839
20
2.058362
30
3.391336
11
0.606849
21
2.168522
31
3.219833
12
0.572961
22
1.878181
32
2.691917
13
0.486212
23
1.702184
33
3.001942
0
3DFACE
8
coconut_palm7_leaves
10
0.219097
20
1.952361
30
3.419674
11
0.434839
21
2.058362
31
3.391336
12
0.486212
22
1.702184
32
3.001942
13
0.198633
23
1.657296
33
2.913686
0
3DFACE
8
coconut_palm7_leaves
10
0.245074
20
2.484350
30
3.507459
11
0.443118
21
2.583865
31
3.399720
12
0.606849
22
2.168522
32
3.219833
13
0.434839
23
2.058362
33
3.391336
0
3DFACE
8
coconut_palm7_leaves
10
0.043092
20
2.378973
30
3.588137
11
0.245074
21
2.484350
31
3.507459
12
0.434839
22
2.058362
32
3.391336
13
0.219097
23
1.952361
33
3.419674
0
3DFACE
8
coconut_palm7_leaves
10
0.011981
20
2.898433
30
3.453660
11
0.215389
21
2.995190
31
3.358366
12
0.443118
22
2.583865
32
3.399720
13
0.245074
23
2.484350
33
3.507459
0
3DFACE
8
coconut_palm7_leaves
10
-0.191402
20
2.800231
30
3.546838
11
0.011981
21
2.898433
31
3.453660
12
0.245074
22
2.484350
32
3.507459
13
0.043092
23
2.378973
33
3.588137
0
3DFACE
8
coconut_palm7_leaves
10
0.775171
20
3.268480
30
3.870917
11
0.682702
21
3.078113
31
3.644719
12
0.974943
22
2.956508
32
3.233768
13
1.067277
23
3.154567
33
3.463037
0
3DFACE
8
coconut_palm7_leaves
10
0.368181
20
3.211964
30
3.957693
11
0.275712
21
3.021597
31
3.731495
12
0.682702
22
3.078113
32
3.644719
13
0.775171
23
3.268480
33
3.870917
0
3DFACE
8
coconut_palm7_leaves
10
0.029881
20
3.075197
30
3.828943
11
-0.062588
21
2.884830
31
3.602745
12
0.275712
22
3.021597
32
3.731495
13
0.368181
23
3.211964
33
3.957693
0
3DFACE
8
coconut_palm7_leaves
10
0.728937
20
3.173296
30
3.757818
11
0.696007
21
3.300081
31
3.577662
12
0.858836
22
3.118761
32
3.106483
13
1.021082
23
3.057149
33
3.347231
0
3DFACE
8
coconut_palm7_leaves
10
0.770733
20
2.992487
30
3.812462
11
0.728937
21
3.173296
31
3.757818
12
1.021082
22
3.057149
32
3.347231
13
0.972454
23
2.824538
33
3.340870
0
3DFACE
8
coconut_palm7_leaves
10
0.321947
20
3.116781
30
3.844594
11
0.305371
21
3.271664
31
3.718736
12
0.696007
22
3.300081
32
3.577662
13
0.728937
23
3.173296
33
3.757818
0
3DFACE
8
coconut_palm7_leaves
10
0.348839
20
2.954933
30
3.949469
11
0.321947
21
3.116781
31
3.844594
12
0.728937
22
3.173296
32
3.757818
13
0.770733
23
2.992487
33
3.812462
0
3DFACE
8
coconut_palm7_leaves
10
-0.016353
20
2.980014
30
3.715844
11
-0.030833
21
3.141562
31
3.603799
12
0.305371
22
3.271664
32
3.718736
13
0.321947
23
3.116781
33
3.844594
0
3DFACE
8
coconut_palm7_leaves
10
-0.001873
20
2.818465
30
3.827890
11
-0.016353
21
2.980014
31
3.715844
12
0.321947
22
3.116781
32
3.844594
13
0.348839
23
2.954933
33
3.949469
0
3DFACE
8
coconut_palm7_leaves
10
0.196462
20
3.320404
30
3.973783
11
0.511055
21
3.322502
31
3.786186
12
0.633428
22
3.527535
32
4.060105
13
0.318835
23
3.525437
33
4.247703
0
3DFACE
8
coconut_palm7_leaves
10
0.037635
20
3.105579
30
3.732150
11
0.352228
21
3.107677
31
3.544553
12
0.511055
22
3.322502
32
3.786186
13
0.196462
23
3.320404
33
3.973783
0
3DFACE
8
coconut_palm7_leaves
10
-0.141332
20
2.886247
30
3.510383
11
0.173324
21
2.884719
31
3.322992
12
0.352228
22
3.107677
32
3.544553
13
0.037635
23
3.105579
33
3.732150
0
3DFACE
8
coconut_palm7_leaves
10
0.353759
20
3.321453
30
3.879984
11
0.290834
21
3.466399
31
3.790812
12
0.402905
22
3.669827
32
4.076432
13
0.476131
23
3.526486
33
4.153904
0
3DFACE
8
coconut_palm7_leaves
10
0.405397
20
3.173769
30
3.979807
11
0.353759
21
3.321453
31
3.879984
12
0.476131
22
3.526486
32
4.153904
13
0.514529
23
3.373180
33
4.260865
0
3DFACE
8
coconut_palm7_leaves
10
0.194931
20
3.106628
30
3.638352
11
0.135647
21
3.251374
31
3.543338
12
0.290834
22
3.466399
32
3.790812
13
0.353759
23
3.321453
33
3.879984
0
3DFACE
8
coconut_palm7_leaves
10
0.252383
20
2.961494
30
3.735220
11
0.194931
21
3.106628
31
3.638352
12
0.353759
22
3.321453
32
3.879984
13
0.405397
23
3.173769
33
3.979807
0
3DFACE
8
coconut_palm7_leaves
10
0.015980
20
2.886423
30
3.416928
11
-0.042917
21
3.028171
31
3.316435
12
0.135647
22
3.251374
32
3.543338
13
0.194931
23
3.106628
33
3.638352
0
3DFACE
8
coconut_palm7_leaves
10
0.074897
20
2.743499
30
3.515296
11
0.015980
21
2.886423
31
3.416928
12
0.194931
22
3.106628
32
3.638352
13
0.252383
23
2.961494
33
3.735220
0
3DFACE
8
coconut_palm7_leaves
10
1.022837
20
1.988006
30
3.446134
11
0.689852
21
2.071039
31
3.196857
12
0.610025
22
1.594410
32
2.466775
13
0.942094
23
1.563836
33
2.730075
0
3DFACE
8
coconut_palm7_leaves
10
0.646333
20
2.460195
30
3.670485
11
0.313043
21
2.560703
31
3.417810
12
0.689852
22
2.071039
32
3.196857
13
1.022837
23
1.988006
33
3.446134
0
3DFACE
8
coconut_palm7_leaves
10
0.182549
20
2.837006
30
3.549778
11
-0.150657
21
2.932714
31
3.282438
12
0.313043
22
2.560703
32
3.417810
13
0.646333
23
2.460195
33
3.670485
0
3DFACE
8
coconut_palm7_leaves
10
0.856313
20
2.031308
30
3.322854
11
0.948376
21
2.199520
31
2.984206
12
0.498158
22
1.896143
32
2.003041
13
0.776024
23
1.581150
33
2.599394
0
3DFACE
8
coconut_palm7_leaves
10
0.602520
20
1.814247
30
3.322986
11
0.856313
21
2.031308
31
3.322854
12
0.776024
22
1.581150
32
2.599394
13
0.183682
23
1.531201
33
2.394260
0
3DFACE
8
coconut_palm7_leaves
10
0.479658
20
2.512166
30
3.545638
11
0.668961
21
2.690818
31
3.364319
12
0.948376
22
2.199520
32
2.984206
13
0.856313
23
2.031308
33
3.322854
0
3DFACE
8
coconut_palm7_leaves
10
0.285012
20
2.306761
30
3.661689
11
0.479658
21
2.512166
31
3.545638
12
0.856313
22
2.031308
32
3.322854
13
0.602520
23
1.814247
33
3.322986
0
3DFACE
8
coconut_palm7_leaves
10
0.015916
20
2.886618
30
3.417516
11
0.218467
21
3.068985
31
3.267872
12
0.668961
22
2.690818
32
3.364319
13
0.479658
23
2.512166
33
3.545638
0
3DFACE
8
coconut_palm7_leaves
10
-0.186583
20
2.701203
30
3.562153
11
0.015916
21
2.886618
31
3.417516
12
0.479658
22
2.512166
32
3.545638
13
0.285012
23
2.306761
33
3.661689
0
3DFACE
8
coconut_palm7_leaves
10
-0.044364
20
3.844884
30
3.238654
11
0.079470
21
3.575281
31
3.026171
12
0.086329
22
3.528368
32
2.334426
13
-0.038138
23
3.834222
33
2.546338
0
3DFACE
8
coconut_palm7_leaves
10
-0.047310
20
3.459825
30
3.524180
11
0.076314
21
3.202182
31
3.332697
12
0.079470
22
3.575281
32
3.026171
13
-0.044364
23
3.844884
33
3.238654
0
3DFACE
8
coconut_palm7_leaves
10
-0.047988
20
3.021490
30
3.530663
11
0.075656
21
2.762762
31
3.347502
12
0.076314
22
3.202182
32
3.332697
13
-0.047310
23
3.459825
33
3.524180
0
3DFACE
8
coconut_palm7_leaves
10
0.017481
20
3.714164
30
3.138269
11
-0.182640
21
3.617185
31
2.939558
12
-0.176113
22
3.342115
32
2.289493
13
0.024080
23
3.682188
33
2.437274
0
3DFACE
8
coconut_palm7_leaves
10
0.219199
20
3.716396
30
3.142610
11
0.017481
21
3.714164
31
3.138269
12
0.024080
22
3.682188
32
2.437274
13
0.226291
23
3.513157
33
2.389820
0
3DFACE
8
coconut_palm7_leaves
10
0.014488
20
3.331795
30
3.429983
11
-0.186300
21
3.325657
31
3.314331
12
-0.182640
22
3.617185
32
2.939558
13
0.017481
23
3.714164
33
3.138269
0
3DFACE
8
coconut_palm7_leaves
10
0.215564
20
3.335920
30
3.511028
11
0.014488
21
3.331795
31
3.429983
12
0.017481
22
3.714164
32
3.138269
13
0.219199
23
3.716396
33
3.142610
0
3DFACE
8
coconut_palm7_leaves
10
0.013820
20
2.892945
30
3.436753
11
-0.187057
21
2.905338
31
3.339627
12
-0.186300
22
3.325657
32
3.314331
13
0.014488
23
3.331795
33
3.429983
0
3DFACE
8
coconut_palm7_leaves
10
0.214730
20
2.878640
30
3.532855
11
0.013820
21
2.892945
31
3.436753
12
0.014488
22
3.331795
32
3.429983
13
0.215564
23
3.335920
33
3.511028
0
3DFACE
8
coconut_palm7_leaves
10
0.535083
20
3.304561
30
4.383070
11
0.942973
21
3.054860
31
4.143764
12
1.217376
22
3.222328
32
4.575967
13
0.809485
23
3.472029
33
4.815273
0
3DFACE
8
coconut_palm7_leaves
10
0.186134
20
3.169038
30
4.007683
11
0.594024
21
2.919337
31
3.768377
12
0.942973
22
3.054860
32
4.143764
13
0.535083
23
3.304561
33
4.383070
0
3DFACE
8
coconut_palm7_leaves
10
-0.202252
20
3.053082
30
3.668354
11
0.205647
21
2.802893
31
3.431520
12
0.594024
22
2.919337
32
3.768377
13
0.186134
23
3.169038
33
4.007683
0
3DFACE
8
coconut_palm7_leaves
10
0.739028
20
3.179711
30
4.263417
11
0.779913
21
3.412199
31
4.140640
12
1.020715
22
3.594530
32
4.599498
13
1.013430
23
3.347178
33
4.695621
0
3DFACE
8
coconut_palm7_leaves
10
0.664988
20
2.962649
30
4.414206
11
0.739028
21
3.179711
31
4.263417
12
1.013430
22
3.347178
32
4.695621
13
0.899352
23
3.142352
33
4.865854
0
3DFACE
8
coconut_palm7_leaves
10
0.390079
20
3.044188
30
3.888030
11
0.442562
21
3.269520
31
3.751495
12
0.779913
22
3.412199
32
4.140640
13
0.739028
23
3.179711
33
4.263417
0
3DFACE
8
coconut_palm7_leaves
10
0.332390
20
2.821543
30
4.029561
11
0.390079
21
3.044188
31
3.888030
12
0.739028
22
3.179711
32
4.263417
13
0.664988
23
2.962649
33
4.414206
0
3DFACE
8
coconut_palm7_leaves
10
0.001693
20
2.928231
30
3.548702
11
0.055531
21
3.151748
31
3.408340
12
0.442562
22
3.269520
32
3.751495
13
0.390079
23
3.044188
33
3.888030
0
3DFACE
8
coconut_palm7_leaves
10
-0.052143
20
2.704607
30
3.688807
11
0.001693
21
2.928231
31
3.548702
12
0.390079
22
3.044188
32
3.888030
13
0.332390
23
2.821543
33
4.029561
0
3DFACE
8
coconut_palm7_leaves
10
0.672830
20
3.000941
30
2.932417
11
0.445593
21
2.793531
31
2.925175
12
0.315317
22
2.421471
32
2.478996
13
0.542578
23
2.627519
33
2.461883
0
3DFACE
8
coconut_palm7_leaves
10
0.454176
20
3.085324
30
3.304410
11
0.226910
21
2.879591
31
3.284123
12
0.445593
22
2.793531
32
2.925175
13
0.672830
23
3.000941
33
2.932417
0
3DFACE
8
coconut_palm7_leaves
10
0.123072
20
3.008028
30
3.489569
11
-0.104224
21
2.804041
31
3.466371
12
0.226910
22
2.879591
32
3.284123
13
0.454176
23
3.085324
33
3.304410
0
3DFACE
8
coconut_palm7_leaves
10
0.559215
20
2.897050
30
2.927913
11
0.403806
21
2.966523
31
2.772516
12
0.115215
22
2.535604
32
2.370480
13
0.428952
23
2.524207
33
2.469585
0
3DFACE
8
coconut_palm7_leaves
10
0.624068
20
2.732668
30
3.002398
11
0.559215
21
2.897050
31
2.927913
12
0.428952
22
2.524207
32
2.469585
13
0.359775
23
2.304965
33
2.575827
0
3DFACE
8
coconut_palm7_leaves
10
0.340546
20
2.982332
30
3.293374
11
0.241483
21
3.101465
31
3.164172
12
0.403806
22
2.966523
32
2.772516
13
0.559215
23
2.897050
33
2.927913
0
3DFACE
8
coconut_palm7_leaves
10
0.431475
20
2.847325
30
3.399612
11
0.340546
21
2.982332
31
3.293374
12
0.559215
22
2.897050
32
2.927913
13
0.624068
23
2.732668
33
3.002398
0
3DFACE
8
coconut_palm7_leaves
10
0.009425
20
2.905962
30
3.477194
11
-0.076744
21
3.038499
31
3.358908
12
0.241483
22
3.101465
32
3.164172
13
0.340546
23
2.982332
33
3.293374
0
3DFACE
8
coconut_palm7_leaves
10
0.095625
20
2.771716
30
3.592898
11
0.009425
21
2.905962
31
3.477194
12
0.340546
22
2.982332
32
3.293374
13
0.431475
23
2.847325
33
3.399612
0
3DFACE
8
coconut_palm7_leaves
10
-1.255476
20
3.388063
30
3.225430
11
-0.893390
21
3.249780
31
2.744659
12
-1.315853
22
3.086601
32
2.071694
13
-1.679062
23
3.289211
33
2.549043
0
3DFACE
8
coconut_palm7_leaves
10
-0.715077
20
3.208392
30
3.532007
11
-0.353532
21
3.101079
31
3.076851
12
-0.893390
22
3.249780
32
2.744659
13
-1.255476
23
3.388063
33
3.225430
0
3DFACE
8
coconut_palm7_leaves
10
-0.185104
20
3.215856
30
3.736664
11
-0.017603
21
2.983600
31
3.727422
12
-0.452989
22
2.637385
32
3.647174
13
-0.627953
23
2.854295
33
3.634159
0
3DFACE
8
coconut_palm7_leaves
10
-0.017603
20
2.983600
30
3.727422
11
0.149897
21
2.751345
31
3.718181
12
-0.263201
22
2.415350
32
3.627747
13
-0.452989
23
2.637385
33
3.647174
0
3DFACE
8
coconut_palm7_leaves
10
-0.627953
20
2.854295
30
3.634159
11
-0.452989
21
2.637385
31
3.647174
12
-0.758830
22
2.261176
32
3.342846
13
-0.893459
23
2.451095
33
3.213143
0
3DFACE
8
coconut_palm7_leaves
10
-0.452989
20
2.637385
30
3.647174
11
-0.263201
21
2.415350
31
3.627747
12
-0.477517
22
2.067425
32
3.279163
13
-0.758830
23
2.261176
33
3.342846
0
3DFACE
8
coconut_palm7_leaves
10
-0.893459
20
2.451095
30
3.213143
11
-0.758830
21
2.261176
31
3.342846
12
-0.692828
22
1.907364
32
2.745226
13
-0.620478
23
2.130356
33
2.444609
0
3DFACE
8
coconut_palm7_leaves
10
-0.758830
20
2.261176
30
3.342846
11
-0.477517
21
2.067425
31
3.279163
12
-0.160976
22
1.839263
32
2.620146
13
-0.692828
23
1.907364
33
2.745226
0
3DFACE
8
coconut_palm7_leaves
10
-0.148475
20
2.855485
30
3.870908
11
0.113268
21
3.111716
31
3.583937
12
-0.322123
22
2.765821
32
3.505410
13
-0.583861
23
2.509270
33
3.790659
0
3DFACE
8
coconut_palm7_leaves
10
-0.583861
20
2.509270
30
3.790659
11
-0.322123
21
2.765821
31
3.505410
12
-0.627766
22
2.378253
32
3.194543
13
-0.889827
23
2.140242
33
3.486518
0
3DFACE
8
coconut_palm7_leaves
10
-0.889827
20
2.140242
30
3.486518
11
-0.627766
21
2.378253
31
3.194543
12
-0.561335
22
1.999893
32
2.580743
13
-0.824242
23
1.810302
33
2.905736
0
3DFACE
8
coconut_palm7_leaves
10
0.268627
20
2.968073
30
3.531293
11
0.014092
21
2.892129
31
3.434257
12
0.006600
22
3.258820
32
3.014267
13
0.260997
23
3.340926
33
3.079805
0
3DFACE
8
coconut_palm7_leaves
10
0.014092
20
2.892129
30
3.434257
11
-0.240411
21
2.814260
31
3.339325
12
-0.246970
22
3.131819
32
2.913535
13
0.006600
23
3.258820
33
3.014267
0
3DFACE
8
coconut_palm7_leaves
10
0.260997
20
3.340926
30
3.079805
11
0.006600
21
3.258820
31
3.014267
12
0.006368
22
3.233389
32
2.340795
13
0.262934
23
3.198771
33
2.321862
0
3DFACE
8
coconut_palm7_leaves
10
0.006600
20
3.258820
30
3.014267
11
-0.246970
21
3.131819
31
2.913535
12
-0.243972
22
2.938942
32
2.280963
13
0.006368
23
3.233389
33
2.340795
0
3DFACE
8
coconut_palm7_leaves
10
0.262934
20
3.198771
30
2.321862
11
0.006368
21
3.233389
31
2.340795
12
0.020507
22
2.456273
32
1.784722
13
0.282149
23
2.169453
33
1.970347
0
3DFACE
8
coconut_palm7_leaves
10
0.006368
20
3.233389
30
2.340795
11
-0.243972
21
2.938942
31
2.280963
12
-0.225875
22
1.979927
32
2.120515
13
0.020507
23
2.456273
33
1.784722
0
3DFACE
8
coconut_palm7_leaves
10
-0.062463
20
3.082604
30
3.391201
11
0.090632
21
2.702463
31
3.479816
12
0.083127
22
3.069887
32
3.065193
13
-0.069944
23
3.448652
33
2.965817
0
3DFACE
8
coconut_palm7_leaves
10
-0.069944
20
3.448652
30
2.965817
11
0.083127
21
3.069887
31
3.065193
12
0.082800
22
3.049933
32
2.410073
13
-0.070084
23
3.417993
33
2.273888
0
3DFACE
8
coconut_palm7_leaves
10
-0.070084
20
3.417993
30
2.273888
11
0.082800
21
3.049933
31
2.410073
12
0.096680
22
2.287681
32
1.884322
13
-0.055692
23
2.626390
33
1.687270
0
3DFACE
8
coconut_palm7_leaves
10
0.074277
20
3.138716
30
3.519546
11
0.006923
21
2.913224
31
3.500287
12
-0.395072
22
3.004829
32
3.287431
13
-0.343561
23
3.227529
33
3.278632
0
3DFACE
8
coconut_palm7_leaves
10
0.006923
20
2.913224
30
3.500287
11
-0.060443
21
2.688395
31
3.485822
12
-0.433482
22
2.761503
32
3.271285
13
-0.395072
23
3.004829
33
3.287431
0
3DFACE
8
coconut_palm7_leaves
10
-0.343561
20
3.227529
30
3.278632
11
-0.395072
21
3.004829
31
3.287431
12
-0.640224
22
2.876924
32
2.826124
13
-0.554432
23
3.033280
33
2.716191
0
3DFACE
8
coconut_palm7_leaves
10
-0.395072
20
3.004829
30
3.287431
11
-0.433482
21
2.761503
31
3.271285
12
-0.569668
22
2.571946
32
2.822714
13
-0.640224
23
2.876924
33
2.826124
0
3DFACE
8
coconut_palm7_leaves
10
-0.554432
20
3.033280
30
2.716191
11
-0.640224
21
2.876924
31
2.826124
12
-0.383221
22
2.368837
32
2.288292
13
-0.075966
23
2.414738
33
2.194175
0
3DFACE
8
coconut_palm7_leaves
10
-0.640224
20
2.876924
30
2.826124
11
-0.569668
21
2.571946
31
2.822714
12
-0.044693
22
2.045610
32
2.483285
13
-0.383221
23
2.368837
33
2.288292
0
3DFACE
8
coconut_palm7_leaves
10
-0.161233
20
2.928859
30
3.529356
11
0.175080
21
2.897467
31
3.471379
12
-0.226890
22
2.987698
32
3.258036
13
-0.563250
23
3.021776
33
3.317001
0
3DFACE
8
coconut_palm7_leaves
10
-0.563250
20
3.021776
30
3.317001
11
-0.226890
21
2.987698
31
3.258036
12
-0.471992
22
2.856910
32
2.798090
13
-0.808453
23
2.896767
33
2.854351
0
3DFACE
8
coconut_palm7_leaves
10
-0.808453
20
2.896767
30
2.854351
11
-0.471992
21
2.856910
31
2.798090
12
-0.214934
22
2.345663
32
2.264508
13
-0.551506
23
2.391875
33
2.312287
0
3DFACE
8
coconut_palm7_leaves
10
-0.200882
20
3.033122
30
3.747719
11
-0.016690
21
2.980981
31
3.718966
12
-0.120959
22
2.616615
32
3.713251
13
-0.305134
23
2.668888
33
3.742160
0
3DFACE
8
coconut_palm7_leaves
10
-0.016690
20
2.980981
30
3.718966
11
0.167502
21
2.928839
31
3.690212
12
0.063177
22
2.564348
32
3.684649
13
-0.120959
23
2.616615
33
3.713251
0
3DFACE
8
coconut_palm7_leaves
10
-0.305134
20
2.668888
30
3.742160
11
-0.120959
21
2.616615
31
3.713251
12
-0.225687
22
2.255212
32
3.718704
13
-0.409847
23
2.305468
33
3.741889
0
3DFACE
8
coconut_palm7_leaves
10
-0.120959
20
2.616615
30
3.713251
11
0.063177
21
2.564348
31
3.684649
12
-0.041763
22
2.204874
32
3.698015
13
-0.225687
23
2.255212
33
3.718704
0
3DFACE
8
coconut_palm7_leaves
10
-0.409847
20
2.305468
30
3.741889
11
-0.225687
21
2.255212
31
3.718704
12
-0.331237
22
1.900518
32
3.752158
13
-0.515504
23
1.950400
33
3.772405
0
3DFACE
8
coconut_palm7_leaves
10
-0.225687
20
2.255212
30
3.718704
11
-0.041763
21
2.204874
31
3.698015
12
-0.147669
22
1.850581
32
3.737326
13
-0.331237
23
1.900518
33
3.752158
0
3DFACE
8
coconut_palm7_leaves
10
0.010944
20
2.972584
30
3.911186
11
-0.044324
21
2.989377
31
3.526745
12
-0.148614
22
2.626250
32
3.526495
13
-0.093325
23
2.608218
33
3.905471
0
3DFACE
8
coconut_palm7_leaves
10
-0.093325
20
2.608218
30
3.905471
11
-0.148614
21
2.626250
31
3.526495
12
-0.253383
22
2.267168
32
3.547472
13
-0.198003
23
2.243927
33
3.902927
0
3DFACE
8
coconut_palm7_leaves
10
-0.198003
20
2.243927
30
3.902927
11
-0.253383
21
2.267168
31
3.547472
12
-0.358941
22
1.912945
32
3.591362
13
-0.303415
23
1.881340
33
3.909810
0
3DFACE
8
coconut_palm7_leaves
10
0.023083
20
3.109657
30
3.500792
11
0.007645
21
2.911137
31
3.493612
12
-0.328341
22
2.913599
32
3.294081
13
-0.321929
23
3.108051
33
3.280938
0
3DFACE
8
coconut_palm7_leaves
10
0.007645
20
2.911137
30
3.493612
11
-0.007802
21
2.713193
31
3.490168
12
-0.324451
22
2.709056
32
3.295692
13
-0.328341
23
2.913599
33
3.294081
0
3DFACE
8
coconut_palm7_leaves
10
-0.321929
20
3.108051
30
3.280938
11
-0.328341
21
2.913599
31
3.294081
12
-0.537405
22
2.787519
32
2.943918
13
-0.512670
23
2.947380
33
2.868339
0
3DFACE
8
coconut_palm7_leaves
10
-0.328341
20
2.913599
30
3.294081
11
-0.324451
21
2.709056
31
3.295692
12
-0.467805
22
2.560569
32
2.955211
13
-0.537405
23
2.787519
33
2.943918
0
3DFACE
8
coconut_palm7_leaves
10
-0.512670
20
2.947380
30
2.868339
11
-0.537405
21
2.787519
31
2.943918
12
-0.410001
22
2.460912
32
2.506807
13
-0.269283
23
2.562252
33
2.398316
0
3DFACE
8
coconut_palm7_leaves
10
-0.537405
20
2.787519
30
2.943918
11
-0.467805
21
2.560569
31
2.955211
12
-0.188121
22
2.230351
32
2.599920
13
-0.410001
23
2.460912
33
2.506807
0
3DFACE
8
coconut_palm7_leaves
10
-0.147577
20
2.902308
30
3.542819
11
0.162875
21
2.919592
31
3.444299
12
-0.173075
22
2.919968
32
3.243909
13
-0.483598
23
2.906708
33
3.344027
0
3DFACE
8
coconut_palm7_leaves
10
-0.483598
20
2.906708
30
3.344027
11
-0.173075
21
2.919968
31
3.243909
12
-0.382073
22
2.790053
32
2.893265
13
-0.692729
23
2.784446
33
2.994386
0
3DFACE
8
coconut_palm7_leaves
10
-0.692729
20
2.784446
30
2.994386
11
-0.382073
21
2.790053
31
2.893265
12
-0.254578
22
2.458280
32
2.456838
13
-0.565414
23
2.462990
33
2.556648
0
3DFACE
8
coconut_palm7_leaves
10
-0.218862
20
2.844536
30
3.791382
11
-0.013597
21
2.972105
31
3.690314
12
0.228804
22
2.531254
32
3.609704
13
0.022838
23
2.399454
33
3.697430
0
3DFACE
8
coconut_palm7_leaves
10
-0.013597
20
2.972105
30
3.690314
11
0.191668
21
3.099673
31
3.589245
12
0.428761
22
2.662958
32
3.499930
13
0.228804
23
2.531254
33
3.609704
0
3DFACE
8
coconut_palm7_leaves
10
0.022838
20
2.399454
30
3.697430
11
0.228804
21
2.531254
31
3.609704
12
0.420062
22
2.113595
32
3.429170
13
0.197904
23
1.991806
33
3.479971
0
3DFACE
8
coconut_palm7_leaves
10
0.228804
20
2.531254
30
3.609704
11
0.428761
21
2.662958
31
3.499930
12
0.595823
22
2.255821
32
3.268206
13
0.420062
23
2.113595
33
3.429170
0
3DFACE
8
coconut_palm7_leaves
10
0.197904
20
1.991806
30
3.479971
11
0.420062
21
2.113595
31
3.429170
12
0.492897
22
1.762125
32
3.076491
13
0.211762
23
1.691158
33
3.046528
0
3DFACE
8
coconut_palm7_leaves
10
0.420062
20
2.113595
30
3.429170
11
0.595823
21
2.255821
31
3.268206
12
0.600885
22
1.949494
32
2.811221
13
0.492897
23
1.762125
33
3.076491
0
3DFACE
8
coconut_palm7_leaves
10
0.130498
20
2.887233
30
3.863950
11
-0.157692
21
3.056976
31
3.516678
12
0.084724
22
2.615280
32
3.441924
13
0.372926
23
2.444898
33
3.778853
0
3DFACE
8
coconut_palm7_leaves
10
0.372926
20
2.444898
30
3.778853
11
0.084724
21
2.615280
31
3.441924
12
0.276147
22
2.188109
32
3.262193
13
0.564080
23
2.033135
33
3.590735
0
3DFACE
8
coconut_palm7_leaves
10
0.564080
20
2.033135
30
3.590735
11
0.276147
21
2.188109
31
3.262193
12
0.349294
22
1.818817
32
2.904464
13
0.636613
23
1.698975
33
3.243779
0
3DFACE
8
coconut_palm7_leaves
10
0.242846
20
2.913225
30
3.620010
11
0.004829
21
2.919232
31
3.519655
12
-0.052861
22
3.404367
32
3.655606
13
0.183769
23
3.407122
33
3.751753
0
3DFACE
8
coconut_palm7_leaves
10
0.004829
20
2.919232
30
3.519655
11
-0.233174
21
2.924450
31
3.419020
12
-0.290591
22
3.404944
32
3.546782
13
-0.052861
23
3.404367
33
3.655606
0
3DFACE
8
coconut_palm7_leaves
10
0.183769
20
3.407122
30
3.751753
11
-0.052861
21
3.404367
31
3.655606
12
-0.118477
22
3.910827
32
3.693108
13
0.114203
23
3.931865
33
3.759944
0
3DFACE
8
coconut_palm7_leaves
10
-0.052861
20
3.404367
30
3.655606
11
-0.290591
21
3.404944
31
3.546782
12
-0.356609
22
3.900870
32
3.549242
13
-0.118477
23
3.910827
33
3.693108
0
3DFACE
8
coconut_palm7_leaves
10
0.114203
20
3.931865
30
3.759944
11
-0.118477
21
3.910827
31
3.693108
12
-0.194107
22
4.425637
32
3.558114
13
0.033233
23
4.458385
33
3.551756
0
3DFACE
8
coconut_palm7_leaves
10
-0.118477
20
3.910827
30
3.693108
11
-0.356609
21
3.900870
31
3.549242
12
-0.431957
22
4.384726
32
3.339725
13
-0.194107
23
4.425637
33
3.558114
0
3DFACE
8
coconut_palm7_leaves
10
-0.097205
20
2.916843
30
3.749548
11
0.106951
21
2.916629
31
3.288550
12
0.049173
22
3.406756
32
3.425714
13
-0.154896
23
3.401978
33
3.885500
0
3DFACE
8
coconut_palm7_leaves
10
-0.154896
20
3.401978
30
3.885500
11
0.049173
21
3.406756
31
3.425714
12
-0.016442
22
3.913216
32
3.463215
13
-0.220511
23
3.908437
33
3.923002
0
3DFACE
8
coconut_palm7_leaves
10
-0.220511
20
3.908437
30
3.923002
11
-0.016442
21
3.913216
31
3.463215
12
-0.092073
22
4.428027
32
3.328221
13
-0.296142
23
4.423248
33
3.788007
0
3DFACE
8
coconut_palm7_leaves
10
0.283677
20
2.985406
30
3.662590
11
0.001254
21
2.929490
31
3.552767
12
-0.155426
22
3.513704
32
3.554996
13
0.118301
23
3.592236
33
3.641381
0
3DFACE
8
coconut_palm7_leaves
10
0.001254
20
2.929490
30
3.552767
11
-0.281161
21
2.873161
31
3.443454
12
-0.434067
22
3.432950
32
3.419321
13
-0.155426
23
3.513704
33
3.554996
0
3DFACE
8
coconut_palm7_leaves
10
0.118301
20
3.592236
30
3.641381
11
-0.155426
21
3.513704
31
3.554996
12
-0.333773
22
4.048903
32
3.245676
13
-0.072412
23
4.123598
33
3.212246
0
3DFACE
8
coconut_palm7_leaves
10
-0.155426
20
3.513704
30
3.554996
11
-0.434067
21
3.432950
31
3.419321
12
-0.598306
22
3.865736
32
2.991267
13
-0.333773
23
4.048903
33
3.245676
0
3DFACE
8
coconut_palm7_leaves
10
-0.072412
20
4.123598
30
3.212246
11
-0.333773
21
4.048903
31
3.245676
12
-0.478985
22
4.213619
32
2.387423
13
-0.179041
23
4.032127
33
2.153505
0
3DFACE
8
coconut_palm7_leaves
10
-0.333773
20
4.048903
30
3.245676
11
-0.598306
21
3.865736
31
2.991267
12
-0.669803
22
3.642167
32
2.029958
13
-0.478985
23
4.213619
33
2.387423
0
3DFACE
8
coconut_palm7_leaves
10
-0.123914
20
3.070240
30
3.721922
11
0.126448
21
2.787292
31
3.387226
12
-0.030258
22
3.372954
32
3.385841
13
-0.280594
23
3.654454
33
3.724150
0
3DFACE
8
coconut_palm7_leaves
10
-0.280594
20
3.654454
30
3.724150
11
-0.030258
21
3.372954
31
3.385841
12
-0.208563
22
3.905754
32
3.070846
13
-0.458941
23
4.189653
33
3.414830
0
3DFACE
8
coconut_palm7_leaves
10
-0.458941
20
4.189653
30
3.414830
11
-0.208563
21
3.905754
31
3.070846
12
-0.352966
22
4.024139
32
2.174078
13
-0.604866
23
4.395178
33
2.611309
0
3DFACE
8
coconut_palm7_leaves
10
-0.082936
20
2.851623
30
3.828834
11
-0.018322
21
2.985662
31
3.734076
12
0.307044
22
2.899732
32
3.815730
13
0.248934
23
2.760330
33
3.903878
0
3DFACE
8
coconut_palm7_leaves
10
-0.018322
20
2.985662
30
3.734076
11
0.046293
21
3.119701
31
3.639318
12
0.366947
22
3.031063
32
3.710854
13
0.307044
23
2.899732
33
3.815730
0
3DFACE
8
coconut_palm7_leaves
10
0.248934
20
2.760330
30
3.903878
11
0.307044
21
2.899732
31
3.815730
12
0.624883
22
2.731681
32
3.705310
13
0.564935
23
2.574419
33
3.751512
0
3DFACE
8
coconut_palm7_leaves
10
0.307044
20
2.899732
30
3.815730
11
0.366947
21
3.031063
31
3.710854
12
0.660515
22
2.853081
32
3.557393
13
0.624883
23
2.731681
33
3.705310
0
3DFACE
8
coconut_palm7_leaves
10
0.564935
20
2.574419
30
3.751512
11
0.624883
21
2.731681
31
3.705310
12
0.765522
22
2.490149
32
3.312513
13
0.626535
23
2.329795
33
3.301697
0
3DFACE
8
coconut_palm7_leaves
10
0.624883
20
2.731681
30
3.705310
11
0.660515
21
2.853081
31
3.557393
12
0.694671
22
2.606994
32
3.095648
13
0.765522
23
2.490149
33
3.312513
0
3DFACE
8
coconut_palm7_leaves
10
0.071348
20
3.024778
30
3.836914
11
-0.107991
21
2.946546
31
3.631238
12
0.217374
22
2.860616
32
3.712892
13
0.396713
23
2.938848
33
3.918568
0
3DFACE
8
coconut_palm7_leaves
10
0.396713
20
2.938848
30
3.918568
11
0.217374
21
2.860616
31
3.712892
12
0.535213
22
2.692586
32
3.602523
13
0.714553
23
2.770797
33
3.808149
0
3DFACE
8
coconut_palm7_leaves
10
0.714553
20
2.770797
30
3.808149
11
0.535213
21
2.692586
31
3.602523
12
0.675946
22
2.445639
32
3.219725
13
0.855133
23
2.532575
33
3.406149
0
3DFACE
8
coconut_palm7_leaves
10
-0.036767
20
2.749823
30
3.606057
11
0.005038
21
2.918632
31
3.517717
12
0.218368
22
3.025046
32
3.816177
13
0.180905
23
2.855368
33
3.903757
0
3DFACE
8
coconut_palm7_leaves
10
0.005038
20
2.918632
30
3.517717
11
0.046846
21
3.087289
31
3.429035
12
0.262773
22
3.192061
32
3.724519
13
0.218368
23
3.025046
33
3.816177
0
3DFACE
8
coconut_palm7_leaves
10
0.180905
20
2.855368
30
3.903757
11
0.218368
21
3.025046
31
3.816177
12
0.498889
22
3.103482
32
4.070202
13
0.477844
23
2.927480
33
4.148080
0
3DFACE
8
coconut_palm7_leaves
10
0.218368
20
3.025046
30
3.816177
11
0.262773
21
3.192061
31
3.724519
12
0.555793
22
3.262591
32
3.964195
13
0.498889
23
3.103482
33
4.070202
0
3DFACE
8
coconut_palm7_leaves
10
0.477844
20
2.927480
30
4.148080
11
0.498889
21
3.103482
31
4.070202
12
0.866730
22
3.131251
32
4.234275
13
0.865804
23
2.939945
33
4.283256
0
3DFACE
8
coconut_palm7_leaves
10
0.498889
20
3.103482
30
4.070202
11
0.555793
21
3.262591
31
3.964195
12
0.937332
22
3.273532
32
4.094169
13
0.866730
23
3.131251
33
4.234275
0
3DFACE
8
coconut_palm7_leaves
10
-0.106478
20
3.011035
30
3.639149
11
0.116576
21
2.825005
31
3.398413
12
0.329884
22
2.932643
32
3.694745
13
0.106852
23
3.117450
33
3.937609
0
3DFACE
8
coconut_palm7_leaves
10
0.106852
20
3.117450
30
3.937609
11
0.329884
21
2.932643
31
3.694745
12
0.610405
22
3.011078
32
3.948770
13
0.387373
23
3.195885
33
4.191635
0
3DFACE
8
coconut_palm7_leaves
10
0.387373
20
3.195885
30
4.191635
11
0.610405
21
3.011078
31
3.948770
12
0.978246
22
3.038847
32
4.112843
13
0.755214
23
3.223654
33
4.355707
0
3DFACE
8
coconut_palm7_leaves
10
-0.183840
20
3.088517
30
3.458848
11
0.008574
21
2.908446
31
3.485047
12
-0.180527
22
2.754654
32
3.942007
13
-0.379522
23
2.923024
33
3.918082
0
3DFACE
8
coconut_palm7_leaves
10
0.008574
20
2.908446
30
3.485047
11
0.200976
21
2.729017
31
3.513755
12
0.010943
22
2.567284
32
3.956127
13
-0.180527
23
2.754654
33
3.942007
0
3DFACE
8
coconut_palm7_leaves
10
-0.379522
20
2.923024
30
3.918082
11
-0.180527
21
2.754654
31
3.942007
12
-0.420650
22
2.464279
32
4.315811
13
-0.638529
23
2.586570
33
4.270766
0
3DFACE
8
coconut_palm7_leaves
10
-0.180527
20
2.754654
30
3.942007
11
0.010943
21
2.567284
31
3.956127
12
-0.235560
22
2.243292
32
4.283568
13
-0.420650
23
2.464279
33
4.315811
0
3DFACE
8
coconut_palm7_leaves
10
-0.638529
20
2.586570
30
4.270766
11
-0.420650
21
2.464279
31
4.315811
12
-0.707431
22
1.994788
32
4.495592
13
-0.932906
23
2.062180
33
4.363029
0
3DFACE
8
coconut_palm7_leaves
10
-0.420650
20
2.464279
30
4.315811
11
-0.235560
21
2.243292
31
4.283568
12
-0.510592
22
1.744542
32
4.350595
13
-0.707431
23
1.994788
33
4.495592
0
3DFACE
8
coconut_palm7_leaves
10
0.096959
20
3.021334
30
3.684926
11
-0.079723
21
2.790487
31
3.289262
12
-0.268914
22
2.641810
32
3.742062
13
-0.092141
23
2.867498
33
4.141952
0
3DFACE
8
coconut_palm7_leaves
10
-0.092141
20
2.867498
30
4.141952
11
-0.268914
21
2.641810
31
3.742062
12
-0.509036
22
2.351436
32
4.115866
13
-0.332264
23
2.577123
33
4.515756
0
3DFACE
8
coconut_palm7_leaves
10
-0.332264
20
2.577123
30
4.515756
11
-0.509036
21
2.351436
31
4.115866
12
-0.795817
22
1.881944
32
4.295648
13
-0.619045
23
2.107631
33
4.695538
0
3DFACE
8
coconut_palm7_leaves
10
0.114871
20
2.793103
30
3.698968
11
-0.000469
21
2.934434
31
3.568724
12
0.374196
22
3.094271
32
3.405684
13
0.490513
23
2.953053
33
3.534683
0
3DFACE
8
coconut_palm7_leaves
10
-0.000469
20
2.934434
30
3.568724
11
-0.115807
21
3.075695
31
3.438316
12
0.257264
22
3.230831
32
3.268893
13
0.374196
23
3.094271
33
3.405684
0
3DFACE
8
coconut_palm7_leaves
10
0.490513
20
2.953053
30
3.534683
11
0.374196
21
3.094271
31
3.405684
12
0.742534
22
3.230380
32
3.203986
13
0.859277
23
3.089064
33
3.329122
0
3DFACE
8
coconut_palm7_leaves
10
0.374196
20
3.094271
30
3.405684
11
0.257264
21
3.230831
31
3.268893
12
0.620963
22
3.355335
32
3.053368
13
0.742534
23
3.230380
33
3.203986
0
3DFACE
8
coconut_palm7_leaves
10
0.859277
20
3.089064
30
3.329122
11
0.742534
21
3.230380
31
3.203986
12
1.096389
22
3.320627
32
2.938771
13
1.209962
23
3.171434
33
3.048856
0
3DFACE
8
coconut_palm7_leaves
10
0.742534
20
3.230380
30
3.203986
11
0.620963
21
3.355335
31
3.053368
12
0.964169
22
3.421211
32
2.762213
13
1.096389
23
3.320627
33
2.938771
0
3DFACE
8
coconut_palm7_leaves
10
0.027674
20
3.097208
30
3.719671
11
-0.028601
21
2.771056
31
3.421345
12
0.346160
22
2.925340
32
3.253877
13
0.402330
23
3.257571
33
3.557670
0
3DFACE
8
coconut_palm7_leaves
10
0.402330
20
3.257571
30
3.557670
11
0.346160
21
2.925340
31
3.253877
12
0.714625
22
3.054244
32
3.049286
13
0.770554
23
3.400246
33
3.365259
0
3DFACE
8
coconut_palm7_leaves
10
0.770554
20
3.400246
30
3.365259
11
0.714625
21
3.054244
31
3.049286
12
1.068639
22
3.135348
32
2.784037
13
1.124223
23
3.501110
33
3.104264
0
3DFACE
8
coconut_palm7_leaves
10
0.165340
20
3.164179
30
3.449748
11
0.016633
21
2.884434
31
3.410935
12
-0.534408
22
3.160658
32
3.307590
13
-0.401559
23
3.443147
33
3.332765
0
3DFACE
8
coconut_palm7_leaves
10
0.016633
20
2.884434
30
3.410935
11
-0.132094
21
2.605893
31
3.384458
12
-0.667899
22
2.862970
32
3.258842
13
-0.534408
23
3.160658
33
3.307590
0
3DFACE
8
coconut_palm7_leaves
10
-0.401559
20
3.443147
30
3.332765
11
-0.534408
21
3.160658
31
3.307590
12
-1.074532
22
3.324638
32
2.984192
13
-0.954564
23
3.572065
33
2.909423
0
3DFACE
8
coconut_palm7_leaves
10
-0.534408
20
3.160658
30
3.307590
11
-0.667899
21
2.862970
31
3.258842
12
-1.159216
22
2.955179
32
2.875043
13
-1.074532
23
3.324638
33
2.984192
0
3DFACE
8
coconut_palm7_leaves
10
-0.954564
20
3.572065
30
2.909423
11
-1.074532
21
3.324638
31
2.984192
12
-1.497558
22
3.193669
32
2.308753
13
-1.301697
23
3.267308
33
2.036705
0
3DFACE
8
coconut_palm7_leaves
10
-1.074532
20
3.324638
30
2.984192
11
-1.159216
21
2.955179
31
2.875043
12
-1.422228
22
2.639933
32
2.152953
13
-1.497558
23
3.193669
33
2.308753
0
3DFACE
8
coconut_palm7_leaves
10
-0.164006
20
2.930430
30
3.630331
11
0.197425
21
2.829687
31
3.192714
12
-0.353532
22
3.101079
32
3.076851
13
-0.715077
23
3.208392
33
3.532007
0
3DFACE
8
coconut_palm7_coconuts
10
-0.067770
20
2.904848
30
3.512277
11
-0.093640
21
2.908156
31
3.517358
12
-0.090100
22
2.909330
32
3.498591
13
-0.090100
23
2.909330
33
3.498591
0
3DFACE
8
coconut_palm7_coconuts
10
-0.093640
20
2.908156
30
3.517358
11
-0.121343
21
2.895070
31
3.518455
12
-0.115212
22
2.897103
32
3.485949
13
-0.090100
23
2.909330
33
3.498591
0
3DFACE
8
coconut_palm7_coconuts
10
-0.121343
20
2.895070
30
3.518455
11
-0.143456
21
2.869095
31
3.515274
12
-0.136376
22
2.871442
32
3.477739
13
-0.115212
23
2.897103
33
3.485949
0
3DFACE
8
coconut_palm7_coconuts
10
-0.143456
20
2.869095
30
3.515274
11
-0.154052
21
2.837192
31
3.508666
12
-0.147921
22
2.839225
32
3.476161
13
-0.136376
23
2.871442
33
3.477739
0
3DFACE
8
coconut_palm7_coconuts
10
-0.154052
20
2.837192
30
3.508666
11
-0.150294
21
2.807909
31
3.500403
12
-0.146754
22
2.809082
32
3.481636
13
-0.147921
23
2.839225
33
3.476161
0
3DFACE
8
coconut_palm7_coconuts
10
-0.150294
20
2.807909
30
3.500403
11
-0.133188
21
2.789092
31
3.492699
12
-0.146754
22
2.809082
32
3.481636
13
-0.146754
23
2.809082
33
3.481636
0
3DFACE
8
coconut_palm7_coconuts
10
-0.067770
20
2.904848
30
3.512277
11
-0.084592
21
2.900502
31
3.532380
12
-0.093640
22
2.908156
32
3.517358
13
-0.093640
23
2.908156
33
3.517358
0
3DFACE
8
coconut_palm7_coconuts
10
-0.084592
20
2.900502
30
3.532380
11
-0.105672
21
2.881813
31
3.544474
12
-0.121343
22
2.895070
32
3.518455
13
-0.093640
23
2.908156
33
3.517358
0
3DFACE
8
coconut_palm7_coconuts
10
-0.105672
20
2.881813
30
3.544474
11
-0.125360
21
2.853787
31
3.545318
12
-0.143456
22
2.869095
32
3.515274
13
-0.121343
23
2.895070
33
3.518455
0
3DFACE
8
coconut_palm7_coconuts
10
-0.125360
20
2.853787
30
3.545318
11
-0.138381
21
2.823935
31
3.534686
12
-0.154052
22
2.837192
32
3.508666
13
-0.143456
23
2.869095
33
3.515274
0
3DFACE
8
coconut_palm7_coconuts
10
-0.138381
20
2.823935
30
3.534686
11
-0.141247
21
2.800254
31
3.515425
12
-0.150294
22
2.807909
32
3.500403
13
-0.154052
23
2.837192
33
3.508666
0
3DFACE
8
coconut_palm7_coconuts
10
-0.141247
20
2.800254
30
3.515425
11
-0.133188
21
2.789092
31
3.492699
12
-0.150294
22
2.807909
32
3.500403
13
-0.150294
23
2.807909
33
3.500403
0
3DFACE
8
coconut_palm7_coconuts
10
-0.067770
20
2.904848
30
3.512277
11
-0.068257
21
2.890852
31
3.534858
12
-0.084592
22
2.900502
32
3.532380
13
-0.084592
23
2.900502
33
3.532380
0
3DFACE
8
coconut_palm7_coconuts
10
-0.068257
20
2.890852
30
3.534858
11
-0.077379
21
2.865097
31
3.548766
12
-0.105672
22
2.881813
32
3.544474
13
-0.084592
23
2.900502
33
3.532380
0
3DFACE
8
coconut_palm7_coconuts
10
-0.077379
20
2.865097
30
3.548766
11
-0.092690
21
2.834486
31
3.550274
12
-0.125360
22
2.853787
32
3.545318
13
-0.105672
23
2.881813
33
3.544474
0
3DFACE
8
coconut_palm7_coconuts
10
-0.092690
20
2.834486
30
3.550274
11
-0.110088
21
2.807219
31
3.538977
12
-0.138381
22
2.823935
32
3.534686
13
-0.125360
23
2.853787
33
3.545318
0
3DFACE
8
coconut_palm7_coconuts
10
-0.110088
20
2.807219
30
3.538977
11
-0.124911
21
2.790604
31
3.517903
12
-0.141247
22
2.800254
32
3.515425
13
-0.138381
23
2.823935
33
3.534686
0
3DFACE
8
coconut_palm7_coconuts
10
-0.124911
20
2.790604
30
3.517903
11
-0.133188
21
2.789092
31
3.492699
12
-0.141247
22
2.800254
32
3.515425
13
-0.141247
23
2.800254
33
3.515425
0
3DFACE
8
coconut_palm7_coconuts
10
-0.067770
20
2.904848
30
3.512277
11
-0.054203
21
2.884857
31
3.523340
12
-0.068257
22
2.890852
32
3.534858
13
-0.068257
23
2.890852
33
3.534858
0
3DFACE
8
coconut_palm7_coconuts
10
-0.054203
20
2.884857
30
3.523340
11
-0.053037
21
2.854715
31
3.528816
12
-0.077379
22
2.865097
32
3.548766
13
-0.068257
23
2.890852
33
3.534858
0
3DFACE
8
coconut_palm7_coconuts
10
-0.053037
20
2.854715
30
3.528816
11
-0.064582
21
2.822497
31
3.527236
12
-0.092690
22
2.834486
32
3.550274
13
-0.077379
23
2.865097
33
3.548766
0
3DFACE
8
coconut_palm7_coconuts
10
-0.064582
20
2.822497
30
3.527236
11
-0.085746
21
2.796837
31
3.519027
12
-0.110088
22
2.807219
32
3.538977
13
-0.092690
23
2.834486
33
3.550274
0
3DFACE
8
coconut_palm7_coconuts
10
-0.085746
20
2.796837
30
3.519027
11
-0.110857
21
2.784609
31
3.506385
12
-0.124911
22
2.790604
32
3.517903
13
-0.110088
23
2.807219
33
3.538977
0
3DFACE
8
coconut_palm7_coconuts
10
-0.110857
20
2.784609
30
3.506385
11
-0.133188
21
2.789092
31
3.492699
12
-0.124911
22
2.790604
32
3.517903
13
-0.124911
23
2.790604
33
3.517903
0
3DFACE
8
coconut_palm7_coconuts
10
-0.067770
20
2.904848
30
3.512277
11
-0.050663
21
2.886031
31
3.504572
12
-0.054203
22
2.884857
32
3.523340
13
-0.054203
23
2.884857
33
3.523340
0
3DFACE
8
coconut_palm7_coconuts
10
-0.050663
20
2.886031
30
3.504572
11
-0.046905
21
2.856748
31
3.496310
12
-0.053037
22
2.854715
32
3.528816
13
-0.054203
23
2.884857
33
3.523340
0
3DFACE
8
coconut_palm7_coconuts
10
-0.046905
20
2.856748
30
3.496310
11
-0.057502
21
2.824844
31
3.489702
12
-0.064582
22
2.822497
32
3.527236
13
-0.053037
23
2.854715
33
3.528816
0
3DFACE
8
coconut_palm7_coconuts
10
-0.057502
20
2.824844
30
3.489702
11
-0.079615
21
2.798869
31
3.486521
12
-0.085746
22
2.796837
32
3.519027
13
-0.064582
23
2.822497
33
3.527236
0
3DFACE
8
coconut_palm7_coconuts
10
-0.079615
20
2.798869
30
3.486521
11
-0.107318
21
2.785783
31
3.487618
12
-0.110857
22
2.784609
32
3.506385
13
-0.085746
23
2.796837
33
3.519027
0
3DFACE
8
coconut_palm7_coconuts
10
-0.107318
20
2.785783
30
3.487618
11
-0.133188
21
2.789092
31
3.492699
12
-0.110857
22
2.784609
32
3.506385
13
-0.110857
23
2.784609
33
3.506385
0
3DFACE
8
coconut_palm7_coconuts
10
-0.067770
20
2.904848
30
3.512277
11
-0.059711
21
2.893685
31
3.489550
12
-0.050663
22
2.886031
32
3.504572
13
-0.050663
23
2.886031
33
3.504572
0
3DFACE
8
coconut_palm7_coconuts
10
-0.059711
20
2.893685
30
3.489550
11
-0.062576
21
2.870005
31
3.470290
12
-0.046905
22
2.856748
32
3.496310
13
-0.050663
23
2.886031
33
3.504572
0
3DFACE
8
coconut_palm7_coconuts
10
-0.062576
20
2.870005
30
3.470290
11
-0.075597
21
2.840152
31
3.459657
12
-0.057502
22
2.824844
32
3.489702
13
-0.046905
23
2.856748
33
3.496310
0
3DFACE
8
coconut_palm7_coconuts
10
-0.075597
20
2.840152
30
3.459657
11
-0.095286
21
2.812126
31
3.460501
12
-0.079615
22
2.798869
32
3.486521
13
-0.057502
23
2.824844
33
3.489702
0
3DFACE
8
coconut_palm7_coconuts
10
-0.095286
20
2.812126
30
3.460501
11
-0.116365
21
2.793437
31
3.472595
12
-0.107318
22
2.785783
32
3.487618
13
-0.079615
23
2.798869
33
3.486521
0
3DFACE
8
coconut_palm7_coconuts
10
-0.116365
20
2.793437
30
3.472595
11
-0.133188
21
2.789092
31
3.492699
12
-0.107318
22
2.785783
32
3.487618
13
-0.107318
23
2.785783
33
3.487618
0
3DFACE
8
coconut_palm7_coconuts
10
-0.067770
20
2.904848
30
3.512277
11
-0.076046
21
2.903335
31
3.487072
12
-0.059711
22
2.893685
32
3.489550
13
-0.059711
23
2.893685
33
3.489550
0
3DFACE
8
coconut_palm7_coconuts
10
-0.076046
20
2.903335
30
3.487072
11
-0.090870
21
2.886720
31
3.465999
12
-0.062576
22
2.870005
32
3.470290
13
-0.059711
23
2.893685
33
3.489550
0
3DFACE
8
coconut_palm7_coconuts
10
-0.090870
20
2.886720
30
3.465999
11
-0.108268
21
2.859454
31
3.454702
12
-0.075597
22
2.840152
32
3.459657
13
-0.062576
23
2.870005
33
3.470290
0
3DFACE
8
coconut_palm7_coconuts
10
-0.108268
20
2.859454
30
3.454702
11
-0.123579
21
2.828842
31
3.456210
12
-0.095286
22
2.812126
32
3.460501
13
-0.075597
23
2.840152
33
3.459657
0
3DFACE
8
coconut_palm7_coconuts
10
-0.123579
20
2.828842
30
3.456210
11
-0.132701
21
2.803088
31
3.470118
12
-0.116365
22
2.793437
32
3.472595
13
-0.095286
23
2.812126
33
3.460501
0
3DFACE
8
coconut_palm7_coconuts
10
-0.132701
20
2.803088
30
3.470118
11
-0.133188
21
2.789092
31
3.492699
12
-0.116365
22
2.793437
32
3.472595
13
-0.116365
23
2.793437
33
3.472595
0
3DFACE
8
coconut_palm7_coconuts
10
-0.067770
20
2.904848
30
3.512277
11
-0.090100
21
2.909330
31
3.498591
12
-0.076046
22
2.903335
32
3.487072
13
-0.076046
23
2.903335
33
3.487072
0
3DFACE
8
coconut_palm7_coconuts
10
-0.090100
20
2.909330
30
3.498591
11
-0.115212
21
2.897103
31
3.485949
12
-0.090870
22
2.886720
32
3.465999
13
-0.076046
23
2.903335
33
3.487072
0
3DFACE
8
coconut_palm7_coconuts
10
-0.115212
20
2.897103
30
3.485949
11
-0.136376
21
2.871442
31
3.477739
12
-0.108268
22
2.859454
32
3.454702
13
-0.090870
23
2.886720
33
3.465999
0
3DFACE
8
coconut_palm7_coconuts
10
-0.136376
20
2.871442
30
3.477739
11
-0.147921
21
2.839225
31
3.476161
12
-0.123579
22
2.828842
32
3.456210
13
-0.108268
23
2.859454
33
3.454702
0
3DFACE
8
coconut_palm7_coconuts
10
-0.147921
20
2.839225
30
3.476161
11
-0.146754
21
2.809082
31
3.481636
12
-0.132701
22
2.803088
32
3.470118
13
-0.123579
23
2.828842
33
3.456210
0
3DFACE
8
coconut_palm7_coconuts
10
-0.146754
20
2.809082
30
3.481636
11
-0.133188
21
2.789092
31
3.492699
12
-0.132701
22
2.803088
32
3.470118
13
-0.132701
23
2.803088
33
3.470118
0
3DFACE
8
coconut_palm7_coconuts
10
-0.035086
20
3.047708
30
3.379521
11
-0.025779
21
3.031928
31
3.374000
12
-0.009359
22
3.052783
32
3.375224
13
-0.009359
23
3.052783
33
3.375224
0
3DFACE
8
coconut_palm7_coconuts
10
-0.035086
20
3.047708
30
3.379521
11
-0.056088
21
3.036963
31
3.399101
12
-0.039969
22
3.009631
32
3.389538
13
-0.025779
23
3.031928
33
3.374000
0
3DFACE
8
coconut_palm7_coconuts
10
-0.056088
20
3.036963
30
3.399101
11
-0.066739
21
3.023427
31
3.428717
12
-0.048126
22
2.991866
32
3.417674
13
-0.039969
23
3.009631
33
3.389538
0
3DFACE
8
coconut_palm7_coconuts
10
-0.066739
20
3.023427
30
3.428717
11
-0.064184
21
3.010727
31
3.460435
12
-0.048065
22
2.983395
32
3.450871
13
-0.048126
23
2.991866
33
3.417674
0
3DFACE
8
coconut_palm7_coconuts
10
-0.064184
20
3.010727
30
3.460435
11
-0.049109
21
3.002267
31
3.485754
12
-0.039802
22
2.986486
32
3.480232
13
-0.048065
23
2.983395
33
3.450871
0
3DFACE
8
coconut_palm7_coconuts
10
-0.049109
20
3.002267
30
3.485754
11
-0.025552
21
3.000312
31
3.497890
12
-0.039802
22
2.986486
32
3.480232
13
-0.039802
23
2.986486
33
3.480232
0
3DFACE
8
coconut_palm7_coconuts
10
-0.025779
20
3.031928
30
3.374000
11
-0.007490
21
3.026305
31
3.374009
12
-0.009359
22
3.052783
32
3.375224
13
-0.009359
23
3.052783
33
3.375224
0
3DFACE
8
coconut_palm7_coconuts
10
-0.025779
20
3.031928
30
3.374000
11
-0.039969
21
3.009631
31
3.389538
12
-0.008290
22
2.999892
32
3.389554
13
-0.007490
23
3.026305
33
3.374009
0
3DFACE
8
coconut_palm7_coconuts
10
-0.039969
20
3.009631
30
3.389538
11
-0.048126
21
2.991866
31
3.417674
12
-0.011547
22
2.980622
32
3.417693
13
-0.008290
23
2.999892
33
3.389554
0
3DFACE
8
coconut_palm7_coconuts
10
-0.048126
20
2.991866
30
3.417674
11
-0.048065
21
2.983395
31
3.450871
12
-0.016387
22
2.973656
32
3.450886
13
-0.011547
23
2.980622
33
3.417693
0
3DFACE
8
coconut_palm7_coconuts
10
-0.048065
20
2.983395
30
3.450871
11
-0.039802
21
2.986486
31
3.480232
12
-0.021513
22
2.980864
32
3.480241
13
-0.016387
23
2.973656
33
3.450886
0
3DFACE
8
coconut_palm7_coconuts
10
-0.039802
20
2.986486
30
3.480232
11
-0.025552
21
3.000312
31
3.497890
12
-0.021513
22
2.980864
32
3.480241
13
-0.021513
23
2.980864
33
3.480241
0
3DFACE
8
coconut_palm7_coconuts
10
-0.007490
20
3.026305
30
3.374009
11
0.009069
21
3.034134
31
3.379544
12
-0.009359
22
3.052783
32
3.375224
13
-0.009359
23
3.052783
33
3.375224
0
3DFACE
8
coconut_palm7_coconuts
10
-0.007490
20
3.026305
30
3.374009
11
-0.008290
21
2.999892
31
3.389554
12
0.020390
22
3.013452
32
3.399140
13
0.009069
23
3.034134
33
3.379544
0
3DFACE
8
coconut_palm7_coconuts
10
-0.008290
20
2.999892
30
3.389554
11
-0.011547
21
2.980622
31
3.417693
12
0.021571
22
2.996279
32
3.428761
13
0.020390
23
3.013452
33
3.399140
0
3DFACE
8
coconut_palm7_coconuts
10
-0.011547
20
2.980622
30
3.417693
11
-0.016387
21
2.973656
31
3.450886
12
0.012294
22
2.987217
32
3.460473
13
0.021571
23
2.996279
33
3.428761
0
3DFACE
8
coconut_palm7_coconuts
10
-0.016387
20
2.973656
30
3.450886
11
-0.021513
21
2.980864
31
3.480241
12
-0.004954
22
2.988693
32
3.485776
13
0.012294
23
2.987217
33
3.460473
0
3DFACE
8
coconut_palm7_coconuts
10
-0.021513
20
2.980864
30
3.480241
11
-0.025552
21
3.000312
31
3.497890
12
-0.004954
22
2.988693
32
3.485776
13
-0.004954
23
2.988693
33
3.485776
0
3DFACE
8
coconut_palm7_coconuts
10
0.009069
20
3.034134
30
3.379544
11
0.014197
21
3.050828
31
3.387362
12
-0.009359
22
3.052783
32
3.375224
13
-0.009359
23
3.052783
33
3.375224
0
3DFACE
8
coconut_palm7_coconuts
10
0.009069
20
3.034134
30
3.379544
11
0.020390
21
3.013452
31
3.399140
12
0.029273
22
3.042367
32
3.412681
13
0.014197
23
3.050828
33
3.387362
0
3DFACE
8
coconut_palm7_coconuts
10
0.020390
20
3.013452
30
3.399140
11
0.021571
21
2.996279
31
3.428761
12
0.031827
22
3.029668
32
3.444398
13
0.029273
23
3.042367
33
3.412681
0
3DFACE
8
coconut_palm7_coconuts
10
0.021571
20
2.996279
30
3.428761
11
0.012294
21
2.987217
31
3.460473
12
0.021176
22
3.016132
32
3.474014
13
0.031827
23
3.029668
33
3.444398
0
3DFACE
8
coconut_palm7_coconuts
10
0.012294
20
2.987217
30
3.460473
11
-0.004954
21
2.988693
31
3.485776
12
0.000174
22
3.005387
32
3.493594
13
0.021176
23
3.016132
33
3.474014
0
3DFACE
8
coconut_palm7_coconuts
10
-0.004954
20
2.988693
30
3.485776
11
-0.025552
21
3.000312
31
3.497890
12
0.000174
22
3.005387
32
3.493594
13
0.000174
23
3.005387
33
3.493594
0
3DFACE
8
coconut_palm7_coconuts
10
0.014197
20
3.050828
30
3.387362
11
0.004891
21
3.066609
31
3.392884
12
-0.009359
22
3.052783
32
3.375224
13
-0.009359
23
3.052783
33
3.375224
0
3DFACE
8
coconut_palm7_coconuts
10
0.014197
20
3.050828
30
3.387362
11
0.029273
21
3.042367
31
3.412681
12
0.013153
22
3.069700
32
3.422245
13
0.004891
23
3.066609
33
3.392884
0
3DFACE
8
coconut_palm7_coconuts
10
0.029273
20
3.042367
30
3.412681
11
0.031827
21
3.029668
31
3.444398
12
0.013214
22
3.061228
32
3.455441
13
0.013153
23
3.069700
33
3.422245
0
3DFACE
8
coconut_palm7_coconuts
10
0.031827
20
3.029668
30
3.444398
11
0.021176
21
3.016132
31
3.474014
12
0.005057
22
3.043464
32
3.483578
13
0.013214
23
3.061228
33
3.455441
0
3DFACE
8
coconut_palm7_coconuts
10
0.021176
20
3.016132
30
3.474014
11
0.000174
21
3.005387
31
3.493594
12
-0.009132
22
3.021167
32
3.499115
13
0.005057
23
3.043464
33
3.483578
0
3DFACE
8
coconut_palm7_coconuts
10
0.000174
20
3.005387
30
3.493594
11
-0.025552
21
3.000312
31
3.497890
12
-0.009132
22
3.021167
32
3.499115
13
-0.009132
23
3.021167
33
3.499115
0
3DFACE
8
coconut_palm7_coconuts
10
0.004891
20
3.066609
30
3.392884
11
-0.013399
21
3.072231
31
3.392874
12
-0.009359
22
3.052783
32
3.375224
13
-0.009359
23
3.052783
33
3.375224
0
3DFACE
8
coconut_palm7_coconuts
10
0.004891
20
3.066609
30
3.392884
11
0.013153
21
3.069700
31
3.422245
12
-0.018525
22
3.079438
32
3.422229
13
-0.013399
23
3.072231
33
3.392874
0
3DFACE
8
coconut_palm7_coconuts
10
0.013153
20
3.069700
30
3.422245
11
0.013214
21
3.061228
31
3.455441
12
-0.023365
22
3.072474
32
3.455423
13
-0.018525
23
3.079438
33
3.422229
0
3DFACE
8
coconut_palm7_coconuts
10
0.013214
20
3.061228
30
3.455441
11
0.005057
21
3.043464
31
3.483578
12
-0.026621
22
3.053203
32
3.483562
13
-0.023365
23
3.072474
33
3.455423
0
3DFACE
8
coconut_palm7_coconuts
10
0.005057
20
3.043464
30
3.483578
11
-0.009132
21
3.021167
31
3.499115
12
-0.027422
22
3.026790
32
3.499106
13
-0.026621
23
3.053203
33
3.483562
0
3DFACE
8
coconut_palm7_coconuts
10
-0.009132
20
3.021167
30
3.499115
11
-0.025552
21
3.000312
31
3.497890
12
-0.027422
22
3.026790
32
3.499106
13
-0.027422
23
3.026790
33
3.499106
0
3DFACE
8
coconut_palm7_coconuts
10
-0.013399
20
3.072231
30
3.392874
11
-0.029958
21
3.064402
31
3.387340
12
-0.009359
22
3.052783
32
3.375224
13
-0.009359
23
3.052783
33
3.375224
0
3DFACE
8
coconut_palm7_coconuts
10
-0.013399
20
3.072231
30
3.392874
11
-0.018525
21
3.079438
31
3.422229
12
-0.047206
22
3.065878
32
3.412643
13
-0.029958
23
3.064402
33
3.387340
0
3DFACE
8
coconut_palm7_coconuts
10
-0.018525
20
3.079438
30
3.422229
11
-0.023365
21
3.072474
31
3.455423
12
-0.056482
22
3.056815
32
3.444353
13
-0.047206
23
3.065878
33
3.412643
0
3DFACE
8
coconut_palm7_coconuts
10
-0.023365
20
3.072474
30
3.455423
11
-0.026621
21
3.053203
31
3.483562
12
-0.055302
22
3.039643
32
3.473975
13
-0.056482
23
3.056815
33
3.444353
0
3DFACE
8
coconut_palm7_coconuts
10
-0.026621
20
3.053203
30
3.483562
11
-0.027422
21
3.026790
31
3.499106
12
-0.043981
22
3.018960
32
3.493571
13
-0.055302
23
3.039643
33
3.473975
0
3DFACE
8
coconut_palm7_coconuts
10
-0.027422
20
3.026790
30
3.499106
11
-0.025552
21
3.000312
31
3.497890
12
-0.043981
22
3.018960
32
3.493571
13
-0.043981
23
3.018960
33
3.493571
0
3DFACE
8
coconut_palm7_coconuts
10
-0.029958
20
3.064402
30
3.387340
11
-0.035086
21
3.047708
31
3.379521
12
-0.009359
22
3.052783
32
3.375224
13
-0.009359
23
3.052783
33
3.375224
0
3DFACE
8
coconut_palm7_coconuts
10
-0.029958
20
3.064402
30
3.387340
11
-0.047206
21
3.065878
31
3.412643
12
-0.056088
22
3.036963
32
3.399101
13
-0.035086
23
3.047708
33
3.379521
0
3DFACE
8
coconut_palm7_coconuts
10
-0.047206
20
3.065878
30
3.412643
11
-0.056482
21
3.056815
31
3.444353
12
-0.066739
22
3.023427
32
3.428717
13
-0.056088
23
3.036963
33
3.399101
0
3DFACE
8
coconut_palm7_coconuts
10
-0.056482
20
3.056815
30
3.444353
11
-0.055302
21
3.039643
31
3.473975
12
-0.064184
22
3.010727
32
3.460435
13
-0.066739
23
3.023427
33
3.428717
0
3DFACE
8
coconut_palm7_coconuts
10
-0.055302
20
3.039643
30
3.473975
11
-0.043981
21
3.018960
31
3.493571
12
-0.049109
22
3.002267
32
3.485754
13
-0.064184
23
3.010727
33
3.460435
0
3DFACE
8
coconut_palm7_coconuts
10
-0.043981
20
3.018960
30
3.493571
11
-0.025552
21
3.000312
31
3.497890
12
-0.049109
22
3.002267
32
3.485754
13
-0.049109
23
3.002267
33
3.485754
0
3DFACE
8
coconut_palm7_coconuts
10
0.191177
20
2.769467
30
3.438616
11
0.188243
21
2.758318
31
3.423344
12
0.193911
22
2.743783
32
3.444854
13
0.193911
23
2.743783
33
3.444854
0
3DFACE
8
coconut_palm7_coconuts
10
0.191177
20
2.769467
30
3.438616
11
0.171734
21
2.792744
31
3.434133
12
0.166652
22
2.773433
32
3.407683
13
0.188243
23
2.758318
33
3.423344
0
3DFACE
8
coconut_palm7_coconuts
10
0.171734
20
2.792744
30
3.434133
11
0.140794
21
2.807377
31
3.432607
12
0.134924
22
2.785079
32
3.402067
13
0.166652
23
2.773433
33
3.407683
0
3DFACE
8
coconut_palm7_coconuts
10
0.140794
20
2.807377
30
3.432607
11
0.106645
21
2.809445
31
3.434448
12
0.101562
22
2.790135
32
3.407999
13
0.134924
23
2.785079
33
3.402067
0
3DFACE
8
coconut_palm7_coconuts
10
0.106645
20
2.809445
30
3.434448
11
0.078439
21
2.798395
31
3.439161
12
0.075504
22
2.787246
32
3.423890
13
0.101562
23
2.790135
33
3.407999
0
3DFACE
8
coconut_palm7_coconuts
10
0.078439
20
2.798395
30
3.439161
11
0.063733
21
2.777186
31
3.445484
12
0.075504
22
2.787246
32
3.423890
13
0.075504
23
2.787246
33
3.423890
0
3DFACE
8
coconut_palm7_coconuts
10
0.188243
20
2.758318
30
3.423344
11
0.183521
21
2.739966
31
3.420700
12
0.193911
22
2.743783
32
3.444854
13
0.193911
23
2.743783
33
3.444854
0
3DFACE
8
coconut_palm7_coconuts
10
0.188243
20
2.758318
30
3.423344
11
0.166652
21
2.773433
31
3.407683
12
0.158473
22
2.741645
32
3.403099
13
0.183521
23
2.739966
33
3.420700
0
3DFACE
8
coconut_palm7_coconuts
10
0.166652
20
2.773433
30
3.407683
11
0.134924
21
2.785079
31
3.402067
12
0.125481
22
2.748372
32
3.396771
13
0.158473
23
2.741645
33
3.403099
0
3DFACE
8
coconut_palm7_coconuts
10
0.134924
20
2.785079
30
3.402067
11
0.101562
21
2.790135
31
3.407999
12
0.093384
22
2.758347
32
3.403414
13
0.125481
23
2.748372
33
3.396771
0
3DFACE
8
coconut_palm7_coconuts
10
0.101562
20
2.790135
30
3.407999
11
0.075504
21
2.787246
31
3.423890
12
0.070783
22
2.768893
32
3.421244
13
0.093384
23
2.758347
33
3.403414
0
3DFACE
8
coconut_palm7_coconuts
10
0.075504
20
2.787246
30
3.423890
11
0.063733
21
2.777186
31
3.445484
12
0.070783
22
2.768893
32
3.421244
13
0.070783
23
2.768893
33
3.421244
0
3DFACE
8
coconut_palm7_coconuts
10
0.183521
20
2.739966
30
3.420700
11
0.179778
21
2.725160
31
3.432226
12
0.193911
22
2.743783
32
3.444854
13
0.193911
23
2.743783
33
3.444854
0
3DFACE
8
coconut_palm7_coconuts
10
0.183521
20
2.739966
30
3.420700
11
0.158473
21
2.741645
31
3.403099
12
0.151990
22
2.716001
32
3.423065
13
0.179778
23
2.725160
33
3.432226
0
3DFACE
8
coconut_palm7_coconuts
10
0.158473
20
2.741645
30
3.403099
11
0.125481
21
2.748372
31
3.396771
12
0.117994
22
2.718763
32
3.419831
13
0.151990
23
2.716001
33
3.423065
0
3DFACE
8
coconut_palm7_coconuts
10
0.125481
20
2.748372
30
3.396771
11
0.093384
21
2.758347
31
3.403414
12
0.086900
22
2.732702
32
3.423381
13
0.117994
23
2.718763
33
3.419831
0
3DFACE
8
coconut_palm7_coconuts
10
0.093384
20
2.758347
30
3.403414
11
0.070783
21
2.768893
31
3.421244
12
0.067039
22
2.754086
32
3.432770
13
0.086900
23
2.732702
33
3.423381
0
3DFACE
8
coconut_palm7_coconuts
10
0.070783
20
2.768893
30
3.421244
11
0.063733
21
2.777186
31
3.445484
12
0.067039
22
2.754086
32
3.432770
13
0.067039
23
2.754086
33
3.432770
0
3DFACE
8
coconut_palm7_coconuts
10
0.179778
20
2.725160
30
3.432226
11
0.179205
21
2.722576
31
3.451179
12
0.193911
22
2.743783
32
3.444854
13
0.193911
23
2.743783
33
3.444854
0
3DFACE
8
coconut_palm7_coconuts
10
0.179778
20
2.725160
30
3.432226
11
0.151990
21
2.716001
31
3.423065
12
0.150999
22
2.711524
32
3.455891
13
0.179205
23
2.722576
33
3.451179
0
3DFACE
8
coconut_palm7_coconuts
10
0.151990
20
2.716001
30
3.423065
11
0.117994
21
2.718763
31
3.419831
12
0.116851
22
2.713592
32
3.457730
13
0.150999
23
2.711524
33
3.455891
0
3DFACE
8
coconut_palm7_coconuts
10
0.117994
20
2.718763
30
3.419831
11
0.086900
21
2.732702
31
3.423381
12
0.085910
22
2.728226
32
3.456206
13
0.116851
23
2.713592
33
3.457730
0
3DFACE
8
coconut_palm7_coconuts
10
0.086900
20
2.732702
30
3.423381
11
0.067039
21
2.754086
31
3.432770
12
0.066468
22
2.751502
32
3.451721
13
0.085910
23
2.728226
33
3.456206
0
3DFACE
8
coconut_palm7_coconuts
10
0.067039
20
2.754086
30
3.432770
11
0.063733
21
2.777186
31
3.445484
12
0.066468
22
2.751502
32
3.451721
13
0.066468
23
2.751502
33
3.451721
0
3DFACE
8
coconut_palm7_coconuts
10
0.179205
20
2.722576
30
3.451179
11
0.182140
21
2.733725
31
3.466449
12
0.193911
22
2.743783
32
3.444854
13
0.193911
23
2.743783
33
3.444854
0
3DFACE
8
coconut_palm7_coconuts
10
0.179205
20
2.722576
30
3.451179
11
0.150999
21
2.711524
31
3.455891
12
0.156082
22
2.730835
32
3.482341
13
0.182140
23
2.733725
33
3.466449
0
3DFACE
8
coconut_palm7_coconuts
10
0.150999
20
2.711524
30
3.455891
11
0.116851
21
2.713592
31
3.457730
12
0.122720
22
2.735891
32
3.488273
13
0.156082
23
2.730835
33
3.482341
0
3DFACE
8
coconut_palm7_coconuts
10
0.116851
20
2.713592
30
3.457730
11
0.085910
21
2.728226
31
3.456206
12
0.090992
22
2.747536
32
3.482654
13
0.122720
23
2.735891
33
3.488273
0
3DFACE
8
coconut_palm7_coconuts
10
0.085910
20
2.728226
30
3.456206
11
0.066468
21
2.751502
31
3.451721
12
0.069402
22
2.762651
32
3.466993
13
0.090992
23
2.747536
33
3.482654
0
3DFACE
8
coconut_palm7_coconuts
10
0.066468
20
2.751502
30
3.451721
11
0.063733
21
2.777186
31
3.445484
12
0.069402
22
2.762651
32
3.466993
13
0.069402
23
2.762651
33
3.466993
0
3DFACE
8
coconut_palm7_coconuts
10
0.182140
20
2.733725
30
3.466449
11
0.186862
21
2.752077
31
3.469095
12
0.193911
22
2.743783
32
3.444854
13
0.193911
23
2.743783
33
3.444854
0
3DFACE
8
coconut_palm7_coconuts
10
0.182140
20
2.733725
30
3.466449
11
0.156082
21
2.730835
31
3.482341
12
0.164260
22
2.762622
32
3.486923
13
0.186862
23
2.752077
33
3.469095
0
3DFACE
8
coconut_palm7_coconuts
10
0.156082
20
2.730835
30
3.482341
11
0.122720
21
2.735891
31
3.488273
12
0.132163
22
2.772597
32
3.493567
13
0.164260
23
2.762622
33
3.486923
0
3DFACE
8
coconut_palm7_coconuts
10
0.122720
20
2.735891
30
3.488273
11
0.090992
21
2.747536
31
3.482654
12
0.099171
22
2.779325
32
3.487240
13
0.132163
23
2.772597
33
3.493567
0
3DFACE
8
coconut_palm7_coconuts
10
0.090992
20
2.747536
30
3.482654
11
0.069402
21
2.762651
31
3.466993
12
0.074124
22
2.781004
32
3.469640
13
0.099171
23
2.779325
33
3.487240
0
3DFACE
8
coconut_palm7_coconuts
10
0.069402
20
2.762651
30
3.466993
11
0.063733
21
2.777186
31
3.445484
12
0.074124
22
2.781004
32
3.469640
13
0.074124
23
2.781004
33
3.469640
0
3DFACE
8
coconut_palm7_coconuts
10
0.186862
20
2.752077
30
3.469095
11
0.190605
21
2.766883
31
3.457568
12
0.193911
22
2.743783
32
3.444854
13
0.193911
23
2.743783
33
3.444854
0
3DFACE
8
coconut_palm7_coconuts
10
0.186862
20
2.752077
30
3.469095
11
0.164260
21
2.762622
31
3.486923
12
0.170743
22
2.788268
32
3.466958
13
0.190605
23
2.766883
33
3.457568
0
3DFACE
8
coconut_palm7_coconuts
10
0.164260
20
2.762622
30
3.486923
11
0.132163
21
2.772597
31
3.493567
12
0.139650
22
2.802207
32
3.470509
13
0.170743
23
2.788268
33
3.466958
0
3DFACE
8
coconut_palm7_coconuts
10
0.132163
20
2.772597
30
3.493567
11
0.099171
21
2.779325
31
3.487240
12
0.105655
22
2.804969
32
3.467272
13
0.139650
23
2.802207
33
3.470509
0
3DFACE
8
coconut_palm7_coconuts
10
0.099171
20
2.779325
30
3.487240
11
0.074124
21
2.781004
31
3.469640
12
0.077867
22
2.795809
32
3.458110
13
0.105655
23
2.804969
33
3.467272
0
3DFACE
8
coconut_palm7_coconuts
10
0.074124
20
2.781004
30
3.469640
11
0.063733
21
2.777186
31
3.445484
12
0.077867
22
2.795809
32
3.458110
13
0.077867
23
2.795809
33
3.458110
0
3DFACE
8
coconut_palm7_coconuts
10
0.190605
20
2.766883
30
3.457568
11
0.191177
21
2.769467
31
3.438616
12
0.193911
22
2.743783
32
3.444854
13
0.193911
23
2.743783
33
3.444854
0
3DFACE
8
coconut_palm7_coconuts
10
0.190605
20
2.766883
30
3.457568
11
0.170743
21
2.788268
31
3.466958
12
0.171734
22
2.792744
32
3.434133
13
0.191177
23
2.769467
33
3.438616
0
3DFACE
8
coconut_palm7_coconuts
10
0.170743
20
2.788268
30
3.466958
11
0.139650
21
2.802207
31
3.470509
12
0.140794
22
2.807377
32
3.432607
13
0.171734
23
2.792744
33
3.434133
0
3DFACE
8
coconut_palm7_coconuts
10
0.139650
20
2.802207
30
3.470509
11
0.105655
21
2.804969
31
3.467272
12
0.106645
22
2.809445
32
3.434448
13
0.140794
23
2.807377
33
3.432607
0
3DFACE
8
coconut_palm7_coconuts
10
0.105655
20
2.804969
30
3.467272
11
0.077867
21
2.795809
31
3.458110
12
0.078439
22
2.798395
32
3.439161
13
0.106645
23
2.809445
33
3.434448
0
3DFACE
8
coconut_palm7_coconuts
10
0.077867
20
2.795809
30
3.458110
11
0.063733
21
2.777186
31
3.445484
12
0.078439
22
2.798395
32
3.439161
13
0.078439
23
2.798395
33
3.439161
0
3DFACE
8
coconut_palm7_coconuts
10
0.002731
20
2.800533
30
3.477930
11
-0.014307
21
2.789460
31
3.495051
12
-0.020100
22
2.786971
32
3.476985
13
-0.020100
23
2.786971
33
3.476985
0
3DFACE
8
coconut_palm7_coconuts
10
-0.014307
20
2.789460
30
3.495051
11
-0.023457
21
2.763710
31
3.508950
12
-0.033490
22
2.759400
32
3.477659
13
-0.020100
23
2.786971
33
3.476985
0
3DFACE
8
coconut_palm7_coconuts
10
-0.023457
20
2.763710
30
3.508950
11
-0.022266
21
2.730184
31
3.515902
12
-0.033851
22
2.725206
32
3.479770
13
-0.033490
23
2.759400
33
3.477659
0
3DFACE
8
coconut_palm7_coconuts
10
-0.022266
20
2.730184
30
3.515902
11
-0.011053
21
2.697863
31
3.514043
12
-0.021087
22
2.693553
32
3.482752
13
-0.033851
23
2.725206
33
3.479770
0
3DFACE
8
coconut_palm7_coconuts
10
-0.011053
20
2.697863
30
3.514043
11
0.007176
21
2.675409
31
3.503874
12
0.001383
22
2.672920
32
3.485808
13
-0.021087
23
2.693553
33
3.482752
0
3DFACE
8
coconut_palm7_coconuts
10
0.007176
20
2.675409
30
3.503874
11
0.027538
21
2.668839
31
3.488117
12
0.001383
22
2.672920
32
3.485808
13
0.001383
23
2.672920
33
3.485808
0
3DFACE
8
coconut_palm7_coconuts
10
0.002731
20
2.800533
30
3.477930
11
0.002440
21
2.793267
31
3.503487
12
-0.014307
22
2.789460
32
3.495051
13
-0.014307
23
2.789460
33
3.495051
0
3DFACE
8
coconut_palm7_coconuts
10
0.002440
20
2.793267
30
3.503487
11
0.005550
21
2.770304
31
3.523561
12
-0.023457
22
2.763710
32
3.508950
13
-0.014307
23
2.789460
33
3.495051
0
3DFACE
8
coconut_palm7_coconuts
10
0.005550
20
2.770304
30
3.523561
11
0.011228
21
2.737798
31
3.532773
12
-0.022266
22
2.730184
32
3.515902
13
-0.023457
23
2.763710
33
3.508950
0
3DFACE
8
coconut_palm7_coconuts
10
0.011228
20
2.737798
30
3.532773
11
0.017953
21
2.704458
31
3.528655
12
-0.011053
22
2.697863
32
3.514043
13
-0.022266
23
2.730184
33
3.515902
0
3DFACE
8
coconut_palm7_coconuts
10
0.017953
20
2.704458
30
3.528655
11
0.023923
21
2.679216
31
3.512309
12
0.007176
22
2.675409
32
3.503874
13
-0.011053
23
2.697863
33
3.514043
0
3DFACE
8
coconut_palm7_coconuts
10
0.023923
20
2.679216
30
3.512309
11
0.027538
21
2.668839
31
3.488117
12
0.007176
22
2.675409
32
3.503874
13
0.007176
23
2.675409
33
3.503874
0
3DFACE
8
coconut_palm7_coconuts
10
0.002731
20
2.800533
30
3.477930
11
0.020331
21
2.796162
31
3.497352
12
0.002440
22
2.793267
32
3.503487
13
0.002440
23
2.793267
33
3.503487
0
3DFACE
8
coconut_palm7_coconuts
10
0.020331
20
2.796162
30
3.497352
11
0.036538
21
2.775319
31
3.512934
12
0.005550
22
2.770304
32
3.523561
13
0.002440
23
2.793267
33
3.503487
0
3DFACE
8
coconut_palm7_coconuts
10
0.036538
20
2.775319
30
3.512934
11
0.047010
21
2.743589
31
3.520503
12
0.011228
22
2.737798
32
3.532773
13
0.005550
23
2.770304
33
3.523561
0
3DFACE
8
coconut_palm7_coconuts
10
0.047010
20
2.743589
30
3.520503
11
0.048941
21
2.709472
31
3.518027
12
0.017953
22
2.704458
32
3.528655
13
0.011228
23
2.737798
33
3.532773
0
3DFACE
8
coconut_palm7_coconuts
10
0.048941
20
2.709472
30
3.518027
11
0.041814
21
2.682112
31
3.506174
12
0.023923
22
2.679216
32
3.512309
13
0.017953
23
2.704458
33
3.528655
0
3DFACE
8
coconut_palm7_coconuts
10
0.041814
20
2.682112
30
3.506174
11
0.027538
21
2.668839
31
3.488117
12
0.023923
22
2.679216
32
3.512309
13
0.023923
23
2.679216
33
3.512309
0
3DFACE
8
coconut_palm7_coconuts
10
0.002731
20
2.800533
30
3.477930
11
0.028886
21
2.796450
31
3.480239
12
0.020331
22
2.796162
32
3.497352
13
0.020331
23
2.796162
33
3.497352
0
3DFACE
8
coconut_palm7_coconuts
10
0.028886
20
2.796450
30
3.480239
11
0.051356
21
2.775818
31
3.483294
12
0.036538
22
2.775319
32
3.512934
13
0.020331
23
2.796162
33
3.497352
0
3DFACE
8
coconut_palm7_coconuts
10
0.051356
20
2.775818
30
3.483294
11
0.064120
21
2.744164
31
3.486277
12
0.047010
22
2.743589
32
3.520503
13
0.036538
23
2.775319
33
3.512934
0
3DFACE
8
coconut_palm7_coconuts
10
0.064120
20
2.744164
30
3.486277
11
0.063759
21
2.709970
31
3.488387
12
0.048941
22
2.709472
32
3.518027
13
0.047010
23
2.743589
33
3.520503
0
3DFACE
8
coconut_palm7_coconuts
10
0.063759
20
2.709970
30
3.488387
11
0.050369
21
2.682399
31
3.489061
12
0.041814
22
2.682112
32
3.506174
13
0.048941
23
2.709472
33
3.518027
0
3DFACE
8
coconut_palm7_coconuts
10
0.050369
20
2.682399
30
3.489061
11
0.027538
21
2.668839
31
3.488117
12
0.041814
22
2.682112
32
3.506174
13
0.041814
23
2.682112
33
3.506174
0
3DFACE
8
coconut_palm7_coconuts
10
0.002731
20
2.800533
30
3.477930
11
0.023093
21
2.793961
31
3.462173
12
0.028886
22
2.796450
32
3.480239
13
0.028886
23
2.796450
33
3.480239
0
3DFACE
8
coconut_palm7_coconuts
10
0.023093
20
2.793961
30
3.462173
11
0.041323
21
2.771507
31
3.452003
12
0.051356
22
2.775818
32
3.483294
13
0.028886
23
2.796450
33
3.480239
0
3DFACE
8
coconut_palm7_coconuts
10
0.041323
20
2.771507
30
3.452003
11
0.052535
21
2.739187
31
3.450145
12
0.064120
22
2.744164
32
3.486277
13
0.051356
23
2.775818
33
3.483294
0
3DFACE
8
coconut_palm7_coconuts
10
0.052535
20
2.739187
30
3.450145
11
0.053726
21
2.705660
31
3.457097
12
0.063759
22
2.709970
32
3.488387
13
0.064120
23
2.744164
33
3.486277
0
3DFACE
8
coconut_palm7_coconuts
10
0.053726
20
2.705660
30
3.457097
11
0.044576
21
2.679911
31
3.470996
12
0.050369
22
2.682399
32
3.489061
13
0.063759
23
2.709970
33
3.488387
0
3DFACE
8
coconut_palm7_coconuts
10
0.044576
20
2.679911
30
3.470996
11
0.027538
21
2.668839
31
3.488117
12
0.050369
22
2.682399
32
3.489061
13
0.050369
23
2.682399
33
3.489061
0
3DFACE
8
coconut_palm7_coconuts
10
0.002731
20
2.800533
30
3.477930
11
0.006346
21
2.790154
31
3.453737
12
0.023093
22
2.793961
32
3.462173
13
0.023093
23
2.793961
33
3.462173
0
3DFACE
8
coconut_palm7_coconuts
10
0.006346
20
2.790154
30
3.453737
11
0.012316
21
2.764913
31
3.437392
12
0.041323
22
2.771507
32
3.452003
13
0.023093
23
2.793961
33
3.462173
0
3DFACE
8
coconut_palm7_coconuts
10
0.012316
20
2.764913
30
3.437392
11
0.019041
21
2.731573
31
3.433273
12
0.052535
22
2.739187
32
3.450145
13
0.041323
23
2.771507
33
3.452003
0
3DFACE
8
coconut_palm7_coconuts
10
0.019041
20
2.731573
30
3.433273
11
0.024719
21
2.699066
31
3.442485
12
0.053726
22
2.705660
32
3.457097
13
0.052535
23
2.739187
33
3.450145
0
3DFACE
8
coconut_palm7_coconuts
10
0.024719
20
2.699066
30
3.442485
11
0.027829
21
2.676104
31
3.462559
12
0.044576
22
2.679911
32
3.470996
13
0.053726
23
2.705660
33
3.457097
0
3DFACE
8
coconut_palm7_coconuts
10
0.027829
20
2.676104
30
3.462559
11
0.027538
21
2.668839
31
3.488117
12
0.044576
22
2.679911
32
3.470996
13
0.044576
23
2.679911
33
3.470996
0
3DFACE
8
coconut_palm7_coconuts
10
0.002731
20
2.800533
30
3.477930
11
-0.011545
21
2.787259
31
3.459872
12
0.006346
22
2.790154
32
3.453737
13
0.006346
23
2.790154
33
3.453737
0
3DFACE
8
coconut_palm7_coconuts
10
-0.011545
20
2.787259
30
3.459872
11
-0.018672
21
2.759898
31
3.448018
12
0.012316
22
2.764913
32
3.437392
13
0.006346
23
2.790154
33
3.453737
0
3DFACE
8
coconut_palm7_coconuts
10
-0.018672
20
2.759898
30
3.448018
11
-0.016741
21
2.725782
31
3.445544
12
0.019041
22
2.731573
32
3.433273
13
0.012316
23
2.764913
33
3.437392
0
3DFACE
8
coconut_palm7_coconuts
10
-0.016741
20
2.725782
30
3.445544
11
-0.006269
21
2.694051
31
3.453112
12
0.024719
22
2.699066
32
3.442485
13
0.019041
23
2.731573
33
3.433273
0
3DFACE
8
coconut_palm7_coconuts
10
-0.006269
20
2.694051
30
3.453112
11
0.009938
21
2.673209
31
3.468695
12
0.027829
22
2.676104
32
3.462559
13
0.024719
23
2.699066
33
3.442485
0
3DFACE
8
coconut_palm7_coconuts
10
0.009938
20
2.673209
30
3.468695
11
0.027538
21
2.668839
31
3.488117
12
0.027829
22
2.676104
32
3.462559
13
0.027829
23
2.676104
33
3.462559
0
3DFACE
8
coconut_palm7_coconuts
10
0.002731
20
2.800533
30
3.477930
11
-0.020100
21
2.786971
31
3.476985
12
-0.011545
22
2.787259
32
3.459872
13
-0.011545
23
2.787259
33
3.459872
0
3DFACE
8
coconut_palm7_coconuts
10
-0.020100
20
2.786971
30
3.476985
11
-0.033490
21
2.759400
31
3.477659
12
-0.018672
22
2.759898
32
3.448018
13
-0.011545
23
2.787259
33
3.459872
0
3DFACE
8
coconut_palm7_coconuts
10
-0.033490
20
2.759400
30
3.477659
11
-0.033851
21
2.725206
31
3.479770
12
-0.016741
22
2.725782
32
3.445544
13
-0.018672
23
2.759898
33
3.448018
0
3DFACE
8
coconut_palm7_coconuts
10
-0.033851
20
2.725206
30
3.479770
11
-0.021087
21
2.693553
31
3.482752
12
-0.006269
22
2.694051
32
3.453112
13
-0.016741
23
2.725782
33
3.445544
0
3DFACE
8
coconut_palm7_coconuts
10
-0.021087
20
2.693553
30
3.482752
11
0.001383
21
2.672920
31
3.485808
12
0.009938
22
2.673209
32
3.468695
13
-0.006269
23
2.694051
33
3.453112
0
3DFACE
8
coconut_palm7_coconuts
10
0.001383
20
2.672920
30
3.485808
11
0.027538
21
2.668839
31
3.488117
12
0.009938
22
2.673209
32
3.468695
13
0.009938
23
2.673209
33
3.468695
0
ENDSEC
0
EOF
