999
DXF file generated by Cheetah3D
0
SECTION
2
ENTITIES
0
3DFACE
8
coconut_palm5_trunk
10
0.172666
20
-0.000000
30
0.000000
11
0.114451
21
-0.083154
31
0.000000
12
0.098020
22
-0.071071
32
0.499981
13
0.105426
23
0.000049
33
0.499972
0
3DFACE
8
coconut_palm5_trunk
10
0.114451
20
-0.083154
30
0.000000
11
0.054934
21
-0.169070
31
0.000000
12
0.030293
22
-0.092779
32
0.500001
13
0.098020
23
-0.071071
33
0.499981
0
3DFACE
8
coconut_palm5_trunk
10
0.054934
20
-0.169070
30
0.000000
11
-0.048858
21
-0.150371
31
0.000000
12
-0.030877
22
-0.095388
32
0.500017
13
0.030293
23
-0.092779
33
0.500001
0
3DFACE
8
coconut_palm5_trunk
10
-0.048858
20
-0.150371
30
0.000000
11
-0.139859
21
-0.101614
31
0.000000
12
-0.097860
22
-0.071146
32
0.500033
13
-0.030877
23
-0.095388
33
0.500017
0
3DFACE
8
coconut_palm5_trunk
10
-0.139859
20
-0.101614
30
0.000000
11
-0.147128
21
-0.000000
31
0.000000
12
-0.120970
22
0.000049
32
0.500032
13
-0.097860
23
-0.071146
33
0.500033
0
3DFACE
8
coconut_palm5_trunk
10
-0.147128
20
-0.000000
30
0.000000
11
-0.129326
21
0.093961
31
0.000000
12
-0.093559
22
0.068119
32
0.500018
13
-0.120970
23
0.000049
33
0.500032
0
3DFACE
8
coconut_palm5_trunk
10
-0.129326
20
0.093961
30
0.000000
11
-0.049541
21
0.152470
31
0.000000
12
-0.034571
22
0.106854
32
0.499999
13
-0.093559
23
0.068119
33
0.500018
0
3DFACE
8
coconut_palm5_trunk
10
-0.049541
20
0.152470
30
0.000000
11
0.052937
21
0.162925
31
0.000000
12
0.035865
22
0.110025
32
0.499980
13
-0.034571
23
0.106854
33
0.499999
0
3DFACE
8
coconut_palm5_trunk
10
0.052937
20
0.162925
30
0.000000
11
0.131128
21
0.095270
31
0.000000
12
0.080672
22
0.058564
32
0.499973
13
0.035865
23
0.110025
33
0.499980
0
3DFACE
8
coconut_palm5_trunk
10
0.131128
20
0.095270
30
0.000000
11
0.172666
21
0.000000
31
0.000000
12
0.105426
22
0.000049
32
0.499972
13
0.080672
23
0.058564
33
0.499973
0
3DFACE
8
coconut_palm5_trunk
10
0.105426
20
0.000049
30
0.499972
11
0.098020
21
-0.071071
31
0.499981
12
0.074449
22
-0.051759
32
1.000149
13
0.112797
23
0.002498
33
1.000023
0
3DFACE
8
coconut_palm5_trunk
10
0.098020
20
-0.071071
30
0.499981
11
0.030293
21
-0.092779
31
0.500001
12
0.034066
22
-0.103049
32
1.000268
13
0.074449
23
-0.051759
33
1.000149
0
3DFACE
8
coconut_palm5_trunk
10
0.030293
20
-0.092779
30
0.500001
11
-0.030877
21
-0.095388
31
0.500017
12
-0.029860
22
-0.088699
32
1.000218
13
0.034066
23
-0.103049
33
1.000268
0
3DFACE
8
coconut_palm5_trunk
10
-0.030877
20
-0.095388
30
0.500017
11
-0.097860
21
-0.071146
31
0.500033
12
-0.086239
22
-0.059993
32
1.000133
13
-0.029860
23
-0.088699
33
1.000218
0
3DFACE
8
coconut_palm5_trunk
10
-0.097860
20
-0.071146
30
0.500033
11
-0.120970
21
0.000049
31
0.500032
12
-0.112049
22
0.002498
32
0.999971
13
-0.086239
23
-0.059993
33
1.000133
0
3DFACE
8
coconut_palm5_trunk
10
-0.120970
20
0.000049
30
0.500032
11
-0.093559
21
0.068119
31
0.500018
12
-0.092608
22
0.069615
32
0.999808
13
-0.112049
23
0.002498
33
0.999971
0
3DFACE
8
coconut_palm5_trunk
10
-0.093559
20
0.068119
30
0.500018
11
-0.034571
21
0.106854
31
0.499999
12
-0.029175
22
0.091584
32
0.999768
13
-0.092608
23
0.069615
33
0.999808
0
3DFACE
8
coconut_palm5_trunk
10
-0.034571
20
0.106854
30
0.499999
11
0.035865
21
0.110025
31
0.499980
12
0.030094
22
0.095821
32
0.999771
13
-0.029175
23
0.091584
33
0.999768
0
3DFACE
8
coconut_palm5_trunk
10
0.035865
20
0.110025
30
0.499980
11
0.080672
21
0.058564
31
0.499973
12
0.084164
22
0.063812
32
0.999863
13
0.030094
23
0.095821
33
0.999771
0
3DFACE
8
coconut_palm5_trunk
10
0.080672
20
0.058564
30
0.499973
11
0.105426
21
0.000049
31
0.499972
12
0.112797
22
0.002498
32
1.000023
13
0.084164
23
0.063812
33
0.999863
0
3DFACE
8
coconut_palm5_trunk
10
0.112797
20
0.002498
30
1.000023
11
0.074449
21
-0.051759
31
1.000149
12
0.337746
22
-0.053500
32
1.500512
13
0.347464
23
0.008556
33
1.500180
0
3DFACE
8
coconut_palm5_trunk
10
0.074449
20
-0.051759
30
1.000149
11
0.034066
21
-0.103049
31
1.000268
12
0.284595
22
-0.090512
32
1.500607
13
0.337746
23
-0.053500
33
1.500512
0
3DFACE
8
coconut_palm5_trunk
10
0.034066
20
-0.103049
30
1.000268
11
-0.029860
21
-0.088699
31
1.000218
12
0.222042
22
-0.084486
32
1.500437
13
0.284595
23
-0.090512
33
1.500607
0
3DFACE
8
coconut_palm5_trunk
10
-0.029860
20
-0.088699
30
1.000218
11
-0.086239
21
-0.059993
31
1.000133
12
0.160149
22
-0.058217
32
1.500153
13
0.222042
23
-0.084486
33
1.500437
0
3DFACE
8
coconut_palm5_trunk
10
-0.086239
20
-0.059993
30
1.000133
11
-0.112049
21
0.002498
31
0.999971
12
0.149684
22
0.008556
32
1.499750
13
0.160149
23
-0.058217
33
1.500153
0
3DFACE
8
coconut_palm5_trunk
10
-0.112049
20
0.002498
30
0.999971
11
-0.092608
21
0.069615
31
0.999808
12
0.165412
22
0.071101
32
1.499428
13
0.149684
23
0.008556
33
1.499750
0
3DFACE
8
coconut_palm5_trunk
10
-0.092608
20
0.069615
30
0.999808
11
-0.029175
21
0.091584
31
0.999768
12
0.220672
22
0.103282
32
1.499365
13
0.165412
23
0.071101
33
1.499428
0
3DFACE
8
coconut_palm5_trunk
10
-0.029175
20
0.091584
30
0.999768
11
0.030094
21
0.095821
31
0.999771
12
0.281035
22
0.099241
32
1.499519
13
0.220672
23
0.103282
33
1.499365
0
3DFACE
8
coconut_palm5_trunk
10
0.030094
20
0.095821
30
0.999771
11
0.084164
21
0.063812
31
0.999863
12
0.324042
22
0.061037
32
1.499830
13
0.281035
23
0.099241
33
1.499519
0
3DFACE
8
coconut_palm5_trunk
10
0.084164
20
0.063812
30
0.999863
11
0.112797
21
0.002498
31
1.000023
12
0.347464
22
0.008556
32
1.500180
13
0.324042
23
0.061037
33
1.499830
0
3DFACE
8
coconut_palm5_trunk
10
0.347464
20
0.008556
30
1.500180
11
0.337746
21
-0.053500
31
1.500512
12
0.699929
22
-0.037390
32
2.000826
13
0.716109
23
0.015811
33
2.000521
0
3DFACE
8
coconut_palm5_trunk
10
0.337746
20
-0.053500
30
1.500512
11
0.284595
21
-0.090512
31
1.500607
12
0.655079
22
-0.071632
32
2.000780
13
0.699929
23
-0.037390
33
2.000826
0
3DFACE
8
coconut_palm5_trunk
10
0.284595
20
-0.090512
30
1.500607
11
0.222042
21
-0.084486
31
1.500437
12
0.594986
22
-0.080859
32
2.000430
13
0.655079
23
-0.071632
33
2.000780
0
3DFACE
8
coconut_palm5_trunk
10
0.222042
20
-0.084486
30
1.500437
11
0.160149
21
-0.058217
31
1.500153
12
0.539425
22
-0.047011
32
1.999773
13
0.594986
23
-0.080859
33
2.000430
0
3DFACE
8
coconut_palm5_trunk
10
0.160149
20
-0.058217
30
1.500153
11
0.149684
21
0.008556
31
1.499750
12
0.532773
22
0.015811
32
1.999232
13
0.539425
23
-0.047011
33
1.999773
0
3DFACE
8
coconut_palm5_trunk
10
0.149684
20
0.008556
30
1.499750
11
0.165412
21
0.071101
31
1.499428
12
0.540566
22
0.077267
32
1.998804
13
0.532773
23
0.015811
33
1.999232
0
3DFACE
8
coconut_palm5_trunk
10
0.165412
20
0.071101
30
1.499428
11
0.220672
21
0.103282
31
1.499365
12
0.593755
22
0.112679
32
1.998899
13
0.540566
23
0.077267
33
1.998804
0
3DFACE
8
coconut_palm5_trunk
10
0.220672
20
0.103282
30
1.499365
11
0.281035
21
0.099241
31
1.499519
12
0.656657
22
0.111464
32
1.999351
13
0.593755
23
0.112679
33
1.998899
0
3DFACE
8
coconut_palm5_trunk
10
0.281035
20
0.099241
30
1.499519
11
0.324042
21
0.061037
31
1.499830
12
0.712146
22
0.078344
32
2.000002
13
0.656657
23
0.111464
33
1.999351
0
3DFACE
8
coconut_palm5_trunk
10
0.324042
20
0.061037
30
1.499830
11
0.347464
21
0.008556
31
1.500180
12
0.716109
22
0.015811
32
2.000521
13
0.712146
23
0.078344
33
2.000002
0
3DFACE
8
coconut_palm5_trunk
10
0.716109
20
0.015811
30
2.000521
11
0.699929
21
-0.037390
31
2.000826
12
0.804756
22
-0.033373
32
2.500877
13
0.830478
23
0.014770
33
2.500917
0
3DFACE
8
coconut_palm5_trunk
10
0.699929
20
-0.037390
30
2.000826
11
0.655079
21
-0.071632
31
2.000780
12
0.764911
22
-0.066537
32
2.500571
13
0.804756
23
-0.033373
33
2.500877
0
3DFACE
8
coconut_palm5_trunk
10
0.655079
20
-0.071632
30
2.000780
11
0.594986
21
-0.080859
31
2.000430
12
0.709072
22
-0.075784
32
2.499922
13
0.764911
23
-0.066537
33
2.500571
0
3DFACE
8
coconut_palm5_trunk
10
0.594986
20
-0.080859
30
2.000430
11
0.539425
21
-0.047011
31
1.999773
12
0.659522
22
-0.042610
32
2.499102
13
0.709072
23
-0.075784
33
2.499922
0
3DFACE
8
coconut_palm5_trunk
10
0.539425
20
-0.047011
30
1.999773
11
0.532773
21
0.015811
31
1.999232
12
0.656012
22
0.014770
32
2.498719
13
0.659522
23
-0.042610
33
2.499102
0
3DFACE
8
coconut_palm5_trunk
10
0.532773
20
0.015811
30
1.999232
11
0.540566
21
0.077267
31
1.998804
12
0.657628
22
0.073534
32
2.498392
13
0.656012
23
0.014770
33
2.498719
0
3DFACE
8
coconut_palm5_trunk
10
0.540566
20
0.077267
30
1.998804
11
0.593755
21
0.112679
31
1.998899
12
0.707467
22
0.110306
32
2.498802
13
0.657628
23
0.073534
33
2.498392
0
3DFACE
8
coconut_palm5_trunk
10
0.593755
20
0.112679
30
1.998899
11
0.656657
21
0.111464
31
1.999351
12
0.764631
22
0.095180
32
2.499612
13
0.707467
23
0.110306
33
2.498802
0
3DFACE
8
coconut_palm5_trunk
10
0.656657
20
0.111464
30
1.999351
11
0.712146
21
0.078344
31
2.000002
12
0.818690
22
0.073033
32
2.500424
13
0.764631
23
0.095180
33
2.499612
0
3DFACE
8
coconut_palm5_trunk
10
0.712146
20
0.078344
30
2.000002
11
0.716109
21
0.015811
31
2.000521
12
0.830478
22
0.014770
32
2.500917
13
0.818690
23
0.073033
33
2.500424
0
3DFACE
8
coconut_palm5_trunk
10
0.830478
20
0.014770
30
2.500917
11
0.804756
21
-0.033373
31
2.500877
12
0.779023
22
-0.010314
32
3.002905
13
0.798726
23
0.036375
33
3.003624
0
3DFACE
8
coconut_palm5_trunk
10
0.804756
20
-0.033373
30
2.500877
11
0.764911
21
-0.066537
31
2.500571
12
0.742472
22
-0.048773
32
3.000976
13
0.779023
23
-0.010314
33
3.002905
0
3DFACE
8
coconut_palm5_trunk
10
0.764911
20
-0.066537
30
2.500571
11
0.709072
21
-0.075784
31
2.499922
12
0.688246
22
-0.045718
32
2.997406
13
0.742472
23
-0.048773
33
3.000976
0
3DFACE
8
coconut_palm5_trunk
10
0.709072
20
-0.075784
30
2.499922
11
0.659522
21
-0.042610
31
2.499102
12
0.648434
22
-0.012007
32
2.994440
13
0.688246
23
-0.045718
33
2.997406
0
3DFACE
8
coconut_palm5_trunk
10
0.659522
20
-0.042610
30
2.499102
11
0.656012
21
0.014770
31
2.498719
12
0.636612
22
0.036375
32
2.993117
13
0.648434
23
-0.012007
33
2.994440
0
3DFACE
8
coconut_palm5_trunk
10
0.656012
20
0.014770
30
2.498719
11
0.657628
21
0.073534
31
2.498392
12
0.645117
22
0.087226
32
2.993063
13
0.636612
23
0.036375
33
2.993117
0
3DFACE
8
coconut_palm5_trunk
10
0.657628
20
0.073534
30
2.498392
11
0.707467
21
0.110306
31
2.498802
12
0.685158
22
0.128406
32
2.995132
13
0.645117
23
0.087226
33
2.993063
0
3DFACE
8
coconut_palm5_trunk
10
0.707467
20
0.110306
30
2.498802
11
0.764631
21
0.095180
31
2.499612
12
0.744767
22
0.128168
32
2.998971
13
0.685158
23
0.128406
33
2.995132
0
3DFACE
8
coconut_palm5_trunk
10
0.764631
20
0.095180
30
2.499612
11
0.818690
21
0.073033
31
2.500424
12
0.781024
22
0.084465
32
3.001866
13
0.744767
23
0.128168
33
2.998971
0
3DFACE
8
coconut_palm5_trunk
10
0.818690
20
0.073033
30
2.500424
11
0.830478
21
0.014770
31
2.500917
12
0.798726
22
0.036375
32
3.003624
13
0.781024
23
0.084465
33
3.001866
0
3DFACE
8
coconut_palm5_trunk
10
0.798726
20
0.036375
30
3.003624
11
0.779023
21
-0.010314
31
3.002905
12
0.684059
22
-0.016175
32
3.498749
13
0.694538
23
0.030431
33
3.501041
0
3DFACE
8
coconut_palm5_trunk
10
0.779023
20
-0.010314
30
3.002905
11
0.742472
21
-0.048773
31
3.000976
12
0.645247
22
-0.043810
32
3.488956
13
0.684059
23
-0.016175
33
3.498749
0
3DFACE
8
coconut_palm5_trunk
10
0.742472
20
-0.048773
30
3.000976
11
0.688246
21
-0.045718
31
2.997406
12
0.597876
22
-0.045875
32
3.476753
13
0.645247
23
-0.043810
33
3.488956
0
3DFACE
8
coconut_palm5_trunk
10
0.688246
20
-0.045718
30
2.997406
11
0.648434
21
-0.012007
31
2.994440
12
0.549509
22
-0.023900
32
3.464127
13
0.597876
23
-0.045875
33
3.476753
0
3DFACE
8
coconut_palm5_trunk
10
0.648434
20
-0.012007
30
2.994440
11
0.636612
21
0.036375
31
2.993117
12
0.542394
22
0.030431
32
3.461837
13
0.549509
23
-0.023900
33
3.464127
0
3DFACE
8
coconut_palm5_trunk
10
0.636612
20
0.036375
30
2.993117
11
0.645117
21
0.087226
31
2.993063
12
0.549314
22
0.085079
32
3.463143
13
0.542394
23
0.030431
33
3.461837
0
3DFACE
8
coconut_palm5_trunk
10
0.645117
20
0.087226
30
2.993063
11
0.685158
21
0.128406
31
2.995132
12
0.597847
22
0.107866
32
3.475402
13
0.549314
23
0.085079
33
3.463143
0
3DFACE
8
coconut_palm5_trunk
10
0.685158
20
0.128406
30
2.995132
11
0.744767
21
0.128168
31
2.998971
12
0.644754
22
0.102105
32
3.487530
13
0.597847
23
0.107866
33
3.475402
0
3DFACE
8
coconut_palm5_trunk
10
0.744767
20
0.128168
30
2.998971
11
0.781024
21
0.084465
31
3.001866
12
0.687858
22
0.079731
32
3.498865
13
0.644754
23
0.102105
33
3.487530
0
3DFACE
8
coconut_palm5_trunk
10
0.781024
20
0.084465
30
3.001866
11
0.798726
21
0.036375
31
3.003624
12
0.694538
22
0.030431
32
3.501041
13
0.687858
23
0.079731
33
3.498865
0
3DFACE
8
coconut_palm5_trunk
10
0.694538
20
0.030431
30
3.501041
11
0.684059
21
-0.016175
31
3.498749
12
0.501358
22
-0.057146
32
3.964269
13
0.519839
23
-0.016825
33
3.972067
0
3DFACE
8
coconut_palm5_trunk
10
0.684059
20
-0.016175
30
3.498749
11
0.645247
21
-0.043810
31
3.488956
12
0.474928
22
-0.099423
32
3.953188
13
0.501358
23
-0.057146
33
3.964269
0
3DFACE
8
coconut_palm5_trunk
10
0.645247
20
-0.043810
30
3.488956
11
0.597876
21
-0.045875
31
3.476753
12
0.429707
22
-0.084672
32
3.934624
13
0.474928
23
-0.099423
33
3.953188
0
3DFACE
8
coconut_palm5_trunk
10
0.597876
20
-0.045875
30
3.476753
11
0.549509
21
-0.023900
31
3.464127
12
0.389601
22
-0.064331
32
3.918193
13
0.429707
23
-0.084672
33
3.934624
0
3DFACE
8
coconut_palm5_trunk
10
0.549509
20
-0.023900
30
3.464127
11
0.542394
21
0.030431
31
3.461837
12
0.371364
22
-0.016825
32
3.910896
13
0.389601
23
-0.064331
33
3.918193
0
3DFACE
8
coconut_palm5_trunk
10
0.542394
20
0.030431
30
3.461837
11
0.549314
21
0.085079
31
3.463143
12
0.391156
22
0.029340
32
3.919260
13
0.371364
23
-0.016825
33
3.910896
0
3DFACE
8
coconut_palm5_trunk
10
0.549314
20
0.085079
30
3.463143
11
0.597847
21
0.107866
31
3.475402
12
0.428634
22
0.053853
32
3.934812
13
0.391156
23
0.029340
33
3.919260
0
3DFACE
8
coconut_palm5_trunk
10
0.597847
20
0.107866
30
3.475402
11
0.644754
21
0.102105
31
3.487530
12
0.472762
22
0.059411
32
3.953018
13
0.428634
23
0.053853
33
3.934812
0
3DFACE
8
coconut_palm5_trunk
10
0.644754
20
0.102105
30
3.487530
11
0.687858
21
0.079731
31
3.498865
12
0.514926
22
0.034272
32
3.970276
13
0.472762
23
0.059411
33
3.953018
0
3DFACE
8
coconut_palm5_trunk
10
0.687858
20
0.079731
30
3.498865
11
0.694538
21
0.030431
31
3.501041
12
0.519839
22
-0.016825
32
3.972067
13
0.514926
23
0.034272
33
3.970276
0
3DFACE
8
coconut_palm5_trunk
10
0.519839
20
-0.016825
30
3.972067
11
0.501358
21
-0.057146
31
3.964269
12
0.365902
22
-0.153862
32
4.446843
13
0.386023
23
-0.082030
33
4.456468
0
3DFACE
8
coconut_palm5_trunk
10
0.501358
20
-0.057146
30
3.964269
11
0.474928
21
-0.099423
31
3.953188
12
0.316150
22
-0.219465
32
4.425250
13
0.365902
23
-0.153862
33
4.446843
0
3DFACE
8
coconut_palm5_trunk
10
0.474928
20
-0.099423
30
3.953188
11
0.429707
21
-0.084672
31
3.934624
12
0.239924
22
-0.197427
32
4.394580
13
0.316150
23
-0.219465
33
4.425250
0
3DFACE
8
coconut_palm5_trunk
10
0.429707
20
-0.084672
30
3.934624
11
0.389601
21
-0.064331
31
3.918193
12
0.185788
22
-0.151496
32
4.373394
13
0.239924
23
-0.197427
33
4.394580
0
3DFACE
8
coconut_palm5_trunk
10
0.389601
20
-0.064331
30
3.918193
11
0.371364
21
-0.016825
31
3.910896
12
0.146792
22
-0.082030
32
4.358850
13
0.185788
23
-0.151496
33
4.373394
0
3DFACE
8
coconut_palm5_trunk
10
0.371364
20
-0.016825
30
3.910896
11
0.391156
21
0.029340
31
3.919260
12
0.182107
22
-0.010437
32
4.374669
13
0.146792
23
-0.082030
33
4.358850
0
3DFACE
8
coconut_palm5_trunk
10
0.391156
20
0.029340
30
3.919260
11
0.428634
21
0.053853
31
3.934812
12
0.236591
22
0.039030
32
4.397876
13
0.182107
23
-0.010437
33
4.374669
0
3DFACE
8
coconut_palm5_trunk
10
0.428634
20
0.053853
30
3.934812
11
0.472762
21
0.059411
31
3.953018
12
0.313476
22
0.052752
32
4.429519
13
0.236591
23
0.039030
33
4.397876
0
3DFACE
8
coconut_palm5_trunk
10
0.472762
20
0.059411
30
3.953018
11
0.514926
21
0.034272
31
3.970276
12
0.363166
22
-0.011575
32
4.448528
13
0.313476
23
0.052752
33
4.429519
0
3DFACE
8
coconut_palm5_trunk
10
0.514926
20
0.034272
30
3.970276
11
0.519839
21
-0.016825
31
3.972067
12
0.386023
22
-0.082030
32
4.456468
13
0.363166
23
-0.011575
33
4.448528
0
3DFACE
8
coconut_palm5_trunk
10
0.386023
20
-0.082030
30
4.456468
11
0.365902
21
-0.153862
31
4.446843
12
0.046497
22
-0.094697
32
4.857615
13
0.048029
23
-0.087522
33
4.858396
0
3DFACE
8
coconut_palm5_trunk
10
0.365902
20
-0.153862
30
4.446843
11
0.316150
21
-0.219465
31
4.425250
12
0.040291
22
-0.097149
32
4.854962
13
0.046497
23
-0.094697
33
4.857615
0
3DFACE
8
coconut_palm5_trunk
10
0.316150
20
-0.219465
30
4.425250
11
0.239924
21
-0.197427
31
4.394580
12
0.034064
22
-0.098716
32
4.852316
13
0.040291
23
-0.097149
33
4.854962
0
3DFACE
8
coconut_palm5_trunk
10
0.239924
20
-0.197427
30
4.394580
11
0.185788
21
-0.151496
31
4.373394
12
0.028535
22
-0.094498
32
4.850073
13
0.034064
23
-0.098716
33
4.852316
0
3DFACE
8
coconut_palm5_trunk
10
0.185788
20
-0.151496
30
4.373394
11
0.146792
21
-0.082030
31
4.358850
12
0.027933
22
-0.087522
32
4.849953
13
0.028535
23
-0.094498
33
4.850073
0
3DFACE
8
coconut_palm5_trunk
10
0.146792
20
-0.082030
30
4.358850
11
0.182107
21
-0.010437
31
4.374669
12
0.029805
22
-0.081615
32
4.850852
13
0.027933
23
-0.087522
33
4.849953
0
3DFACE
8
coconut_palm5_trunk
10
0.182107
20
-0.010437
30
4.374669
11
0.236591
21
0.039030
31
4.397876
12
0.034325
22
-0.077678
32
4.852826
13
0.029805
23
-0.081615
33
4.850852
0
3DFACE
8
coconut_palm5_trunk
10
0.236591
20
0.039030
30
4.397876
11
0.313476
21
0.052752
31
4.429519
12
0.040164
22
-0.077882
32
4.855274
13
0.034325
23
-0.077678
33
4.852826
0
3DFACE
8
coconut_palm5_trunk
10
0.313476
20
0.052752
30
4.429519
11
0.363166
21
-0.011575
31
4.448528
12
0.046958
22
-0.079904
32
4.858090
13
0.040164
23
-0.077882
33
4.855274
0
3DFACE
8
coconut_palm5_trunk
10
0.363166
20
-0.011575
30
4.448528
11
0.386023
21
-0.082030
31
4.456468
12
0.048029
22
-0.087522
32
4.858396
13
0.046958
23
-0.079904
33
4.858090
0
3DFACE
8
coconut_palm5_trunk
10
0.048029
20
-0.087522
30
4.858396
11
0.046497
21
-0.094697
31
4.857615
12
0.037660
22
-0.087718
32
4.854036
13
0.037660
23
-0.087718
33
4.854036
0
3DFACE
8
coconut_palm5_trunk
10
0.046497
20
-0.094697
30
4.857615
11
0.040291
21
-0.097149
31
4.854962
12
0.037660
22
-0.087718
32
4.854036
13
0.037660
23
-0.087718
33
4.854036
0
3DFACE
8
coconut_palm5_trunk
10
0.040291
20
-0.097149
30
4.854962
11
0.034064
21
-0.098716
31
4.852316
12
0.037660
22
-0.087718
32
4.854036
13
0.037660
23
-0.087718
33
4.854036
0
3DFACE
8
coconut_palm5_trunk
10
0.034064
20
-0.098716
30
4.852316
11
0.028535
21
-0.094498
31
4.850073
12
0.037660
22
-0.087718
32
4.854036
13
0.037660
23
-0.087718
33
4.854036
0
3DFACE
8
coconut_palm5_trunk
10
0.028535
20
-0.094498
30
4.850073
11
0.027933
21
-0.087522
31
4.849953
12
0.037660
22
-0.087718
32
4.854036
13
0.037660
23
-0.087718
33
4.854036
0
3DFACE
8
coconut_palm5_trunk
10
0.027933
20
-0.087522
30
4.849953
11
0.029805
21
-0.081615
31
4.850852
12
0.037660
22
-0.087718
32
4.854036
13
0.037660
23
-0.087718
33
4.854036
0
3DFACE
8
coconut_palm5_trunk
10
0.029805
20
-0.081615
30
4.850852
11
0.034325
21
-0.077678
31
4.852826
12
0.037660
22
-0.087718
32
4.854036
13
0.037660
23
-0.087718
33
4.854036
0
3DFACE
8
coconut_palm5_trunk
10
0.034325
20
-0.077678
30
4.852826
11
0.040164
21
-0.077882
31
4.855274
12
0.037660
22
-0.087718
32
4.854036
13
0.037660
23
-0.087718
33
4.854036
0
3DFACE
8
coconut_palm5_trunk
10
0.040164
20
-0.077882
30
4.855274
11
0.046958
21
-0.079904
31
4.858090
12
0.037660
22
-0.087718
32
4.854036
13
0.037660
23
-0.087718
33
4.854036
0
3DFACE
8
coconut_palm5_trunk
10
0.046958
20
-0.079904
30
4.858090
11
0.048029
21
-0.087522
31
4.858396
12
0.037660
22
-0.087718
32
4.854036
13
0.037660
23
-0.087718
33
4.854036
0
3DFACE
8
coconut_palm5_leaves
10
-0.109510
20
0.488961
30
5.548288
11
0.301999
21
0.712630
31
5.407228
12
0.233731
22
0.951731
32
5.846178
13
-0.177778
23
0.728062
33
5.987238
0
3DFACE
8
coconut_palm5_leaves
10
-0.103437
20
0.166192
30
5.179992
11
0.308072
21
0.389861
31
5.038933
12
0.301999
22
0.712630
32
5.407228
13
-0.109510
23
0.488961
33
5.548288
0
3DFACE
8
coconut_palm5_leaves
10
-0.133027
20
-0.198652
30
4.858656
11
0.278482
21
0.025018
31
4.717597
12
0.308072
22
0.389861
32
5.038933
13
-0.103437
23
0.166192
33
5.179992
0
3DFACE
8
coconut_palm5_leaves
10
0.096244
20
0.600795
30
5.477758
11
-0.049108
21
0.737270
31
5.350672
12
-0.143741
22
0.947392
32
5.826659
13
0.027976
23
0.839896
33
5.916708
0
3DFACE
8
coconut_palm5_leaves
10
0.214992
20
0.431056
30
5.637825
11
0.096244
21
0.600795
31
5.477758
12
0.027976
22
0.839896
32
5.916708
13
0.121163
23
0.620435
33
6.089067
0
3DFACE
8
coconut_palm5_leaves
10
0.102317
20
0.278027
30
5.109463
11
-0.032305
21
0.420829
31
4.961335
12
-0.049108
22
0.737270
32
5.350672
13
0.096244
23
0.600795
33
5.477758
0
3DFACE
8
coconut_palm5_leaves
10
0.232518
20
0.130207
30
5.263631
11
0.102317
21
0.278027
31
5.109463
12
0.096244
22
0.600795
32
5.477758
13
0.214992
23
0.431056
33
5.637825
0
3DFACE
8
coconut_palm5_leaves
10
0.072727
20
-0.086817
30
4.788126
11
-0.060053
21
0.054369
31
4.633434
12
-0.032305
22
0.420829
32
4.961335
13
0.102317
23
0.278027
33
5.109463
0
3DFACE
8
coconut_palm5_leaves
10
0.205507
20
-0.228003
30
4.942819
11
0.072727
21
-0.086817
31
4.788126
12
0.102317
22
0.278027
32
5.109463
13
0.232518
23
0.130207
33
5.263631
0
3DFACE
8
coconut_palm5_leaves
10
0.186641
20
0.902993
30
4.728018
11
0.346954
21
0.673870
31
4.565605
12
0.605392
22
0.797089
32
3.939569
13
0.445079
23
1.026212
33
4.101982
0
3DFACE
8
coconut_palm5_leaves
10
0.049648
20
0.458223
30
4.914460
11
0.209961
21
0.229100
31
4.752047
12
0.346954
22
0.673870
32
4.565605
13
0.186641
23
0.902993
33
4.728018
0
3DFACE
8
coconut_palm5_leaves
10
0.032890
20
0.028781
30
4.793551
11
0.193203
21
-0.200342
31
4.631139
12
0.209961
22
0.229100
32
4.752047
13
0.049648
23
0.458223
33
4.914460
0
3DFACE
8
coconut_palm5_leaves
10
0.266798
20
0.788431
30
4.646811
11
0.150939
21
0.764476
31
4.375990
12
0.379161
22
0.608112
32
3.719906
13
0.525236
23
0.911651
33
4.020776
0
3DFACE
8
coconut_palm5_leaves
10
0.453572
20
0.763658
30
4.714219
11
0.266798
21
0.788431
31
4.646811
12
0.525236
22
0.911651
32
4.020776
13
0.727836
23
0.707871
33
3.978360
0
3DFACE
8
coconut_palm5_leaves
10
0.129805
20
0.343661
30
4.833253
11
-0.007371
21
0.396111
31
4.647243
12
0.150939
22
0.764476
32
4.375990
13
0.266798
23
0.788431
33
4.646811
0
3DFACE
8
coconut_palm5_leaves
10
0.281465
20
0.299472
30
4.984694
11
0.129805
21
0.343661
31
4.833253
12
0.266798
22
0.788431
32
4.646811
13
0.453572
23
0.763658
33
4.714219
0
3DFACE
8
coconut_palm5_leaves
10
0.113047
20
-0.085781
30
4.712345
11
-0.031124
21
-0.013879
31
4.552011
12
-0.007371
22
0.396111
32
4.647243
13
0.129805
23
0.343661
33
4.833253
0
3DFACE
8
coconut_palm5_leaves
10
0.257217
20
-0.157682
30
4.872679
11
0.113047
21
-0.085781
31
4.712345
12
0.129805
22
0.343661
32
4.833253
13
0.281465
23
0.299472
33
4.984694
0
3DFACE
8
coconut_palm5_leaves
10
-0.614918
20
0.189230
30
4.862679
11
-0.576020
21
0.453129
31
4.523831
12
-0.948566
22
0.621356
32
4.706910
13
-0.987464
23
0.357457
33
5.045758
0
3DFACE
8
coconut_palm5_leaves
10
-0.235243
20
-0.007497
30
4.794432
11
-0.196345
21
0.256402
31
4.455585
12
-0.576020
22
0.453129
32
4.523831
13
-0.614918
23
0.189230
33
4.862679
0
3DFACE
8
coconut_palm5_leaves
10
0.140957
20
-0.216513
30
4.792755
11
0.179856
21
0.047386
31
4.453908
12
-0.196345
22
0.256402
32
4.455585
13
-0.235243
23
-0.007497
33
4.794432
0
3DFACE
8
coconut_palm5_leaves
10
-0.595469
20
0.321179
30
4.693255
11
-0.690765
21
0.166520
31
4.586927
12
-1.067651
22
0.327667
32
4.814449
13
-0.968015
23
0.489406
33
4.876334
0
3DFACE
8
coconut_palm5_leaves
10
-0.500406
20
0.466640
30
4.843248
11
-0.595469
21
0.321179
31
4.693255
12
-0.968015
22
0.489406
32
4.876334
13
-0.853660
23
0.615657
33
5.065988
0
3DFACE
8
coconut_palm5_leaves
10
-0.215794
20
0.124452
30
4.625008
11
-0.303360
21
-0.030512
31
4.499968
12
-0.690765
22
0.166520
32
4.586927
13
-0.595469
23
0.321179
33
4.693255
0
3DFACE
8
coconut_palm5_leaves
10
-0.128838
20
0.278193
30
4.757366
11
-0.215794
21
0.124452
31
4.625008
12
-0.595469
22
0.321179
32
4.693255
13
-0.500406
23
0.466640
33
4.843248
0
3DFACE
8
coconut_palm5_leaves
10
0.160407
20
-0.084563
30
4.623332
11
0.077086
21
-0.241120
31
4.494683
12
-0.303360
22
-0.030512
32
4.499968
13
-0.215794
23
0.124452
33
4.625008
0
3DFACE
8
coconut_palm5_leaves
10
0.243727
20
0.071993
30
4.751980
11
0.160407
21
-0.084563
31
4.623332
12
-0.215794
22
0.124452
32
4.625008
13
-0.128838
23
0.278193
33
4.757366
0
3DFACE
8
coconut_palm5_leaves
10
-0.307276
20
-0.456971
30
5.581615
11
-0.447821
21
-0.860514
31
5.256366
12
-0.691773
22
-1.052548
32
5.696874
13
-0.551228
23
-0.649004
33
6.022123
0
3DFACE
8
coconut_palm5_leaves
10
-0.055667
20
-0.190588
30
5.196661
11
-0.196212
21
-0.594131
31
4.871412
12
-0.447821
22
-0.860514
32
5.256366
13
-0.307276
23
-0.456971
33
5.581615
0
3DFACE
8
coconut_palm5_leaves
10
0.198245
20
0.116375
30
4.846917
11
0.057700
21
-0.287169
31
4.521667
12
-0.196212
22
-0.594131
32
4.871412
13
-0.055667
23
-0.190588
33
5.196661
0
3DFACE
8
coconut_palm5_leaves
10
-0.377549
20
-0.658742
30
5.418990
11
-0.145804
21
-0.770351
31
5.492434
12
-0.386664
22
-0.928916
32
5.958875
13
-0.621501
23
-0.850776
33
5.859498
0
3DFACE
8
coconut_palm5_leaves
10
-0.606678
20
-0.513387
30
5.373003
11
-0.377549
21
-0.658742
31
5.418990
12
-0.621501
22
-0.850776
32
5.859498
13
-0.843223
23
-0.667515
33
5.832707
0
3DFACE
8
coconut_palm5_leaves
10
-0.125939
20
-0.392359
30
5.034037
11
0.106092
21
-0.516432
31
5.094076
12
-0.145804
22
-0.770351
32
5.492434
13
-0.377549
23
-0.658742
33
5.418990
0
3DFACE
8
coconut_palm5_leaves
10
-0.357735
20
-0.262867
30
4.978886
11
-0.125939
21
-0.392359
31
5.034037
12
-0.377549
22
-0.658742
32
5.418990
13
-0.606678
23
-0.513387
33
5.373003
0
3DFACE
8
coconut_palm5_leaves
10
0.127972
20
-0.085397
30
4.684292
11
0.360629
21
-0.211271
31
4.740873
12
0.106092
22
-0.516432
32
5.094076
13
-0.125939
23
-0.392359
33
5.034037
0
3DFACE
8
coconut_palm5_leaves
10
-0.104685
20
0.040477
30
4.627712
11
0.127972
21
-0.085397
31
4.684292
12
-0.125939
22
-0.392359
32
5.034037
13
-0.357735
23
-0.262867
33
4.978886
0
3DFACE
8
coconut_palm5_leaves
10
0.381084
20
-0.252904
30
5.352184
11
0.619193
21
-0.440000
31
5.111268
12
0.846704
22
-0.593687
32
5.385879
13
0.608595
23
-0.406591
33
5.626795
0
3DFACE
8
coconut_palm5_leaves
10
0.204766
20
-0.116301
30
5.040617
11
0.442875
21
-0.303397
31
4.799700
12
0.619193
22
-0.440000
32
5.111268
13
0.381084
23
-0.252904
33
5.352184
0
3DFACE
8
coconut_palm5_leaves
10
0.059171
20
0.009443
30
4.710300
11
0.297279
21
-0.177653
31
4.469383
12
0.442875
22
-0.303397
32
4.799700
13
0.204766
23
-0.116301
33
5.040617
0
3DFACE
8
coconut_palm5_leaves
10
0.500139
20
-0.346452
30
5.231726
11
0.629817
21
-0.196913
31
5.226783
12
0.871268
22
-0.353953
32
5.484000
13
0.727650
23
-0.500139
33
5.506337
0
3DFACE
8
coconut_palm5_leaves
10
0.388116
20
-0.502096
30
5.225125
11
0.500139
21
-0.346452
31
5.231726
12
0.727650
22
-0.500139
32
5.506337
13
0.634015
23
-0.662548
33
5.490011
0
3DFACE
8
coconut_palm5_leaves
10
0.323820
20
-0.209849
30
4.920158
11
0.447491
21
-0.058882
31
4.922810
12
0.629817
22
-0.196913
32
5.226783
13
0.500139
23
-0.346452
33
5.231726
0
3DFACE
8
coconut_palm5_leaves
10
0.203181
20
-0.361903
30
4.915746
11
0.323820
21
-0.209849
31
4.920158
12
0.500139
22
-0.346452
32
5.231726
13
0.388116
23
-0.502096
33
5.225125
0
3DFACE
8
coconut_palm5_leaves
10
0.178225
20
-0.084105
30
4.589841
11
0.300975
21
0.066884
31
4.594761
12
0.447491
22
-0.058882
32
4.922810
13
0.323820
23
-0.209849
33
4.920158
0
3DFACE
8
coconut_palm5_leaves
10
0.055475
20
-0.235095
30
4.584922
11
0.178225
21
-0.084105
31
4.589841
12
0.323820
22
-0.209849
32
4.920158
13
0.203181
23
-0.361903
33
4.915746
0
3DFACE
8
coconut_palm5_leaves
10
0.542261
20
1.111823
30
4.300669
11
0.733724
21
0.579212
31
4.089150
12
1.004970
22
0.744923
32
3.373934
13
0.842296
23
1.277534
33
3.635918
0
3DFACE
8
coconut_palm5_leaves
10
0.235288
20
0.699077
30
4.703339
11
0.426751
21
0.166466
31
4.491821
12
0.733724
22
0.579212
32
4.089150
13
0.542261
23
1.111823
33
4.300669
0
3DFACE
8
coconut_palm5_leaves
10
-0.047926
20
0.178848
30
4.940725
11
0.143538
21
-0.353763
31
4.729207
12
0.426751
22
0.166466
32
4.491821
13
0.235288
23
0.699077
33
4.703339
0
3DFACE
8
coconut_palm5_leaves
10
0.637992
20
0.845517
30
4.194910
11
0.397648
21
0.778058
31
3.906144
12
0.578627
22
0.752404
32
3.215742
13
0.926559
23
1.011228
33
3.508136
0
3DFACE
8
coconut_palm5_leaves
10
0.890966
20
0.791107
30
4.333547
11
0.637992
21
0.845517
31
4.194910
12
0.926559
22
1.011228
32
3.508136
13
1.176583
23
0.817632
33
3.472833
0
3DFACE
8
coconut_palm5_leaves
10
0.331019
20
0.432772
30
4.597580
11
0.101352
21
0.441869
31
4.354641
12
0.397648
22
0.778058
32
3.906144
13
0.637992
23
0.845517
33
4.194910
0
3DFACE
8
coconut_palm5_leaves
10
0.565556
20
0.407715
30
4.812484
11
0.331019
21
0.432772
31
4.597580
12
0.637992
22
0.845517
32
4.194910
13
0.890966
23
0.791107
33
4.333547
0
3DFACE
8
coconut_palm5_leaves
10
0.047806
20
-0.087458
30
4.834966
11
-0.177289
21
-0.057189
31
4.600479
12
0.101352
22
0.441869
32
4.354641
13
0.331019
23
0.432772
33
4.597580
0
3DFACE
8
coconut_palm5_leaves
10
0.272901
20
-0.117726
30
5.069453
11
0.047806
21
-0.087458
31
4.834966
12
0.331019
22
0.432772
32
4.597580
13
0.565556
23
0.407715
33
4.812484
0
3DFACE
8
coconut_palm5_leaves
10
-0.631784
20
-0.242071
30
4.679292
11
-0.607401
21
-0.113783
31
4.302037
12
-1.005040
22
-0.158295
32
4.306746
13
-1.029423
23
-0.286582
33
4.684000
0
3DFACE
8
coconut_palm5_leaves
10
-0.244172
20
-0.195872
30
4.739794
11
-0.219788
21
-0.067584
31
4.362539
12
-0.607401
22
-0.113783
32
4.302037
13
-0.631784
23
-0.242071
33
4.679292
0
3DFACE
8
coconut_palm5_leaves
10
0.134884
20
-0.149050
30
4.837014
11
0.159268
21
-0.020762
31
4.459759
12
-0.219788
22
-0.067584
32
4.362539
13
-0.244172
23
-0.195872
33
4.739794
0
3DFACE
8
coconut_palm5_leaves
10
-0.619592
20
-0.177927
30
4.490664
11
-0.587403
21
-0.365478
31
4.440094
12
-0.992883
22
-0.409930
32
4.466617
13
-1.017231
23
-0.222438
33
4.495373
0
3DFACE
8
coconut_palm5_leaves
10
-0.656255
20
0.010084
30
4.563528
11
-0.619592
21
-0.177927
31
4.490664
12
-1.017231
22
-0.222438
32
4.495373
13
-1.049706
23
-0.032939
33
4.591806
0
3DFACE
8
coconut_palm5_leaves
10
-0.231980
20
-0.131728
30
4.551167
11
-0.194065
21
-0.319000
31
4.492160
12
-0.587403
22
-0.365478
32
4.440094
13
-0.619592
23
-0.177927
33
4.490664
0
3DFACE
8
coconut_palm5_leaves
10
-0.270834
20
0.055597
30
4.613846
11
-0.231980
21
-0.131728
31
4.551167
12
-0.619592
22
-0.177927
32
4.490664
13
-0.656255
23
0.010084
33
4.563528
0
3DFACE
8
coconut_palm5_leaves
10
0.147076
20
-0.084906
30
4.648386
11
0.187420
21
-0.271961
31
4.588066
12
-0.194065
22
-0.319000
32
4.492160
13
-0.231980
23
-0.131728
33
4.551167
0
3DFACE
8
coconut_palm5_leaves
10
0.106733
20
0.102150
30
4.708706
11
0.147076
21
-0.084906
31
4.648386
12
-0.231980
22
-0.131728
32
4.551167
13
-0.270834
23
0.055597
33
4.613846
0
3DFACE
8
coconut_palm5_leaves
10
0.933121
20
0.362486
30
4.878760
11
0.991971
21
0.129513
31
4.485596
12
1.412703
22
0.287135
32
4.423820
13
1.353852
23
0.520109
33
4.816984
0
3DFACE
8
coconut_palm5_leaves
10
0.512913
20
0.198374
30
4.896591
11
0.571763
21
-0.034599
31
4.503427
12
0.991971
22
0.129513
32
4.485596
13
0.933121
23
0.362486
33
4.878760
0
3DFACE
8
coconut_palm5_leaves
10
0.094073
20
0.030975
30
4.889284
11
0.152923
21
-0.201999
31
4.496119
12
0.571763
22
-0.034599
32
4.503427
13
0.512913
23
0.198374
33
4.896591
0
3DFACE
8
coconut_palm5_leaves
10
0.962546
20
0.246000
30
4.682178
11
0.888324
21
0.427271
31
4.554142
12
1.304159
22
0.580339
32
4.475233
13
1.383277
23
0.403622
33
4.620402
0
3DFACE
8
coconut_palm5_leaves
10
1.037406
20
0.062327
30
4.792797
11
0.962546
21
0.246000
31
4.682178
12
1.383277
22
0.403622
32
4.620402
13
1.461995
23
0.218802
33
4.713446
0
3DFACE
8
coconut_palm5_leaves
10
0.542338
20
0.081888
30
4.700009
11
0.470808
21
0.265332
31
4.579216
12
0.888324
22
0.427271
32
4.554142
13
0.962546
23
0.246000
33
4.682178
0
3DFACE
8
coconut_palm5_leaves
10
0.614060
20
-0.101923
30
4.817898
11
0.542338
21
0.081888
31
4.700009
12
0.962546
22
0.246000
32
4.682178
13
1.037406
23
0.062327
33
4.792797
0
3DFACE
8
coconut_palm5_leaves
10
0.123498
20
-0.085512
30
4.692701
11
0.053328
21
0.098698
31
4.573395
12
0.470808
22
0.265332
32
4.579216
13
0.542338
23
0.081888
33
4.700009
0
3DFACE
8
coconut_palm5_leaves
10
0.193669
20
-0.269722
30
4.812008
11
0.123498
21
-0.085512
31
4.692701
12
0.542338
22
0.081888
32
4.700009
13
0.614060
23
-0.101923
33
4.817898
0
3DFACE
8
coconut_palm5_leaves
10
-0.085486
20
0.229712
30
5.648028
11
0.431433
21
0.338500
31
5.605397
12
0.423081
22
0.503862
32
6.097342
13
-0.093838
23
0.395074
33
6.139972
0
3DFACE
8
coconut_palm5_leaves
10
-0.095755
20
0.049369
30
5.161997
11
0.421164
21
0.158157
31
5.119367
12
0.431433
22
0.338500
32
5.605397
13
-0.085486
23
0.229712
33
5.648028
0
3DFACE
8
coconut_palm5_leaves
10
-0.116669
20
-0.139436
30
4.679637
11
0.400250
21
-0.030648
31
4.637006
12
0.421164
22
0.158157
32
5.119367
13
-0.095755
23
0.049369
33
5.161997
0
3DFACE
8
coconut_palm5_leaves
10
0.172973
20
0.284106
30
5.626713
11
0.110444
21
0.522658
31
5.538496
12
0.093698
22
0.682248
32
6.035896
13
0.164622
23
0.449468
33
6.118657
0
3DFACE
8
coconut_palm5_leaves
10
0.227035
20
0.038788
30
5.717750
11
0.172973
21
0.284106
31
5.626713
12
0.164622
22
0.449468
32
6.118657
13
0.210185
23
0.196166
33
6.209128
0
3DFACE
8
coconut_palm5_leaves
10
0.162705
20
0.103763
30
5.140681
11
0.103634
21
0.344372
31
5.049304
12
0.110444
22
0.522658
32
5.538496
13
0.172973
23
0.284106
33
5.626713
0
3DFACE
8
coconut_palm5_leaves
10
0.220364
20
-0.137963
30
5.232556
11
0.162705
21
0.103763
31
5.140681
12
0.172973
22
0.284106
32
5.626713
13
0.227035
23
0.038788
33
5.717750
0
3DFACE
8
coconut_palm5_leaves
10
0.141790
20
-0.085042
30
4.658321
11
0.083380
21
0.155734
31
4.565700
12
0.103634
22
0.344372
32
5.049304
13
0.162705
23
0.103763
33
5.140681
0
3DFACE
8
coconut_palm5_leaves
10
0.200200
20
-0.325818
30
4.750944
11
0.141790
21
-0.085042
31
4.658321
12
0.162705
22
0.103763
32
5.140681
13
0.220364
23
-0.137963
33
5.232556
0
3DFACE
8
coconut_palm5_leaves
10
-0.917762
20
0.180419
30
4.891722
11
-0.689388
21
0.342701
31
4.535777
12
-1.064846
22
0.538430
32
4.180300
13
-1.293220
23
0.376148
33
4.536245
0
3DFACE
8
coconut_palm5_leaves
10
-0.471501
20
-0.004523
30
4.989258
11
-0.243126
21
0.157759
31
4.633313
12
-0.689388
22
0.342701
32
4.535777
13
-0.917762
23
0.180419
33
4.891722
0
3DFACE
8
coconut_palm5_leaves
10
-0.023237
20
-0.167490
30
4.931849
11
0.205137
21
-0.005208
31
4.575903
12
-0.243126
22
0.157759
32
4.633313
13
-0.471501
23
-0.004523
33
4.989258
0
3DFACE
8
coconut_palm5_leaves
10
-0.803575
20
0.261560
30
4.713749
11
-0.860382
21
0.071420
31
4.525301
12
-1.152672
22
0.248072
32
4.083141
13
-1.179033
23
0.457289
33
4.358273
0
3DFACE
8
coconut_palm5_leaves
10
-0.733120
20
0.463024
30
4.789495
11
-0.803575
21
0.261560
31
4.713749
12
-1.179033
22
0.457289
32
4.358273
13
-1.079065
23
0.662540
33
4.331326
0
3DFACE
8
coconut_palm5_leaves
10
-0.357313
20
0.076618
30
4.811286
11
-0.441007
21
-0.110111
31
4.669639
12
-0.860382
22
0.071420
32
4.525301
13
-0.803575
23
0.261560
33
4.713749
0
3DFACE
8
coconut_palm5_leaves
10
-0.274680
20
0.266540
30
4.933940
11
-0.357313
21
0.076618
31
4.811286
12
-0.803575
22
0.261560
32
4.713749
13
-0.733120
23
0.463024
33
4.789495
0
3DFACE
8
coconut_palm5_leaves
10
0.090950
20
-0.086349
30
4.753876
11
-0.002044
21
-0.271148
31
4.623308
12
-0.441007
22
-0.110111
32
4.669639
13
-0.357313
23
0.076618
33
4.811286
0
3DFACE
8
coconut_palm5_leaves
10
0.183944
20
0.098451
30
4.884444
11
0.090950
21
-0.086349
31
4.753876
12
-0.357313
22
0.076618
32
4.811286
13
-0.274680
23
0.266540
33
4.933940
0
3DFACE
8
coconut_palm5_leaves
10
-0.227655
20
-0.816736
30
5.118080
11
-0.162404
21
-0.795356
31
4.762230
12
-0.198352
22
-1.215028
32
4.526919
13
-0.263604
23
-1.236408
33
4.882769
0
3DFACE
8
coconut_palm5_leaves
10
-0.098263
20
-0.419010
30
5.092760
11
-0.033011
21
-0.397629
31
4.736911
12
-0.162404
22
-0.795356
32
4.762230
13
-0.227655
23
-0.816736
33
5.118080
0
3DFACE
8
coconut_palm5_leaves
10
0.065998
20
-0.096841
30
4.917378
11
0.131250
21
-0.075461
31
4.561528
12
-0.033011
22
-0.397629
32
4.736911
13
-0.098263
23
-0.419010
33
5.092760
0
3DFACE
8
coconut_palm5_leaves
10
-0.195029
20
-0.806046
30
4.940155
11
0.009550
21
-0.888347
31
4.923082
12
0.016857
22
-1.261817
32
4.611302
13
-0.230978
23
-1.225718
33
4.704844
0
3DFACE
8
coconut_palm5_leaves
10
-0.372918
20
-0.755130
30
4.863095
11
-0.195029
21
-0.806046
31
4.940155
12
-0.230978
22
-1.225718
32
4.704844
13
-0.373542
23
-1.156852
33
4.549829
0
3DFACE
8
coconut_palm5_leaves
10
-0.065637
20
-0.408319
30
4.914835
11
0.122946
21
-0.489127
31
4.940606
12
0.009550
22
-0.888347
32
4.923082
13
-0.195029
23
-0.806046
33
4.940155
0
3DFACE
8
coconut_palm5_leaves
10
-0.251298
20
-0.336881
30
4.874109
11
-0.065637
21
-0.408319
31
4.914835
12
-0.195029
22
-0.806046
32
4.940155
13
-0.372918
23
-0.755130
33
4.863095
0
3DFACE
8
coconut_palm5_leaves
10
0.098624
20
-0.086151
30
4.739453
11
0.283426
21
-0.166622
31
4.775338
12
0.122946
22
-0.489127
32
4.940606
13
-0.065637
23
-0.408319
33
4.914835
0
3DFACE
8
coconut_palm5_leaves
10
-0.086178
20
-0.005681
30
4.703568
11
0.098624
21
-0.086151
31
4.739453
12
-0.065637
22
-0.408319
32
4.914835
13
-0.251298
23
-0.336881
33
4.874109
0
3DFACE
8
coconut_palm5_leaves
10
0.837013
20
-0.070463
30
5.197739
11
0.776487
21
-0.151950
31
4.912077
12
1.166174
22
-0.158815
32
4.506354
13
1.226699
23
-0.077328
33
4.792016
0
3DFACE
8
coconut_palm5_leaves
10
0.407521
20
-0.057583
30
5.173167
11
0.346995
21
-0.139070
31
4.887506
12
0.776487
22
-0.151950
32
4.912077
13
0.837013
23
-0.070463
33
5.197739
0
3DFACE
8
coconut_palm5_leaves
10
0.107556
20
-0.045956
30
4.922377
11
0.047030
21
-0.127443
31
4.636715
12
0.346995
22
-0.139070
32
4.887506
13
0.407521
23
-0.057583
33
5.173167
0
3DFACE
8
coconut_palm5_leaves
10
0.806750
20
-0.111207
30
5.054908
11
0.850946
21
0.076355
31
4.918820
12
1.100831
22
0.074866
32
4.400051
13
1.196436
23
-0.118072
33
4.649185
0
3DFACE
8
coconut_palm5_leaves
10
0.804853
20
-0.298363
30
5.044835
11
0.806750
21
-0.111207
31
5.054908
12
1.196436
22
-0.118072
32
4.649185
13
1.126984
23
-0.301856
33
4.515715
0
3DFACE
8
coconut_palm5_leaves
10
0.377258
20
-0.098327
30
5.030336
11
0.432775
21
0.088065
31
4.968609
12
0.850946
22
0.076355
32
4.918820
13
0.806750
23
-0.111207
33
5.054908
0
3DFACE
8
coconut_palm5_leaves
10
0.338388
20
-0.284974
30
5.071388
11
0.377258
21
-0.098327
31
5.030336
12
0.806750
22
-0.111207
32
5.054908
13
0.804853
23
-0.298363
33
5.044835
0
3DFACE
8
coconut_palm5_leaves
10
0.077293
20
-0.086700
30
4.779546
11
0.134490
21
0.099419
31
4.737749
12
0.432775
22
0.088065
32
4.968609
13
0.377258
23
-0.098327
33
5.030336
0
3DFACE
8
coconut_palm5_leaves
10
0.020095
20
-0.272818
30
4.821342
11
0.077293
21
-0.086700
31
4.779546
12
0.377258
22
-0.098327
32
5.030336
13
0.338388
23
-0.284974
33
5.071388
0
3DFACE
8
coconut_palm5_leaves
10
1.025724
20
-0.335743
30
5.022525
11
1.079666
21
-0.452655
31
4.550320
12
1.522495
22
-0.608267
32
4.646496
13
1.468553
23
-0.491355
33
5.118701
0
3DFACE
8
coconut_palm5_leaves
10
0.580610
20
-0.180732
30
4.937127
11
0.634552
21
-0.297644
31
4.464922
12
1.079666
22
-0.452655
32
4.550320
13
1.025724
23
-0.335743
33
5.022525
0
3DFACE
8
coconut_palm5_leaves
10
0.134964
20
-0.379224
30
4.832755
11
0.112973
21
-0.085783
31
4.712484
12
0.730345
22
-0.042327
32
4.655583
13
0.763289
23
-0.335469
33
4.758027
0
3DFACE
8
coconut_palm5_leaves
10
0.112973
20
-0.085783
30
4.712484
11
0.090981
21
0.207659
31
4.592214
12
0.693867
22
0.249603
32
4.519075
13
0.730345
23
-0.042327
33
4.655583
0
3DFACE
8
coconut_palm5_leaves
10
0.763289
20
-0.335469
30
4.758027
11
0.730345
21
-0.042327
31
4.655583
12
1.310167
22
-0.007515
32
4.387934
13
1.338862
23
-0.303374
33
4.404441
0
3DFACE
8
coconut_palm5_leaves
10
0.730345
20
-0.042327
30
4.655583
11
0.693867
21
0.249603
31
4.519075
12
1.220190
22
0.278434
32
4.177269
13
1.310167
23
-0.007515
33
4.387934
0
3DFACE
8
coconut_palm5_leaves
10
1.338862
20
-0.303374
30
4.404441
11
1.310167
21
-0.007515
31
4.387934
12
1.737496
22
0.005988
32
3.597944
13
1.636344
23
-0.302479
33
3.430104
0
3DFACE
8
coconut_palm5_leaves
10
1.310167
20
-0.007515
30
4.387934
11
1.220190
21
0.278434
31
4.177269
12
1.419120
22
0.275701
32
3.254660
13
1.737496
23
0.005988
33
3.597944
0
3DFACE
8
coconut_palm5_leaves
10
0.270165
20
0.027251
30
4.925506
11
-0.044220
21
-0.198816
31
4.499463
12
0.573152
22
-0.155361
32
4.442562
13
0.887537
23
0.070706
33
4.868605
0
3DFACE
8
coconut_palm5_leaves
10
0.887537
20
0.070706
30
4.868605
11
0.573152
21
-0.155361
31
4.442562
12
1.152974
22
-0.120548
32
4.174912
13
1.467359
23
0.105518
33
4.600955
0
3DFACE
8
coconut_palm5_leaves
10
1.467359
20
0.105518
30
4.600955
11
1.152974
21
-0.120548
31
4.174912
12
1.549559
22
-0.107046
32
3.371158
13
1.910800
23
0.119021
33
3.845609
0
3DFACE
8
coconut_palm5_leaves
10
-0.013605
20
0.041301
30
4.684856
11
0.116972
21
-0.085680
31
4.704967
12
-0.113485
22
-0.301405
32
4.876691
13
-0.245992
23
-0.177779
33
4.854938
0
3DFACE
8
coconut_palm5_leaves
10
0.116972
20
-0.085680
30
4.704967
11
0.247550
21
-0.212661
31
4.725078
12
0.018338
22
-0.428819
32
4.892698
13
-0.113485
23
-0.301405
33
4.876691
0
3DFACE
8
coconut_palm5_leaves
10
-0.245992
20
-0.177779
30
4.854938
11
-0.113485
21
-0.301405
31
4.876691
12
-0.349026
22
-0.555941
32
4.984539
13
-0.484855
23
-0.443251
33
4.949713
0
3DFACE
8
coconut_palm5_leaves
10
-0.113485
20
-0.301405
30
4.876691
11
0.018338
21
-0.428819
31
4.892698
12
-0.214158
22
-0.688005
32
4.983374
13
-0.349026
23
-0.555941
33
4.984539
0
3DFACE
8
coconut_palm5_leaves
10
-0.484855
20
-0.443251
30
4.949713
11
-0.349026
21
-0.555941
31
4.984539
12
-0.578701
22
-0.861365
32
4.975996
13
-0.713006
23
-0.764097
33
4.906554
0
3DFACE
8
coconut_palm5_leaves
10
-0.349026
20
-0.555941
30
4.984539
11
-0.214158
21
-0.688005
31
4.983374
12
-0.433096
22
-0.998716
32
4.936354
13
-0.578701
23
-0.861365
33
4.975996
0
3DFACE
8
coconut_palm5_leaves
10
0.129226
20
-0.047997
30
4.878048
11
0.104719
21
-0.123363
31
4.531886
12
-0.125739
22
-0.339088
32
4.703610
13
-0.101232
23
-0.263722
33
5.049772
0
3DFACE
8
coconut_palm5_leaves
10
-0.101232
20
-0.263722
30
5.049772
11
-0.125739
21
-0.339088
31
4.703610
12
-0.361279
22
-0.593624
32
4.811458
13
-0.336772
23
-0.518258
33
5.157620
0
3DFACE
8
coconut_palm5_leaves
10
-0.336772
20
-0.518258
30
5.157620
11
-0.361279
21
-0.593624
31
4.811458
12
-0.590955
22
-0.899049
32
4.802915
13
-0.566448
23
-0.823682
33
5.149077
0
3DFACE
8
coconut_palm5_leaves
10
0.232513
20
-0.214706
30
4.973964
11
0.061386
21
-0.087108
31
4.809442
12
-0.041159
22
0.270030
32
5.185737
13
0.130151
23
0.146100
33
5.350902
0
3DFACE
8
coconut_palm5_leaves
10
0.061386
20
-0.087108
30
4.809442
11
-0.109740
21
0.040489
31
4.644920
12
-0.210964
22
0.397397
32
5.017704
13
-0.041159
23
0.270030
33
5.185737
0
3DFACE
8
coconut_palm5_leaves
10
0.130151
20
0.146100
30
5.350902
11
-0.041159
21
0.270030
31
5.185737
12
-0.132477
22
0.652268
32
5.540456
13
0.041607
23
0.540570
33
5.702134
0
3DFACE
8
coconut_palm5_leaves
10
-0.041159
20
0.270030
30
5.185737
11
-0.210964
21
0.397397
31
5.017704
12
-0.297353
22
0.783819
32
5.360861
13
-0.132477
23
0.652268
33
5.540456
0
3DFACE
8
coconut_palm5_leaves
10
0.041607
20
0.540570
30
5.702134
11
-0.132477
21
0.652268
31
5.540456
12
-0.203634
22
1.075971
32
5.855329
13
-0.021478
23
0.988525
33
6.003391
0
3DFACE
8
coconut_palm5_leaves
10
-0.132477
20
0.652268
30
5.540456
11
-0.297353
21
0.783819
31
5.360861
12
-0.357522
22
1.219125
32
5.650654
13
-0.203634
23
1.075971
33
5.855329
0
3DFACE
8
coconut_palm5_leaves
10
-0.144565
20
-0.222610
30
4.917543
11
0.267338
21
0.048393
31
4.701341
12
0.164793
22
0.405531
32
5.077636
13
-0.247110
23
0.134528
33
5.293838
0
3DFACE
8
coconut_palm5_leaves
10
-0.247110
20
0.134528
30
5.293838
11
0.164793
21
0.405531
31
5.077636
12
0.073475
22
0.787769
32
5.432355
13
-0.338428
23
0.516767
33
5.648557
0
3DFACE
8
coconut_palm5_leaves
10
-0.338428
20
0.516767
30
5.648557
11
0.073475
21
0.787769
31
5.432355
12
0.002318
22
1.211472
32
5.747228
13
-0.409586
23
0.940469
33
5.963429
0
3DFACE
8
coconut_palm5_leaves
10
0.003435
20
0.094816
30
4.704282
11
0.129607
21
-0.085355
31
4.681220
12
-0.199856
22
-0.320088
32
4.522840
13
-0.329503
23
-0.145924
33
4.528935
0
3DFACE
8
coconut_palm5_leaves
10
0.129607
20
-0.085355
30
4.681220
11
0.255780
21
-0.265526
31
4.658156
12
-0.057889
22
-0.492909
32
4.490468
13
-0.199856
23
-0.320088
33
4.522840
0
3DFACE
8
coconut_palm5_leaves
10
-0.329503
20
-0.145924
30
4.528935
11
-0.199856
21
-0.320088
31
4.522840
12
-0.393448
22
-0.523988
32
4.144048
13
-0.488951
23
-0.343946
33
4.086655
0
3DFACE
8
coconut_palm5_leaves
10
-0.199856
20
-0.320088
30
4.522840
11
-0.057889
21
-0.492909
31
4.490468
12
-0.185462
22
-0.665501
32
4.075288
13
-0.393448
23
-0.523988
33
4.144048
0
3DFACE
8
coconut_palm5_leaves
10
-0.488951
20
-0.343946
30
4.086655
11
-0.393448
21
-0.523988
31
4.144048
12
-0.228218
22
-0.565648
32
3.533088
13
-0.189812
23
-0.307022
33
3.461064
0
3DFACE
8
coconut_palm5_leaves
10
-0.393448
20
-0.523988
30
4.144048
11
-0.185462
21
-0.665501
31
4.075288
12
0.134399
22
-0.600153
32
3.508045
13
-0.228218
23
-0.565648
33
3.533088
0
3DFACE
8
coconut_palm5_leaves
10
0.010881
20
-0.195703
30
4.749517
11
0.248333
21
0.024993
31
4.612922
12
-0.081130
22
-0.209740
32
4.454542
13
-0.318581
23
-0.430435
33
4.591137
0
3DFACE
8
coconut_palm5_leaves
10
-0.318581
20
-0.430435
30
4.591137
11
-0.081130
21
-0.209740
31
4.454542
12
-0.274722
22
-0.413640
32
4.075750
13
-0.512173
23
-0.634335
33
4.212346
0
3DFACE
8
coconut_palm5_leaves
10
-0.512173
20
-0.634335
30
4.212346
11
-0.274722
21
-0.413640
31
4.075750
12
-0.121781
22
-0.455300
32
3.491400
13
-0.345155
23
-0.675995
33
3.596812
0
3DFACE
8
coconut_palm5_leaves
10
0.382509
20
-0.105255
30
4.738008
11
0.189423
21
-0.083817
31
4.568794
12
-0.051523
22
0.229662
32
4.883318
13
0.141536
23
0.208288
33
5.052536
0
3DFACE
8
coconut_palm5_leaves
10
0.189423
20
-0.083817
30
4.568794
11
-0.003663
21
-0.062380
31
4.399580
12
-0.244583
22
0.251096
32
4.714040
13
-0.051523
23
0.229662
33
4.883318
0
3DFACE
8
coconut_palm5_leaves
10
0.141536
20
0.208288
30
5.052536
11
-0.051523
21
0.229662
31
4.883318
12
-0.292470
22
0.543599
32
5.197384
13
-0.099462
23
0.522440
33
5.366523
0
3DFACE
8
coconut_palm5_leaves
10
-0.051523
20
0.229662
30
4.883318
11
-0.244583
21
0.251096
31
4.714040
12
-0.485478
22
0.565113
32
5.027892
13
-0.292470
23
0.543599
33
5.197384
0
3DFACE
8
coconut_palm5_leaves
10
-0.099462
20
0.522440
30
5.366523
11
-0.292470
21
0.543599
31
5.197384
12
-0.533416
22
0.858336
32
5.510652
13
-0.340485
23
0.837631
33
5.679538
0
3DFACE
8
coconut_palm5_leaves
10
-0.292470
20
0.543599
30
5.197384
11
-0.485478
21
0.565113
31
5.027892
12
-0.726346
22
0.880102
32
5.340704
13
-0.533416
23
0.858336
33
5.510652
0
3DFACE
8
coconut_palm5_leaves
10
0.070592
20
-0.284897
30
4.678914
11
0.308254
21
0.117262
31
4.458675
12
0.067308
22
0.430742
32
4.773198
13
-0.170355
23
0.028583
33
4.993437
0
3DFACE
8
coconut_palm5_leaves
10
-0.170355
20
0.028583
30
4.993437
11
0.067308
21
0.430742
31
4.773198
12
-0.173639
22
0.744679
32
5.087264
13
-0.411301
23
0.342520
33
5.307504
0
3DFACE
8
coconut_palm5_leaves
10
-0.411301
20
0.342520
30
5.307504
11
-0.173639
21
0.744679
31
5.087264
12
-0.414585
22
1.059415
32
5.400532
13
-0.652248
23
0.657256
33
5.620771
0
3DFACE
8
coconut_palm5_leaves
10
0.334583
20
-0.253426
30
4.747943
11
0.176899
21
-0.084139
31
4.592333
12
0.119826
22
0.273941
32
5.001706
13
0.280703
23
0.121542
33
5.161292
0
3DFACE
8
coconut_palm5_leaves
10
0.176899
20
-0.084139
30
4.592333
11
0.019215
21
0.085147
31
4.436724
12
-0.031467
22
0.442540
32
4.828947
13
0.119826
23
0.273941
33
5.001706
0
3DFACE
8
coconut_palm5_leaves
10
0.280703
20
0.121542
30
5.161292
11
0.119826
21
0.273941
31
5.001706
12
0.131190
22
0.738729
32
5.310481
13
0.313899
23
0.635464
33
5.448964
0
3DFACE
8
coconut_palm5_leaves
10
0.119826
20
0.273941
30
5.001706
11
-0.031467
21
0.442540
31
4.828947
12
0.004555
22
0.917036
32
5.080554
13
0.131190
23
0.738729
33
5.310481
0
3DFACE
8
coconut_palm5_leaves
10
0.313899
20
0.635464
30
5.448964
11
0.131190
21
0.738729
31
5.310481
12
0.251969
22
1.316504
32
5.416480
13
0.477478
23
1.253566
33
5.472822
0
3DFACE
8
coconut_palm5_leaves
10
0.131190
20
0.738729
30
5.310481
11
0.004555
21
0.917036
31
5.080554
12
0.163146
22
1.472987
32
5.072158
13
0.251969
23
1.316504
33
5.416480
0
3DFACE
8
coconut_palm5_leaves
10
-0.037359
20
-0.130172
30
4.739462
11
0.391157
21
-0.038107
31
4.445205
12
0.334085
22
0.319974
32
4.854578
13
-0.094432
23
0.227909
33
5.148834
0
3DFACE
8
coconut_palm5_leaves
10
-0.094432
20
0.227909
30
5.148834
11
0.334085
21
0.319974
31
4.854578
12
0.345448
22
0.784761
32
5.163352
13
-0.083068
23
0.692696
33
5.457609
0
3DFACE
8
coconut_palm5_leaves
10
-0.083068
20
0.692696
30
5.457609
11
0.345448
21
0.784761
31
5.163352
12
0.466227
22
1.362537
32
5.269352
13
0.037710
23
1.270472
33
5.563609
0
3DFACE
8
coconut_palm5_leaves
10
0.252781
20
0.026290
30
4.973848
11
0.068249
21
-0.086932
31
4.796543
12
-0.345765
22
0.224696
32
4.978059
13
-0.178363
23
0.356651
33
5.146066
0
3DFACE
8
coconut_palm5_leaves
10
0.068249
20
-0.086932
30
4.796543
11
-0.116283
21
-0.200155
31
4.619238
12
-0.516216
22
0.107310
32
4.776053
13
-0.345765
23
0.224696
33
4.978059
0
3DFACE
8
coconut_palm5_leaves
10
-0.178363
20
0.356651
30
5.146066
11
-0.345765
21
0.224696
31
4.978059
12
-0.759800
22
0.621258
32
4.915142
13
-0.606039
23
0.792642
33
5.005191
0
3DFACE
8
coconut_palm5_leaves
10
-0.345765
20
0.224696
30
4.978059
11
-0.516216
21
0.107310
31
4.776053
12
-0.883596
22
0.492705
32
4.623743
13
-0.759800
23
0.621258
33
4.915142
0
3DFACE
8
coconut_palm5_leaves
10
-0.606039
20
0.792642
30
5.005191
11
-0.759800
21
0.621258
31
4.915142
12
-1.036932
22
1.026063
32
4.471855
13
-0.792921
23
1.161392
33
4.430579
0
3DFACE
8
coconut_palm5_leaves
10
-0.759800
20
0.621258
30
4.915142
11
-0.883596
21
0.492705
31
4.623743
12
-1.005285
22
0.791033
32
4.082010
13
-1.036932
23
1.026063
33
4.471855
0
3DFACE
8
coconut_palm5_leaves
10
-0.092791
20
-0.146216
30
4.965802
11
0.229290
21
-0.027649
31
4.627284
12
-0.184725
22
0.283979
32
4.808800
13
-0.506806
23
0.165412
33
5.147318
0
3DFACE
8
coconut_palm5_leaves
10
-0.506806
20
0.165412
30
5.147318
11
-0.184725
21
0.283979
31
4.808800
12
-0.598760
22
0.680542
32
4.745883
13
-0.920841
23
0.561975
33
5.084401
0
3DFACE
8
coconut_palm5_leaves
10
-0.920841
20
0.561975
30
5.084401
11
-0.598760
21
0.680542
31
4.745883
12
-0.875891
22
1.085346
32
4.302596
13
-1.197972
23
0.966779
33
4.641114
0
3DFACE
8
coconut_palm5_leaves
10
0.304462
20
-0.203307
30
4.780999
11
0.165778
21
-0.084425
31
4.613235
12
0.267087
22
0.343515
32
4.822862
13
0.408255
23
0.229431
33
4.989466
0
3DFACE
8
coconut_palm5_leaves
10
0.165778
20
-0.084425
30
4.613235
11
0.027094
21
0.034457
31
4.445472
12
0.129164
22
0.459764
32
4.650206
13
0.267087
23
0.343515
33
4.822862
0
3DFACE
8
coconut_palm5_leaves
10
0.408255
20
0.229431
30
4.989466
11
0.267087
21
0.343515
31
4.822862
12
0.394163
22
0.787549
32
4.983174
13
0.545040
23
0.685154
33
5.137419
0
3DFACE
8
coconut_palm5_leaves
10
0.267087
20
0.343515
30
4.822862
11
0.129164
21
0.459764
31
4.650206
12
0.262082
22
0.900364
32
4.791497
13
0.394163
23
0.787549
33
4.983174
0
3DFACE
8
coconut_palm5_leaves
10
0.545040
20
0.685154
30
5.137419
11
0.394163
21
0.787549
31
4.983174
12
0.563935
22
1.251003
32
5.053750
13
0.735229
23
1.164652
33
5.172558
0
3DFACE
8
coconut_palm5_leaves
10
0.394163
20
0.787549
30
4.983174
11
0.262082
21
0.900364
31
4.791497
12
0.445467
22
1.356705
32
4.818735
13
0.563935
23
1.251003
33
5.053750
0
3DFACE
8
coconut_palm5_leaves
10
-0.019867
20
-0.071138
30
4.773664
11
0.351424
21
-0.097713
31
4.452806
12
0.452733
22
0.330227
32
4.662433
13
0.081442
23
0.356802
33
4.983290
0
3DFACE
8
coconut_palm5_leaves
10
0.081442
20
0.356802
30
4.983290
11
0.452733
21
0.330227
31
4.662433
12
0.579809
22
0.774262
32
4.822745
13
0.208518
23
0.800837
33
5.143603
0
3DFACE
8
coconut_palm5_leaves
10
0.208518
20
0.800837
30
5.143603
11
0.579809
21
0.774262
31
4.822745
12
0.749580
22
1.237715
32
4.893321
13
0.378289
23
1.264291
33
5.214178
0
3DFACE
8
coconut_palm5_leaves
10
0.002586
20
-0.314942
30
4.608043
11
0.179425
21
-0.084074
31
4.587585
12
0.617949
22
-0.398622
32
4.778902
13
0.444241
23
-0.630816
33
4.796827
0
3DFACE
8
coconut_palm5_leaves
10
0.179425
20
-0.084074
30
4.587585
11
0.356265
21
0.146793
31
4.567128
12
0.794423
22
-0.166563
32
4.754348
13
0.617949
23
-0.398622
33
4.778902
0
3DFACE
8
coconut_palm5_leaves
10
0.444241
20
-0.630816
30
4.796827
11
0.617949
21
-0.398622
31
4.778902
12
1.074706
22
-0.713602
32
4.924554
13
0.910655
23
-0.948072
33
4.926971
0
3DFACE
8
coconut_palm5_leaves
10
0.617949
20
-0.398622
30
4.778902
11
0.794423
21
-0.166563
31
4.754348
12
1.253700
22
-0.478779
32
4.881719
13
1.074706
23
-0.713602
33
4.924554
0
3DFACE
8
coconut_palm5_leaves
10
0.910655
20
-0.948072
30
4.926971
11
1.074706
21
-0.713602
31
4.924554
12
1.558706
22
-1.026075
32
4.988607
13
1.411291
23
-1.261343
33
4.951066
0
3DFACE
8
coconut_palm5_leaves
10
1.074706
20
-0.713602
30
4.924554
11
1.253700
21
-0.478779
31
4.881719
12
1.743317
22
-0.784511
32
4.902554
13
1.558706
23
-1.026075
33
4.988607
0
3DFACE
8
coconut_palm5_leaves
10
0.145587
20
-0.032136
30
4.870889
11
0.213264
21
-0.136013
31
4.304282
12
0.651788
22
-0.450560
32
4.495599
13
0.584111
23
-0.346683
33
5.062204
0
3DFACE
8
coconut_palm5_leaves
10
0.584111
20
-0.346683
30
5.062204
11
0.651788
21
-0.450560
31
4.495599
12
1.108545
22
-0.765540
32
4.641251
13
1.040868
23
-0.661663
33
5.207858
0
3DFACE
8
coconut_palm5_leaves
10
1.040868
20
-0.661663
30
5.207858
11
1.108545
21
-0.765540
31
4.641251
12
1.592545
22
-1.078013
32
4.705304
13
1.524868
23
-0.974136
33
5.271911
0
3DFACE
8
coconut_palm5_leaves
10
0.052923
20
-0.281230
30
4.876175
11
0.065681
21
-0.086998
31
4.801371
12
0.452986
22
-0.037908
32
4.925208
13
0.458679
23
-0.230418
33
4.991677
0
3DFACE
8
coconut_palm5_leaves
10
0.065681
20
-0.086998
30
4.801371
11
0.078438
21
0.107234
31
4.726566
12
0.455711
22
0.154341
32
4.830775
13
0.452986
23
-0.037908
33
4.925208
0
3DFACE
8
coconut_palm5_leaves
10
0.458679
20
-0.230418
30
4.991677
11
0.452986
21
-0.037908
31
4.925208
12
0.878969
22
0.003646
32
4.774355
13
0.903315
23
-0.189818
33
4.770247
0
3DFACE
8
coconut_palm5_leaves
10
0.452986
20
-0.037908
30
4.925208
11
0.455711
21
0.154341
31
4.830775
12
0.839759
22
0.187933
32
4.605445
13
0.878969
23
0.003646
33
4.774355
0
3DFACE
8
coconut_palm5_leaves
10
0.903315
20
-0.189818
30
4.770247
11
0.878969
21
0.003646
31
4.774355
12
1.109276
22
0.003656
32
4.174635
13
1.022546
23
-0.208135
33
4.036943
0
3DFACE
8
coconut_palm5_leaves
10
0.878969
20
0.003646
30
4.774355
11
0.839759
21
0.187933
31
4.605445
12
0.880905
22
0.162342
32
3.906080
13
1.109276
23
0.003656
33
4.174635
0
3DFACE
8
coconut_palm5_leaves
10
0.145305
20
-0.024722
30
4.923774
11
-0.013945
21
-0.149274
31
4.678968
12
0.373361
22
-0.100183
32
4.802806
13
0.532611
23
0.024368
33
5.047611
0
3DFACE
8
coconut_palm5_leaves
10
0.532611
20
0.024368
30
5.047611
11
0.373361
21
-0.100183
31
4.802806
12
0.799344
22
-0.058630
32
4.651953
13
0.958594
23
0.065921
33
4.896758
0
3DFACE
8
coconut_palm5_leaves
10
0.958594
20
0.065921
30
4.896758
11
0.799344
21
-0.058630
31
4.651953
12
1.029651
22
-0.058620
32
4.052232
13
1.188901
23
0.065932
33
4.297038
0
3DFACE
8
coconut_palm5_leaves
10
-0.052590
20
0.073965
30
4.716225
11
0.110292
21
-0.085851
31
4.717523
12
-0.202112
22
-0.403438
32
4.767171
13
-0.364899
23
-0.243429
33
4.766088
0
3DFACE
8
coconut_palm5_leaves
10
0.110292
20
-0.085851
30
4.717523
11
0.273174
21
-0.245668
31
4.718821
12
-0.039383
22
-0.563316
32
4.768722
13
-0.202112
23
-0.403438
33
4.767171
0
3DFACE
8
coconut_palm5_leaves
10
-0.364899
20
-0.243429
30
4.766088
11
-0.202112
21
-0.403438
31
4.767171
12
-0.515020
22
-0.719877
32
4.820894
13
-0.677699
23
-0.559285
33
4.820933
0
3DFACE
8
coconut_palm5_leaves
10
-0.202112
20
-0.403438
30
4.767171
11
-0.039383
21
-0.563316
31
4.768722
12
-0.352680
22
-0.879676
32
4.823649
13
-0.515020
23
-0.719877
33
4.820894
0
3DFACE
8
coconut_palm5_leaves
10
-0.677699
20
-0.559285
30
4.820933
11
-0.515020
21
-0.719877
31
4.820894
12
-0.828771
22
-1.034268
32
4.881740
13
-0.991392
23
-0.872480
33
4.884504
0
3DFACE
8
coconut_palm5_leaves
10
-0.515020
20
-0.719877
30
4.820894
11
-0.352680
21
-0.879676
31
4.823649
12
-0.667120
22
-1.193626
32
4.887349
13
-0.828771
23
-1.034268
33
4.881740
0
3DFACE
8
coconut_palm5_leaves
10
0.129433
20
-0.064511
30
4.944366
11
0.091152
21
-0.107192
31
4.490680
12
-0.221252
22
-0.424779
32
4.540329
13
-0.182971
23
-0.382097
33
4.994014
0
3DFACE
8
coconut_palm5_leaves
10
-0.182971
20
-0.382097
30
4.994014
11
-0.221252
21
-0.424779
31
4.540329
12
-0.534161
22
-0.741218
32
4.594052
13
-0.495880
23
-0.698536
33
5.047737
0
3DFACE
8
coconut_palm5_leaves
10
-0.495880
20
-0.698536
30
5.047737
11
-0.534161
21
-0.741218
31
4.594052
12
-0.847912
22
-1.055609
32
4.654897
13
-0.809631
23
-1.012928
33
5.108582
0
3DFACE
8
coconut_palm5_leaves
10
0.271027
20
0.038834
30
4.810418
11
0.146704
21
-0.084916
31
4.649086
12
0.037913
22
0.292118
32
4.394660
13
0.165467
23
0.426501
33
4.532404
0
3DFACE
8
coconut_palm5_leaves
10
0.146704
20
-0.084916
30
4.649086
11
0.022381
21
-0.208665
31
4.487753
12
-0.072181
22
0.144257
32
4.230657
13
0.037913
23
0.292118
33
4.394660
0
3DFACE
8
coconut_palm5_leaves
10
0.165467
20
0.426501
30
4.532404
11
0.037913
21
0.292118
31
4.394660
12
0.081370
22
0.527349
32
3.945892
13
0.251801
23
0.632246
33
4.014002
0
3DFACE
8
coconut_palm5_leaves
10
0.037913
20
0.292118
30
4.394660
11
-0.072181
21
0.144257
31
4.230657
12
0.023393
22
0.292078
32
3.770810
13
0.081370
23
0.527349
33
3.945892
0
3DFACE
8
coconut_palm5_leaves
10
0.251801
20
0.632246
30
4.014002
11
0.081370
21
0.527349
31
3.945892
12
0.351806
22
0.369124
32
3.397220
13
0.624513
23
0.304491
33
3.414550
0
3DFACE
8
coconut_palm5_leaves
10
0.081370
20
0.527349
30
3.945892
11
0.023393
21
0.292078
31
3.770810
12
0.357473
22
-0.077511
32
3.327444
13
0.351806
23
0.369124
33
3.397220
0
3DFACE
8
coconut_palm5_leaves
10
-0.001893
20
0.030176
30
4.637785
11
0.295302
21
-0.200008
31
4.660386
12
0.186510
22
0.177026
32
4.405961
13
-0.110685
23
0.407210
33
4.383360
0
3DFACE
8
coconut_palm5_leaves
10
-0.110685
20
0.407210
30
4.383360
11
0.186510
21
0.177026
31
4.405961
12
0.229968
22
0.412257
32
3.957192
13
-0.067227
23
0.642441
33
3.934591
0
3DFACE
8
coconut_palm5_leaves
10
-0.067227
20
0.642441
30
3.934591
11
0.229968
21
0.412257
31
3.957192
12
0.499528
22
0.254032
32
3.389790
13
0.204495
23
0.484216
33
3.400161
0
3DFACE
8
coconut_palm5_leaves
10
0.075719
20
-0.308677
30
4.667507
11
0.161223
21
-0.084542
31
4.621796
12
0.607581
22
-0.239188
32
4.701025
13
0.521717
23
-0.463247
33
4.747062
0
3DFACE
8
coconut_palm5_leaves
10
0.161223
20
-0.084542
30
4.621796
11
0.246728
21
0.139593
31
4.576086
12
0.693295
22
-0.015175
32
4.655742
13
0.607581
23
-0.239188
33
4.701025
0
3DFACE
8
coconut_palm5_leaves
10
0.521717
20
-0.463247
30
4.747062
11
0.607581
21
-0.239188
31
4.701025
12
1.052695
22
-0.394199
32
4.786423
13
0.965871
23
-0.618169
33
4.834243
0
3DFACE
8
coconut_palm5_leaves
10
0.607581
20
-0.239188
30
4.701025
11
0.693295
21
-0.015175
31
4.655742
12
1.138587
22
-0.170491
32
4.743130
13
1.052695
23
-0.394199
33
4.786423
0
3DFACE
8
coconut_palm5_leaves
10
0.965871
20
-0.618169
30
4.834243
11
1.052695
21
-0.394199
31
4.786423
12
1.495524
22
-0.549811
32
4.882599
13
1.406844
23
-0.773720
33
4.934767
0
3DFACE
8
coconut_palm5_leaves
10
1.052695
20
-0.394199
30
4.786423
11
1.138587
21
-0.170491
31
4.743130
12
1.581262
22
-0.326635
32
4.843984
13
1.495524
23
-0.549811
33
4.882599
0
3DFACE
8
coconut_palm5_leaves
10
0.134253
20
-0.026086
30
4.857899
11
0.188194
21
-0.142998
31
4.385694
12
0.634552
22
-0.297644
32
4.464922
13
0.580610
23
-0.180732
33
4.937127
0
3DFACE
8
coconut_palm5_coconuts
10
0.169512
20
-0.165159
30
4.627767
11
0.163322
21
-0.189686
31
4.635900
12
0.162900
22
-0.188446
32
4.616810
13
0.162900
23
-0.188446
33
4.616810
0
3DFACE
8
coconut_palm5_coconuts
10
0.163322
20
-0.189686
30
4.635900
11
0.173305
21
-0.218248
31
4.640843
12
0.172574
22
-0.216100
32
4.607780
13
0.162900
23
-0.188446
33
4.616810
0
3DFACE
8
coconut_palm5_coconuts
10
0.173305
20
-0.218248
30
4.640843
11
0.196786
21
-0.243193
31
4.641274
12
0.195942
22
-0.240712
32
4.603095
13
0.172574
23
-0.216100
33
4.607780
0
3DFACE
8
coconut_palm5_coconuts
10
0.196786
20
-0.243193
30
4.641274
11
0.227474
21
-0.257835
31
4.637075
12
0.226743
22
-0.255687
32
4.604012
13
0.195942
23
-0.240712
33
4.603095
0
3DFACE
8
coconut_palm5_coconuts
10
0.227474
20
-0.257835
30
4.637075
11
0.257145
21
-0.258252
31
4.629372
12
0.256724
22
-0.257012
32
4.610282
13
0.226743
23
-0.255687
33
4.604012
0
3DFACE
8
coconut_palm5_coconuts
10
0.257145
20
-0.258252
30
4.629372
11
0.277850
21
-0.244332
31
4.620229
12
0.256724
22
-0.257012
32
4.610282
13
0.256724
23
-0.257012
33
4.610282
0
3DFACE
8
coconut_palm5_coconuts
10
0.169512
20
-0.165159
30
4.627767
11
0.171621
21
-0.179665
31
4.649929
12
0.163322
22
-0.189686
32
4.635900
13
0.163322
23
-0.189686
33
4.635900
0
3DFACE
8
coconut_palm5_coconuts
10
0.171621
20
-0.179665
30
4.649929
11
0.187680
21
-0.200892
31
4.665143
12
0.173305
22
-0.218248
32
4.640843
13
0.163322
23
-0.189686
33
4.635900
0
3DFACE
8
coconut_palm5_coconuts
10
0.187680
20
-0.200892
30
4.665143
11
0.213385
21
-0.223151
31
4.669332
12
0.196786
22
-0.243193
32
4.641274
13
0.173305
23
-0.218248
33
4.640843
0
3DFACE
8
coconut_palm5_coconuts
10
0.213385
20
-0.223151
30
4.669332
11
0.241848
21
-0.240479
31
4.661375
12
0.227474
22
-0.257835
32
4.637075
13
0.196786
23
-0.243193
33
4.641274
0
3DFACE
8
coconut_palm5_coconuts
10
0.241848
20
-0.240479
30
4.661375
11
0.265445
21
-0.248231
31
4.643401
12
0.257145
22
-0.258252
32
4.629372
13
0.227474
23
-0.257835
33
4.637075
0
3DFACE
8
coconut_palm5_coconuts
10
0.265445
20
-0.248231
30
4.643401
11
0.277850
21
-0.244332
31
4.620229
12
0.257145
22
-0.258252
32
4.629372
13
0.257145
23
-0.258252
33
4.629372
0
3DFACE
8
coconut_palm5_coconuts
10
0.169512
20
-0.165159
30
4.627767
11
0.182936
21
-0.164253
31
4.650681
12
0.171621
22
-0.179665
32
4.649929
13
0.171621
23
-0.179665
33
4.649929
0
3DFACE
8
coconut_palm5_coconuts
10
0.182936
20
-0.164253
30
4.650681
11
0.207278
21
-0.174198
31
4.666444
12
0.187680
22
-0.200892
32
4.665143
13
0.171621
23
-0.179665
33
4.649929
0
3DFACE
8
coconut_palm5_coconuts
10
0.207278
20
-0.174198
30
4.666444
11
0.236015
21
-0.192328
31
4.670835
12
0.213385
22
-0.223151
32
4.669332
13
0.187680
23
-0.200892
33
4.665143
0
3DFACE
8
coconut_palm5_coconuts
10
0.236015
20
-0.192328
30
4.670835
11
0.261447
21
-0.213785
31
4.662675
12
0.241848
22
-0.240479
32
4.661375
13
0.213385
23
-0.223151
33
4.669332
0
3DFACE
8
coconut_palm5_coconuts
10
0.261447
20
-0.213785
30
4.662675
11
0.276760
21
-0.232820
31
4.644153
12
0.265445
22
-0.248231
32
4.643401
13
0.241848
23
-0.240479
33
4.661375
0
3DFACE
8
coconut_palm5_coconuts
10
0.276760
20
-0.232820
30
4.644153
11
0.277850
21
-0.244332
31
4.620229
12
0.265445
22
-0.248231
32
4.643401
13
0.265445
23
-0.248231
33
4.643401
0
3DFACE
8
coconut_palm5_coconuts
10
0.169512
20
-0.165159
30
4.627767
11
0.190639
21
-0.152479
31
4.637713
12
0.182936
22
-0.164253
32
4.650681
13
0.182936
23
-0.164253
33
4.650681
0
3DFACE
8
coconut_palm5_coconuts
10
0.190639
20
-0.152479
30
4.637713
11
0.220619
21
-0.153804
31
4.643985
12
0.207278
22
-0.174198
32
4.666444
13
0.182936
23
-0.164253
33
4.650681
0
3DFACE
8
coconut_palm5_coconuts
10
0.220619
20
-0.153804
30
4.643985
11
0.251420
21
-0.168778
31
4.644901
12
0.236015
22
-0.192328
32
4.670835
13
0.207278
23
-0.174198
33
4.666444
0
3DFACE
8
coconut_palm5_coconuts
10
0.251420
20
-0.168778
30
4.644901
11
0.274788
21
-0.193390
31
4.640216
12
0.261447
22
-0.213785
32
4.662675
13
0.236015
23
-0.192328
33
4.670835
0
3DFACE
8
coconut_palm5_coconuts
10
0.274788
20
-0.193390
30
4.640216
11
0.284463
21
-0.221045
31
4.631185
12
0.276760
22
-0.232820
32
4.644153
13
0.261447
23
-0.213785
33
4.662675
0
3DFACE
8
coconut_palm5_coconuts
10
0.284463
20
-0.221045
30
4.631185
11
0.277850
21
-0.244332
31
4.620229
12
0.276760
22
-0.232820
32
4.644153
13
0.276760
23
-0.232820
33
4.644153
0
3DFACE
8
coconut_palm5_coconuts
10
0.169512
20
-0.165159
30
4.627767
11
0.190217
21
-0.151239
31
4.618624
12
0.190639
22
-0.152479
32
4.637713
13
0.190639
23
-0.152479
33
4.637713
0
3DFACE
8
coconut_palm5_coconuts
10
0.190217
20
-0.151239
30
4.618624
11
0.219888
21
-0.151656
31
4.610921
12
0.220619
22
-0.153804
32
4.643985
13
0.190639
23
-0.152479
33
4.637713
0
3DFACE
8
coconut_palm5_coconuts
10
0.219888
20
-0.151656
30
4.610921
11
0.250576
21
-0.166298
31
4.606722
12
0.251420
22
-0.168778
32
4.644901
13
0.220619
23
-0.153804
33
4.643985
0
3DFACE
8
coconut_palm5_coconuts
10
0.250576
20
-0.166298
30
4.606722
11
0.274058
21
-0.191243
31
4.607152
12
0.274788
22
-0.193390
32
4.640216
13
0.251420
23
-0.168778
33
4.644901
0
3DFACE
8
coconut_palm5_coconuts
10
0.274058
20
-0.191243
30
4.607152
11
0.284040
21
-0.219805
31
4.612097
12
0.284463
22
-0.221045
32
4.631185
13
0.274788
23
-0.193390
33
4.640216
0
3DFACE
8
coconut_palm5_coconuts
10
0.284040
20
-0.219805
30
4.612097
11
0.277850
21
-0.244332
31
4.620229
12
0.284463
22
-0.221045
32
4.631185
13
0.284463
23
-0.221045
33
4.631185
0
3DFACE
8
coconut_palm5_coconuts
10
0.169512
20
-0.165159
30
4.627767
11
0.181918
21
-0.161260
31
4.604595
12
0.190217
22
-0.151239
32
4.618624
13
0.190217
23
-0.151239
33
4.618624
0
3DFACE
8
coconut_palm5_coconuts
10
0.181918
20
-0.161260
30
4.604595
11
0.205514
21
-0.169012
31
4.586622
12
0.219888
22
-0.151656
32
4.610921
13
0.190217
23
-0.151239
33
4.618624
0
3DFACE
8
coconut_palm5_coconuts
10
0.205514
20
-0.169012
30
4.586622
11
0.233978
21
-0.186340
31
4.578663
12
0.250576
22
-0.166298
32
4.606722
13
0.219888
23
-0.151656
33
4.610921
0
3DFACE
8
coconut_palm5_coconuts
10
0.233978
20
-0.186340
30
4.578663
11
0.259683
21
-0.208599
31
4.582853
12
0.274058
22
-0.191243
32
4.607152
13
0.250576
23
-0.166298
33
4.606722
0
3DFACE
8
coconut_palm5_coconuts
10
0.259683
20
-0.208599
30
4.582853
11
0.275741
21
-0.229826
31
4.598067
12
0.284040
22
-0.219805
32
4.612097
13
0.274058
23
-0.191243
33
4.607152
0
3DFACE
8
coconut_palm5_coconuts
10
0.275741
20
-0.229826
30
4.598067
11
0.277850
21
-0.244332
31
4.620229
12
0.284040
22
-0.219805
32
4.612097
13
0.284040
23
-0.219805
33
4.612097
0
3DFACE
8
coconut_palm5_coconuts
10
0.169512
20
-0.165159
30
4.627767
11
0.170603
21
-0.176671
31
4.603843
12
0.181918
22
-0.161260
32
4.604595
13
0.181918
23
-0.161260
33
4.604595
0
3DFACE
8
coconut_palm5_coconuts
10
0.170603
20
-0.176671
30
4.603843
11
0.185915
21
-0.195706
31
4.585321
12
0.205514
22
-0.169012
32
4.586622
13
0.181918
23
-0.161260
33
4.604595
0
3DFACE
8
coconut_palm5_coconuts
10
0.185915
20
-0.195706
30
4.585321
11
0.211348
21
-0.217163
31
4.577161
12
0.233978
22
-0.186340
32
4.578663
13
0.205514
23
-0.169012
33
4.586622
0
3DFACE
8
coconut_palm5_coconuts
10
0.211348
20
-0.217163
30
4.577161
11
0.240085
21
-0.235293
31
4.581552
12
0.259683
22
-0.208599
32
4.582853
13
0.233978
23
-0.186340
33
4.578663
0
3DFACE
8
coconut_palm5_coconuts
10
0.240085
20
-0.235293
30
4.581552
11
0.264426
21
-0.245237
31
4.597316
12
0.275741
22
-0.229826
32
4.598067
13
0.259683
23
-0.208599
33
4.582853
0
3DFACE
8
coconut_palm5_coconuts
10
0.264426
20
-0.245237
30
4.597316
11
0.277850
21
-0.244332
31
4.620229
12
0.275741
22
-0.229826
32
4.598067
13
0.275741
23
-0.229826
33
4.598067
0
3DFACE
8
coconut_palm5_coconuts
10
0.169512
20
-0.165159
30
4.627767
11
0.162900
21
-0.188446
31
4.616810
12
0.170603
22
-0.176671
32
4.603843
13
0.170603
23
-0.176671
33
4.603843
0
3DFACE
8
coconut_palm5_coconuts
10
0.162900
20
-0.188446
30
4.616810
11
0.172574
21
-0.216100
31
4.607780
12
0.185915
22
-0.195706
32
4.585321
13
0.170603
23
-0.176671
33
4.603843
0
3DFACE
8
coconut_palm5_coconuts
10
0.172574
20
-0.216100
30
4.607780
11
0.195942
21
-0.240712
31
4.603095
12
0.211348
22
-0.217163
32
4.577161
13
0.185915
23
-0.195706
33
4.585321
0
3DFACE
8
coconut_palm5_coconuts
10
0.195942
20
-0.240712
30
4.603095
11
0.226743
21
-0.255687
31
4.604012
12
0.240085
22
-0.235293
32
4.581552
13
0.211348
23
-0.217163
33
4.577161
0
3DFACE
8
coconut_palm5_coconuts
10
0.226743
20
-0.255687
30
4.604012
11
0.256724
21
-0.257012
31
4.610282
12
0.264426
22
-0.245237
32
4.597316
13
0.240085
23
-0.235293
33
4.581552
0
3DFACE
8
coconut_palm5_coconuts
10
0.256724
20
-0.257012
30
4.610282
11
0.277850
21
-0.244332
31
4.620229
12
0.264426
22
-0.245237
32
4.597316
13
0.264426
23
-0.245237
33
4.597316
0
3DFACE
8
coconut_palm5_coconuts
10
0.033615
20
-0.134702
30
4.487390
11
0.050415
21
-0.127880
31
4.481277
12
0.031443
22
-0.109337
32
4.479778
13
0.031443
23
-0.109337
33
4.479778
0
3DFACE
8
coconut_palm5_coconuts
10
0.033615
20
-0.134702
30
4.487390
11
0.041642
21
-0.154070
31
4.509758
12
0.070739
22
-0.142254
32
4.499172
13
0.050415
23
-0.127880
33
4.481277
0
3DFACE
8
coconut_palm5_coconuts
10
0.041642
20
-0.154070
30
4.509758
11
0.053372
21
-0.162251
31
4.540892
12
0.086971
22
-0.148607
32
4.528667
13
0.070739
23
-0.142254
33
4.499172
0
3DFACE
8
coconut_palm5_coconuts
10
0.053372
20
-0.162251
30
4.540892
11
0.065661
21
-0.157052
31
4.572447
12
0.094759
22
-0.145236
32
4.561861
13
0.086971
23
-0.148607
33
4.528667
0
3DFACE
8
coconut_palm5_coconuts
10
0.065661
20
-0.157052
30
4.572447
11
0.075218
21
-0.139868
31
4.595969
12
0.092018
22
-0.133046
32
4.589856
13
0.094759
23
-0.145236
33
4.561861
0
3DFACE
8
coconut_palm5_coconuts
10
0.075218
20
-0.139868
30
4.595969
11
0.079481
21
-0.115302
31
4.605154
12
0.092018
22
-0.133046
32
4.589856
13
0.092018
23
-0.133046
33
4.589856
0
3DFACE
8
coconut_palm5_coconuts
10
0.050415
20
-0.127880
30
4.481277
11
0.057985
21
-0.110430
31
4.479207
12
0.031443
22
-0.109337
32
4.479778
13
0.031443
23
-0.109337
33
4.479778
0
3DFACE
8
coconut_palm5_coconuts
10
0.050415
20
-0.127880
30
4.481277
11
0.070739
21
-0.142254
31
4.499172
12
0.083852
22
-0.112029
32
4.495586
13
0.057985
23
-0.110430
33
4.479207
0
3DFACE
8
coconut_palm5_coconuts
10
0.070739
20
-0.142254
30
4.499172
11
0.086971
21
-0.148607
31
4.528667
12
0.102112
22
-0.113706
32
4.524526
13
0.083852
23
-0.112029
33
4.495586
0
3DFACE
8
coconut_palm5_coconuts
10
0.086971
20
-0.148607
30
4.528667
11
0.094759
21
-0.145236
31
4.561861
12
0.107872
22
-0.115011
32
4.558273
13
0.102112
23
-0.113706
33
4.524526
0
3DFACE
8
coconut_palm5_coconuts
10
0.094759
20
-0.145236
30
4.561861
11
0.092018
21
-0.133046
31
4.589856
12
0.099588
22
-0.115595
32
4.587786
13
0.107872
23
-0.115011
33
4.558273
0
3DFACE
8
coconut_palm5_coconuts
10
0.092018
20
-0.133046
30
4.589856
11
0.079481
21
-0.115302
31
4.605154
12
0.099588
22
-0.115595
32
4.587786
13
0.099588
23
-0.115595
33
4.587786
0
3DFACE
8
coconut_palm5_coconuts
10
0.057985
20
-0.110430
30
4.479207
11
0.051893
21
-0.092573
31
4.482391
12
0.031443
22
-0.109337
32
4.479778
13
0.031443
23
-0.109337
33
4.479778
0
3DFACE
8
coconut_palm5_coconuts
10
0.057985
20
-0.110430
30
4.479207
11
0.083852
21
-0.112029
31
4.495586
12
0.073299
22
-0.081100
32
4.501101
13
0.051893
23
-0.092573
33
4.482391
0
3DFACE
8
coconut_palm5_coconuts
10
0.083852
20
-0.112029
30
4.495586
11
0.102112
21
-0.113706
31
4.524526
12
0.089926
22
-0.077993
32
4.530894
13
0.073299
23
-0.081100
33
4.501101
0
3DFACE
8
coconut_palm5_coconuts
10
0.102112
20
-0.113706
30
4.524526
11
0.107872
21
-0.115011
31
4.558273
12
0.097318
22
-0.084083
32
4.563789
13
0.089926
23
-0.077993
33
4.530894
0
3DFACE
8
coconut_palm5_coconuts
10
0.107872
20
-0.115011
30
4.558273
11
0.099588
21
-0.115595
31
4.587786
12
0.093495
22
-0.097739
32
4.590970
13
0.097318
23
-0.084083
33
4.563789
0
3DFACE
8
coconut_palm5_coconuts
10
0.099588
20
-0.115595
30
4.587786
11
0.079481
21
-0.115302
31
4.605154
12
0.093495
22
-0.097739
32
4.590970
13
0.093495
23
-0.097739
33
4.590970
0
3DFACE
8
coconut_palm5_coconuts
10
0.051893
20
-0.092573
30
4.482391
11
0.035705
21
-0.084770
31
4.488964
12
0.031443
22
-0.109337
32
4.479778
13
0.031443
23
-0.109337
33
4.479778
0
3DFACE
8
coconut_palm5_coconuts
10
0.051893
20
-0.092573
30
4.482391
11
0.073299
21
-0.081100
31
4.501101
12
0.045262
22
-0.067586
32
4.512486
13
0.035705
23
-0.084770
33
4.488964
0
3DFACE
8
coconut_palm5_coconuts
10
0.073299
20
-0.081100
30
4.501101
11
0.089926
21
-0.077993
31
4.530894
12
0.057552
22
-0.062388
32
4.544041
13
0.045262
23
-0.067586
33
4.512486
0
3DFACE
8
coconut_palm5_coconuts
10
0.089926
20
-0.077993
30
4.530894
11
0.097318
21
-0.084083
31
4.563789
12
0.069281
22
-0.070568
32
4.575174
13
0.057552
23
-0.062388
33
4.544041
0
3DFACE
8
coconut_palm5_coconuts
10
0.097318
20
-0.084083
30
4.563789
11
0.093495
21
-0.097739
31
4.590970
12
0.077308
22
-0.089936
32
4.597543
13
0.069281
23
-0.070568
33
4.575174
0
3DFACE
8
coconut_palm5_coconuts
10
0.093495
20
-0.097739
30
4.590970
11
0.079481
21
-0.115302
31
4.605154
12
0.077308
22
-0.089936
32
4.597543
13
0.077308
23
-0.089936
33
4.597543
0
3DFACE
8
coconut_palm5_coconuts
10
0.035705
20
-0.084770
30
4.488964
11
0.018906
21
-0.091592
31
4.495077
12
0.031443
22
-0.109337
32
4.479778
13
0.031443
23
-0.109337
33
4.479778
0
3DFACE
8
coconut_palm5_coconuts
10
0.035705
20
-0.084770
30
4.488964
11
0.045262
21
-0.067586
31
4.512486
12
0.016165
22
-0.079402
32
4.523073
13
0.018906
23
-0.091592
33
4.495077
0
3DFACE
8
coconut_palm5_coconuts
10
0.045262
20
-0.067586
30
4.512486
11
0.057552
21
-0.062388
31
4.544041
12
0.023953
22
-0.076032
32
4.556265
13
0.016165
23
-0.079402
33
4.523073
0
3DFACE
8
coconut_palm5_coconuts
10
0.057552
20
-0.062388
30
4.544041
11
0.069281
21
-0.070568
31
4.575174
12
0.040184
22
-0.082384
32
4.585761
13
0.023953
23
-0.076032
33
4.556265
0
3DFACE
8
coconut_palm5_coconuts
10
0.069281
20
-0.070568
30
4.575174
11
0.077308
21
-0.089936
31
4.597543
12
0.060509
22
-0.096758
32
4.603655
13
0.040184
23
-0.082384
33
4.585761
0
3DFACE
8
coconut_palm5_coconuts
10
0.077308
20
-0.089936
30
4.597543
11
0.079481
21
-0.115302
31
4.605154
12
0.060509
22
-0.096758
32
4.603655
13
0.060509
23
-0.096758
33
4.603655
0
3DFACE
8
coconut_palm5_coconuts
10
0.018906
20
-0.091592
30
4.495077
11
0.011335
21
-0.109043
31
4.497147
12
0.031443
22
-0.109337
32
4.479778
13
0.031443
23
-0.109337
33
4.479778
0
3DFACE
8
coconut_palm5_coconuts
10
0.018906
20
-0.091592
30
4.495077
11
0.016165
21
-0.079402
31
4.523073
12
0.003052
22
-0.109627
32
4.526659
13
0.011335
23
-0.109043
33
4.497147
0
3DFACE
8
coconut_palm5_coconuts
10
0.016165
20
-0.079402
30
4.523073
11
0.023953
21
-0.076032
31
4.556265
12
0.008812
22
-0.110932
32
4.560407
13
0.003052
23
-0.109627
33
4.526659
0
3DFACE
8
coconut_palm5_coconuts
10
0.023953
20
-0.076032
30
4.556265
11
0.040184
21
-0.082384
31
4.585761
12
0.027071
22
-0.112609
32
4.589347
13
0.008812
23
-0.110932
33
4.560407
0
3DFACE
8
coconut_palm5_coconuts
10
0.040184
20
-0.082384
30
4.585761
11
0.060509
21
-0.096758
31
4.603655
12
0.052938
22
-0.114209
32
4.605726
13
0.027071
23
-0.112609
33
4.589347
0
3DFACE
8
coconut_palm5_coconuts
10
0.060509
20
-0.096758
30
4.603655
11
0.079481
21
-0.115302
31
4.605154
12
0.052938
22
-0.114209
32
4.605726
13
0.052938
23
-0.114209
33
4.605726
0
3DFACE
8
coconut_palm5_coconuts
10
0.011335
20
-0.109043
30
4.497147
11
0.017428
21
-0.126899
31
4.493963
12
0.031443
22
-0.109337
32
4.479778
13
0.031443
23
-0.109337
33
4.479778
0
3DFACE
8
coconut_palm5_coconuts
10
0.011335
20
-0.109043
30
4.497147
11
0.003052
21
-0.109627
31
4.526659
12
0.013605
22
-0.140555
32
4.521144
13
0.017428
23
-0.126899
33
4.493963
0
3DFACE
8
coconut_palm5_coconuts
10
0.003052
20
-0.109627
30
4.526659
11
0.008812
21
-0.110932
31
4.560407
12
0.020998
22
-0.146645
32
4.554038
13
0.013605
23
-0.140555
33
4.521144
0
3DFACE
8
coconut_palm5_coconuts
10
0.008812
20
-0.110932
30
4.560407
11
0.027071
21
-0.112609
31
4.589347
12
0.037624
22
-0.143538
32
4.583832
13
0.020998
23
-0.146645
33
4.554038
0
3DFACE
8
coconut_palm5_coconuts
10
0.027071
20
-0.112609
30
4.589347
11
0.052938
21
-0.114209
31
4.605726
12
0.059031
22
-0.132065
32
4.602541
13
0.037624
23
-0.143538
33
4.583832
0
3DFACE
8
coconut_palm5_coconuts
10
0.052938
20
-0.114209
30
4.605726
11
0.079481
21
-0.115302
31
4.605154
12
0.059031
22
-0.132065
32
4.602541
13
0.059031
23
-0.132065
33
4.602541
0
3DFACE
8
coconut_palm5_coconuts
10
0.017428
20
-0.126899
30
4.493963
11
0.033615
21
-0.134702
31
4.487390
12
0.031443
22
-0.109337
32
4.479778
13
0.031443
23
-0.109337
33
4.479778
0
3DFACE
8
coconut_palm5_coconuts
10
0.017428
20
-0.126899
30
4.493963
11
0.013605
21
-0.140555
31
4.521144
12
0.041642
22
-0.154070
32
4.509758
13
0.033615
23
-0.134702
33
4.487390
0
3DFACE
8
coconut_palm5_coconuts
10
0.013605
20
-0.140555
30
4.521144
11
0.020998
21
-0.146645
31
4.554038
12
0.053372
22
-0.162251
32
4.540892
13
0.041642
23
-0.154070
33
4.509758
0
3DFACE
8
coconut_palm5_coconuts
10
0.020998
20
-0.146645
30
4.554038
11
0.037624
21
-0.143538
31
4.583832
12
0.065661
22
-0.157052
32
4.572447
13
0.053372
23
-0.162251
33
4.540892
0
3DFACE
8
coconut_palm5_coconuts
10
0.037624
20
-0.143538
30
4.583832
11
0.059031
21
-0.132065
31
4.602541
12
0.075218
22
-0.139868
32
4.595969
13
0.065661
23
-0.157052
33
4.572447
0
3DFACE
8
coconut_palm5_coconuts
10
0.059031
20
-0.132065
30
4.602541
11
0.079481
21
-0.115302
31
4.605154
12
0.075218
22
-0.139868
32
4.595969
13
0.075218
23
-0.139868
33
4.595969
0
3DFACE
8
coconut_palm5_coconuts
10
0.333554
20
0.066706
30
4.527091
11
0.344611
21
0.060708
31
4.512672
12
0.359259
22
0.067493
32
4.533779
13
0.359259
23
0.067493
33
4.533779
0
3DFACE
8
coconut_palm5_coconuts
10
0.333554
20
0.066706
30
4.527091
11
0.308398
21
0.049408
31
4.524290
12
0.327549
22
0.039019
32
4.499318
13
0.344611
23
0.060708
33
4.512672
0
3DFACE
8
coconut_palm5_coconuts
10
0.308398
20
0.049408
30
4.524290
11
0.290529
21
0.020235
31
4.526127
12
0.312642
22
0.008237
32
4.497293
13
0.327549
23
0.039019
33
4.499318
0
3DFACE
8
coconut_palm5_coconuts
10
0.290529
20
0.020235
30
4.526127
11
0.284736
21
-0.012998
31
4.532112
12
0.303887
22
-0.023389
32
4.507141
13
0.312642
23
0.008237
33
4.497293
0
3DFACE
8
coconut_palm5_coconuts
10
0.284736
20
-0.012998
30
4.532112
11
0.292572
21
-0.041385
31
4.540638
12
0.303629
22
-0.047384
32
4.526220
13
0.303887
23
-0.023389
33
4.507141
0
3DFACE
8
coconut_palm5_coconuts
10
0.292572
20
-0.041385
30
4.540638
11
0.311936
21
-0.057321
31
4.549422
12
0.303629
22
-0.047384
32
4.526220
13
0.303629
23
-0.047384
33
4.526220
0
3DFACE
8
coconut_palm5_coconuts
10
0.344611
20
0.060708
30
4.512672
11
0.362391
21
0.053786
31
4.511233
12
0.359259
22
0.067493
32
4.533779
13
0.359259
23
0.067493
33
4.533779
0
3DFACE
8
coconut_palm5_coconuts
10
0.344611
20
0.060708
30
4.512672
11
0.327549
21
0.039019
31
4.499318
12
0.358345
22
0.027030
32
4.496822
13
0.362391
23
0.053786
33
4.511233
0
3DFACE
8
coconut_palm5_coconuts
10
0.327549
20
0.039019
30
4.499318
11
0.312642
21
0.008237
31
4.497293
12
0.348205
22
-0.005607
32
4.494410
13
0.358345
23
0.027030
33
4.496822
0
3DFACE
8
coconut_palm5_coconuts
10
0.312642
20
0.008237
30
4.497293
11
0.303887
21
-0.023389
31
4.507141
12
0.334684
22
-0.035377
32
4.504644
13
0.348205
23
-0.005607
33
4.494410
0
3DFACE
8
coconut_palm5_coconuts
10
0.303887
20
-0.023389
30
4.507141
11
0.303629
21
-0.047384
31
4.526220
12
0.321409
22
-0.054306
32
4.524780
13
0.334684
23
-0.035377
33
4.504644
0
3DFACE
8
coconut_palm5_coconuts
10
0.303629
20
-0.047384
30
4.526220
11
0.311936
21
-0.057321
31
4.549422
12
0.321409
22
-0.054306
32
4.524780
13
0.321409
23
-0.054306
33
4.524780
0
3DFACE
8
coconut_palm5_coconuts
10
0.362391
20
0.053786
30
4.511233
11
0.376480
21
0.049997
31
4.523612
12
0.359259
22
0.067493
32
4.533779
13
0.359259
23
0.067493
33
4.533779
0
3DFACE
8
coconut_palm5_coconuts
10
0.362391
20
0.053786
30
4.511233
11
0.358345
21
0.027030
31
4.496822
12
0.382747
22
0.020465
32
4.518265
13
0.376480
23
0.049997
33
4.523612
0
3DFACE
8
coconut_palm5_coconuts
10
0.358345
20
0.027030
30
4.496822
11
0.348205
21
-0.005607
31
4.494410
12
0.376379
22
-0.013186
32
4.519174
13
0.382747
23
0.020465
33
4.518265
0
3DFACE
8
coconut_palm5_coconuts
10
0.348205
20
-0.005607
30
4.494410
11
0.334684
21
-0.035377
31
4.504644
12
0.359086
22
-0.041942
32
4.526088
13
0.376379
23
-0.013186
33
4.519174
0
3DFACE
8
coconut_palm5_coconuts
10
0.334684
20
-0.035377
30
4.504644
11
0.321409
21
-0.054306
31
4.524780
12
0.335498
22
-0.058096
32
4.537159
13
0.359086
23
-0.041942
33
4.526088
0
3DFACE
8
coconut_palm5_coconuts
10
0.321409
20
-0.054306
30
4.524780
11
0.311936
21
-0.057321
31
4.549422
12
0.335498
22
-0.058096
32
4.537159
13
0.335498
23
-0.058096
33
4.537159
0
3DFACE
8
coconut_palm5_coconuts
10
0.376480
20
0.049997
30
4.523612
11
0.378621
21
0.051559
31
4.542564
12
0.359259
22
0.067493
32
4.533779
13
0.359259
23
0.067493
33
4.533779
0
3DFACE
8
coconut_palm5_coconuts
10
0.376480
20
0.049997
30
4.523612
11
0.382747
21
0.020465
31
4.518265
12
0.386458
22
0.023171
32
4.551090
13
0.378621
23
0.051559
33
4.542564
0
3DFACE
8
coconut_palm5_coconuts
10
0.382747
20
0.020465
30
4.518265
11
0.376379
21
-0.013186
31
4.519174
12
0.380666
22
-0.010061
32
4.557072
13
0.386458
23
0.023171
33
4.551090
0
3DFACE
8
coconut_palm5_coconuts
10
0.376379
20
-0.013186
30
4.519174
11
0.359086
21
-0.041942
31
4.526088
12
0.362796
22
-0.039235
32
4.558911
13
0.380666
23
-0.010061
33
4.557072
0
3DFACE
8
coconut_palm5_coconuts
10
0.359086
20
-0.041942
30
4.526088
11
0.335498
21
-0.058096
31
4.537159
12
0.337641
22
-0.056533
32
4.556108
13
0.362796
23
-0.039235
33
4.558911
0
3DFACE
8
coconut_palm5_coconuts
10
0.335498
20
-0.058096
30
4.537159
11
0.311936
21
-0.057321
31
4.549422
12
0.337641
22
-0.056533
32
4.556108
13
0.337641
23
-0.056533
33
4.556108
0
3DFACE
8
coconut_palm5_coconuts
10
0.378621
20
0.051559
30
4.542564
11
0.367565
21
0.057557
31
4.556982
12
0.359259
22
0.067493
32
4.533779
13
0.359259
23
0.067493
33
4.533779
0
3DFACE
8
coconut_palm5_coconuts
10
0.378621
20
0.051559
30
4.542564
11
0.386458
21
0.023171
31
4.551090
12
0.367307
22
0.033561
32
4.576062
13
0.367565
23
0.057557
33
4.556982
0
3DFACE
8
coconut_palm5_coconuts
10
0.386458
20
0.023171
30
4.551090
11
0.380666
21
-0.010061
31
4.557072
12
0.358551
22
0.001937
32
4.585909
13
0.367307
23
0.033561
33
4.576062
0
3DFACE
8
coconut_palm5_coconuts
10
0.380666
20
-0.010061
30
4.557072
11
0.362796
21
-0.039235
31
4.558911
12
0.343646
22
-0.028846
32
4.583882
13
0.358551
23
0.001937
33
4.585909
0
3DFACE
8
coconut_palm5_coconuts
10
0.362796
20
-0.039235
30
4.558911
11
0.337641
21
-0.056533
31
4.556108
12
0.326584
22
-0.050535
32
4.570528
13
0.343646
23
-0.028846
33
4.583882
0
3DFACE
8
coconut_palm5_coconuts
10
0.337641
20
-0.056533
30
4.556108
11
0.311936
21
-0.057321
31
4.549422
12
0.326584
22
-0.050535
32
4.570528
13
0.326584
23
-0.050535
33
4.570528
0
3DFACE
8
coconut_palm5_coconuts
10
0.367565
20
0.057557
30
4.556982
11
0.349785
21
0.064479
31
4.558421
12
0.359259
22
0.067493
32
4.533779
13
0.359259
23
0.067493
33
4.533779
0
3DFACE
8
coconut_palm5_coconuts
10
0.367565
20
0.057557
30
4.556982
11
0.367307
21
0.033561
31
4.576062
12
0.336511
22
0.045550
32
4.578556
13
0.349785
23
0.064479
33
4.558421
0
3DFACE
8
coconut_palm5_coconuts
10
0.367307
20
0.033561
30
4.576062
11
0.358551
21
0.001937
31
4.585909
12
0.322990
22
0.015780
32
4.588791
13
0.336511
23
0.045550
33
4.578556
0
3DFACE
8
coconut_palm5_coconuts
10
0.358551
20
0.001937
30
4.585909
11
0.343646
21
-0.028846
31
4.583882
12
0.312849
22
-0.016856
32
4.586379
13
0.322990
23
0.015780
33
4.588791
0
3DFACE
8
coconut_palm5_coconuts
10
0.343646
20
-0.028846
30
4.583882
11
0.326584
21
-0.050535
31
4.570528
12
0.308803
22
-0.043613
32
4.571968
13
0.312849
23
-0.016856
33
4.586379
0
3DFACE
8
coconut_palm5_coconuts
10
0.326584
20
-0.050535
30
4.570528
11
0.311936
21
-0.057321
31
4.549422
12
0.308803
22
-0.043613
32
4.571968
13
0.308803
23
-0.043613
33
4.571968
0
3DFACE
8
coconut_palm5_coconuts
10
0.349785
20
0.064479
30
4.558421
11
0.335696
21
0.068269
31
4.546042
12
0.359259
22
0.067493
32
4.533779
13
0.359259
23
0.067493
33
4.533779
0
3DFACE
8
coconut_palm5_coconuts
10
0.349785
20
0.064479
30
4.558421
11
0.336511
21
0.045550
31
4.578556
12
0.312108
22
0.052114
32
4.557114
13
0.335696
23
0.068269
33
4.546042
0
3DFACE
8
coconut_palm5_coconuts
10
0.336511
20
0.045550
30
4.578556
11
0.322990
21
0.015780
31
4.588791
12
0.294815
22
0.023359
32
4.564028
13
0.312108
23
0.052114
33
4.557114
0
3DFACE
8
coconut_palm5_coconuts
10
0.322990
20
0.015780
30
4.588791
11
0.312849
21
-0.016856
31
4.586379
12
0.288448
22
-0.010292
32
4.564935
13
0.294815
23
0.023359
33
4.564028
0
3DFACE
8
coconut_palm5_coconuts
10
0.312849
20
-0.016856
30
4.586379
11
0.308803
21
-0.043613
31
4.571968
12
0.294716
22
-0.039824
32
4.559586
13
0.288448
23
-0.010292
33
4.564935
0
3DFACE
8
coconut_palm5_coconuts
10
0.308803
20
-0.043613
30
4.571968
11
0.311936
21
-0.057321
31
4.549422
12
0.294716
22
-0.039824
32
4.559586
13
0.294716
23
-0.039824
33
4.559586
0
3DFACE
8
coconut_palm5_coconuts
10
0.335696
20
0.068269
30
4.546042
11
0.333554
21
0.066706
31
4.527091
12
0.359259
22
0.067493
32
4.533779
13
0.359259
23
0.067493
33
4.533779
0
3DFACE
8
coconut_palm5_coconuts
10
0.335696
20
0.068269
30
4.546042
11
0.312108
21
0.052114
31
4.557114
12
0.308398
22
0.049408
32
4.524290
13
0.333554
23
0.066706
33
4.527091
0
3DFACE
8
coconut_palm5_coconuts
10
0.312108
20
0.052114
30
4.557114
11
0.294815
21
0.023359
31
4.564028
12
0.290529
22
0.020235
32
4.526127
13
0.308398
23
0.049408
33
4.524290
0
3DFACE
8
coconut_palm5_coconuts
10
0.294815
20
0.023359
30
4.564028
11
0.288448
21
-0.010292
31
4.564935
12
0.284736
22
-0.012998
32
4.532112
13
0.290529
23
0.020235
33
4.526127
0
3DFACE
8
coconut_palm5_coconuts
10
0.288448
20
-0.010292
30
4.564935
11
0.294716
21
-0.039824
31
4.559586
12
0.292572
22
-0.041385
32
4.540638
13
0.284736
23
-0.012998
33
4.532112
0
3DFACE
8
coconut_palm5_coconuts
10
0.294716
20
-0.039824
30
4.559586
11
0.311936
21
-0.057321
31
4.549422
12
0.292572
22
-0.041385
32
4.540638
13
0.292572
23
-0.041385
33
4.540638
0
3DFACE
8
coconut_palm5_coconuts
10
0.281496
20
-0.110931
30
4.588387
11
0.290325
21
-0.126734
31
4.607838
12
0.292518
22
-0.134996
32
4.590719
13
0.292518
23
-0.134996
33
4.590719
0
3DFACE
8
coconut_palm5_coconuts
10
0.290325
20
-0.126734
30
4.607838
11
0.314659
21
-0.136707
31
4.623596
12
0.318457
22
-0.151017
32
4.593946
13
0.292518
23
-0.134996
33
4.590719
0
3DFACE
8
coconut_palm5_coconuts
10
0.314659
20
-0.136707
30
4.623596
11
0.347977
21
-0.138177
31
4.631439
12
0.352363
22
-0.154700
32
4.597201
13
0.318457
23
-0.151017
33
4.593946
0
3DFACE
8
coconut_palm5_coconuts
10
0.347977
20
-0.138177
30
4.631439
11
0.381353
21
-0.130751
31
4.629264
12
0.385151
22
-0.145060
32
4.599614
13
0.352363
23
-0.154700
33
4.597201
0
3DFACE
8
coconut_palm5_coconuts
10
0.381353
20
-0.130751
30
4.629264
11
0.405841
21
-0.116417
31
4.617657
12
0.408035
22
-0.124678
32
4.600538
13
0.385151
23
-0.145060
33
4.599614
0
3DFACE
8
coconut_palm5_coconuts
10
0.405841
20
-0.116417
30
4.617657
11
0.414882
21
-0.099017
31
4.599725
12
0.408035
22
-0.124678
32
4.600538
13
0.408035
23
-0.124678
33
4.600538
0
3DFACE
8
coconut_palm5_coconuts
10
0.281496
20
-0.110931
30
4.588387
11
0.288194
21
-0.108748
31
4.614007
12
0.290325
22
-0.126734
32
4.607838
13
0.290325
23
-0.126734
33
4.607838
0
3DFACE
8
coconut_palm5_coconuts
10
0.288194
20
-0.108748
30
4.614007
11
0.310968
21
-0.105554
31
4.634282
12
0.314659
22
-0.136707
32
4.623596
13
0.290325
23
-0.126734
33
4.607838
0
3DFACE
8
coconut_palm5_coconuts
10
0.310968
20
-0.105554
30
4.634282
11
0.343716
21
-0.102204
31
4.643778
12
0.347977
22
-0.138177
32
4.631439
13
0.314659
23
-0.136707
33
4.623596
0
3DFACE
8
coconut_palm5_coconuts
10
0.343716
20
-0.102204
30
4.643778
11
0.377661
21
-0.099597
31
4.639951
12
0.381353
22
-0.130751
32
4.629264
13
0.347977
23
-0.138177
33
4.631439
0
3DFACE
8
coconut_palm5_coconuts
10
0.377661
20
-0.099597
30
4.639951
11
0.403711
21
-0.098430
31
4.623826
12
0.405841
22
-0.116417
32
4.617657
13
0.381353
23
-0.130751
33
4.629264
0
3DFACE
8
coconut_palm5_coconuts
10
0.403711
20
-0.098430
30
4.623826
11
0.414882
21
-0.099017
31
4.599725
12
0.405841
22
-0.116417
32
4.617657
13
0.405841
23
-0.116417
33
4.617657
0
3DFACE
8
coconut_palm5_coconuts
10
0.281496
20
-0.110931
30
4.588387
11
0.287374
21
-0.091573
31
4.605614
12
0.288194
22
-0.108748
32
4.614007
13
0.288194
23
-0.108748
33
4.614007
0
3DFACE
8
coconut_palm5_coconuts
10
0.287374
20
-0.091573
30
4.605614
11
0.309547
21
-0.075805
31
4.619744
12
0.310968
22
-0.105554
32
4.634282
13
0.288194
23
-0.108748
33
4.614007
0
3DFACE
8
coconut_palm5_coconuts
10
0.309547
20
-0.075805
30
4.619744
11
0.342074
21
-0.067854
31
4.626991
12
0.343716
22
-0.102204
32
4.643778
13
0.310968
23
-0.105554
33
4.634282
0
3DFACE
8
coconut_palm5_coconuts
10
0.342074
20
-0.067854
30
4.626991
11
0.376241
21
-0.069849
31
4.625412
12
0.377661
22
-0.099597
32
4.639951
13
0.343716
23
-0.102204
33
4.643778
0
3DFACE
8
coconut_palm5_coconuts
10
0.376241
20
-0.069849
30
4.625412
11
0.402890
21
-0.081255
31
4.615433
12
0.403711
22
-0.098430
32
4.623826
13
0.377661
23
-0.099597
33
4.639951
0
3DFACE
8
coconut_palm5_coconuts
10
0.402890
20
-0.081255
30
4.615433
11
0.414882
21
-0.099017
31
4.599725
12
0.403711
22
-0.098430
32
4.623826
13
0.403711
23
-0.098430
33
4.623826
0
3DFACE
8
coconut_palm5_coconuts
10
0.281496
20
-0.110931
30
4.588387
11
0.288344
21
-0.085270
31
4.587574
12
0.287374
22
-0.091573
32
4.605614
13
0.287374
23
-0.091573
33
4.605614
0
3DFACE
8
coconut_palm5_coconuts
10
0.288344
20
-0.085270
30
4.587574
11
0.311228
21
-0.064888
31
4.588498
12
0.309547
22
-0.075805
32
4.619744
13
0.287374
23
-0.091573
33
4.605614
0
3DFACE
8
coconut_palm5_coconuts
10
0.311228
20
-0.064888
30
4.588498
11
0.344015
21
-0.055248
31
4.590910
12
0.342074
22
-0.067854
32
4.626991
13
0.309547
23
-0.075805
33
4.619744
0
3DFACE
8
coconut_palm5_coconuts
10
0.344015
20
-0.055248
30
4.590910
11
0.377921
21
-0.058931
31
4.594166
12
0.376241
22
-0.069849
32
4.625412
13
0.342074
23
-0.067854
33
4.626991
0
3DFACE
8
coconut_palm5_coconuts
10
0.377921
20
-0.058931
30
4.594166
11
0.403860
21
-0.074952
31
4.597393
12
0.402890
22
-0.081255
32
4.615433
13
0.376241
23
-0.069849
33
4.625412
0
3DFACE
8
coconut_palm5_coconuts
10
0.403860
20
-0.074952
30
4.597393
11
0.414882
21
-0.099017
31
4.599725
12
0.402890
22
-0.081255
32
4.615433
13
0.402890
23
-0.081255
33
4.615433
0
3DFACE
8
coconut_palm5_coconuts
10
0.281496
20
-0.110931
30
4.588387
11
0.290537
21
-0.093531
31
4.570455
12
0.288344
22
-0.085270
32
4.587574
13
0.288344
23
-0.085270
33
4.587574
0
3DFACE
8
coconut_palm5_coconuts
10
0.290537
20
-0.093531
30
4.570455
11
0.315026
21
-0.079197
31
4.558846
12
0.311228
22
-0.064888
32
4.588498
13
0.288344
23
-0.085270
33
4.587574
0
3DFACE
8
coconut_palm5_coconuts
10
0.315026
20
-0.079197
30
4.558846
11
0.348401
21
-0.071771
31
4.556673
12
0.344015
22
-0.055248
32
4.590910
13
0.311228
23
-0.064888
33
4.588498
0
3DFACE
8
coconut_palm5_coconuts
10
0.348401
20
-0.071771
30
4.556673
11
0.381719
21
-0.073241
31
4.564516
12
0.377921
22
-0.058931
32
4.594166
13
0.344015
23
-0.055248
33
4.590910
0
3DFACE
8
coconut_palm5_coconuts
10
0.381719
20
-0.073241
30
4.564516
11
0.406053
21
-0.083214
31
4.580274
12
0.403860
22
-0.074952
32
4.597393
13
0.377921
23
-0.058931
33
4.594166
0
3DFACE
8
coconut_palm5_coconuts
10
0.406053
20
-0.083214
30
4.580274
11
0.414882
21
-0.099017
31
4.599725
12
0.403860
22
-0.074952
32
4.597393
13
0.403860
23
-0.074952
33
4.597393
0
3DFACE
8
coconut_palm5_coconuts
10
0.281496
20
-0.110931
30
4.588387
11
0.292668
21
-0.111518
31
4.564285
12
0.290537
22
-0.093531
32
4.570455
13
0.290537
23
-0.093531
33
4.570455
0
3DFACE
8
coconut_palm5_coconuts
10
0.292668
20
-0.111518
30
4.564285
11
0.318717
21
-0.110351
31
4.548160
12
0.315026
22
-0.079197
32
4.558846
13
0.290537
23
-0.093531
33
4.570455
0
3DFACE
8
coconut_palm5_coconuts
10
0.318717
20
-0.110351
30
4.548160
11
0.352663
21
-0.107744
31
4.544333
12
0.348401
22
-0.071771
32
4.556673
13
0.315026
23
-0.079197
33
4.558846
0
3DFACE
8
coconut_palm5_coconuts
10
0.352663
20
-0.107744
30
4.544333
11
0.385410
21
-0.104394
31
4.553829
12
0.381719
22
-0.073241
32
4.564516
13
0.348401
23
-0.071771
33
4.556673
0
3DFACE
8
coconut_palm5_coconuts
10
0.385410
20
-0.104394
30
4.553829
11
0.408184
21
-0.101200
31
4.574104
12
0.406053
22
-0.083214
32
4.580274
13
0.381719
23
-0.073241
33
4.564516
0
3DFACE
8
coconut_palm5_coconuts
10
0.408184
20
-0.101200
30
4.574104
11
0.414882
21
-0.099017
31
4.599725
12
0.406053
22
-0.083214
32
4.580274
13
0.406053
23
-0.083214
33
4.580274
0
3DFACE
8
coconut_palm5_coconuts
10
0.281496
20
-0.110931
30
4.588387
11
0.293489
21
-0.128693
31
4.572679
12
0.292668
22
-0.111518
32
4.564285
13
0.292668
23
-0.111518
33
4.564285
0
3DFACE
8
coconut_palm5_coconuts
10
0.293489
20
-0.128693
30
4.572679
11
0.320138
21
-0.140099
31
4.562698
12
0.318717
22
-0.110351
32
4.548160
13
0.292668
23
-0.111518
33
4.564285
0
3DFACE
8
coconut_palm5_coconuts
10
0.320138
20
-0.140099
30
4.562698
11
0.354304
21
-0.142094
31
4.561121
12
0.352663
22
-0.107744
32
4.544333
13
0.318717
23
-0.110351
33
4.548160
0
3DFACE
8
coconut_palm5_coconuts
10
0.354304
20
-0.142094
30
4.561121
11
0.386831
21
-0.134143
31
4.568367
12
0.385410
22
-0.104394
32
4.553829
13
0.352663
23
-0.107744
33
4.544333
0
3DFACE
8
coconut_palm5_coconuts
10
0.386831
20
-0.134143
30
4.568367
11
0.409004
21
-0.118375
31
4.582498
12
0.408184
22
-0.101200
32
4.574104
13
0.385410
23
-0.104394
33
4.553829
0
3DFACE
8
coconut_palm5_coconuts
10
0.409004
20
-0.118375
30
4.582498
11
0.414882
21
-0.099017
31
4.599725
12
0.408184
22
-0.101200
32
4.574104
13
0.408184
23
-0.101200
33
4.574104
0
3DFACE
8
coconut_palm5_coconuts
10
0.281496
20
-0.110931
30
4.588387
11
0.292518
21
-0.134996
31
4.590719
12
0.293489
22
-0.128693
32
4.572679
13
0.293489
23
-0.128693
33
4.572679
0
3DFACE
8
coconut_palm5_coconuts
10
0.292518
20
-0.134996
30
4.590719
11
0.318457
21
-0.151017
31
4.593946
12
0.320138
22
-0.140099
32
4.562698
13
0.293489
23
-0.128693
33
4.572679
0
3DFACE
8
coconut_palm5_coconuts
10
0.318457
20
-0.151017
30
4.593946
11
0.352363
21
-0.154700
31
4.597201
12
0.354304
22
-0.142094
32
4.561121
13
0.320138
23
-0.140099
33
4.562698
0
3DFACE
8
coconut_palm5_coconuts
10
0.352363
20
-0.154700
30
4.597201
11
0.385151
21
-0.145060
31
4.599614
12
0.386831
22
-0.134143
32
4.568367
13
0.354304
23
-0.142094
33
4.561121
0
3DFACE
8
coconut_palm5_coconuts
10
0.385151
20
-0.145060
30
4.599614
11
0.408035
21
-0.124678
31
4.600538
12
0.409004
22
-0.118375
32
4.582498
13
0.386831
23
-0.134143
33
4.568367
0
3DFACE
8
coconut_palm5_coconuts
10
0.408035
20
-0.124678
30
4.600538
11
0.414882
21
-0.099017
31
4.599725
12
0.409004
22
-0.118375
32
4.582498
13
0.409004
23
-0.118375
33
4.582498
0
ENDSEC
0
EOF
