999
DXF file generated by Cheetah3D
0
SECTION
2
ENTITIES
0
3DFACE
8
coconut_palm6_trunk
10
-0.021778
20
0.177369
30
0.000000
11
0.076799
21
0.138549
31
0.000000
12
0.059455
22
0.110901
32
0.494860
13
-0.013033
23
0.104706
33
0.494699
0
3DFACE
8
coconut_palm6_trunk
10
0.076799
20
0.138549
30
0.000000
11
0.161390
21
0.075257
31
0.000000
12
0.091741
22
0.045831
32
0.498359
13
0.059455
23
0.110901
33
0.494860
0
3DFACE
8
coconut_palm6_trunk
10
0.161390
20
0.075257
30
0.000000
11
0.158876
21
-0.030882
31
-0.000000
12
0.117174
22
-0.019983
32
0.501859
13
0.091741
23
0.045831
33
0.498359
0
3DFACE
8
coconut_palm6_trunk
10
0.158876
20
-0.030882
30
-0.000000
11
0.115829
21
-0.124212
31
-0.000000
12
0.065069
22
-0.067408
32
0.503920
13
0.117174
23
-0.019983
33
0.501859
0
3DFACE
8
coconut_palm6_trunk
10
0.115829
20
-0.124212
30
-0.000000
11
0.017063
21
-0.138967
31
-0.000000
12
0.014001
22
-0.115473
32
0.506023
13
0.065069
23
-0.067408
33
0.503920
0
3DFACE
8
coconut_palm6_trunk
10
0.017063
20
-0.138967
30
-0.000000
11
-0.085995
21
-0.155140
31
-0.000000
12
-0.053735
22
-0.093005
32
0.504435
13
0.014001
23
-0.115473
33
0.506023
0
3DFACE
8
coconut_palm6_trunk
10
-0.085995
20
-0.155140
30
-0.000000
11
-0.154368
21
-0.071983
31
-0.000000
12
-0.089570
22
-0.038635
32
0.501442
13
-0.053735
23
-0.093005
33
0.504435
0
3DFACE
8
coconut_palm6_trunk
10
-0.154368
20
-0.071983
30
-0.000000
11
-0.169052
21
0.032860
31
0.000000
12
-0.099585
22
0.022061
32
0.498306
13
-0.089570
23
-0.038635
33
0.501442
0
3DFACE
8
coconut_palm6_trunk
10
-0.169052
20
0.032860
30
0.000000
11
-0.098131
21
0.105233
31
0.000000
12
-0.076506
22
0.084223
32
0.495318
13
-0.099585
23
0.022061
33
0.498306
0
3DFACE
8
coconut_palm6_trunk
10
-0.098131
20
0.105233
30
0.000000
11
-0.021778
21
0.177369
31
0.000000
12
-0.013033
22
0.104706
32
0.494699
13
-0.076506
23
0.084223
33
0.495318
0
3DFACE
8
coconut_palm6_trunk
10
-0.013033
20
0.104706
30
0.494699
11
0.059455
21
0.110901
31
0.494860
12
0.037085
22
0.184602
32
0.961005
13
-0.025734
23
0.186434
33
0.957545
0
3DFACE
8
coconut_palm6_trunk
10
0.059455
20
0.110901
30
0.494860
11
0.091741
21
0.045831
31
0.498359
12
0.086573
22
0.142128
32
0.977847
13
0.037085
23
0.184602
33
0.961005
0
3DFACE
8
coconut_palm6_trunk
10
0.091741
20
0.045831
30
0.498359
11
0.117174
21
-0.019983
31
0.501859
12
0.078220
22
0.080370
32
0.998715
13
0.086573
23
0.142128
33
0.977847
0
3DFACE
8
coconut_palm6_trunk
10
0.117174
20
-0.019983
30
0.501859
11
0.065069
21
-0.067408
31
0.503920
12
0.057871
22
0.023119
32
1.017489
13
0.078220
23
0.080370
33
0.998715
0
3DFACE
8
coconut_palm6_trunk
10
0.065069
20
-0.067408
30
0.503920
11
0.014001
21
-0.115473
31
0.506023
12
-0.001526
22
-0.010723
32
1.026434
13
0.057871
23
0.023119
33
1.017489
0
3DFACE
8
coconut_palm6_trunk
10
0.014001
20
-0.115473
30
0.506023
11
-0.053735
21
-0.093005
31
0.504435
12
-0.059861
22
0.020285
32
1.013122
13
-0.001526
23
-0.010723
33
1.026434
0
3DFACE
8
coconut_palm6_trunk
10
-0.053735
20
-0.093005
30
0.504435
11
-0.089570
21
-0.038635
31
0.501442
12
-0.113324
22
0.052651
32
0.999573
13
-0.059861
23
0.020285
33
1.013122
0
3DFACE
8
coconut_palm6_trunk
10
-0.089570
20
-0.038635
30
0.501442
11
-0.099585
21
0.022061
31
0.498306
12
-0.124164
22
0.116119
32
0.977272
13
-0.113324
23
0.052651
33
0.999573
0
3DFACE
8
coconut_palm6_trunk
10
-0.099585
20
0.022061
30
0.498306
11
-0.076506
21
0.084223
31
0.495318
12
-0.094668
22
0.177914
32
0.957368
13
-0.124164
23
0.116119
33
0.977272
0
3DFACE
8
coconut_palm6_trunk
10
-0.076506
20
0.084223
30
0.495318
11
-0.013033
21
0.104706
31
0.494699
12
-0.025734
22
0.186434
32
0.957545
13
-0.094668
23
0.177914
33
0.957368
0
3DFACE
8
coconut_palm6_trunk
10
-0.025734
20
0.186434
30
0.957545
11
0.037085
21
0.184602
31
0.961005
12
-0.002107
22
0.386162
32
1.391101
13
-0.057703
23
0.401402
33
1.375275
0
3DFACE
8
coconut_palm6_trunk
10
0.037085
20
0.184602
30
0.961005
11
0.086573
21
0.142128
31
0.977847
12
0.045268
22
0.357628
32
1.415493
13
-0.002107
23
0.386162
33
1.391101
0
3DFACE
8
coconut_palm6_trunk
10
0.086573
20
0.142128
30
0.977847
11
0.078220
21
0.080370
31
0.998715
12
0.047371
22
0.307171
32
1.451053
13
0.045268
23
0.357628
33
1.415493
0
3DFACE
8
coconut_palm6_trunk
10
0.078220
20
0.080370
30
0.998715
11
0.057871
21
0.023119
31
1.017489
12
0.019257
22
0.261257
32
1.480607
13
0.047371
23
0.307171
33
1.451053
0
3DFACE
8
coconut_palm6_trunk
10
0.057871
20
0.023119
30
1.017489
11
-0.001526
21
-0.010723
31
1.026434
12
-0.038891
22
0.248193
32
1.484337
13
0.019257
23
0.261257
33
1.480607
0
3DFACE
8
coconut_palm6_trunk
10
-0.001526
20
-0.010723
30
1.026434
11
-0.059861
21
0.020285
31
1.013122
12
-0.097032
22
0.248426
32
1.478756
13
-0.038891
23
0.248193
33
1.484337
0
3DFACE
8
coconut_palm6_trunk
10
-0.059861
20
0.020285
30
1.013122
11
-0.113324
21
0.052651
31
0.999573
12
-0.137879
22
0.283505
32
1.450402
13
-0.097032
23
0.248426
33
1.478756
0
3DFACE
8
coconut_palm6_trunk
10
-0.113324
20
0.052651
30
0.999573
11
-0.124164
21
0.116119
31
0.977272
12
-0.155853
22
0.334613
32
1.412959
13
-0.137879
23
0.283505
33
1.450402
0
3DFACE
8
coconut_palm6_trunk
10
-0.124164
20
0.116119
30
0.977272
11
-0.094668
21
0.177914
31
0.957368
12
-0.108118
22
0.373011
32
1.390496
13
-0.155853
23
0.334613
33
1.412959
0
3DFACE
8
coconut_palm6_trunk
10
-0.094668
20
0.177914
30
0.957368
11
-0.025734
21
0.186434
31
0.957545
12
-0.057703
22
0.401402
32
1.375275
13
-0.108118
23
0.373011
33
1.390496
0
3DFACE
8
coconut_palm6_trunk
10
-0.057703
20
0.401402
30
1.375275
11
-0.002107
21
0.386162
31
1.391101
12
-0.048742
22
0.716261
32
1.731809
13
-0.103848
23
0.727126
33
1.709066
0
3DFACE
8
coconut_palm6_trunk
10
-0.002107
20
0.386162
30
1.391101
11
0.045268
21
0.357628
31
1.415493
12
-0.013342
22
0.692288
32
1.767781
13
-0.048742
23
0.716261
33
1.731809
0
3DFACE
8
coconut_palm6_trunk
10
0.045268
20
0.357628
30
1.415493
11
0.047371
21
0.307171
31
1.451053
12
-0.000231
22
0.657463
32
1.813723
13
-0.013342
23
0.692288
33
1.767781
0
3DFACE
8
coconut_palm6_trunk
10
0.047371
20
0.307171
30
1.451053
11
0.019257
21
0.261257
31
1.480607
12
-0.039573
22
0.627183
32
1.845238
13
-0.000231
23
0.657463
33
1.813723
0
3DFACE
8
coconut_palm6_trunk
10
0.019257
20
0.261257
30
1.480607
11
-0.038891
21
0.248193
31
1.484337
12
-0.088856
22
0.605026
32
1.864875
13
-0.039573
23
0.627183
33
1.845238
0
3DFACE
8
coconut_palm6_trunk
10
-0.038891
20
0.248193
30
1.484337
11
-0.097032
21
0.248426
31
1.478756
12
-0.142473
22
0.613439
32
1.845378
13
-0.088856
23
0.605026
33
1.864875
0
3DFACE
8
coconut_palm6_trunk
10
-0.097032
20
0.248426
30
1.478756
11
-0.137879
21
0.283505
31
1.450402
12
-0.180392
22
0.635761
32
1.811052
13
-0.142473
23
0.613439
33
1.845378
0
3DFACE
8
coconut_palm6_trunk
10
-0.137879
20
0.283505
30
1.450402
11
-0.155853
21
0.334613
31
1.412959
12
-0.182326
22
0.670426
32
1.767233
13
-0.180392
23
0.635761
33
1.811052
0
3DFACE
8
coconut_palm6_trunk
10
-0.155853
20
0.334613
30
1.412959
11
-0.108118
21
0.373011
31
1.390496
12
-0.157184
22
0.704365
32
1.728814
13
-0.182326
23
0.670426
33
1.767233
0
3DFACE
8
coconut_palm6_trunk
10
-0.108118
20
0.373011
30
1.390496
11
-0.057703
21
0.401402
31
1.375275
12
-0.103848
22
0.727126
32
1.709066
13
-0.157184
23
0.704365
33
1.728814
0
3DFACE
8
coconut_palm6_trunk
10
-0.103848
20
0.727126
30
1.709066
11
-0.048742
21
0.716261
31
1.731809
12
-0.117250
22
1.116449
32
1.985812
13
-0.171762
23
1.120286
33
1.958654
0
3DFACE
8
coconut_palm6_trunk
10
-0.048742
20
0.716261
30
1.731809
11
-0.013342
21
0.692288
31
1.767781
12
-0.076517
22
1.105145
32
2.026424
13
-0.117250
23
1.116449
33
1.985812
0
3DFACE
8
coconut_palm6_trunk
10
-0.013342
20
0.692288
30
1.767781
11
-0.000231
21
0.657463
31
1.813723
12
-0.073148
22
1.082360
32
2.082288
13
-0.076517
23
1.105145
33
2.026424
0
3DFACE
8
coconut_palm6_trunk
10
-0.000231
20
0.657463
30
1.813723
11
-0.039573
21
0.627183
31
1.845238
12
-0.116299
22
1.062705
32
2.115151
13
-0.073148
23
1.082360
33
2.082288
0
3DFACE
8
coconut_palm6_trunk
10
-0.039573
20
0.627183
30
1.845238
11
-0.088856
21
0.605026
31
1.864875
12
-0.163087
22
1.049627
32
2.130978
13
-0.116299
23
1.062705
33
2.115151
0
3DFACE
8
coconut_palm6_trunk
10
-0.088856
20
0.605026
30
1.864875
11
-0.142473
21
0.613439
31
1.845378
12
-0.219316
22
1.044204
32
2.125319
13
-0.163087
23
1.049627
33
2.130978
0
3DFACE
8
coconut_palm6_trunk
10
-0.142473
20
0.613439
30
1.845378
11
-0.180392
21
0.635761
31
1.811052
12
-0.242166
22
1.061436
32
2.076520
13
-0.219316
23
1.044204
33
2.125319
0
3DFACE
8
coconut_palm6_trunk
10
-0.180392
20
0.635761
30
1.811052
11
-0.182326
21
0.670426
31
1.767233
12
-0.251519
22
1.080366
32
2.028120
13
-0.242166
23
1.061436
33
2.076520
0
3DFACE
8
coconut_palm6_trunk
10
-0.182326
20
0.670426
30
1.767233
11
-0.157184
21
0.704365
31
1.728814
12
-0.219324
22
1.100527
32
1.990415
13
-0.251519
23
1.080366
33
2.028120
0
3DFACE
8
coconut_palm6_trunk
10
-0.157184
20
0.704365
30
1.728814
11
-0.103848
21
0.727126
31
1.709066
12
-0.171762
22
1.120286
32
1.958654
13
-0.219324
23
1.100527
33
1.990415
0
3DFACE
8
coconut_palm6_trunk
10
-0.171762
20
1.120286
30
1.958654
11
-0.117250
21
1.116449
31
1.985812
12
-0.200416
22
1.572227
32
2.130436
13
-0.249390
23
1.568665
33
2.101432
0
3DFACE
8
coconut_palm6_trunk
10
-0.117250
20
1.116449
30
1.985812
11
-0.076517
21
1.105145
31
2.026424
12
-0.166181
22
1.572404
32
2.170770
13
-0.200416
23
1.572227
33
2.130436
0
3DFACE
8
coconut_palm6_trunk
10
-0.076517
20
1.105145
30
2.026424
11
-0.073148
21
1.082360
31
2.082288
12
-0.162555
22
1.566573
32
2.225329
13
-0.166181
23
1.572404
33
2.170770
0
3DFACE
8
coconut_palm6_trunk
10
-0.073148
20
1.082360
30
2.082288
11
-0.116299
21
1.062705
31
2.115151
12
-0.198026
22
1.556831
32
2.265250
13
-0.162555
23
1.566573
33
2.225329
0
3DFACE
8
coconut_palm6_trunk
10
-0.116299
20
1.062705
30
2.115151
11
-0.163087
21
1.049627
31
2.130978
12
-0.246798
22
1.547551
32
2.284722
13
-0.198026
23
1.556831
33
2.265250
0
3DFACE
8
coconut_palm6_trunk
10
-0.163087
20
1.049627
30
2.130978
11
-0.219316
21
1.044204
31
2.125319
12
-0.301738
22
1.541081
32
2.272914
13
-0.246798
23
1.547551
33
2.284722
0
3DFACE
8
coconut_palm6_trunk
10
-0.219316
20
1.044204
30
2.125319
11
-0.242166
21
1.061436
31
2.076520
12
-0.328793
22
1.543055
32
2.223663
13
-0.301738
23
1.541081
33
2.272914
0
3DFACE
8
coconut_palm6_trunk
10
-0.242166
20
1.061436
30
2.076520
11
-0.251519
21
1.080366
31
2.028120
12
-0.331502
22
1.548994
32
2.170134
13
-0.328793
23
1.543055
33
2.223663
0
3DFACE
8
coconut_palm6_trunk
10
-0.251519
20
1.080366
30
2.028120
11
-0.219324
21
1.100527
31
1.990415
12
-0.300214
22
1.558541
32
2.126620
13
-0.331502
23
1.548994
33
2.170134
0
3DFACE
8
coconut_palm6_trunk
10
-0.219324
20
1.100527
30
1.990415
11
-0.171762
21
1.120286
31
1.958654
12
-0.249390
22
1.568665
32
2.101432
13
-0.300214
23
1.558541
33
2.126620
0
3DFACE
8
coconut_palm6_trunk
10
-0.249390
20
1.568665
30
2.101432
11
-0.200416
21
1.572227
31
2.130436
12
-0.296088
22
2.050366
32
2.110048
13
-0.340890
23
2.039140
33
2.083951
0
3DFACE
8
coconut_palm6_trunk
10
-0.200416
20
1.572227
30
2.130436
11
-0.166181
21
1.572404
31
2.170770
12
-0.263032
22
2.061682
32
2.146452
13
-0.296088
23
2.050366
33
2.110048
0
3DFACE
8
coconut_palm6_trunk
10
-0.166181
20
1.572404
30
2.170770
11
-0.162555
21
1.566573
31
2.225329
12
-0.269894
22
2.069324
32
2.195850
13
-0.263032
23
2.061682
33
2.146452
0
3DFACE
8
coconut_palm6_trunk
10
-0.162555
20
1.566573
30
2.225329
11
-0.198026
21
1.556831
31
2.265250
12
-0.298962
22
2.071638
32
2.234066
13
-0.269894
23
2.069324
33
2.195850
0
3DFACE
8
coconut_palm6_trunk
10
-0.198026
20
1.556831
30
2.265250
11
-0.246798
21
1.547551
31
2.284722
12
-0.344552
22
2.068962
32
2.258180
13
-0.298962
23
2.071638
33
2.234066
0
3DFACE
8
coconut_palm6_trunk
10
-0.246798
20
1.547551
30
2.284722
11
-0.301738
21
1.541081
31
2.272914
12
-0.386684
22
2.057930
32
2.231195
13
-0.344552
23
2.068962
33
2.258180
0
3DFACE
8
coconut_palm6_trunk
10
-0.301738
20
1.541081
30
2.272914
11
-0.328793
21
1.543055
31
2.223663
12
-0.423780
22
2.046758
32
2.198852
13
-0.386684
23
2.057930
33
2.231195
0
3DFACE
8
coconut_palm6_trunk
10
-0.328793
20
1.543055
30
2.223663
11
-0.331502
21
1.548994
31
2.170134
12
-0.427193
22
2.036978
32
2.145286
13
-0.423780
23
2.046758
33
2.198852
0
3DFACE
8
coconut_palm6_trunk
10
-0.331502
20
1.548994
30
2.170134
11
-0.300214
21
1.558541
31
2.126620
12
-0.395529
22
2.033510
32
2.098157
13
-0.427193
23
2.036978
33
2.145286
0
3DFACE
8
coconut_palm6_trunk
10
-0.300214
20
1.558541
30
2.126620
11
-0.249390
21
1.568665
31
2.101432
12
-0.340890
22
2.039140
32
2.083951
13
-0.395529
23
2.033510
33
2.098157
0
3DFACE
8
coconut_palm6_trunk
10
-0.340890
20
2.039140
30
2.083951
11
-0.296088
21
2.050366
31
2.110048
12
-0.352307
22
2.513797
32
1.966070
13
-0.400698
23
2.505490
33
1.963783
0
3DFACE
8
coconut_palm6_trunk
10
-0.296088
20
2.050366
30
2.110048
11
-0.263032
21
2.061682
31
2.146452
12
-0.335721
22
2.536194
32
2.006662
13
-0.352307
23
2.513797
33
1.966070
0
3DFACE
8
coconut_palm6_trunk
10
-0.263032
20
2.061682
30
2.146452
11
-0.269894
21
2.069324
31
2.195850
12
-0.337719
22
2.555523
32
2.046669
13
-0.335721
23
2.536194
33
2.006662
0
3DFACE
8
coconut_palm6_trunk
10
-0.269894
20
2.069324
30
2.195850
11
-0.298962
21
2.071638
31
2.234066
12
-0.359823
22
2.572024
32
2.087124
13
-0.337719
23
2.555523
33
2.046669
0
3DFACE
8
coconut_palm6_trunk
10
-0.298962
20
2.071638
30
2.234066
11
-0.344552
21
2.068962
31
2.258180
12
-0.408981
22
2.572945
32
2.104146
13
-0.359823
23
2.572024
33
2.087124
0
3DFACE
8
coconut_palm6_trunk
10
-0.344552
20
2.068962
30
2.258180
11
-0.386684
21
2.057930
31
2.231195
12
-0.448564
22
2.554799
32
2.079185
13
-0.408981
23
2.572945
33
2.104146
0
3DFACE
8
coconut_palm6_trunk
10
-0.386684
20
2.057930
30
2.231195
11
-0.423780
21
2.046758
31
2.198852
12
-0.472854
22
2.535878
32
2.047888
13
-0.448564
23
2.554799
33
2.079185
0
3DFACE
8
coconut_palm6_trunk
10
-0.423780
20
2.046758
30
2.198852
11
-0.427193
21
2.036978
31
2.145286
12
-0.479883
22
2.514089
32
2.005418
13
-0.472854
23
2.535878
33
2.047888
0
3DFACE
8
coconut_palm6_trunk
10
-0.427193
20
2.036978
30
2.145286
11
-0.395529
21
2.033510
31
2.098157
12
-0.442227
22
2.505640
32
1.976680
13
-0.479883
23
2.514089
33
2.005418
0
3DFACE
8
coconut_palm6_trunk
10
-0.395529
20
2.033510
30
2.098157
11
-0.340890
21
2.039140
31
2.083951
12
-0.400698
22
2.505490
32
1.963783
13
-0.442227
23
2.505640
33
1.976680
0
3DFACE
8
coconut_palm6_trunk
10
-0.400698
20
2.505490
30
1.963783
11
-0.352307
21
2.513797
31
1.966070
12
-0.364462
22
2.862347
32
1.627801
13
-0.439042
23
2.842432
33
1.618328
0
3DFACE
8
coconut_palm6_trunk
10
-0.352307
20
2.513797
30
1.966070
11
-0.335721
21
2.536194
31
2.006662
12
-0.331786
22
2.913315
32
1.677107
13
-0.364462
23
2.862347
33
1.627801
0
3DFACE
8
coconut_palm6_trunk
10
-0.335721
20
2.536194
30
2.006662
11
-0.337719
21
2.555523
31
2.046669
12
-0.322577
22
2.969439
32
1.735596
13
-0.331786
23
2.913315
33
1.677107
0
3DFACE
8
coconut_palm6_trunk
10
-0.337719
20
2.555523
30
2.046669
11
-0.359823
21
2.572024
31
2.087124
12
-0.376375
22
3.010891
32
1.788590
13
-0.322577
23
2.969439
33
1.735596
0
3DFACE
8
coconut_palm6_trunk
10
-0.359823
20
2.572024
30
2.087124
11
-0.408981
21
2.572945
31
2.104146
12
-0.459969
22
3.012870
32
1.804312
13
-0.376375
23
3.010891
33
1.788590
0
3DFACE
8
coconut_palm6_trunk
10
-0.408981
20
2.572945
30
2.104146
11
-0.448564
21
2.554799
31
2.079185
12
-0.542707
22
2.989913
32
1.793200
13
-0.459969
23
3.012870
33
1.804312
0
3DFACE
8
coconut_palm6_trunk
10
-0.448564
20
2.554799
30
2.079185
11
-0.472854
21
2.535878
31
2.047888
12
-0.579105
22
2.933362
32
1.738405
13
-0.542707
23
2.989913
33
1.793200
0
3DFACE
8
coconut_palm6_trunk
10
-0.472854
20
2.535878
30
2.047888
11
-0.479883
21
2.514089
31
2.005418
12
-0.570137
22
2.878235
32
1.677720
13
-0.579105
23
2.933362
33
1.738405
0
3DFACE
8
coconut_palm6_trunk
10
-0.479883
20
2.514089
30
2.005418
11
-0.442227
21
2.505640
31
1.976680
12
-0.507884
22
2.851423
32
1.638946
13
-0.570137
23
2.878235
33
1.677720
0
3DFACE
8
coconut_palm6_trunk
10
-0.442227
20
2.505640
30
1.976680
11
-0.400698
21
2.505490
31
1.963783
12
-0.439042
22
2.842432
32
1.618328
13
-0.507884
23
2.851423
33
1.638946
0
3DFACE
8
coconut_palm6_trunk
10
-0.439042
20
2.842432
30
1.618328
11
-0.364462
21
2.862347
31
1.627801
12
-0.430368
22
3.251765
32
1.327194
13
-0.436192
23
3.248803
33
1.325893
0
3DFACE
8
coconut_palm6_trunk
10
-0.364462
20
2.862347
30
1.627801
11
-0.331786
21
2.913315
31
1.677107
12
-0.425496
22
3.256433
32
1.329601
13
-0.430368
23
3.251765
33
1.327194
0
3DFACE
8
coconut_palm6_trunk
10
-0.331786
20
2.913315
30
1.677107
11
-0.322577
21
2.969439
31
1.735596
12
-0.427580
22
3.262254
32
1.333275
13
-0.425496
23
3.256433
33
1.329601
0
3DFACE
8
coconut_palm6_trunk
10
-0.322577
20
2.969439
30
1.735596
11
-0.376375
21
3.010891
31
1.788590
12
-0.430948
22
3.267909
32
1.336957
13
-0.427580
23
3.262254
33
1.333275
0
3DFACE
8
coconut_palm6_trunk
10
-0.376375
20
3.010891
30
1.788590
11
-0.459969
21
3.012870
31
1.804312
12
-0.438677
22
3.269043
32
1.338279
13
-0.430948
23
3.267909
33
1.336957
0
3DFACE
8
coconut_palm6_trunk
10
-0.459969
20
3.012870
30
1.804312
11
-0.542707
21
2.989913
31
1.793200
12
-0.445849
22
3.265971
32
1.337023
13
-0.438677
23
3.269043
33
1.338279
0
3DFACE
8
coconut_palm6_trunk
10
-0.542707
20
2.989913
30
1.793200
11
-0.579105
21
2.933362
31
1.738405
12
-0.449166
22
3.259893
32
1.333640
13
-0.445849
23
3.265971
33
1.337023
0
3DFACE
8
coconut_palm6_trunk
10
-0.579105
20
2.933362
30
1.738405
11
-0.570137
21
2.878235
31
1.677720
12
-0.448735
22
3.253393
32
1.329692
13
-0.449166
23
3.259893
33
1.333640
0
3DFACE
8
coconut_palm6_trunk
10
-0.570137
20
2.878235
30
1.677720
11
-0.507884
21
2.851423
31
1.638946
12
-0.443205
22
3.249230
32
1.326729
13
-0.448735
23
3.253393
33
1.329692
0
3DFACE
8
coconut_palm6_trunk
10
-0.507884
20
2.851423
30
1.638946
11
-0.439042
21
2.842432
31
1.618328
12
-0.436192
22
3.248803
32
1.325893
13
-0.443205
23
3.249230
33
1.326729
0
3DFACE
8
coconut_palm6_trunk
10
-0.436192
20
3.248803
30
1.325893
11
-0.430368
21
3.251765
31
1.327194
12
-0.437622
22
3.258469
32
1.331829
13
-0.437622
23
3.258469
33
1.331829
0
3DFACE
8
coconut_palm6_trunk
10
-0.430368
20
3.251765
30
1.327194
11
-0.425496
21
3.256433
31
1.329601
12
-0.437622
22
3.258469
32
1.331829
13
-0.437622
23
3.258469
33
1.331829
0
3DFACE
8
coconut_palm6_trunk
10
-0.425496
20
3.256433
30
1.329601
11
-0.427580
21
3.262254
31
1.333275
12
-0.437622
22
3.258469
32
1.331829
13
-0.437622
23
3.258469
33
1.331829
0
3DFACE
8
coconut_palm6_trunk
10
-0.427580
20
3.262254
30
1.333275
11
-0.430948
21
3.267909
31
1.336957
12
-0.437622
22
3.258469
32
1.331829
13
-0.437622
23
3.258469
33
1.331829
0
3DFACE
8
coconut_palm6_trunk
10
-0.430948
20
3.267909
30
1.336957
11
-0.438677
21
3.269043
31
1.338279
12
-0.437622
22
3.258469
32
1.331829
13
-0.437622
23
3.258469
33
1.331829
0
3DFACE
8
coconut_palm6_trunk
10
-0.438677
20
3.269043
30
1.338279
11
-0.445849
21
3.265971
31
1.337023
12
-0.437622
22
3.258469
32
1.331829
13
-0.437622
23
3.258469
33
1.331829
0
3DFACE
8
coconut_palm6_trunk
10
-0.445849
20
3.265971
30
1.337023
11
-0.449166
21
3.259893
31
1.333640
12
-0.437622
22
3.258469
32
1.331829
13
-0.437622
23
3.258469
33
1.331829
0
3DFACE
8
coconut_palm6_trunk
10
-0.449166
20
3.259893
30
1.333640
11
-0.448735
21
3.253393
31
1.329692
12
-0.437622
22
3.258469
32
1.331829
13
-0.437622
23
3.258469
33
1.331829
0
3DFACE
8
coconut_palm6_trunk
10
-0.448735
20
3.253393
30
1.329692
11
-0.443205
21
3.249230
31
1.326729
12
-0.437622
22
3.258469
32
1.331829
13
-0.437622
23
3.258469
33
1.331829
0
3DFACE
8
coconut_palm6_trunk
10
-0.443205
20
3.249230
30
1.326729
11
-0.436192
21
3.248803
31
1.325893
12
-0.437622
22
3.258469
32
1.331829
13
-0.437622
23
3.258469
33
1.331829
0
3DFACE
8
coconut_palm6_leaves
10
-1.558143
20
2.922123
30
1.003844
11
-1.408814
21
2.490925
31
1.169278
12
-1.945540
22
2.220805
32
1.029534
13
-2.090587
23
2.617137
33
0.935813
0
3DFACE
8
coconut_palm6_leaves
10
-1.037387
20
3.165195
30
1.179230
11
-0.882249
21
2.686680
31
1.377121
12
-1.408814
22
2.490925
32
1.169278
13
-1.558143
23
2.922123
33
1.003844
0
3DFACE
8
coconut_palm6_leaves
10
-0.527453
20
3.339048
30
1.444228
11
-0.364977
21
2.800771
31
1.643185
12
-0.882249
22
2.686680
32
1.377121
13
-1.037387
23
3.165195
33
1.179230
0
3DFACE
8
coconut_palm6_leaves
10
-1.483521
20
2.706865
30
1.111799
11
-1.631122
21
2.782997
31
1.365684
12
-2.145378
22
2.471357
32
1.289439
13
-2.017755
23
2.416462
33
1.006462
0
3DFACE
8
coconut_palm6_leaves
10
-1.342043
20
2.564852
30
0.927538
11
-1.483521
21
2.706865
31
1.111799
12
-2.017755
22
2.416462
32
1.006462
13
-1.893536
23
2.243473
33
0.855648
0
3DFACE
8
coconut_palm6_leaves
10
-0.959948
20
2.926999
30
1.304844
11
-1.113449
21
2.993226
31
1.555459
12
-1.631122
22
2.782997
32
1.365684
13
-1.483521
23
2.706865
33
1.111799
0
3DFACE
8
coconut_palm6_leaves
10
-0.805016
20
2.822526
30
1.086082
11
-0.959948
21
2.926999
31
1.304844
12
-1.483521
22
2.706865
32
1.111799
13
-1.342043
23
2.564852
33
0.927538
0
3DFACE
8
coconut_palm6_leaves
10
-0.446251
20
3.070203
30
1.571933
11
-0.600168
21
3.102755
31
1.836402
12
-1.113449
22
2.993226
32
1.555459
13
-0.959948
23
2.926999
33
1.304844
0
3DFACE
8
coconut_palm6_leaves
10
-0.288268
20
3.004538
30
1.326994
11
-0.446251
21
3.070203
31
1.571933
12
-0.959948
22
2.926999
32
1.304844
13
-0.805016
23
2.822526
33
1.086082
0
3DFACE
8
coconut_palm6_leaves
10
-0.317329
20
3.036378
30
2.644268
11
-0.482272
21
2.838722
31
2.399511
12
-0.388072
22
1.984455
32
2.362778
13
-0.209981
23
2.075029
33
2.656053
0
3DFACE
8
coconut_palm6_leaves
10
-0.371207
20
3.410262
30
2.064363
11
-0.529326
21
3.157024
31
1.872375
12
-0.482272
22
2.838722
32
2.399511
13
-0.317329
23
3.036378
33
2.644268
0
3DFACE
8
coconut_palm6_leaves
10
-0.366674
20
3.254270
30
1.601247
11
-0.522735
21
2.984279
31
1.432597
12
-0.529326
22
3.157024
32
1.872375
13
-0.371207
23
3.410262
33
2.064363
0
3DFACE
8
coconut_palm6_leaves
10
-0.399698
20
2.936716
30
2.522428
11
-0.185386
21
2.673593
31
2.430752
12
-0.118597
22
1.965035
32
2.028405
13
-0.298907
23
2.028768
33
2.509596
0
3DFACE
8
coconut_palm6_leaves
10
-0.588840
20
2.944395
30
2.542307
11
-0.399698
21
2.936716
31
2.522428
12
-0.298907
22
2.028768
32
2.509596
13
-0.486109
23
1.957352
33
2.321328
0
3DFACE
8
coconut_palm6_leaves
10
-0.450184
20
3.282975
30
1.969107
11
-0.243583
21
3.118775
31
2.028231
12
-0.185386
22
2.673593
32
2.430752
13
-0.399698
23
2.936716
33
2.522428
0
3DFACE
8
coconut_palm6_leaves
10
-0.651996
20
3.403148
30
1.912270
11
-0.450184
21
3.282975
31
1.969107
12
-0.399698
22
2.936716
32
2.522428
13
-0.588840
23
2.944395
33
2.542307
0
3DFACE
8
coconut_palm6_leaves
10
-0.444633
20
3.118688
30
1.517725
11
-0.244418
21
3.017370
31
1.593678
12
-0.243583
22
3.118775
32
2.028231
13
-0.450184
23
3.282975
33
1.969107
0
3DFACE
8
coconut_palm6_leaves
10
-0.644320
20
3.215711
30
1.429201
11
-0.444633
21
3.118688
31
1.517725
12
-0.450184
22
3.282975
32
1.969107
13
-0.651996
23
3.403148
33
1.912270
0
3DFACE
8
coconut_palm6_leaves
10
0.439529
20
3.755723
30
1.948097
11
0.096374
21
3.418772
31
2.267411
12
0.398649
22
2.894898
32
2.868668
13
0.727585
23
3.347657
33
2.635662
0
3DFACE
8
coconut_palm6_leaves
10
0.094276
20
3.636731
30
1.488177
11
-0.259002
21
3.382226
31
1.800199
12
0.096374
22
3.418772
32
2.267411
13
0.439529
23
3.755723
33
1.948097
0
3DFACE
8
coconut_palm6_leaves
10
-0.259375
20
3.323290
30
1.242561
11
-0.618455
21
3.116036
31
1.510970
12
-0.259002
22
3.382226
32
1.800199
13
0.094276
23
3.636731
33
1.488177
0
3DFACE
8
coconut_palm6_leaves
10
0.267072
20
3.594408
30
2.114052
11
0.396037
21
3.251249
31
2.142726
12
0.595681
22
2.616127
32
2.630169
13
0.562465
23
3.126589
33
2.761097
0
3DFACE
8
coconut_palm6_leaves
10
0.117635
20
3.781518
30
2.166102
11
0.267072
21
3.594408
31
2.114052
12
0.562465
22
3.126589
32
2.761097
13
0.389992
23
3.077910
33
2.930726
0
3DFACE
8
coconut_palm6_leaves
10
-0.083220
20
3.516453
30
1.648629
11
0.076121
21
3.274898
31
1.684118
12
0.396037
22
3.251249
32
2.142726
13
0.267072
23
3.594408
33
2.114052
0
3DFACE
8
coconut_palm6_leaves
10
-0.243708
20
3.743502
30
1.602257
11
-0.083220
21
3.516453
31
1.648629
12
0.267072
22
3.594408
32
2.114052
13
0.117635
23
3.781518
33
2.166102
0
3DFACE
8
coconut_palm6_leaves
10
-0.439653
20
3.225673
30
1.380149
11
-0.270842
21
3.022335
31
1.400549
12
0.076121
22
3.274898
32
1.684118
13
-0.083220
23
3.516453
33
1.648629
0
3DFACE
8
coconut_palm6_leaves
10
-0.609052
20
3.433808
30
1.328125
11
-0.439653
21
3.225673
31
1.380149
12
-0.083220
22
3.516453
32
1.648629
13
-0.243708
23
3.743502
33
1.602257
0
3DFACE
8
coconut_palm6_leaves
10
0.175238
20
3.291835
30
1.183015
11
0.171613
21
3.274597
31
1.489542
12
0.519315
22
3.221568
32
1.583356
13
0.520389
23
3.259583
33
1.280878
0
3DFACE
8
coconut_palm6_leaves
10
-0.149924
20
3.252119
30
1.215791
11
-0.152747
21
3.228356
31
1.524002
12
0.171613
22
3.274597
32
1.489542
13
0.175238
23
3.291835
33
1.183015
0
3DFACE
8
coconut_palm6_leaves
10
-0.442152
20
3.170722
30
1.320927
11
-0.442301
21
3.125182
31
1.628648
12
-0.152747
22
3.228356
32
1.524002
13
-0.149924
23
3.252119
33
1.215791
0
3DFACE
8
coconut_palm6_leaves
10
0.172519
20
3.290597
30
1.334168
11
0.207153
21
3.121709
31
1.334725
12
0.530508
22
3.051667
32
1.449914
13
0.518934
23
3.248052
33
1.430528
0
3DFACE
8
coconut_palm6_leaves
10
0.149791
20
3.441060
30
1.357669
11
0.172519
21
3.290597
31
1.334168
12
0.518934
22
3.248052
32
1.430528
13
0.512691
23
3.371272
33
1.502494
0
3DFACE
8
coconut_palm6_leaves
10
-0.152251
20
3.247692
30
1.367940
11
-0.109632
21
3.090933
31
1.349499
12
0.207153
22
3.121709
32
1.334725
13
0.172519
23
3.290597
33
1.334168
0
3DFACE
8
coconut_palm6_leaves
10
-0.192154
20
3.404818
30
1.380274
11
-0.152251
21
3.247692
31
1.367940
12
0.172519
22
3.290597
32
1.334168
13
0.149791
23
3.441060
33
1.357669
0
3DFACE
8
coconut_palm6_leaves
10
-0.443160
20
3.155555
30
1.473364
11
-0.396357
21
3.003984
31
1.440112
12
-0.109632
22
3.090933
32
1.349499
13
-0.152251
23
3.247692
33
1.367940
0
3DFACE
8
coconut_palm6_leaves
10
-0.490531
20
3.311749
30
1.495397
11
-0.443160
21
3.155555
31
1.473364
12
-0.152251
22
3.247692
32
1.367940
13
-0.192154
23
3.404818
33
1.380274
0
3DFACE
8
coconut_palm6_leaves
10
-0.153445
20
4.074579
30
2.026163
11
-0.428020
21
3.583528
31
2.402609
12
-0.310021
22
3.444339
32
3.066921
13
-0.051500
23
4.066133
33
2.720689
0
3DFACE
8
coconut_palm6_leaves
10
-0.228914
20
3.770565
30
1.583462
11
-0.514917
21
3.372588
31
1.914021
12
-0.428020
22
3.583528
32
2.402609
13
-0.153445
23
4.074579
33
2.026163
0
3DFACE
8
coconut_palm6_leaves
10
-0.293572
20
3.352159
30
1.289004
11
-0.588001
21
3.022803
31
1.542561
12
-0.514917
22
3.372588
32
1.914021
13
-0.228914
23
3.770565
33
1.583462
0
3DFACE
8
coconut_palm6_leaves
10
-0.291745
20
3.837297
30
2.228273
11
-0.068024
21
3.592552
31
2.377493
12
0.050618
22
3.331275
32
3.040496
13
-0.181637
23
3.762378
33
2.910850
0
3DFACE
8
coconut_palm6_leaves
10
-0.507131
20
3.983611
30
2.134443
11
-0.291745
21
3.837297
31
2.228273
12
-0.181637
22
3.762378
32
2.910850
13
-0.388680
23
3.826272
33
2.923489
0
3DFACE
8
coconut_palm6_leaves
10
-0.372800
20
3.578778
30
1.760281
11
-0.154131
21
3.424809
31
1.881538
12
-0.068024
22
3.592552
32
2.377493
13
-0.291745
23
3.837297
33
2.228273
0
3DFACE
8
coconut_palm6_leaves
10
-0.589459
20
3.713989
30
1.632390
11
-0.372800
21
3.578778
31
1.760281
12
-0.291745
22
3.837297
32
2.228273
13
-0.507131
23
3.983611
33
2.134443
0
3DFACE
8
coconut_palm6_leaves
10
-0.441429
20
3.192716
30
1.425532
11
-0.225659
21
3.081538
31
1.517059
12
-0.154131
22
3.424809
32
1.881538
13
-0.372800
23
3.578778
33
1.760281
0
3DFACE
8
coconut_palm6_leaves
10
-0.656449
20
3.297780
30
1.318213
11
-0.441429
21
3.192716
31
1.425532
12
-0.372800
22
3.578778
32
1.760281
13
-0.589459
23
3.713989
33
1.632390
0
3DFACE
8
coconut_palm6_leaves
10
0.019510
20
2.126297
30
0.869743
11
0.039759
21
2.324861
31
1.340734
12
0.110309
22
1.857960
32
1.446121
13
0.062534
23
1.883577
33
0.938279
0
3DFACE
8
coconut_palm6_leaves
10
-0.179346
20
2.547196
30
1.000819
11
-0.170438
21
2.838125
31
1.435224
12
0.039759
22
2.324861
32
1.340734
13
0.019510
23
2.126297
33
0.869743
0
3DFACE
8
coconut_palm6_leaves
10
-0.440358
20
3.073923
30
1.145533
11
-0.434437
21
3.389177
31
1.589366
12
-0.170438
22
2.838125
32
1.435224
13
-0.179346
23
2.547196
33
1.000819
0
3DFACE
8
coconut_palm6_leaves
10
0.028031
20
2.238638
30
1.098270
11
-0.297029
21
2.148799
31
1.212913
12
-0.336733
22
1.729388
32
1.562439
13
0.084609
23
1.885533
33
1.191759
0
3DFACE
8
coconut_palm6_leaves
10
0.293688
20
2.320498
30
1.177998
11
0.028031
21
2.238638
31
1.098270
12
0.084609
22
1.885533
32
1.191759
13
0.280352
23
1.868229
33
1.518018
0
3DFACE
8
coconut_palm6_leaves
10
-0.176259
20
2.703798
30
1.208105
11
-0.458389
21
2.577286
31
1.259420
12
-0.297029
22
2.148799
32
1.212913
13
0.028031
23
2.238638
33
1.098270
0
3DFACE
8
coconut_palm6_leaves
10
0.100167
20
2.823313
30
1.182868
11
-0.176259
21
2.703798
31
1.208105
12
0.028031
22
2.238638
32
1.098270
13
0.293688
23
2.320498
33
1.177998
0
3DFACE
8
coconut_palm6_leaves
10
-0.438678
20
3.241979
30
1.356546
11
-0.707328
21
3.085836
31
1.430095
12
-0.458389
22
2.577286
32
1.259420
13
-0.176259
23
2.703798
33
1.208105
0
3DFACE
8
coconut_palm6_leaves
10
-0.169593
20
3.394576
30
1.270302
11
-0.438678
21
3.241979
31
1.356546
12
-0.176259
22
2.703798
32
1.208105
13
0.100167
23
2.823313
33
1.182868
0
3DFACE
8
coconut_palm6_leaves
10
-1.269136
20
3.261462
30
1.070083
11
-1.255710
21
2.890235
31
1.251774
12
-1.665377
22
2.819970
32
1.149192
13
-1.676849
23
3.175282
33
0.961901
0
3DFACE
8
coconut_palm6_leaves
10
-0.859340
20
3.344992
30
1.174952
11
-0.844024
21
2.958372
31
1.351894
12
-1.255710
22
2.890235
32
1.251774
13
-1.269136
23
3.261462
33
1.070083
0
3DFACE
8
coconut_palm6_leaves
10
-0.448158
20
3.424997
30
1.279342
11
-0.430970
21
3.023131
31
1.451669
12
-0.844024
22
2.958372
32
1.351894
13
-0.859340
23
3.344992
33
1.174952
0
3DFACE
8
coconut_palm6_leaves
10
-1.262635
20
3.077573
30
1.175922
11
-1.326755
21
3.169890
31
1.359708
12
-1.737668
22
3.104976
32
1.241379
13
-1.671378
23
2.999779
33
1.070272
0
3DFACE
8
coconut_palm6_leaves
10
-1.196018
20
2.970131
30
1.006589
11
-1.262635
21
3.077573
31
1.175922
12
-1.671378
22
2.999779
32
1.070272
13
-1.601696
23
2.883411
33
0.909256
0
3DFACE
8
coconut_palm6_leaves
10
-0.851848
20
3.153035
30
1.278672
11
-0.913931
21
3.233532
31
1.472219
12
-1.326755
22
3.169890
32
1.359708
13
-1.262635
23
3.077573
33
1.175922
0
3DFACE
8
coconut_palm6_leaves
10
-0.787508
20
3.054992
30
1.100913
11
-0.851848
21
3.153035
31
1.278672
12
-1.262635
22
3.077573
32
1.175922
13
-1.196018
23
2.970131
33
1.006589
0
3DFACE
8
coconut_palm6_leaves
10
-0.439687
20
3.225071
30
1.381005
11
-0.500014
21
3.294324
31
1.582373
12
-0.913931
22
3.233532
32
1.472219
13
-0.851848
23
3.153035
33
1.278672
0
3DFACE
8
coconut_palm6_leaves
10
-0.377051
20
3.137003
30
1.194937
11
-0.439687
21
3.225071
31
1.381005
12
-0.851848
22
3.153035
32
1.278672
13
-0.787508
23
3.054992
33
1.100913
0
3DFACE
8
coconut_palm6_leaves
10
0.125056
20
3.921105
30
1.641795
11
-0.082374
21
3.680917
31
2.125275
12
0.193956
22
3.760082
32
2.608670
13
0.388546
23
4.104836
33
2.095015
0
3DFACE
8
coconut_palm6_leaves
10
-0.116153
20
3.558964
30
1.462938
11
-0.328864
21
3.361797
31
1.882916
12
-0.082374
22
3.680917
32
2.125275
13
0.125056
23
3.921105
33
1.641795
0
3DFACE
8
coconut_palm6_leaves
10
-0.337207
20
3.157057
30
1.385924
11
-0.552118
21
2.977803
31
1.736961
12
-0.328864
22
3.361797
32
1.882916
13
-0.116153
23
3.558964
33
1.462938
0
3DFACE
8
coconut_palm6_leaves
10
0.019605
20
3.815151
30
1.886675
11
0.209585
21
3.604451
31
2.016252
12
0.469570
22
3.571704
32
2.539551
13
0.289389
23
3.947628
33
2.357920
0
3DFACE
8
coconut_palm6_leaves
10
-0.156079
20
3.960914
30
1.834794
11
0.019605
21
3.815151
31
1.886675
12
0.289389
22
3.947628
32
2.357920
13
0.130715
23
4.030392
33
2.423948
0
3DFACE
8
coconut_palm6_leaves
10
-0.224046
20
3.472903
30
1.674956
11
-0.030992
21
3.326779
31
1.750183
12
0.209585
22
3.604451
32
2.016252
13
0.019605
23
3.815151
33
1.886675
0
3DFACE
8
coconut_palm6_leaves
10
-0.413745
20
3.610174
30
1.597095
11
-0.224046
21
3.472903
31
1.674956
12
0.019605
22
3.815151
32
1.886675
13
-0.156079
23
3.960914
33
1.834794
0
3DFACE
8
coconut_palm6_leaves
10
-0.446002
20
3.078344
30
1.563136
11
-0.250946
21
2.958336
31
1.603621
12
-0.030992
22
3.326779
32
1.750183
13
-0.224046
23
3.472903
33
1.674956
0
3DFACE
8
coconut_palm6_leaves
10
-0.641082
20
3.198545
30
1.507863
11
-0.446002
21
3.078344
31
1.563136
12
-0.224046
22
3.472903
32
1.674956
13
-0.413745
23
3.610174
33
1.597095
0
3DFACE
8
coconut_palm6_leaves
10
-1.712898
20
3.593376
30
1.626390
11
-1.594072
21
2.955770
31
1.847781
12
-2.121099
22
2.677054
32
2.245541
13
-2.248332
23
3.383133
33
2.124892
0
3DFACE
8
coconut_palm6_leaves
10
-1.108133
20
3.547304
30
1.437741
11
-0.994438
21
2.951482
31
1.646306
12
-1.594072
22
2.955770
32
1.847781
13
-1.712898
23
3.593376
33
1.626390
0
3DFACE
8
coconut_palm6_leaves
10
-0.500303
20
3.408947
30
1.415545
11
-0.389566
21
2.837223
31
1.558068
12
-0.994438
22
2.951482
32
1.646306
13
-1.108133
23
3.547304
33
1.437741
0
3DFACE
8
coconut_palm6_leaves
10
-1.653445
20
3.274244
30
1.768459
11
-1.553205
21
3.236405
31
2.172012
12
-1.958548
22
2.718926
32
2.685333
13
-2.184050
23
3.024668
33
2.217180
0
3DFACE
8
coconut_palm6_leaves
10
-1.728275
20
3.147257
30
1.523835
11
-1.653445
21
3.274244
31
1.768459
12
-2.184050
22
3.024668
32
2.217180
13
-2.241102
23
2.823590
33
2.059757
0
3DFACE
8
coconut_palm6_leaves
10
-1.051248
20
3.249089
30
1.572334
11
-0.994887
21
3.304726
31
1.907176
12
-1.553205
22
3.236405
32
2.172012
13
-1.653445
23
3.274244
33
1.768459
0
3DFACE
8
coconut_palm6_leaves
10
-1.102508
20
3.131223
30
1.288592
11
-1.051248
21
3.249089
31
1.572334
12
-1.653445
22
3.274244
32
1.768459
13
-1.728275
23
3.147257
33
1.523835
0
3DFACE
8
coconut_palm6_leaves
10
-0.444577
20
3.120176
30
1.515990
11
-0.402709
21
3.188856
31
1.827966
12
-0.994887
22
3.304726
32
1.907176
13
-1.051248
23
3.249089
33
1.572334
0
3DFACE
8
coconut_palm6_leaves
10
-0.480816
20
3.005641
30
1.232890
11
-0.444577
21
3.120176
31
1.515990
12
-1.051248
22
3.249089
32
1.572334
13
-1.102508
23
3.131223
33
1.288592
0
3DFACE
8
coconut_palm6_leaves
10
-1.375693
20
2.788590
30
1.948897
11
-1.041332
21
2.504770
31
1.867225
12
-1.135703
22
2.002105
32
2.064397
13
-1.465194
23
2.246269
33
2.241121
0
3DFACE
8
coconut_palm6_leaves
10
-1.042770
20
3.084960
30
1.692414
11
-0.707422
21
2.793103
31
1.670882
12
-1.041332
22
2.504770
32
1.867225
13
-1.375693
23
2.788590
33
1.948897
0
3DFACE
8
coconut_palm6_leaves
10
-0.613396
20
3.241367
30
1.533571
11
-0.278182
21
2.950602
31
1.542838
12
-0.707422
22
2.793103
32
1.670882
13
-1.042770
23
3.084960
33
1.692414
0
3DFACE
8
coconut_palm6_leaves
10
-1.207973
20
2.642280
30
1.915153
11
-1.079320
21
2.608647
31
2.173331
12
-1.013669
22
1.989883
32
2.388324
13
-1.299669
23
2.117838
33
2.158156
0
3DFACE
8
coconut_palm6_leaves
10
-1.251641
20
2.568142
30
1.720251
11
-1.207973
21
2.642280
31
1.915153
12
-1.299669
22
2.117838
32
2.158156
13
-1.259776
23
2.032460
33
1.972264
0
3DFACE
8
coconut_palm6_leaves
10
-0.874724
20
2.936000
30
1.689420
11
-0.813292
21
2.970909
31
1.933053
12
-1.079320
22
2.608647
32
2.173331
13
-1.207973
23
2.642280
33
1.915153
0
3DFACE
8
coconut_palm6_leaves
10
-0.923203
20
2.861413
30
1.472733
11
-0.874724
21
2.936000
31
1.689420
12
-1.207973
22
2.642280
32
1.915153
13
-1.251641
23
2.568142
33
1.720251
0
3DFACE
8
coconut_palm6_leaves
10
-0.445509
20
3.093700
30
1.546215
11
-0.406057
21
3.155422
31
1.781573
12
-0.813292
22
2.970909
32
1.933053
13
-0.874724
23
2.936000
33
1.689420
0
3DFACE
8
coconut_palm6_leaves
10
-0.481780
20
3.006082
30
1.327225
11
-0.445509
21
3.093700
31
1.546215
12
-0.874724
22
2.936000
32
1.689420
13
-0.923203
23
2.861413
33
1.472733
0
3DFACE
8
coconut_palm6_leaves
10
-0.999207
20
3.555436
30
0.914792
11
-1.170287
21
3.237772
31
1.123251
12
-1.562042
22
3.295176
32
0.982819
13
-1.388589
23
3.593516
33
0.739972
0
3DFACE
8
coconut_palm6_leaves
10
-0.663367
20
3.470443
30
1.158849
11
-0.831594
21
3.129534
31
1.318386
12
-1.170287
22
3.237772
32
1.123251
13
-0.999207
23
3.555436
33
0.914792
0
3DFACE
8
coconut_palm6_leaves
10
-0.360422
20
3.331285
30
1.418274
11
-0.526393
21
2.972008
31
1.519233
12
-0.831594
22
3.129534
32
1.318386
13
-0.663367
23
3.470443
33
1.158849
0
3DFACE
8
coconut_palm6_leaves
10
-1.085085
20
3.399358
30
1.028837
11
-1.166523
21
3.515271
31
1.199281
12
-1.562639
22
3.565057
32
1.074409
13
-1.475784
23
3.448161
33
0.870938
0
3DFACE
8
coconut_palm6_leaves
10
-1.024319
20
3.263199
30
0.901197
11
-1.085085
21
3.399358
31
1.028837
12
-1.475784
22
3.448161
32
0.870938
13
-1.442296
23
3.296721
33
0.776231
0
3DFACE
8
coconut_palm6_leaves
10
-0.747634
20
3.301238
30
1.248668
11
-0.825365
21
3.403683
31
1.415242
12
-1.166523
22
3.515271
32
1.199281
13
-1.085085
23
3.399358
33
1.028837
0
3DFACE
8
coconut_palm6_leaves
10
-0.672499
20
3.185462
30
1.099157
11
-0.747634
21
3.301238
31
1.248668
12
-1.085085
22
3.399358
32
1.028837
13
-1.024319
23
3.263199
33
0.901197
0
3DFACE
8
coconut_palm6_leaves
10
-0.443348
20
3.151159
30
1.478808
11
-0.519568
21
3.230078
31
1.655228
12
-0.825365
22
3.403683
32
1.415242
13
-0.747634
23
3.301238
33
1.248668
0
3DFACE
8
coconut_palm6_leaves
10
-0.365593
20
3.059745
30
1.313075
11
-0.443348
21
3.151159
31
1.478808
12
-0.747634
22
3.301238
32
1.248668
13
-0.672499
23
3.185462
33
1.099157
0
3DFACE
8
coconut_palm6_leaves
10
0.497857
20
2.261583
30
1.906130
11
0.081807
21
2.295039
31
2.152211
12
-0.178654
22
1.527293
32
2.257933
13
0.224830
23
1.596176
33
1.998628
0
3DFACE
8
coconut_palm6_leaves
10
0.249278
20
2.734670
30
1.694848
11
-0.176415
21
2.846654
31
1.897392
12
0.081807
22
2.295039
32
2.152211
13
0.497857
23
2.261583
33
1.906130
0
3DFACE
8
coconut_palm6_leaves
10
-0.231149
20
2.986547
30
1.499122
11
-0.661877
21
3.139543
31
1.659926
12
-0.176415
22
2.846654
32
1.897392
13
0.249278
23
2.734670
33
1.694848
0
3DFACE
8
coconut_palm6_leaves
10
0.289892
20
2.277822
30
2.029325
11
0.012255
21
2.075817
31
1.836150
12
-0.547778
22
1.578381
32
1.945537
13
0.023151
23
1.561224
33
2.128229
0
3DFACE
8
coconut_palm6_leaves
10
0.316349
20
2.347044
30
2.285274
11
0.289892
21
2.277822
31
2.029325
12
0.023151
22
1.561224
32
2.128229
13
-0.200984
23
1.557473
33
2.432420
0
3DFACE
8
coconut_palm6_leaves
10
0.036481
20
2.790255
30
1.796433
11
-0.089243
21
2.542115
31
1.653426
12
0.012255
22
2.075817
32
1.836150
13
0.289892
23
2.277822
33
2.029325
0
3DFACE
8
coconut_palm6_leaves
10
0.127870
20
3.027366
30
1.942926
11
0.036481
21
2.790255
31
1.796433
12
0.289892
22
2.277822
32
2.029325
13
0.316349
23
2.347044
33
2.285274
0
3DFACE
8
coconut_palm6_leaves
10
-0.446472
20
3.062717
30
1.579921
11
-0.529469
21
2.788067
31
1.489935
12
-0.089243
22
2.542115
32
1.653426
13
0.036481
23
2.790255
33
1.796433
0
3DFACE
8
coconut_palm6_leaves
10
-0.365523
20
3.354045
30
1.637746
11
-0.446472
21
3.062717
31
1.579921
12
0.036481
22
2.790255
32
1.796433
13
0.127870
23
3.027366
33
1.942926
0
3DFACE
8
coconut_palm6_leaves
10
0.297734
20
2.990217
30
1.000601
11
0.419116
21
2.971530
31
1.355579
12
0.867114
22
2.842739
32
1.252191
13
0.747721
23
2.845235
33
0.936583
0
3DFACE
8
coconut_palm6_leaves
10
-0.122413
20
3.078765
30
1.153565
11
0.004267
21
3.016927
31
1.542169
12
0.419116
22
2.971530
32
1.355579
13
0.297734
23
2.990217
33
1.000601
0
3DFACE
8
coconut_palm6_leaves
10
-0.310497
20
3.057841
30
1.197752
11
-0.442686
21
3.166327
31
1.459838
12
-1.025052
22
3.040873
32
1.260092
13
-0.908401
23
2.894093
33
1.026640
0
3DFACE
8
coconut_palm6_leaves
10
-0.442686
20
3.166327
30
1.459838
11
-0.570191
21
3.236665
31
1.749661
12
-1.141750
22
3.133426
32
1.549714
13
-1.025052
23
3.040873
33
1.260092
0
3DFACE
8
coconut_palm6_leaves
10
-0.908401
20
2.894093
30
1.026640
11
-1.025052
21
3.040873
31
1.260092
12
-1.622081
22
2.801015
32
1.215286
13
-1.534570
23
2.617328
33
1.029595
0
3DFACE
8
coconut_palm6_leaves
10
-1.025052
20
3.040873
30
1.260092
11
-1.141750
21
3.133426
31
1.549714
12
-1.698187
22
2.852169
32
1.562713
13
-1.622081
23
2.801015
33
1.215286
0
3DFACE
8
coconut_palm6_leaves
10
-1.534570
20
2.617328
30
1.029595
11
-1.622081
21
2.801015
31
1.215286
12
-2.160841
22
2.410409
32
1.361082
13
-2.045579
23
2.195371
33
1.220041
0
3DFACE
8
coconut_palm6_leaves
10
-1.622081
20
2.801015
30
1.215286
11
-1.698187
21
2.852169
31
1.562713
12
-2.092286
22
2.302144
32
1.806551
13
-2.160841
23
2.410409
33
1.361082
0
3DFACE
8
coconut_palm6_leaves
10
-0.585632
20
3.387895
30
1.313356
11
-0.298892
21
2.937862
31
1.559795
12
-0.883838
22
2.833420
32
1.361958
13
-1.165269
23
3.240213
33
1.113932
0
3DFACE
8
coconut_palm6_leaves
10
-1.165269
20
3.240213
30
1.113932
11
-0.883838
21
2.833420
31
1.361958
12
-1.482122
22
2.603783
32
1.291928
13
-1.761533
23
2.994127
33
1.095786
0
3DFACE
8
coconut_palm6_leaves
10
-1.761533
20
2.994127
30
1.095786
11
-1.482122
21
2.603783
31
1.291928
12
-2.021402
22
2.217408
32
1.373457
13
-2.301228
23
2.611130
33
1.308126
0
3DFACE
8
coconut_palm6_leaves
10
-0.567168
20
3.391427
30
1.373900
11
-0.438996
21
3.236792
31
1.364141
12
-0.166076
22
3.454527
32
1.172131
13
-0.284774
23
3.613997
33
1.154603
0
3DFACE
8
coconut_palm6_leaves
10
-0.438996
20
3.236792
30
1.364141
11
-0.311324
21
3.086242
31
1.341833
12
-0.040532
22
3.295775
32
1.184406
13
-0.166076
23
3.454527
33
1.172131
0
3DFACE
8
coconut_palm6_leaves
10
-0.284774
20
3.613997
30
1.154603
11
-0.166076
21
3.454527
31
1.172131
12
0.173919
22
3.638503
32
1.046382
13
0.081724
23
3.801054
33
1.028435
0
3DFACE
8
coconut_palm6_leaves
10
-0.166076
20
3.454527
30
1.172131
11
-0.040532
21
3.295775
31
1.184406
12
0.299254
22
3.466453
32
1.109444
13
0.173919
23
3.638503
33
1.046382
0
3DFACE
8
coconut_palm6_leaves
10
0.081724
20
3.801054
30
1.028435
11
0.173919
21
3.638503
31
1.046382
12
0.585068
22
3.777956
32
1.096766
13
0.523071
23
3.931407
33
1.140281
0
3DFACE
8
coconut_palm6_leaves
10
0.173919
20
3.638503
30
1.046382
11
0.299254
21
3.466453
31
1.109444
12
0.698545
22
3.566963
32
1.229397
13
0.585068
23
3.777956
33
1.096766
0
3DFACE
8
coconut_palm6_leaves
10
-0.456251
20
3.222589
30
1.178169
11
-0.419047
21
3.229064
31
1.558036
12
-0.149120
22
3.471172
32
1.371141
13
-0.180439
23
3.416763
33
0.983844
0
3DFACE
8
coconut_palm6_leaves
10
-0.180439
20
3.416763
30
0.983844
11
-0.149120
21
3.471172
31
1.371141
12
0.189057
22
3.669945
32
1.250388
13
0.161325
23
3.586334
33
0.854732
0
3DFACE
8
coconut_palm6_leaves
10
0.161325
20
3.586334
30
0.854732
11
0.189057
21
3.669945
31
1.250388
12
0.600850
22
3.804153
32
1.309371
13
0.571937
23
3.730161
33
0.896050
0
3DFACE
8
coconut_palm6_leaves
10
-0.316837
20
3.101568
30
1.348517
11
-0.443770
21
3.140957
31
1.491277
12
-0.619896
22
2.810270
32
1.411686
13
-0.495043
23
2.768098
33
1.276990
0
3DFACE
8
coconut_palm6_leaves
10
-0.443770
20
3.140957
30
1.491277
11
-0.569371
21
3.169489
31
1.641387
12
-0.741171
22
2.839309
32
1.560035
13
-0.619896
23
2.810270
33
1.411686
0
3DFACE
8
coconut_palm6_leaves
10
-0.495043
20
2.768098
30
1.276990
11
-0.619896
21
2.810270
31
1.411686
12
-0.774594
22
2.486633
32
1.347250
13
-0.649450
23
2.442651
33
1.224123
0
3DFACE
8
coconut_palm6_leaves
10
-0.619896
20
2.810270
30
1.411686
11
-0.741171
21
2.839309
31
1.560035
12
-0.882191
22
2.510764
32
1.511597
13
-0.774594
23
2.486633
33
1.347250
0
3DFACE
8
coconut_palm6_leaves
10
-0.649450
20
2.442651
30
1.224123
11
-0.774594
21
2.486633
31
1.347250
12
-0.878928
22
2.183049
32
1.321004
13
-0.741866
23
2.148513
33
1.218819
0
3DFACE
8
coconut_palm6_leaves
10
-0.774594
20
2.486633
30
1.347250
11
-0.882191
21
2.510764
31
1.511597
12
-0.953826
22
2.189810
32
1.528336
13
-0.878928
23
2.183049
33
1.321004
0
3DFACE
8
coconut_palm6_leaves
10
-0.584645
20
3.165310
30
1.366841
11
-0.301612
21
3.106141
31
1.614566
12
-0.478254
22
2.779669
32
1.515564
13
-0.760401
23
2.831619
33
1.306773
0
3DFACE
8
coconut_palm6_leaves
10
-0.760401
20
2.831619
30
1.306773
11
-0.478254
21
2.779669
31
1.515564
12
-0.633152
22
2.457649
32
1.432828
13
-0.915030
23
2.507414
33
1.260464
0
3DFACE
8
coconut_palm6_leaves
10
-0.915030
20
2.507414
30
1.260464
11
-0.633152
21
2.457649
31
1.432828
12
-0.737015
22
2.150235
32
1.389874
13
-1.019939
23
2.208515
33
1.250176
0
3DFACE
8
coconut_palm6_leaves
10
-0.504998
20
3.442313
30
1.515160
11
-0.442848
21
3.162699
31
1.464423
12
-0.006788
22
3.310801
32
1.138759
13
-0.074718
23
3.593228
33
1.139545
0
3DFACE
8
coconut_palm6_leaves
10
-0.442848
20
3.162699
30
1.464423
11
-0.382408
21
2.897013
31
1.382775
12
0.055398
22
3.039209
32
1.100909
13
-0.006788
23
3.310801
33
1.138759
0
3DFACE
8
coconut_palm6_leaves
10
-0.074718
20
3.593228
30
1.139545
11
-0.006788
21
3.310801
31
1.138759
12
0.404884
22
3.401693
32
0.781707
13
0.319320
23
3.679654
33
0.717143
0
3DFACE
8
coconut_palm6_leaves
10
-0.006788
20
3.310801
30
1.138759
11
0.055398
21
3.039209
31
1.100909
12
0.460866
22
3.134125
32
0.784820
13
0.404884
23
3.401693
33
0.781707
0
3DFACE
8
coconut_palm6_leaves
10
0.319320
20
3.679654
30
0.717143
11
0.404884
21
3.401693
31
0.781707
12
0.765626
22
3.418731
32
0.382423
13
0.642210
23
3.672625
33
0.229138
0
3DFACE
8
coconut_palm6_leaves
10
0.404884
20
3.401693
30
0.781707
11
0.460866
21
3.134125
31
0.784820
12
0.796887
22
3.162618
32
0.421668
13
0.765626
23
3.418731
33
0.382423
0
3DFACE
8
coconut_palm6_leaves
10
-0.643656
20
3.153093
30
1.264234
11
-0.238804
21
3.145947
31
1.669778
12
0.191932
22
3.337415
32
1.340442
13
-0.202547
23
3.260077
33
0.947542
0
3DFACE
8
coconut_palm6_leaves
10
-0.202547
20
3.260077
30
0.947542
11
0.191932
21
3.337415
31
1.340442
12
0.598127
22
3.472903
32
0.970421
13
0.214164
23
3.309930
33
0.608555
0
3DFACE
8
coconut_palm6_leaves
10
0.214164
20
3.309930
30
0.608555
11
0.598127
21
3.472903
31
0.970421
12
0.953294
22
3.535351
32
0.546352
13
0.579842
23
3.286769
33
0.238708
0
3DFACE
8
coconut_palm6_leaves
10
-0.346109
20
3.353900
30
1.539879
11
-0.444507
21
3.122050
31
1.513798
12
-0.027713
22
2.887346
32
1.616489
13
0.079980
23
3.090973
33
1.696070
0
3DFACE
8
coconut_palm6_leaves
10
-0.444507
20
3.122050
30
1.513798
11
-0.544017
21
2.899249
31
1.466399
12
-0.150858
22
2.681011
32
1.538958
13
-0.027713
23
2.887346
33
1.616489
0
3DFACE
8
coconut_palm6_leaves
10
0.079980
20
3.090973
30
1.696070
11
-0.027713
21
2.887346
31
1.616489
12
0.261149
22
2.539196
32
1.778744
13
0.347537
23
2.659019
33
1.947132
0
3DFACE
8
coconut_palm6_leaves
10
-0.027713
20
2.887346
30
1.616489
11
-0.150858
21
2.681011
31
1.538958
12
0.058737
22
2.351674
32
1.684436
13
0.261149
23
2.539196
33
1.778744
0
3DFACE
8
coconut_palm6_leaves
10
0.347537
20
2.659019
30
1.947132
11
0.261149
21
2.539196
31
1.778744
12
0.241909
22
2.019818
32
1.973722
13
0.202967
23
2.014471
33
2.225412
0
3DFACE
8
coconut_palm6_leaves
10
0.261149
20
2.539196
30
1.778744
11
0.058737
21
2.351674
31
1.684436
12
-0.143410
22
1.886181
32
1.889919
13
0.241909
23
2.019818
33
1.973722
0
3DFACE
8
coconut_palm6_leaves
10
-0.287710
20
3.051983
30
1.381484
11
-0.600469
21
3.185303
31
1.652205
12
-0.181274
22
2.931052
32
1.763289
13
0.126781
23
2.836043
33
1.474720
0
3DFACE
8
coconut_palm6_leaves
10
0.126781
20
2.836043
30
1.474720
11
-0.181274
21
2.931052
31
1.763289
12
0.112066
22
2.546431
32
1.935274
13
0.411285
23
2.523388
33
1.625217
0
3DFACE
8
coconut_palm6_leaves
10
0.411285
20
2.523388
30
1.625217
11
0.112066
21
2.546431
31
1.935274
12
0.099721
22
1.970897
32
2.129465
13
0.385212
23
2.059659
33
1.817783
0
3DFACE
8
coconut_palm6_leaves
10
-0.276802
20
3.283996
30
1.346033
11
-0.440104
21
3.217715
31
1.391383
12
-0.475653
22
3.055382
32
1.082919
13
-0.311397
23
3.108532
33
1.040406
0
3DFACE
8
coconut_palm6_leaves
10
-0.440104
20
3.217715
30
1.391383
11
-0.603251
21
3.150159
31
1.434669
12
-0.639769
22
2.997535
32
1.125295
13
-0.475653
23
3.055382
33
1.082919
0
3DFACE
8
coconut_palm6_leaves
10
-0.311397
20
3.108532
30
1.040406
11
-0.475653
21
3.055382
31
1.082919
12
-0.506040
22
2.813678
32
0.840599
13
-0.341363
23
2.848195
33
0.806038
0
3DFACE
8
coconut_palm6_leaves
10
-0.475653
20
3.055382
30
1.082919
11
-0.639769
21
2.997535
31
1.125295
12
-0.670836
22
2.761043
32
0.882587
13
-0.506040
23
2.813678
33
0.840599
0
3DFACE
8
coconut_palm6_leaves
10
-0.341363
20
2.848195
30
0.806038
11
-0.506040
21
2.813678
31
0.840599
12
-0.533926
22
2.497266
32
0.670922
13
-0.369462
23
2.508229
33
0.649926
0
3DFACE
8
coconut_palm6_leaves
10
-0.506040
20
2.813678
30
0.840599
11
-0.670836
21
2.761043
31
0.882587
12
-0.699187
22
2.446494
32
0.710962
13
-0.533926
23
2.497266
33
0.670922
0
3DFACE
8
coconut_palm6_leaves
10
-0.520099
20
3.355242
30
1.299762
11
-0.359701
21
3.076862
31
1.464915
12
-0.397873
22
2.935889
32
1.151665
13
-0.553001
23
3.171356
33
0.997535
0
3DFACE
8
coconut_palm6_leaves
10
-0.553001
20
3.171356
30
0.997535
11
-0.397873
21
2.935889
31
1.151665
12
-0.430431
22
2.711872
32
0.896620
13
-0.581285
23
2.912526
33
0.769171
0
3DFACE
8
coconut_palm6_leaves
10
-0.581285
20
2.912526
30
0.769171
11
-0.430431
21
2.711872
31
0.896620
12
-0.459989
22
2.409079
32
0.705071
13
-0.607689
23
2.584045
33
0.622344
0
3DFACE
8
coconut_palm6_leaves
10
-0.424461
20
3.274076
30
1.571888
11
-0.445551
21
3.092427
31
1.547633
12
-0.086761
22
3.056048
32
1.534273
13
-0.067648
23
3.236115
33
1.564217
0
3DFACE
8
coconut_palm6_leaves
10
-0.445551
20
3.092427
30
1.547633
11
-0.467429
21
2.917201
31
1.508855
12
-0.106611
22
2.884786
32
1.487762
13
-0.086761
23
3.056048
33
1.534273
0
3DFACE
8
coconut_palm6_leaves
10
-0.067648
20
3.236115
30
1.564217
11
-0.086761
21
3.056048
31
1.534273
12
0.272479
22
3.041235
32
1.494847
13
0.286977
23
3.223982
33
1.522696
0
3DFACE
8
coconut_palm6_leaves
10
-0.086761
20
3.056048
30
1.534273
11
-0.106611
21
2.884786
31
1.487762
12
0.256942
22
2.876575
32
1.439954
13
0.272479
23
3.041235
33
1.494847
0
3DFACE
8
coconut_palm6_leaves
10
0.286977
20
3.223982
30
1.522696
11
0.272479
21
3.041235
31
1.494847
12
0.628831
22
3.060052
32
1.416131
13
0.634308
23
3.251874
33
1.428775
0
3DFACE
8
coconut_palm6_leaves
10
0.272479
20
3.041235
30
1.494847
11
0.256942
21
2.876575
31
1.439954
12
0.618313
22
2.905443
32
1.351887
13
0.628831
23
3.060052
33
1.416131
0
3DFACE
8
coconut_palm6_leaves
10
-0.468577
20
3.116209
30
1.371792
11
-0.419969
21
3.047838
31
1.726077
12
-0.061186
22
3.011511
32
1.707012
13
-0.109827
23
3.080142
33
1.364003
0
3DFACE
8
coconut_palm6_leaves
10
-0.109827
20
3.080142
30
1.364003
11
-0.061186
21
3.011511
31
1.707012
12
0.297633
22
3.000124
32
1.662797
13
0.249784
23
3.062313
33
1.329632
0
3DFACE
8
coconut_palm6_leaves
10
0.249784
20
3.062313
30
1.329632
11
0.297633
21
3.000124
31
1.662797
12
0.652904
22
3.027748
32
1.580551
13
0.607154
23
3.072839
33
1.255361
0
3DFACE
8
coconut_palm6_leaves
10
-0.532233
20
2.992657
30
1.384789
11
-0.446489
21
3.062151
31
1.580520
12
-0.741608
22
3.411642
32
1.605351
13
-0.840214
23
3.343743
33
1.408556
0
3DFACE
8
coconut_palm6_leaves
10
-0.446489
20
3.062151
30
1.580520
11
-0.358152
21
3.110534
31
1.788133
12
-0.645039
22
3.449805
32
1.837046
13
-0.741608
23
3.411642
33
1.605351
0
3DFACE
8
coconut_palm6_leaves
10
-0.840214
20
3.343743
30
1.408556
11
-0.741608
21
3.411642
31
1.605351
12
-1.068266
22
3.695419
32
1.785275
13
-1.194023
23
3.635406
33
1.631075
0
3DFACE
8
coconut_palm6_leaves
10
-0.741608
20
3.411642
30
1.605351
11
-0.645039
21
3.449805
31
1.837046
12
-0.945575
22
3.649401
32
2.097250
13
-1.068266
23
3.695419
33
1.785275
0
3DFACE
8
coconut_palm6_leaves
10
-1.194023
20
3.635406
30
1.631075
11
-1.068266
21
3.695419
31
1.785275
12
-1.358564
22
3.680848
32
2.345186
13
-1.478847
23
3.543974
33
2.304359
0
3DFACE
8
coconut_palm6_leaves
10
-1.068266
20
3.695419
30
1.785275
11
-0.945575
21
3.649401
31
2.097250
12
-1.145874
22
3.377449
32
2.726957
13
-1.358564
23
3.680848
33
2.345186
0
3DFACE
8
coconut_palm6_leaves
10
-0.393918
20
3.252991
30
1.509413
11
-0.499128
21
2.871871
31
1.627613
12
-0.792832
22
3.209831
32
1.696111
13
-0.689847
23
3.609078
33
1.489082
0
3DFACE
8
coconut_palm6_leaves
10
-0.689847
20
3.609078
30
1.489082
11
-0.792832
21
3.209831
31
1.696111
12
-1.117159
22
3.474625
32
1.906369
13
-1.018466
23
3.908832
33
1.636948
0
3DFACE
8
coconut_palm6_leaves
10
-1.018466
20
3.908832
30
1.636948
11
-1.117159
21
3.474625
31
1.906369
12
-1.402422
22
3.419047
32
2.454374
13
-1.314059
23
3.937382
33
2.205729
0
3DFACE
8
coconut_palm6_leaves
10
-0.575935
20
3.278938
30
1.399063
11
-0.441655
21
3.188188
31
1.431541
12
-0.245468
22
3.449222
32
1.448935
13
-0.369514
23
3.552776
33
1.407847
0
3DFACE
8
coconut_palm6_leaves
10
-0.441655
20
3.188188
30
1.431541
11
-0.307443
21
3.098001
31
1.456222
12
-0.117395
22
3.340697
32
1.495005
13
-0.245468
23
3.449222
33
1.448935
0
3DFACE
8
coconut_palm6_leaves
10
-0.369514
20
3.552776
30
1.407847
11
-0.245468
21
3.449222
31
1.448935
12
-0.014207
22
3.633699
32
1.632591
13
-0.118387
23
3.741853
33
1.630041
0
3DFACE
8
coconut_palm6_leaves
10
-0.245468
20
3.449222
30
1.448935
11
-0.117395
21
3.340697
31
1.495005
12
0.098655
22
3.469562
32
1.710457
13
-0.014207
23
3.633699
33
1.632591
0
3DFACE
8
coconut_palm6_leaves
10
-0.118387
20
3.741853
30
1.630041
11
-0.014207
21
3.633699
31
1.632591
12
0.199378
22
3.518075
32
2.090728
13
0.094503
23
3.547675
33
2.176379
0
3DFACE
8
coconut_palm6_leaves
10
-0.014207
20
3.633699
30
1.632591
11
0.098655
21
3.469562
31
1.710457
12
0.257951
22
3.232076
32
2.138839
13
0.199378
23
3.518075
33
2.090728
0
3DFACE
8
coconut_palm6_leaves
10
-0.362029
20
3.240925
30
1.328343
11
-0.520413
21
3.128392
31
1.532934
12
-0.324133
22
3.388664
32
1.563884
13
-0.165841
23
3.501951
33
1.332198
0
3DFACE
8
coconut_palm6_leaves
10
-0.165841
20
3.501951
30
1.332198
11
-0.324133
21
3.388664
31
1.563884
12
-0.091394
22
3.561097
32
1.757391
13
0.064022
23
3.697803
33
1.505246
0
3DFACE
8
coconut_palm6_leaves
10
0.064022
20
3.697803
30
1.505246
11
-0.091394
21
3.561097
31
1.757391
12
0.125963
22
3.414761
32
2.208875
13
0.273819
23
3.613042
33
1.967948
0
3DFACE
8
coconut_palm6_leaves
10
-0.668143
20
3.253844
30
1.343329
11
-0.442797
21
3.163831
31
1.462995
12
-0.468885
22
3.397420
32
1.952568
13
-0.698048
23
3.519745
33
1.870505
0
3DFACE
8
coconut_palm6_leaves
10
-0.442797
20
3.163831
30
1.462995
11
-0.216391
21
3.065173
31
1.569231
12
-0.231677
22
3.208573
32
2.048597
13
-0.468885
23
3.397420
33
1.952568
0
3DFACE
8
coconut_palm6_leaves
10
-0.698048
20
3.519745
30
1.870505
11
-0.468885
21
3.397420
31
1.952568
12
-0.415149
22
2.970805
32
2.615626
13
-0.624406
23
2.928580
33
2.627601
0
3DFACE
8
coconut_palm6_leaves
10
-0.468885
20
3.397420
30
1.952568
11
-0.231677
21
3.208573
31
2.048597
12
-0.160489
22
2.631942
32
2.497681
13
-0.415149
23
2.970805
33
2.615626
0
3DFACE
8
coconut_palm6_leaves
10
-0.624406
20
2.928580
30
2.627601
11
-0.415149
21
2.970805
31
2.615626
12
-0.282292
22
1.869126
32
2.474428
13
-0.491917
23
1.815004
33
2.129934
0
3DFACE
8
coconut_palm6_leaves
10
-0.415149
20
2.970805
30
2.615626
11
-0.160489
21
2.631942
31
2.497681
12
-0.073100
22
1.883566
32
1.809037
13
-0.282292
23
1.869126
33
2.474428
0
3DFACE
8
coconut_palm6_leaves
10
-0.373612
20
3.303806
30
1.559256
11
-0.511980
21
3.023833
31
1.366768
12
-0.539494
22
3.269038
32
1.842213
13
-0.398273
23
3.525774
33
2.062953
0
3DFACE
8
coconut_palm6_leaves
10
-0.398273
20
3.525774
30
2.062953
11
-0.539494
21
3.269038
31
1.842213
12
-0.490614
22
2.881978
32
2.473991
13
-0.339679
23
3.059596
33
2.757282
0
3DFACE
8
coconut_palm6_leaves
10
-0.339679
20
3.059596
30
2.757282
11
-0.490614
21
2.881978
31
2.473991
12
-0.366224
22
1.849254
32
2.312545
13
-0.198355
23
1.888958
33
2.636314
0
3DFACE
8
coconut_palm6_leaves
10
-0.260788
20
3.245073
30
1.298968
11
-0.440438
21
3.211669
31
1.399798
12
-0.540182
22
2.889889
32
1.160929
13
-0.362022
23
2.895219
33
1.076086
0
3DFACE
8
coconut_palm6_leaves
10
-0.440438
20
3.211669
30
1.399798
11
-0.619287
21
3.171750
31
1.501790
12
-0.716800
22
2.867765
32
1.261988
13
-0.540182
23
2.889889
33
1.160929
0
3DFACE
8
coconut_palm6_leaves
10
-0.362022
20
2.895219
30
1.076086
11
-0.540182
21
2.889889
31
1.160929
12
-0.629038
22
2.500553
32
1.033239
13
-0.451891
23
2.475055
33
0.976988
0
3DFACE
8
coconut_palm6_leaves
10
-0.540182
20
2.889889
30
1.160929
11
-0.716800
21
2.867765
31
1.261988
12
-0.793587
22
2.493245
32
1.164819
13
-0.629038
23
2.500553
33
1.033239
0
3DFACE
8
coconut_palm6_leaves
10
-0.451891
20
2.475055
30
0.976988
11
-0.629038
21
2.500553
31
1.033239
12
-0.672166
22
2.151973
32
1.032845
13
-0.476341
23
2.138754
33
1.039987
0
3DFACE
8
coconut_palm6_leaves
10
-0.629038
20
2.500553
30
1.033239
11
-0.793587
21
2.493245
31
1.164819
12
-0.793776
22
2.160553
32
1.278607
13
-0.672166
23
2.151973
33
1.032845
0
3DFACE
8
coconut_palm6_leaves
10
-0.542094
20
3.211544
30
1.254011
11
-0.337101
21
3.198111
31
1.548265
12
-0.439228
22
2.895735
32
1.286018
13
-0.639686
23
2.872236
33
1.039970
0
3DFACE
8
coconut_palm6_leaves
10
-0.639686
20
2.872236
30
1.039970
11
-0.439228
21
2.895735
31
1.286018
12
-0.528892
22
2.512982
32
1.135372
13
-0.727897
23
2.477653
33
0.935413
0
3DFACE
8
coconut_palm6_leaves
10
-0.727897
20
2.477653
30
0.935413
11
-0.528892
21
2.512982
31
1.135372
12
-0.570433
22
2.151472
32
1.121114
13
-0.772615
23
2.142020
33
0.946922
0
3DFACE
8
coconut_palm6_leaves
10
-0.672426
20
3.223329
30
1.542850
11
-0.446574
21
3.059182
31
1.583658
12
-0.120309
22
3.509575
32
1.640918
13
-0.335903
23
3.692506
33
1.566735
0
3DFACE
8
coconut_palm6_leaves
10
-0.446574
20
3.059182
30
1.583658
11
-0.221246
21
2.899298
31
1.601233
12
0.101749
22
3.317419
32
1.710662
13
-0.120309
23
3.509575
33
1.640918
0
3DFACE
8
coconut_palm6_leaves
10
-0.335903
20
3.692506
30
1.566735
11
-0.120309
21
3.509575
31
1.640918
12
0.244360
22
3.902485
32
1.817136
13
0.054684
23
4.088735
33
1.785474
0
3DFACE
8
coconut_palm6_leaves
10
-0.120309
20
3.509575
30
1.640918
11
0.101749
21
3.317419
31
1.710662
12
0.461893
22
3.626547
32
1.973168
13
0.244360
23
3.902485
33
1.817136
0
3DFACE
8
coconut_palm6_leaves
10
0.054684
20
4.088735
30
1.785474
11
0.244360
21
3.902485
31
1.817136
12
0.649078
22
4.047297
32
2.335965
13
0.486303
23
4.118093
33
2.490251
0
3DFACE
8
coconut_palm6_leaves
10
0.244360
20
3.902485
30
1.817136
11
0.461893
21
3.626547
31
1.973168
12
0.846257
22
3.532207
32
2.575339
13
0.649078
23
4.047297
33
2.335965
0
3DFACE
8
coconut_palm6_leaves
10
-0.335261
20
3.134370
30
1.360654
11
-0.553636
21
2.949368
31
1.805201
12
-0.226956
22
3.396381
32
1.905674
13
-0.008875
23
3.583777
33
1.375284
0
3DFACE
8
coconut_palm6_leaves
10
-0.008875
20
3.583777
30
1.375284
11
-0.226956
21
3.396381
31
1.905674
12
0.140528
22
3.766367
32
2.121756
13
0.353575
23
3.994756
33
1.509218
0
3DFACE
8
coconut_palm6_leaves
10
0.353575
20
3.994756
30
1.509218
11
0.140528
21
3.766367
31
2.121756
12
0.554145
22
3.838706
32
2.656488
13
0.749847
23
4.208356
33
2.002435
0
3DFACE
8
coconut_palm6_leaves
10
-0.423167
20
3.285999
30
1.634099
11
-0.446538
21
3.060434
31
1.582337
12
-0.060762
22
3.061602
32
1.346193
13
-0.030457
23
3.282390
33
1.385741
0
3DFACE
8
coconut_palm6_leaves
10
-0.446538
20
3.060434
30
1.582337
11
-0.471212
21
2.845474
31
1.510523
12
-0.088519
22
2.844607
32
1.291205
13
-0.060762
23
3.061602
33
1.346193
0
3DFACE
8
coconut_palm6_leaves
10
-0.030457
20
3.282390
30
1.385741
11
-0.060762
21
3.061602
31
1.346193
12
0.356876
22
2.993489
32
1.175046
13
0.404301
23
3.197511
33
1.223993
0
3DFACE
8
coconut_palm6_leaves
10
-0.060762
20
3.061602
30
1.346193
11
-0.088519
21
2.844607
31
1.291205
12
0.324921
22
2.771244
32
1.136691
13
0.356876
23
2.993489
33
1.175046
0
3DFACE
8
coconut_palm6_leaves
10
0.404301
20
3.197511
30
1.223993
11
0.356876
21
2.993489
31
1.175046
12
0.805991
22
2.855607
32
1.090958
13
0.874758
23
3.026099
33
1.182794
0
3DFACE
8
coconut_palm6_leaves
10
0.356876
20
2.993489
30
1.175046
11
0.324921
21
2.771244
31
1.136691
12
0.761523
22
2.625820
32
1.063485
13
0.805991
23
2.855607
33
1.090958
0
3DFACE
8
coconut_palm6_leaves
10
-0.511921
20
3.107993
30
1.376405
11
-0.377537
21
2.983411
31
1.787469
12
0.004267
22
3.016927
32
1.542169
13
-0.122413
23
3.078765
33
1.153565
0
3DFACE
8
coconut_palm6_coconuts
10
-0.510998
20
3.108941
30
1.523630
11
-0.535562
21
3.110891
31
1.513688
12
-0.530935
22
3.092639
32
1.517088
13
-0.530935
23
3.092639
33
1.517088
0
3DFACE
8
coconut_palm6_coconuts
10
-0.535562
20
3.110891
30
1.513688
11
-0.565597
21
3.111752
31
1.519775
12
-0.557583
22
3.080138
32
1.525663
13
-0.530935
23
3.092639
33
1.517088
0
3DFACE
8
coconut_palm6_coconuts
10
-0.565597
20
3.111752
30
1.519775
11
-0.593056
21
3.111294
31
1.540258
12
-0.583801
22
3.074789
32
1.547058
13
-0.557583
23
3.080138
33
1.525663
0
3DFACE
8
coconut_palm6_coconuts
10
-0.593056
20
3.111294
30
1.540258
11
-0.610580
21
3.109639
31
1.569651
12
-0.602565
22
3.078025
32
1.575540
13
-0.583801
23
3.074789
33
1.547058
0
3DFACE
8
coconut_palm6_coconuts
10
-0.610580
20
3.109639
30
1.569651
11
-0.613474
21
3.107230
31
1.600077
12
-0.608847
22
3.088978
32
1.603477
13
-0.602565
23
3.078025
33
1.575540
0
3DFACE
8
coconut_palm6_coconuts
10
-0.613474
20
3.107230
30
1.600077
11
-0.600963
21
3.104714
31
1.623384
12
-0.608847
22
3.088978
32
1.603477
13
-0.608847
23
3.088978
33
1.603477
0
3DFACE
8
coconut_palm6_coconuts
10
-0.510998
20
3.108941
30
1.523630
11
-0.529330
21
3.127835
31
1.520027
12
-0.535562
22
3.110891
32
1.513688
13
-0.535562
23
3.110891
33
1.513688
0
3DFACE
8
coconut_palm6_coconuts
10
-0.529330
20
3.127835
30
1.520027
11
-0.554803
21
3.141100
31
1.530753
12
-0.565597
22
3.111752
32
1.519775
13
-0.535562
23
3.110891
33
1.513688
0
3DFACE
8
coconut_palm6_coconuts
10
-0.554803
20
3.141100
30
1.530753
11
-0.580592
21
3.145182
31
1.552936
12
-0.593056
22
3.111294
32
1.540258
13
-0.565597
23
3.111752
33
1.519775
0
3DFACE
8
coconut_palm6_coconuts
10
-0.580592
20
3.145182
30
1.552936
11
-0.599786
21
3.138987
31
1.580630
12
-0.610580
22
3.109639
32
1.569651
13
-0.593056
23
3.111294
33
1.540258
0
3DFACE
8
coconut_palm6_coconuts
10
-0.599786
20
3.138987
30
1.580630
11
-0.607242
21
3.124174
31
1.606416
12
-0.613474
22
3.107230
32
1.600077
13
-0.610580
23
3.109639
33
1.569651
0
3DFACE
8
coconut_palm6_coconuts
10
-0.607242
20
3.124174
30
1.606416
11
-0.600963
21
3.104714
31
1.623384
12
-0.613474
22
3.107230
32
1.600077
13
-0.613474
23
3.107230
33
1.600077
0
3DFACE
8
coconut_palm6_coconuts
10
-0.510998
20
3.108941
30
1.523630
11
-0.515889
21
3.133546
31
1.532390
12
-0.529330
22
3.127835
32
1.520027
13
-0.529330
23
3.127835
33
1.520027
0
3DFACE
8
coconut_palm6_coconuts
10
-0.515889
20
3.133546
30
1.532390
11
-0.531524
21
3.150991
31
1.552168
12
-0.554803
22
3.141100
32
1.530753
13
-0.529330
23
3.127835
33
1.520027
0
3DFACE
8
coconut_palm6_coconuts
10
-0.531524
20
3.150991
30
1.552168
11
-0.553711
21
3.156603
31
1.577662
12
-0.580592
22
3.145182
32
1.552936
13
-0.554803
23
3.141100
33
1.530753
0
3DFACE
8
coconut_palm6_coconuts
10
-0.553711
20
3.156603
30
1.577662
11
-0.576506
21
3.148877
31
1.602044
12
-0.599786
22
3.138987
32
1.580630
13
-0.580592
23
3.145182
33
1.552936
0
3DFACE
8
coconut_palm6_coconuts
10
-0.576506
20
3.148877
30
1.602044
11
-0.593801
21
3.129885
31
1.618779
12
-0.607242
22
3.124174
32
1.606416
13
-0.599786
23
3.138987
33
1.580630
0
3DFACE
8
coconut_palm6_coconuts
10
-0.593801
20
3.129885
30
1.618779
11
-0.600963
21
3.104714
31
1.623384
12
-0.607242
22
3.124174
32
1.606416
13
-0.607242
23
3.124174
33
1.606416
0
3DFACE
8
coconut_palm6_coconuts
10
-0.510998
20
3.108941
30
1.523630
11
-0.503114
21
3.124677
31
1.543537
12
-0.515889
22
3.133546
32
1.532390
13
-0.515889
23
3.133546
33
1.532390
0
3DFACE
8
coconut_palm6_coconuts
10
-0.503114
20
3.124677
30
1.543537
11
-0.509395
21
3.135630
31
1.571473
12
-0.531524
22
3.150991
32
1.552168
13
-0.515889
23
3.133546
33
1.532390
0
3DFACE
8
coconut_palm6_coconuts
10
-0.509395
20
3.135630
30
1.571473
11
-0.528159
21
3.138866
31
1.599956
12
-0.553711
22
3.156603
32
1.577662
13
-0.531524
23
3.150991
33
1.552168
0
3DFACE
8
coconut_palm6_coconuts
10
-0.528159
20
3.138866
30
1.599956
11
-0.554378
21
3.133517
31
1.621350
12
-0.576506
22
3.148877
32
1.602044
13
-0.553711
23
3.156603
33
1.577662
0
3DFACE
8
coconut_palm6_coconuts
10
-0.554378
20
3.133517
30
1.621350
11
-0.581026
21
3.121016
31
1.629926
12
-0.593801
22
3.129885
32
1.618779
13
-0.576506
23
3.148877
33
1.602044
0
3DFACE
8
coconut_palm6_coconuts
10
-0.581026
20
3.121016
30
1.629926
11
-0.600963
21
3.104714
31
1.623384
12
-0.593801
22
3.129885
32
1.618779
13
-0.593801
23
3.129885
33
1.618779
0
3DFACE
8
coconut_palm6_coconuts
10
-0.510998
20
3.108941
30
1.523630
11
-0.498486
21
3.106425
31
1.546937
12
-0.503114
22
3.124677
32
1.543537
13
-0.503114
23
3.124677
33
1.543537
0
3DFACE
8
coconut_palm6_coconuts
10
-0.498486
20
3.106425
30
1.546937
11
-0.501380
21
3.104017
31
1.577362
12
-0.509395
22
3.135630
32
1.571473
13
-0.503114
23
3.124677
33
1.543537
0
3DFACE
8
coconut_palm6_coconuts
10
-0.501380
20
3.104017
30
1.577362
11
-0.518904
21
3.102361
31
1.606755
12
-0.528159
22
3.138866
32
1.599956
13
-0.509395
23
3.135630
33
1.571473
0
3DFACE
8
coconut_palm6_coconuts
10
-0.518904
20
3.102361
30
1.606755
11
-0.546363
21
3.101903
31
1.627239
12
-0.554378
22
3.133517
32
1.621350
13
-0.528159
23
3.138866
33
1.599956
0
3DFACE
8
coconut_palm6_coconuts
10
-0.546363
20
3.101903
30
1.627239
11
-0.576398
21
3.102764
31
1.633325
12
-0.581026
22
3.121016
32
1.629926
13
-0.554378
23
3.133517
33
1.621350
0
3DFACE
8
coconut_palm6_coconuts
10
-0.576398
20
3.102764
30
1.633325
11
-0.600963
21
3.104714
31
1.623384
12
-0.581026
22
3.121016
32
1.629926
13
-0.581026
23
3.121016
33
1.629926
0
3DFACE
8
coconut_palm6_coconuts
10
-0.510998
20
3.108941
30
1.523630
11
-0.504718
21
3.089481
31
1.540598
12
-0.498486
22
3.106425
32
1.546937
13
-0.498486
23
3.106425
33
1.546937
0
3DFACE
8
coconut_palm6_coconuts
10
-0.504718
20
3.089481
30
1.540598
11
-0.512174
21
3.074669
31
1.566383
12
-0.501380
22
3.104017
32
1.577362
13
-0.498486
23
3.106425
33
1.546937
0
3DFACE
8
coconut_palm6_coconuts
10
-0.512174
20
3.074669
30
1.566383
11
-0.531368
21
3.068473
31
1.594078
12
-0.518904
22
3.102361
32
1.606755
13
-0.501380
23
3.104017
33
1.577362
0
3DFACE
8
coconut_palm6_coconuts
10
-0.531368
20
3.068473
30
1.594078
11
-0.557157
21
3.072555
31
1.616261
12
-0.546363
22
3.101903
32
1.627239
13
-0.518904
23
3.102361
33
1.606755
0
3DFACE
8
coconut_palm6_coconuts
10
-0.557157
20
3.072555
30
1.616261
11
-0.582630
21
3.085820
31
1.626987
12
-0.576398
22
3.102764
32
1.633325
13
-0.546363
23
3.101903
33
1.627239
0
3DFACE
8
coconut_palm6_coconuts
10
-0.582630
20
3.085820
30
1.626987
11
-0.600963
21
3.104714
31
1.623384
12
-0.576398
22
3.102764
32
1.633325
13
-0.576398
23
3.102764
33
1.633325
0
3DFACE
8
coconut_palm6_coconuts
10
-0.510998
20
3.108941
30
1.523630
11
-0.518159
21
3.083770
31
1.528234
12
-0.504718
22
3.089481
32
1.540598
13
-0.504718
23
3.089481
33
1.540598
0
3DFACE
8
coconut_palm6_coconuts
10
-0.518159
20
3.083770
30
1.528234
11
-0.535454
21
3.064778
31
1.544969
12
-0.512174
22
3.074669
32
1.566383
13
-0.504718
23
3.089481
33
1.540598
0
3DFACE
8
coconut_palm6_coconuts
10
-0.535454
20
3.064778
30
1.544969
11
-0.558249
21
3.057052
31
1.569351
12
-0.531368
22
3.068473
32
1.594078
13
-0.512174
23
3.074669
33
1.566383
0
3DFACE
8
coconut_palm6_coconuts
10
-0.558249
20
3.057052
30
1.569351
11
-0.580437
21
3.062664
31
1.594846
12
-0.557157
22
3.072555
32
1.616261
13
-0.531368
23
3.068473
33
1.594078
0
3DFACE
8
coconut_palm6_coconuts
10
-0.580437
20
3.062664
30
1.594846
11
-0.596071
21
3.080110
31
1.614623
12
-0.582630
22
3.085820
32
1.626987
13
-0.557157
23
3.072555
33
1.616261
0
3DFACE
8
coconut_palm6_coconuts
10
-0.596071
20
3.080110
30
1.614623
11
-0.600963
21
3.104714
31
1.623384
12
-0.582630
22
3.085820
32
1.626987
13
-0.582630
23
3.085820
33
1.626987
0
3DFACE
8
coconut_palm6_coconuts
10
-0.510998
20
3.108941
30
1.523630
11
-0.530935
21
3.092639
31
1.517088
12
-0.518159
22
3.083770
32
1.528234
13
-0.518159
23
3.083770
33
1.528234
0
3DFACE
8
coconut_palm6_coconuts
10
-0.530935
20
3.092639
30
1.517088
11
-0.557583
21
3.080138
31
1.525663
12
-0.535454
22
3.064778
32
1.544969
13
-0.518159
23
3.083770
33
1.528234
0
3DFACE
8
coconut_palm6_coconuts
10
-0.557583
20
3.080138
30
1.525663
11
-0.583801
21
3.074789
31
1.547058
12
-0.558249
22
3.057052
32
1.569351
13
-0.535454
23
3.064778
33
1.544969
0
3DFACE
8
coconut_palm6_coconuts
10
-0.583801
20
3.074789
30
1.547058
11
-0.602565
21
3.078025
31
1.575540
12
-0.580437
22
3.062664
32
1.594846
13
-0.558249
23
3.057052
33
1.569351
0
3DFACE
8
coconut_palm6_coconuts
10
-0.602565
20
3.078025
30
1.575540
11
-0.608847
21
3.088978
31
1.603477
12
-0.596071
22
3.080110
32
1.614623
13
-0.580437
23
3.062664
33
1.594846
0
3DFACE
8
coconut_palm6_coconuts
10
-0.608847
20
3.088978
30
1.603477
11
-0.600963
21
3.104714
31
1.623384
12
-0.596071
22
3.080110
32
1.614623
13
-0.596071
23
3.080110
33
1.614623
0
3DFACE
8
coconut_palm6_coconuts
10
-0.438945
20
2.956062
30
1.420976
11
-0.433388
21
2.954400
31
1.439210
12
-0.412572
22
2.953341
32
1.422730
13
-0.412572
23
2.953341
33
1.422730
0
3DFACE
8
coconut_palm6_coconuts
10
-0.438945
20
2.956062
30
1.420976
11
-0.462825
21
2.975216
31
1.422651
12
-0.453199
22
2.972337
32
1.454233
13
-0.433388
23
2.954400
33
1.439210
0
3DFACE
8
coconut_palm6_coconuts
10
-0.462825
20
2.975216
30
1.422651
11
-0.477811
21
3.005672
31
1.427305
12
-0.466697
22
3.002346
32
1.463773
13
-0.453199
23
2.972337
33
1.454233
0
3DFACE
8
coconut_palm6_coconuts
10
-0.477811
20
3.005672
30
1.427305
11
-0.479889
21
3.039268
31
1.433692
12
-0.470264
22
3.036388
32
1.465273
13
-0.466697
23
3.002346
33
1.463773
0
3DFACE
8
coconut_palm6_coconuts
10
-0.479889
20
3.039268
30
1.433692
11
-0.468502
21
3.067002
31
1.440100
12
-0.462944
22
3.065339
32
1.458334
13
-0.470264
23
3.036388
33
1.465273
0
3DFACE
8
coconut_palm6_coconuts
10
-0.468502
20
3.067002
30
1.440100
11
-0.446700
21
3.081443
31
1.444812
12
-0.462944
22
3.065339
32
1.458334
13
-0.462944
23
3.065339
33
1.458334
0
3DFACE
8
coconut_palm6_coconuts
10
-0.433388
20
2.954400
30
1.439210
11
-0.416976
21
2.957144
31
1.448656
12
-0.412572
22
2.953341
32
1.422730
13
-0.412572
23
2.953341
33
1.422730
0
3DFACE
8
coconut_palm6_coconuts
10
-0.433388
20
2.954400
30
1.439210
11
-0.453199
21
2.972337
31
1.454233
12
-0.424773
22
2.977090
32
1.470594
13
-0.416976
23
2.957144
33
1.448656
0
3DFACE
8
coconut_palm6_coconuts
10
-0.453199
20
2.972337
30
1.454233
11
-0.466697
21
3.002346
31
1.463773
12
-0.433872
22
3.007835
32
1.482665
13
-0.424773
23
2.977090
33
1.470594
0
3DFACE
8
coconut_palm6_coconuts
10
-0.466697
20
3.002346
30
1.463773
11
-0.470264
21
3.036388
31
1.465273
12
-0.441837
22
3.041141
32
1.481636
13
-0.433872
23
3.007835
33
1.482665
0
3DFACE
8
coconut_palm6_coconuts
10
-0.470264
20
3.036388
30
1.465273
11
-0.462944
21
3.065339
31
1.458334
12
-0.446532
22
3.068083
32
1.467780
13
-0.441837
23
3.041141
33
1.481636
0
3DFACE
8
coconut_palm6_coconuts
10
-0.462944
20
3.065339
30
1.458334
11
-0.446700
21
3.081443
31
1.444812
12
-0.446532
22
3.068083
32
1.467780
13
-0.446532
23
3.068083
33
1.467780
0
3DFACE
8
coconut_palm6_coconuts
10
-0.416976
20
2.957144
30
1.448656
11
-0.399323
21
2.962687
31
1.443782
12
-0.412572
22
2.953341
32
1.422730
13
-0.412572
23
2.953341
33
1.422730
0
3DFACE
8
coconut_palm6_coconuts
10
-0.416976
20
2.957144
30
1.448656
11
-0.424773
21
2.977090
31
1.470594
12
-0.394197
22
2.986691
32
1.462151
13
-0.399323
23
2.962687
33
1.443782
0
3DFACE
8
coconut_palm6_coconuts
10
-0.424773
20
2.977090
30
1.470594
11
-0.433872
21
3.007835
31
1.482665
12
-0.398567
22
3.018921
32
1.472916
13
-0.394197
23
2.986691
33
1.462151
0
3DFACE
8
coconut_palm6_coconuts
10
-0.433872
20
3.007835
30
1.482665
11
-0.441837
21
3.041141
31
1.481636
12
-0.411261
22
3.050743
32
1.473191
13
-0.398567
23
3.018921
33
1.472916
0
3DFACE
8
coconut_palm6_coconuts
10
-0.441837
20
3.041141
30
1.481636
11
-0.446532
21
3.068083
31
1.467780
12
-0.428879
22
3.073627
32
1.462905
13
-0.411261
23
3.050743
33
1.473191
0
3DFACE
8
coconut_palm6_coconuts
10
-0.446532
20
3.068083
30
1.467780
11
-0.446700
21
3.081443
31
1.444812
12
-0.428879
22
3.073627
32
1.462905
13
-0.428879
23
3.073627
33
1.462905
0
3DFACE
8
coconut_palm6_coconuts
10
-0.399323
20
2.962687
30
1.443782
11
-0.390770
21
2.967782
31
1.427441
12
-0.412572
22
2.953341
32
1.422730
13
-0.412572
23
2.953341
33
1.422730
0
3DFACE
8
coconut_palm6_coconuts
10
-0.399323
20
2.962687
30
1.443782
11
-0.394197
21
2.986691
31
1.462151
12
-0.379383
22
2.995517
32
1.433849
13
-0.390770
23
2.967782
33
1.427441
0
3DFACE
8
coconut_palm6_coconuts
10
-0.394197
20
2.986691
30
1.462151
11
-0.398567
21
3.018921
31
1.472916
12
-0.381461
22
3.029112
32
1.440235
13
-0.379383
23
2.995517
33
1.433849
0
3DFACE
8
coconut_palm6_coconuts
10
-0.398567
20
3.018921
30
1.472916
11
-0.411261
21
3.050743
31
1.473191
12
-0.396447
22
3.059568
32
1.444890
13
-0.381461
23
3.029112
33
1.440235
0
3DFACE
8
coconut_palm6_coconuts
10
-0.411261
20
3.050743
30
1.473191
11
-0.428879
21
3.073627
31
1.462905
12
-0.420327
22
3.078722
32
1.446565
13
-0.396447
23
3.059568
33
1.444890
0
3DFACE
8
coconut_palm6_coconuts
10
-0.428879
20
3.073627
30
1.462905
11
-0.446700
21
3.081443
31
1.444812
12
-0.420327
22
3.078722
32
1.446565
13
-0.420327
23
3.078722
33
1.446565
0
3DFACE
8
coconut_palm6_coconuts
10
-0.390770
20
2.967782
30
1.427441
11
-0.396327
21
2.969445
31
1.409207
12
-0.412572
22
2.953341
32
1.422730
13
-0.412572
23
2.953341
33
1.422730
0
3DFACE
8
coconut_palm6_coconuts
10
-0.390770
20
2.967782
30
1.427441
11
-0.379383
21
2.995517
31
1.433849
12
-0.389008
22
2.998397
32
1.402267
13
-0.396327
23
2.969445
33
1.409207
0
3DFACE
8
coconut_palm6_coconuts
10
-0.379383
20
2.995517
30
1.433849
11
-0.381461
21
3.029112
31
1.440235
12
-0.392575
22
3.032437
32
1.403768
13
-0.389008
23
2.998397
33
1.402267
0
3DFACE
8
coconut_palm6_coconuts
10
-0.381461
20
3.029112
30
1.440235
11
-0.396447
21
3.059568
31
1.444890
12
-0.406073
22
3.062447
32
1.413308
13
-0.392575
23
3.032437
33
1.403768
0
3DFACE
8
coconut_palm6_coconuts
10
-0.396447
20
3.059568
30
1.444890
11
-0.420327
21
3.078722
31
1.446565
12
-0.425884
22
3.080384
32
1.428331
13
-0.406073
23
3.062447
33
1.413308
0
3DFACE
8
coconut_palm6_coconuts
10
-0.420327
20
3.078722
30
1.446565
11
-0.446700
21
3.081443
31
1.444812
12
-0.425884
22
3.080384
32
1.428331
13
-0.425884
23
3.080384
33
1.428331
0
3DFACE
8
coconut_palm6_coconuts
10
-0.396327
20
2.969445
30
1.409207
11
-0.412740
21
2.966701
31
1.399761
12
-0.412572
22
2.953341
32
1.422730
13
-0.412572
23
2.953341
33
1.422730
0
3DFACE
8
coconut_palm6_coconuts
10
-0.396327
20
2.969445
30
1.409207
11
-0.389008
21
2.998397
31
1.402267
12
-0.417435
22
2.993644
32
1.385906
13
-0.412740
23
2.966701
33
1.399761
0
3DFACE
8
coconut_palm6_coconuts
10
-0.389008
20
2.998397
30
1.402267
11
-0.392575
21
3.032437
31
1.403768
12
-0.425399
22
3.026949
32
1.384876
13
-0.417435
23
2.993644
33
1.385906
0
3DFACE
8
coconut_palm6_coconuts
10
-0.392575
20
3.032437
30
1.403768
11
-0.406073
21
3.062447
31
1.413308
12
-0.434499
22
3.057694
32
1.396947
13
-0.425399
23
3.026949
33
1.384876
0
3DFACE
8
coconut_palm6_coconuts
10
-0.406073
20
3.062447
30
1.413308
11
-0.425884
21
3.080384
31
1.428331
12
-0.442296
22
3.077640
32
1.418885
13
-0.434499
23
3.057694
33
1.396947
0
3DFACE
8
coconut_palm6_coconuts
10
-0.425884
20
3.080384
30
1.428331
11
-0.446700
21
3.081443
31
1.444812
12
-0.442296
22
3.077640
32
1.418885
13
-0.442296
23
3.077640
33
1.418885
0
3DFACE
8
coconut_palm6_coconuts
10
-0.412740
20
2.966701
30
1.399761
11
-0.430392
21
2.961158
31
1.404636
12
-0.412572
22
2.953341
32
1.422730
13
-0.412572
23
2.953341
33
1.422730
0
3DFACE
8
coconut_palm6_coconuts
10
-0.412740
20
2.966701
30
1.399761
11
-0.417435
21
2.993644
31
1.385906
12
-0.448011
22
2.984042
32
1.394349
13
-0.430392
23
2.961158
33
1.404636
0
3DFACE
8
coconut_palm6_coconuts
10
-0.417435
20
2.993644
30
1.385906
11
-0.425399
21
3.026949
31
1.384876
12
-0.460705
22
3.015862
32
1.394625
13
-0.448011
23
2.984042
33
1.394349
0
3DFACE
8
coconut_palm6_coconuts
10
-0.425399
20
3.026949
30
1.384876
11
-0.434499
21
3.057694
31
1.396947
12
-0.465075
22
3.048093
32
1.405390
13
-0.460705
23
3.015862
33
1.394625
0
3DFACE
8
coconut_palm6_coconuts
10
-0.434499
20
3.057694
30
1.396947
11
-0.442296
21
3.077640
31
1.418885
12
-0.459949
22
3.072096
32
1.423760
13
-0.465075
23
3.048093
33
1.405390
0
3DFACE
8
coconut_palm6_coconuts
10
-0.442296
20
3.077640
30
1.418885
11
-0.446700
21
3.081443
31
1.444812
12
-0.459949
22
3.072096
32
1.423760
13
-0.459949
23
3.072096
33
1.423760
0
3DFACE
8
coconut_palm6_coconuts
10
-0.430392
20
2.961158
30
1.404636
11
-0.438945
21
2.956062
31
1.420976
12
-0.412572
22
2.953341
32
1.422730
13
-0.412572
23
2.953341
33
1.422730
0
3DFACE
8
coconut_palm6_coconuts
10
-0.430392
20
2.961158
30
1.404636
11
-0.448011
21
2.984042
31
1.394349
12
-0.462825
22
2.975216
32
1.422651
13
-0.438945
23
2.956062
33
1.420976
0
3DFACE
8
coconut_palm6_coconuts
10
-0.448011
20
2.984042
30
1.394349
11
-0.460705
21
3.015862
31
1.394625
12
-0.477811
22
3.005672
32
1.427305
13
-0.462825
23
2.975216
33
1.422651
0
3DFACE
8
coconut_palm6_coconuts
10
-0.460705
20
3.015862
30
1.394625
11
-0.465075
21
3.048093
31
1.405390
12
-0.479889
22
3.039268
32
1.433692
13
-0.477811
23
3.005672
33
1.427305
0
3DFACE
8
coconut_palm6_coconuts
10
-0.465075
20
3.048093
30
1.405390
11
-0.459949
21
3.072096
31
1.423760
12
-0.468502
22
3.067002
32
1.440100
13
-0.479889
23
3.039268
33
1.433692
0
3DFACE
8
coconut_palm6_coconuts
10
-0.459949
20
3.072096
30
1.423760
11
-0.446700
21
3.081443
31
1.444812
12
-0.468502
22
3.067002
32
1.440100
13
-0.468502
23
3.067002
33
1.440100
0
3DFACE
8
coconut_palm6_coconuts
10
-0.288261
20
3.085711
30
1.725263
11
-0.293007
21
3.072517
31
1.738282
12
-0.292001
22
3.096746
32
1.749143
13
-0.292001
23
3.096746
33
1.749143
0
3DFACE
8
coconut_palm6_coconuts
10
-0.288261
20
3.085711
30
1.725263
11
-0.301388
21
3.075268
31
1.699601
12
-0.309609
22
3.052415
32
1.722150
13
-0.293007
23
3.072517
33
1.738282
0
3DFACE
8
coconut_palm6_coconuts
10
-0.301388
20
3.075268
30
1.699601
11
-0.327865
21
3.068216
31
1.679033
12
-0.337358
22
3.041829
32
1.705071
13
-0.309609
23
3.052415
33
1.722150
0
3DFACE
8
coconut_palm6_coconuts
10
-0.327865
20
3.068216
30
1.679033
11
-0.360597
21
3.066444
31
1.669071
12
-0.368819
22
3.043592
32
1.691620
13
-0.337358
23
3.041829
33
1.705071
0
3DFACE
8
coconut_palm6_coconuts
10
-0.360597
20
3.066444
30
1.669071
11
-0.390814
21
3.070428
31
1.672383
12
-0.395561
22
3.057234
32
1.685403
13
-0.368819
23
3.043592
33
1.691620
0
3DFACE
8
coconut_palm6_coconuts
10
-0.390814
20
3.070428
30
1.672383
11
-0.410420
21
3.079099
31
1.688084
12
-0.395561
22
3.057234
32
1.685403
13
-0.395561
23
3.057234
33
1.685403
0
3DFACE
8
coconut_palm6_coconuts
10
-0.293007
20
3.072517
30
1.738282
11
-0.301811
21
3.072825
31
1.755267
12
-0.292001
22
3.096746
32
1.749143
13
-0.292001
23
3.096746
33
1.749143
0
3DFACE
8
coconut_palm6_coconuts
10
-0.293007
20
3.072517
30
1.738282
11
-0.309609
21
3.052415
31
1.722150
12
-0.324858
22
3.052946
32
1.751571
13
-0.301811
23
3.072825
33
1.755267
0
3DFACE
8
coconut_palm6_coconuts
10
-0.309609
20
3.052415
30
1.722150
11
-0.337358
21
3.041829
31
1.705071
12
-0.354966
22
3.042439
32
1.739045
13
-0.324858
23
3.052946
33
1.751571
0
3DFACE
8
coconut_palm6_coconuts
10
-0.337358
20
3.041829
30
1.705071
11
-0.368819
21
3.043592
31
1.691620
12
-0.384067
22
3.044122
32
1.721041
13
-0.354966
23
3.042439
33
1.739045
0
3DFACE
8
coconut_palm6_coconuts
10
-0.368819
20
3.043592
30
1.691620
11
-0.395561
21
3.057234
31
1.685403
12
-0.404365
22
3.057541
32
1.702388
13
-0.384067
23
3.044122
33
1.721041
0
3DFACE
8
coconut_palm6_coconuts
10
-0.395561
20
3.057234
30
1.685403
11
-0.410420
21
3.079099
31
1.688084
12
-0.404365
22
3.057541
32
1.702388
13
-0.404365
23
3.057541
33
1.702388
0
3DFACE
8
coconut_palm6_coconuts
10
-0.301811
20
3.072825
30
1.755267
11
-0.309515
21
3.086451
31
1.766271
12
-0.292001
22
3.096746
32
1.749143
13
-0.292001
23
3.096746
33
1.749143
0
3DFACE
8
coconut_palm6_coconuts
10
-0.301811
20
3.072825
30
1.755267
11
-0.324858
21
3.052946
31
1.751571
12
-0.338202
22
3.076549
32
1.770629
13
-0.309515
23
3.086451
33
1.766271
0
3DFACE
8
coconut_palm6_coconuts
10
-0.324858
20
3.052946
30
1.751571
11
-0.354966
21
3.042439
31
1.739045
12
-0.370374
22
3.069698
32
1.761047
13
-0.338202
23
3.076549
33
1.770629
0
3DFACE
8
coconut_palm6_coconuts
10
-0.354966
20
3.042439
30
1.739045
11
-0.384067
21
3.044122
31
1.721041
12
-0.397411
22
3.067726
32
1.740098
13
-0.370374
23
3.069698
33
1.761047
0
3DFACE
8
coconut_palm6_coconuts
10
-0.384067
20
3.044122
30
1.721041
11
-0.404365
21
3.057541
31
1.702388
12
-0.412069
22
3.071167
32
1.713392
13
-0.397411
23
3.067726
33
1.740098
0
3DFACE
8
coconut_palm6_coconuts
10
-0.404365
20
3.057541
30
1.702388
11
-0.410420
21
3.079099
31
1.688084
12
-0.412069
22
3.071167
32
1.713392
13
-0.412069
23
3.071167
33
1.713392
0
3DFACE
8
coconut_palm6_coconuts
10
-0.309515
20
3.086451
30
1.766271
11
-0.311607
21
3.105419
31
1.764842
12
-0.292001
22
3.096746
32
1.749143
13
-0.292001
23
3.096746
33
1.749143
0
3DFACE
8
coconut_palm6_coconuts
10
-0.309515
20
3.086451
30
1.766271
11
-0.338202
21
3.076549
31
1.770629
12
-0.341824
22
3.109402
32
1.768156
13
-0.311607
23
3.105419
33
1.764842
0
3DFACE
8
coconut_palm6_coconuts
10
-0.338202
20
3.076549
30
1.770629
11
-0.370374
21
3.069698
31
1.761047
12
-0.374556
22
3.107629
32
1.758195
13
-0.341824
23
3.109402
33
1.768156
0
3DFACE
8
coconut_palm6_coconuts
10
-0.370374
20
3.069698
30
1.761047
11
-0.397411
21
3.067726
31
1.740098
12
-0.401033
22
3.100578
32
1.737626
13
-0.374556
23
3.107629
33
1.758195
0
3DFACE
8
coconut_palm6_coconuts
10
-0.397411
20
3.067726
30
1.740098
11
-0.412069
21
3.071167
31
1.713392
12
-0.414159
22
3.090133
32
1.711966
13
-0.401033
23
3.100578
33
1.737626
0
3DFACE
8
coconut_palm6_coconuts
10
-0.412069
20
3.071167
30
1.713392
11
-0.410420
21
3.079099
31
1.688084
12
-0.414159
22
3.090133
32
1.711966
13
-0.414159
23
3.090133
33
1.711966
0
3DFACE
8
coconut_palm6_coconuts
10
-0.311607
20
3.105419
30
1.764842
11
-0.306860
21
3.118613
31
1.751823
12
-0.292001
22
3.096746
32
1.749143
13
-0.292001
23
3.096746
33
1.749143
0
3DFACE
8
coconut_palm6_coconuts
10
-0.311607
20
3.105419
30
1.764842
11
-0.341824
21
3.109402
31
1.768156
12
-0.333603
22
3.132254
32
1.745606
13
-0.306860
23
3.118613
33
1.751823
0
3DFACE
8
coconut_palm6_coconuts
10
-0.341824
20
3.109402
30
1.768156
11
-0.374556
21
3.107629
31
1.758195
12
-0.365063
22
3.134018
32
1.732155
13
-0.333603
23
3.132254
33
1.745606
0
3DFACE
8
coconut_palm6_coconuts
10
-0.374556
20
3.107629
30
1.758195
11
-0.401033
21
3.100578
31
1.737626
12
-0.392812
22
3.123429
32
1.715077
13
-0.365063
23
3.134018
33
1.732155
0
3DFACE
8
coconut_palm6_coconuts
10
-0.401033
20
3.100578
30
1.737626
11
-0.414159
21
3.090133
31
1.711966
12
-0.409413
22
3.103328
32
1.698946
13
-0.392812
23
3.123429
33
1.715077
0
3DFACE
8
coconut_palm6_coconuts
10
-0.414159
20
3.090133
30
1.711966
11
-0.410420
21
3.079099
31
1.688084
12
-0.409413
22
3.103328
32
1.698946
13
-0.409413
23
3.103328
33
1.698946
0
3DFACE
8
coconut_palm6_coconuts
10
-0.306860
20
3.118613
30
1.751823
11
-0.298056
21
3.118305
31
1.734838
12
-0.292001
22
3.096746
32
1.749143
13
-0.292001
23
3.096746
33
1.749143
0
3DFACE
8
coconut_palm6_coconuts
10
-0.306860
20
3.118613
30
1.751823
11
-0.333603
21
3.132254
31
1.745606
12
-0.318354
22
3.131722
32
1.716187
13
-0.298056
23
3.118305
33
1.734838
0
3DFACE
8
coconut_palm6_coconuts
10
-0.333603
20
3.132254
30
1.745606
11
-0.365063
21
3.134018
31
1.732155
12
-0.347455
22
3.133406
32
1.698183
13
-0.318354
23
3.131722
33
1.716187
0
3DFACE
8
coconut_palm6_coconuts
10
-0.365063
20
3.134018
30
1.732155
11
-0.392812
21
3.123429
31
1.715077
12
-0.377563
22
3.122900
32
1.685655
13
-0.347455
23
3.133406
33
1.698183
0
3DFACE
8
coconut_palm6_coconuts
10
-0.392812
20
3.123429
30
1.715077
11
-0.409413
21
3.103328
31
1.698946
12
-0.400609
22
3.103022
32
1.681959
13
-0.377563
23
3.122900
33
1.685655
0
3DFACE
8
coconut_palm6_coconuts
10
-0.409413
20
3.103328
30
1.698946
11
-0.410420
21
3.079099
31
1.688084
12
-0.400609
22
3.103022
32
1.681959
13
-0.400609
23
3.103022
33
1.681959
0
3DFACE
8
coconut_palm6_coconuts
10
-0.298056
20
3.118305
30
1.734838
11
-0.290352
21
3.104679
31
1.723835
12
-0.292001
22
3.096746
32
1.749143
13
-0.292001
23
3.096746
33
1.749143
0
3DFACE
8
coconut_palm6_coconuts
10
-0.298056
20
3.118305
30
1.734838
11
-0.318354
21
3.131722
31
1.716187
12
-0.305010
22
3.108120
32
1.697128
13
-0.290352
23
3.104679
33
1.723835
0
3DFACE
8
coconut_palm6_coconuts
10
-0.318354
20
3.131722
30
1.716187
11
-0.347455
21
3.133406
31
1.698183
12
-0.332047
22
3.106149
32
1.676179
13
-0.305010
23
3.108120
33
1.697128
0
3DFACE
8
coconut_palm6_coconuts
10
-0.347455
20
3.133406
30
1.698183
11
-0.377563
21
3.122900
31
1.685655
12
-0.364219
22
3.099296
32
1.666599
13
-0.332047
23
3.106149
33
1.676179
0
3DFACE
8
coconut_palm6_coconuts
10
-0.377563
20
3.122900
30
1.685655
11
-0.400609
21
3.103022
31
1.681959
12
-0.392906
22
3.089392
32
1.670959
13
-0.364219
23
3.099296
33
1.666599
0
3DFACE
8
coconut_palm6_coconuts
10
-0.400609
20
3.103022
30
1.681959
11
-0.410420
21
3.079099
31
1.688084
12
-0.392906
22
3.089392
32
1.670959
13
-0.392906
23
3.089392
33
1.670959
0
3DFACE
8
coconut_palm6_coconuts
10
-0.290352
20
3.104679
30
1.723835
11
-0.288261
21
3.085711
31
1.725263
12
-0.292001
22
3.096746
32
1.749143
13
-0.292001
23
3.096746
33
1.749143
0
3DFACE
8
coconut_palm6_coconuts
10
-0.290352
20
3.104679
30
1.723835
11
-0.305010
21
3.108120
31
1.697128
12
-0.301388
22
3.075268
32
1.699601
13
-0.288261
23
3.085711
33
1.725263
0
3DFACE
8
coconut_palm6_coconuts
10
-0.305010
20
3.108120
30
1.697128
11
-0.332047
21
3.106149
31
1.676179
12
-0.327865
22
3.068216
32
1.679033
13
-0.301388
23
3.075268
33
1.699601
0
3DFACE
8
coconut_palm6_coconuts
10
-0.332047
20
3.106149
30
1.676179
11
-0.364219
21
3.099296
31
1.666599
12
-0.360597
22
3.066444
32
1.669071
13
-0.327865
23
3.068216
33
1.679033
0
3DFACE
8
coconut_palm6_coconuts
10
-0.364219
20
3.099296
30
1.666599
11
-0.392906
21
3.089392
31
1.670959
12
-0.390814
22
3.070428
32
1.672383
13
-0.360597
23
3.066444
33
1.669071
0
3DFACE
8
coconut_palm6_coconuts
10
-0.392906
20
3.089392
30
1.670959
11
-0.410420
21
3.079099
31
1.688084
12
-0.390814
22
3.070428
32
1.672383
13
-0.390814
23
3.070428
33
1.672383
0
3DFACE
8
coconut_palm6_coconuts
10
-0.465653
20
3.100900
30
1.645740
11
-0.485644
21
3.118079
31
1.649101
12
-0.490974
22
3.100306
32
1.653773
13
-0.490974
23
3.100306
33
1.653773
0
3DFACE
8
coconut_palm6_coconuts
10
-0.485644
20
3.118079
30
1.649101
11
-0.501304
21
3.135511
31
1.668870
12
-0.510536
22
3.104728
32
1.676961
13
-0.490974
23
3.100306
33
1.653773
0
3DFACE
8
coconut_palm6_coconuts
10
-0.501304
20
3.135511
30
1.668870
11
-0.508436
21
3.148528
31
1.699748
12
-0.519096
22
3.112981
32
1.709092
13
-0.510536
23
3.104728
33
1.676961
0
3DFACE
8
coconut_palm6_coconuts
10
-0.508436
20
3.148528
30
1.699748
11
-0.505130
21
3.153638
31
1.733464
12
-0.514362
22
3.122855
32
1.741556
13
-0.519096
23
3.112981
33
1.709092
0
3DFACE
8
coconut_palm6_coconuts
10
-0.505130
20
3.153638
30
1.733464
11
-0.492271
21
3.149476
31
1.760981
12
-0.497601
22
3.131703
32
1.765653
13
-0.514362
23
3.122855
33
1.741556
0
3DFACE
8
coconut_palm6_coconuts
10
-0.492271
20
3.149476
30
1.760981
11
-0.473305
21
3.137155
31
1.774928
12
-0.497601
22
3.131703
32
1.765653
13
-0.497601
23
3.131703
33
1.765653
0
3DFACE
8
coconut_palm6_coconuts
10
-0.465653
20
3.100900
30
1.645740
11
-0.468904
21
3.127211
31
1.647530
12
-0.485644
22
3.118079
32
1.649101
13
-0.485644
23
3.118079
33
1.649101
0
3DFACE
8
coconut_palm6_coconuts
10
-0.468904
20
3.127211
30
1.647530
11
-0.472308
21
3.151330
31
1.666148
12
-0.501304
22
3.135511
32
1.668870
13
-0.485644
23
3.118079
33
1.649101
0
3DFACE
8
coconut_palm6_coconuts
10
-0.472308
20
3.151330
30
1.666148
11
-0.474955
21
3.166792
31
1.696606
12
-0.508436
22
3.148528
32
1.699748
13
-0.501304
23
3.135511
33
1.668870
0
3DFACE
8
coconut_palm6_coconuts
10
-0.474955
20
3.166792
30
1.696606
11
-0.476135
21
3.169457
31
1.730742
12
-0.505130
22
3.153638
32
1.733464
13
-0.508436
23
3.148528
33
1.699748
0
3DFACE
8
coconut_palm6_coconuts
10
-0.476135
20
3.169457
30
1.730742
11
-0.475530
21
3.158608
31
1.759410
12
-0.492271
22
3.149476
32
1.760981
13
-0.505130
23
3.153638
33
1.733464
0
3DFACE
8
coconut_palm6_coconuts
10
-0.475530
20
3.158608
30
1.759410
11
-0.473305
21
3.137155
31
1.774928
12
-0.492271
22
3.149476
32
1.760981
13
-0.492271
23
3.149476
33
1.760981
0
3DFACE
8
coconut_palm6_coconuts
10
-0.465653
20
3.100900
30
1.645740
11
-0.450559
21
3.122354
31
1.649980
12
-0.468904
22
3.127211
32
1.647530
13
-0.468904
23
3.127211
33
1.647530
0
3DFACE
8
coconut_palm6_coconuts
10
-0.450559
20
3.122354
30
1.649980
11
-0.440535
21
3.142916
31
1.670391
12
-0.472308
22
3.151330
32
1.666148
13
-0.468904
23
3.127211
33
1.647530
0
3DFACE
8
coconut_palm6_coconuts
10
-0.440535
20
3.142916
30
1.670391
11
-0.438266
21
3.157078
31
1.701505
12
-0.474955
22
3.166792
32
1.696606
13
-0.472308
23
3.151330
33
1.666148
0
3DFACE
8
coconut_palm6_coconuts
10
-0.438266
20
3.157078
30
1.701505
11
-0.444361
21
3.161043
31
1.734986
12
-0.476135
22
3.169457
32
1.730742
13
-0.474955
23
3.166792
33
1.696606
0
3DFACE
8
coconut_palm6_coconuts
10
-0.444361
20
3.161043
30
1.734986
11
-0.457186
21
3.153751
31
1.761860
12
-0.475530
22
3.158608
32
1.759410
13
-0.476135
23
3.169457
33
1.730742
0
3DFACE
8
coconut_palm6_coconuts
10
-0.457186
20
3.153751
30
1.761860
11
-0.473305
21
3.137155
31
1.774928
12
-0.475530
22
3.158608
32
1.759410
13
-0.475530
23
3.158608
33
1.759410
0
3DFACE
8
coconut_palm6_coconuts
10
-0.465653
20
3.100900
30
1.645740
11
-0.441357
21
3.106351
31
1.655016
12
-0.450559
22
3.122354
32
1.649980
13
-0.450559
23
3.122354
33
1.649980
0
3DFACE
8
coconut_palm6_coconuts
10
-0.441357
20
3.106351
30
1.655016
11
-0.424596
21
3.115200
31
1.679113
12
-0.440535
22
3.142916
32
1.670391
13
-0.450559
23
3.122354
33
1.649980
0
3DFACE
8
coconut_palm6_coconuts
10
-0.424596
20
3.115200
30
1.679113
11
-0.419861
21
3.125073
31
1.711577
12
-0.438266
22
3.157078
32
1.701505
13
-0.440535
23
3.142916
33
1.670391
0
3DFACE
8
coconut_palm6_coconuts
10
-0.419861
20
3.125073
30
1.711577
11
-0.428422
21
3.133326
31
1.743708
12
-0.444361
22
3.161043
32
1.734986
13
-0.438266
23
3.157078
33
1.701505
0
3DFACE
8
coconut_palm6_coconuts
10
-0.428422
20
3.133326
30
1.743708
11
-0.447983
21
3.137748
31
1.766896
12
-0.457186
22
3.153751
32
1.761860
13
-0.444361
23
3.161043
33
1.734986
0
3DFACE
8
coconut_palm6_coconuts
10
-0.447983
20
3.137748
30
1.766896
11
-0.473305
21
3.137155
31
1.774928
12
-0.457186
22
3.153751
32
1.761860
13
-0.457186
23
3.153751
33
1.761860
0
3DFACE
8
coconut_palm6_coconuts
10
-0.465653
20
3.100900
30
1.645740
11
-0.446687
21
3.088578
31
1.659688
12
-0.441357
22
3.106351
32
1.655016
13
-0.441357
23
3.106351
33
1.655016
0
3DFACE
8
coconut_palm6_coconuts
10
-0.446687
20
3.088578
30
1.659688
11
-0.433828
21
3.084415
31
1.687206
12
-0.424596
22
3.115200
32
1.679113
13
-0.441357
23
3.106351
33
1.655016
0
3DFACE
8
coconut_palm6_coconuts
10
-0.433828
20
3.084415
30
1.687206
11
-0.430521
21
3.089527
31
1.720920
12
-0.419861
22
3.125073
32
1.711577
13
-0.424596
23
3.115200
33
1.679113
0
3DFACE
8
coconut_palm6_coconuts
10
-0.430521
20
3.089527
30
1.720920
11
-0.437654
21
3.102543
31
1.751799
12
-0.428422
22
3.133326
32
1.743708
13
-0.419861
23
3.125073
33
1.711577
0
3DFACE
8
coconut_palm6_coconuts
10
-0.437654
20
3.102543
30
1.751799
11
-0.453314
21
3.119976
31
1.771567
12
-0.447983
22
3.137748
32
1.766896
13
-0.428422
23
3.133326
33
1.743708
0
3DFACE
8
coconut_palm6_coconuts
10
-0.453314
20
3.119976
30
1.771567
11
-0.473305
21
3.137155
31
1.774928
12
-0.447983
22
3.137748
32
1.766896
13
-0.447983
23
3.137748
33
1.766896
0
3DFACE
8
coconut_palm6_coconuts
10
-0.465653
20
3.100900
30
1.645740
11
-0.463427
21
3.079446
31
1.661259
12
-0.446687
22
3.088578
32
1.659688
13
-0.446687
23
3.088578
33
1.659688
0
3DFACE
8
coconut_palm6_coconuts
10
-0.463427
20
3.079446
30
1.661259
11
-0.462823
21
3.068597
31
1.689927
12
-0.433828
22
3.084415
32
1.687206
13
-0.446687
23
3.088578
33
1.659688
0
3DFACE
8
coconut_palm6_coconuts
10
-0.462823
20
3.068597
30
1.689927
11
-0.464002
21
3.071262
31
1.724063
12
-0.430521
22
3.089527
32
1.720920
13
-0.433828
23
3.084415
33
1.687206
0
3DFACE
8
coconut_palm6_coconuts
10
-0.464002
20
3.071262
30
1.724063
11
-0.466649
21
3.086725
31
1.754521
12
-0.437654
22
3.102543
32
1.751799
13
-0.430521
23
3.089527
33
1.720920
0
3DFACE
8
coconut_palm6_coconuts
10
-0.466649
20
3.086725
30
1.754521
11
-0.470054
21
3.110843
31
1.773139
12
-0.453314
22
3.119976
32
1.771567
13
-0.437654
23
3.102543
33
1.751799
0
3DFACE
8
coconut_palm6_coconuts
10
-0.470054
20
3.110843
30
1.773139
11
-0.473305
21
3.137155
31
1.774928
12
-0.453314
22
3.119976
32
1.771567
13
-0.453314
23
3.119976
33
1.771567
0
3DFACE
8
coconut_palm6_coconuts
10
-0.465653
20
3.100900
30
1.645740
11
-0.481772
21
3.084303
31
1.658809
12
-0.463427
22
3.079446
32
1.661259
13
-0.463427
23
3.079446
33
1.661259
0
3DFACE
8
coconut_palm6_coconuts
10
-0.481772
20
3.084303
30
1.658809
11
-0.494597
21
3.077011
31
1.685684
12
-0.462823
22
3.068597
32
1.689927
13
-0.463427
23
3.079446
33
1.661259
0
3DFACE
8
coconut_palm6_coconuts
10
-0.494597
20
3.077011
30
1.685684
11
-0.500691
21
3.080977
31
1.719163
12
-0.464002
22
3.071262
32
1.724063
13
-0.462823
23
3.068597
33
1.689927
0
3DFACE
8
coconut_palm6_coconuts
10
-0.500691
20
3.080977
30
1.719163
11
-0.498423
21
3.095138
31
1.750278
12
-0.466649
22
3.086725
32
1.754521
13
-0.464002
23
3.071262
33
1.724063
0
3DFACE
8
coconut_palm6_coconuts
10
-0.498423
20
3.095138
30
1.750278
11
-0.488399
21
3.115701
31
1.770689
12
-0.470054
22
3.110843
32
1.773139
13
-0.466649
23
3.086725
33
1.754521
0
3DFACE
8
coconut_palm6_coconuts
10
-0.488399
20
3.115701
30
1.770689
11
-0.473305
21
3.137155
31
1.774928
12
-0.470054
22
3.110843
32
1.773139
13
-0.470054
23
3.110843
33
1.773139
0
3DFACE
8
coconut_palm6_coconuts
10
-0.465653
20
3.100900
30
1.645740
11
-0.490974
21
3.100306
31
1.653773
12
-0.481772
22
3.084303
32
1.658809
13
-0.481772
23
3.084303
33
1.658809
0
3DFACE
8
coconut_palm6_coconuts
10
-0.490974
20
3.100306
30
1.653773
11
-0.510536
21
3.104728
31
1.676961
12
-0.494597
22
3.077011
32
1.685684
13
-0.481772
23
3.084303
33
1.658809
0
3DFACE
8
coconut_palm6_coconuts
10
-0.510536
20
3.104728
30
1.676961
11
-0.519096
21
3.112981
31
1.709092
12
-0.500691
22
3.080977
32
1.719163
13
-0.494597
23
3.077011
33
1.685684
0
3DFACE
8
coconut_palm6_coconuts
10
-0.519096
20
3.112981
30
1.709092
11
-0.514362
21
3.122855
31
1.741556
12
-0.498423
22
3.095138
32
1.750278
13
-0.500691
23
3.080977
33
1.719163
0
3DFACE
8
coconut_palm6_coconuts
10
-0.514362
20
3.122855
30
1.741556
11
-0.497601
21
3.131703
31
1.765653
12
-0.488399
22
3.115701
32
1.770689
13
-0.498423
23
3.095138
33
1.750278
0
3DFACE
8
coconut_palm6_coconuts
10
-0.497601
20
3.131703
30
1.765653
11
-0.473305
21
3.137155
31
1.774928
12
-0.488399
22
3.115701
32
1.770689
13
-0.488399
23
3.115701
33
1.770689
0
ENDSEC
0
EOF
