999
DXF file generated by Cheetah3D
0
SECTION
2
ENTITIES
0
3DFACE
8
coconut_palm3_trunk
10
0.008051
20
0.153625
30
0.000000
11
0.095342
21
0.117738
31
0.000000
12
0.064600
22
0.078659
32
0.499913
13
0.006119
23
0.101091
33
0.500013
0
3DFACE
8
coconut_palm3_trunk
10
0.095342
20
0.117738
30
0.000000
11
0.141321
21
0.037867
31
0.000000
12
0.119665
22
0.031736
32
0.499813
13
0.064600
23
0.078659
33
0.499913
0
3DFACE
8
coconut_palm3_trunk
10
0.141321
20
0.037867
30
0.000000
11
0.169251
21
-0.064969
31
0.000000
12
0.092495
22
-0.035302
32
0.499842
13
0.119665
23
0.031736
33
0.499813
0
3DFACE
8
coconut_palm3_trunk
10
0.169251
20
-0.064969
30
0.000000
11
0.078780
21
-0.121311
31
0.000000
12
0.053742
22
-0.081611
32
0.499895
13
0.092495
23
-0.035302
33
0.499842
0
3DFACE
8
coconut_palm3_trunk
10
0.078780
20
-0.121311
30
0.000000
11
-0.008339
21
-0.159114
31
0.000000
12
-0.005225
22
-0.115359
32
0.499984
13
0.053742
23
-0.081611
33
0.499895
0
3DFACE
8
coconut_palm3_trunk
10
-0.008339
20
-0.159114
30
0.000000
11
-0.097289
21
-0.120141
31
0.000000
12
-0.073856
22
-0.092320
32
0.500101
13
-0.005225
23
-0.115359
33
0.499984
0
3DFACE
8
coconut_palm3_trunk
10
-0.097289
20
-0.120141
30
0.000000
11
-0.158642
21
-0.042508
31
0.000000
12
-0.091985
22
-0.024975
32
0.500145
13
-0.073856
23
-0.092320
33
0.500101
0
3DFACE
8
coconut_palm3_trunk
10
-0.158642
20
-0.042508
30
0.000000
11
-0.148978
21
0.057187
31
0.000000
12
-0.101283
22
0.039082
32
0.500174
13
-0.091985
23
-0.024975
33
0.500145
0
3DFACE
8
coconut_palm3_trunk
10
-0.148978
20
0.057187
30
0.000000
11
-0.090923
21
0.140009
31
0.000000
12
-0.062466
22
0.097335
32
0.500124
13
-0.101283
23
0.039082
33
0.500174
0
3DFACE
8
coconut_palm3_trunk
10
-0.090923
20
0.140009
30
0.000000
11
0.008051
21
0.153625
31
0.000000
12
0.006119
22
0.101091
32
0.500013
13
-0.062466
23
0.097335
33
0.500124
0
3DFACE
8
coconut_palm3_trunk
10
0.006119
20
0.101091
30
0.500013
11
0.064600
21
0.078659
31
0.499913
12
0.066771
22
0.214940
32
0.998188
13
0.014416
23
0.255718
33
0.997859
0
3DFACE
8
coconut_palm3_trunk
10
0.064600
20
0.078659
30
0.499913
11
0.119665
21
0.031736
31
0.499813
12
0.102159
22
0.168123
32
0.998606
13
0.066771
23
0.214940
33
0.998188
0
3DFACE
8
coconut_palm3_trunk
10
0.119665
20
0.031736
30
0.499813
11
0.092495
21
-0.035302
31
0.499842
12
0.119318
22
0.100569
32
0.999261
13
0.102159
23
0.168123
33
0.998606
0
3DFACE
8
coconut_palm3_trunk
10
0.092495
20
-0.035302
30
0.499842
11
0.053742
21
-0.081611
31
0.499895
12
0.066477
22
0.053931
32
0.999814
13
0.119318
23
0.100569
33
0.999261
0
3DFACE
8
coconut_palm3_trunk
10
0.053742
20
-0.081611
30
0.499895
11
-0.005225
21
-0.115359
31
0.499984
12
0.002869
22
0.035395
32
1.000100
13
0.066477
23
0.053931
33
0.999814
0
3DFACE
8
coconut_palm3_trunk
10
-0.005225
20
-0.115359
30
0.499984
11
-0.073856
21
-0.092320
31
0.500101
12
-0.057278
22
0.061971
32
0.999923
13
0.002869
23
0.035395
33
1.000100
0
3DFACE
8
coconut_palm3_trunk
10
-0.073856
20
-0.092320
30
0.500101
11
-0.091985
21
-0.024975
31
0.500145
12
-0.101508
22
0.113701
32
0.999468
13
-0.057278
23
0.061971
33
0.999923
0
3DFACE
8
coconut_palm3_trunk
10
-0.091985
20
-0.024975
30
0.500145
11
-0.101283
21
0.039082
31
0.500174
12
-0.097580
22
0.183824
32
0.998754
13
-0.101508
23
0.113701
33
0.999468
0
3DFACE
8
coconut_palm3_trunk
10
-0.101283
20
0.039082
30
0.500174
11
-0.062466
21
0.097335
31
0.500124
12
-0.052915
22
0.237599
32
0.998144
13
-0.097580
23
0.183824
33
0.998754
0
3DFACE
8
coconut_palm3_trunk
10
-0.062466
20
0.097335
30
0.500124
11
0.006119
21
0.101091
31
0.500013
12
0.014416
22
0.255718
32
0.997859
13
-0.052915
23
0.237599
33
0.998144
0
3DFACE
8
coconut_palm3_trunk
10
0.014416
20
0.255718
30
0.997859
11
0.066771
21
0.214940
31
0.998188
12
0.086235
22
0.414228
32
1.485449
13
0.026502
23
0.439414
33
1.484731
0
3DFACE
8
coconut_palm3_trunk
10
0.066771
20
0.214940
30
0.998188
11
0.102159
21
0.168123
31
0.998606
12
0.112295
22
0.358202
32
1.487508
13
0.086235
23
0.414228
33
1.485449
0
3DFACE
8
coconut_palm3_trunk
10
0.102159
20
0.168123
30
0.998606
11
0.119318
21
0.100569
31
0.999261
12
0.111552
22
0.299106
32
1.489803
13
0.112295
23
0.358202
33
1.487508
0
3DFACE
8
coconut_palm3_trunk
10
0.119318
20
0.100569
30
0.999261
11
0.066477
21
0.053931
31
0.999814
12
0.072486
22
0.254715
32
1.491694
13
0.111552
23
0.299106
33
1.489803
0
3DFACE
8
coconut_palm3_trunk
10
0.066477
20
0.053931
30
0.999814
11
0.002869
21
0.035395
31
1.000100
12
0.015543
22
0.230311
32
1.492888
13
0.072486
23
0.254715
33
1.491694
0
3DFACE
8
coconut_palm3_trunk
10
0.002869
20
0.035395
30
1.000100
11
-0.057278
21
0.061971
31
0.999923
12
-0.044348
22
0.253472
32
1.492248
13
0.015543
23
0.230311
33
1.492888
0
3DFACE
8
coconut_palm3_trunk
10
-0.057278
20
0.061971
30
0.999923
11
-0.101508
21
0.113701
31
0.999468
12
-0.082451
22
0.306346
32
1.490360
13
-0.044348
23
0.253472
33
1.492248
0
3DFACE
8
coconut_palm3_trunk
10
-0.101508
20
0.113701
30
0.999468
11
-0.097580
21
0.183824
31
0.998754
12
-0.061220
22
0.365442
32
1.487975
13
-0.082451
23
0.306346
33
1.490360
0
3DFACE
8
coconut_palm3_trunk
10
-0.097580
20
0.183824
30
0.998754
11
-0.052915
21
0.237599
31
0.998144
12
-0.032064
22
0.415394
32
1.485913
13
-0.061220
23
0.365442
33
1.487975
0
3DFACE
8
coconut_palm3_trunk
10
-0.052915
20
0.237599
30
0.998144
11
0.014416
21
0.255718
31
0.997859
12
0.026502
22
0.439414
32
1.484731
13
-0.032064
23
0.415394
33
1.485913
0
3DFACE
8
coconut_palm3_trunk
10
0.026502
20
0.439414
30
1.484731
11
0.086235
21
0.414228
31
1.485449
12
0.093637
22
0.612861
32
1.963472
13
0.032879
23
0.631811
33
1.962461
0
3DFACE
8
coconut_palm3_trunk
10
0.086235
20
0.414228
30
1.485449
11
0.112295
21
0.358202
31
1.487508
12
0.117227
22
0.555506
32
1.967049
13
0.093637
23
0.612861
33
1.963472
0
3DFACE
8
coconut_palm3_trunk
10
0.112295
20
0.358202
30
1.487508
11
0.111552
21
0.299106
31
1.489803
12
0.113779
22
0.498598
32
1.970686
13
0.117227
23
0.555506
33
1.967049
0
3DFACE
8
coconut_palm3_trunk
10
0.111552
20
0.299106
30
1.489803
11
0.072486
21
0.254715
31
1.491694
12
0.076808
22
0.456083
32
1.973516
13
0.113779
23
0.498598
33
1.970686
0
3DFACE
8
coconut_palm3_trunk
10
0.072486
20
0.254715
30
1.491694
11
0.015543
21
0.230311
31
1.492888
12
0.023006
22
0.443427
32
1.974496
13
0.076808
23
0.456083
33
1.973516
0
3DFACE
8
coconut_palm3_trunk
10
0.015543
20
0.230311
30
1.492888
11
-0.044348
21
0.253472
31
1.492248
12
-0.031391
22
0.458908
32
1.973684
13
0.023006
23
0.443427
33
1.974496
0
3DFACE
8
coconut_palm3_trunk
10
-0.044348
20
0.253472
30
1.492248
11
-0.082451
21
0.306346
31
1.490360
12
-0.055301
22
0.509433
32
1.970541
13
-0.031391
23
0.458908
33
1.973684
0
3DFACE
8
coconut_palm3_trunk
10
-0.082451
20
0.306346
30
1.490360
11
-0.061220
21
0.365442
31
1.487975
12
-0.066750
22
0.567706
32
1.966865
13
-0.055301
23
0.509433
33
1.970541
0
3DFACE
8
coconut_palm3_trunk
10
-0.061220
20
0.365442
30
1.487975
11
-0.032064
21
0.415394
31
1.485913
12
-0.023035
22
0.609343
32
1.964073
13
-0.066750
23
0.567706
33
1.966865
0
3DFACE
8
coconut_palm3_trunk
10
-0.032064
20
0.415394
30
1.485913
11
0.026502
21
0.439414
31
1.484731
12
0.032879
22
0.631811
32
1.962461
13
-0.023035
23
0.609343
33
1.964073
0
3DFACE
8
coconut_palm3_trunk
10
0.032879
20
0.631811
30
1.962461
11
0.093637
21
0.612861
31
1.963472
12
0.102261
22
0.814586
32
2.431346
13
0.054334
23
0.844482
33
2.428995
0
3DFACE
8
coconut_palm3_trunk
10
0.093637
20
0.612861
30
1.963472
11
0.117227
21
0.555506
31
1.967049
12
0.137628
22
0.773063
32
2.434885
13
0.102261
23
0.814586
33
2.431346
0
3DFACE
8
coconut_palm3_trunk
10
0.117227
20
0.555506
30
1.967049
11
0.113779
21
0.498598
31
1.970686
12
0.129480
22
0.718996
32
2.439968
13
0.137628
23
0.773063
33
2.434885
0
3DFACE
8
coconut_palm3_trunk
10
0.113779
20
0.498598
30
1.970686
11
0.076808
21
0.456083
31
1.973516
12
0.100542
22
0.671319
32
2.444642
13
0.129480
23
0.718996
33
2.439968
0
3DFACE
8
coconut_palm3_trunk
10
0.076808
20
0.456083
30
1.973516
11
0.023006
21
0.443427
31
1.974496
12
0.044671
22
0.660101
32
2.446173
13
0.100542
23
0.671319
33
2.444642
0
3DFACE
8
coconut_palm3_trunk
10
0.023006
20
0.443427
30
1.974496
11
-0.031391
21
0.458908
31
1.973684
12
-0.009268
22
0.677836
32
2.445002
13
0.044671
23
0.660101
33
2.446173
0
3DFACE
8
coconut_palm3_trunk
10
-0.031391
20
0.458908
30
1.973684
11
-0.055301
21
0.509433
31
1.970541
12
-0.050497
22
0.723336
32
2.441144
13
-0.009268
23
0.677836
33
2.445002
0
3DFACE
8
coconut_palm3_trunk
10
-0.055301
20
0.509433
30
1.970541
11
-0.066750
21
0.567706
31
1.966865
12
-0.046838
22
0.786646
32
2.435241
13
-0.050497
23
0.723336
33
2.441144
0
3DFACE
8
coconut_palm3_trunk
10
-0.066750
20
0.567706
30
1.966865
11
-0.023035
21
0.609343
31
1.964073
12
0.004405
22
0.818632
32
2.431827
13
-0.046838
23
0.786646
33
2.435241
0
3DFACE
8
coconut_palm3_trunk
10
-0.023035
20
0.609343
30
1.964073
11
0.032879
21
0.631811
31
1.962461
12
0.054334
22
0.844482
32
2.428995
13
0.004405
23
0.818632
33
2.431827
0
3DFACE
8
coconut_palm3_trunk
10
0.054334
20
0.844482
30
2.428995
11
0.102261
21
0.814586
31
2.431346
12
0.147381
22
1.025752
32
2.889418
13
0.090860
23
1.030637
33
2.889866
0
3DFACE
8
coconut_palm3_trunk
10
0.102261
20
0.814586
30
2.431346
11
0.137628
21
0.773063
31
2.434885
12
0.177411
22
0.975168
32
2.894552
13
0.147381
23
1.025752
33
2.889418
0
3DFACE
8
coconut_palm3_trunk
10
0.137628
20
0.773063
30
2.434885
11
0.129480
21
0.718996
31
2.439968
12
0.173585
22
0.917804
32
2.901040
13
0.177411
23
0.975168
33
2.894552
0
3DFACE
8
coconut_palm3_trunk
10
0.129480
20
0.718996
30
2.439968
11
0.100542
21
0.671319
31
2.444642
12
0.135568
22
0.876360
32
2.906351
13
0.173585
23
0.917804
33
2.901040
0
3DFACE
8
coconut_palm3_trunk
10
0.100542
20
0.671319
30
2.444642
11
0.044671
21
0.660101
31
2.446173
12
0.082240
22
0.866168
32
2.908436
13
0.135568
23
0.876360
33
2.906351
0
3DFACE
8
coconut_palm3_trunk
10
0.044671
20
0.660101
30
2.446173
11
-0.009268
21
0.677836
31
2.445002
12
0.038832
22
0.892913
32
2.906210
13
0.082240
23
0.866168
33
2.908436
0
3DFACE
8
coconut_palm3_trunk
10
-0.009268
20
0.677836
30
2.445002
11
-0.050497
21
0.723336
31
2.441144
12
0.006715
22
0.930638
32
2.902552
13
0.038832
23
0.892913
33
2.906210
0
3DFACE
8
coconut_palm3_trunk
10
-0.050497
20
0.723336
30
2.441144
11
-0.046838
21
0.786646
31
2.435241
12
0.013909
22
0.979751
32
2.896923
13
0.006715
23
0.930638
33
2.902552
0
3DFACE
8
coconut_palm3_trunk
10
-0.046838
20
0.786646
30
2.435241
11
0.004405
21
0.818632
31
2.431827
12
0.041228
22
1.021466
32
2.891767
13
0.013909
23
0.979751
33
2.896923
0
3DFACE
8
coconut_palm3_trunk
10
0.004405
20
0.818632
30
2.431827
11
0.054334
21
0.844482
31
2.428995
12
0.090860
22
1.030637
32
2.889866
13
0.041228
23
1.021466
33
2.891767
0
3DFACE
8
coconut_palm3_trunk
10
0.090860
20
1.030637
30
2.889866
11
0.147381
21
1.025752
31
2.889418
12
0.148370
22
1.248047
32
3.337966
13
0.099341
23
1.272371
33
3.335385
0
3DFACE
8
coconut_palm3_trunk
10
0.147381
20
1.025752
30
2.889418
11
0.177411
21
0.975168
31
2.894552
12
0.169176
22
1.201873
32
3.344027
13
0.148370
23
1.248047
33
3.337966
0
3DFACE
8
coconut_palm3_trunk
10
0.177411
20
0.975168
30
2.894552
11
0.173585
21
0.917804
31
2.901040
12
0.163661
22
1.155778
32
3.350502
13
0.169176
23
1.201873
33
3.344027
0
3DFACE
8
coconut_palm3_trunk
10
0.173585
20
0.917804
30
2.901040
11
0.135568
21
0.876360
31
2.906351
12
0.139453
22
1.113730
32
3.356717
13
0.163661
23
1.155778
33
3.350502
0
3DFACE
8
coconut_palm3_trunk
10
0.135568
20
0.876360
30
2.906351
11
0.082240
21
0.866168
31
2.908436
12
0.089863
22
1.091515
32
3.360597
13
0.139453
23
1.113730
33
3.356717
0
3DFACE
8
coconut_palm3_trunk
10
0.082240
20
0.866168
30
2.908436
11
0.038832
21
0.892913
31
2.906210
12
0.038421
22
1.113767
32
3.358347
13
0.089863
23
1.091515
33
3.360597
0
3DFACE
8
coconut_palm3_trunk
10
0.038832
20
0.892913
30
2.906210
11
0.006715
21
0.930638
31
2.902552
12
0.023325
22
1.163796
32
3.351659
13
0.038421
23
1.113767
33
3.358347
0
3DFACE
8
coconut_palm3_trunk
10
0.006715
20
0.930638
30
2.902552
11
0.013909
21
0.979751
31
2.896923
12
0.014603
22
1.213282
32
3.344941
13
0.023325
23
1.163796
33
3.351659
0
3DFACE
8
coconut_palm3_trunk
10
0.013909
20
0.979751
30
2.896923
11
0.041228
21
1.021466
31
2.891767
12
0.047877
22
1.254037
32
3.338755
13
0.014603
23
1.213282
33
3.344941
0
3DFACE
8
coconut_palm3_trunk
10
0.041228
20
1.021466
30
2.891767
11
0.090860
21
1.030637
31
2.889866
12
0.099341
22
1.272371
32
3.335385
13
0.047877
23
1.254037
33
3.338755
0
3DFACE
8
coconut_palm3_trunk
10
0.099341
20
1.272371
30
3.335385
11
0.148370
21
1.248047
31
3.337966
12
0.215504
22
1.485220
32
3.773035
13
0.170104
23
1.493634
33
3.773018
0
3DFACE
8
coconut_palm3_trunk
10
0.148370
20
1.248047
30
3.337966
11
0.169176
21
1.201873
31
3.344027
12
0.251357
22
1.447436
32
3.778214
13
0.215504
23
1.485220
33
3.773035
0
3DFACE
8
coconut_palm3_trunk
10
0.169176
20
1.201873
30
3.344027
11
0.163661
21
1.155778
31
3.350502
12
0.230646
22
1.400884
32
3.786567
13
0.251357
23
1.447436
33
3.778214
0
3DFACE
8
coconut_palm3_trunk
10
0.163661
20
1.155778
30
3.350502
11
0.139453
21
1.113730
31
3.356717
12
0.214425
22
1.352572
32
3.795076
13
0.230646
23
1.400884
33
3.786567
0
3DFACE
8
coconut_palm3_trunk
10
0.139453
20
1.113730
30
3.356717
11
0.089863
21
1.091515
31
3.360597
12
0.163019
22
1.358449
32
3.795671
13
0.214425
23
1.352572
33
3.795076
0
3DFACE
8
coconut_palm3_trunk
10
0.089863
20
1.091515
30
3.360597
11
0.038421
21
1.113767
31
3.358347
12
0.112241
22
1.360255
32
3.796923
13
0.163019
23
1.358449
33
3.795671
0
3DFACE
8
coconut_palm3_trunk
10
0.038421
20
1.113767
30
3.358347
11
0.023325
21
1.163796
31
3.351659
12
0.099585
22
1.409050
32
3.789207
13
0.112241
23
1.360255
33
3.796923
0
3DFACE
8
coconut_palm3_trunk
10
0.023325
20
1.163796
30
3.351659
11
0.014603
21
1.213282
31
3.344941
12
0.095941
22
1.453651
32
3.781912
13
0.099585
23
1.409050
33
3.789207
0
3DFACE
8
coconut_palm3_trunk
10
0.014603
20
1.213282
30
3.344941
11
0.047877
21
1.254037
31
3.338755
12
0.129425
22
1.482942
32
3.776029
13
0.095941
23
1.453651
33
3.781912
0
3DFACE
8
coconut_palm3_trunk
10
0.047877
20
1.254037
30
3.338755
11
0.099341
21
1.272371
31
3.335385
12
0.170104
22
1.493634
32
3.773018
13
0.129425
23
1.482942
33
3.776029
0
3DFACE
8
coconut_palm3_trunk
10
0.170104
20
1.493634
30
3.773018
11
0.215504
21
1.485220
31
3.773035
12
0.195218
22
1.730082
32
4.202029
13
0.125978
23
1.779894
33
4.193988
0
3DFACE
8
coconut_palm3_trunk
10
0.215504
20
1.485220
30
3.773035
11
0.251357
21
1.447436
31
3.778214
12
0.261482
22
1.673899
32
4.211285
13
0.195218
23
1.730082
33
4.202029
0
3DFACE
8
coconut_palm3_trunk
10
0.251357
20
1.447436
30
3.778214
11
0.230646
21
1.400884
31
3.786567
12
0.247509
22
1.587080
32
4.227492
13
0.261482
23
1.673899
33
4.211285
0
3DFACE
8
coconut_palm3_trunk
10
0.230646
20
1.400884
30
3.786567
11
0.214425
21
1.352572
31
3.795076
12
0.190687
22
1.526422
32
4.239586
13
0.247509
23
1.587080
33
4.227492
0
3DFACE
8
coconut_palm3_trunk
10
0.214425
20
1.352572
30
3.795076
11
0.163019
21
1.358449
31
3.795671
12
0.112109
22
1.515266
32
4.242936
13
0.190687
23
1.526422
33
4.239586
0
3DFACE
8
coconut_palm3_trunk
10
0.163019
20
1.358449
30
3.795671
11
0.112241
21
1.360255
31
3.796923
12
0.046117
22
1.548502
32
4.237913
13
0.112109
23
1.515266
33
4.242936
0
3DFACE
8
coconut_palm3_trunk
10
0.112241
20
1.360255
30
3.796923
11
0.099585
21
1.409050
31
3.789207
12
0.006096
22
1.607317
32
4.227750
13
0.046117
23
1.548502
33
4.237913
0
3DFACE
8
coconut_palm3_trunk
10
0.099585
20
1.409050
30
3.789207
11
0.095941
21
1.453651
31
3.781912
12
0.006734
22
1.679504
32
4.214447
13
0.006096
23
1.607317
33
4.227750
0
3DFACE
8
coconut_palm3_trunk
10
0.095941
20
1.453651
30
3.781912
11
0.129425
21
1.482942
31
3.776029
12
0.046016
22
1.747158
32
4.201336
13
0.006734
23
1.679504
33
4.214447
0
3DFACE
8
coconut_palm3_trunk
10
0.129425
20
1.482942
30
3.776029
11
0.170104
21
1.493634
31
3.773018
12
0.125978
22
1.779894
32
4.193988
13
0.046016
23
1.747158
33
4.201336
0
3DFACE
8
coconut_palm3_trunk
10
0.125978
20
1.779894
30
4.193988
11
0.195218
21
1.730082
31
4.202029
12
0.168371
22
1.867837
32
4.642906
13
0.161710
23
1.871735
33
4.642259
0
3DFACE
8
coconut_palm3_trunk
10
0.195218
20
1.730082
30
4.202029
11
0.261482
21
1.673899
31
4.211285
12
0.171597
22
1.861657
32
4.644098
13
0.168371
23
1.867837
33
4.642906
0
3DFACE
8
coconut_palm3_trunk
10
0.261482
20
1.673899
30
4.211285
11
0.247509
21
1.587080
31
4.227492
12
0.171597
22
1.854858
32
4.645491
13
0.171597
23
1.861657
33
4.644098
0
3DFACE
8
coconut_palm3_trunk
10
0.247509
20
1.587080
30
4.227492
11
0.190687
21
1.526422
31
4.239586
12
0.168057
22
1.848222
32
4.646929
13
0.171597
23
1.854858
33
4.645491
0
3DFACE
8
coconut_palm3_trunk
10
0.190687
20
1.526422
30
4.239586
11
0.112109
21
1.515266
31
4.242936
12
0.160481
22
1.848278
32
4.647089
13
0.168057
23
1.848222
33
4.646929
0
3DFACE
8
coconut_palm3_trunk
10
0.112109
20
1.515266
30
4.242936
11
0.046117
21
1.548502
31
4.237913
12
0.154655
22
1.851190
32
4.646625
13
0.160481
23
1.848278
33
4.647089
0
3DFACE
8
coconut_palm3_trunk
10
0.046117
20
1.548502
30
4.237913
11
0.006096
21
1.607317
31
4.227750
12
0.149958
22
1.856086
32
4.645728
13
0.154655
23
1.851190
33
4.646625
0
3DFACE
8
coconut_palm3_trunk
10
0.006096
20
1.607317
30
4.227750
11
0.006734
21
1.679504
31
4.214447
12
0.151067
22
1.862794
32
4.644330
13
0.149958
23
1.856086
33
4.645728
0
3DFACE
8
coconut_palm3_trunk
10
0.006734
20
1.679504
30
4.214447
11
0.046016
21
1.747158
31
4.201336
12
0.155092
22
1.868024
32
4.643168
13
0.151067
23
1.862794
33
4.644330
0
3DFACE
8
coconut_palm3_trunk
10
0.046016
20
1.747158
30
4.201336
11
0.125978
21
1.779894
31
4.193988
12
0.161710
22
1.871735
32
4.642259
13
0.155092
23
1.868024
33
4.643168
0
3DFACE
8
coconut_palm3_trunk
10
0.161710
20
1.871735
30
4.642259
11
0.168371
21
1.867837
31
4.642906
12
0.161258
22
1.859068
32
4.644862
13
0.161258
23
1.859068
33
4.644862
0
3DFACE
8
coconut_palm3_trunk
10
0.168371
20
1.867837
30
4.642906
11
0.171597
21
1.861657
31
4.644098
12
0.161258
22
1.859068
32
4.644862
13
0.161258
23
1.859068
33
4.644862
0
3DFACE
8
coconut_palm3_trunk
10
0.171597
20
1.861657
30
4.644098
11
0.171597
21
1.854858
31
4.645491
12
0.161258
22
1.859068
32
4.644862
13
0.161258
23
1.859068
33
4.644862
0
3DFACE
8
coconut_palm3_trunk
10
0.171597
20
1.854858
30
4.645491
11
0.168057
21
1.848222
31
4.646929
12
0.161258
22
1.859068
32
4.644862
13
0.161258
23
1.859068
33
4.644862
0
3DFACE
8
coconut_palm3_trunk
10
0.168057
20
1.848222
30
4.646929
11
0.160481
21
1.848278
31
4.647089
12
0.161258
22
1.859068
32
4.644862
13
0.161258
23
1.859068
33
4.644862
0
3DFACE
8
coconut_palm3_trunk
10
0.160481
20
1.848278
30
4.647089
11
0.154655
21
1.851190
31
4.646625
12
0.161258
22
1.859068
32
4.644862
13
0.161258
23
1.859068
33
4.644862
0
3DFACE
8
coconut_palm3_trunk
10
0.154655
20
1.851190
30
4.646625
11
0.149958
21
1.856086
31
4.645728
12
0.161258
22
1.859068
32
4.644862
13
0.161258
23
1.859068
33
4.644862
0
3DFACE
8
coconut_palm3_trunk
10
0.149958
20
1.856086
30
4.645728
11
0.151067
21
1.862794
31
4.644330
12
0.161258
22
1.859068
32
4.644862
13
0.161258
23
1.859068
33
4.644862
0
3DFACE
8
coconut_palm3_trunk
10
0.151067
20
1.862794
30
4.644330
11
0.155092
21
1.868024
31
4.643168
12
0.161258
22
1.859068
32
4.644862
13
0.161258
23
1.859068
33
4.644862
0
3DFACE
8
coconut_palm3_trunk
10
0.155092
20
1.868024
30
4.643168
11
0.161710
21
1.871735
31
4.642259
12
0.161258
22
1.859068
32
4.644862
13
0.161258
23
1.859068
33
4.644862
0
3DFACE
8
coconut_palm3_leaves
10
0.201871
20
2.562551
30
5.054045
11
0.267674
21
2.762103
31
4.787571
12
0.303393
22
3.162539
32
5.016574
13
0.237813
23
2.967261
33
5.283013
0
3DFACE
8
coconut_palm3_leaves
10
0.160972
20
2.133308
30
4.851599
11
0.226970
21
2.336577
31
4.584288
12
0.267674
22
2.762103
32
4.787571
13
0.201871
23
2.562551
33
5.054045
0
3DFACE
8
coconut_palm3_leaves
10
0.117480
20
1.692674
30
4.659935
11
0.183657
21
1.899373
31
4.391339
12
0.226970
22
2.336577
32
4.584288
13
0.160972
23
2.133308
33
4.851599
0
3DFACE
8
coconut_palm3_leaves
10
0.234745
20
2.661800
30
4.920080
11
0.024888
21
2.689494
31
4.913779
12
0.058852
22
3.081976
32
5.156896
13
0.270575
23
3.064364
33
5.149075
0
3DFACE
8
coconut_palm3_leaves
10
0.442830
20
2.625095
30
4.941648
11
0.234745
21
2.661800
31
4.920080
12
0.270575
22
3.064364
32
5.149075
13
0.476596
23
3.015713
33
5.184319
0
3DFACE
8
coconut_palm3_leaves
10
0.193944
20
2.234421
30
4.717209
11
-0.015235
21
2.265352
31
4.704465
12
0.024888
22
2.689494
32
4.913779
13
0.234745
23
2.661800
33
4.920080
0
3DFACE
8
coconut_palm3_leaves
10
0.402843
20
2.202145
30
4.732623
11
0.193944
21
2.234421
31
4.717209
12
0.234745
22
2.661800
32
4.920080
13
0.442830
23
2.625095
33
4.941648
0
3DFACE
8
coconut_palm3_leaves
10
0.150541
20
1.795507
30
4.524895
11
-0.058528
21
1.826898
31
4.510795
12
-0.015235
22
2.265352
32
4.704465
13
0.193944
23
2.234421
33
4.717209
0
3DFACE
8
coconut_palm3_leaves
10
0.359611
20
1.764126
30
4.539018
11
0.150541
21
1.795507
31
4.524895
12
0.193944
22
2.234421
32
4.717209
13
0.402843
23
2.202145
33
4.732623
0
3DFACE
8
coconut_palm3_leaves
10
0.628122
20
2.171044
30
4.015421
11
0.481503
21
1.913175
31
3.940862
12
0.371292
22
1.478795
32
3.412965
13
0.517786
23
1.734290
33
3.499242
0
3DFACE
8
coconut_palm3_leaves
10
0.451228
20
2.119871
30
4.326074
11
0.304533
21
1.860555
31
4.255320
12
0.481503
22
1.913175
32
3.940862
13
0.628122
23
2.171044
33
4.015421
0
3DFACE
8
coconut_palm3_leaves
10
0.211181
20
1.850786
30
4.416534
11
0.064457
21
1.590901
31
4.344146
12
0.304533
22
1.860555
32
4.255320
13
0.451228
23
2.119871
33
4.326074
0
3DFACE
8
coconut_palm3_leaves
10
0.554811
20
2.042083
30
3.978607
11
0.369961
21
2.080799
31
3.896646
12
0.129723
22
1.489558
32
3.394982
13
0.444537
23
1.606498
33
3.456568
0
3DFACE
8
coconut_palm3_leaves
10
0.676489
20
1.855296
30
3.950058
11
0.554811
21
2.042083
31
3.978607
12
0.444537
22
1.606498
32
3.456568
13
0.440593
23
1.262577
33
3.430720
0
3DFACE
8
coconut_palm3_leaves
10
0.377880
20
1.990194
30
4.291162
11
0.225850
21
2.095692
31
4.248363
12
0.369961
22
2.080799
32
3.896646
13
0.554811
23
2.042083
33
3.978607
0
3DFACE
8
coconut_palm3_leaves
10
0.527079
20
1.866624
30
4.310301
11
0.377880
21
1.990194
31
4.291162
12
0.554811
22
2.042083
32
3.978607
13
0.676489
23
1.855296
33
3.950058
0
3DFACE
8
coconut_palm3_leaves
10
0.137818
20
1.720824
30
4.380807
11
-0.011322
21
1.837016
31
4.349079
12
0.225850
22
2.095692
32
4.248363
13
0.377880
23
1.990194
33
4.291162
0
3DFACE
8
coconut_palm3_leaves
10
0.286960
20
1.604660
30
4.412649
11
0.137818
21
1.720824
31
4.380807
12
0.377880
22
1.990194
32
4.291162
13
0.527079
23
1.866624
33
4.310301
0
3DFACE
8
coconut_palm3_leaves
10
0.798404
20
2.431039
30
4.732549
11
0.882142
21
2.243927
31
4.385386
12
1.242829
22
2.510926
32
4.389528
13
1.159086
23
2.697964
33
4.729751
0
3DFACE
8
coconut_palm3_leaves
10
0.447067
20
2.145648
30
4.695163
11
0.530848
21
1.959339
31
4.340420
12
0.882142
22
2.243927
32
4.385386
13
0.798404
23
2.431039
33
4.732549
0
3DFACE
8
coconut_palm3_leaves
10
0.102163
20
1.850676
30
4.632010
11
0.186016
21
1.665739
31
4.269345
12
0.530848
22
1.959339
32
4.340420
13
0.447067
23
2.145648
33
4.695163
0
3DFACE
8
coconut_palm3_leaves
10
0.840224
20
2.336553
30
4.559772
11
0.724010
21
2.509960
31
4.507364
12
1.087169
22
2.769301
32
4.493822
13
1.200910
23
2.603536
33
4.560443
0
3DFACE
8
coconut_palm3_leaves
10
0.960389
20
2.156818
30
4.598244
11
0.840224
21
2.336553
31
4.559772
12
1.200910
22
2.603536
32
4.560443
13
1.324255
23
2.416947
33
4.585593
0
3DFACE
8
coconut_palm3_leaves
10
0.488907
20
2.051540
30
4.518594
11
0.371330
21
2.228071
31
4.472986
12
0.724010
22
2.509960
32
4.507364
13
0.840224
23
2.336553
33
4.559772
0
3DFACE
8
coconut_palm3_leaves
10
0.607227
20
1.874053
30
4.561952
11
0.488907
21
2.051540
31
4.518594
12
0.840224
22
2.336553
32
4.559772
13
0.960389
23
2.156818
33
4.598244
0
3DFACE
8
coconut_palm3_leaves
10
0.144038
20
1.757229
30
4.451477
11
0.026221
21
1.934665
31
4.408292
12
0.371330
22
2.228071
32
4.472986
13
0.488907
23
2.051540
33
4.518594
0
3DFACE
8
coconut_palm3_leaves
10
0.261858
20
1.579823
30
4.494793
11
0.144038
21
1.757229
31
4.451477
12
0.488907
22
2.051540
32
4.518594
13
0.607227
23
1.874053
33
4.561952
0
3DFACE
8
coconut_palm3_leaves
10
-0.006331
20
2.005746
30
5.525957
11
-0.424369
21
1.562400
31
5.389432
12
-0.534047
22
1.710789
32
5.882020
13
-0.115812
23
2.157908
33
6.004855
0
3DFACE
8
coconut_palm3_leaves
10
0.162612
20
1.983831
30
5.075512
11
-0.255215
21
1.544506
31
4.928589
12
-0.424369
22
1.562400
32
5.389432
13
-0.006331
23
2.005746
33
5.525957
0
3DFACE
8
coconut_palm3_leaves
10
0.363965
20
2.040528
30
4.652718
11
-0.053648
21
1.605276
31
4.497458
12
-0.255215
22
1.544506
32
4.928589
13
0.162612
23
1.983831
33
5.075512
0
3DFACE
8
coconut_palm3_leaves
10
-0.215353
20
1.784022
30
5.459277
11
-0.014252
21
1.575399
31
5.481814
12
-0.096139
22
1.784318
32
5.989962
13
-0.324930
23
1.934344
33
5.945022
0
3DFACE
8
coconut_palm3_leaves
10
-0.387967
20
2.051299
30
5.453685
11
-0.215353
21
1.784022
31
5.459277
12
-0.324930
22
1.934344
32
5.945022
13
-0.464438
23
2.257161
33
5.931935
0
3DFACE
8
coconut_palm3_leaves
10
-0.046306
20
1.764080
30
5.003631
11
0.144996
21
1.530985
31
5.008011
12
-0.014252
22
1.575399
32
5.481814
13
-0.215353
23
1.784022
33
5.459277
0
3DFACE
8
coconut_palm3_leaves
10
-0.233076
20
2.006747
30
5.001736
11
-0.046306
21
1.764080
31
5.003631
12
-0.215353
22
1.784022
32
5.459277
13
-0.387967
23
2.051299
33
5.453685
0
3DFACE
8
coconut_palm3_leaves
10
0.155152
20
1.822780
30
4.576665
11
0.345383
21
1.585334
31
4.571768
12
0.144996
22
1.530985
32
5.008011
13
-0.046306
23
1.764080
33
5.003631
0
3DFACE
8
coconut_palm3_leaves
10
-0.035085
20
2.060091
30
4.580176
11
0.155152
21
1.822780
31
4.576665
12
-0.046306
22
1.764080
32
5.003631
13
-0.233076
23
2.006747
33
5.001736
0
3DFACE
8
coconut_palm3_leaves
10
1.231154
20
2.768362
30
5.022473
11
1.150937
21
2.456452
31
4.645957
12
1.676176
22
2.504357
32
4.244302
13
1.755884
23
2.806573
33
4.623709
0
3DFACE
8
coconut_palm3_leaves
10
0.653119
20
2.436198
30
5.055299
11
0.572853
21
2.123353
31
4.668187
12
1.150937
22
2.456452
32
4.645957
13
1.231154
23
2.768362
33
5.022473
0
3DFACE
8
coconut_palm3_leaves
10
0.200139
20
2.007038
30
4.831688
11
0.120152
21
1.699504
31
4.428306
12
0.572853
22
2.123353
32
4.668187
13
0.653119
23
2.436198
33
5.055299
0
3DFACE
8
coconut_palm3_leaves
10
1.190988
20
2.611309
30
4.835990
11
1.070368
21
2.818980
31
4.659669
12
1.406636
22
2.685473
32
4.161940
13
1.715971
23
2.654341
33
4.435752
0
3DFACE
8
coconut_palm3_leaves
10
1.364469
20
2.278754
30
4.786137
11
1.190988
21
2.611309
31
4.835990
12
1.715971
22
2.654341
32
4.435752
13
1.700269
23
2.141397
33
4.271775
0
3DFACE
8
coconut_palm3_leaves
10
0.612927
20
2.278639
30
4.863523
11
0.478437
21
2.543032
31
4.780295
12
1.070368
22
2.818980
32
4.659669
13
1.190988
23
2.611309
33
4.835990
0
3DFACE
8
coconut_palm3_leaves
10
0.772777
20
2.003317
30
4.908237
11
0.612927
21
2.278639
31
4.863523
12
1.190988
22
2.611309
32
4.835990
13
1.364469
23
2.278754
33
4.786137
0
3DFACE
8
coconut_palm3_leaves
10
0.160083
20
1.852066
30
4.631762
11
0.012921
21
2.123000
31
4.572573
12
0.478437
22
2.543032
32
4.780295
13
0.612927
23
2.278639
33
4.863523
0
3DFACE
8
coconut_palm3_leaves
10
0.307244
20
1.581129
30
4.690942
11
0.160083
21
1.852066
31
4.631762
12
0.612927
22
2.278639
32
4.863523
13
0.772777
23
2.003317
33
4.908237
0
3DFACE
8
coconut_palm3_leaves
10
0.481696
20
2.478047
30
4.717621
11
0.547990
21
2.382462
31
4.448011
12
0.722820
22
2.701660
32
4.491396
13
0.656561
23
2.797895
33
4.755155
0
3DFACE
8
coconut_palm3_leaves
10
0.302236
20
2.167378
30
4.702946
11
0.368543
21
2.072059
31
4.427682
12
0.547990
22
2.382462
32
4.448011
13
0.481696
23
2.478047
33
4.717621
0
3DFACE
8
coconut_palm3_leaves
10
0.120611
20
1.862608
30
4.700917
11
0.186921
21
1.767346
31
4.420126
12
0.368543
22
2.072059
32
4.427682
13
0.302236
23
2.167378
33
4.702946
0
3DFACE
8
coconut_palm3_leaves
10
0.514814
20
2.429689
30
4.583075
11
0.375199
21
2.520116
31
4.560084
12
0.548740
22
2.842237
32
4.607583
13
0.689661
23
2.749225
33
4.623536
0
3DFACE
8
coconut_palm3_leaves
10
0.653245
20
2.342205
30
4.613919
11
0.514814
21
2.429689
31
4.583075
12
0.689661
22
2.749225
32
4.623536
13
0.826313
23
2.663816
33
4.662321
0
3DFACE
8
coconut_palm3_leaves
10
0.335359
20
2.119140
30
4.565572
11
0.196092
21
2.208207
31
4.539657
12
0.375199
22
2.520116
32
4.560084
13
0.514814
23
2.429689
33
4.583075
0
3DFACE
8
coconut_palm3_leaves
10
0.474457
20
2.030626
30
4.592890
11
0.335359
21
2.119140
31
4.565572
12
0.514814
22
2.429689
32
4.583075
13
0.653245
23
2.342205
33
4.613919
0
3DFACE
8
coconut_palm3_leaves
10
0.153735
20
1.814386
30
4.560779
11
0.014475
21
1.903133
31
4.534413
12
0.196092
22
2.208207
32
4.539657
13
0.335359
23
2.119140
33
4.565572
0
3DFACE
8
coconut_palm3_leaves
10
0.292997
20
1.725662
30
4.587224
11
0.153735
21
1.814386
31
4.560779
12
0.335359
22
2.119140
32
4.565572
13
0.474457
23
2.030626
33
4.592890
0
3DFACE
8
coconut_palm3_leaves
10
-0.554417
20
1.000414
30
3.829040
11
-0.231689
21
1.228489
31
3.775618
12
0.064837
22
1.057271
32
3.208228
13
-0.257976
23
0.827561
33
3.253520
0
3DFACE
8
coconut_palm3_leaves
10
-0.387952
20
1.336814
30
4.275685
11
-0.065307
21
1.563307
31
4.215499
12
-0.231689
22
1.228489
32
3.775618
13
-0.554417
23
1.000414
33
3.829040
0
3DFACE
8
coconut_palm3_leaves
10
-0.014880
20
1.658471
30
4.510491
11
0.307711
21
1.883933
31
4.446319
12
-0.065307
22
1.563307
32
4.215499
13
-0.387952
23
1.336814
33
4.275685
0
3DFACE
8
coconut_palm3_leaves
10
-0.393053
20
1.114444
30
3.802287
11
-0.145481
21
0.906883
31
3.748849
12
0.353229
22
0.886594
32
3.284604
13
-0.096570
23
0.942409
33
3.230832
0
3DFACE
8
coconut_palm3_leaves
10
-0.454126
20
1.344208
30
3.740761
11
-0.393053
21
1.114444
31
3.802287
12
-0.096570
22
0.942409
32
3.230832
13
0.037465
23
1.287087
33
3.223706
0
3DFACE
8
coconut_palm3_leaves
10
-0.226630
20
1.450050
30
4.245551
11
-0.076057
21
1.210959
31
4.224447
12
-0.145481
22
0.906883
32
3.748849
13
-0.393053
23
1.114444
33
3.802287
0
3DFACE
8
coconut_palm3_leaves
10
-0.353853
20
1.682542
30
4.236382
11
-0.226630
21
1.450050
31
4.245551
12
-0.393053
22
1.114444
32
3.802287
13
-0.454126
23
1.344208
33
3.740761
0
3DFACE
8
coconut_palm3_leaves
10
0.146415
20
1.771192
30
4.478364
11
0.274731
21
1.526809
31
4.470935
12
-0.076057
22
1.210959
32
4.224447
13
-0.226630
23
1.450050
33
4.245551
0
3DFACE
8
coconut_palm3_leaves
10
0.018092
20
2.015438
30
4.484260
11
0.146415
21
1.771192
31
4.478364
12
-0.226630
22
1.450050
32
4.245551
13
-0.353853
23
1.682542
33
4.236382
0
3DFACE
8
coconut_palm3_leaves
10
-0.363812
20
0.829603
30
4.477736
11
-0.268435
21
1.007021
31
4.249158
12
-0.287045
22
0.646423
32
3.619236
13
-0.382848
23
0.460866
33
3.843301
0
3DFACE
8
coconut_palm3_leaves
10
-0.147783
20
1.320574
30
4.704790
11
-0.052575
21
1.494765
31
4.477468
12
-0.268435
22
1.007021
32
4.249158
13
-0.363812
23
0.829603
33
4.477736
0
3DFACE
8
coconut_palm3_leaves
10
0.105470
20
1.723541
30
4.665553
11
0.200691
21
1.897980
31
4.441945
12
-0.052575
22
1.494765
32
4.477468
13
-0.147783
23
1.320574
33
4.704790
0
3DFACE
8
coconut_palm3_leaves
10
-0.316142
20
0.917955
30
4.362919
11
-0.086457
21
0.786163
31
4.248745
12
0.025234
22
0.603955
32
3.545814
13
-0.334964
23
0.553304
33
3.730728
0
3DFACE
8
coconut_palm3_leaves
10
-0.495998
20
1.034630
30
4.299585
11
-0.316142
21
0.917955
31
4.362919
12
-0.334964
22
0.553304
32
3.730728
13
-0.409198
23
0.790436
33
3.566616
0
3DFACE
8
coconut_palm3_leaves
10
-0.100198
20
1.407309
30
4.590606
11
0.093743
21
1.254185
31
4.550546
12
-0.086457
22
0.786163
32
4.248745
13
-0.316142
23
0.917955
33
4.362919
0
3DFACE
8
coconut_palm3_leaves
10
-0.292434
20
1.545664
30
4.599818
11
-0.100198
21
1.407309
31
4.590606
12
-0.316142
22
0.917955
32
4.362919
13
-0.495998
23
1.034630
33
4.299585
0
3DFACE
8
coconut_palm3_leaves
10
0.153062
20
1.810403
30
4.553226
11
0.339993
21
1.655362
31
4.531450
12
0.093743
22
1.254185
32
4.550546
13
-0.100198
23
1.407309
33
4.590606
0
3DFACE
8
coconut_palm3_leaves
10
-0.033870
20
1.965419
30
4.574150
11
0.153062
21
1.810403
31
4.553226
12
-0.100198
22
1.407309
32
4.590606
13
-0.292434
23
1.545664
33
4.599818
0
3DFACE
8
coconut_palm3_leaves
10
-0.383135
20
2.745376
30
5.105894
11
-0.424315
21
2.648167
31
4.735733
12
-0.820453
22
3.002795
32
4.620190
13
-0.779419
23
3.097207
33
4.982563
0
3DFACE
8
coconut_palm3_leaves
10
-0.059698
20
2.308571
30
5.013640
11
-0.100760
21
2.213628
31
4.633612
12
-0.424315
22
2.648167
32
4.735733
13
-0.383135
23
2.745376
33
5.105894
0
3DFACE
8
coconut_palm3_leaves
10
0.176592
20
1.874524
30
4.782473
11
0.135819
21
1.785099
31
4.392542
12
-0.100760
22
2.213628
32
4.633612
13
-0.059698
23
2.308571
33
5.013640
0
3DFACE
8
coconut_palm3_leaves
10
-0.403782
20
2.695690
30
4.921116
11
-0.622744
21
2.511592
31
4.880793
12
-0.998470
22
2.786255
32
4.688920
13
-0.799992
23
3.048941
33
4.801672
0
3DFACE
8
coconut_palm3_leaves
10
-0.237178
20
2.865023
30
4.865287
11
-0.403782
21
2.695690
31
4.921116
12
-0.799992
22
3.048941
32
4.801672
13
-0.632266
23
3.162323
33
4.676390
0
3DFACE
8
coconut_palm3_leaves
10
-0.080287
20
2.259989
30
4.823923
11
-0.285470
21
2.093994
31
4.825033
12
-0.622744
22
2.511592
32
4.880793
13
-0.403782
23
2.695690
33
4.921116
0
3DFACE
8
coconut_palm3_leaves
10
0.112655
20
2.427985
30
4.806590
11
-0.080287
21
2.259989
31
4.823923
12
-0.403782
22
2.695690
32
4.921116
13
-0.237178
23
2.865023
33
4.865287
0
3DFACE
8
coconut_palm3_leaves
10
0.156146
20
1.828672
30
4.587788
11
-0.045668
21
1.666486
31
4.595764
12
-0.285470
22
2.093994
32
4.825033
13
-0.080287
23
2.259989
33
4.823923
0
3DFACE
8
coconut_palm3_leaves
10
0.357955
20
1.990778
30
4.579226
11
0.156146
21
1.828672
31
4.587788
12
-0.080287
22
2.259989
32
4.823923
13
0.112655
23
2.427985
33
4.806590
0
3DFACE
8
coconut_palm3_leaves
10
0.589742
20
0.515235
30
3.751970
11
0.304075
21
0.918089
31
3.737663
12
0.018246
22
1.019434
32
3.026268
13
0.303902
23
0.616378
33
3.025906
0
3DFACE
8
coconut_palm3_leaves
10
0.532821
20
1.002802
30
4.350267
11
0.247102
21
1.404653
31
4.320477
12
0.304075
22
0.918089
32
3.737663
13
0.589742
23
0.515235
33
3.751970
0
3DFACE
8
coconut_palm3_leaves
10
0.301838
20
1.644930
30
4.639047
11
0.016059
21
2.045649
31
4.598721
12
0.247102
22
1.404653
32
4.320477
13
0.532821
23
1.002802
33
4.350267
0
3DFACE
8
coconut_palm3_leaves
10
0.446910
20
0.716688
30
3.745071
11
0.612377
21
1.028048
31
3.605366
12
0.179913
22
1.534885
32
3.131638
13
0.161075
23
0.817922
33
3.026343
0
3DFACE
8
coconut_palm3_leaves
10
0.090498
20
0.645130
30
3.700529
11
0.446910
21
0.716688
31
3.745071
12
0.161075
22
0.817922
32
3.026343
13
-0.346909
23
1.132296
33
3.171448
0
3DFACE
8
coconut_palm3_leaves
10
0.389963
20
1.203762
30
4.335625
11
0.642181
21
1.383397
31
4.241691
12
0.612377
22
1.028048
32
3.605366
13
0.446910
23
0.716688
33
3.745071
0
3DFACE
8
coconut_palm3_leaves
10
0.111434
20
1.038672
30
4.377860
11
0.389963
21
1.203762
31
4.335625
12
0.446910
22
0.716688
32
3.745071
13
0.090498
23
0.645130
33
3.700529
0
3DFACE
8
coconut_palm3_leaves
10
0.158951
20
1.845332
30
4.619137
11
0.428018
21
2.006236
31
4.543961
12
0.642181
22
1.383397
32
4.241691
13
0.389963
23
1.203762
33
4.335625
0
3DFACE
8
coconut_palm3_leaves
10
-0.110104
20
1.684669
30
4.695052
11
0.158951
21
1.845332
31
4.619137
12
0.389963
22
1.203762
32
4.335625
13
0.111434
23
1.038672
33
4.377860
0
3DFACE
8
coconut_palm3_leaves
10
0.332182
20
2.637108
30
4.763907
11
0.388234
21
2.563284
31
4.456486
12
0.498441
22
2.963607
32
4.464599
13
0.442394
23
3.037515
33
4.764182
0
3DFACE
8
coconut_palm3_leaves
10
0.225308
20
2.230379
30
4.727049
11
0.281402
21
2.157347
31
4.411679
12
0.388234
22
2.563284
32
4.456486
13
0.332182
23
2.637108
33
4.763907
0
3DFACE
8
coconut_palm3_leaves
10
0.120633
20
1.821141
30
4.665352
11
0.176793
21
1.749381
31
4.341994
12
0.281402
22
2.157347
32
4.411679
13
0.225308
23
2.230379
33
4.727049
0
3DFACE
8
coconut_palm3_leaves
10
0.360169
20
2.599453
30
4.610364
11
0.178115
21
2.652643
31
4.583764
12
0.289084
22
3.049807
32
4.577992
13
0.470380
23
2.999837
33
4.614558
0
3DFACE
8
coconut_palm3_leaves
10
0.543443
20
2.544848
30
4.626793
11
0.360169
21
2.599453
31
4.610364
12
0.470380
22
2.999837
32
4.614558
13
0.654812
23
2.943618
33
4.621110
0
3DFACE
8
coconut_palm3_leaves
10
0.253315
20
2.193100
30
4.569530
11
0.070898
21
2.247538
31
4.547336
12
0.178115
22
2.652643
32
4.583764
13
0.360169
23
2.599453
33
4.610364
0
3DFACE
8
coconut_palm3_leaves
10
0.435956
20
2.138523
30
4.590046
11
0.253315
21
2.193100
31
4.569530
12
0.360169
22
2.599453
32
4.610364
13
0.543443
23
2.544848
33
4.626793
0
3DFACE
8
coconut_palm3_leaves
10
0.148672
20
1.784479
30
4.503836
11
-0.033785
21
1.839385
31
4.482713
12
0.070898
22
2.247538
32
4.547336
13
0.253315
23
2.193100
33
4.569530
0
3DFACE
8
coconut_palm3_leaves
10
0.331130
20
1.729593
30
4.525017
11
0.148672
21
1.784479
31
4.503836
12
0.253315
22
2.193100
32
4.569530
13
0.435956
23
2.138523
33
4.590046
0
3DFACE
8
coconut_palm3_leaves
10
1.055709
20
1.636265
30
4.344991
11
0.787984
21
1.484432
31
4.109456
12
0.981657
22
1.228822
32
3.700593
13
1.249087
23
1.375004
33
3.942864
0
3DFACE
8
coconut_palm3_leaves
10
0.694022
20
1.786805
30
4.541369
11
0.426153
21
1.632244
31
4.309288
12
0.787984
22
1.484432
32
4.109456
13
1.055709
23
1.636265
33
4.344991
0
3DFACE
8
coconut_palm3_leaves
10
0.281573
20
1.856259
30
4.606576
11
0.013658
21
1.700799
31
4.375714
12
0.426153
22
1.632244
32
4.309288
13
0.694022
23
1.786805
33
4.541369
0
3DFACE
8
coconut_palm3_leaves
10
0.921825
20
1.559943
30
4.227759
11
0.907120
21
1.741110
31
4.136974
12
1.011035
22
1.457472
32
3.679213
13
1.115350
23
1.301488
33
3.822254
0
3DFACE
8
coconut_palm3_leaves
10
0.891245
20
1.330609
30
4.237065
11
0.921825
21
1.559943
31
4.227759
12
1.115350
22
1.301488
32
3.822254
13
1.001336
23
1.041506
33
3.763366
0
3DFACE
8
coconut_palm3_leaves
10
0.560067
20
1.709128
30
4.425869
11
0.568465
21
1.908493
31
4.365017
12
0.907120
22
1.741110
32
4.136974
13
0.921825
23
1.559943
33
4.227759
0
3DFACE
8
coconut_palm3_leaves
10
0.547667
20
1.500755
30
4.472570
11
0.560067
21
1.709128
31
4.425869
12
0.921825
22
1.559943
32
4.227759
13
0.891245
23
1.330609
33
4.237065
0
3DFACE
8
coconut_palm3_leaves
10
0.147595
20
1.778135
30
4.491687
11
0.159299
21
1.981586
31
4.436909
12
0.568465
22
1.908493
32
4.365017
13
0.560067
23
1.709128
33
4.425869
0
3DFACE
8
coconut_palm3_leaves
10
0.135894
20
1.574745
30
4.546717
11
0.147595
21
1.778135
31
4.491687
12
0.560067
22
1.709128
32
4.425869
13
0.547667
23
1.500755
33
4.472570
0
3DFACE
8
coconut_palm3_leaves
10
0.075067
20
1.283088
30
4.902025
11
-0.022253
21
1.041148
31
4.614089
12
-0.081856
22
0.760200
32
4.773244
13
0.015612
23
1.004972
33
5.065588
0
3DFACE
8
coconut_palm3_leaves
10
0.137144
20
1.594298
30
4.778077
11
0.039938
21
1.354534
31
4.495597
12
-0.022253
22
1.041148
32
4.614089
13
0.075067
23
1.283088
33
4.902025
0
3DFACE
8
coconut_palm3_leaves
10
-0.099526
20
1.622080
30
4.500876
11
0.142477
21
1.748068
31
4.433773
12
0.432020
22
1.220946
32
4.427609
13
0.190267
23
1.075127
33
4.466745
0
3DFACE
8
coconut_palm3_leaves
10
0.142477
20
1.748068
30
4.433773
11
0.384490
21
1.874265
31
4.367276
12
0.663997
22
1.345913
32
4.332422
13
0.432020
23
1.220946
33
4.427609
0
3DFACE
8
coconut_palm3_leaves
10
0.190267
20
1.075127
30
4.466745
11
0.432020
21
1.220946
31
4.427609
12
0.617858
22
0.624992
32
4.022783
13
0.320991
23
0.494988
33
3.928190
0
3DFACE
8
coconut_palm3_leaves
10
0.432020
20
1.220946
30
4.427609
11
0.663997
21
1.345913
31
4.332422
12
0.777488
22
0.808649
32
3.815483
13
0.617858
23
0.624992
33
4.022783
0
3DFACE
8
coconut_palm3_leaves
10
0.320991
20
0.494988
30
3.928190
11
0.617858
21
0.624992
31
4.022783
12
0.433813
22
0.420903
32
3.133618
13
-0.086395
23
0.663274
33
3.005004
0
3DFACE
8
coconut_palm3_leaves
10
0.617858
20
0.624992
30
4.022783
11
0.777488
21
0.808649
31
3.815483
12
0.359768
22
1.025812
32
2.955657
13
0.433813
23
0.420903
33
3.133618
0
3DFACE
8
coconut_palm3_leaves
10
0.260917
20
1.637599
30
4.516617
11
0.024056
21
1.858906
31
4.351689
12
0.313608
22
1.331962
32
4.344511
13
0.550451
23
1.110302
33
4.511470
0
3DFACE
8
coconut_palm3_leaves
10
0.550451
20
1.110302
30
4.511470
11
0.313608
21
1.331962
31
4.344511
12
0.499552
22
0.738029
32
3.941001
13
0.736182
23
0.512309
33
4.105338
0
3DFACE
8
coconut_palm3_leaves
10
0.736182
20
0.512309
30
4.105338
11
0.499552
21
0.738029
31
3.941001
12
0.315713
22
0.537872
32
3.057027
13
0.551929
23
0.304249
33
3.210996
0
3DFACE
8
coconut_palm3_leaves
10
0.391350
20
1.821775
30
4.610846
11
0.156406
21
1.830214
31
4.590697
12
0.188883
22
2.289002
32
4.498681
13
0.423646
23
2.275494
33
4.503303
0
3DFACE
8
coconut_palm3_leaves
10
0.156406
20
1.830214
30
4.590697
11
-0.078538
21
1.838677
31
4.570543
12
-0.046878
22
2.283401
32
4.465422
13
0.188883
23
2.289002
33
4.498681
0
3DFACE
8
coconut_palm3_leaves
10
0.423646
20
2.275494
30
4.503303
11
0.188883
21
2.289002
31
4.498681
12
0.210201
22
2.549269
32
4.182182
13
0.440657
23
2.463625
33
4.126407
0
3DFACE
8
coconut_palm3_leaves
10
0.188883
20
2.289002
30
4.498681
11
-0.046878
21
2.283401
31
4.465422
12
-0.030935
22
2.457236
32
4.095378
13
0.210201
23
2.549269
33
4.182182
0
3DFACE
8
coconut_palm3_leaves
10
0.440657
20
2.463625
30
4.126407
11
0.210201
21
2.549269
31
4.182182
12
0.198005
22
2.283818
32
3.600740
13
0.411917
23
1.952878
33
3.494268
0
3DFACE
8
coconut_palm3_leaves
10
0.210201
20
2.549269
30
4.182182
11
-0.030935
21
2.457236
31
4.095378
12
-0.060521
22
1.937102
32
3.478910
13
0.198005
23
2.283818
33
3.600740
0
3DFACE
8
coconut_palm3_leaves
10
0.154412
20
2.027929
30
4.660777
11
0.158410
21
1.632713
31
4.518175
12
0.190920
22
2.092121
32
4.429306
13
0.186856
23
2.486076
33
4.565619
0
3DFACE
8
coconut_palm3_leaves
10
0.186856
20
2.486076
30
4.565619
11
0.190920
21
2.092121
31
4.429306
12
0.212318
22
2.353910
32
4.111856
13
0.208096
23
2.744847
33
4.250078
0
3DFACE
8
coconut_palm3_leaves
10
0.208096
20
2.744847
30
4.250078
11
0.212318
21
2.353910
31
4.111856
12
0.200260
22
2.091099
32
3.522061
13
0.195766
23
2.476852
33
3.676997
0
3DFACE
8
coconut_palm3_leaves
10
0.056886
20
1.925201
30
4.483572
11
0.146283
21
1.770416
31
4.476871
12
-0.097432
22
1.635689
32
4.605870
13
-0.186057
23
1.791468
33
4.612437
0
3DFACE
8
coconut_palm3_leaves
10
0.146283
20
1.770416
30
4.476871
11
0.235677
21
1.615577
31
4.469512
12
-0.008374
22
1.480995
32
4.599864
13
-0.097432
23
1.635689
33
4.605870
0
3DFACE
8
coconut_palm3_leaves
10
-0.186057
20
1.791468
30
4.612437
11
-0.097432
21
1.635689
31
4.605870
12
-0.335709
22
1.515716
32
4.751033
13
-0.422038
23
1.675139
33
4.759317
0
3DFACE
8
coconut_palm3_leaves
10
-0.097432
20
1.635689
30
4.605870
11
-0.008374
21
1.480995
31
4.599864
12
-0.246538
22
1.363277
32
4.749290
13
-0.335709
23
1.515716
33
4.751033
0
3DFACE
8
coconut_palm3_leaves
10
-0.422038
20
1.675139
30
4.759317
11
-0.335709
21
1.515716
31
4.751033
12
-0.563331
22
1.421979
32
4.922694
13
-0.644710
23
1.589692
33
4.935849
0
3DFACE
8
coconut_palm3_leaves
10
-0.335709
20
1.515716
30
4.751033
11
-0.246538
21
1.363277
31
4.749290
12
-0.472418
22
1.276043
32
4.929861
13
-0.563331
23
1.421979
33
4.922694
0
3DFACE
8
coconut_palm3_leaves
10
0.226817
20
1.856088
30
4.597959
11
0.065795
21
1.685619
31
4.354576
12
-0.177971
22
1.549928
32
4.482717
13
-0.016847
23
1.722329
33
4.727811
0
3DFACE
8
coconut_palm3_leaves
10
-0.016847
20
1.722329
30
4.727811
11
-0.177971
21
1.549928
31
4.482717
12
-0.416304
22
1.428876
32
4.627200
13
-0.255067
23
1.603439
33
4.873646
0
3DFACE
8
coconut_palm3_leaves
10
-0.255067
20
1.603439
30
4.873646
11
-0.416304
21
1.428876
31
4.627200
12
-0.643993
22
1.333870
32
4.798496
13
-0.482623
23
1.510969
33
5.045660
0
3DFACE
8
coconut_palm3_leaves
10
0.029529
20
1.478531
30
4.471006
11
0.139362
21
1.729840
31
4.398389
12
0.572493
22
1.374748
32
4.178285
13
0.454302
23
1.115453
33
4.229396
0
3DFACE
8
coconut_palm3_leaves
10
0.139362
20
1.729840
30
4.398389
11
0.249202
21
1.981283
31
4.326313
12
0.668594
22
1.624797
32
4.095549
13
0.572493
23
1.374748
33
4.178285
0
3DFACE
8
coconut_palm3_leaves
10
0.454302
20
1.115453
30
4.229396
11
0.572493
21
1.374748
31
4.178285
12
0.831848
22
0.982951
32
3.738903
13
0.639380
23
0.720916
33
3.717694
0
3DFACE
8
coconut_palm3_leaves
10
0.572493
20
1.374748
30
4.178285
11
0.668594
21
1.624797
31
4.095549
12
0.845013
22
1.242993
32
3.607837
13
0.831848
23
0.982951
33
3.738903
0
3DFACE
8
coconut_palm3_leaves
10
0.639380
20
0.720916
30
3.717694
11
0.831848
21
0.982951
31
3.738903
12
0.679190
22
0.681923
32
3.061882
13
0.261178
23
0.520986
33
3.017032
0
3DFACE
8
coconut_palm3_leaves
10
0.831848
20
0.982951
30
3.738903
11
0.845013
21
1.242993
31
3.607837
12
0.461113
22
1.058369
32
2.944757
13
0.679190
23
0.681923
33
3.061882
0
3DFACE
8
coconut_palm3_leaves
10
0.357021
20
1.686822
30
4.467565
11
-0.078282
21
1.773138
31
4.329484
12
0.354898
22
1.418975
32
4.108923
13
0.790103
23
1.330799
33
4.247923
0
3DFACE
8
coconut_palm3_leaves
10
0.790103
20
1.330799
30
4.247923
11
0.354898
21
1.418975
31
4.108923
12
0.614347
22
1.028967
32
3.669464
13
1.049365
23
0.937210
33
3.808624
0
3DFACE
8
coconut_palm3_leaves
10
1.049365
20
0.937210
30
3.808624
11
0.614347
21
1.028967
31
3.669464
12
0.461828
22
0.730603
32
2.993145
13
0.896566
23
0.633508
33
3.130911
0
3DFACE
8
coconut_palm3_leaves
10
-0.130178
20
1.732065
30
4.701671
11
0.159608
21
1.849242
31
4.626472
12
0.414731
22
1.200953
32
4.610186
13
0.124993
23
1.087986
33
4.692278
0
3DFACE
8
coconut_palm3_leaves
10
0.159608
20
1.849242
30
4.626472
11
0.449408
21
1.966694
31
4.551979
12
0.706357
22
1.318717
32
4.541538
13
0.414731
23
1.200953
33
4.610186
0
3DFACE
8
coconut_palm3_leaves
10
0.124993
20
1.087986
30
4.692278
11
0.414731
21
1.200953
31
4.610186
12
0.680178
22
0.581639
32
4.663204
13
0.391988
23
0.488050
33
4.779685
0
3DFACE
8
coconut_palm3_leaves
10
0.414731
20
1.200953
30
4.610186
11
0.706357
21
1.318717
31
4.541538
12
0.976902
22
0.709705
32
4.626571
13
0.680178
23
0.581639
33
4.663204
0
3DFACE
8
coconut_palm3_leaves
10
0.391988
20
0.488050
30
4.779685
11
0.680178
21
0.581639
31
4.663204
12
0.957059
22
0.031475
32
4.855459
13
0.668459
23
-0.004653
33
5.054447
0
3DFACE
8
coconut_palm3_leaves
10
0.680178
20
0.581639
30
4.663204
11
0.976902
21
0.709705
31
4.626571
12
1.258737
22
0.202563
32
4.897921
13
0.957059
23
0.031475
33
4.855459
0
3DFACE
8
coconut_palm3_leaves
10
0.215776
20
2.039023
30
4.883255
11
0.103649
21
1.663459
31
4.364220
12
0.358780
22
1.015321
32
4.335849
13
0.470903
23
1.390811
33
4.879049
0
3DFACE
8
coconut_palm3_leaves
10
0.470903
20
1.390811
30
4.879049
11
0.358780
21
1.015321
31
4.335849
12
0.624179
22
0.395076
32
4.377868
13
0.736410
23
0.772624
33
4.943048
0
3DFACE
8
coconut_palm3_leaves
10
0.736410
20
0.772624
30
4.943048
11
0.624179
21
0.395076
31
4.377868
12
0.900895
22
-0.158229
32
4.561349
13
1.013462
23
0.225745
33
5.144022
0
3DFACE
8
coconut_palm3_leaves
10
0.013579
20
2.025863
30
4.592461
11
0.155533
21
1.825035
31
4.580925
12
-0.185562
22
1.523395
32
4.642194
13
-0.335959
23
1.708596
33
4.643003
0
3DFACE
8
coconut_palm3_leaves
10
0.155533
20
1.825035
30
4.580925
11
0.297482
21
1.624118
31
4.568208
12
-0.035114
22
1.320726
32
4.611966
13
-0.185562
23
1.523395
33
4.642194
0
3DFACE
8
coconut_palm3_leaves
10
-0.335959
20
1.708596
30
4.643003
11
-0.185562
21
1.523395
31
4.642194
12
-0.496481
22
1.101590
32
4.452526
13
-0.637454
23
1.253672
33
4.385108
0
3DFACE
8
coconut_palm3_leaves
10
-0.185562
20
1.523395
30
4.642194
11
-0.035114
21
1.320726
31
4.611966
12
-0.303642
22
0.900557
32
4.348157
13
-0.496481
23
1.101590
33
4.452526
0
3DFACE
8
coconut_palm3_leaves
10
-0.637454
20
1.253672
30
4.385108
11
-0.496481
21
1.101590
31
4.452526
12
-0.578230
22
0.689101
32
3.858377
13
-0.591906
23
0.904749
33
3.681772
0
3DFACE
8
coconut_palm3_leaves
10
-0.496481
20
1.101590
30
4.452526
11
-0.303642
21
0.900557
31
4.348157
12
-0.220482
22
0.607825
32
3.665488
13
-0.578230
23
0.689101
33
3.858377
0
3DFACE
8
coconut_palm3_leaves
10
0.083850
20
1.770965
30
4.701427
11
0.227259
21
1.879951
31
4.461277
12
-0.113854
22
1.577952
32
4.520634
13
-0.257225
23
1.469696
33
4.764606
0
3DFACE
8
coconut_palm3_leaves
10
-0.257225
20
1.469696
30
4.764606
11
-0.113854
21
1.577952
31
4.520634
12
-0.424698
22
1.157581
32
4.329567
13
-0.568219
23
1.046457
33
4.576346
0
3DFACE
8
coconut_palm3_leaves
10
-0.568219
20
1.046457
30
4.576346
11
-0.424698
21
1.157581
31
4.329567
12
-0.506228
22
0.749277
32
3.735884
13
-0.650189
23
0.629761
33
3.981760
0
3DFACE
8
coconut_palm3_leaves
10
0.070708
20
1.931804
30
4.373017
11
0.136643
21
1.713969
31
4.367408
12
-0.240415
22
1.609529
32
4.469370
13
-0.304109
23
1.829463
33
4.476012
0
3DFACE
8
coconut_palm3_leaves
10
0.136643
20
1.713969
30
4.367408
11
0.202572
21
1.496028
31
4.360582
12
-0.175679
22
1.392497
32
4.465571
13
-0.240415
23
1.609529
33
4.469370
0
3DFACE
8
coconut_palm3_leaves
10
-0.304109
20
1.829463
30
4.476012
11
-0.240415
21
1.609529
31
4.469370
12
-0.606431
22
1.534713
32
4.610648
13
-0.663265
23
1.763439
33
4.624846
0
3DFACE
8
coconut_palm3_leaves
10
-0.240415
20
1.609529
30
4.469370
11
-0.175679
21
1.392497
31
4.465571
12
-0.541602
22
1.324580
32
4.619092
13
-0.606431
23
1.534713
33
4.610648
0
3DFACE
8
coconut_palm3_leaves
10
-0.663265
20
1.763439
30
4.624846
11
-0.606431
21
1.534713
31
4.610648
12
-0.946300
22
1.514189
32
4.817669
13
-0.986440
23
1.763793
33
4.849522
0
3DFACE
8
coconut_palm3_leaves
10
-0.606431
20
1.534713
30
4.610648
11
-0.541602
21
1.324580
31
4.619092
12
-0.874633
22
1.322950
32
4.852834
13
-0.946300
23
1.514189
33
4.817669
0
3DFACE
8
coconut_palm3_leaves
10
0.229417
20
1.793099
30
4.527908
11
0.043949
21
1.636380
31
4.205574
12
-0.333160
22
1.530949
32
4.306472
13
-0.147588
23
1.689659
33
4.630928
0
3DFACE
8
coconut_palm3_leaves
10
-0.147588
20
1.689659
30
4.630928
11
-0.333160
21
1.530949
31
4.306472
12
-0.699248
22
1.454765
32
4.447107
13
-0.513533
23
1.616215
33
4.772833
0
3DFACE
8
coconut_palm3_leaves
10
-0.513533
20
1.616215
30
4.772833
11
-0.699248
21
1.454765
31
4.447107
12
-1.039222
22
1.432247
32
4.654254
13
-0.853297
23
1.597679
33
4.979712
0
3DFACE
8
coconut_palm3_leaves
10
0.240137
20
1.576243
30
4.461900
11
0.141799
21
1.744099
31
4.426085
12
0.437558
22
2.015124
32
4.550937
13
0.540939
23
1.845145
33
4.579463
0
3DFACE
8
coconut_palm3_leaves
10
0.141799
20
1.744099
30
4.426085
11
0.043462
21
1.911960
31
4.390296
12
0.343748
22
2.179661
32
4.504344
13
0.437558
23
2.015124
33
4.550937
0
3DFACE
8
coconut_palm3_leaves
10
0.540939
20
1.845145
30
4.579463
11
0.437558
21
2.015124
31
4.550937
12
0.800272
22
2.210566
32
4.487942
13
0.905828
23
2.013302
33
4.471817
0
3DFACE
8
coconut_palm3_leaves
10
0.437558
20
2.015124
30
4.550937
11
0.343748
21
2.179661
31
4.504344
12
0.707623
22
2.347336
32
4.397812
13
0.800272
23
2.210566
33
4.487942
0
3DFACE
8
coconut_palm3_leaves
10
0.905828
20
2.013302
30
4.471817
11
0.800272
21
2.210566
31
4.487942
12
1.080673
22
2.180976
32
4.157145
13
1.097055
23
1.896577
33
4.087703
0
3DFACE
8
coconut_palm3_leaves
10
0.800272
20
2.210566
30
4.487942
11
0.707623
21
2.347336
31
4.397812
12
0.897653
22
2.231765
32
4.021870
13
1.080673
23
2.180976
33
4.157145
0
3DFACE
8
coconut_palm3_leaves
10
0.177755
20
1.846604
30
4.549139
11
0.105890
21
1.642495
31
4.301548
12
0.401603
22
1.912637
32
4.429581
13
0.473558
23
2.118478
33
4.670803
0
3DFACE
8
coconut_palm3_leaves
10
0.473558
20
2.118478
30
4.670803
11
0.401603
21
1.912637
31
4.429581
12
0.764344
22
2.108582
32
4.368309
13
0.836246
23
2.313403
33
4.606090
0
3DFACE
8
coconut_palm3_leaves
10
0.836246
20
2.313403
30
4.606090
11
0.764344
21
2.108582
31
4.368309
12
1.044873
22
2.081451
32
4.035937
13
1.116518
23
2.281380
33
4.276885
0
3DFACE
8
coconut_palm3_leaves
10
0.404595
20
1.602098
30
4.482574
11
0.143133
21
1.751917
31
4.441216
12
0.431192
22
2.075555
32
4.143410
13
0.691838
23
1.922107
33
4.179783
0
3DFACE
8
coconut_palm3_leaves
10
0.143133
20
1.751917
30
4.441216
11
-0.118326
21
1.901785
31
4.400053
12
0.168597
22
2.222545
32
4.101831
13
0.431192
23
2.075555
33
4.143410
0
3DFACE
8
coconut_palm3_leaves
10
0.691838
20
1.922107
30
4.179783
11
0.431192
21
2.075555
31
4.143410
12
0.706351
22
2.361797
32
3.820757
13
0.961913
23
2.191550
33
3.841416
0
3DFACE
8
coconut_palm3_leaves
10
0.431192
20
2.075555
30
4.143410
11
0.168597
21
2.222545
31
4.101831
12
0.437994
22
2.492503
32
3.769279
13
0.706351
23
2.361797
33
3.820757
0
3DFACE
8
coconut_palm3_leaves
10
0.961913
20
2.191550
30
3.841416
11
0.706351
21
2.361797
31
3.820757
12
0.955935
22
2.578237
32
3.451235
13
1.196834
23
2.366802
33
3.439562
0
3DFACE
8
coconut_palm3_leaves
10
0.706351
20
2.361797
30
3.820757
11
0.437994
21
2.492503
31
3.769279
12
0.671924
22
2.668205
32
3.375082
13
0.955935
23
2.578237
33
3.451235
0
3DFACE
8
coconut_palm3_leaves
10
0.226005
20
2.032085
30
4.619782
11
0.060357
21
1.473582
31
4.255481
12
0.348600
22
1.800718
32
3.959296
13
0.513882
23
2.352244
33
4.320392
0
3DFACE
8
coconut_palm3_leaves
10
0.513882
20
2.352244
30
4.320392
11
0.348600
21
1.800718
31
3.959296
12
0.623957
22
2.090746
32
3.637133
13
0.788845
23
2.634746
33
3.997293
0
3DFACE
8
coconut_palm3_leaves
10
0.788845
20
2.634746
30
3.997293
11
0.623957
21
2.090746
31
3.637133
12
0.873769
22
2.311533
32
3.266094
13
1.038206
23
2.846926
33
3.629337
0
3DFACE
8
coconut_palm3_leaves
10
-0.092320
20
1.715769
30
4.598005
11
0.152448
21
1.806772
31
4.546332
12
0.378514
22
1.582581
32
4.869925
13
0.137359
23
1.482353
33
4.919872
0
3DFACE
8
coconut_palm3_leaves
10
0.152448
20
1.806772
30
4.546332
11
0.397223
21
1.897900
31
4.495009
12
0.624152
22
1.665178
32
4.808846
13
0.378514
23
1.582581
33
4.869925
0
3DFACE
8
coconut_palm3_leaves
10
0.137359
20
1.482353
30
4.919872
11
0.378514
21
1.582581
31
4.869925
12
0.634158
22
1.236052
32
5.111206
13
0.402981
23
1.093216
33
5.132217
0
3DFACE
8
coconut_palm3_leaves
10
0.378514
20
1.582581
30
4.869925
11
0.624152
21
1.665178
31
4.808846
12
0.884098
22
1.281300
32
5.011379
13
0.634158
23
1.236052
33
5.111206
0
3DFACE
8
coconut_palm3_leaves
10
0.402981
20
1.093216
30
5.132217
11
0.634158
21
1.236052
31
5.111206
12
0.915550
22
0.701498
32
5.171911
13
0.687569
23
0.486161
33
5.100124
0
3DFACE
8
coconut_palm3_leaves
10
0.634158
20
1.236052
30
5.111206
11
0.884098
21
1.281300
31
5.011379
12
1.160021
22
0.687426
32
4.971910
13
0.915550
23
0.701498
33
5.171911
0
3DFACE
8
coconut_palm3_leaves
10
0.169938
20
1.994074
30
4.738999
11
0.135075
21
1.621690
31
4.349289
12
0.360937
22
1.393613
32
4.672131
13
0.396206
23
1.773749
33
5.063297
0
3DFACE
8
coconut_palm3_leaves
10
0.396206
20
1.773749
30
5.063297
11
0.360937
21
1.393613
31
4.672131
12
0.616426
22
1.044138
32
4.910120
13
0.652006
23
1.430195
33
5.307834
0
3DFACE
8
coconut_palm3_leaves
10
0.652006
20
1.430195
30
5.307834
11
0.616426
21
1.044138
31
4.910120
12
0.897772
22
0.508700
32
4.963320
13
0.933450
23
0.896632
33
5.376029
0
3DFACE
8
coconut_palm3_leaves
10
-0.044247
20
1.771861
30
4.548389
11
0.149352
21
1.788489
31
4.511500
12
0.241684
22
1.494474
32
4.687004
13
0.048495
23
1.475368
33
4.723421
0
3DFACE
8
coconut_palm3_leaves
10
0.149352
20
1.788489
30
4.511500
11
0.342955
21
1.805194
31
4.474718
12
0.435076
22
1.509831
32
4.647160
13
0.241684
23
1.494474
33
4.687004
0
3DFACE
8
coconut_palm3_leaves
10
0.048495
20
1.475368
30
4.723421
11
0.241684
21
1.494474
31
4.687004
12
0.335753
22
1.164428
32
4.829865
13
0.143435
23
1.134715
33
4.858608
0
3DFACE
8
coconut_palm3_leaves
10
0.241684
20
1.494474
30
4.687004
11
0.435076
21
1.509831
31
4.647160
12
0.528808
22
1.172525
32
4.778804
13
0.335753
23
1.164428
33
4.829865
0
3DFACE
8
coconut_palm3_leaves
10
0.143435
20
1.134715
30
4.858608
11
0.335753
21
1.164428
31
4.829865
12
0.430834
22
0.775527
32
4.906735
13
0.239121
23
0.724505
33
4.912634
0
3DFACE
8
coconut_palm3_leaves
10
0.335753
20
1.164428
30
4.829865
11
0.528808
21
1.172525
31
4.778804
12
0.622705
22
0.768464
32
4.828855
13
0.430834
23
0.775527
33
4.906735
0
3DFACE
8
coconut_palm3_leaves
10
0.182580
20
1.923168
30
4.663946
11
0.116196
21
1.655194
31
4.356613
12
0.208440
22
1.359489
32
4.529696
13
0.275002
23
1.630864
33
4.841853
0
3DFACE
8
coconut_palm3_leaves
10
0.275002
20
1.630864
30
4.841853
11
0.208440
21
1.359489
31
4.529696
12
0.302436
22
1.028045
32
4.669522
13
0.369145
23
1.302243
33
4.987737
0
3DFACE
8
coconut_palm3_leaves
10
0.369145
20
1.302243
30
4.987737
11
0.302436
21
1.028045
31
4.669522
12
0.397475
22
0.638349
32
4.742313
13
0.464270
23
0.914181
33
5.068677
0
3DFACE
8
coconut_palm3_leaves
10
0.365125
20
1.535943
30
4.466410
11
0.141539
21
1.742574
31
4.423129
12
0.467920
22
2.283936
32
4.664968
13
0.698868
23
2.079020
33
4.699788
0
3DFACE
8
coconut_palm3_leaves
10
0.141539
20
1.742574
30
4.423129
11
-0.082047
21
1.949214
31
4.379890
12
0.251223
22
2.489821
32
4.605130
13
0.467920
23
2.283936
33
4.664968
0
3DFACE
8
coconut_palm3_leaves
10
0.698868
20
2.079020
30
4.699788
11
0.467920
21
2.283936
31
4.664968
12
0.875366
22
2.816319
32
4.723450
13
1.127007
23
2.594421
33
4.697093
0
3DFACE
8
coconut_palm3_leaves
10
0.467920
20
2.283936
30
4.664968
11
0.251223
21
2.489821
31
4.605130
12
0.678497
22
3.003316
32
4.599391
13
0.875366
23
2.816319
33
4.723450
0
3DFACE
8
coconut_palm3_leaves
10
1.127007
20
2.594421
30
4.697093
11
0.875366
21
2.816319
31
4.723450
12
1.336767
22
3.227743
32
4.502616
13
1.561514
23
2.895321
33
4.358198
0
3DFACE
8
coconut_palm3_leaves
10
0.875366
20
2.816319
30
4.723450
11
0.678497
21
3.003316
31
4.599391
12
1.111850
22
3.304299
32
4.266814
13
1.336767
23
3.227743
33
4.502616
0
3DFACE
8
coconut_palm3_leaves
10
0.117870
20
1.862066
30
4.656194
11
0.165378
21
1.626349
31
4.187391
12
0.491583
22
2.164352
32
4.438821
13
0.444419
23
2.406624
33
4.888398
0
3DFACE
8
coconut_palm3_leaves
10
0.444419
20
2.406624
30
4.888398
11
0.491583
21
2.164352
31
4.438821
12
0.898990
22
2.695972
32
4.506216
13
0.851897
23
2.939628
33
4.937961
0
3DFACE
8
coconut_palm3_leaves
10
0.851897
20
2.939628
30
4.937961
11
0.898990
21
2.695972
31
4.506216
12
1.360554
22
3.110515
32
4.291401
13
1.313131
23
3.347852
33
4.711152
0
3DFACE
8
coconut_palm3_leaves
10
-0.021921
20
1.857834
30
4.566051
11
0.151848
21
1.803224
31
4.539588
12
0.088511
22
1.473841
32
4.637823
13
-0.085049
23
1.530162
33
4.665687
0
3DFACE
8
coconut_palm3_leaves
10
0.151848
20
1.803224
30
4.539588
11
0.325619
21
1.748652
31
4.512951
12
0.262173
22
1.419042
32
4.611763
13
0.088511
23
1.473841
33
4.637823
0
3DFACE
8
coconut_palm3_leaves
10
-0.085049
20
1.530162
30
4.665687
11
0.088511
21
1.473841
31
4.637823
12
0.026377
22
1.161532
32
4.759048
13
-0.146572
23
1.223617
33
4.791912
0
3DFACE
8
coconut_palm3_leaves
10
0.088511
20
1.473841
30
4.637823
11
0.262173
21
1.419042
31
4.611763
12
0.200037
22
1.109000
32
4.737941
13
0.026377
23
1.161532
33
4.759048
0
3DFACE
8
coconut_palm3_leaves
10
-0.146572
20
1.223617
30
4.791912
11
0.026377
21
1.161532
31
4.759048
12
-0.033153
22
0.881992
32
4.920413
13
-0.204707
23
0.957368
33
4.964460
0
3DFACE
8
coconut_palm3_leaves
10
0.026377
20
1.161532
30
4.759048
11
0.200037
21
1.109000
31
4.737941
12
0.141002
22
0.837803
32
4.911623
13
-0.033153
23
0.881992
33
4.920413
0
3DFACE
8
coconut_palm3_leaves
10
0.200433
20
1.922769
30
4.676834
11
0.103322
21
1.684801
31
4.400379
12
0.039938
22
1.354534
32
4.495597
13
0.137144
23
1.594298
33
4.778077
0
3DFACE
8
coconut_palm3_coconuts
10
0.120751
20
1.734449
30
4.523565
11
0.101454
21
1.727517
31
4.540466
12
0.094306
22
1.731875
32
4.523260
13
0.094306
23
1.731875
33
4.523260
0
3DFACE
8
coconut_palm3_coconuts
10
0.101454
20
1.727517
30
4.540466
11
0.082907
21
1.705173
31
4.550299
12
0.070527
22
1.712723
32
4.520499
13
0.094306
23
1.731875
33
4.523260
0
3DFACE
8
coconut_palm3_coconuts
10
0.082907
20
1.705173
30
4.550299
11
0.070081
21
1.673405
31
4.550432
12
0.055785
22
1.682122
32
4.516021
13
0.070527
23
1.712723
33
4.520499
0
3DFACE
8
coconut_palm3_coconuts
10
0.070081
20
1.673405
30
4.550432
11
0.066411
21
1.640724
31
4.540827
12
0.054030
22
1.648273
32
4.511027
13
0.055785
23
1.682122
33
4.516021
0
3DFACE
8
coconut_palm3_coconuts
10
0.066411
20
1.640724
30
4.540827
11
0.072881
21
1.615887
31
4.524058
12
0.065733
22
1.620246
32
4.506853
13
0.054030
23
1.648273
33
4.511027
0
3DFACE
8
coconut_palm3_coconuts
10
0.072881
20
1.615887
30
4.524058
11
0.087758
21
1.605550
31
4.504620
12
0.065733
22
1.620246
32
4.506853
13
0.065733
23
1.620246
33
4.506853
0
3DFACE
8
coconut_palm3_coconuts
10
0.120751
20
1.734449
30
4.523565
11
0.118611
21
1.722161
31
4.547027
12
0.101454
22
1.727517
32
4.540466
13
0.101454
23
1.727517
33
4.540466
0
3DFACE
8
coconut_palm3_coconuts
10
0.118611
20
1.722161
30
4.547027
11
0.112625
21
1.695897
31
4.561665
12
0.082907
22
1.705173
32
4.550299
13
0.101454
23
1.727517
33
4.540466
0
3DFACE
8
coconut_palm3_coconuts
10
0.112625
20
1.695897
30
4.561665
11
0.104395
21
1.662693
31
4.563555
12
0.070081
22
1.673405
32
4.550432
13
0.082907
23
1.705173
33
4.550299
0
3DFACE
8
coconut_palm3_coconuts
10
0.104395
20
1.662693
30
4.563555
11
0.096128
21
1.631447
31
4.552192
12
0.066411
22
1.640724
32
4.540827
13
0.070081
23
1.673405
33
4.550432
0
3DFACE
8
coconut_palm3_coconuts
10
0.096128
20
1.631447
30
4.552192
11
0.090039
21
1.610531
31
4.530620
12
0.072881
22
1.615887
32
4.524058
13
0.066411
23
1.640724
33
4.540827
0
3DFACE
8
coconut_palm3_coconuts
10
0.090039
20
1.610531
30
4.530620
11
0.087758
21
1.605550
31
4.504620
12
0.072881
22
1.615887
32
4.524058
13
0.072881
23
1.615887
33
4.524058
0
3DFACE
8
coconut_palm3_coconuts
10
0.120751
20
1.734449
30
4.523565
11
0.135727
21
1.718945
31
4.539102
12
0.118611
22
1.722161
32
4.547027
13
0.118611
23
1.722161
33
4.547027
0
3DFACE
8
coconut_palm3_coconuts
10
0.135727
20
1.718945
30
4.539102
11
0.142270
21
1.690326
31
4.547937
12
0.112625
22
1.695897
32
4.561665
13
0.118611
23
1.722161
33
4.547027
0
3DFACE
8
coconut_palm3_coconuts
10
0.142270
20
1.690326
30
4.547937
11
0.138627
21
1.656261
31
4.547704
12
0.104395
22
1.662693
32
4.563555
13
0.112625
23
1.695897
33
4.561665
0
3DFACE
8
coconut_palm3_coconuts
10
0.138627
20
1.656261
30
4.547704
11
0.125774
21
1.625877
31
4.538465
12
0.096128
22
1.631447
32
4.552192
13
0.104395
23
1.662693
33
4.563555
0
3DFACE
8
coconut_palm3_coconuts
10
0.125774
20
1.625877
30
4.538465
11
0.107155
21
1.607315
31
4.522695
12
0.090039
22
1.610531
32
4.530620
13
0.096128
23
1.631447
33
4.552192
0
3DFACE
8
coconut_palm3_coconuts
10
0.107155
20
1.607315
30
4.522695
11
0.087758
21
1.605550
31
4.504620
12
0.090039
22
1.610531
32
4.530620
13
0.090039
23
1.610531
33
4.530620
0
3DFACE
8
coconut_palm3_coconuts
10
0.120751
20
1.734449
30
4.523565
11
0.142775
21
1.719753
31
4.521331
12
0.135727
22
1.718945
32
4.539102
13
0.135727
23
1.718945
33
4.539102
0
3DFACE
8
coconut_palm3_coconuts
10
0.142775
20
1.719753
30
4.521331
11
0.154479
21
1.691726
31
4.517159
12
0.142270
22
1.690326
32
4.547937
13
0.135727
23
1.718945
33
4.539102
0
3DFACE
8
coconut_palm3_coconuts
10
0.154479
20
1.691726
30
4.517159
11
0.152724
21
1.657876
31
4.512163
12
0.138627
22
1.656261
32
4.547704
13
0.142270
23
1.690326
33
4.547937
0
3DFACE
8
coconut_palm3_coconuts
10
0.152724
20
1.657876
30
4.512163
11
0.137982
21
1.627276
31
4.507686
12
0.125774
22
1.625877
32
4.538465
13
0.138627
23
1.656261
33
4.547704
0
3DFACE
8
coconut_palm3_coconuts
10
0.137982
20
1.627276
30
4.507686
11
0.114203
21
1.608123
31
4.504924
12
0.107155
22
1.607315
32
4.522695
13
0.125774
23
1.625877
33
4.538465
0
3DFACE
8
coconut_palm3_coconuts
10
0.114203
20
1.608123
30
4.504924
11
0.087758
21
1.605550
31
4.504620
12
0.107155
22
1.607315
32
4.522695
13
0.107155
23
1.607315
33
4.522695
0
3DFACE
8
coconut_palm3_coconuts
10
0.120751
20
1.734449
30
4.523565
11
0.135627
21
1.724111
31
4.504126
12
0.142775
22
1.719753
32
4.521331
13
0.142775
23
1.719753
33
4.521331
0
3DFACE
8
coconut_palm3_coconuts
10
0.135627
20
1.724111
30
4.504126
11
0.142098
21
1.699275
31
4.487358
12
0.154479
22
1.691726
32
4.517159
13
0.142775
23
1.719753
33
4.521331
0
3DFACE
8
coconut_palm3_coconuts
10
0.142098
20
1.699275
30
4.487358
11
0.138428
21
1.666594
31
4.477753
12
0.152724
22
1.657876
32
4.512163
13
0.154479
23
1.691726
33
4.517159
0
3DFACE
8
coconut_palm3_coconuts
10
0.138428
20
1.666594
30
4.477753
11
0.125602
21
1.634825
31
4.477885
12
0.137982
22
1.627276
32
4.507686
13
0.152724
23
1.657876
33
4.512163
0
3DFACE
8
coconut_palm3_coconuts
10
0.125602
20
1.634825
30
4.477885
11
0.107055
21
1.612482
31
4.487719
12
0.114203
22
1.608123
32
4.504924
13
0.137982
23
1.627276
33
4.507686
0
3DFACE
8
coconut_palm3_coconuts
10
0.107055
20
1.612482
30
4.487719
11
0.087758
21
1.605550
31
4.504620
12
0.114203
22
1.608123
32
4.504924
13
0.114203
23
1.608123
33
4.504924
0
3DFACE
8
coconut_palm3_coconuts
10
0.120751
20
1.734449
30
4.523565
11
0.118470
21
1.729467
31
4.497564
12
0.135627
22
1.724111
32
4.504126
13
0.135627
23
1.724111
33
4.504126
0
3DFACE
8
coconut_palm3_coconuts
10
0.118470
20
1.729467
30
4.497564
11
0.112381
21
1.708551
31
4.475993
12
0.142098
22
1.699275
32
4.487358
13
0.135627
23
1.724111
33
4.504126
0
3DFACE
8
coconut_palm3_coconuts
10
0.112381
20
1.708551
30
4.475993
11
0.104114
21
1.677305
31
4.464629
12
0.138428
22
1.666594
32
4.477753
13
0.142098
23
1.699275
33
4.487358
0
3DFACE
8
coconut_palm3_coconuts
10
0.104114
20
1.677305
30
4.464629
11
0.095884
21
1.644102
31
4.466519
12
0.125602
22
1.634825
32
4.477885
13
0.138428
23
1.666594
33
4.477753
0
3DFACE
8
coconut_palm3_coconuts
10
0.095884
20
1.644102
30
4.466519
11
0.089898
21
1.617837
31
4.481157
12
0.107055
22
1.612482
32
4.487719
13
0.125602
23
1.634825
33
4.477885
0
3DFACE
8
coconut_palm3_coconuts
10
0.089898
20
1.617837
30
4.481157
11
0.087758
21
1.605550
31
4.504620
12
0.107055
22
1.612482
32
4.487719
13
0.107055
23
1.612482
33
4.487719
0
3DFACE
8
coconut_palm3_coconuts
10
0.120751
20
1.734449
30
4.523565
11
0.101354
21
1.732683
31
4.505489
12
0.118470
22
1.729467
32
4.497564
13
0.118470
23
1.729467
33
4.497564
0
3DFACE
8
coconut_palm3_coconuts
10
0.101354
20
1.732683
30
4.505489
11
0.082735
21
1.714122
31
4.489720
12
0.112381
22
1.708551
32
4.475993
13
0.118470
23
1.729467
33
4.497564
0
3DFACE
8
coconut_palm3_coconuts
10
0.082735
20
1.714122
30
4.489720
11
0.069882
21
1.683738
31
4.480481
12
0.104114
22
1.677305
32
4.464629
13
0.112381
23
1.708551
33
4.475993
0
3DFACE
8
coconut_palm3_coconuts
10
0.069882
20
1.683738
30
4.480481
11
0.066238
21
1.649672
31
4.480247
12
0.095884
22
1.644102
32
4.466519
13
0.104114
23
1.677305
33
4.464629
0
3DFACE
8
coconut_palm3_coconuts
10
0.066238
20
1.649672
30
4.480247
11
0.072782
21
1.621054
31
4.489083
12
0.089898
22
1.617837
32
4.481157
13
0.095884
23
1.644102
33
4.466519
0
3DFACE
8
coconut_palm3_coconuts
10
0.072782
20
1.621054
30
4.489083
11
0.087758
21
1.605550
31
4.504620
12
0.089898
22
1.617837
32
4.481157
13
0.089898
23
1.617837
33
4.481157
0
3DFACE
8
coconut_palm3_coconuts
10
0.120751
20
1.734449
30
4.523565
11
0.094306
21
1.731875
31
4.523260
12
0.101354
22
1.732683
32
4.505489
13
0.101354
23
1.732683
33
4.505489
0
3DFACE
8
coconut_palm3_coconuts
10
0.094306
20
1.731875
30
4.523260
11
0.070527
21
1.712723
31
4.520499
12
0.082735
22
1.714122
32
4.489720
13
0.101354
23
1.732683
33
4.505489
0
3DFACE
8
coconut_palm3_coconuts
10
0.070527
20
1.712723
30
4.520499
11
0.055785
21
1.682122
31
4.516021
12
0.069882
22
1.683738
32
4.480481
13
0.082735
23
1.714122
33
4.489720
0
3DFACE
8
coconut_palm3_coconuts
10
0.055785
20
1.682122
30
4.516021
11
0.054030
21
1.648273
31
4.511027
12
0.066238
22
1.649672
32
4.480247
13
0.069882
23
1.683738
33
4.480481
0
3DFACE
8
coconut_palm3_coconuts
10
0.054030
20
1.648273
30
4.511027
11
0.065733
21
1.620246
31
4.506853
12
0.072782
22
1.621054
32
4.489083
13
0.066238
23
1.649672
33
4.480247
0
3DFACE
8
coconut_palm3_coconuts
10
0.065733
20
1.620246
30
4.506853
11
0.087758
21
1.605550
31
4.504620
12
0.072782
22
1.621054
32
4.489083
13
0.072782
23
1.621054
33
4.489083
0
3DFACE
8
coconut_palm3_coconuts
10
0.041067
20
1.892516
30
4.435436
11
0.049927
21
1.881905
31
4.422206
12
0.058451
22
1.907065
32
4.421573
13
0.058451
23
1.907065
33
4.421573
0
3DFACE
8
coconut_palm3_coconuts
10
0.041067
20
1.892516
30
4.435436
11
0.036934
21
1.872837
31
4.458579
12
0.052281
22
1.854460
32
4.435664
13
0.049927
23
1.881905
33
4.422206
0
3DFACE
8
coconut_palm3_coconuts
10
0.036934
20
1.872837
30
4.458579
11
0.047161
21
1.853303
31
4.484801
12
0.064881
22
1.832082
32
4.458341
13
0.052281
23
1.854460
33
4.435664
0
3DFACE
8
coconut_palm3_coconuts
10
0.047161
20
1.853303
30
4.484801
11
0.069005
21
1.839146
31
4.507077
12
0.084352
22
1.820769
32
4.484162
13
0.064881
23
1.832082
33
4.458341
0
3DFACE
8
coconut_palm3_coconuts
10
0.069005
20
1.839146
30
4.507077
11
0.096615
21
1.834161
31
4.519436
12
0.105476
22
1.823551
32
4.506206
13
0.084352
23
1.820769
33
4.484162
0
3DFACE
8
coconut_palm3_coconuts
10
0.096615
20
1.834161
30
4.519436
11
0.122592
21
1.839683
31
4.518568
12
0.105476
22
1.823551
32
4.506206
13
0.105476
23
1.823551
33
4.506206
0
3DFACE
8
coconut_palm3_coconuts
10
0.049927
20
1.881905
30
4.422206
11
0.066297
21
1.883389
31
4.412411
12
0.058451
22
1.907065
32
4.421573
13
0.058451
23
1.907065
33
4.421573
0
3DFACE
8
coconut_palm3_coconuts
10
0.049927
20
1.881905
30
4.422206
11
0.052281
21
1.854460
31
4.435664
12
0.080635
22
1.857030
32
4.418699
13
0.066297
23
1.883389
33
4.412411
0
3DFACE
8
coconut_palm3_coconuts
10
0.052281
20
1.854460
30
4.435664
11
0.064881
21
1.832082
31
4.458341
12
0.097622
22
1.835050
32
4.438752
13
0.080635
23
1.857030
33
4.418699
0
3DFACE
8
coconut_palm3_coconuts
10
0.064881
20
1.832082
30
4.458341
11
0.084352
21
1.820769
31
4.484162
12
0.112706
22
1.823339
32
4.467196
13
0.097622
23
1.835050
33
4.438752
0
3DFACE
8
coconut_palm3_coconuts
10
0.084352
20
1.820769
30
4.484162
11
0.105476
21
1.823551
31
4.506206
12
0.121846
22
1.825035
32
4.496411
13
0.112706
23
1.823339
33
4.467196
0
3DFACE
8
coconut_palm3_coconuts
10
0.105476
20
1.823551
30
4.506206
11
0.122592
21
1.839683
31
4.518568
12
0.121846
22
1.825035
32
4.496411
13
0.121846
23
1.825035
33
4.496411
0
3DFACE
8
coconut_palm3_coconuts
10
0.066297
20
1.883389
30
4.412411
11
0.080588
21
1.896098
31
4.411790
12
0.058451
22
1.907065
32
4.421573
13
0.058451
23
1.907065
33
4.421573
0
3DFACE
8
coconut_palm3_coconuts
10
0.066297
20
1.883389
30
4.412411
11
0.080635
21
1.857030
31
4.418699
12
0.105387
22
1.879042
32
4.417623
13
0.080588
23
1.896098
33
4.411790
0
3DFACE
8
coconut_palm3_coconuts
10
0.080635
20
1.857030
30
4.418699
11
0.097622
21
1.835050
31
4.438752
12
0.126203
22
1.860468
32
4.437509
13
0.105387
23
1.879042
33
4.417623
0
3DFACE
8
coconut_palm3_coconuts
10
0.097622
20
1.835050
30
4.438752
11
0.112706
21
1.823339
31
4.467196
12
0.137458
22
1.845352
32
4.466121
13
0.126203
23
1.860468
33
4.437509
0
3DFACE
8
coconut_palm3_coconuts
10
0.112706
20
1.823339
30
4.467196
11
0.121846
21
1.825035
31
4.496411
12
0.136136
22
1.837744
32
4.495790
13
0.137458
23
1.845352
33
4.466121
0
3DFACE
8
coconut_palm3_coconuts
10
0.121846
20
1.825035
30
4.496411
11
0.122592
21
1.839683
31
4.518568
12
0.136136
22
1.837744
32
4.495790
13
0.136136
23
1.837744
33
4.495790
0
3DFACE
8
coconut_palm3_coconuts
10
0.080588
20
1.896098
30
4.411790
11
0.084428
21
1.912587
31
4.420705
12
0.058451
22
1.907065
32
4.421573
13
0.058451
23
1.907065
33
4.421573
0
3DFACE
8
coconut_palm3_coconuts
10
0.080588
20
1.896098
30
4.411790
11
0.105387
21
1.879042
31
4.417623
12
0.112038
22
1.907602
32
4.433065
13
0.084428
23
1.912587
33
4.420705
0
3DFACE
8
coconut_palm3_coconuts
10
0.105387
20
1.879042
30
4.417623
11
0.126203
21
1.860468
31
4.437509
12
0.133882
22
1.893446
32
4.455340
13
0.112038
23
1.907602
33
4.433065
0
3DFACE
8
coconut_palm3_coconuts
10
0.126203
20
1.860468
30
4.437509
11
0.137458
21
1.845352
31
4.466121
12
0.144108
22
1.873911
32
4.481563
13
0.133882
23
1.893446
33
4.455340
0
3DFACE
8
coconut_palm3_coconuts
10
0.137458
20
1.845352
30
4.466121
11
0.136136
21
1.837744
31
4.495790
12
0.139976
22
1.854233
32
4.504705
13
0.144108
23
1.873911
33
4.481563
0
3DFACE
8
coconut_palm3_coconuts
10
0.136136
20
1.837744
30
4.495790
11
0.122592
21
1.839683
31
4.518568
12
0.139976
22
1.854233
32
4.504705
13
0.139976
23
1.854233
33
4.504705
0
3DFACE
8
coconut_palm3_coconuts
10
0.084428
20
1.912587
30
4.420705
11
0.075567
21
1.923197
31
4.433936
12
0.058451
22
1.907065
32
4.421573
13
0.058451
23
1.907065
33
4.421573
0
3DFACE
8
coconut_palm3_coconuts
10
0.084428
20
1.912587
30
4.420705
11
0.112038
21
1.907602
31
4.433065
12
0.096691
22
1.925979
32
4.455981
13
0.075567
23
1.923197
33
4.433936
0
3DFACE
8
coconut_palm3_coconuts
10
0.112038
20
1.907602
30
4.433065
11
0.133882
21
1.893446
31
4.455340
12
0.116161
22
1.914666
32
4.481800
13
0.096691
23
1.925979
33
4.455981
0
3DFACE
8
coconut_palm3_coconuts
10
0.133882
20
1.893446
30
4.455340
11
0.144108
21
1.873911
31
4.481563
12
0.128762
22
1.892288
32
4.504478
13
0.116161
23
1.914666
33
4.481800
0
3DFACE
8
coconut_palm3_coconuts
10
0.144108
20
1.873911
30
4.481563
11
0.139976
21
1.854233
31
4.504705
12
0.131116
22
1.864843
32
4.517935
13
0.128762
23
1.892288
33
4.504478
0
3DFACE
8
coconut_palm3_coconuts
10
0.139976
20
1.854233
30
4.504705
11
0.122592
21
1.839683
31
4.518568
12
0.131116
22
1.864843
32
4.517935
13
0.131116
23
1.864843
33
4.517935
0
3DFACE
8
coconut_palm3_coconuts
10
0.075567
20
1.923197
30
4.433936
11
0.059197
21
1.921713
31
4.443730
12
0.058451
22
1.907065
32
4.421573
13
0.058451
23
1.907065
33
4.421573
0
3DFACE
8
coconut_palm3_coconuts
10
0.075567
20
1.923197
30
4.433936
11
0.096691
21
1.925979
31
4.455981
12
0.068337
22
1.923409
32
4.472945
13
0.059197
23
1.921713
33
4.443730
0
3DFACE
8
coconut_palm3_coconuts
10
0.096691
20
1.925979
30
4.455981
11
0.116161
21
1.914666
31
4.481800
12
0.083421
22
1.911698
32
4.501390
13
0.068337
23
1.923409
33
4.472945
0
3DFACE
8
coconut_palm3_coconuts
10
0.116161
20
1.914666
30
4.481800
11
0.128762
21
1.892288
31
4.504478
12
0.100408
22
1.889718
32
4.521442
13
0.083421
23
1.911698
33
4.501390
0
3DFACE
8
coconut_palm3_coconuts
10
0.128762
20
1.892288
30
4.504478
11
0.131116
21
1.864843
31
4.517935
12
0.114745
22
1.863359
32
4.527730
13
0.100408
23
1.889718
33
4.521442
0
3DFACE
8
coconut_palm3_coconuts
10
0.131116
20
1.864843
30
4.517935
11
0.122592
21
1.839683
31
4.518568
12
0.114745
22
1.863359
32
4.527730
13
0.114745
23
1.863359
33
4.527730
0
3DFACE
8
coconut_palm3_coconuts
10
0.059197
20
1.921713
30
4.443730
11
0.044907
21
1.909004
31
4.444352
12
0.058451
22
1.907065
32
4.421573
13
0.058451
23
1.907065
33
4.421573
0
3DFACE
8
coconut_palm3_coconuts
10
0.059197
20
1.921713
30
4.443730
11
0.068337
21
1.923409
31
4.472945
12
0.043585
22
1.901397
32
4.474022
13
0.044907
23
1.909004
33
4.444352
0
3DFACE
8
coconut_palm3_coconuts
10
0.068337
20
1.923409
30
4.472945
11
0.083421
21
1.911698
31
4.501390
12
0.054840
22
1.886280
32
4.502632
13
0.043585
23
1.901397
33
4.474022
0
3DFACE
8
coconut_palm3_coconuts
10
0.083421
20
1.911698
30
4.501390
11
0.100408
21
1.889718
31
4.521442
12
0.075656
22
1.867706
32
4.522519
13
0.054840
23
1.886280
33
4.502632
0
3DFACE
8
coconut_palm3_coconuts
10
0.100408
20
1.889718
30
4.521442
11
0.114745
21
1.863359
31
4.527730
12
0.100455
22
1.850650
32
4.528351
13
0.075656
23
1.867706
33
4.522519
0
3DFACE
8
coconut_palm3_coconuts
10
0.114745
20
1.863359
30
4.527730
11
0.122592
21
1.839683
31
4.518568
12
0.100455
22
1.850650
32
4.528351
13
0.100455
23
1.850650
33
4.528351
0
3DFACE
8
coconut_palm3_coconuts
10
0.044907
20
1.909004
30
4.444352
11
0.041067
21
1.892516
31
4.435436
12
0.058451
22
1.907065
32
4.421573
13
0.058451
23
1.907065
33
4.421573
0
3DFACE
8
coconut_palm3_coconuts
10
0.044907
20
1.909004
30
4.444352
11
0.043585
21
1.901397
31
4.474022
12
0.036934
22
1.872837
32
4.458579
13
0.041067
23
1.892516
33
4.435436
0
3DFACE
8
coconut_palm3_coconuts
10
0.043585
20
1.901397
30
4.474022
11
0.054840
21
1.886280
31
4.502632
12
0.047161
22
1.853303
32
4.484801
13
0.036934
23
1.872837
33
4.458579
0
3DFACE
8
coconut_palm3_coconuts
10
0.054840
20
1.886280
30
4.502632
11
0.075656
21
1.867706
31
4.522519
12
0.069005
22
1.839146
32
4.507077
13
0.047161
23
1.853303
33
4.484801
0
3DFACE
8
coconut_palm3_coconuts
10
0.075656
20
1.867706
30
4.522519
11
0.100455
21
1.850650
31
4.528351
12
0.096615
22
1.834161
32
4.519436
13
0.069005
23
1.839146
33
4.507077
0
3DFACE
8
coconut_palm3_coconuts
10
0.100455
20
1.850650
30
4.528351
11
0.122592
21
1.839683
31
4.518568
12
0.096615
22
1.834161
32
4.519436
13
0.096615
23
1.834161
33
4.519436
0
3DFACE
8
coconut_palm3_coconuts
10
0.328948
20
1.711659
30
4.306905
11
0.321577
21
1.701886
31
4.292198
12
0.341152
22
1.688248
32
4.303899
13
0.341152
23
1.688248
33
4.303899
0
3DFACE
8
coconut_palm3_coconuts
10
0.328948
20
1.711659
30
4.306905
11
0.304685
21
1.726552
31
4.318281
12
0.291919
22
1.709626
32
4.292809
13
0.321577
23
1.701886
33
4.292198
0
3DFACE
8
coconut_palm3_coconuts
10
0.304685
20
1.726552
30
4.318281
11
0.274864
21
1.728937
31
4.334978
12
0.260123
22
1.709392
32
4.305567
13
0.291919
23
1.709626
33
4.292809
0
3DFACE
8
coconut_palm3_coconuts
10
0.274864
20
1.728937
30
4.334978
11
0.247475
21
1.718175
31
4.352523
12
0.234709
22
1.701248
32
4.327052
13
0.260123
23
1.709392
33
4.305567
0
3DFACE
8
coconut_palm3_coconuts
10
0.247475
20
1.718175
30
4.352523
11
0.229858
21
1.697149
31
4.366214
12
0.222487
22
1.687376
32
4.351508
13
0.234709
23
1.701248
33
4.327052
0
3DFACE
8
coconut_palm3_coconuts
10
0.229858
20
1.697149
30
4.366214
11
0.226732
21
1.671493
31
4.372383
12
0.222487
22
1.687376
32
4.351508
13
0.222487
23
1.687376
33
4.351508
0
3DFACE
8
coconut_palm3_coconuts
10
0.321577
20
1.701886
30
4.292198
11
0.321183
21
1.683467
31
4.287035
12
0.341152
22
1.688248
32
4.303899
13
0.341152
23
1.688248
33
4.303899
0
3DFACE
8
coconut_palm3_coconuts
10
0.321577
20
1.701886
30
4.292198
11
0.291919
21
1.709626
31
4.292809
12
0.291235
22
1.677722
32
4.283862
13
0.321183
23
1.683467
33
4.287035
0
3DFACE
8
coconut_palm3_coconuts
10
0.291919
20
1.709626
30
4.292809
11
0.260123
21
1.709392
31
4.305567
12
0.259333
22
1.672552
32
4.295233
13
0.291235
23
1.677722
33
4.283862
0
3DFACE
8
coconut_palm3_coconuts
10
0.260123
20
1.709392
30
4.305567
11
0.234709
21
1.701248
31
4.327052
12
0.234026
22
1.669344
32
4.318104
13
0.259333
23
1.672552
33
4.295233
0
3DFACE
8
coconut_palm3_coconuts
10
0.234709
20
1.701248
30
4.327052
11
0.222487
21
1.687376
31
4.351508
12
0.222093
22
1.668957
32
4.346343
13
0.234026
23
1.669344
33
4.318104
0
3DFACE
8
coconut_palm3_coconuts
10
0.222487
20
1.687376
30
4.351508
11
0.226732
21
1.671493
31
4.372383
12
0.222093
22
1.668957
32
4.346343
13
0.222093
23
1.668957
33
4.346343
0
3DFACE
8
coconut_palm3_coconuts
10
0.321183
20
1.683467
30
4.287035
11
0.327996
21
1.667190
31
4.294434
12
0.341152
22
1.688248
32
4.303899
13
0.341152
23
1.688248
33
4.303899
0
3DFACE
8
coconut_palm3_coconuts
10
0.321183
20
1.683467
30
4.287035
11
0.291235
21
1.677722
31
4.283862
12
0.303036
22
1.649529
32
4.296679
13
0.327996
23
1.667190
33
4.294434
0
3DFACE
8
coconut_palm3_coconuts
10
0.291235
20
1.677722
30
4.283862
11
0.259333
21
1.672552
31
4.295233
12
0.272960
22
1.640000
32
4.310039
13
0.303036
23
1.649529
33
4.296679
0
3DFACE
8
coconut_palm3_coconuts
10
0.259333
20
1.672552
30
4.295233
11
0.234026
21
1.669344
31
4.318104
12
0.245826
22
1.641152
32
4.330923
13
0.272960
23
1.640000
33
4.310039
0
3DFACE
8
coconut_palm3_coconuts
10
0.234026
20
1.669344
30
4.318104
11
0.222093
21
1.668957
31
4.346343
12
0.228905
22
1.652679
32
4.353742
13
0.245826
23
1.641152
33
4.330923
0
3DFACE
8
coconut_palm3_coconuts
10
0.222093
20
1.668957
30
4.346343
11
0.226732
21
1.671493
31
4.372383
12
0.228905
22
1.652679
32
4.353742
13
0.228905
23
1.652679
33
4.353742
0
3DFACE
8
coconut_palm3_coconuts
10
0.327996
20
1.667190
30
4.294434
11
0.338026
21
1.662593
31
4.310069
12
0.341152
22
1.688248
32
4.303899
13
0.341152
23
1.688248
33
4.303899
0
3DFACE
8
coconut_palm3_coconuts
10
0.327996
20
1.667190
30
4.294434
11
0.303036
21
1.649529
31
4.296679
12
0.320408
22
1.641565
32
4.323759
13
0.338026
23
1.662593
33
4.310069
0
3DFACE
8
coconut_palm3_coconuts
10
0.303036
20
1.649529
30
4.296679
11
0.272960
21
1.640000
31
4.310039
12
0.293020
22
1.630803
32
4.341302
13
0.320408
23
1.641565
33
4.323759
0
3DFACE
8
coconut_palm3_coconuts
10
0.272960
20
1.640000
30
4.310039
11
0.245826
21
1.641152
31
4.330923
12
0.263199
22
1.633189
32
4.358001
13
0.293020
23
1.630803
33
4.341302
0
3DFACE
8
coconut_palm3_coconuts
10
0.245826
20
1.641152
30
4.330923
11
0.228905
21
1.652679
31
4.353742
12
0.238936
22
1.648081
32
4.369374
13
0.263199
23
1.633189
33
4.358001
0
3DFACE
8
coconut_palm3_coconuts
10
0.228905
20
1.652679
30
4.353742
11
0.226732
21
1.671493
31
4.372383
12
0.238936
22
1.648081
32
4.369374
13
0.238936
23
1.648081
33
4.369374
0
3DFACE
8
coconut_palm3_coconuts
10
0.338026
20
1.662593
30
4.310069
11
0.345397
21
1.672365
31
4.324775
12
0.341152
22
1.688248
32
4.303899
13
0.341152
23
1.688248
33
4.303899
0
3DFACE
8
coconut_palm3_coconuts
10
0.338026
20
1.662593
30
4.310069
11
0.320408
21
1.641565
31
4.323759
12
0.333175
22
1.658493
32
4.349231
13
0.345397
23
1.672365
33
4.324775
0
3DFACE
8
coconut_palm3_coconuts
10
0.320408
20
1.641565
30
4.323759
11
0.293020
21
1.630803
31
4.341302
12
0.307762
22
1.650349
32
4.370717
13
0.333175
23
1.658493
33
4.349231
0
3DFACE
8
coconut_palm3_coconuts
10
0.293020
20
1.630803
30
4.341302
11
0.263199
21
1.633189
31
4.358001
12
0.275965
22
1.650115
32
4.383471
13
0.307762
23
1.650349
33
4.370717
0
3DFACE
8
coconut_palm3_coconuts
10
0.263199
20
1.633189
30
4.358001
11
0.238936
21
1.648081
31
4.369374
12
0.246306
22
1.657854
32
4.384082
13
0.275965
23
1.650115
33
4.383471
0
3DFACE
8
coconut_palm3_coconuts
10
0.238936
20
1.648081
30
4.369374
11
0.226732
21
1.671493
31
4.372383
12
0.246306
22
1.657854
32
4.384082
13
0.246306
23
1.657854
33
4.384082
0
3DFACE
8
coconut_palm3_coconuts
10
0.345397
20
1.672365
30
4.324775
11
0.345792
21
1.690784
31
4.329939
12
0.341152
22
1.688248
32
4.303899
13
0.341152
23
1.688248
33
4.303899
0
3DFACE
8
coconut_palm3_coconuts
10
0.345397
20
1.672365
30
4.324775
11
0.333175
21
1.658493
31
4.349231
12
0.333858
22
1.690396
32
4.358177
13
0.345792
23
1.690784
33
4.329939
0
3DFACE
8
coconut_palm3_coconuts
10
0.333175
20
1.658493
30
4.349231
11
0.307762
21
1.650349
31
4.370717
12
0.308551
22
1.687189
32
4.381049
13
0.333858
23
1.690396
33
4.358177
0
3DFACE
8
coconut_palm3_coconuts
10
0.307762
20
1.650349
30
4.370717
11
0.275965
21
1.650115
31
4.383471
12
0.276649
22
1.682020
32
4.392420
13
0.308551
23
1.687189
33
4.381049
0
3DFACE
8
coconut_palm3_coconuts
10
0.275965
20
1.650115
30
4.383471
11
0.246306
21
1.657854
31
4.384082
12
0.246701
22
1.676274
32
4.389248
13
0.276649
23
1.682020
33
4.392420
0
3DFACE
8
coconut_palm3_coconuts
10
0.246306
20
1.657854
30
4.384082
11
0.226732
21
1.671493
31
4.372383
12
0.246701
22
1.676274
32
4.389248
13
0.246701
23
1.676274
33
4.389248
0
3DFACE
8
coconut_palm3_coconuts
10
0.345792
20
1.690784
30
4.329939
11
0.338979
21
1.707062
31
4.322539
12
0.341152
22
1.688248
32
4.303899
13
0.341152
23
1.688248
33
4.303899
0
3DFACE
8
coconut_palm3_coconuts
10
0.345792
20
1.690784
30
4.329939
11
0.333858
21
1.690396
31
4.358177
12
0.322058
22
1.718589
32
4.345360
13
0.338979
23
1.707062
33
4.322539
0
3DFACE
8
coconut_palm3_coconuts
10
0.333858
20
1.690396
30
4.358177
11
0.308551
21
1.687189
31
4.381049
12
0.294924
22
1.719741
32
4.366245
13
0.322058
23
1.718589
33
4.345360
0
3DFACE
8
coconut_palm3_coconuts
10
0.308551
20
1.687189
30
4.381049
11
0.276649
21
1.682020
31
4.392420
12
0.264848
22
1.710211
32
4.379601
13
0.294924
23
1.719741
33
4.366245
0
3DFACE
8
coconut_palm3_coconuts
10
0.276649
20
1.682020
30
4.392420
11
0.246701
21
1.676274
31
4.389248
12
0.239887
22
1.692550
32
4.381845
13
0.264848
23
1.710211
33
4.379601
0
3DFACE
8
coconut_palm3_coconuts
10
0.246701
20
1.676274
30
4.389248
11
0.226732
21
1.671493
31
4.372383
12
0.239887
22
1.692550
32
4.381845
13
0.239887
23
1.692550
33
4.381845
0
3DFACE
8
coconut_palm3_coconuts
10
0.338979
20
1.707062
30
4.322539
11
0.328948
21
1.711659
31
4.306905
12
0.341152
22
1.688248
32
4.303899
13
0.341152
23
1.688248
33
4.303899
0
3DFACE
8
coconut_palm3_coconuts
10
0.338979
20
1.707062
30
4.322539
11
0.322058
21
1.718589
31
4.345360
12
0.304685
22
1.726552
32
4.318281
13
0.328948
23
1.711659
33
4.306905
0
3DFACE
8
coconut_palm3_coconuts
10
0.322058
20
1.718589
30
4.345360
11
0.294924
21
1.719741
31
4.366245
12
0.274864
22
1.728937
32
4.334978
13
0.304685
23
1.726552
33
4.318281
0
3DFACE
8
coconut_palm3_coconuts
10
0.294924
20
1.719741
30
4.366245
11
0.264848
21
1.710211
31
4.379601
12
0.247475
22
1.718175
32
4.352523
13
0.274864
23
1.728937
33
4.334978
0
3DFACE
8
coconut_palm3_coconuts
10
0.264848
20
1.710211
30
4.379601
11
0.239887
21
1.692550
31
4.381845
12
0.229858
22
1.697149
32
4.366214
13
0.247475
23
1.718175
33
4.352523
0
3DFACE
8
coconut_palm3_coconuts
10
0.239887
20
1.692550
30
4.381845
11
0.226732
21
1.671493
31
4.372383
12
0.229858
22
1.697149
32
4.366214
13
0.229858
23
1.697149
33
4.366214
0
3DFACE
8
coconut_palm3_coconuts
10
0.187749
20
1.667366
30
4.433883
11
0.185656
21
1.649093
31
4.453060
12
0.172236
22
1.646579
32
4.439654
13
0.172236
23
1.646579
33
4.439654
0
3DFACE
8
coconut_palm3_coconuts
10
0.185656
20
1.649093
30
4.453060
11
0.192170
21
1.620469
31
4.461901
12
0.168926
22
1.616116
32
4.438683
13
0.172236
23
1.646579
33
4.439654
0
3DFACE
8
coconut_palm3_coconuts
10
0.192170
20
1.620469
30
4.461901
11
0.205546
21
1.589166
31
4.458039
12
0.178706
22
1.584139
32
4.431228
13
0.168926
23
1.616116
33
4.438683
0
3DFACE
8
coconut_palm3_coconuts
10
0.205546
20
1.589166
30
4.458039
11
0.222200
21
1.563569
31
4.442506
12
0.198956
22
1.559215
32
4.419288
13
0.178706
23
1.584139
33
4.431228
0
3DFACE
8
coconut_palm3_coconuts
10
0.222200
20
1.563569
30
4.442506
11
0.237669
21
1.550538
31
4.419467
12
0.224249
22
1.548025
32
4.406062
13
0.198956
23
1.559215
33
4.419288
0
3DFACE
8
coconut_palm3_coconuts
10
0.237669
20
1.550538
30
4.419467
11
0.247809
21
1.553565
31
4.395093
12
0.224249
22
1.548025
32
4.406062
13
0.224249
23
1.548025
33
4.406062
0
3DFACE
8
coconut_palm3_coconuts
10
0.187749
20
1.667366
30
4.433883
11
0.202659
21
1.657845
31
4.453709
12
0.185656
22
1.649093
32
4.453060
13
0.185656
23
1.649093
33
4.453060
0
3DFACE
8
coconut_palm3_coconuts
10
0.202659
20
1.657845
30
4.453709
11
0.221620
21
1.635628
31
4.463026
12
0.192170
22
1.620469
32
4.461901
13
0.185656
23
1.649093
33
4.453060
0
3DFACE
8
coconut_palm3_coconuts
10
0.221620
20
1.635628
30
4.463026
11
0.239552
21
1.606670
31
4.459338
12
0.205546
22
1.589166
32
4.458039
13
0.192170
23
1.620469
33
4.461901
0
3DFACE
8
coconut_palm3_coconuts
10
0.239552
20
1.606670
30
4.459338
11
0.251650
21
1.578728
31
4.443632
12
0.222200
22
1.563569
32
4.442506
13
0.205546
23
1.589166
33
4.458039
0
3DFACE
8
coconut_palm3_coconuts
10
0.251650
20
1.578728
30
4.443632
11
0.254672
21
1.559290
31
4.420116
12
0.237669
22
1.550538
32
4.419467
13
0.222200
23
1.563569
33
4.442506
0
3DFACE
8
coconut_palm3_coconuts
10
0.254672
20
1.559290
30
4.420116
11
0.247809
21
1.553565
31
4.395093
12
0.237669
22
1.550538
32
4.419467
13
0.237669
23
1.550538
33
4.419467
0
3DFACE
8
coconut_palm3_coconuts
10
0.187749
20
1.667366
30
4.433883
11
0.213284
21
1.667709
31
4.441223
12
0.202659
22
1.657845
32
4.453709
13
0.202659
23
1.657845
33
4.453709
0
3DFACE
8
coconut_palm3_coconuts
10
0.213284
20
1.667709
30
4.441223
11
0.240024
21
1.652713
31
4.441399
12
0.221620
22
1.635628
32
4.463026
13
0.202659
23
1.657845
33
4.453709
0
3DFACE
8
coconut_palm3_coconuts
10
0.240024
20
1.652713
30
4.441399
11
0.260803
21
1.626398
31
4.434365
12
0.239552
22
1.606670
32
4.459338
13
0.221620
23
1.635628
33
4.463026
0
3DFACE
8
coconut_palm3_coconuts
10
0.260803
20
1.626398
30
4.434365
11
0.270054
21
1.595813
31
4.422004
12
0.251650
22
1.578728
32
4.443632
13
0.239552
23
1.606670
33
4.459338
0
3DFACE
8
coconut_palm3_coconuts
10
0.270054
20
1.595813
30
4.422004
11
0.265298
21
1.569154
31
4.407630
12
0.254672
22
1.559290
32
4.420116
13
0.251650
23
1.578728
33
4.443632
0
3DFACE
8
coconut_palm3_coconuts
10
0.265298
20
1.569154
30
4.407630
11
0.247809
21
1.553565
31
4.395093
12
0.254672
22
1.559290
32
4.420116
13
0.254672
23
1.559290
33
4.420116
0
3DFACE
8
coconut_palm3_coconuts
10
0.187749
20
1.667366
30
4.433883
11
0.211308
21
1.672906
31
4.422914
12
0.213284
22
1.667709
32
4.441223
13
0.213284
23
1.667709
33
4.441223
0
3DFACE
8
coconut_palm3_coconuts
10
0.211308
20
1.672906
30
4.422914
11
0.236602
21
1.661716
31
4.409688
12
0.240024
22
1.652713
32
4.441399
13
0.213284
23
1.667709
33
4.441223
0
3DFACE
8
coconut_palm3_coconuts
10
0.236602
20
1.661716
30
4.409688
11
0.256851
21
1.636793
31
4.397748
12
0.260803
22
1.626398
32
4.434365
13
0.240024
23
1.652713
33
4.441399
0
3DFACE
8
coconut_palm3_coconuts
10
0.256851
20
1.636793
30
4.397748
11
0.266632
21
1.604815
31
4.390293
12
0.270054
22
1.595813
32
4.422004
13
0.260803
23
1.626398
33
4.434365
0
3DFACE
8
coconut_palm3_coconuts
10
0.266632
20
1.604815
30
4.390293
11
0.263322
21
1.574352
31
4.389321
12
0.265298
22
1.569154
32
4.407630
13
0.270054
23
1.595813
33
4.422004
0
3DFACE
8
coconut_palm3_coconuts
10
0.263322
20
1.574352
30
4.389321
11
0.247809
21
1.553565
31
4.395093
12
0.265298
22
1.569154
32
4.407630
13
0.265298
23
1.569154
33
4.407630
0
3DFACE
8
coconut_palm3_coconuts
10
0.187749
20
1.667366
30
4.433883
11
0.197888
21
1.670393
31
4.409508
12
0.211308
22
1.672906
32
4.422914
13
0.211308
23
1.672906
33
4.422914
0
3DFACE
8
coconut_palm3_coconuts
10
0.197888
20
1.670393
30
4.409508
11
0.213358
21
1.657362
31
4.386468
12
0.236602
22
1.661716
32
4.409688
13
0.211308
23
1.672906
33
4.422914
0
3DFACE
8
coconut_palm3_coconuts
10
0.213358
20
1.657362
30
4.386468
11
0.230011
21
1.631766
31
4.370937
12
0.256851
22
1.636793
32
4.397748
13
0.236602
23
1.661716
33
4.409688
0
3DFACE
8
coconut_palm3_coconuts
10
0.230011
20
1.631766
30
4.370937
11
0.243388
21
1.600462
31
4.367074
12
0.266632
22
1.604815
32
4.390293
13
0.256851
23
1.636793
33
4.397748
0
3DFACE
8
coconut_palm3_coconuts
10
0.243388
20
1.600462
30
4.367074
11
0.249902
21
1.571839
31
4.375916
12
0.263322
22
1.574352
32
4.389321
13
0.266632
23
1.604815
33
4.390293
0
3DFACE
8
coconut_palm3_coconuts
10
0.249902
20
1.571839
30
4.375916
11
0.247809
21
1.553565
31
4.395093
12
0.263322
22
1.574352
32
4.389321
13
0.263322
23
1.574352
33
4.389321
0
3DFACE
8
coconut_palm3_coconuts
10
0.187749
20
1.667366
30
4.433883
11
0.180886
21
1.661641
31
4.408859
12
0.197888
22
1.670393
32
4.409508
13
0.197888
23
1.670393
33
4.409508
0
3DFACE
8
coconut_palm3_coconuts
10
0.180886
20
1.661641
30
4.408859
11
0.183908
21
1.642203
31
4.385344
12
0.213358
22
1.657362
32
4.386468
13
0.197888
23
1.670393
33
4.409508
0
3DFACE
8
coconut_palm3_coconuts
10
0.183908
20
1.642203
30
4.385344
11
0.196006
21
1.614262
31
4.369638
12
0.230011
22
1.631766
32
4.370937
13
0.213358
23
1.657362
33
4.386468
0
3DFACE
8
coconut_palm3_coconuts
10
0.196006
20
1.614262
30
4.369638
11
0.213938
21
1.585303
31
4.365949
12
0.243388
22
1.600462
32
4.367074
13
0.230011
23
1.631766
33
4.370937
0
3DFACE
8
coconut_palm3_coconuts
10
0.213938
20
1.585303
30
4.365949
11
0.232899
21
1.563087
31
4.375267
12
0.249902
22
1.571839
32
4.375916
13
0.243388
23
1.600462
33
4.367074
0
3DFACE
8
coconut_palm3_coconuts
10
0.232899
20
1.563087
30
4.375267
11
0.247809
21
1.553565
31
4.395093
12
0.249902
22
1.571839
32
4.375916
13
0.249902
23
1.571839
33
4.375916
0
3DFACE
8
coconut_palm3_coconuts
10
0.187749
20
1.667366
30
4.433883
11
0.170260
21
1.651777
31
4.421345
12
0.180886
22
1.661641
32
4.408859
13
0.180886
23
1.661641
33
4.408859
0
3DFACE
8
coconut_palm3_coconuts
10
0.170260
20
1.651777
30
4.421345
11
0.165504
21
1.625118
31
4.406971
12
0.183908
22
1.642203
32
4.385344
13
0.180886
23
1.661641
33
4.408859
0
3DFACE
8
coconut_palm3_coconuts
10
0.165504
20
1.625118
30
4.406971
11
0.174755
21
1.594534
31
4.394611
12
0.196006
22
1.614262
32
4.369638
13
0.183908
23
1.642203
33
4.385344
0
3DFACE
8
coconut_palm3_coconuts
10
0.174755
20
1.594534
30
4.394611
11
0.195534
21
1.568218
31
4.387577
12
0.213938
22
1.585303
32
4.365949
13
0.196006
23
1.614262
33
4.369638
0
3DFACE
8
coconut_palm3_coconuts
10
0.195534
20
1.568218
30
4.387577
11
0.222274
21
1.553223
31
4.387753
12
0.232899
22
1.563087
32
4.375267
13
0.213938
23
1.585303
33
4.365949
0
3DFACE
8
coconut_palm3_coconuts
10
0.222274
20
1.553223
30
4.387753
11
0.247809
21
1.553565
31
4.395093
12
0.232899
22
1.563087
32
4.375267
13
0.232899
23
1.563087
33
4.375267
0
3DFACE
8
coconut_palm3_coconuts
10
0.187749
20
1.667366
30
4.433883
11
0.172236
21
1.646579
31
4.439654
12
0.170260
22
1.651777
32
4.421345
13
0.170260
23
1.651777
33
4.421345
0
3DFACE
8
coconut_palm3_coconuts
10
0.172236
20
1.646579
30
4.439654
11
0.168926
21
1.616116
31
4.438683
12
0.165504
22
1.625118
32
4.406971
13
0.170260
23
1.651777
33
4.421345
0
3DFACE
8
coconut_palm3_coconuts
10
0.168926
20
1.616116
30
4.438683
11
0.178706
21
1.584139
31
4.431228
12
0.174755
22
1.594534
32
4.394611
13
0.165504
23
1.625118
33
4.406971
0
3DFACE
8
coconut_palm3_coconuts
10
0.178706
20
1.584139
30
4.431228
11
0.198956
21
1.559215
31
4.419288
12
0.195534
22
1.568218
32
4.387577
13
0.174755
23
1.594534
33
4.394611
0
3DFACE
8
coconut_palm3_coconuts
10
0.198956
20
1.559215
30
4.419288
11
0.224249
21
1.548025
31
4.406062
12
0.222274
22
1.553223
32
4.387753
13
0.195534
23
1.568218
33
4.387577
0
3DFACE
8
coconut_palm3_coconuts
10
0.224249
20
1.548025
30
4.406062
11
0.247809
21
1.553565
31
4.395093
12
0.222274
22
1.553223
32
4.387753
13
0.222274
23
1.553223
33
4.387753
0
ENDSEC
0
EOF
