999
DXF file generated by Cheetah3D
0
SECTION
2
ENTITIES
0
3DFACE
8
coconut_palm2_trunk
10
0.158937
20
0.064215
30
0.000000
11
0.140653
21
-0.035069
31
0.000000
12
0.106417
22
-0.023364
32
0.500142
13
0.108102
23
0.046796
33
0.499700
0
3DFACE
8
coconut_palm2_trunk
10
0.140653
20
-0.035069
30
0.000000
11
0.099046
21
-0.118038
31
0.000000
12
0.069651
22
-0.079769
32
0.500502
13
0.106417
23
-0.023364
33
0.500142
0
3DFACE
8
coconut_palm2_trunk
10
0.099046
20
-0.118038
30
0.000000
11
0.010368
21
-0.148273
31
0.000000
12
0.008451
22
-0.116675
32
0.500744
13
0.069651
23
-0.079769
33
0.500502
0
3DFACE
8
coconut_palm2_trunk
10
0.010368
20
-0.148273
30
0.000000
11
-0.090086
21
-0.144168
31
0.000000
12
-0.063603
22
-0.098751
32
0.500641
13
0.008451
23
-0.116675
33
0.500744
0
3DFACE
8
coconut_palm2_trunk
10
-0.090086
20
-0.144168
30
0.000000
11
-0.157142
21
-0.063489
31
0.000000
12
-0.090052
22
-0.033263
32
0.500232
13
-0.063603
23
-0.098751
33
0.500641
0
3DFACE
8
coconut_palm2_trunk
10
-0.157142
20
-0.063489
30
0.000000
11
-0.171925
21
0.042866
31
0.000000
12
-0.105972
22
0.029587
32
0.499839
13
-0.090052
23
-0.033263
33
0.500232
0
3DFACE
8
coconut_palm2_trunk
10
-0.171925
20
0.042866
30
0.000000
11
-0.105356
21
0.125559
31
0.000000
12
-0.079342
22
0.097788
32
0.499405
13
-0.105972
23
0.029587
33
0.499839
0
3DFACE
8
coconut_palm2_trunk
10
-0.105356
20
0.125559
30
0.000000
11
-0.012181
21
0.174197
31
0.000000
12
-0.006739
22
0.100537
32
0.499378
13
-0.079342
23
0.097788
33
0.499405
0
3DFACE
8
coconut_palm2_trunk
10
-0.012181
20
0.174197
30
0.000000
11
0.074262
21
0.118844
31
0.000000
12
0.056445
22
0.093365
32
0.499414
13
-0.006739
23
0.100537
33
0.499378
0
3DFACE
8
coconut_palm2_trunk
10
0.074262
20
0.118844
30
0.000000
11
0.158937
21
0.064215
31
0.000000
12
0.108102
22
0.046796
32
0.499700
13
0.056445
23
0.093365
33
0.499414
0
3DFACE
8
coconut_palm2_trunk
10
0.108102
20
0.046796
30
0.499700
11
0.106417
21
-0.023364
31
0.500142
12
0.094532
22
-0.005187
32
1.000521
13
0.094905
23
0.058363
33
0.999314
0
3DFACE
8
coconut_palm2_trunk
10
0.106417
20
-0.023364
30
0.500142
11
0.069651
21
-0.079769
31
0.500502
12
0.058038
22
-0.053155
32
1.001340
13
0.094532
23
-0.005187
33
1.000521
0
3DFACE
8
coconut_palm2_trunk
10
0.069651
20
-0.079769
30
0.500502
11
0.008451
21
-0.116675
31
0.500744
12
0.004022
22
-0.074545
32
1.001611
13
0.058038
23
-0.053155
33
1.001340
0
3DFACE
8
coconut_palm2_trunk
10
0.008451
20
-0.116675
30
0.500744
11
-0.063603
21
-0.098751
31
0.500641
12
-0.055941
22
-0.066478
32
1.001306
13
0.004022
23
-0.074545
33
1.001611
0
3DFACE
8
coconut_palm2_trunk
10
-0.063603
20
-0.098751
30
0.500641
11
-0.090052
21
-0.033263
31
0.500232
12
-0.087831
22
-0.015467
32
1.000256
13
-0.055941
23
-0.066478
33
1.001306
0
3DFACE
8
coconut_palm2_trunk
10
-0.090052
20
-0.033263
30
0.500232
11
-0.105972
21
0.029587
31
0.499839
12
-0.104712
22
0.044467
32
0.999074
13
-0.087831
23
-0.015467
33
1.000256
0
3DFACE
8
coconut_palm2_trunk
10
-0.105972
20
0.029587
30
0.499839
11
-0.079342
21
0.097788
31
0.499405
12
-0.077435
22
0.108254
32
0.997931
13
-0.104712
23
0.044467
33
0.999074
0
3DFACE
8
coconut_palm2_trunk
10
-0.079342
20
0.097788
30
0.499405
11
-0.006739
21
0.100537
31
0.499378
12
-0.009702
22
0.121626
32
0.997848
13
-0.077435
23
0.108254
33
0.997931
0
3DFACE
8
coconut_palm2_trunk
10
-0.006739
20
0.100537
30
0.499378
11
0.056445
21
0.093365
31
0.499414
12
0.049043
22
0.101514
32
0.998378
13
-0.009702
23
0.121626
33
0.997848
0
3DFACE
8
coconut_palm2_trunk
10
0.056445
20
0.093365
30
0.499414
11
0.108102
21
0.046796
31
0.499700
12
0.094905
22
0.058363
32
0.999314
13
0.049043
23
0.101514
33
0.998378
0
3DFACE
8
coconut_palm2_trunk
10
0.094905
20
0.058363
30
0.999314
11
0.094532
21
-0.005187
31
1.000521
12
0.096866
22
0.031192
32
1.500345
13
0.087100
23
0.094859
33
1.497882
0
3DFACE
8
coconut_palm2_trunk
10
0.094532
20
-0.005187
30
1.000521
11
0.058038
21
-0.053155
31
1.001340
12
0.053953
22
-0.015231
32
1.501917
13
0.096866
23
0.031192
33
1.500345
0
3DFACE
8
coconut_palm2_trunk
10
0.058038
20
-0.053155
30
1.001340
11
0.004022
21
-0.074545
31
1.001611
12
0.000241
22
-0.041948
32
1.502693
13
0.053953
23
-0.015231
33
1.501917
0
3DFACE
8
coconut_palm2_trunk
10
0.004022
20
-0.074545
30
1.001611
11
-0.055941
21
-0.066478
31
1.001306
12
-0.062072
22
-0.031630
32
1.502023
13
0.000241
23
-0.041948
33
1.502693
0
3DFACE
8
coconut_palm2_trunk
10
-0.055941
20
-0.066478
30
1.001306
11
-0.087831
21
-0.015467
31
1.000256
12
-0.092798
22
0.022176
32
1.499841
13
-0.062072
23
-0.031630
33
1.502023
0
3DFACE
8
coconut_palm2_trunk
10
-0.087831
20
-0.015467
30
1.000256
11
-0.104712
21
0.044467
31
0.999074
12
-0.117647
22
0.084579
32
1.497358
13
-0.092798
23
0.022176
33
1.499841
0
3DFACE
8
coconut_palm2_trunk
10
-0.104712
20
0.044467
30
0.999074
11
-0.077435
21
0.108254
31
0.997931
12
-0.078391
22
0.142322
32
1.495339
13
-0.117647
23
0.084579
33
1.497358
0
3DFACE
8
coconut_palm2_trunk
10
-0.077435
20
0.108254
30
0.997931
11
-0.009702
21
0.121626
31
0.997848
12
-0.012958
22
0.146390
32
1.495476
13
-0.078391
23
0.142322
33
1.495339
0
3DFACE
8
coconut_palm2_trunk
10
-0.009702
20
0.121626
30
0.997848
11
0.049043
21
0.101514
31
0.998378
12
0.048877
22
0.145860
32
1.495773
13
-0.012958
23
0.146390
33
1.495476
0
3DFACE
8
coconut_palm2_trunk
10
0.049043
20
0.101514
30
0.998378
11
0.094905
21
0.058363
31
0.999314
12
0.087100
22
0.094859
32
1.497882
13
0.048877
23
0.145860
33
1.495773
0
3DFACE
8
coconut_palm2_trunk
10
0.087100
20
0.094859
30
1.497882
11
0.096866
21
0.031192
31
1.500345
12
0.064914
22
0.108884
32
1.998224
13
0.062201
23
0.167690
33
1.994307
0
3DFACE
8
coconut_palm2_trunk
10
0.096866
20
0.031192
30
1.500345
11
0.053953
21
-0.015231
31
1.501917
12
0.034294
22
0.058863
32
2.001111
13
0.064914
23
0.108884
33
1.998224
0
3DFACE
8
coconut_palm2_trunk
10
0.053953
20
-0.015231
30
1.501917
11
0.000241
21
-0.041948
31
1.502693
12
-0.020596
22
0.040763
32
2.001563
13
0.034294
23
0.058863
33
2.001111
0
3DFACE
8
coconut_palm2_trunk
10
0.000241
20
-0.041948
30
1.502693
11
-0.062072
21
-0.031630
31
1.502023
12
-0.079763
22
0.047303
32
2.000332
13
-0.020596
23
0.040763
33
2.001563
0
3DFACE
8
coconut_palm2_trunk
10
-0.062072
20
-0.031630
30
1.502023
11
-0.092798
21
0.022176
31
1.499841
12
-0.115077
22
0.096065
32
1.996638
13
-0.079763
23
0.047303
33
2.000332
0
3DFACE
8
coconut_palm2_trunk
10
-0.092798
20
0.022176
30
1.499841
11
-0.117647
21
0.084579
31
1.497358
12
-0.117738
22
0.154175
32
1.992767
13
-0.115077
23
0.096065
33
1.996638
0
3DFACE
8
coconut_palm2_trunk
10
-0.117647
20
0.084579
30
1.497358
11
-0.078391
21
0.142322
31
1.495339
12
-0.084453
22
0.199992
32
1.990194
13
-0.117738
23
0.154175
33
1.992767
0
3DFACE
8
coconut_palm2_trunk
10
-0.078391
20
0.142322
30
1.495339
11
-0.012958
21
0.146390
31
1.495476
12
-0.033048
22
0.218552
32
1.989664
13
-0.084453
23
0.199992
33
1.990194
0
3DFACE
8
coconut_palm2_trunk
10
-0.012958
20
0.146390
30
1.495476
11
0.048877
21
0.145860
31
1.495773
12
0.021813
22
0.209596
32
1.990996
13
-0.033048
23
0.218552
33
1.989664
0
3DFACE
8
coconut_palm2_trunk
10
0.048877
20
0.145860
30
1.495773
11
0.087100
21
0.094859
31
1.497882
12
0.062201
22
0.167690
32
1.994307
13
0.021813
23
0.209596
33
1.990996
0
3DFACE
8
coconut_palm2_trunk
10
0.062201
20
0.167690
30
1.994307
11
0.064914
21
0.108884
31
1.998224
12
0.003003
22
0.231897
32
2.490530
13
0.020554
23
0.289908
33
2.485200
0
3DFACE
8
coconut_palm2_trunk
10
0.064914
20
0.108884
30
1.998224
11
0.034294
21
0.058863
31
2.001111
12
-0.013642
22
0.178064
32
2.495464
13
0.003003
23
0.231897
33
2.490530
0
3DFACE
8
coconut_palm2_trunk
10
0.034294
20
0.058863
30
2.001111
11
-0.020596
21
0.040763
31
2.001563
12
-0.068377
22
0.151102
32
2.496530
13
-0.013642
23
0.178064
33
2.495464
0
3DFACE
8
coconut_palm2_trunk
10
-0.020596
20
0.040763
30
2.001563
11
-0.079763
21
0.047303
31
2.000332
12
-0.119308
22
0.181111
32
2.491956
13
-0.068377
23
0.151102
33
2.496530
0
3DFACE
8
coconut_palm2_trunk
10
-0.079763
20
0.047303
30
2.000332
11
-0.115077
21
0.096065
31
1.996638
12
-0.166112
22
0.214490
32
2.487166
13
-0.119308
23
0.181111
33
2.491956
0
3DFACE
8
coconut_palm2_trunk
10
-0.115077
20
0.096065
30
1.996638
11
-0.117738
21
0.154175
31
1.992767
12
-0.163185
22
0.272814
32
2.481362
13
-0.166112
23
0.214490
33
2.487166
0
3DFACE
8
coconut_palm2_trunk
10
-0.117738
20
0.154175
30
1.992767
11
-0.084453
21
0.199992
31
1.990194
12
-0.140414
22
0.328371
32
2.476439
13
-0.163185
23
0.272814
33
2.481362
0
3DFACE
8
coconut_palm2_trunk
10
-0.084453
20
0.199992
30
1.990194
11
-0.033048
21
0.218552
31
1.989664
12
-0.081990
22
0.347671
32
2.476259
13
-0.140414
23
0.328371
33
2.476439
0
3DFACE
8
coconut_palm2_trunk
10
-0.033048
20
0.218552
30
1.989664
11
0.021813
21
0.209596
31
1.990996
12
-0.029766
22
0.323698
32
2.480263
13
-0.081990
23
0.347671
33
2.476259
0
3DFACE
8
coconut_palm2_trunk
10
0.021813
20
0.209596
30
1.990996
11
0.062201
21
0.167690
31
1.994307
12
0.020554
22
0.289908
32
2.485200
13
-0.029766
23
0.323698
33
2.480263
0
3DFACE
8
coconut_palm2_trunk
10
0.020554
20
0.289908
30
2.485200
11
0.003003
21
0.231897
31
2.490530
12
-0.064520
22
0.401954
32
2.973567
13
-0.061231
23
0.458745
33
2.965638
0
3DFACE
8
coconut_palm2_trunk
10
0.003003
20
0.231897
30
2.490530
11
-0.013642
21
0.178064
31
2.495464
12
-0.092970
22
0.355175
32
2.978794
13
-0.064520
23
0.401954
33
2.973567
0
3DFACE
8
coconut_palm2_trunk
10
-0.013642
20
0.178064
30
2.495464
11
-0.068377
21
0.151102
31
2.496530
12
-0.143760
22
0.327348
32
2.980188
13
-0.092970
23
0.355175
33
2.978794
0
3DFACE
8
coconut_palm2_trunk
10
-0.068377
20
0.151102
30
2.496530
11
-0.119308
21
0.181111
31
2.491956
12
-0.193230
22
0.354699
32
2.973785
13
-0.143760
23
0.327348
33
2.980188
0
3DFACE
8
coconut_palm2_trunk
10
-0.119308
20
0.181111
30
2.491956
11
-0.166112
21
0.214490
31
2.487166
12
-0.234296
22
0.388823
32
2.966842
13
-0.193230
23
0.354699
33
2.973785
0
3DFACE
8
coconut_palm2_trunk
10
-0.166112
20
0.214490
30
2.487166
11
-0.163185
21
0.272814
31
2.481362
12
-0.233889
22
0.443161
32
2.959117
13
-0.234296
23
0.388823
33
2.966842
0
3DFACE
8
coconut_palm2_trunk
10
-0.163185
20
0.272814
30
2.481362
11
-0.140414
21
0.328371
31
2.476439
12
-0.207339
22
0.490317
32
2.953740
13
-0.233889
23
0.443161
33
2.959117
0
3DFACE
8
coconut_palm2_trunk
10
-0.140414
20
0.328371
30
2.476439
11
-0.081990
21
0.347671
31
2.476259
12
-0.155885
22
0.507061
32
2.953959
13
-0.207339
23
0.490317
33
2.953740
0
3DFACE
8
coconut_palm2_trunk
10
-0.081990
20
0.347671
30
2.476259
11
-0.029766
21
0.323698
31
2.480263
12
-0.102273
22
0.498648
32
2.957873
13
-0.155885
23
0.507061
33
2.953959
0
3DFACE
8
coconut_palm2_trunk
10
-0.029766
20
0.323698
30
2.480263
11
0.020554
21
0.289908
31
2.485200
12
-0.061231
22
0.458745
32
2.965638
13
-0.102273
23
0.498648
33
2.957873
0
3DFACE
8
coconut_palm2_trunk
10
-0.061231
20
0.458745
30
2.965638
11
-0.064520
21
0.401954
31
2.973567
12
-0.112337
22
0.654863
32
3.437162
13
-0.099077
23
0.706496
33
3.427758
0
3DFACE
8
coconut_palm2_trunk
10
-0.064520
20
0.401954
30
2.973567
11
-0.092970
21
0.355175
31
2.978794
12
-0.134545
22
0.613747
32
3.444023
13
-0.112337
23
0.654863
33
3.437162
0
3DFACE
8
coconut_palm2_trunk
10
-0.092970
20
0.355175
30
2.978794
11
-0.143760
21
0.327348
31
2.980188
12
-0.178457
22
0.584478
32
3.447396
13
-0.134545
23
0.613747
33
3.444023
0
3DFACE
8
coconut_palm2_trunk
10
-0.143760
20
0.327348
30
2.980188
11
-0.193230
21
0.354699
31
2.973785
12
-0.231898
22
0.597350
32
3.442000
13
-0.178457
23
0.584478
33
3.447396
0
3DFACE
8
coconut_palm2_trunk
10
-0.193230
20
0.354699
30
2.973785
11
-0.234296
21
0.388823
31
2.966842
12
-0.258872
22
0.641935
32
3.431815
13
-0.231898
23
0.597350
33
3.442000
0
3DFACE
8
coconut_palm2_trunk
10
-0.234296
20
0.388823
30
2.966842
11
-0.233889
21
0.443161
31
2.959117
12
-0.255258
22
0.688844
32
3.422818
13
-0.258872
23
0.641935
33
3.431815
0
3DFACE
8
coconut_palm2_trunk
10
-0.233889
20
0.443161
30
2.959117
11
-0.207339
21
0.490317
31
2.953740
12
-0.243897
22
0.741426
32
3.413127
13
-0.255258
23
0.688844
33
3.422818
0
3DFACE
8
coconut_palm2_trunk
10
-0.207339
20
0.490317
30
2.953740
11
-0.155885
21
0.507061
31
2.953959
12
-0.189577
22
0.747113
32
3.414934
13
-0.243897
23
0.741426
33
3.413127
0
3DFACE
8
coconut_palm2_trunk
10
-0.155885
20
0.507061
30
2.953959
11
-0.102273
21
0.498648
31
2.957873
12
-0.139367
22
0.742917
32
3.418456
13
-0.189577
23
0.747113
33
3.414934
0
3DFACE
8
coconut_palm2_trunk
10
-0.102273
20
0.498648
30
2.957873
11
-0.061231
21
0.458745
31
2.965638
12
-0.099077
22
0.706496
32
3.427758
13
-0.139367
23
0.742917
33
3.418456
0
3DFACE
8
coconut_palm2_trunk
10
-0.099077
20
0.706496
30
3.427758
11
-0.112337
21
0.654863
31
3.437162
12
-0.119195
22
0.943389
32
3.886204
13
-0.127252
23
0.990766
33
3.874039
0
3DFACE
8
coconut_palm2_trunk
10
-0.112337
20
0.654863
30
3.437162
11
-0.134545
21
0.613747
31
3.444023
12
-0.148462
22
0.903876
32
3.894504
13
-0.119195
23
0.943389
33
3.886204
0
3DFACE
8
coconut_palm2_trunk
10
-0.134545
20
0.613747
30
3.444023
11
-0.178457
21
0.584478
31
3.447396
12
-0.192876
22
0.876874
32
3.898923
13
-0.148462
23
0.903876
33
3.894504
0
3DFACE
8
coconut_palm2_trunk
10
-0.178457
20
0.584478
30
3.447396
11
-0.231898
21
0.597350
31
3.442000
12
-0.242221
22
0.894058
32
3.892128
13
-0.192876
23
0.876874
33
3.898923
0
3DFACE
8
coconut_palm2_trunk
10
-0.231898
20
0.597350
30
3.442000
11
-0.258872
21
0.641935
31
3.431815
12
-0.273313
22
0.931754
32
3.881183
13
-0.242221
23
0.894058
33
3.892128
0
3DFACE
8
coconut_palm2_trunk
10
-0.258872
20
0.641935
30
3.431815
11
-0.255258
21
0.688844
31
3.422818
12
-0.267608
22
0.977650
32
3.870091
13
-0.273313
23
0.931754
33
3.881183
0
3DFACE
8
coconut_palm2_trunk
10
-0.255258
20
0.688844
30
3.422818
11
-0.243897
21
0.741426
31
3.413127
12
-0.244487
22
1.014052
32
3.862248
13
-0.267608
23
0.977650
33
3.870091
0
3DFACE
8
coconut_palm2_trunk
10
-0.243897
20
0.741426
30
3.413127
11
-0.189577
21
0.747113
31
3.414934
12
-0.205004
22
1.046546
32
3.856215
13
-0.244487
23
1.014052
33
3.862248
0
3DFACE
8
coconut_palm2_trunk
10
-0.189577
20
0.747113
30
3.414934
11
-0.139367
21
0.742917
31
3.418456
12
-0.162395
22
1.019016
32
3.865229
13
-0.205004
23
1.046546
33
3.856215
0
3DFACE
8
coconut_palm2_trunk
10
-0.139367
20
0.742917
30
3.418456
11
-0.099077
21
0.706496
31
3.427758
12
-0.127252
22
0.990766
32
3.874039
13
-0.162395
23
1.019016
33
3.865229
0
3DFACE
8
coconut_palm2_trunk
10
-0.127252
20
0.990766
30
3.874039
11
-0.119195
21
0.943389
31
3.886204
12
-0.210191
22
1.345649
32
4.291089
13
-0.205118
23
1.429409
33
4.264544
0
3DFACE
8
coconut_palm2_trunk
10
-0.119195
20
0.943389
30
3.886204
11
-0.148462
21
0.903876
31
3.894504
12
-0.248995
22
1.270588
32
4.312141
13
-0.210191
23
1.345649
33
4.291089
0
3DFACE
8
coconut_palm2_trunk
10
-0.148462
20
0.903876
30
3.894504
11
-0.192876
21
0.876874
31
3.898923
12
-0.332702
22
1.249416
32
4.312265
13
-0.248995
23
1.270588
33
4.312141
0
3DFACE
8
coconut_palm2_trunk
10
-0.192876
20
0.876874
30
3.898923
11
-0.242221
21
0.894058
31
3.892128
12
-0.409244
22
1.270005
32
4.299525
13
-0.332702
23
1.249416
33
4.312265
0
3DFACE
8
coconut_palm2_trunk
10
-0.242221
20
0.894058
30
3.892128
11
-0.273313
21
0.931754
31
3.881183
12
-0.473160
22
1.321113
32
4.277974
13
-0.409244
23
1.270005
33
4.299525
0
3DFACE
8
coconut_palm2_trunk
10
-0.273313
20
0.931754
30
3.881183
11
-0.267608
21
0.977650
31
3.870091
12
-0.460084
22
1.400451
32
4.253489
13
-0.473160
23
1.321113
33
4.277974
0
3DFACE
8
coconut_palm2_trunk
10
-0.267608
20
0.977650
30
3.870091
11
-0.244487
21
1.014052
31
3.862248
12
-0.424515
22
1.468031
32
4.234586
13
-0.460084
23
1.400451
33
4.253489
0
3DFACE
8
coconut_palm2_trunk
10
-0.244487
20
1.014052
30
3.862248
11
-0.205004
21
1.046546
31
3.856215
12
-0.349640
22
1.496260
32
4.231485
13
-0.424515
23
1.468031
33
4.234586
0
3DFACE
8
coconut_palm2_trunk
10
-0.205004
20
1.046546
30
3.856215
11
-0.162395
21
1.019016
31
3.865229
12
-0.265036
22
1.491498
32
4.239778
13
-0.349640
23
1.496260
33
4.231485
0
3DFACE
8
coconut_palm2_trunk
10
-0.162395
20
1.019016
30
3.865229
11
-0.127252
21
0.990766
31
3.874039
12
-0.205118
22
1.429409
32
4.264544
13
-0.265036
23
1.491498
33
4.239778
0
3DFACE
8
coconut_palm2_trunk
10
-0.205118
20
1.429409
30
4.264544
11
-0.210191
21
1.345649
31
4.291089
12
-0.443941
22
1.789045
32
4.647831
13
-0.442189
23
1.795710
33
4.645432
0
3DFACE
8
coconut_palm2_trunk
10
-0.210191
20
1.345649
30
4.291089
11
-0.248995
21
1.270588
31
4.312141
12
-0.446535
22
1.783209
32
4.649828
13
-0.443941
23
1.789045
33
4.647831
0
3DFACE
8
coconut_palm2_trunk
10
-0.248995
20
1.270588
30
4.312141
11
-0.332702
21
1.249416
31
4.312265
12
-0.453024
22
1.781311
32
4.649926
13
-0.446535
23
1.783209
33
4.649828
0
3DFACE
8
coconut_palm2_trunk
10
-0.332702
20
1.249416
30
4.312265
11
-0.409244
21
1.270005
31
4.299525
12
-0.459855
22
1.781747
32
4.649091
13
-0.453024
23
1.781311
33
4.649926
0
3DFACE
8
coconut_palm2_trunk
10
-0.409244
20
1.270005
30
4.299525
11
-0.473160
21
1.321113
31
4.277974
12
-0.463188
22
1.787226
32
4.646653
13
-0.459855
23
1.781747
33
4.649091
0
3DFACE
8
coconut_palm2_trunk
10
-0.473160
20
1.321113
30
4.277974
11
-0.460084
21
1.400451
31
4.253489
12
-0.464231
22
1.793255
32
4.644227
13
-0.463188
23
1.787226
33
4.646653
0
3DFACE
8
coconut_palm2_trunk
10
-0.460084
20
1.400451
30
4.253489
11
-0.424515
21
1.468031
31
4.234586
12
-0.461078
22
1.799194
32
4.642245
13
-0.464231
23
1.793255
33
4.644227
0
3DFACE
8
coconut_palm2_trunk
10
-0.424515
20
1.468031
30
4.234586
11
-0.349640
21
1.496260
31
4.231485
12
-0.454437
22
1.802211
32
4.641731
13
-0.461078
23
1.799194
33
4.642245
0
3DFACE
8
coconut_palm2_trunk
10
-0.349640
20
1.496260
30
4.231485
11
-0.265036
21
1.491498
31
4.239778
12
-0.447640
22
1.800192
32
4.643173
13
-0.454437
23
1.802211
33
4.641731
0
3DFACE
8
coconut_palm2_trunk
10
-0.265036
20
1.491498
30
4.239778
11
-0.205118
21
1.429409
31
4.264544
12
-0.442189
22
1.795710
32
4.645432
13
-0.447640
23
1.800192
33
4.643173
0
3DFACE
8
coconut_palm2_trunk
10
-0.442189
20
1.795710
30
4.645432
11
-0.443941
21
1.789045
31
4.647831
12
-0.453612
22
1.791310
32
4.646014
13
-0.453612
23
1.791310
33
4.646014
0
3DFACE
8
coconut_palm2_trunk
10
-0.443941
20
1.789045
30
4.647831
11
-0.446535
21
1.783209
31
4.649828
12
-0.453612
22
1.791310
32
4.646014
13
-0.453612
23
1.791310
33
4.646014
0
3DFACE
8
coconut_palm2_trunk
10
-0.446535
20
1.783209
30
4.649828
11
-0.453024
21
1.781311
31
4.649926
12
-0.453612
22
1.791310
32
4.646014
13
-0.453612
23
1.791310
33
4.646014
0
3DFACE
8
coconut_palm2_trunk
10
-0.453024
20
1.781311
30
4.649926
11
-0.459855
21
1.781747
31
4.649091
12
-0.453612
22
1.791310
32
4.646014
13
-0.453612
23
1.791310
33
4.646014
0
3DFACE
8
coconut_palm2_trunk
10
-0.459855
20
1.781747
30
4.649091
11
-0.463188
21
1.787226
31
4.646653
12
-0.453612
22
1.791310
32
4.646014
13
-0.453612
23
1.791310
33
4.646014
0
3DFACE
8
coconut_palm2_trunk
10
-0.463188
20
1.787226
30
4.646653
11
-0.464231
21
1.793255
31
4.644227
12
-0.453612
22
1.791310
32
4.646014
13
-0.453612
23
1.791310
33
4.646014
0
3DFACE
8
coconut_palm2_trunk
10
-0.464231
20
1.793255
30
4.644227
11
-0.461078
21
1.799194
31
4.642245
12
-0.453612
22
1.791310
32
4.646014
13
-0.453612
23
1.791310
33
4.646014
0
3DFACE
8
coconut_palm2_trunk
10
-0.461078
20
1.799194
30
4.642245
11
-0.454437
21
1.802211
31
4.641731
12
-0.453612
22
1.791310
32
4.646014
13
-0.453612
23
1.791310
33
4.646014
0
3DFACE
8
coconut_palm2_trunk
10
-0.454437
20
1.802211
30
4.641731
11
-0.447640
21
1.800192
31
4.643173
12
-0.453612
22
1.791310
32
4.646014
13
-0.453612
23
1.791310
33
4.646014
0
3DFACE
8
coconut_palm2_trunk
10
-0.447640
20
1.800192
30
4.643173
11
-0.442189
21
1.795710
31
4.645432
12
-0.453612
22
1.791310
32
4.646014
13
-0.453612
23
1.791310
33
4.646014
0
3DFACE
8
coconut_palm2_leaves
10
-0.717857
20
1.877825
30
5.156677
11
-0.499336
21
1.526406
31
5.299927
12
-0.631030
22
1.621016
32
5.695003
13
-0.849551
23
1.972436
33
5.551753
0
3DFACE
8
coconut_palm2_leaves
10
-0.601246
20
1.794050
30
4.754930
11
-0.382725
21
1.442631
31
4.898180
12
-0.499336
22
1.526406
32
5.299927
13
-0.717857
23
1.877825
33
5.156677
0
3DFACE
8
coconut_palm2_leaves
10
-0.493361
20
1.716545
30
4.349583
11
-0.274840
21
1.365126
31
4.492833
12
-0.382725
22
1.442631
32
4.898180
13
-0.601246
23
1.794050
33
4.754930
0
3DFACE
8
coconut_palm2_leaves
10
-0.608597
20
1.702115
30
5.228302
11
-0.432262
21
1.826113
31
5.252926
12
-0.570057
22
1.925106
32
5.647158
13
-0.740291
23
1.796726
33
5.623378
0
3DFACE
8
coconut_palm2_leaves
10
-0.790640
20
1.582219
30
5.201253
11
-0.608597
21
1.702115
31
5.228302
12
-0.740291
22
1.796726
32
5.623378
13
-0.927386
23
1.680459
33
5.591910
0
3DFACE
8
coconut_palm2_leaves
10
-0.491986
20
1.618341
30
4.826555
11
-0.312944
21
1.740393
31
4.850990
12
-0.432262
22
1.826113
32
5.252926
13
-0.608597
23
1.702115
33
5.228302
0
3DFACE
8
coconut_palm2_leaves
10
-0.671985
20
1.496977
30
4.801732
11
-0.491986
21
1.618341
31
4.826555
12
-0.608597
22
1.702115
32
5.228302
13
-0.790640
23
1.582219
33
5.201253
0
3DFACE
8
coconut_palm2_leaves
10
-0.384101
20
1.540835
30
4.421208
11
-0.204420
21
1.662428
31
4.445230
12
-0.312944
22
1.740393
32
4.850990
13
-0.491986
23
1.618341
33
4.826555
0
3DFACE
8
coconut_palm2_leaves
10
-0.563781
20
1.419242
30
4.397186
11
-0.384101
21
1.540835
31
4.421208
12
-0.491986
22
1.618341
32
4.826555
13
-0.671985
23
1.496977
33
4.801732
0
3DFACE
8
coconut_palm2_leaves
10
-0.293427
20
2.134100
30
3.748591
11
-0.451512
21
1.739068
31
3.699909
12
-0.461566
22
1.686538
32
3.252326
13
-0.303482
23
2.081570
33
3.301008
0
3DFACE
8
coconut_palm2_leaves
10
-0.309984
20
2.047600
30
4.175019
11
-0.468068
21
1.652568
31
4.126338
12
-0.451512
22
1.739068
32
3.699909
13
-0.293427
23
2.134100
33
3.748591
0
3DFACE
8
coconut_palm2_leaves
10
-0.343005
20
1.875085
30
4.568270
11
-0.501089
21
1.480053
31
4.519588
12
-0.468068
22
1.652568
32
4.126338
13
-0.309984
23
2.047600
33
4.175019
0
3DFACE
8
coconut_palm2_leaves
10
-0.372469
20
1.936584
30
3.724250
11
-0.582401
21
1.989223
31
3.727608
12
-0.600369
22
1.895345
32
3.279927
13
-0.382524
23
1.884054
33
3.276667
0
3DFACE
8
coconut_palm2_leaves
10
-0.173280
20
1.827826
30
3.704430
11
-0.372469
21
1.936584
31
3.724250
12
-0.382524
22
1.884054
32
3.276667
13
-0.191579
23
1.732226
33
3.270813
0
3DFACE
8
coconut_palm2_leaves
10
-0.389026
20
1.850084
30
4.150679
11
-0.594839
21
1.924235
31
4.165395
12
-0.582401
22
1.989223
32
3.727608
13
-0.372469
23
1.936584
33
3.724250
0
3DFACE
8
coconut_palm2_leaves
10
-0.185030
20
1.766438
30
4.131721
11
-0.389026
21
1.850084
31
4.150679
12
-0.372469
22
1.936584
32
3.724250
13
-0.173280
23
1.827826
33
3.704430
0
3DFACE
8
coconut_palm2_leaves
10
-0.422047
20
1.677569
30
4.543929
11
-0.627183
21
1.755256
31
4.563376
12
-0.594839
22
1.924235
32
4.165395
13
-0.389026
23
1.850084
33
4.150679
0
3DFACE
8
coconut_palm2_leaves
10
-0.216910
20
1.599882
30
4.524482
11
-0.422047
21
1.677569
31
4.543929
12
-0.389026
22
1.850084
32
4.150679
13
-0.185030
23
1.766438
33
4.131721
0
3DFACE
8
coconut_palm2_leaves
10
-0.857703
20
1.916847
30
4.944370
11
-0.872325
21
1.571425
31
5.029391
12
-1.127598
22
1.644556
32
5.254848
13
-1.112977
23
1.989978
33
5.169827
0
3DFACE
8
coconut_palm2_leaves
10
-0.621473
20
1.849173
30
4.698973
11
-0.636094
21
1.503751
31
4.783994
12
-0.872325
22
1.571425
32
5.029391
13
-0.857703
23
1.916847
33
4.944370
0
3DFACE
8
coconut_palm2_leaves
10
-0.396546
20
1.784736
30
4.442591
11
-0.411168
21
1.439314
31
4.527612
12
-0.636094
22
1.503751
32
4.783994
13
-0.621473
23
1.849173
33
4.698973
0
3DFACE
8
coconut_palm2_leaves
10
-0.865014
20
1.744136
30
4.986880
11
-0.736150
21
1.768073
31
5.100425
12
-1.001690
22
1.844145
32
5.324428
13
-1.120288
23
1.817267
33
5.212337
0
3DFACE
8
coconut_palm2_leaves
10
-0.999829
20
1.721905
30
4.867379
11
-0.865014
21
1.744136
31
4.986880
12
-1.120288
22
1.817267
32
5.212337
13
-1.256022
23
1.795298
33
5.081741
0
3DFACE
8
coconut_palm2_leaves
10
-0.628783
20
1.676461
30
4.741483
11
-0.494437
21
1.698828
31
4.854193
12
-0.736150
22
1.768073
32
5.100425
13
-0.865014
23
1.744136
33
4.986880
0
3DFACE
8
coconut_palm2_leaves
10
-0.764147
20
1.654387
30
4.627806
11
-0.628783
21
1.676461
31
4.741483
12
-0.865014
22
1.744136
32
4.986880
13
-0.999829
23
1.721905
33
4.867379
0
3DFACE
8
coconut_palm2_leaves
10
-0.403857
20
1.612025
30
4.485102
11
-0.267527
21
1.633823
31
4.596597
12
-0.494437
22
1.698828
32
4.854193
13
-0.628783
23
1.676461
33
4.741483
0
3DFACE
8
coconut_palm2_leaves
10
-0.540187
20
1.590227
30
4.373606
11
-0.403857
21
1.612025
31
4.485102
12
-0.628783
22
1.676461
32
4.741483
13
-0.764147
23
1.654387
33
4.627806
0
3DFACE
8
coconut_palm2_leaves
10
0.866345
20
1.947082
30
4.552217
11
0.715109
21
1.723284
31
3.976723
12
1.293048
22
1.808435
32
3.740223
13
1.444284
23
2.032233
33
4.315717
0
3DFACE
8
coconut_palm2_leaves
10
0.267330
20
1.858826
30
4.706645
11
0.116094
21
1.635028
31
4.131152
12
0.715109
22
1.723284
32
3.976723
13
0.866345
23
1.947082
33
4.552217
0
3DFACE
8
coconut_palm2_leaves
10
-0.340811
20
1.769225
30
4.813508
11
-0.492047
21
1.545427
31
4.238014
12
0.116094
22
1.635028
32
4.131152
13
0.267330
23
1.858826
33
4.706645
0
3DFACE
8
coconut_palm2_leaves
10
0.790727
20
1.835183
30
4.264471
11
0.719001
21
2.130504
31
4.144081
12
1.275036
22
2.212428
32
3.865484
13
1.368666
23
1.920334
33
4.027970
0
3DFACE
8
coconut_palm2_leaves
10
0.852404
20
1.538382
30
4.339499
11
0.790727
21
1.835183
31
4.264471
12
1.368666
22
1.920334
32
4.027970
13
1.423145
23
1.622472
33
4.056818
0
3DFACE
8
coconut_palm2_leaves
10
0.191712
20
1.746927
30
4.418899
11
0.129323
21
2.043623
31
4.316333
12
0.719001
22
2.130504
32
4.144081
13
0.790727
23
1.835183
33
4.264471
0
3DFACE
8
coconut_palm2_leaves
10
0.252763
20
1.450033
30
4.513834
11
0.191712
21
1.746927
31
4.418899
12
0.790727
22
1.835183
32
4.264471
13
0.852404
23
1.538382
33
4.339499
0
3DFACE
8
coconut_palm2_leaves
10
-0.416429
20
1.657326
30
4.525761
11
-0.475640
21
1.954491
31
4.426587
12
0.129323
22
2.043623
32
4.316333
13
0.191712
23
1.746927
33
4.418899
0
3DFACE
8
coconut_palm2_leaves
10
-0.357218
20
1.360161
30
4.624935
11
-0.416429
21
1.657326
31
4.525761
12
0.191712
22
1.746927
32
4.418899
13
0.252763
23
1.450033
33
4.513834
0
3DFACE
8
coconut_palm2_leaves
10
-0.064990
20
2.597672
30
5.278421
11
0.239257
21
2.476053
31
4.864063
12
0.560789
22
2.973645
32
4.806155
13
0.256542
23
3.095263
33
5.220513
0
3DFACE
8
coconut_palm2_leaves
10
-0.346527
20
2.161975
30
5.100010
11
-0.042279
21
2.040357
31
4.685652
12
0.239257
22
2.476053
32
4.864063
13
-0.064990
23
2.597672
33
5.278421
0
3DFACE
8
coconut_palm2_leaves
10
-0.588013
20
1.788259
30
4.795877
11
-0.283766
21
1.666641
31
4.381519
12
-0.042279
22
2.040357
32
4.685652
13
-0.346527
23
2.161975
33
5.100010
0
3DFACE
8
coconut_palm2_leaves
10
0.087134
20
2.536862
30
5.071242
11
-0.042566
21
2.732208
31
4.858423
12
0.259357
22
3.199454
32
4.676614
13
0.408665
23
3.034454
33
5.013334
0
3DFACE
8
coconut_palm2_leaves
10
0.244022
20
2.383593
30
5.175376
11
0.087134
21
2.536862
31
5.071242
12
0.408665
22
3.034454
32
5.013334
13
0.590587
23
2.919926
33
5.015592
0
3DFACE
8
coconut_palm2_leaves
10
-0.194403
20
2.101166
30
4.892831
11
-0.320437
21
2.302185
31
4.739957
12
-0.042566
22
2.732208
32
4.858423
13
0.087134
23
2.536862
33
5.071242
0
3DFACE
8
coconut_palm2_leaves
10
-0.062243
20
1.909629
30
5.028843
11
-0.194403
21
2.101166
31
4.892831
12
0.087134
22
2.536862
32
5.071242
13
0.244022
23
2.383593
33
5.175376
0
3DFACE
8
coconut_palm2_leaves
10
-0.435890
20
1.727450
30
4.588698
11
-0.558373
21
1.933962
31
4.453032
12
-0.320437
22
2.302185
32
4.739957
13
-0.194403
23
2.101166
33
4.892831
0
3DFACE
8
coconut_palm2_leaves
10
-0.313406
20
1.520937
30
4.724364
11
-0.435890
21
1.727450
31
4.588698
12
-0.194403
22
2.101166
32
4.892831
13
-0.062243
23
1.909629
33
5.028843
0
3DFACE
8
coconut_palm2_leaves
10
-0.831397
20
2.001667
30
3.336192
11
-0.857481
21
1.394709
31
3.288946
12
-0.873454
22
1.401179
32
2.662455
13
-0.847371
23
2.008137
33
2.709701
0
3DFACE
8
coconut_palm2_leaves
10
-0.644880
20
1.926110
30
3.903304
11
-0.670964
21
1.319152
31
3.856058
12
-0.857481
22
1.394709
32
3.288946
13
-0.831397
23
2.001667
33
3.336192
0
3DFACE
8
coconut_palm2_leaves
10
-0.361952
20
1.811497
30
4.415377
11
-0.388036
21
1.204539
31
4.368131
12
-0.670964
22
1.319152
32
3.856058
13
-0.644880
23
1.926110
33
3.903304
0
3DFACE
8
coconut_palm2_leaves
10
-0.844439
20
1.698188
30
3.312569
11
-1.083661
21
1.684173
31
3.401804
12
-1.028397
22
1.661786
32
2.719080
13
-0.860413
23
1.704658
33
2.686078
0
3DFACE
8
coconut_palm2_leaves
10
-0.515525
20
1.675869
30
3.181251
11
-0.844439
21
1.698188
31
3.312569
12
-0.860413
22
1.704658
32
2.686078
13
-0.435240
23
1.643345
33
2.595515
0
3DFACE
8
coconut_palm2_leaves
10
-0.657922
20
1.622631
30
3.879681
11
-0.919796
21
1.617793
31
4.018278
12
-1.083661
22
1.684173
32
3.401804
13
-0.844439
23
1.698188
33
3.312569
0
3DFACE
8
coconut_palm2_leaves
10
-0.381512
20
1.621580
30
3.731902
11
-0.657922
21
1.622631
31
3.879681
12
-0.844439
22
1.698188
32
3.312569
13
-0.515525
23
1.675869
33
3.181251
0
3DFACE
8
coconut_palm2_leaves
10
-0.374994
20
1.508018
30
4.391754
11
-0.634998
21
1.502423
31
4.550850
12
-0.919796
22
1.617793
32
4.018278
13
-0.657922
23
1.622631
33
3.879681
0
3DFACE
8
coconut_palm2_leaves
10
-0.114990
20
1.513614
30
4.232658
11
-0.374994
21
1.508018
31
4.391754
12
-0.657922
22
1.622631
32
3.879681
13
-0.381512
23
1.621580
33
3.731902
0
3DFACE
8
coconut_palm2_leaves
10
0.066193
20
2.591220
30
3.960364
11
-0.115231
21
2.221169
31
3.575962
12
0.002620
22
2.512071
32
3.053958
13
0.184045
23
2.882122
33
3.438360
0
3DFACE
8
coconut_palm2_leaves
10
-0.100573
20
2.179579
30
4.330189
11
-0.281997
21
1.809528
31
3.945786
12
-0.115231
22
2.221169
32
3.575962
13
0.066193
23
2.591220
33
3.960364
0
3DFACE
8
coconut_palm2_leaves
10
-0.289728
20
1.712672
30
4.601572
11
-0.471153
21
1.342621
31
4.217170
12
-0.281997
22
1.809528
32
3.945786
13
-0.100573
23
2.179579
33
4.330189
0
3DFACE
8
coconut_palm2_leaves
10
-0.024519
20
2.406194
30
3.768163
11
-0.302457
21
2.497229
31
3.739451
12
-0.212845
22
2.718424
32
3.151829
13
0.093333
23
2.697097
33
3.246159
0
3DFACE
8
coconut_palm2_leaves
10
0.231474
20
2.260991
30
3.714583
11
-0.024519
21
2.406194
31
3.768163
12
0.093333
22
2.697097
32
3.246159
13
0.319429
23
2.478098
33
3.130983
0
3DFACE
8
coconut_palm2_leaves
10
-0.191285
20
1.994553
30
4.137988
11
-0.460409
21
2.107344
31
4.144110
12
-0.302457
22
2.497229
32
3.739451
13
-0.024519
23
2.406194
33
3.768163
0
3DFACE
8
coconut_palm2_leaves
10
0.074790
20
1.874237
30
4.117057
11
-0.191285
21
1.994553
31
4.137988
12
-0.024519
22
2.406194
32
3.768163
13
0.231474
23
2.260991
33
3.714583
0
3DFACE
8
coconut_palm2_leaves
10
-0.380441
20
1.527647
30
4.409371
11
-0.648377
21
1.643369
31
4.423360
12
-0.460409
22
2.107344
32
4.144110
13
-0.191285
23
1.994553
33
4.137988
0
3DFACE
8
coconut_palm2_leaves
10
-0.112505
20
1.411924
30
4.395382
11
-0.380441
21
1.527647
31
4.409371
12
-0.191285
22
1.994553
32
4.137988
13
0.074790
23
1.874237
33
4.117057
0
3DFACE
8
coconut_palm2_leaves
10
-1.347144
20
2.399024
30
4.799428
11
-1.652522
21
1.842603
31
4.674370
12
-2.204081
22
2.113080
32
4.820150
13
-1.898704
23
2.669501
33
4.945209
0
3DFACE
8
coconut_palm2_leaves
10
-0.794780
20
2.128153
30
4.657531
11
-1.100157
21
1.571732
31
4.532473
12
-1.652522
22
1.842603
32
4.674370
13
-1.347144
23
2.399024
33
4.799428
0
3DFACE
8
coconut_palm2_leaves
10
-0.241961
20
1.857058
30
4.517854
11
-0.547339
21
1.300638
31
4.392796
12
-1.100157
22
1.571732
32
4.532473
13
-0.794780
23
2.128153
33
4.657531
0
3DFACE
8
coconut_palm2_leaves
10
-1.499833
20
2.120814
30
4.736899
11
-1.464273
21
2.032073
31
5.046033
12
-2.014391
22
2.301843
32
5.193710
13
-2.051392
23
2.391290
33
4.882679
0
3DFACE
8
coconut_palm2_leaves
10
-1.534949
20
2.209336
30
4.429919
11
-1.499833
21
2.120814
31
4.736899
12
-2.051392
22
2.391290
32
4.882679
13
-2.087046
23
2.480077
33
4.578106
0
3DFACE
8
coconut_palm2_leaves
10
-0.947469
20
1.849942
30
4.595002
11
-0.912754
21
1.761617
31
4.903407
12
-1.464273
22
2.032073
32
5.046033
13
-1.499833
23
2.120814
33
4.736899
0
3DFACE
8
coconut_palm2_leaves
10
-0.982109
20
1.938232
30
4.286956
11
-0.947469
21
1.849942
31
4.595002
12
-1.499833
22
2.120814
32
4.736899
13
-1.534949
23
2.209336
33
4.429919
0
3DFACE
8
coconut_palm2_leaves
10
-0.394650
20
1.578848
30
4.455325
11
-0.360303
21
1.490702
31
4.763634
12
-0.912754
22
1.761617
32
4.903407
13
-0.947469
23
1.849942
33
4.595002
0
3DFACE
8
coconut_palm2_leaves
10
-0.428997
20
1.666994
30
4.147017
11
-0.394650
21
1.578848
31
4.455325
12
-0.947469
22
1.849942
32
4.595002
13
-0.982109
23
1.938232
33
4.286956
0
3DFACE
8
coconut_palm2_leaves
10
0.249435
20
2.124796
30
4.122771
11
0.095598
21
1.879513
31
3.788873
12
0.349591
22
2.070362
32
3.490593
13
0.503427
23
2.315645
33
3.824490
0
3DFACE
8
coconut_palm2_leaves
10
-0.027665
20
1.916584
30
4.382806
11
-0.181502
21
1.671301
31
4.048909
12
0.095598
22
1.879513
32
3.788873
13
0.249435
23
2.124796
33
4.122771
0
3DFACE
8
coconut_palm2_leaves
10
-0.317075
20
1.699123
30
4.620150
11
-0.470912
21
1.453840
31
4.286252
12
-0.181502
22
1.671301
32
4.048909
13
-0.027665
23
1.916584
33
4.382806
0
3DFACE
8
coconut_palm2_leaves
10
0.172516
20
2.002154
30
3.955822
11
0.014956
21
2.152596
31
3.906152
12
0.257695
22
2.334988
32
3.595738
13
0.426509
23
2.193003
33
3.657542
0
3DFACE
8
coconut_palm2_leaves
10
0.321637
20
1.845371
30
3.990619
11
0.172516
21
2.002154
31
3.955822
12
0.426509
22
2.193003
32
3.657542
13
0.568205
23
2.030641
33
3.676551
0
3DFACE
8
coconut_palm2_leaves
10
-0.104584
20
1.793943
30
4.215858
11
-0.257268
21
1.948048
31
4.171212
12
0.014956
22
2.152596
32
3.906152
13
0.172516
23
2.002154
33
3.955822
0
3DFACE
8
coconut_palm2_leaves
10
0.046764
20
1.638833
30
4.257962
11
-0.104584
21
1.793943
31
4.215858
12
0.172516
22
2.002154
32
3.955822
13
0.321637
23
1.845371
33
3.990619
0
3DFACE
8
coconut_palm2_leaves
10
-0.393993
20
1.576482
30
4.453201
11
-0.545334
21
1.731597
31
4.409280
12
-0.257268
22
1.948048
32
4.171212
13
-0.104584
23
1.793943
33
4.215858
0
3DFACE
8
coconut_palm2_leaves
10
-0.242653
20
1.421367
30
4.497123
11
-0.393993
21
1.576482
31
4.453201
12
-0.104584
22
1.793943
32
4.215858
13
0.046764
23
1.638833
33
4.257962
0
3DFACE
8
coconut_palm2_leaves
10
-1.657060
20
1.850860
30
4.308369
11
-1.582274
21
1.227513
31
4.232222
12
-1.999908
22
1.218530
32
3.546255
13
-2.074693
23
1.841878
33
3.622403
0
3DFACE
8
coconut_palm2_leaves
10
-1.046416
20
1.863994
30
4.536822
11
-0.971630
21
1.240646
31
4.460675
12
-1.582274
22
1.227513
32
4.232222
13
-1.657060
23
1.850860
33
4.308369
0
3DFACE
8
coconut_palm2_leaves
10
-0.428370
20
1.877286
30
4.481520
11
-0.353584
21
1.253939
31
4.405373
12
-0.971630
22
1.240646
32
4.460675
13
-1.046416
23
1.863994
33
4.536822
0
3DFACE
8
coconut_palm2_leaves
10
-1.619667
20
1.539186
30
4.270296
11
-1.669523
21
1.494760
31
4.442121
12
-2.008799
22
1.487462
32
3.498026
13
-2.037301
23
1.530204
33
3.584329
0
3DFACE
8
coconut_palm2_leaves
10
-1.516907
20
1.584751
30
3.833843
11
-1.619667
21
1.539186
31
4.270296
12
-2.037301
22
1.530204
32
3.584329
13
-1.611231
23
1.582722
33
3.019380
0
3DFACE
8
coconut_palm2_leaves
10
-1.009023
20
1.552320
30
4.498749
11
-0.993150
21
1.509307
31
4.789674
12
-1.669523
22
1.494760
32
4.442121
13
-1.619667
23
1.539186
33
4.270296
0
3DFACE
8
coconut_palm2_leaves
10
-1.028102
20
1.595264
30
4.162646
11
-1.009023
21
1.552320
31
4.498749
12
-1.619667
22
1.539186
32
4.270296
13
-1.516907
23
1.584751
33
3.833843
0
3DFACE
8
coconut_palm2_leaves
10
-0.390977
20
1.565613
30
4.443446
11
-0.326428
21
1.523646
31
4.750883
12
-0.993150
22
1.509307
32
4.789674
13
-1.009023
23
1.552320
33
4.498749
0
3DFACE
8
coconut_palm2_leaves
10
-0.455526
20
1.607579
30
4.136010
11
-0.390977
21
1.565613
31
4.443446
12
-1.009023
22
1.552320
32
4.498749
13
-1.028102
23
1.595264
33
4.162646
0
3DFACE
8
coconut_palm2_leaves
10
-1.051556
20
1.505761
30
5.153312
11
-0.824940
21
1.137255
31
5.097731
12
-1.196210
22
0.873742
32
5.177609
13
-1.422826
23
1.242248
33
5.233191
0
3DFACE
8
coconut_palm2_leaves
10
-0.758510
20
1.713754
30
4.908876
11
-0.531894
21
1.345248
31
4.853295
12
-0.824940
22
1.137255
32
5.097731
13
-1.051556
23
1.505761
33
5.153312
0
3DFACE
8
coconut_palm2_leaves
10
-0.537747
20
1.870443
30
4.579457
11
-0.311131
21
1.501937
31
4.523876
12
-0.531894
22
1.345248
32
4.853295
13
-0.758510
23
1.713754
33
4.908876
0
3DFACE
8
coconut_palm2_leaves
10
-0.938248
20
1.321508
30
5.125522
11
-0.828886
21
1.362192
31
5.261550
12
-1.242241
22
1.068809
32
5.304765
13
-1.309518
23
1.057995
33
5.205400
0
3DFACE
8
coconut_palm2_leaves
10
-1.088213
20
1.252006
30
4.930316
11
-0.938248
21
1.321508
31
5.125522
12
-1.309518
22
1.057995
32
5.205400
13
-1.432284
23
1.007798
33
4.927367
0
3DFACE
8
coconut_palm2_leaves
10
-0.645202
20
1.529501
30
4.881085
11
-0.497996
21
1.597045
31
5.016261
12
-0.828886
22
1.362192
32
5.261550
13
-0.938248
23
1.321508
33
5.125522
0
3DFACE
8
coconut_palm2_leaves
10
-0.800958
20
1.455889
30
4.737142
11
-0.645202
21
1.529501
31
4.881085
12
-0.938248
22
1.321508
32
5.125522
13
-1.088213
23
1.252006
33
4.930316
0
3DFACE
8
coconut_palm2_leaves
10
-0.424439
20
1.686190
30
4.551666
11
-0.263288
21
1.763631
31
4.675921
12
-0.497996
22
1.597045
32
5.016261
13
-0.645202
23
1.529501
33
4.881085
0
3DFACE
8
coconut_palm2_leaves
10
-0.585590
20
1.608749
30
4.427411
11
-0.424439
21
1.686190
31
4.551666
12
-0.645202
22
1.529501
32
4.881085
13
-0.800958
23
1.455889
33
4.737142
0
3DFACE
8
coconut_palm2_leaves
10
-1.339297
20
1.567593
30
3.816081
11
-1.082029
21
1.047211
31
3.798788
12
-1.300342
22
0.950100
32
3.240426
13
-1.557610
23
1.470481
33
3.257719
0
3DFACE
8
coconut_palm2_leaves
10
-0.976587
20
1.728935
30
4.226772
11
-0.719319
21
1.208554
31
4.209479
12
-1.082029
22
1.047211
32
3.798788
13
-1.339297
23
1.567593
33
3.816081
0
3DFACE
8
coconut_palm2_leaves
10
-0.545896
20
1.920518
30
4.537100
11
-0.288628
21
1.400136
31
4.519807
12
-0.719319
22
1.208554
32
4.209479
13
-0.976587
23
1.728935
33
4.226772
0
3DFACE
8
coconut_palm2_leaves
10
-1.210663
20
1.307402
30
3.807434
11
-1.350444
21
1.229710
31
3.979738
12
-1.522526
22
1.153163
32
3.319649
13
-1.428976
23
1.210290
33
3.249073
0
3DFACE
8
coconut_palm2_leaves
10
-1.005707
20
1.414085
30
3.553545
11
-1.210663
21
1.307402
31
3.807434
12
-1.428976
22
1.210290
32
3.249073
13
-1.104997
23
1.369919
33
2.984848
0
3DFACE
8
coconut_palm2_leaves
10
-0.847953
20
1.468744
30
4.218125
11
-0.986225
21
1.391724
31
4.449245
12
-1.350444
22
1.229710
32
3.979738
13
-1.210663
23
1.307402
33
3.807434
0
3DFACE
8
coconut_palm2_leaves
10
-0.700433
20
1.549879
30
3.971897
11
-0.847953
21
1.468744
31
4.218125
12
-1.210663
22
1.307402
32
3.807434
13
-1.005707
23
1.414085
33
3.553545
0
3DFACE
8
coconut_palm2_leaves
10
-0.417262
20
1.660327
30
4.528454
11
-0.544170
21
1.588362
31
4.778160
12
-0.986225
22
1.391724
32
4.449245
13
-0.847953
23
1.468744
33
4.218125
0
3DFACE
8
coconut_palm2_leaves
10
-0.290354
20
1.732293
30
4.278748
11
-0.417262
21
1.660327
31
4.528454
12
-0.847953
22
1.468744
32
4.218125
13
-0.700433
23
1.549879
33
3.971897
0
3DFACE
8
coconut_palm2_leaves
10
-0.923726
20
2.174955
30
4.394890
11
-1.126803
21
1.829810
31
4.358730
12
-1.299924
22
1.952971
32
3.830825
13
-1.096846
23
2.298116
33
3.866986
0
3DFACE
8
coconut_palm2_leaves
10
-0.594921
20
1.941038
30
4.544654
11
-0.797998
21
1.595893
31
4.508494
12
-1.126803
22
1.829810
32
4.358730
13
-0.923726
23
2.174955
33
4.394890
0
3DFACE
8
coconut_palm2_leaves
10
-0.451569
20
1.767114
30
4.262109
11
-0.432226
21
1.714250
31
4.576851
12
-1.054906
22
1.694898
32
4.639812
13
-1.091763
23
1.747217
33
4.335553
0
3DFACE
8
coconut_palm2_leaves
10
-0.432226
20
1.714250
30
4.576851
11
-0.412884
21
1.661386
31
4.891593
12
-1.016123
22
1.642638
32
4.961864
13
-1.054906
23
1.694898
33
4.639812
0
3DFACE
8
coconut_palm2_leaves
10
-1.091763
20
1.747217
30
4.335553
11
-1.054906
21
1.694898
31
4.639812
12
-1.661437
22
1.676047
32
4.813176
13
-1.724505
23
1.727552
33
4.558899
0
3DFACE
8
coconut_palm2_leaves
10
-1.054906
20
1.694898
30
4.639812
11
-1.016123
21
1.642638
31
4.961864
12
-1.575864
22
1.625241
32
5.172379
13
-1.661437
23
1.676047
33
4.813176
0
3DFACE
8
coconut_palm2_leaves
10
-1.724505
20
1.727552
30
4.558899
11
-1.661437
21
1.676047
31
4.813176
12
-2.212372
22
1.658924
32
5.173837
13
-2.281707
23
1.710234
33
5.034560
0
3DFACE
8
coconut_palm2_leaves
10
-1.661437
20
1.676047
30
4.813176
11
-1.575864
21
1.625241
31
5.172379
12
-2.027816
22
1.611195
32
5.612983
13
-2.212372
23
1.658924
33
5.173837
0
3DFACE
8
coconut_palm2_leaves
10
-0.419036
20
2.030332
30
4.626686
11
-0.445417
21
1.398168
31
4.527016
12
-1.068097
22
1.378816
32
4.589977
13
-1.041715
23
2.010979
33
4.689647
0
3DFACE
8
coconut_palm2_leaves
10
-1.041715
20
2.010979
30
4.689647
11
-1.068097
21
1.378816
31
4.589977
12
-1.674628
22
1.359965
32
4.763340
13
-1.648246
23
1.992129
33
4.863011
0
3DFACE
8
coconut_palm2_leaves
10
-1.648246
20
1.992129
30
4.863011
11
-1.674628
21
1.359965
31
4.763340
12
-2.225563
22
1.342842
32
5.124002
13
-2.199182
23
1.975006
33
5.223672
0
3DFACE
8
coconut_palm2_leaves
10
-0.236920
20
1.793554
30
4.397901
11
-0.443084
21
1.753374
31
4.611965
12
-0.814116
22
2.105198
32
4.323017
13
-0.608875
23
2.146253
33
4.108938
0
3DFACE
8
coconut_palm2_leaves
10
-0.443084
20
1.753374
30
4.611965
11
-0.649247
21
1.713193
31
4.826029
12
-1.019795
22
2.064557
32
4.538166
13
-0.814116
23
2.105198
33
4.323017
0
3DFACE
8
coconut_palm2_leaves
10
-0.608875
20
2.146253
30
4.108938
11
-0.814116
21
2.105198
31
4.323017
12
-1.188046
22
2.459770
32
4.041195
13
-0.985295
23
2.503186
33
3.828720
0
3DFACE
8
coconut_palm2_leaves
10
-0.814116
20
2.105198
30
4.323017
11
-1.019795
21
2.064557
31
4.538166
12
-1.393390
22
2.418812
32
4.260119
13
-1.188046
23
2.459770
33
4.041195
0
3DFACE
8
coconut_palm2_leaves
10
-0.985295
20
2.503186
30
3.828720
11
-1.188046
21
2.459770
31
4.041195
12
-1.566948
22
2.819057
32
3.771923
13
-1.368835
23
2.866871
33
3.564363
0
3DFACE
8
coconut_palm2_leaves
10
-1.188046
20
2.459770
30
4.041195
11
-1.393390
21
2.418812
31
4.260119
12
-1.772667
22
2.778454
32
3.998952
13
-1.566948
23
2.819057
33
3.771923
0
3DFACE
8
coconut_palm2_leaves
10
-0.331737
20
1.988240
30
4.763239
11
-0.554430
21
1.518507
31
4.460691
12
-0.925462
22
1.870331
32
4.171743
13
-0.702769
23
2.340064
33
4.474291
0
3DFACE
8
coconut_palm2_leaves
10
-0.702769
20
2.340064
30
4.474291
11
-0.925462
21
1.870331
31
4.171743
12
-1.299393
22
2.224904
32
3.889921
13
-1.076700
23
2.694637
33
4.192469
0
3DFACE
8
coconut_palm2_leaves
10
-1.076700
20
2.694637
30
4.192469
11
-1.299393
21
2.224904
31
3.889921
12
-1.678294
22
2.584190
32
3.620649
13
-1.455601
23
3.053923
33
3.923197
0
3DFACE
8
coconut_palm2_leaves
10
-0.512007
20
1.475663
30
4.211765
11
-0.376189
21
1.512327
31
4.395621
12
-0.571242
22
1.166224
32
4.613520
13
-0.707861
23
1.128139
33
4.431668
0
3DFACE
8
coconut_palm2_leaves
10
-0.376189
20
1.512327
30
4.395621
11
-0.240372
21
1.548990
31
4.579476
12
-0.434158
22
1.205133
32
4.797090
13
-0.571242
23
1.166224
33
4.613520
0
3DFACE
8
coconut_palm2_leaves
10
-0.707861
20
1.128139
30
4.431668
11
-0.571242
21
1.166224
31
4.613520
12
-0.762238
22
0.827318
32
4.846152
13
-0.899692
23
0.787751
33
4.670898
0
3DFACE
8
coconut_palm2_leaves
10
-0.571242
20
1.166224
30
4.613520
11
-0.434158
21
1.205133
31
4.797090
12
-0.621896
22
0.872010
32
5.031597
13
-0.762238
23
0.827318
33
4.846152
0
3DFACE
8
coconut_palm2_leaves
10
-0.899692
20
0.787751
30
4.670898
11
-0.762238
21
0.827318
31
4.846152
12
-0.945763
22
0.501671
32
5.104118
13
-1.083117
23
0.462281
33
4.942482
0
3DFACE
8
coconut_palm2_leaves
10
-0.762238
20
0.827318
30
4.846152
11
-0.621896
21
0.872010
31
5.031597
12
-0.799284
22
0.557251
32
5.295743
13
-0.945763
23
0.501671
33
5.104118
0
3DFACE
8
coconut_palm2_leaves
10
-0.532099
20
1.661755
30
4.480814
11
-0.220279
21
1.362898
31
4.310428
12
-0.415331
22
1.016796
32
4.528327
13
-0.727152
23
1.315652
33
4.698713
0
3DFACE
8
coconut_palm2_leaves
10
-0.727152
20
1.315652
30
4.698713
11
-0.415331
21
1.016796
31
4.528327
12
-0.606328
22
0.677890
32
4.760959
13
-0.918148
23
0.976747
33
4.931345
0
3DFACE
8
coconut_palm2_leaves
10
-0.918148
20
0.976747
30
4.931345
11
-0.606328
21
0.677890
31
4.760959
12
-0.789852
22
0.352242
32
5.018925
13
-1.101673
23
0.651099
33
5.189312
0
3DFACE
8
coconut_palm2_leaves
10
-0.452353
20
1.809714
30
4.286766
11
-0.442866
21
1.752589
31
4.611260
12
-1.002953
22
1.449507
32
4.508947
13
-0.970915
23
1.529103
33
4.168665
0
3DFACE
8
coconut_palm2_leaves
10
-0.442866
20
1.752589
30
4.611260
11
-0.433379
21
1.695464
31
4.935755
12
-1.028336
22
1.373513
32
4.806704
13
-1.002953
23
1.449507
33
4.508947
0
3DFACE
8
coconut_palm2_leaves
10
-0.970915
20
1.529103
30
4.168665
11
-1.002953
21
1.449507
31
4.508947
12
-1.503950
22
1.178401
32
4.154852
13
-1.357075
23
1.320140
33
3.745636
0
3DFACE
8
coconut_palm2_leaves
10
-1.002953
20
1.449507
30
4.508947
11
-1.028336
21
1.373513
31
4.806704
12
-1.559662
22
1.085995
32
4.327512
13
-1.503950
23
1.178401
33
4.154852
0
3DFACE
8
coconut_palm2_leaves
10
-1.357075
20
1.320140
30
3.745636
11
-1.503950
21
1.178401
31
4.154852
12
-1.781916
22
1.027984
32
3.419916
13
-1.355960
23
1.320742
33
2.934430
0
3DFACE
8
coconut_palm2_leaves
10
-1.503950
20
1.178401
30
4.154852
11
-1.559662
21
1.085995
31
4.327512
12
-1.737017
22
0.990022
32
3.356008
13
-1.781916
23
1.027984
33
3.419916
0
3DFACE
8
coconut_palm2_leaves
10
-0.635957
20
2.015697
30
4.651381
11
-0.249775
21
1.489481
31
4.571140
12
-0.809862
22
1.186400
32
4.468827
13
-1.196044
23
1.712615
33
4.549067
0
3DFACE
8
coconut_palm2_leaves
10
-1.196044
20
1.712615
30
4.549067
11
-0.809862
21
1.186400
31
4.468827
12
-1.310859
22
0.915294
32
4.114732
13
-1.697042
23
1.441509
33
4.194972
0
3DFACE
8
coconut_palm2_leaves
10
-1.697042
20
1.441509
30
4.194972
11
-1.310859
21
0.915294
31
4.114732
12
-1.588825
22
0.764877
32
3.379796
13
-1.975008
23
1.291092
33
3.460036
0
3DFACE
8
coconut_palm2_leaves
10
-0.531242
20
1.502144
30
4.456946
11
-0.407788
21
1.626190
31
4.497815
12
-0.241967
22
1.393852
32
4.703263
13
-0.365404
23
1.269782
33
4.662624
0
3DFACE
8
coconut_palm2_leaves
10
-0.407788
20
1.626190
30
4.497815
11
-0.284334
21
1.750236
31
4.538684
12
-0.118646
22
1.518083
32
4.744177
13
-0.241967
23
1.393852
33
4.703263
0
3DFACE
8
coconut_palm2_leaves
10
-0.365404
20
1.269782
30
4.662624
11
-0.241967
21
1.393852
31
4.703263
12
-0.077429
22
1.163311
32
4.911761
13
-0.201007
23
1.039440
33
4.871994
0
3DFACE
8
coconut_palm2_leaves
10
-0.241967
20
1.393852
30
4.703263
11
-0.118646
21
1.518083
31
4.744177
12
0.045452
22
1.288160
32
4.953174
13
-0.077429
23
1.163311
33
4.911761
0
3DFACE
8
coconut_palm2_leaves
10
-0.201007
20
1.039440
30
4.871994
11
-0.077429
21
1.163311
31
4.911761
12
0.084838
22
0.935954
32
5.125565
13
-0.039227
23
0.812764
33
5.087710
0
3DFACE
8
coconut_palm2_leaves
10
-0.077429
20
1.163311
30
4.911761
11
0.045452
21
1.288160
31
4.953174
12
0.206787
22
1.062108
32
5.168325
13
0.084838
23
0.935954
33
5.125565
0
3DFACE
8
coconut_palm2_leaves
10
-0.508874
20
1.681053
30
4.636621
11
-0.306702
21
1.571327
31
4.359009
12
-0.140881
22
1.338989
32
4.564457
13
-0.343053
23
1.448715
33
4.842069
0
3DFACE
8
coconut_palm2_leaves
10
-0.343053
20
1.448715
30
4.842069
11
-0.140881
21
1.338989
31
4.564457
12
0.023657
22
1.108448
32
4.772955
13
-0.178515
23
1.218175
33
5.050567
0
3DFACE
8
coconut_palm2_leaves
10
-0.178515
20
1.218175
30
5.050567
11
0.023657
21
1.108448
31
4.772955
12
0.185924
22
0.881090
32
4.986759
13
-0.016248
23
0.990817
33
5.264370
0
3DFACE
8
coconut_palm2_leaves
10
-0.344924
20
1.438890
30
4.661705
11
-0.425091
21
1.688539
31
4.553775
12
-0.020239
22
1.938400
32
4.840094
13
0.057287
23
1.687121
33
4.948773
0
3DFACE
8
coconut_palm2_leaves
10
-0.425091
20
1.688539
30
4.553775
11
-0.505258
21
1.938188
31
4.445845
12
-0.099730
22
2.188466
32
4.735234
13
-0.020239
23
1.938400
33
4.840094
0
3DFACE
8
coconut_palm2_leaves
10
0.057287
20
1.687121
30
4.948773
11
-0.020239
21
1.938400
31
4.840094
12
0.370515
22
2.179560
32
5.153080
13
0.439556
23
1.923044
33
5.268652
0
3DFACE
8
coconut_palm2_leaves
10
-0.020239
20
1.938400
30
4.840094
11
-0.099730
21
2.188466
31
4.735234
12
0.289062
22
2.428415
32
5.059961
13
0.370515
23
2.179560
33
5.153080
0
3DFACE
8
coconut_palm2_leaves
10
0.439556
20
1.923044
30
5.268652
11
0.370515
21
2.179560
31
5.153080
12
0.734835
22
2.404405
32
5.511335
13
0.785382
23
2.136476
33
5.644323
0
3DFACE
8
coconut_palm2_leaves
10
0.370515
20
2.179560
30
5.153080
11
0.289062
21
2.428415
31
5.059961
12
0.644371
22
2.647699
32
5.443410
13
0.734835
23
2.404405
33
5.511335
0
3DFACE
8
coconut_palm2_leaves
10
-0.619273
20
1.715291
30
4.758736
11
-0.230910
21
1.661788
31
4.348814
12
0.173943
22
1.911648
32
4.635132
13
-0.214420
23
1.965152
33
5.045055
0
3DFACE
8
coconut_palm2_leaves
10
-0.214420
20
1.965152
30
5.045055
11
0.173943
21
1.911648
31
4.635132
12
0.564697
22
2.152808
32
4.948118
13
0.176334
23
2.206311
33
5.358041
0
3DFACE
8
coconut_palm2_leaves
10
0.176334
20
2.206311
30
5.358041
11
0.564697
21
2.152808
31
4.948118
12
0.929016
22
2.377654
32
5.306374
13
0.540653
23
2.431157
33
5.716297
0
3DFACE
8
coconut_palm2_leaves
10
-0.229423
20
1.781296
30
4.299045
11
-0.419686
21
1.669062
31
4.536294
12
-0.727324
22
2.223432
32
4.530428
13
-0.531860
23
2.326293
33
4.286196
0
3DFACE
8
coconut_palm2_leaves
10
-0.419686
20
1.669062
30
4.536294
11
-0.609949
21
1.556828
31
4.773542
12
-0.922689
22
2.120390
32
4.760739
13
-0.727324
23
2.223432
33
4.530428
0
3DFACE
8
coconut_palm2_leaves
10
-0.531860
20
2.326293
30
4.286196
11
-0.727324
21
2.223432
31
4.530428
12
-1.033177
22
2.774583
32
4.439054
13
-0.825600
23
2.855617
33
4.161590
0
3DFACE
8
coconut_palm2_leaves
10
-0.727324
20
2.223432
30
4.530428
11
-0.922689
21
2.120390
31
4.760739
12
-1.236980
22
2.686749
32
4.633377
13
-1.033177
23
2.774583
33
4.439054
0
3DFACE
8
coconut_palm2_leaves
10
-0.825600
20
2.855617
30
4.161590
11
-1.033177
21
2.774583
31
4.439054
12
-1.328052
22
3.305954
32
4.199567
13
-1.094451
23
3.340091
33
3.846954
0
3DFACE
8
coconut_palm2_leaves
10
-1.033177
20
2.774583
30
4.439054
11
-1.236980
21
2.686749
31
4.633377
12
-1.536201
22
3.225951
32
4.307547
13
-1.328052
23
3.305954
33
4.199567
0
3DFACE
8
coconut_palm2_leaves
10
-0.239459
20
1.828152
30
4.751024
11
-0.599912
21
1.509971
31
4.321563
12
-0.907551
22
2.064341
32
4.315698
13
-0.547098
23
2.382522
33
4.745159
0
3DFACE
8
coconut_palm2_leaves
10
-0.547098
20
2.382522
30
4.745159
11
-0.907551
21
2.064341
31
4.315698
12
-1.213403
22
2.615493
32
4.224324
13
-0.852950
23
2.933673
33
4.653784
0
3DFACE
8
coconut_palm2_leaves
10
-0.852950
20
2.933673
30
4.653784
11
-1.213403
21
2.615493
31
4.224324
12
-1.508279
22
3.146864
32
3.984836
13
-1.147826
23
3.465044
33
4.414297
0
3DFACE
8
coconut_palm2_leaves
10
-0.327526
20
1.624163
30
4.260943
11
-0.393277
21
1.573900
31
4.450884
12
-0.752783
22
1.749240
32
4.382760
13
-0.692298
23
1.802071
33
4.193821
0
3DFACE
8
coconut_palm2_leaves
10
-0.393277
20
1.573900
30
4.450884
11
-0.459028
21
1.523637
31
4.640824
12
-0.813871
22
1.696703
32
4.575692
13
-0.752783
23
1.749240
33
4.382760
0
3DFACE
8
coconut_palm2_leaves
10
-0.692298
20
1.802071
30
4.193821
11
-0.752783
21
1.749240
31
4.382760
12
-1.117339
22
1.927042
32
4.353193
13
-1.067780
23
1.985203
33
4.172816
0
3DFACE
8
coconut_palm2_leaves
10
-0.752783
20
1.749240
30
4.382760
11
-0.813871
21
1.696703
31
4.575692
12
-1.169363
22
1.870085
32
4.557701
13
-1.117339
23
1.927042
33
4.353193
0
3DFACE
8
coconut_palm2_leaves
10
-1.067780
20
1.985203
30
4.172816
11
-1.117339
21
1.927042
31
4.353193
12
-1.486026
22
2.106860
32
4.391655
13
-1.451419
23
2.172312
33
4.234545
0
3DFACE
8
coconut_palm2_leaves
10
-1.117339
20
1.927042
30
4.353193
11
-1.169363
21
1.870085
31
4.557701
12
-1.522827
22
2.042477
32
4.621519
13
-1.486026
23
2.106860
33
4.391655
0
3DFACE
8
coconut_palm2_leaves
10
-0.309324
20
1.748475
30
4.525355
11
-0.477230
21
1.399325
31
4.376413
12
-0.836736
22
1.574665
32
4.308289
13
-0.668830
23
1.923815
33
4.457231
0
3DFACE
8
coconut_palm2_leaves
10
-0.668830
20
1.923815
30
4.457231
11
-0.836736
21
1.574665
31
4.308289
12
-1.201292
22
1.752468
32
4.278722
13
-1.033386
23
2.101617
33
4.427664
0
3DFACE
8
coconut_palm2_leaves
10
-1.033386
20
2.101617
30
4.427664
11
-1.201292
21
1.752468
31
4.278722
12
-1.569978
22
1.932285
32
4.317184
13
-1.402073
23
2.281435
33
4.466126
0
3DFACE
8
coconut_palm2_leaves
10
-0.288521
20
1.675374
30
4.244623
11
-0.396027
21
1.583810
31
4.459779
12
-0.713478
22
1.974454
32
4.475982
13
-0.608830
23
2.069535
33
4.263158
0
3DFACE
8
coconut_palm2_leaves
10
-0.396027
20
1.583810
30
4.459779
11
-0.503534
21
1.492247
31
4.674935
12
-0.818029
22
1.879255
32
4.693232
13
-0.713478
23
1.974454
33
4.475982
0
3DFACE
8
coconut_palm2_leaves
10
-0.608830
20
2.069535
30
4.263158
11
-0.713478
21
1.974454
31
4.475982
12
-1.029864
22
2.363789
32
4.526451
13
-0.930460
23
2.465322
33
4.325199
0
3DFACE
8
coconut_palm2_leaves
10
-0.713478
20
1.974454
30
4.475982
11
-0.818029
21
1.879255
31
4.693232
12
-1.128048
22
2.260754
32
4.754203
13
-1.029864
23
2.363789
33
4.526451
0
3DFACE
8
coconut_palm2_leaves
10
-0.930460
20
2.465322
30
4.325199
11
-1.029864
21
2.363789
31
4.526451
12
-1.342321
22
2.748287
32
4.636639
13
-1.248921
23
2.857209
33
4.463182
0
3DFACE
8
coconut_palm2_leaves
10
-1.029864
20
2.363789
30
4.526451
11
-1.128048
21
2.260754
31
4.754203
12
-1.429178
22
2.631313
32
4.889107
13
-1.342321
23
2.748287
33
4.636639
0
3DFACE
8
coconut_palm2_leaves
10
-0.215935
20
1.703660
30
4.599975
11
-0.576119
21
1.463961
31
4.319583
12
-0.893570
22
1.854605
32
4.335786
13
-0.533386
23
2.094304
33
4.616178
0
3DFACE
8
coconut_palm2_leaves
10
-0.533386
20
2.094304
30
4.616178
11
-0.893570
21
1.854605
31
4.335786
12
-1.209956
22
2.243939
32
4.386255
13
-0.849772
23
2.483638
33
4.666647
0
3DFACE
8
coconut_palm2_leaves
10
-0.849772
20
2.483638
30
4.666647
11
-1.209956
21
2.243939
31
4.386255
12
-1.522413
22
2.628437
32
4.496443
13
-1.162229
23
2.868137
33
4.776835
0
3DFACE
8
coconut_palm2_leaves
10
-0.524826
20
1.423224
30
4.415940
11
-0.393324
21
1.574069
31
4.451036
12
-0.227689
22
1.356269
32
4.739861
13
-0.358792
23
1.204899
33
4.700215
0
3DFACE
8
coconut_palm2_leaves
10
-0.393324
20
1.574069
30
4.451036
11
-0.261822
21
1.724915
31
4.486133
12
-0.093474
22
1.503546
32
4.774589
13
-0.227689
23
1.356269
33
4.739861
0
3DFACE
8
coconut_palm2_leaves
10
-0.358792
20
1.204899
30
4.700215
11
-0.227689
21
1.356269
31
4.739861
12
-0.032818
22
1.100024
32
4.978685
13
-0.159661
23
0.943053
33
4.921695
0
3DFACE
8
coconut_palm2_leaves
10
-0.227689
20
1.356269
30
4.739861
11
-0.093474
21
1.503546
31
4.774589
12
0.110633
22
1.235157
32
5.003725
13
-0.032818
23
1.100024
33
4.978685
0
3DFACE
8
coconut_palm2_leaves
10
-0.159661
20
0.943053
30
4.921695
11
-0.032818
21
1.100024
31
4.978685
12
0.203744
22
0.788957
32
5.121337
13
0.083767
23
0.622958
33
5.024300
0
3DFACE
8
coconut_palm2_leaves
10
-0.032818
20
1.100024
30
4.978685
11
0.110633
21
1.235157
31
5.003725
12
0.362133
22
0.904449
32
5.115680
13
0.203744
23
0.788957
33
5.121337
0
3DFACE
8
coconut_palm2_leaves
10
-0.495793
20
1.623283
30
4.614437
11
-0.290855
21
1.524856
31
4.287636
12
-0.125221
22
1.307055
32
4.576460
13
-0.330158
23
1.405483
33
4.903261
0
3DFACE
8
coconut_palm2_leaves
10
-0.330158
20
1.405483
30
4.903261
11
-0.125221
21
1.307055
31
4.576460
12
0.069650
22
1.050811
32
4.815285
13
-0.135287
23
1.149238
33
5.142086
0
3DFACE
8
coconut_palm2_leaves
10
-0.135287
20
1.149238
30
5.142086
11
0.069650
21
1.050811
31
4.815285
12
0.306213
22
0.739744
32
4.957937
13
0.101276
23
0.838171
33
5.284738
0
3DFACE
8
coconut_palm2_leaves
10
-0.290633
20
1.632100
30
4.155861
11
-0.391054
21
1.565889
31
4.443694
12
-0.936523
22
1.708655
32
4.208547
13
-0.783299
23
1.761046
33
3.915888
0
3DFACE
8
coconut_palm2_leaves
10
-0.391054
20
1.565889
30
4.443694
11
-0.491474
21
1.499677
31
4.731527
12
-1.071482
22
1.651483
32
4.458292
13
-0.936523
23
1.708655
33
4.208547
0
3DFACE
8
coconut_palm2_leaves
10
-0.783299
20
1.761046
30
3.915888
11
-0.936523
21
1.708655
31
4.208547
12
-1.339042
22
1.814007
32
3.714496
13
-1.031785
23
1.826083
33
3.390515
0
3DFACE
8
coconut_palm2_leaves
10
-0.936523
20
1.708655
30
4.208547
11
-1.071482
21
1.651483
31
4.458292
12
-1.472477
22
1.756436
32
3.825924
13
-1.339042
23
1.814007
33
3.714496
0
3DFACE
8
coconut_palm2_leaves
10
-1.031785
20
1.826083
30
3.390515
11
-1.339042
21
1.814007
31
3.714496
12
-1.341840
22
1.814739
32
2.906389
13
-0.692284
23
1.737225
33
2.640337
0
3DFACE
8
coconut_palm2_leaves
10
-1.339042
20
1.814007
30
3.714496
11
-1.472477
21
1.756436
31
3.825924
12
-1.275029
22
1.704758
32
2.840106
13
-1.341840
23
1.814739
33
2.906389
0
3DFACE
8
coconut_palm2_leaves
10
-0.407344
20
1.868470
30
4.479714
11
-0.374763
21
1.263308
31
4.407674
12
-0.920233
22
1.406074
32
4.172527
13
-0.952814
23
2.011236
33
4.244566
0
3DFACE
8
coconut_palm2_leaves
10
-0.952814
20
2.011236
30
4.244566
11
-0.920233
21
1.406074
31
4.172527
12
-1.322751
22
1.511425
32
3.678476
13
-1.355332
23
2.116588
33
3.750516
0
3DFACE
8
coconut_palm2_leaves
10
-1.355332
20
2.116588
30
3.750516
11
-1.322751
21
1.511425
31
3.678476
12
-1.325549
22
1.512158
32
2.870370
13
-1.358130
23
2.117320
33
2.942409
0
3DFACE
8
coconut_palm2_leaves
10
-0.609503
20
1.671430
30
4.513761
11
-0.448308
21
1.772199
31
4.628861
12
-0.470506
22
1.446001
32
4.915971
13
-0.631431
23
1.349186
33
4.790854
0
3DFACE
8
coconut_palm2_leaves
10
-0.448308
20
1.772199
30
4.628861
11
-0.287114
21
1.872969
31
4.743962
12
-0.310001
22
1.536628
32
5.033946
13
-0.470506
23
1.446001
33
4.915971
0
3DFACE
8
coconut_palm2_leaves
10
-0.631431
20
1.349186
30
4.790854
11
-0.470506
21
1.446001
31
4.915971
12
-0.496273
22
1.067344
32
5.136906
13
-0.657044
23
0.972795
33
4.980831
0
3DFACE
8
coconut_palm2_leaves
10
-0.470506
20
1.446001
30
4.915971
11
-0.310001
21
1.536628
31
5.033946
12
-0.337667
22
1.130077
32
5.246873
13
-0.496273
23
1.067344
33
5.136906
0
3DFACE
8
coconut_palm2_leaves
10
-0.657044
20
0.972795
30
4.980831
11
-0.496273
21
1.067344
31
5.136906
12
-0.526820
22
0.618447
32
5.231768
13
-0.687152
23
0.530353
33
5.012322
0
3DFACE
8
coconut_palm2_leaves
10
-0.496273
20
1.067344
30
5.136906
11
-0.337667
21
1.130077
31
5.246873
12
-0.371073
22
0.639155
32
5.304522
13
-0.526820
23
0.618447
33
5.231768
0
3DFACE
8
coconut_palm2_leaves
10
-0.600470
20
1.846810
30
4.768322
11
-0.296146
21
1.697588
31
4.489401
12
-0.318344
22
1.371389
32
4.776510
13
-0.622667
23
1.520612
33
5.055431
0
3DFACE
8
coconut_palm2_leaves
10
-0.622667
20
1.520612
30
5.055431
11
-0.318344
21
1.371389
31
4.776510
12
-0.344111
22
0.992732
32
4.997445
13
-0.648435
23
1.141955
33
5.276366
0
3DFACE
8
coconut_palm2_leaves
10
-0.648435
20
1.141955
30
5.276366
11
-0.344111
21
0.992732
31
4.997445
12
-0.374658
22
0.543835
32
5.092307
13
-0.678982
23
0.693058
33
5.371228
0
3DFACE
8
coconut_palm2_leaves
10
-0.440675
20
1.610671
30
4.243875
11
-0.385973
21
1.547580
31
4.427261
12
-0.696459
22
1.768465
32
4.526574
13
-0.723541
23
1.811907
33
4.318512
0
3DFACE
8
coconut_palm2_leaves
10
-0.385973
20
1.547580
30
4.427261
11
-0.331270
21
1.484489
31
4.610648
12
-0.674306
22
1.728530
32
4.709695
13
-0.696459
23
1.768465
33
4.526574
0
3DFACE
8
coconut_palm2_leaves
10
-0.723541
20
1.811907
30
4.318512
11
-0.696459
21
1.768465
31
4.526574
12
-1.025264
22
2.002383
32
4.376810
13
-0.980077
23
1.994410
33
4.105505
0
3DFACE
8
coconut_palm2_leaves
10
-0.696459
20
1.768465
30
4.526574
11
-0.674306
21
1.728530
31
4.709695
12
-1.054563
22
1.999052
32
4.500091
13
-1.025264
23
2.002383
33
4.376810
0
3DFACE
8
coconut_palm2_leaves
10
-0.980077
20
1.994410
30
4.105505
11
-1.025264
21
2.002383
31
4.376810
12
-1.198385
22
2.125543
32
3.848906
13
-0.970083
23
1.987300
33
3.549716
0
3DFACE
8
coconut_palm2_leaves
10
-1.025264
20
2.002383
30
4.376810
11
-1.054563
21
1.999052
31
4.500091
12
-1.195529
22
2.099337
32
3.840058
13
-1.198385
23
2.125543
33
3.848906
0
3DFACE
8
coconut_palm2_leaves
10
-0.284434
20
1.720152
30
4.445342
11
-0.487512
21
1.375008
31
4.409181
12
-0.797998
22
1.595893
32
4.508494
13
-0.594921
23
1.941038
33
4.544654
0
3DFACE
8
coconut_palm2_coconuts
10
-0.465815
20
1.482517
30
4.444359
11
-0.489269
21
1.471656
31
4.450524
12
-0.484477
22
1.467872
32
4.432390
13
-0.484477
23
1.467872
33
4.432390
0
3DFACE
8
coconut_palm2_coconuts
10
-0.489269
20
1.471656
30
4.450524
11
-0.504203
21
1.446344
31
4.459250
12
-0.495904
22
1.439789
32
4.427842
13
-0.484477
23
1.467872
33
4.432390
0
3DFACE
8
coconut_palm2_coconuts
10
-0.504203
20
1.446344
30
4.459250
11
-0.506616
21
1.413362
31
4.468202
12
-0.497033
22
1.405792
32
4.431933
13
-0.495904
23
1.439789
33
4.427842
0
3DFACE
8
coconut_palm2_coconuts
10
-0.506616
20
1.413362
30
4.468202
11
-0.495860
21
1.381547
31
4.474978
12
-0.487562
22
1.374992
32
4.443570
13
-0.497033
23
1.405792
33
4.431933
0
3DFACE
8
coconut_palm2_coconuts
10
-0.495860
20
1.381547
30
4.474978
11
-0.474818
21
1.359425
31
4.477765
12
-0.470027
22
1.355640
32
4.459630
13
-0.487562
23
1.374992
33
4.443570
0
3DFACE
8
coconut_palm2_coconuts
10
-0.474818
20
1.359425
30
4.477765
11
-0.449128
21
1.352923
31
4.475814
12
-0.470027
22
1.355640
32
4.459630
13
-0.470027
23
1.355640
33
4.459630
0
3DFACE
8
coconut_palm2_coconuts
10
-0.465815
20
1.482517
30
4.444359
11
-0.479666
21
1.476717
31
4.466280
12
-0.489269
22
1.471656
32
4.450524
13
-0.489269
23
1.471656
33
4.450524
0
3DFACE
8
coconut_palm2_coconuts
10
-0.479666
20
1.476717
30
4.466280
11
-0.487570
21
1.455110
31
4.486542
12
-0.504203
22
1.446344
32
4.459250
13
-0.489269
23
1.471656
33
4.450524
0
3DFACE
8
coconut_palm2_coconuts
10
-0.487570
20
1.455110
30
4.486542
11
-0.487410
21
1.423484
31
4.499715
12
-0.506616
22
1.413362
32
4.468202
13
-0.504203
23
1.446344
33
4.459250
0
3DFACE
8
coconut_palm2_coconuts
10
-0.487410
20
1.423484
30
4.499715
11
-0.479227
21
1.390313
31
4.502270
12
-0.495860
22
1.381547
32
4.474978
13
-0.506616
23
1.413362
33
4.468202
0
3DFACE
8
coconut_palm2_coconuts
10
-0.479227
20
1.390313
30
4.502270
11
-0.465215
21
1.364486
31
4.493522
12
-0.474818
22
1.359425
32
4.477765
13
-0.495860
23
1.381547
33
4.474978
0
3DFACE
8
coconut_palm2_coconuts
10
-0.465215
20
1.364486
30
4.493522
11
-0.449128
21
1.352923
31
4.475814
12
-0.474818
22
1.359425
32
4.477765
13
-0.474818
23
1.359425
33
4.477765
0
3DFACE
8
coconut_palm2_coconuts
10
-0.465815
20
1.482517
30
4.444359
11
-0.461294
21
1.480090
31
4.470431
12
-0.479666
22
1.476717
32
4.466280
13
-0.479666
23
1.476717
33
4.466280
0
3DFACE
8
coconut_palm2_coconuts
10
-0.461294
20
1.480090
30
4.470431
11
-0.455750
21
1.460952
31
4.493731
12
-0.487570
22
1.455110
32
4.486542
13
-0.479666
23
1.476717
33
4.466280
0
3DFACE
8
coconut_palm2_coconuts
10
-0.455750
20
1.460952
30
4.493731
11
-0.450667
21
1.430229
31
4.508016
12
-0.487410
22
1.423484
32
4.499715
13
-0.487570
23
1.455110
33
4.486542
0
3DFACE
8
coconut_palm2_coconuts
10
-0.450667
20
1.430229
30
4.508016
11
-0.447407
21
1.396155
31
4.509459
12
-0.479227
22
1.390313
32
4.502270
13
-0.487410
23
1.423484
33
4.499715
0
3DFACE
8
coconut_palm2_coconuts
10
-0.447407
20
1.396155
30
4.509459
11
-0.446844
21
1.367859
31
4.497672
12
-0.465215
22
1.364486
32
4.493522
13
-0.479227
23
1.390313
33
4.502270
0
3DFACE
8
coconut_palm2_coconuts
10
-0.446844
20
1.367859
30
4.497672
11
-0.449128
21
1.352923
31
4.475814
12
-0.465215
22
1.364486
32
4.493522
13
-0.465215
23
1.364486
33
4.493522
0
3DFACE
8
coconut_palm2_coconuts
10
-0.465815
20
1.482517
30
4.444359
11
-0.444916
21
1.479799
31
4.460543
12
-0.461294
22
1.480090
32
4.470431
13
-0.461294
23
1.480090
33
4.470431
0
3DFACE
8
coconut_palm2_coconuts
10
-0.444916
20
1.479799
30
4.460543
11
-0.427381
21
1.460447
31
4.476604
12
-0.455750
22
1.460952
32
4.493731
13
-0.461294
23
1.480090
33
4.470431
0
3DFACE
8
coconut_palm2_coconuts
10
-0.427381
20
1.460447
30
4.476604
11
-0.417909
21
1.429647
31
4.488240
12
-0.450667
22
1.430229
32
4.508016
13
-0.455750
23
1.460952
33
4.493731
0
3DFACE
8
coconut_palm2_coconuts
10
-0.417909
20
1.429647
30
4.488240
11
-0.419038
21
1.395651
31
4.492332
12
-0.447407
22
1.396155
32
4.509459
13
-0.450667
23
1.430229
33
4.508016
0
3DFACE
8
coconut_palm2_coconuts
10
-0.419038
20
1.395651
30
4.492332
11
-0.430465
21
1.367567
31
4.487783
12
-0.446844
22
1.367859
32
4.497672
13
-0.447407
23
1.396155
33
4.509459
0
3DFACE
8
coconut_palm2_coconuts
10
-0.430465
20
1.367567
30
4.487783
11
-0.449128
21
1.352923
31
4.475814
12
-0.446844
22
1.367859
32
4.497672
13
-0.446844
23
1.367859
33
4.497672
0
3DFACE
8
coconut_palm2_coconuts
10
-0.465815
20
1.482517
30
4.444359
11
-0.440124
21
1.476014
31
4.442409
12
-0.444916
22
1.479799
32
4.460543
13
-0.444916
23
1.479799
33
4.460543
0
3DFACE
8
coconut_palm2_coconuts
10
-0.440124
20
1.476014
30
4.442409
11
-0.419083
21
1.453892
31
4.445196
12
-0.427381
22
1.460447
32
4.476604
13
-0.444916
23
1.479799
33
4.460543
0
3DFACE
8
coconut_palm2_coconuts
10
-0.419083
20
1.453892
30
4.445196
11
-0.408327
21
1.422078
31
4.451972
12
-0.417909
22
1.429647
32
4.488240
13
-0.427381
23
1.460447
33
4.476604
0
3DFACE
8
coconut_palm2_coconuts
10
-0.408327
20
1.422078
30
4.451972
11
-0.410740
21
1.389095
31
4.460923
12
-0.419038
22
1.395651
32
4.492332
13
-0.417909
23
1.429647
33
4.488240
0
3DFACE
8
coconut_palm2_coconuts
10
-0.410740
20
1.389095
30
4.460923
11
-0.425674
21
1.363783
31
4.469650
12
-0.430465
22
1.367567
32
4.487783
13
-0.419038
23
1.395651
33
4.492332
0
3DFACE
8
coconut_palm2_coconuts
10
-0.425674
20
1.363783
30
4.469650
11
-0.449128
21
1.352923
31
4.475814
12
-0.430465
22
1.367567
32
4.487783
13
-0.430465
23
1.367567
33
4.487783
0
3DFACE
8
coconut_palm2_coconuts
10
-0.465815
20
1.482517
30
4.444359
11
-0.449727
21
1.470953
31
4.426651
12
-0.440124
22
1.476014
32
4.442409
13
-0.440124
23
1.476014
33
4.442409
0
3DFACE
8
coconut_palm2_coconuts
10
-0.449727
20
1.470953
30
4.426651
11
-0.435716
21
1.445126
31
4.417903
12
-0.419083
22
1.453892
32
4.445196
13
-0.440124
23
1.476014
33
4.442409
0
3DFACE
8
coconut_palm2_coconuts
10
-0.435716
20
1.445126
30
4.417903
11
-0.427533
21
1.411955
31
4.420458
12
-0.408327
22
1.422078
32
4.451972
13
-0.419083
23
1.453892
33
4.445196
0
3DFACE
8
coconut_palm2_coconuts
10
-0.427533
20
1.411955
30
4.420458
11
-0.427372
21
1.380329
31
4.433630
12
-0.410740
22
1.389095
32
4.460923
13
-0.408327
23
1.422078
33
4.451972
0
3DFACE
8
coconut_palm2_coconuts
10
-0.427372
20
1.380329
30
4.433630
11
-0.435277
21
1.358722
31
4.453893
12
-0.425674
22
1.363783
32
4.469650
13
-0.410740
23
1.389095
33
4.460923
0
3DFACE
8
coconut_palm2_coconuts
10
-0.435277
20
1.358722
30
4.453893
11
-0.449128
21
1.352923
31
4.475814
12
-0.425674
22
1.363783
32
4.469650
13
-0.425674
23
1.363783
33
4.469650
0
3DFACE
8
coconut_palm2_coconuts
10
-0.465815
20
1.482517
30
4.444359
11
-0.468099
21
1.467580
31
4.422502
12
-0.449727
22
1.470953
32
4.426651
13
-0.449727
23
1.470953
33
4.426651
0
3DFACE
8
coconut_palm2_coconuts
10
-0.468099
20
1.467580
30
4.422502
11
-0.467536
21
1.439285
31
4.410715
12
-0.435716
22
1.445126
32
4.417903
13
-0.449727
23
1.470953
33
4.426651
0
3DFACE
8
coconut_palm2_coconuts
10
-0.467536
20
1.439285
30
4.410715
11
-0.464276
21
1.405210
31
4.412158
12
-0.427533
22
1.411955
32
4.420458
13
-0.435716
23
1.445126
33
4.417903
0
3DFACE
8
coconut_palm2_coconuts
10
-0.464276
20
1.405210
30
4.412158
11
-0.459193
21
1.374488
31
4.426443
12
-0.427372
22
1.380329
32
4.433630
13
-0.427533
23
1.411955
33
4.420458
0
3DFACE
8
coconut_palm2_coconuts
10
-0.459193
20
1.374488
30
4.426443
11
-0.453649
21
1.355349
31
4.449743
12
-0.435277
22
1.358722
32
4.453893
13
-0.427372
23
1.380329
33
4.433630
0
3DFACE
8
coconut_palm2_coconuts
10
-0.453649
20
1.355349
30
4.449743
11
-0.449128
21
1.352923
31
4.475814
12
-0.435277
22
1.358722
32
4.453893
13
-0.435277
23
1.358722
33
4.453893
0
3DFACE
8
coconut_palm2_coconuts
10
-0.465815
20
1.482517
30
4.444359
11
-0.484477
21
1.467872
31
4.432390
12
-0.468099
22
1.467580
32
4.422502
13
-0.468099
23
1.467580
33
4.422502
0
3DFACE
8
coconut_palm2_coconuts
10
-0.484477
20
1.467872
30
4.432390
11
-0.495904
21
1.439789
31
4.427842
12
-0.467536
22
1.439285
32
4.410715
13
-0.468099
23
1.467580
33
4.422502
0
3DFACE
8
coconut_palm2_coconuts
10
-0.495904
20
1.439789
30
4.427842
11
-0.497033
21
1.405792
31
4.431933
12
-0.464276
22
1.405210
32
4.412158
13
-0.467536
23
1.439285
33
4.410715
0
3DFACE
8
coconut_palm2_coconuts
10
-0.497033
20
1.405792
30
4.431933
11
-0.487562
21
1.374992
31
4.443570
12
-0.459193
22
1.374488
32
4.426443
13
-0.464276
23
1.405210
33
4.412158
0
3DFACE
8
coconut_palm2_coconuts
10
-0.487562
20
1.374992
30
4.443570
11
-0.470027
21
1.355640
31
4.459630
12
-0.453649
22
1.355349
32
4.449743
13
-0.459193
23
1.374488
33
4.426443
0
3DFACE
8
coconut_palm2_coconuts
10
-0.470027
20
1.355640
30
4.459630
11
-0.449128
21
1.352923
31
4.475814
12
-0.453649
22
1.355349
32
4.449743
13
-0.453649
23
1.355349
33
4.449743
0
3DFACE
8
coconut_palm2_coconuts
10
-0.503251
20
1.558362
30
4.265621
11
-0.485898
21
1.550306
31
4.265378
12
-0.484850
22
1.575534
32
4.257102
13
-0.484850
23
1.575534
33
4.257102
0
3DFACE
8
coconut_palm2_coconuts
10
-0.503251
20
1.558362
30
4.265621
11
-0.516712
21
1.545270
31
4.289856
12
-0.486654
22
1.531316
32
4.289434
13
-0.485898
23
1.550306
33
4.265378
0
3DFACE
8
coconut_palm2_coconuts
10
-0.516712
20
1.545270
30
4.289856
11
-0.521624
21
1.539765
31
4.323313
12
-0.486916
22
1.523652
32
4.322825
13
-0.486654
23
1.531316
33
4.289434
0
3DFACE
8
coconut_palm2_coconuts
10
-0.521624
20
1.539765
30
4.323313
11
-0.516673
21
1.543323
31
4.357027
12
-0.486616
22
1.529369
32
4.356605
13
-0.486916
23
1.523652
33
4.322825
0
3DFACE
8
coconut_palm2_coconuts
10
-0.516673
20
1.543323
30
4.357027
11
-0.503184
21
1.554990
31
4.381963
12
-0.485830
22
1.546933
32
4.381720
13
-0.486616
23
1.529369
33
4.356605
0
3DFACE
8
coconut_palm2_coconuts
10
-0.503184
20
1.554990
30
4.381963
11
-0.484773
21
1.571640
31
4.391442
12
-0.485830
22
1.546933
32
4.381720
13
-0.485830
23
1.546933
33
4.381720
0
3DFACE
8
coconut_palm2_coconuts
10
-0.485898
20
1.550306
30
4.265378
11
-0.467928
21
1.556875
31
4.265558
12
-0.484850
22
1.575534
32
4.257102
13
-0.484850
23
1.575534
33
4.257102
0
3DFACE
8
coconut_palm2_coconuts
10
-0.485898
20
1.550306
30
4.265378
11
-0.486654
21
1.531316
31
4.289434
12
-0.455529
22
1.542694
32
4.289746
13
-0.467928
23
1.556875
33
4.265558
0
3DFACE
8
coconut_palm2_coconuts
10
-0.486654
20
1.531316
30
4.289434
11
-0.486916
21
1.523652
31
4.322825
12
-0.450976
22
1.536791
32
4.323186
13
-0.455529
23
1.542694
33
4.289746
0
3DFACE
8
coconut_palm2_coconuts
10
-0.486916
20
1.523652
30
4.322825
11
-0.486616
21
1.529369
31
4.356605
12
-0.455489
22
1.540747
32
4.356916
13
-0.450976
23
1.536791
33
4.323186
0
3DFACE
8
coconut_palm2_coconuts
10
-0.486616
20
1.529369
30
4.356605
11
-0.485830
21
1.546933
31
4.381720
12
-0.467860
22
1.553503
32
4.381900
13
-0.455489
23
1.540747
33
4.356916
0
3DFACE
8
coconut_palm2_coconuts
10
-0.485830
20
1.546933
30
4.381720
11
-0.484773
21
1.571640
31
4.391442
12
-0.467860
22
1.553503
32
4.381900
13
-0.467860
23
1.553503
33
4.381900
0
3DFACE
8
coconut_palm2_coconuts
10
-0.467928
20
1.556875
30
4.265558
11
-0.459867
21
1.574221
31
4.266056
12
-0.484850
22
1.575534
32
4.257102
13
-0.484850
23
1.575534
33
4.257102
0
3DFACE
8
coconut_palm2_coconuts
10
-0.467928
20
1.556875
30
4.265558
11
-0.455529
21
1.542694
31
4.289746
12
-0.441568
22
1.572739
32
4.290609
13
-0.459867
23
1.574221
33
4.266056
0
3DFACE
8
coconut_palm2_coconuts
10
-0.455529
20
1.542694
30
4.289746
11
-0.450976
21
1.536791
31
4.323186
12
-0.434856
22
1.571484
32
4.324182
13
-0.441568
23
1.572739
33
4.290609
0
3DFACE
8
coconut_palm2_coconuts
10
-0.450976
20
1.536791
30
4.323186
11
-0.455489
21
1.540747
31
4.356916
12
-0.441530
22
1.570792
32
4.357780
13
-0.434856
23
1.571484
33
4.324182
0
3DFACE
8
coconut_palm2_coconuts
10
-0.455489
20
1.540747
30
4.356916
11
-0.467860
21
1.553503
31
4.381900
12
-0.459800
22
1.570849
32
4.382398
13
-0.441530
23
1.570792
33
4.357780
0
3DFACE
8
coconut_palm2_coconuts
10
-0.467860
20
1.553503
30
4.381900
11
-0.484773
21
1.571640
31
4.391442
12
-0.459800
22
1.570849
32
4.382398
13
-0.459800
23
1.570849
33
4.382398
0
3DFACE
8
coconut_palm2_coconuts
10
-0.459867
20
1.574221
30
4.266056
11
-0.466439
21
1.592184
31
4.266580
12
-0.484850
22
1.575534
32
4.257102
13
-0.484850
23
1.575534
33
4.257102
0
3DFACE
8
coconut_palm2_coconuts
10
-0.459867
20
1.574221
30
4.266056
11
-0.441568
21
1.572739
31
4.290609
12
-0.452950
22
1.603851
32
4.291517
13
-0.466439
23
1.592184
33
4.266580
0
3DFACE
8
coconut_palm2_coconuts
10
-0.441568
20
1.572739
30
4.290609
11
-0.434856
21
1.571484
31
4.324182
12
-0.447999
22
1.607409
32
4.325231
13
-0.452950
23
1.603851
33
4.291517
0
3DFACE
8
coconut_palm2_coconuts
10
-0.434856
20
1.571484
30
4.324182
11
-0.441530
21
1.570792
31
4.357780
12
-0.452912
22
1.601904
32
4.358688
13
-0.447999
23
1.607409
33
4.325231
0
3DFACE
8
coconut_palm2_coconuts
10
-0.441530
20
1.570792
30
4.357780
11
-0.459800
21
1.570849
31
4.382398
12
-0.466372
22
1.588812
32
4.382923
13
-0.452912
23
1.601904
33
4.358688
0
3DFACE
8
coconut_palm2_coconuts
10
-0.459800
20
1.570849
30
4.382398
11
-0.484773
21
1.571640
31
4.391442
12
-0.466372
22
1.588812
32
4.382923
13
-0.466372
23
1.588812
33
4.382923
0
3DFACE
8
coconut_palm2_coconuts
10
-0.466439
20
1.592184
30
4.266580
11
-0.483793
21
1.600241
31
4.266824
12
-0.484850
22
1.575534
32
4.257102
13
-0.484850
23
1.575534
33
4.257102
0
3DFACE
8
coconut_palm2_coconuts
10
-0.466439
20
1.592184
30
4.266580
11
-0.452950
21
1.603851
31
4.291517
12
-0.483008
22
1.617805
32
4.291940
13
-0.483793
23
1.600241
33
4.266824
0
3DFACE
8
coconut_palm2_coconuts
10
-0.452950
20
1.603851
30
4.291517
11
-0.447999
21
1.607409
31
4.325231
12
-0.482706
22
1.623522
32
4.325718
13
-0.483008
23
1.617805
33
4.291940
0
3DFACE
8
coconut_palm2_coconuts
10
-0.447999
20
1.607409
30
4.325231
11
-0.452912
21
1.601904
31
4.358688
12
-0.482969
22
1.615858
32
4.359109
13
-0.482706
23
1.623522
33
4.325718
0
3DFACE
8
coconut_palm2_coconuts
10
-0.452912
20
1.601904
30
4.358688
11
-0.466372
21
1.588812
31
4.382923
12
-0.483725
22
1.596868
32
4.383166
13
-0.482969
23
1.615858
33
4.359109
0
3DFACE
8
coconut_palm2_coconuts
10
-0.466372
20
1.588812
30
4.382923
11
-0.484773
21
1.571640
31
4.391442
12
-0.483725
22
1.596868
32
4.383166
13
-0.483725
23
1.596868
33
4.383166
0
3DFACE
8
coconut_palm2_coconuts
10
-0.483793
20
1.600241
30
4.266824
11
-0.501763
21
1.593671
31
4.266644
12
-0.484850
22
1.575534
32
4.257102
13
-0.484850
23
1.575534
33
4.257102
0
3DFACE
8
coconut_palm2_coconuts
10
-0.483793
20
1.600241
30
4.266824
11
-0.483008
21
1.617805
31
4.291940
12
-0.514134
22
1.606427
32
4.291628
13
-0.501763
23
1.593671
33
4.266644
0
3DFACE
8
coconut_palm2_coconuts
10
-0.483008
20
1.617805
30
4.291940
11
-0.482706
21
1.623522
31
4.325718
12
-0.518647
22
1.610383
32
4.325358
13
-0.514134
23
1.606427
33
4.291628
0
3DFACE
8
coconut_palm2_coconuts
10
-0.482706
20
1.623522
30
4.325718
11
-0.482969
21
1.615858
31
4.359109
12
-0.514095
22
1.604480
32
4.358798
13
-0.518647
23
1.610383
33
4.325358
0
3DFACE
8
coconut_palm2_coconuts
10
-0.482969
20
1.615858
30
4.359109
11
-0.483725
21
1.596868
31
4.383166
12
-0.501696
22
1.590299
32
4.382986
13
-0.514095
23
1.604480
33
4.358798
0
3DFACE
8
coconut_palm2_coconuts
10
-0.483725
20
1.596868
30
4.383166
11
-0.484773
21
1.571640
31
4.391442
12
-0.501696
22
1.590299
32
4.382986
13
-0.501696
23
1.590299
33
4.382986
0
3DFACE
8
coconut_palm2_coconuts
10
-0.501763
20
1.593671
30
4.266644
11
-0.509823
21
1.576325
31
4.266146
12
-0.484850
22
1.575534
32
4.257102
13
-0.484850
23
1.575534
33
4.257102
0
3DFACE
8
coconut_palm2_coconuts
10
-0.501763
20
1.593671
30
4.266644
11
-0.514134
21
1.606427
31
4.291628
12
-0.528094
22
1.576382
32
4.290765
13
-0.509823
23
1.576325
33
4.266146
0
3DFACE
8
coconut_palm2_coconuts
10
-0.514134
20
1.606427
30
4.291628
11
-0.518647
21
1.610383
31
4.325358
12
-0.534767
22
1.575690
32
4.324361
13
-0.528094
23
1.576382
33
4.290765
0
3DFACE
8
coconut_palm2_coconuts
10
-0.518647
20
1.610383
30
4.325358
11
-0.514095
21
1.604480
31
4.358798
12
-0.528055
22
1.574435
32
4.357934
13
-0.534767
23
1.575690
33
4.324361
0
3DFACE
8
coconut_palm2_coconuts
10
-0.514095
20
1.604480
30
4.358798
11
-0.501696
21
1.590299
31
4.382986
12
-0.509756
22
1.572952
32
4.382487
13
-0.528055
23
1.574435
33
4.357934
0
3DFACE
8
coconut_palm2_coconuts
10
-0.501696
20
1.590299
30
4.382986
11
-0.484773
21
1.571640
31
4.391442
12
-0.509756
22
1.572952
32
4.382487
13
-0.509756
23
1.572952
33
4.382487
0
3DFACE
8
coconut_palm2_coconuts
10
-0.509823
20
1.576325
30
4.266146
11
-0.503251
21
1.558362
31
4.265621
12
-0.484850
22
1.575534
32
4.257102
13
-0.484850
23
1.575534
33
4.257102
0
3DFACE
8
coconut_palm2_coconuts
10
-0.509823
20
1.576325
30
4.266146
11
-0.528094
21
1.576382
31
4.290765
12
-0.516712
22
1.545270
32
4.289856
13
-0.503251
23
1.558362
33
4.265621
0
3DFACE
8
coconut_palm2_coconuts
10
-0.528094
20
1.576382
30
4.290765
11
-0.534767
21
1.575690
31
4.324361
12
-0.521624
22
1.539765
32
4.323313
13
-0.516712
23
1.545270
33
4.289856
0
3DFACE
8
coconut_palm2_coconuts
10
-0.534767
20
1.575690
30
4.324361
11
-0.528055
21
1.574435
31
4.357934
12
-0.516673
22
1.543323
32
4.357027
13
-0.521624
23
1.539765
33
4.323313
0
3DFACE
8
coconut_palm2_coconuts
10
-0.528055
20
1.574435
30
4.357934
11
-0.509756
21
1.572952
31
4.382487
12
-0.503184
22
1.554990
32
4.381963
13
-0.516673
23
1.543323
33
4.357027
0
3DFACE
8
coconut_palm2_coconuts
10
-0.509756
20
1.572952
30
4.382487
11
-0.484773
21
1.571640
31
4.391442
12
-0.503184
22
1.554990
32
4.381963
13
-0.503184
23
1.554990
33
4.381963
0
3DFACE
8
coconut_palm2_coconuts
10
-0.168986
20
1.508472
30
4.399346
11
-0.162801
21
1.493171
31
4.389663
12
-0.152862
22
1.493559
32
4.414303
13
-0.152862
23
1.493559
33
4.414303
0
3DFACE
8
coconut_palm2_coconuts
10
-0.168986
20
1.508472
30
4.399346
11
-0.197428
21
1.512510
31
4.388638
12
-0.186716
22
1.486009
32
4.371867
13
-0.162801
23
1.493171
33
4.389663
0
3DFACE
8
coconut_palm2_coconuts
10
-0.197428
20
1.512510
30
4.388638
11
-0.230567
21
1.504593
31
4.385048
12
-0.218200
22
1.473993
32
4.365685
13
-0.186716
23
1.486009
33
4.371867
0
3DFACE
8
coconut_palm2_coconuts
10
-0.230567
20
1.504593
30
4.385048
11
-0.259525
21
1.486843
31
4.389540
12
-0.248814
22
1.460341
32
4.372770
13
-0.218200
23
1.473993
33
4.365685
0
3DFACE
8
coconut_palm2_coconuts
10
-0.259525
20
1.486843
30
4.389540
11
-0.276541
21
1.464014
31
4.400908
12
-0.270356
22
1.448713
32
4.391224
13
-0.248814
23
1.460341
33
4.372770
0
3DFACE
8
coconut_palm2_coconuts
10
-0.276541
20
1.464014
30
4.400908
11
-0.277056
21
1.442224
31
4.416106
12
-0.270356
22
1.448713
32
4.391224
13
-0.270356
23
1.448713
33
4.391224
0
3DFACE
8
coconut_palm2_coconuts
10
-0.162801
20
1.493171
30
4.389663
11
-0.155669
21
1.476084
31
4.394485
12
-0.152862
22
1.493559
32
4.414303
13
-0.152862
23
1.493559
33
4.414303
0
3DFACE
8
coconut_palm2_coconuts
10
-0.162801
20
1.493171
30
4.389663
11
-0.186716
21
1.486009
31
4.371867
12
-0.174361
22
1.456411
32
4.380218
13
-0.155669
23
1.476084
33
4.394485
0
3DFACE
8
coconut_palm2_coconuts
10
-0.186716
20
1.486009
30
4.371867
11
-0.218200
21
1.473993
31
4.365685
12
-0.203931
22
1.439815
32
4.375325
13
-0.174361
23
1.456411
33
4.380218
0
3DFACE
8
coconut_palm2_coconuts
10
-0.218200
20
1.473993
30
4.365685
11
-0.248814
21
1.460341
31
4.372770
12
-0.236458
22
1.430744
32
4.381120
13
-0.203931
23
1.439815
33
4.375325
0
3DFACE
8
coconut_palm2_coconuts
10
-0.248814
20
1.460341
30
4.372770
11
-0.270356
21
1.448713
31
4.391224
12
-0.263223
22
1.431626
32
4.396047
13
-0.236458
23
1.430744
33
4.381120
0
3DFACE
8
coconut_palm2_coconuts
10
-0.270356
20
1.448713
30
4.391224
11
-0.277056
21
1.442224
31
4.416106
12
-0.263223
22
1.431626
32
4.396047
13
-0.263223
23
1.431626
33
4.396047
0
3DFACE
8
coconut_palm2_coconuts
10
-0.155669
20
1.476084
30
4.394485
11
-0.151764
21
1.467219
31
4.410985
12
-0.152862
22
1.493559
32
4.414303
13
-0.152862
23
1.493559
33
4.414303
0
3DFACE
8
coconut_palm2_coconuts
10
-0.155669
20
1.476084
30
4.394485
11
-0.174361
21
1.456411
31
4.380218
12
-0.167599
22
1.441056
32
4.408799
13
-0.151764
23
1.467219
33
4.410985
0
3DFACE
8
coconut_palm2_coconuts
10
-0.174361
20
1.456411
30
4.380218
11
-0.203931
21
1.439815
31
4.375325
12
-0.196126
22
1.422088
32
4.408330
13
-0.167599
23
1.441056
33
4.408799
0
3DFACE
8
coconut_palm2_coconuts
10
-0.203931
20
1.439815
30
4.375325
11
-0.236458
21
1.430744
31
4.381120
12
-0.229696
22
1.415389
32
4.409701
13
-0.196126
23
1.422088
33
4.408330
0
3DFACE
8
coconut_palm2_coconuts
10
-0.236458
20
1.430744
30
4.381120
11
-0.263223
21
1.431626
31
4.396047
12
-0.259318
22
1.422759
32
4.412547
13
-0.229696
23
1.415389
33
4.409701
0
3DFACE
8
coconut_palm2_coconuts
10
-0.263223
20
1.431626
30
4.396047
11
-0.277056
21
1.442224
31
4.416106
12
-0.259318
22
1.422759
32
4.412547
13
-0.259318
23
1.422759
33
4.412547
0
3DFACE
8
coconut_palm2_coconuts
10
-0.151764
20
1.467219
30
4.410985
11
-0.153378
21
1.471771
31
4.429502
12
-0.152862
22
1.493559
32
4.414303
13
-0.152862
23
1.493559
33
4.414303
0
3DFACE
8
coconut_palm2_coconuts
10
-0.151764
20
1.467219
30
4.410985
11
-0.167599
21
1.441056
31
4.408799
12
-0.170393
22
1.448941
32
4.440870
13
-0.153378
23
1.471771
33
4.429502
0
3DFACE
8
coconut_palm2_coconuts
10
-0.167599
20
1.441056
30
4.408799
11
-0.196126
21
1.422088
31
4.408330
12
-0.199350
22
1.431190
32
4.445359
13
-0.170393
23
1.448941
33
4.440870
0
3DFACE
8
coconut_palm2_coconuts
10
-0.196126
20
1.422088
30
4.408330
11
-0.229696
21
1.415389
31
4.409701
12
-0.232490
22
1.423274
32
4.441771
13
-0.199350
23
1.431190
33
4.445359
0
3DFACE
8
coconut_palm2_coconuts
10
-0.229696
20
1.415389
30
4.409701
11
-0.259318
21
1.422759
31
4.412547
12
-0.260931
22
1.427311
32
4.431061
13
-0.232490
23
1.423274
33
4.441771
0
3DFACE
8
coconut_palm2_coconuts
10
-0.259318
20
1.422759
30
4.412547
11
-0.277056
21
1.442224
31
4.416106
12
-0.260931
22
1.427311
32
4.431061
13
-0.260931
23
1.427311
33
4.431061
0
3DFACE
8
coconut_palm2_coconuts
10
-0.153378
20
1.471771
30
4.429502
11
-0.159562
21
1.487072
31
4.439185
12
-0.152862
22
1.493559
32
4.414303
13
-0.152862
23
1.493559
33
4.414303
0
3DFACE
8
coconut_palm2_coconuts
10
-0.153378
20
1.471771
30
4.429502
11
-0.170393
21
1.448941
31
4.440870
12
-0.181105
22
1.475443
32
4.457640
13
-0.159562
23
1.487072
33
4.439185
0
3DFACE
8
coconut_palm2_coconuts
10
-0.170393
20
1.448941
30
4.440870
11
-0.199350
21
1.431190
31
4.445359
12
-0.211719
22
1.461793
32
4.464725
13
-0.181105
23
1.475443
33
4.457640
0
3DFACE
8
coconut_palm2_coconuts
10
-0.199350
20
1.431190
30
4.445359
11
-0.232490
21
1.423274
31
4.441771
12
-0.243201
22
1.449774
32
4.458540
13
-0.211719
23
1.461793
33
4.464725
0
3DFACE
8
coconut_palm2_coconuts
10
-0.232490
20
1.423274
30
4.441771
11
-0.260931
21
1.427311
31
4.431061
12
-0.267116
22
1.442613
32
4.440745
13
-0.243201
23
1.449774
33
4.458540
0
3DFACE
8
coconut_palm2_coconuts
10
-0.260931
20
1.427311
30
4.431061
11
-0.277056
21
1.442224
31
4.416106
12
-0.267116
22
1.442613
32
4.440745
13
-0.267116
23
1.442613
33
4.440745
0
3DFACE
8
coconut_palm2_coconuts
10
-0.159562
20
1.487072
30
4.439185
11
-0.166695
21
1.504159
31
4.434362
12
-0.152862
22
1.493559
32
4.414303
13
-0.152862
23
1.493559
33
4.414303
0
3DFACE
8
coconut_palm2_coconuts
10
-0.159562
20
1.487072
30
4.439185
11
-0.181105
21
1.475443
31
4.457640
12
-0.193460
22
1.505039
32
4.449288
13
-0.166695
23
1.504159
33
4.434362
0
3DFACE
8
coconut_palm2_coconuts
10
-0.181105
20
1.475443
30
4.457640
11
-0.211719
21
1.461793
31
4.464725
12
-0.225987
22
1.495968
32
4.455083
13
-0.193460
23
1.505039
33
4.449288
0
3DFACE
8
coconut_palm2_coconuts
10
-0.211719
20
1.461793
30
4.464725
11
-0.243201
21
1.449774
31
4.458540
12
-0.255557
22
1.479373
32
4.450191
13
-0.225987
23
1.495968
33
4.455083
0
3DFACE
8
coconut_palm2_coconuts
10
-0.243201
20
1.449774
30
4.458540
11
-0.267116
21
1.442613
31
4.440745
12
-0.274249
22
1.459701
32
4.435924
13
-0.255557
23
1.479373
33
4.450191
0
3DFACE
8
coconut_palm2_coconuts
10
-0.267116
20
1.442613
30
4.440745
11
-0.277056
21
1.442224
31
4.416106
12
-0.274249
22
1.459701
32
4.435924
13
-0.274249
23
1.459701
33
4.435924
0
3DFACE
8
coconut_palm2_coconuts
10
-0.166695
20
1.504159
30
4.434362
11
-0.170599
21
1.513025
31
4.417862
12
-0.152862
22
1.493559
32
4.414303
13
-0.152862
23
1.493559
33
4.414303
0
3DFACE
8
coconut_palm2_coconuts
10
-0.166695
20
1.504159
30
4.434362
11
-0.193460
21
1.505039
31
4.449288
12
-0.200223
22
1.520395
32
4.420709
13
-0.170599
23
1.513025
33
4.417862
0
3DFACE
8
coconut_palm2_coconuts
10
-0.193460
20
1.505039
30
4.449288
11
-0.225987
21
1.495968
31
4.455083
12
-0.233793
22
1.513697
32
4.422080
13
-0.200223
23
1.520395
33
4.420709
0
3DFACE
8
coconut_palm2_coconuts
10
-0.225987
20
1.495968
30
4.455083
11
-0.255557
21
1.479373
31
4.450191
12
-0.262319
22
1.494727
32
4.421609
13
-0.233793
23
1.513697
33
4.422080
0
3DFACE
8
coconut_palm2_coconuts
10
-0.255557
20
1.479373
30
4.450191
11
-0.274249
21
1.459701
31
4.435924
12
-0.278152
22
1.468564
32
4.419421
13
-0.262319
23
1.494727
33
4.421609
0
3DFACE
8
coconut_palm2_coconuts
10
-0.274249
20
1.459701
30
4.435924
11
-0.277056
21
1.442224
31
4.416106
12
-0.278152
22
1.468564
32
4.419421
13
-0.278152
23
1.468564
33
4.419421
0
3DFACE
8
coconut_palm2_coconuts
10
-0.170599
20
1.513025
30
4.417862
11
-0.168986
21
1.508472
31
4.399346
12
-0.152862
22
1.493559
32
4.414303
13
-0.152862
23
1.493559
33
4.414303
0
3DFACE
8
coconut_palm2_coconuts
10
-0.170599
20
1.513025
30
4.417862
11
-0.200223
21
1.520395
31
4.420709
12
-0.197428
22
1.512510
32
4.388638
13
-0.168986
23
1.508472
33
4.399346
0
3DFACE
8
coconut_palm2_coconuts
10
-0.200223
20
1.520395
30
4.420709
11
-0.233793
21
1.513697
31
4.422080
12
-0.230567
22
1.504593
32
4.385048
13
-0.197428
23
1.512510
33
4.388638
0
3DFACE
8
coconut_palm2_coconuts
10
-0.233793
20
1.513697
30
4.422080
11
-0.262319
21
1.494727
31
4.421609
12
-0.259525
22
1.486843
32
4.389540
13
-0.230567
23
1.504593
33
4.385048
0
3DFACE
8
coconut_palm2_coconuts
10
-0.262319
20
1.494727
30
4.421609
11
-0.278152
21
1.468564
31
4.419421
12
-0.276541
22
1.464014
32
4.400908
13
-0.259525
23
1.486843
33
4.389540
0
3DFACE
8
coconut_palm2_coconuts
10
-0.278152
20
1.468564
30
4.419421
11
-0.277056
21
1.442224
31
4.416106
12
-0.276541
22
1.464014
32
4.400908
13
-0.276541
23
1.464014
33
4.400908
0
3DFACE
8
coconut_palm2_coconuts
10
-0.344163
20
1.435268
30
4.443804
11
-0.353899
21
1.423370
31
4.465477
12
-0.354615
22
1.411721
32
4.450314
13
-0.354615
23
1.411721
33
4.450314
0
3DFACE
8
coconut_palm2_coconuts
10
-0.353899
20
1.423370
30
4.465477
11
-0.348378
21
1.404215
31
4.488769
12
-0.349619
22
1.384039
32
4.462506
13
-0.354615
23
1.411721
33
4.450314
0
3DFACE
8
coconut_palm2_coconuts
10
-0.348378
20
1.404215
30
4.488769
11
-0.329082
21
1.382937
31
4.507440
12
-0.330513
22
1.359639
32
4.477114
13
-0.349619
23
1.384039
33
4.462506
0
3DFACE
8
coconut_palm2_coconuts
10
-0.329082
20
1.382937
30
4.507440
11
-0.301178
21
1.365234
31
4.516486
12
-0.302418
22
1.345058
32
4.490223
13
-0.330513
23
1.359639
33
4.477114
0
3DFACE
8
coconut_palm2_coconuts
10
-0.301178
20
1.365234
30
4.516486
11
-0.272145
21
1.355854
31
4.513485
12
-0.272861
22
1.344205
32
4.498322
13
-0.302418
23
1.345058
33
4.490223
0
3DFACE
8
coconut_palm2_coconuts
10
-0.272145
20
1.355854
30
4.513485
11
-0.249763
21
1.357307
31
4.499239
12
-0.272861
22
1.344205
32
4.498322
13
-0.272861
23
1.344205
33
4.498322
0
3DFACE
8
coconut_palm2_coconuts
10
-0.344163
20
1.435268
30
4.443804
11
-0.343775
21
1.438929
31
4.470119
12
-0.353899
22
1.423370
32
4.465477
13
-0.353899
23
1.423370
33
4.465477
0
3DFACE
8
coconut_palm2_coconuts
10
-0.343775
20
1.438929
30
4.470119
11
-0.330844
21
1.431164
31
4.496809
12
-0.348378
22
1.404215
32
4.488769
13
-0.353899
23
1.423370
33
4.465477
0
3DFACE
8
coconut_palm2_coconuts
10
-0.330844
20
1.431164
30
4.496809
11
-0.308835
21
1.414054
31
4.516725
12
-0.329082
22
1.382937
32
4.507440
13
-0.348378
23
1.404215
33
4.488769
0
3DFACE
8
coconut_palm2_coconuts
10
-0.308835
20
1.414054
30
4.516725
11
-0.283644
21
1.392184
31
4.524528
12
-0.301178
22
1.365234
32
4.516486
13
-0.329082
23
1.382937
33
4.507440
0
3DFACE
8
coconut_palm2_coconuts
10
-0.283644
20
1.392184
30
4.524528
11
-0.262022
21
1.371413
31
4.518127
12
-0.272145
22
1.355854
32
4.513485
13
-0.301178
23
1.365234
33
4.516486
0
3DFACE
8
coconut_palm2_coconuts
10
-0.262022
20
1.371413
30
4.518127
11
-0.249763
21
1.357307
31
4.499239
12
-0.272145
22
1.355854
32
4.513485
13
-0.272145
23
1.355854
33
4.513485
0
3DFACE
8
coconut_palm2_coconuts
10
-0.344163
20
1.435268
30
4.443804
11
-0.330175
21
1.449284
31
4.461522
12
-0.343775
22
1.438929
32
4.470119
13
-0.343775
23
1.438929
33
4.470119
0
3DFACE
8
coconut_palm2_coconuts
10
-0.330175
20
1.449284
30
4.461522
11
-0.307287
21
1.449100
31
4.481918
12
-0.330844
22
1.431164
32
4.496809
13
-0.343775
23
1.438929
33
4.470119
0
3DFACE
8
coconut_palm2_coconuts
10
-0.307287
20
1.449100
30
4.481918
11
-0.281634
21
1.434765
31
4.499530
12
-0.308835
22
1.414054
32
4.516725
13
-0.330844
23
1.431164
33
4.496809
0
3DFACE
8
coconut_palm2_coconuts
10
-0.281634
20
1.434765
30
4.499530
11
-0.260087
21
1.410119
31
4.509636
12
-0.283644
22
1.392184
32
4.524528
13
-0.308835
23
1.414054
33
4.516725
0
3DFACE
8
coconut_palm2_coconuts
10
-0.260087
20
1.410119
30
4.509636
11
-0.248422
21
1.381768
31
4.509530
12
-0.262022
22
1.371413
32
4.518127
13
-0.283644
23
1.392184
33
4.524528
0
3DFACE
8
coconut_palm2_coconuts
10
-0.248422
20
1.381768
30
4.509530
11
-0.249763
21
1.357307
31
4.499239
12
-0.262022
22
1.371413
32
4.518127
13
-0.262022
23
1.371413
33
4.518127
0
3DFACE
8
coconut_palm2_coconuts
10
-0.344163
20
1.435268
30
4.443804
11
-0.321064
21
1.448369
31
4.444720
12
-0.330175
22
1.449284
32
4.461522
13
-0.330175
23
1.449284
33
4.461522
0
3DFACE
8
coconut_palm2_coconuts
10
-0.321064
20
1.448369
30
4.444720
11
-0.291507
21
1.447516
31
4.452818
12
-0.307287
22
1.449100
32
4.481918
13
-0.330175
23
1.449284
33
4.461522
0
3DFACE
8
coconut_palm2_coconuts
10
-0.291507
20
1.447516
30
4.452818
11
-0.263412
21
1.432935
31
4.465928
12
-0.281634
22
1.434765
32
4.499530
13
-0.307287
23
1.449100
33
4.481918
0
3DFACE
8
coconut_palm2_coconuts
10
-0.263412
20
1.432935
30
4.465928
11
-0.244307
21
1.408535
31
4.480536
12
-0.260087
22
1.410119
32
4.509636
13
-0.281634
23
1.434765
33
4.499530
0
3DFACE
8
coconut_palm2_coconuts
10
-0.244307
20
1.408535
30
4.480536
11
-0.239311
21
1.380853
31
4.492729
12
-0.248422
22
1.381768
32
4.509530
13
-0.260087
23
1.410119
33
4.509636
0
3DFACE
8
coconut_palm2_coconuts
10
-0.239311
20
1.380853
30
4.492729
11
-0.249763
21
1.357307
31
4.499239
12
-0.248422
22
1.381768
32
4.509530
13
-0.248422
23
1.381768
33
4.509530
0
3DFACE
8
coconut_palm2_coconuts
10
-0.344163
20
1.435268
30
4.443804
11
-0.321780
21
1.436720
31
4.429557
12
-0.321064
22
1.448369
32
4.444720
13
-0.321064
23
1.448369
33
4.444720
0
3DFACE
8
coconut_palm2_coconuts
10
-0.321780
20
1.436720
30
4.429557
11
-0.292747
21
1.427339
31
4.426556
12
-0.291507
22
1.447516
32
4.452818
13
-0.321064
23
1.448369
33
4.444720
0
3DFACE
8
coconut_palm2_coconuts
10
-0.292747
20
1.427339
30
4.426556
11
-0.264844
21
1.409638
31
4.435603
12
-0.263412
22
1.432935
32
4.465928
13
-0.291507
23
1.447516
33
4.452818
0
3DFACE
8
coconut_palm2_coconuts
10
-0.264844
20
1.409638
30
4.435603
11
-0.245547
21
1.388359
31
4.454273
12
-0.244307
22
1.408535
32
4.480536
13
-0.263412
23
1.432935
33
4.465928
0
3DFACE
8
coconut_palm2_coconuts
10
-0.245547
20
1.388359
30
4.454273
11
-0.240027
21
1.369205
31
4.477566
12
-0.239311
22
1.380853
32
4.492729
13
-0.244307
23
1.408535
33
4.480536
0
3DFACE
8
coconut_palm2_coconuts
10
-0.240027
20
1.369205
30
4.477566
11
-0.249763
21
1.357307
31
4.499239
12
-0.239311
22
1.380853
32
4.492729
13
-0.239311
23
1.380853
33
4.492729
0
3DFACE
8
coconut_palm2_coconuts
10
-0.344163
20
1.435268
30
4.443804
11
-0.331903
21
1.421162
31
4.424915
12
-0.321780
22
1.436720
32
4.429557
13
-0.321780
23
1.436720
33
4.429557
0
3DFACE
8
coconut_palm2_coconuts
10
-0.331903
20
1.421162
30
4.424915
11
-0.310281
21
1.400390
31
4.418514
12
-0.292747
22
1.427339
32
4.426556
13
-0.321780
23
1.436720
33
4.429557
0
3DFACE
8
coconut_palm2_coconuts
10
-0.310281
20
1.400390
30
4.418514
11
-0.285091
21
1.378520
31
4.426317
12
-0.264844
22
1.409638
32
4.435603
13
-0.292747
23
1.427339
33
4.426556
0
3DFACE
8
coconut_palm2_coconuts
10
-0.285091
20
1.378520
30
4.426317
11
-0.263081
21
1.361410
31
4.446232
12
-0.245547
22
1.388359
32
4.454273
13
-0.264844
23
1.409638
33
4.435603
0
3DFACE
8
coconut_palm2_coconuts
10
-0.263081
20
1.361410
30
4.446232
11
-0.250150
21
1.353645
31
4.472923
12
-0.240027
22
1.369205
32
4.477566
13
-0.245547
23
1.388359
33
4.454273
0
3DFACE
8
coconut_palm2_coconuts
10
-0.250150
20
1.353645
30
4.472923
11
-0.249763
21
1.357307
31
4.499239
12
-0.240027
22
1.369205
32
4.477566
13
-0.240027
23
1.369205
33
4.477566
0
3DFACE
8
coconut_palm2_coconuts
10
-0.344163
20
1.435268
30
4.443804
11
-0.345504
21
1.410806
31
4.433512
12
-0.331903
22
1.421162
32
4.424915
13
-0.331903
23
1.421162
33
4.424915
0
3DFACE
8
coconut_palm2_coconuts
10
-0.345504
20
1.410806
30
4.433512
11
-0.333838
21
1.382455
31
4.433405
12
-0.310281
22
1.400390
32
4.418514
13
-0.331903
23
1.421162
33
4.424915
0
3DFACE
8
coconut_palm2_coconuts
10
-0.333838
20
1.382455
30
4.433405
11
-0.312292
21
1.357810
31
4.443512
12
-0.285091
22
1.378520
32
4.426317
13
-0.310281
23
1.400390
33
4.418514
0
3DFACE
8
coconut_palm2_coconuts
10
-0.312292
20
1.357810
30
4.443512
11
-0.286638
21
1.343474
31
4.461123
12
-0.263081
22
1.361410
32
4.446232
13
-0.285091
23
1.378520
33
4.426317
0
3DFACE
8
coconut_palm2_coconuts
10
-0.286638
20
1.343474
30
4.461123
11
-0.263751
21
1.343291
31
4.481521
12
-0.250150
22
1.353645
32
4.472923
13
-0.263081
23
1.361410
33
4.446232
0
3DFACE
8
coconut_palm2_coconuts
10
-0.263751
20
1.343291
30
4.481521
11
-0.249763
21
1.357307
31
4.499239
12
-0.250150
22
1.353645
32
4.472923
13
-0.250150
23
1.353645
33
4.472923
0
3DFACE
8
coconut_palm2_coconuts
10
-0.344163
20
1.435268
30
4.443804
11
-0.354615
21
1.411721
31
4.450314
12
-0.345504
22
1.410806
32
4.433512
13
-0.345504
23
1.410806
33
4.433512
0
3DFACE
8
coconut_palm2_coconuts
10
-0.354615
20
1.411721
30
4.450314
11
-0.349619
21
1.384039
31
4.462506
12
-0.333838
22
1.382455
32
4.433405
13
-0.345504
23
1.410806
33
4.433512
0
3DFACE
8
coconut_palm2_coconuts
10
-0.349619
20
1.384039
30
4.462506
11
-0.330513
21
1.359639
31
4.477114
12
-0.312292
22
1.357810
32
4.443512
13
-0.333838
23
1.382455
33
4.433405
0
3DFACE
8
coconut_palm2_coconuts
10
-0.330513
20
1.359639
30
4.477114
11
-0.302418
21
1.345058
31
4.490223
12
-0.286638
22
1.343474
32
4.461123
13
-0.312292
23
1.357810
33
4.443512
0
3DFACE
8
coconut_palm2_coconuts
10
-0.302418
20
1.345058
30
4.490223
11
-0.272861
21
1.344205
31
4.498322
12
-0.263751
22
1.343291
32
4.481521
13
-0.286638
23
1.343474
33
4.461123
0
3DFACE
8
coconut_palm2_coconuts
10
-0.272861
20
1.344205
30
4.498322
11
-0.249763
21
1.357307
31
4.499239
12
-0.263751
22
1.343291
32
4.481521
13
-0.263751
23
1.343291
33
4.481521
0
ENDSEC
0
EOF
