#Produced by Art of Illusion 2.8.1, Sat Feb 18 15:59:29 PST 2012
mtllib fence.mtl
g Spline_Mesh_3
usemtl white
v -0.07781 -0.05871 0
v 0.04719 -0.05871 0
v -0.07781 0.62879 0
v 0.04719 0.62879 0
v -0.01621 0.80008 0
vn 0 0 1
vn 0 0 1
vn 0 0 1
vn 0 0 1
vn 0 0 1
vn 0 0 1
vn 0 0 1
f 1//1 2//3 4//5
f 1//1 4//5 3//4
f 3//4 4//5 5//7
g Spline_Mesh_3_1
usemtl white
v 0.08805 -0.05871 0
v 0.21305 -0.05871 0
v 0.08805 0.62879 0
v 0.21305 0.62879 0
v 0.14965 0.80008 0
vn 0 0 1
vn 0 0 1
vn 0 0 1
vn 0 0 1
vn 0 0 1
vn 0 0 1
vn 0 0 1
f 6//8 7//10 9//12
f 6//8 9//12 8//11
f 8//11 9//12 10//14
g Spline_Mesh_3_2
usemtl white
v 0.41976 -0.05871 0
v 0.54476 -0.05871 0
v 0.41976 0.62879 0
v 0.54476 0.62879 0
v 0.48137 0.80008 0
vn 0 0 1
vn 0 0 1
vn 0 0 1
vn 0 0 1
vn 0 0 1
vn 0 0 1
vn 0 0 1
f 11//15 12//17 14//19
f 11//15 14//19 13//18
f 13//18 14//19 15//21
g Spline_Mesh_3_3
usemtl white
v 0.25391 -0.05871 0
v 0.37891 -0.05871 0
v 0.25391 0.62879 0
v 0.37891 0.62879 0
v 0.31551 0.80008 0
vn 0 0 1
vn 0 0 1
vn 0 0 1
vn 0 0 1
vn 0 0 1
vn 0 0 1
vn 0 0 1
f 16//22 17//24 19//26
f 16//22 19//26 18//25
f 18//25 19//26 20//28
g Spline_Mesh_3_4
usemtl white
v 0.91734 -0.05871 0
v 1.04234 -0.05871 0
v 0.91734 0.62879 0
v 1.04234 0.62879 0
v 0.97895 0.80008 0
vn 0 0 1
vn 0 0 1
vn 0 0 1
vn 0 0 1
vn 0 0 1
vn 0 0 1
vn 0 0 1
f 21//29 22//31 24//33
f 21//29 24//33 23//32
f 23//32 24//33 25//35
g Spline_Mesh_3_5
usemtl white
v 1.0832 -0.05871 0
v 1.2082 -0.05871 0
v 1.0832 0.62879 0
v 1.2082 0.62879 0
v 1.14481 0.80008 0
vn 0 0 1
vn 0 0 1
vn 0 0 1
vn 0 0 1
vn 0 0 1
vn 0 0 1
vn 0 0 1
f 26//36 27//38 29//40
f 26//36 29//40 28//39
f 28//39 29//40 30//42
g Spline_Mesh_3_6
usemtl white
v 0.75148 -0.05871 0
v 0.87648 -0.05871 0
v 0.75148 0.62879 0
v 0.87648 0.62879 0
v 0.81309 0.80008 0
vn 0 0 1
vn 0 0 1
vn 0 0 1
vn 0 0 1
vn 0 0 1
vn 0 0 1
vn 0 0 1
f 31//43 32//45 34//47
f 31//43 34//47 33//46
f 33//46 34//47 35//49
g Spline_Mesh_3_7
usemtl white
v 0.58562 -0.05871 0
v 0.71062 -0.05871 0
v 0.58562 0.62879 0
v 0.71062 0.62879 0
v 0.64723 0.80008 0
vn 0 0 1
vn 0 0 1
vn 0 0 1
vn 0 0 1
vn 0 0 1
vn 0 0 1
vn 0 0 1
f 36//50 37//52 39//54
f 36//50 39//54 38//53
f 38//53 39//54 40//56
g Spline_Mesh_3_8
usemtl white
v -0.74125 -0.05871 0
v -0.61625 -0.05871 0
v -0.74125 0.62879 0
v -0.61625 0.62879 0
v -0.67964 0.80008 0
vn 0 0 1
vn 0 0 1
vn 0 0 1
vn 0 0 1
vn 0 0 1
vn 0 0 1
vn 0 0 1
f 41//57 42//59 44//61
f 41//57 44//61 43//60
f 43//60 44//61 45//63
g Spline_Mesh_3_9
usemtl white
v -0.57539 -0.05871 0
v -0.45039 -0.05871 0
v -0.57539 0.62879 0
v -0.45039 0.62879 0
v -0.51378 0.80008 0
vn 0 0 1
vn 0 0 1
vn 0 0 1
vn 0 0 1
vn 0 0 1
vn 0 0 1
vn 0 0 1
f 46//64 47//66 49//68
f 46//64 49//68 48//67
f 48//67 49//68 50//70
g Spline_Mesh_3_10
usemtl white
v -0.24367 -0.05871 0
v -0.11867 -0.05871 0
v -0.24367 0.62879 0
v -0.11867 0.62879 0
v -0.18207 0.80008 0
vn 0 0 1
vn 0 0 1
vn 0 0 1
vn 0 0 1
vn 0 0 1
vn 0 0 1
vn 0 0 1
f 51//71 52//73 54//75
f 51//71 54//75 53//74
f 53//74 54//75 55//77
g Spline_Mesh_3_11
usemtl white
v -0.40953 -0.05871 0
v -0.28453 -0.05871 0
v -0.40953 0.62879 0
v -0.28453 0.62879 0
v -0.34793 0.80008 0
vn 0 0 1
vn 0 0 1
vn 0 0 1
vn 0 0 1
vn 0 0 1
vn 0 0 1
vn 0 0 1
f 56//78 57//80 59//82
f 56//78 59//82 58//81
f 58//81 59//82 60//84
g Spline_Mesh_3_12
usemtl white
v -1.07297 -0.05871 0
v -0.94797 -0.05871 0
v -1.07297 0.62879 0
v -0.94797 0.62879 0
v -1.01136 0.80008 0
vn 0 0 1
vn 0 0 1
vn 0 0 1
vn 0 0 1
vn 0 0 1
vn 0 0 1
vn 0 0 1
f 61//85 62//87 64//89
f 61//85 64//89 63//88
f 63//88 64//89 65//91
g Spline_Mesh_3_13
usemtl white
v -0.90711 -0.05871 0
v -0.78211 -0.05871 0
v -0.90711 0.62879 0
v -0.78211 0.62879 0
v -0.8455 0.80008 0
vn 0 0 1
vn 0 0 1
vn 0 0 1
vn 0 0 1
vn 0 0 1
vn 0 0 1
vn 0 0 1
f 66//92 67//94 69//96
f 66//92 69//96 68//95
f 68//95 69//96 70//98
g Spline_Mesh_3_14
usemtl white
v -1.23883 -0.05871 0
v -1.11383 -0.05871 0
v -1.23883 0.62879 0
v -1.11383 0.62879 0
v -1.17722 0.80008 0
vn 0 0 1
vn 0 0 1
vn 0 0 1
vn 0 0 1
vn 0 0 1
vn 0 0 1
vn 0 0 1
f 71//99 72//101 74//103
f 71//99 74//103 73//102
f 73//102 74//103 75//105
g Spline_Mesh_3_15
usemtl white
v -1.40469 -0.05871 0
v -1.27969 -0.05871 0
v -1.40469 0.62879 0
v -1.27969 0.62879 0
v -1.34308 0.80008 0
vn 0 0 1
vn 0 0 1
vn 0 0 1
vn 0 0 1
vn 0 0 1
vn 0 0 1
vn 0 0 1
f 76//106 77//108 79//110
f 76//106 79//110 78//109
f 78//109 79//110 80//112
g Cube_10
usemtl Default_Texture
v -1.42086 0.02764 -0.02789
v 1.20839 0.02764 -0.02789
v -1.42086 0.06303 -0.02789
v 1.20839 0.06303 -0.02789
v -0.10623 0.04533 -0.02789
vn 1 0 0
vn 0 0 1
vn 0 0 1
vn 0 0 1
vn 0 0 1
f 81//114 82//114 85//114
f 82//115 84//115 85//115
f 84//116 83//116 85//116
f 83//117 81//117 85//117
g Cube_10_1
usemtl Default_Texture
v -1.42086 0.48859 -0.02789
v 1.20839 0.48859 -0.02789
v -1.42086 0.52398 -0.02789
v 1.20839 0.52398 -0.02789
v -0.10623 0.50628 -0.02789
vn 1 0 0
vn 0 0 1
vn 0 0 1
vn 0 0 1
vn 0 0 1
f 86//119 87//119 90//119
f 87//120 89//120 90//120
f 89//121 88//121 90//121
f 88//122 86//122 90//122
