999
DXF file generated by Cheetah3D
0
SECTION
2
ENTITIES
0
3DFACE
8
coconut_palm1_trunk
10
0.160447
20
-0.000000
30
0.000000
11
0.141735
21
-0.102977
31
0.000000
12
0.098328
22
-0.072450
32
0.499997
13
0.101139
23
-0.000666
33
0.500095
0
3DFACE
8
coconut_palm1_trunk
10
0.141735
20
-0.102977
30
0.000000
11
0.044639
21
-0.137385
31
0.000000
12
0.035990
22
-0.112886
32
0.499884
13
0.098328
23
-0.072450
33
0.499997
0
3DFACE
8
coconut_palm1_trunk
10
0.044639
20
-0.137385
30
0.000000
11
-0.045186
21
-0.139067
31
0.000000
12
-0.034960
22
-0.106808
32
0.499825
13
0.035990
23
-0.112886
33
0.499884
0
3DFACE
8
coconut_palm1_trunk
10
-0.045186
20
-0.139067
30
0.000000
11
-0.135010
21
-0.098091
31
0.000000
12
-0.085563
22
-0.062488
32
0.499836
13
-0.034960
23
-0.106808
33
0.499825
0
3DFACE
8
coconut_palm1_trunk
10
-0.135010
20
-0.098091
30
0.000000
11
-0.172451
21
-0.000000
31
0.000000
12
-0.120929
22
-0.000666
32
0.499885
13
-0.085563
23
-0.062488
33
0.499836
0
3DFACE
8
coconut_palm1_trunk
10
-0.172451
20
-0.000000
30
0.000000
11
-0.125627
21
0.091273
31
0.000000
12
-0.088770
22
0.063485
32
0.500001
13
-0.120929
23
-0.000666
33
0.499885
0
3DFACE
8
coconut_palm1_trunk
10
-0.125627
20
0.091273
30
0.000000
11
-0.055328
21
0.170283
31
0.000000
12
-0.038036
22
0.114941
32
0.500118
13
-0.088770
23
0.063485
33
0.500001
0
3DFACE
8
coconut_palm1_trunk
10
-0.055328
20
0.170283
30
0.000000
11
0.050391
21
0.155089
31
0.000000
12
0.031194
22
0.096793
32
0.500159
13
-0.038036
23
0.114941
33
0.500118
0
3DFACE
8
coconut_palm1_trunk
10
0.050391
20
0.155089
30
0.000000
11
0.136390
21
0.099093
31
0.000000
12
0.091223
22
0.065955
32
0.500175
13
0.031194
23
0.096793
33
0.500159
0
3DFACE
8
coconut_palm1_trunk
10
0.136390
20
0.099093
30
0.000000
11
0.160447
21
0.000000
31
0.000000
12
0.101139
22
-0.000666
32
0.500095
13
0.091223
23
0.065955
33
0.500175
0
3DFACE
8
coconut_palm1_trunk
10
0.101139
20
-0.000666
30
0.500095
11
0.098328
21
-0.072450
31
0.499997
12
0.085982
22
-0.065016
32
0.999599
13
0.108408
23
-0.003879
33
0.999795
0
3DFACE
8
coconut_palm1_trunk
10
0.098328
20
-0.072450
30
0.499997
11
0.035990
21
-0.112886
31
0.499884
12
0.036485
22
-0.110525
32
0.999514
13
0.085982
23
-0.065016
33
0.999599
0
3DFACE
8
coconut_palm1_trunk
10
0.035990
20
-0.112886
30
0.499884
11
-0.034960
21
-0.106808
31
0.499825
12
-0.033389
22
-0.112284
32
0.999635
13
0.036485
23
-0.110525
33
0.999514
0
3DFACE
8
coconut_palm1_trunk
10
-0.034960
20
-0.106808
30
0.499825
11
-0.085563
21
-0.062488
31
0.499836
12
-0.075075
22
-0.059757
32
0.999915
13
-0.033389
23
-0.112284
33
0.999635
0
3DFACE
8
coconut_palm1_trunk
10
-0.085563
20
-0.062488
30
0.499836
11
-0.120929
21
-0.000666
31
0.499885
12
-0.092705
22
-0.003879
32
1.000164
13
-0.075075
23
-0.059757
33
0.999915
0
3DFACE
8
coconut_palm1_trunk
10
-0.120929
20
-0.000666
30
0.499885
11
-0.088770
21
0.063485
31
0.500001
12
-0.083192
22
0.057896
32
1.000386
13
-0.092705
23
-0.003879
33
1.000164
0
3DFACE
8
coconut_palm1_trunk
10
-0.088770
20
0.063485
30
0.500001
11
-0.038036
21
0.114941
31
0.500118
12
-0.029530
22
0.092653
32
1.000423
13
-0.083192
23
0.057896
33
1.000386
0
3DFACE
8
coconut_palm1_trunk
10
-0.038036
20
0.114941
30
0.500118
11
0.031194
21
0.096793
31
0.500159
12
0.038397
22
0.108643
32
1.000360
13
-0.029530
23
0.092653
33
1.000423
0
3DFACE
8
coconut_palm1_trunk
10
0.031194
20
0.096793
30
0.500159
11
0.091223
21
0.065955
31
0.500175
12
0.086359
22
0.057530
32
1.000074
13
0.038397
23
0.108643
33
1.000360
0
3DFACE
8
coconut_palm1_trunk
10
0.091223
20
0.065955
30
0.500175
11
0.101139
21
-0.000666
31
0.500095
12
0.108408
22
-0.003879
32
0.999795
13
0.086359
23
0.057530
33
1.000074
0
3DFACE
8
coconut_palm1_trunk
10
0.108408
20
-0.003879
30
0.999795
11
0.085982
21
-0.065016
31
0.999599
12
0.087293
22
-0.075359
32
1.499867
13
0.094385
23
-0.008603
33
1.500271
0
3DFACE
8
coconut_palm1_trunk
10
0.085982
20
-0.065016
30
0.999599
11
0.036485
21
-0.110525
31
0.999514
12
0.025496
22
-0.101193
32
1.499529
13
0.087293
23
-0.075359
33
1.499867
0
3DFACE
8
coconut_palm1_trunk
10
0.036485
20
-0.110525
30
0.999514
11
-0.033389
21
-0.112284
31
0.999635
12
-0.039410
22
-0.115769
32
1.499247
13
0.025496
23
-0.101193
33
1.499529
0
3DFACE
8
coconut_palm1_trunk
10
-0.033389
20
-0.112284
30
0.999635
11
-0.075075
21
-0.059757
31
0.999915
12
-0.093291
22
-0.073047
32
1.499327
13
-0.039410
23
-0.115769
33
1.499247
0
3DFACE
8
coconut_palm1_trunk
10
-0.075075
20
-0.059757
30
0.999915
11
-0.092705
21
-0.003879
31
1.000164
12
-0.117468
22
-0.008603
32
1.499623
13
-0.093291
23
-0.073047
33
1.499327
0
3DFACE
8
coconut_palm1_trunk
10
-0.092705
20
-0.003879
30
1.000164
11
-0.083192
21
0.057896
31
1.000386
12
-0.079209
22
0.045609
32
1.500051
13
-0.117468
23
-0.008603
33
1.499623
0
3DFACE
8
coconut_palm1_trunk
10
-0.083192
20
0.057896
30
1.000386
11
-0.029530
21
0.092653
31
1.000423
12
-0.039894
22
0.100041
32
1.500483
13
-0.079209
23
0.045609
33
1.500051
0
3DFACE
8
coconut_palm1_trunk
10
-0.029530
20
0.092653
30
1.000423
11
0.038397
21
0.108643
31
1.000360
12
0.030271
22
0.098695
32
1.500690
13
-0.039894
23
0.100041
33
1.500483
0
3DFACE
8
coconut_palm1_trunk
10
0.038397
20
0.108643
30
1.000360
11
0.086359
21
0.057530
31
1.000074
12
0.080568
22
0.053269
32
1.500584
13
0.030271
23
0.098695
33
1.500690
0
3DFACE
8
coconut_palm1_trunk
10
0.086359
20
0.057530
30
1.000074
11
0.108408
21
-0.003879
31
0.999795
12
0.094385
22
-0.008603
32
1.500271
13
0.080568
23
0.053269
33
1.500584
0
3DFACE
8
coconut_palm1_trunk
10
0.094385
20
-0.008603
30
1.500271
11
0.087293
21
-0.075359
31
1.499867
12
0.061640
22
-0.060778
32
2.000250
13
0.089427
23
-0.006614
33
2.000608
0
3DFACE
8
coconut_palm1_trunk
10
0.087293
20
-0.075359
30
1.499867
11
0.025496
21
-0.101193
31
1.499529
12
0.015757
22
-0.094839
32
1.999841
13
0.061640
23
-0.060778
33
2.000250
0
3DFACE
8
coconut_palm1_trunk
10
0.025496
20
-0.101193
30
1.499529
11
-0.039410
21
-0.115769
31
1.499247
12
-0.042653
22
-0.098156
32
1.999453
13
0.015757
23
-0.094839
33
1.999841
0
3DFACE
8
coconut_palm1_trunk
10
-0.039410
20
-0.115769
30
1.499247
11
-0.093291
21
-0.073047
31
1.499327
12
-0.087953
22
-0.061136
32
1.999283
13
-0.042653
23
-0.098156
33
1.999453
0
3DFACE
8
coconut_palm1_trunk
10
-0.093291
20
-0.073047
30
1.499327
11
-0.117468
21
-0.008603
31
1.499623
12
-0.121776
22
-0.006614
32
1.999245
13
-0.087953
23
-0.061136
33
1.999283
0
3DFACE
8
coconut_palm1_trunk
10
-0.117468
20
-0.008603
30
1.499623
11
-0.079209
21
0.045609
31
1.500051
12
-0.081902
22
0.043511
32
1.999668
13
-0.121776
23
-0.006614
33
1.999245
0
3DFACE
8
coconut_palm1_trunk
10
-0.079209
20
0.045609
30
1.500051
11
-0.039894
21
0.100041
31
1.500483
12
-0.042111
22
0.083252
32
2.000056
13
-0.081902
23
0.043511
33
1.999668
0
3DFACE
8
coconut_palm1_trunk
10
-0.039894
20
0.100041
30
1.500483
11
0.030271
21
0.098695
31
1.500690
12
0.019698
22
0.093755
32
2.000490
13
-0.042111
23
0.083252
33
2.000056
0
3DFACE
8
coconut_palm1_trunk
10
0.030271
20
0.098695
30
1.500690
11
0.080568
21
0.053269
31
1.500584
12
0.074424
22
0.056841
32
2.000721
13
0.019698
23
0.093755
33
2.000490
0
3DFACE
8
coconut_palm1_trunk
10
0.080568
20
0.053269
30
1.500584
11
0.094385
21
-0.008603
31
1.500271
12
0.089427
22
-0.006614
32
2.000608
13
0.074424
23
0.056841
33
2.000721
0
3DFACE
8
coconut_palm1_trunk
10
0.089427
20
-0.006614
30
2.000608
11
0.061640
21
-0.060778
31
2.000250
12
0.042391
22
-0.045491
32
2.500559
13
0.062559
23
0.002480
33
2.500702
0
3DFACE
8
coconut_palm1_trunk
10
0.061640
20
-0.060778
30
2.000250
11
0.015757
21
-0.094839
31
1.999841
12
0.004740
22
-0.084848
32
2.500242
13
0.042391
23
-0.045491
33
2.500559
0
3DFACE
8
coconut_palm1_trunk
10
0.015757
20
-0.094839
30
1.999841
11
-0.042653
21
-0.098156
31
1.999453
12
-0.050901
22
-0.081445
32
2.499712
13
0.004740
23
-0.084848
33
2.500242
0
3DFACE
8
coconut_palm1_trunk
10
-0.042653
20
-0.098156
30
1.999453
11
-0.087953
21
-0.061136
31
1.999283
12
-0.100508
22
-0.053375
32
2.499216
13
-0.050901
23
-0.081445
33
2.499712
0
3DFACE
8
coconut_palm1_trunk
10
-0.087953
20
-0.061136
30
1.999283
11
-0.121776
21
-0.006614
31
1.999245
12
-0.121541
22
0.002480
32
2.498961
13
-0.100508
23
-0.053375
33
2.499216
0
3DFACE
8
coconut_palm1_trunk
10
-0.121776
20
-0.006614
30
1.999245
11
-0.081902
21
0.043511
31
1.999668
12
-0.100483
22
0.058318
32
2.499105
13
-0.121541
23
0.002480
33
2.498961
0
3DFACE
8
coconut_palm1_trunk
10
-0.081902
20
0.043511
30
1.999668
11
-0.042111
21
0.083252
31
2.000056
12
-0.053005
22
0.092886
32
2.499520
13
-0.100483
23
0.058318
33
2.499105
0
3DFACE
8
coconut_palm1_trunk
10
-0.042111
20
0.083252
30
2.000056
11
0.019698
21
0.093755
31
2.000490
12
0.002737
22
0.083640
32
2.500056
13
-0.053005
23
0.092886
33
2.499520
0
3DFACE
8
coconut_palm1_trunk
10
0.019698
20
0.093755
30
2.000490
11
0.074424
21
0.056841
31
2.000721
12
0.047236
22
0.053971
32
2.500506
13
0.002737
23
0.083640
33
2.500056
0
3DFACE
8
coconut_palm1_trunk
10
0.074424
20
0.056841
30
2.000721
11
0.089427
21
-0.006614
31
2.000608
12
0.062559
22
0.002480
32
2.500702
13
0.047236
23
0.053971
33
2.500506
0
3DFACE
8
coconut_palm1_trunk
10
0.062559
20
0.002480
30
2.500702
11
0.042391
21
-0.045491
31
2.500559
12
0.059894
22
-0.064419
32
2.999723
13
0.092849
23
-0.018607
33
3.000042
0
3DFACE
8
coconut_palm1_trunk
10
0.042391
20
-0.045491
30
2.500559
11
0.004740
21
-0.084848
31
2.500242
12
0.025165
22
-0.105784
32
2.999430
13
0.059894
23
-0.064419
33
2.999723
0
3DFACE
8
coconut_palm1_trunk
10
0.004740
20
-0.084848
30
2.500242
11
-0.050901
21
-0.081445
31
2.499712
12
-0.032298
22
-0.108278
32
2.999354
13
0.025165
23
-0.105784
33
2.999430
0
3DFACE
8
coconut_palm1_trunk
10
-0.050901
20
-0.081445
30
2.499712
11
-0.100508
21
-0.053375
31
2.499216
12
-0.073313
22
-0.069574
32
2.999551
13
-0.032298
23
-0.108278
33
2.999354
0
3DFACE
8
coconut_palm1_trunk
10
-0.100508
20
-0.053375
30
2.499216
11
-0.121541
21
0.002480
31
2.498961
12
-0.086239
22
-0.018607
32
2.999853
13
-0.073313
23
-0.069574
33
2.999551
0
3DFACE
8
coconut_palm1_trunk
10
-0.121541
20
0.002480
30
2.498961
11
-0.100483
21
0.058318
31
2.499105
12
-0.076963
22
0.035011
32
3.000196
13
-0.086239
23
-0.018607
33
2.999853
0
3DFACE
8
coconut_palm1_trunk
10
-0.100483
20
0.058318
30
2.499105
11
-0.053005
21
0.092886
31
2.499520
12
-0.033372
22
0.074367
32
3.000485
13
-0.076963
23
0.035011
33
3.000196
0
3DFACE
8
coconut_palm1_trunk
10
-0.053005
20
0.092886
30
2.499520
11
0.002737
21
0.083640
31
2.500056
12
0.022225
22
0.059525
32
3.000452
13
-0.033372
23
0.074367
33
3.000485
0
3DFACE
8
coconut_palm1_trunk
10
0.002737
20
0.083640
30
2.500056
11
0.047236
21
0.053971
31
2.500506
12
0.072072
22
0.036052
32
3.000359
13
0.022225
23
0.059525
33
3.000452
0
3DFACE
8
coconut_palm1_trunk
10
0.047236
20
0.053971
30
2.500506
11
0.062559
21
0.002480
31
2.500702
12
0.092849
22
-0.018607
32
3.000042
13
0.072072
23
0.036052
33
3.000359
0
3DFACE
8
coconut_palm1_trunk
10
0.092849
20
-0.018607
30
3.000042
11
0.059894
21
-0.064419
31
2.999723
12
0.031671
22
-0.068642
32
3.500370
13
0.039102
23
-0.015069
33
3.500690
0
3DFACE
8
coconut_palm1_trunk
10
0.059894
20
-0.064419
30
2.999723
11
0.025165
21
-0.105784
31
2.999430
12
-0.018777
22
-0.086734
32
3.499686
13
0.031671
23
-0.068642
33
3.500370
0
3DFACE
8
coconut_palm1_trunk
10
0.025165
20
-0.105784
30
2.999430
11
-0.032298
21
-0.108278
31
2.999354
12
-0.070297
22
-0.101981
32
3.499001
13
-0.018777
23
-0.086734
33
3.499686
0
3DFACE
8
coconut_palm1_trunk
10
-0.032298
20
-0.108278
30
2.999354
11
-0.073313
21
-0.069574
31
2.999551
12
-0.115093
22
-0.068133
32
3.498609
13
-0.070297
23
-0.101981
33
3.499001
0
3DFACE
8
coconut_palm1_trunk
10
-0.073313
20
-0.069574
30
2.999551
11
-0.086239
21
-0.018607
31
2.999853
12
-0.130659
22
-0.015069
32
3.498650
13
-0.115093
23
-0.068133
33
3.498609
0
3DFACE
8
coconut_palm1_trunk
10
-0.086239
20
-0.018607
30
2.999853
11
-0.076963
21
0.035011
31
3.000196
12
-0.106645
22
0.031853
32
3.499141
13
-0.130659
23
-0.015069
33
3.498650
0
3DFACE
8
coconut_palm1_trunk
10
-0.076963
20
0.035011
30
3.000196
11
-0.033372
21
0.074367
31
3.000485
12
-0.066983
22
0.061617
32
3.499746
13
-0.106645
23
0.031853
33
3.499141
0
3DFACE
8
coconut_palm1_trunk
10
-0.033372
20
0.074367
30
3.000485
11
0.022225
21
0.059525
31
3.000452
12
-0.018983
22
0.055985
32
3.500298
13
-0.066983
23
0.061617
33
3.499746
0
3DFACE
8
coconut_palm1_trunk
10
0.022225
20
0.059525
30
3.000452
11
0.072072
21
0.036052
31
3.000359
12
0.027611
22
0.035558
32
3.500770
13
-0.018983
23
0.055985
33
3.500298
0
3DFACE
8
coconut_palm1_trunk
10
0.072072
20
0.036052
30
3.000359
11
0.092849
21
-0.018607
31
3.000042
12
0.039102
22
-0.015069
32
3.500690
13
0.027611
23
0.035558
33
3.500770
0
3DFACE
8
coconut_palm1_trunk
10
0.039102
20
-0.015069
30
3.500690
11
0.031671
21
-0.068642
31
3.500370
12
-0.006803
22
-0.111150
32
3.999205
13
-0.000952
23
-0.065465
33
4.000055
0
3DFACE
8
coconut_palm1_trunk
10
0.031671
20
-0.068642
30
3.500370
11
-0.018777
21
-0.086734
31
3.499686
12
-0.043216
22
-0.146886
32
3.997986
13
-0.006803
23
-0.111150
33
3.999205
0
3DFACE
8
coconut_palm1_trunk
10
-0.018777
20
-0.086734
30
3.499686
11
-0.070297
21
-0.101981
31
3.499001
12
-0.093125
22
-0.137642
32
3.997267
13
-0.043216
23
-0.146886
33
3.997986
0
3DFACE
8
coconut_palm1_trunk
10
-0.070297
20
-0.101981
30
3.499001
11
-0.115093
21
-0.068133
31
3.498609
12
-0.129763
22
-0.109118
32
3.997095
13
-0.093125
23
-0.137642
33
3.997267
0
3DFACE
8
coconut_palm1_trunk
10
-0.115093
20
-0.068133
30
3.498609
11
-0.130659
21
-0.015069
31
3.498650
12
-0.151604
22
-0.065465
32
3.997429
13
-0.129763
23
-0.109118
33
3.997095
0
3DFACE
8
coconut_palm1_trunk
10
-0.130659
20
-0.015069
30
3.498650
11
-0.106645
21
0.031853
31
3.499141
12
-0.140259
22
-0.014206
32
3.998466
13
-0.151604
23
-0.065465
33
3.997429
0
3DFACE
8
coconut_palm1_trunk
10
-0.106645
20
0.031853
30
3.499141
11
-0.066983
21
0.061617
31
3.499746
12
-0.090755
22
-0.000702
32
3.999550
13
-0.140259
23
-0.014206
33
3.998466
0
3DFACE
8
coconut_palm1_trunk
10
-0.066983
20
0.061617
30
3.499746
11
-0.018983
21
0.055985
31
3.500298
12
-0.044496
22
0.012155
32
4.000567
13
-0.090755
23
-0.000702
33
3.999550
0
3DFACE
8
coconut_palm1_trunk
10
-0.018983
20
0.055985
30
3.500298
11
0.027611
21
0.035558
31
3.500770
12
-0.013536
22
-0.024655
32
4.000504
13
-0.044496
23
0.012155
33
4.000567
0
3DFACE
8
coconut_palm1_trunk
10
0.027611
20
0.035558
30
3.500770
11
0.039102
21
-0.015069
31
3.500690
12
-0.000952
22
-0.065465
32
4.000055
13
-0.013536
23
-0.024655
33
4.000504
0
3DFACE
8
coconut_palm1_trunk
10
-0.000952
20
-0.065465
30
4.000055
11
-0.006803
21
-0.111150
31
3.999205
12
0.038252
22
-0.092285
32
4.500452
13
0.060043
23
-0.022622
33
4.501081
0
3DFACE
8
coconut_palm1_trunk
10
-0.006803
20
-0.111150
30
3.999205
11
-0.043216
21
-0.146886
31
3.997986
12
-0.014766
22
-0.154522
32
4.499460
13
0.038252
23
-0.092285
33
4.500452
0
3DFACE
8
coconut_palm1_trunk
10
-0.043216
20
-0.146886
30
3.997986
11
-0.093125
21
-0.137642
31
3.997267
12
-0.095954
22
-0.140606
32
4.498490
13
-0.014766
23
-0.154522
33
4.499460
0
3DFACE
8
coconut_palm1_trunk
10
-0.093125
20
-0.137642
30
3.997267
11
-0.129763
21
-0.109118
31
3.997095
12
-0.175671
22
-0.108394
32
4.497631
13
-0.095954
23
-0.140606
33
4.498490
0
3DFACE
8
coconut_palm1_trunk
10
-0.129763
20
-0.109118
30
3.997095
11
-0.151604
21
-0.065465
31
3.997429
12
-0.187757
22
-0.022622
32
4.497908
13
-0.175671
23
-0.108394
33
4.497631
0
3DFACE
8
coconut_palm1_trunk
10
-0.151604
20
-0.065465
30
3.997429
11
-0.140259
21
-0.014206
31
3.998466
12
-0.160771
22
0.052317
32
4.498630
13
-0.187757
23
-0.022622
33
4.497908
0
3DFACE
8
coconut_palm1_trunk
10
-0.140259
20
-0.014206
30
3.998466
11
-0.090755
21
-0.000702
31
3.999550
12
-0.097379
22
0.099702
32
4.499680
13
-0.160771
23
0.052317
33
4.498630
0
3DFACE
8
coconut_palm1_trunk
10
-0.090755
20
-0.000702
30
3.999550
11
-0.044496
21
0.012155
31
4.000567
12
-0.021992
22
0.087087
32
4.500582
13
-0.097379
23
0.099702
33
4.499680
0
3DFACE
8
coconut_palm1_trunk
10
-0.044496
20
0.012155
30
4.000567
11
-0.013536
21
-0.024655
31
4.000504
12
0.048766
22
0.054688
32
4.501326
13
-0.021992
23
0.087087
33
4.500582
0
3DFACE
8
coconut_palm1_trunk
10
-0.013536
20
-0.024655
30
4.000504
11
-0.000952
21
-0.065465
31
4.000055
12
0.060043
22
-0.022622
32
4.501081
13
0.048766
23
0.054688
33
4.501326
0
3DFACE
8
coconut_palm1_trunk
10
0.060043
20
-0.022622
30
4.501081
11
0.038252
21
-0.092285
31
4.500452
12
-0.128704
22
-0.033806
32
4.998240
13
-0.124800
23
-0.027490
33
4.998383
0
3DFACE
8
coconut_palm1_trunk
10
0.038252
20
-0.092285
30
4.500452
11
-0.014766
21
-0.154522
31
4.499460
12
-0.134279
22
-0.037077
32
4.998069
13
-0.128704
23
-0.033806
33
4.998240
0
3DFACE
8
coconut_palm1_trunk
10
-0.014766
20
-0.154522
30
4.499460
11
-0.095954
21
-0.140606
31
4.498490
12
-0.141261
22
-0.039399
32
4.997864
13
-0.134279
23
-0.037077
33
4.998069
0
3DFACE
8
coconut_palm1_trunk
10
-0.095954
20
-0.140606
30
4.498490
11
-0.175671
21
-0.108394
31
4.497631
12
-0.145674
22
-0.033508
32
4.997776
13
-0.141261
23
-0.039399
33
4.997864
0
3DFACE
8
coconut_palm1_trunk
10
-0.175671
20
-0.108394
30
4.497631
11
-0.187757
21
-0.022622
31
4.497908
12
-0.149099
22
-0.027490
32
4.997715
13
-0.145674
23
-0.033508
33
4.997776
0
3DFACE
8
coconut_palm1_trunk
10
-0.187757
20
-0.022622
30
4.497908
11
-0.160771
21
0.052317
31
4.498630
12
-0.147249
22
-0.020329
32
4.997805
13
-0.149099
23
-0.027490
33
4.997715
0
3DFACE
8
coconut_palm1_trunk
10
-0.160771
20
0.052317
30
4.498630
11
-0.097379
21
0.099702
31
4.499680
12
-0.141387
22
-0.015204
32
4.997994
13
-0.147249
23
-0.020329
33
4.997805
0
3DFACE
8
coconut_palm1_trunk
10
-0.097379
20
0.099702
30
4.499680
11
-0.021992
21
0.087087
31
4.500582
12
-0.133462
22
-0.015376
32
4.998211
13
-0.141387
23
-0.015204
33
4.997994
0
3DFACE
8
coconut_palm1_trunk
10
-0.021992
20
0.087087
30
4.500582
11
0.048766
21
0.054688
31
4.501326
12
-0.127877
22
-0.020571
32
4.998336
13
-0.133462
23
-0.015376
33
4.998211
0
3DFACE
8
coconut_palm1_trunk
10
0.048766
20
0.054688
30
4.501326
11
0.060043
21
-0.022622
31
4.501081
12
-0.124800
22
-0.027490
32
4.998383
13
-0.127877
23
-0.020571
33
4.998336
0
3DFACE
8
coconut_palm1_trunk
10
-0.124800
20
-0.027490
30
4.998383
11
-0.128704
21
-0.033806
31
4.998240
12
-0.137379
22
-0.027025
32
4.998039
13
-0.137379
23
-0.027025
33
4.998039
0
3DFACE
8
coconut_palm1_trunk
10
-0.128704
20
-0.033806
30
4.998240
11
-0.134279
21
-0.037077
31
4.998069
12
-0.137379
22
-0.027025
32
4.998039
13
-0.137379
23
-0.027025
33
4.998039
0
3DFACE
8
coconut_palm1_trunk
10
-0.134279
20
-0.037077
30
4.998069
11
-0.141261
21
-0.039399
31
4.997864
12
-0.137379
22
-0.027025
32
4.998039
13
-0.137379
23
-0.027025
33
4.998039
0
3DFACE
8
coconut_palm1_trunk
10
-0.141261
20
-0.039399
30
4.997864
11
-0.145674
21
-0.033508
31
4.997776
12
-0.137379
22
-0.027025
32
4.998039
13
-0.137379
23
-0.027025
33
4.998039
0
3DFACE
8
coconut_palm1_trunk
10
-0.145674
20
-0.033508
30
4.997776
11
-0.149099
21
-0.027490
31
4.997715
12
-0.137379
22
-0.027025
32
4.998039
13
-0.137379
23
-0.027025
33
4.998039
0
3DFACE
8
coconut_palm1_trunk
10
-0.149099
20
-0.027490
30
4.997715
11
-0.147249
21
-0.020329
31
4.997805
12
-0.137379
22
-0.027025
32
4.998039
13
-0.137379
23
-0.027025
33
4.998039
0
3DFACE
8
coconut_palm1_trunk
10
-0.147249
20
-0.020329
30
4.997805
11
-0.141387
21
-0.015204
31
4.997994
12
-0.137379
22
-0.027025
32
4.998039
13
-0.137379
23
-0.027025
33
4.998039
0
3DFACE
8
coconut_palm1_trunk
10
-0.141387
20
-0.015204
30
4.997994
11
-0.133462
21
-0.015376
31
4.998211
12
-0.137379
22
-0.027025
32
4.998039
13
-0.137379
23
-0.027025
33
4.998039
0
3DFACE
8
coconut_palm1_trunk
10
-0.133462
20
-0.015376
30
4.998211
11
-0.127877
21
-0.020571
31
4.998336
12
-0.137379
22
-0.027025
32
4.998039
13
-0.137379
23
-0.027025
33
4.998039
0
3DFACE
8
coconut_palm1_trunk
10
-0.127877
20
-0.020571
30
4.998336
11
-0.124800
21
-0.027490
31
4.998383
12
-0.137379
22
-0.027025
32
4.998039
13
-0.137379
23
-0.027025
33
4.998039
0
3DFACE
8
coconut_palm1_leaves
10
0.837257
20
-0.499347
30
5.199096
11
0.836577
21
-0.685118
31
4.663791
12
1.302854
22
-0.967279
32
4.766793
13
1.303534
23
-0.781508
33
5.302098
0
3DFACE
8
coconut_palm1_leaves
10
0.369659
20
-0.216386
30
5.105042
11
0.368979
21
-0.402157
31
4.569737
12
0.836577
22
-0.685118
32
4.663791
13
0.837257
23
-0.499347
33
5.199096
0
3DFACE
8
coconut_palm1_leaves
10
-0.098661
20
0.067012
30
5.016108
11
-0.099341
21
-0.118760
31
4.480803
12
0.368979
22
-0.402157
32
4.569737
13
0.369659
23
-0.216386
33
5.105042
0
3DFACE
8
coconut_palm1_leaves
10
0.836917
20
-0.592233
30
4.931443
11
0.988417
21
-0.366797
31
4.855255
12
1.454626
22
-0.648917
32
4.962720
13
1.303194
23
-0.874394
33
5.034445
0
3DFACE
8
coconut_palm1_leaves
10
0.684791
20
-0.817289
30
5.011981
11
0.836917
21
-0.592233
31
4.931443
12
1.303194
22
-0.874394
32
5.034445
13
1.149793
23
-1.098679
33
5.119201
0
3DFACE
8
coconut_palm1_leaves
10
0.369319
20
-0.309272
30
4.837389
11
0.520679
21
-0.083752
31
4.759311
12
0.988417
22
-0.366797
32
4.855255
13
0.836917
23
-0.592233
33
4.931443
0
3DFACE
8
coconut_palm1_leaves
10
0.217858
20
-0.534731
30
4.916193
11
0.369319
21
-0.309272
31
4.837389
12
0.836917
22
-0.592233
32
4.931443
13
0.684791
23
-0.817289
33
5.011981
0
3DFACE
8
coconut_palm1_leaves
10
-0.099001
20
-0.025874
30
4.748455
11
0.052208
21
0.199738
31
4.669976
12
0.520679
22
-0.083752
32
4.759311
13
0.369319
23
-0.309272
33
4.837389
0
3DFACE
8
coconut_palm1_leaves
10
-0.250210
20
-0.251485
30
4.826934
11
-0.099001
21
-0.025874
31
4.748455
12
0.369319
22
-0.309272
32
4.837389
13
0.217858
23
-0.534731
33
4.916193
0
3DFACE
8
coconut_palm1_leaves
10
0.252199
20
-0.148159
30
5.469715
11
0.401026
21
-0.315099
31
5.188370
12
0.728543
22
-0.471986
32
5.319788
13
0.579716
23
-0.305047
33
5.601132
0
3DFACE
8
coconut_palm1_leaves
10
0.001404
20
-0.028024
30
5.221601
11
0.150231
21
-0.194963
31
4.940257
12
0.401026
22
-0.315099
32
5.188370
13
0.252199
23
-0.148159
33
5.469715
0
3DFACE
8
coconut_palm1_leaves
10
-0.177104
20
0.057485
30
4.913122
11
-0.028277
21
-0.109454
31
4.631777
12
0.150231
22
-0.194963
32
4.940257
13
0.001404
23
-0.028024
33
5.221601
0
3DFACE
8
coconut_palm1_leaves
10
0.326612
20
-0.231629
30
5.329042
11
0.453235
21
-0.091034
31
5.279637
12
0.779247
22
-0.247200
32
5.370911
13
0.654130
23
-0.388516
33
5.460460
0
3DFACE
8
coconut_palm1_leaves
10
0.235156
20
-0.389069
30
5.342145
11
0.326612
21
-0.231629
31
5.329042
12
0.654130
22
-0.388516
32
5.460460
13
0.574278
23
-0.551516
33
5.443595
0
3DFACE
8
coconut_palm1_leaves
10
0.075818
20
-0.111493
30
5.080929
11
0.192687
21
0.033773
31
5.052797
12
0.453235
22
-0.091034
32
5.279637
13
0.326612
23
-0.231629
33
5.329042
0
3DFACE
8
coconut_palm1_leaves
10
-0.033722
20
-0.260272
30
5.103760
11
0.075818
21
-0.111493
31
5.080929
12
0.326612
22
-0.231629
32
5.329042
13
0.235156
23
-0.389069
33
5.342145
0
3DFACE
8
coconut_palm1_leaves
10
-0.102691
20
-0.025985
30
4.772449
11
0.012326
21
0.120170
31
4.750306
12
0.192687
22
0.033773
32
5.052797
13
0.075818
23
-0.111493
33
5.080929
0
3DFACE
8
coconut_palm1_leaves
10
-0.217707
20
-0.172139
30
4.794593
11
-0.102691
21
-0.025985
31
4.772449
12
0.075818
22
-0.111493
32
5.080929
13
-0.033722
23
-0.260272
33
5.103760
0
3DFACE
8
coconut_palm1_leaves
10
-0.753358
20
-0.735103
30
4.822634
11
-0.830916
21
-0.634815
31
4.351704
12
-1.190543
22
-0.977634
32
4.417188
13
-1.112985
23
-1.077922
33
4.888118
0
3DFACE
8
coconut_palm1_leaves
10
-0.402440
20
-0.400586
30
4.875792
11
-0.479998
21
-0.300298
31
4.404861
12
-0.830916
22
-0.634815
32
4.351704
13
-0.753358
23
-0.735103
33
4.822634
0
3DFACE
8
coconut_palm1_leaves
10
-0.062015
20
-0.076072
30
4.995582
11
-0.139573
21
0.024217
31
4.524652
12
-0.479998
22
-0.300298
32
4.404861
13
-0.402440
23
-0.400586
33
4.875792
0
3DFACE
8
coconut_palm1_leaves
10
-0.792137
20
-0.684959
30
4.587169
11
-0.623157
21
-0.854017
31
4.548289
12
-0.988440
22
-1.202228
32
4.663821
13
-1.151764
23
-1.027778
33
4.652653
0
3DFACE
8
coconut_palm1_leaves
10
-0.967184
20
-0.521684
30
4.676089
11
-0.792137
21
-0.684959
31
4.587169
12
-1.151764
22
-1.027778
32
4.652653
13
-1.320238
23
-0.858238
33
4.793091
0
3DFACE
8
coconut_palm1_leaves
10
-0.441219
20
-0.350442
30
4.640326
11
-0.265925
21
-0.513481
31
4.581640
12
-0.623157
22
-0.854017
32
4.548289
13
-0.792137
23
-0.684959
33
4.587169
0
3DFACE
8
coconut_palm1_leaves
10
-0.617998
20
-0.188819
30
4.707224
11
-0.441219
21
-0.350442
31
4.640326
12
-0.792137
22
-0.684959
32
4.587169
13
-0.967184
23
-0.521684
33
4.676089
0
3DFACE
8
coconut_palm1_leaves
10
-0.100794
20
-0.025928
30
4.760117
11
0.077225
21
-0.186369
31
4.698061
12
-0.265925
22
-0.513481
32
4.581640
13
-0.441219
23
-0.350442
33
4.640326
0
3DFACE
8
coconut_palm1_leaves
10
-0.278813
20
0.134514
30
4.822173
11
-0.100794
21
-0.025928
31
4.760117
12
-0.441219
22
-0.350442
32
4.640326
13
-0.617998
23
-0.188819
33
4.707224
0
3DFACE
8
coconut_palm1_leaves
10
0.132493
20
0.618314
30
5.004640
11
0.239115
21
0.495085
31
4.727263
12
0.383795
22
0.776317
32
4.556415
13
0.277173
23
0.899546
33
4.833792
0
3DFACE
8
coconut_palm1_leaves
10
-0.019143
20
0.323561
30
5.035256
11
0.087479
21
0.200332
31
4.757879
12
0.239115
22
0.495085
32
4.727263
13
0.132493
23
0.618314
33
5.004640
0
3DFACE
8
coconut_palm1_leaves
10
-0.167446
20
0.035287
30
4.985568
11
-0.060824
21
-0.087943
31
4.708190
12
0.087479
22
0.200332
32
4.757879
13
-0.019143
23
0.323561
33
5.035256
0
3DFACE
8
coconut_palm1_leaves
10
0.185804
20
0.556700
30
4.865952
11
0.055571
21
0.623837
31
4.765188
12
0.187108
22
0.879521
32
4.557137
13
0.330484
23
0.837931
33
4.695103
0
3DFACE
8
coconut_palm1_leaves
10
0.316282
20
0.490040
30
4.926208
11
0.185804
21
0.556700
31
4.865952
12
0.330484
22
0.837931
32
4.695103
13
0.463494
23
0.776192
33
4.714345
0
3DFACE
8
coconut_palm1_leaves
10
0.034168
20
0.261947
30
4.896568
11
-0.090690
21
0.339531
31
4.813518
12
0.055571
22
0.623837
32
4.765188
13
0.185804
23
0.556700
33
4.865952
0
3DFACE
8
coconut_palm1_leaves
10
0.159479
20
0.185243
30
4.972927
11
0.034168
21
0.261947
31
4.896568
12
0.185804
22
0.556700
32
4.865952
13
0.316282
23
0.490040
33
4.926208
0
3DFACE
8
coconut_palm1_leaves
10
-0.114135
20
-0.026328
30
4.846879
11
-0.236616
21
0.055879
31
4.768197
12
-0.090690
22
0.339531
32
4.813518
13
0.034168
23
0.261947
33
4.896568
0
3DFACE
8
coconut_palm1_leaves
10
0.008345
20
-0.108534
30
4.925561
11
-0.114135
21
-0.026328
31
4.846879
12
0.034168
22
0.261947
32
4.896568
13
0.159479
23
0.185243
33
4.972927
0
3DFACE
8
coconut_palm1_leaves
10
-0.779725
20
-0.945136
30
5.454906
11
-0.851382
21
-0.857614
31
4.918447
12
-1.258779
22
-1.360614
32
4.661816
13
-1.187121
23
-1.448136
33
5.198275
0
3DFACE
8
coconut_palm1_leaves
10
-0.398218
20
-0.474101
30
5.357139
11
-0.469876
21
-0.386579
31
4.820680
12
-0.851382
22
-0.857614
32
4.918447
13
-0.779725
23
-0.945136
33
5.454906
0
3DFACE
8
coconut_palm1_leaves
10
-0.070813
20
-0.069864
30
5.066379
11
-0.142471
21
0.017658
31
4.529920
12
-0.469876
22
-0.386579
32
4.820680
13
-0.398218
23
-0.474101
33
5.357139
0
3DFACE
8
coconut_palm1_leaves
10
-0.815554
20
-0.901375
30
5.186677
11
-0.612003
21
-1.121568
31
5.032060
12
-0.978815
22
-1.574460
32
4.599740
13
-1.222950
23
-1.404375
33
4.930046
0
3DFACE
8
coconut_palm1_leaves
10
-1.052675
20
-0.722631
30
5.158728
11
-0.815554
21
-0.901375
31
5.186677
12
-1.222950
22
-1.404375
32
4.930046
13
-1.446220
23
-1.208529
33
4.728425
0
3DFACE
8
coconut_palm1_leaves
10
-0.434047
20
-0.430340
30
5.088909
11
-0.227407
21
-0.646718
31
5.016654
12
-0.612003
22
-1.121568
32
5.032060
13
-0.815554
23
-0.901375
33
5.186677
0
3DFACE
8
coconut_palm1_leaves
10
-0.650395
20
-0.225948
30
5.132644
11
-0.434047
21
-0.430340
31
5.088909
12
-0.815554
22
-0.901375
32
5.186677
13
-1.052675
23
-0.722631
33
5.158728
0
3DFACE
8
coconut_palm1_leaves
10
-0.106642
20
-0.026103
30
4.798149
11
0.100731
21
-0.241576
31
4.744085
12
-0.227407
22
-0.646718
32
5.016654
13
-0.434047
23
-0.430340
33
5.088909
0
3DFACE
8
coconut_palm1_leaves
10
-0.314016
20
0.189370
30
4.852213
11
-0.106642
21
-0.026103
31
4.798149
12
-0.434047
22
-0.430340
32
5.088909
13
-0.650395
23
-0.225948
33
5.132644
0
3DFACE
8
coconut_palm1_leaves
10
0.287185
20
0.540107
30
4.927175
11
0.383350
21
0.406446
31
4.620442
12
0.611400
22
0.658218
32
4.593469
13
0.515236
23
0.791879
33
4.900201
0
3DFACE
8
coconut_palm1_leaves
10
0.060438
20
0.289776
30
4.969738
11
0.156602
21
0.156115
31
4.663005
12
0.383350
22
0.406446
32
4.620442
13
0.287185
23
0.540107
33
4.927175
0
3DFACE
8
coconut_palm1_leaves
10
-0.165437
20
0.040406
30
5.021184
11
-0.069273
21
-0.093255
31
4.714452
12
0.156602
22
0.156115
32
4.663005
13
0.060438
23
0.289776
33
4.969738
0
3DFACE
8
coconut_palm1_leaves
10
0.335267
20
0.473277
30
4.773808
11
0.214058
21
0.568893
31
4.696494
12
0.443681
22
0.822400
32
4.673956
13
0.563318
23
0.725048
33
4.746835
0
3DFACE
8
coconut_palm1_leaves
10
0.456906
20
0.378135
30
4.855769
11
0.335267
21
0.473277
31
4.773808
12
0.563318
22
0.725048
32
4.746835
13
0.684042
23
0.628896
33
4.833690
0
3DFACE
8
coconut_palm1_leaves
10
0.108520
20
0.222945
30
4.816371
11
-0.013691
21
0.317455
31
4.737298
12
0.214058
22
0.568893
32
4.696494
13
0.335267
23
0.473277
33
4.773808
0
3DFACE
8
coconut_palm1_leaves
10
0.230811
20
0.128523
30
4.896218
11
0.108520
21
0.222945
31
4.816371
12
0.335267
22
0.473277
32
4.773808
13
0.456906
23
0.378135
33
4.855769
0
3DFACE
8
coconut_palm1_leaves
10
-0.117355
20
-0.026424
30
4.867818
11
-0.240019
21
0.067586
31
4.788454
12
-0.013691
22
0.317455
32
4.737298
13
0.108520
23
0.222945
33
4.816371
0
3DFACE
8
coconut_palm1_leaves
10
0.005308
20
-0.120435
30
4.947182
11
-0.117355
21
-0.026424
31
4.867818
12
0.108520
22
0.222945
32
4.816371
13
0.230811
23
0.128523
33
4.896218
0
3DFACE
8
coconut_palm1_leaves
10
0.804477
20
-0.085913
30
5.207319
11
0.792265
21
-0.240011
31
4.765961
12
1.266754
22
-0.311617
32
4.696925
13
1.278966
23
-0.157519
33
5.138284
0
3DFACE
8
coconut_palm1_leaves
10
0.343170
20
-0.016296
30
5.152752
11
0.330958
21
-0.170394
31
4.711393
12
0.792265
22
-0.240011
32
4.765961
13
0.804477
23
-0.085913
33
5.207319
0
3DFACE
8
coconut_palm1_leaves
10
-0.102092
20
0.050899
30
5.028948
11
-0.114304
21
-0.103199
31
4.587588
12
0.330958
22
-0.170394
32
4.711393
13
0.343170
23
-0.016296
33
5.152752
0
3DFACE
8
coconut_palm1_leaves
10
0.798371
20
-0.162962
30
4.986640
11
0.849216
21
0.056323
31
4.883254
12
1.311958
22
-0.013511
32
4.762273
13
1.272860
23
-0.234568
33
4.917604
0
3DFACE
8
coconut_palm1_leaves
10
0.756451
20
-0.383593
30
5.039961
11
0.798371
21
-0.162962
31
4.986640
12
1.272860
22
-0.234568
32
4.917604
13
1.241236
23
-0.456753
33
4.921073
0
3DFACE
8
coconut_palm1_leaves
10
0.337064
20
-0.093345
30
4.932073
11
0.391779
21
0.125355
31
4.851197
12
0.849216
22
0.056323
32
4.883254
13
0.798371
23
-0.162962
33
4.986640
0
3DFACE
8
coconut_palm1_leaves
10
0.284538
20
-0.312376
30
5.004754
11
0.337064
21
-0.093345
31
4.932073
12
0.798371
22
-0.162962
32
4.986640
13
0.756451
23
-0.383593
33
5.039961
0
3DFACE
8
coconut_palm1_leaves
10
-0.108198
20
-0.026150
30
4.808268
11
-0.051020
21
0.192179
31
4.732535
12
0.391779
22
0.125355
32
4.851197
13
0.337064
23
-0.093345
33
4.932073
0
3DFACE
8
coconut_palm1_leaves
10
-0.165377
20
-0.244478
30
4.884001
11
-0.108198
21
-0.026150
31
4.808268
12
0.337064
22
-0.093345
32
4.932073
13
0.284538
23
-0.312376
33
5.004754
0
3DFACE
8
coconut_palm1_leaves
10
-0.144662
20
0.674843
30
4.517949
11
-0.014760
21
0.464668
31
4.353570
12
-0.012253
22
0.554736
32
3.926852
13
-0.142155
23
0.764911
33
4.091229
0
3DFACE
8
coconut_palm1_leaves
10
-0.152220
20
0.403279
30
4.738976
11
-0.022318
21
0.193104
31
4.574598
12
-0.014760
22
0.464668
32
4.353570
13
-0.144662
23
0.674843
33
4.517949
0
3DFACE
8
coconut_palm1_leaves
10
-0.161238
20
0.079295
30
4.812994
11
-0.031336
21
-0.130880
31
4.648616
12
-0.022318
22
0.193104
32
4.574598
13
-0.152220
23
0.403279
33
4.738976
0
3DFACE
8
coconut_palm1_leaves
10
-0.079711
20
0.569755
30
4.435760
11
-0.228384
21
0.513213
31
4.327468
12
-0.228600
22
0.505432
32
3.883668
13
-0.077204
23
0.659823
33
4.009040
0
3DFACE
8
coconut_palm1_leaves
10
0.067918
20
0.588782
30
4.473917
11
-0.079711
21
0.569755
31
4.435760
12
-0.077204
22
0.659823
32
4.009040
13
0.069121
23
0.632022
33
3.984302
0
3DFACE
8
coconut_palm1_leaves
10
-0.087269
20
0.298191
30
4.656787
11
-0.234866
21
0.280316
31
4.568447
12
-0.228384
22
0.513213
32
4.327468
13
-0.079711
23
0.569755
33
4.435760
0
3DFACE
8
coconut_palm1_leaves
10
0.060241
20
0.312975
30
4.732183
11
-0.087269
21
0.298191
31
4.656787
12
-0.079711
22
0.569755
32
4.435760
13
0.067918
23
0.588782
33
4.473917
0
3DFACE
8
coconut_palm1_leaves
10
-0.096287
20
-0.025792
30
4.730805
11
-0.243522
21
-0.030683
31
4.646906
12
-0.234866
22
0.280316
32
4.568447
13
-0.087269
23
0.298191
33
4.656787
0
3DFACE
8
coconut_palm1_leaves
10
0.050948
20
-0.020902
30
4.814703
11
-0.096287
21
-0.025792
31
4.730805
12
-0.087269
22
0.298191
32
4.656787
13
0.060241
23
0.312975
33
4.732183
0
3DFACE
8
coconut_palm1_leaves
10
0.777686
20
0.809132
30
4.235477
11
0.569938
21
0.362466
31
4.002377
12
0.649054
22
0.424208
32
3.248831
13
0.856801
23
0.870873
33
3.481932
0
3DFACE
8
coconut_palm1_leaves
10
0.434787
20
0.541536
30
4.698528
11
0.227040
21
0.094870
31
4.465427
12
0.569938
22
0.362466
32
4.002377
13
0.777686
23
0.809132
33
4.235477
0
3DFACE
8
coconut_palm1_leaves
10
-0.006554
20
0.197116
30
4.939314
11
-0.214301
21
-0.249549
31
4.706213
12
0.227040
22
0.094870
32
4.465427
13
0.434787
23
0.541536
33
4.698528
0
3DFACE
8
coconut_palm1_leaves
10
0.673812
20
0.585799
30
4.118927
11
0.372160
21
0.703855
31
3.919894
12
0.245567
22
0.605062
32
3.131531
13
0.752928
23
0.647541
33
3.365382
0
3DFACE
8
coconut_palm1_leaves
10
0.859227
20
0.377033
30
4.131223
11
0.673812
21
0.585799
31
4.118927
12
0.752928
22
0.647541
32
3.365382
13
0.785056
23
0.319150
33
3.252940
0
3DFACE
8
coconut_palm1_leaves
10
0.330913
20
0.318203
30
4.581978
11
0.106152
21
0.496264
31
4.437164
12
0.372160
22
0.703855
32
3.919894
13
0.673812
23
0.585799
33
4.118927
0
3DFACE
8
coconut_palm1_leaves
10
0.542730
20
0.130040
30
4.690291
11
0.330913
21
0.318203
31
4.581978
12
0.673812
22
0.585799
32
4.118927
13
0.859227
23
0.377033
33
4.131223
0
3DFACE
8
coconut_palm1_leaves
10
-0.110427
20
-0.026217
30
4.822764
11
-0.314548
21
0.167952
31
4.689228
12
0.106152
22
0.496264
32
4.437164
13
0.330913
23
0.318203
33
4.581978
0
3DFACE
8
coconut_palm1_leaves
10
0.093693
20
-0.220385
30
4.956300
11
-0.110427
21
-0.026217
31
4.822764
12
0.330913
22
0.318203
32
4.581978
13
0.542730
23
0.130040
33
4.690291
0
3DFACE
8
coconut_palm1_leaves
10
-0.126919
20
-0.662480
30
5.123316
11
-0.196675
21
-0.719052
31
4.777174
12
-0.243161
22
-1.115321
32
4.737167
13
-0.173405
23
-1.058749
33
5.083309
0
3DFACE
8
coconut_palm1_leaves
10
-0.085428
20
-0.308799
30
5.013086
11
-0.155185
21
-0.365371
31
4.666944
12
-0.196675
22
-0.719052
32
4.777174
13
-0.126919
23
-0.662480
33
5.123316
0
3DFACE
8
coconut_palm1_leaves
10
-0.048867
20
0.002870
30
4.822311
11
-0.118623
21
-0.053702
31
4.476170
12
-0.155185
22
-0.365371
32
4.666944
13
-0.085428
23
-0.308799
33
5.013086
0
3DFACE
8
coconut_palm1_leaves
10
-0.161797
20
-0.690766
30
4.950245
11
0.018464
21
-0.734806
31
4.895563
12
-0.027648
22
-1.127885
32
4.804474
13
-0.208283
23
-1.087035
33
4.910238
0
3DFACE
8
coconut_palm1_leaves
10
-0.344381
20
-0.666533
30
4.958099
11
-0.161797
21
-0.690766
31
4.950245
12
-0.208283
22
-1.087035
32
4.910238
13
-0.392122
23
-1.073495
33
4.870862
0
3DFACE
8
coconut_palm1_leaves
10
-0.120307
20
-0.337085
30
4.840015
11
0.060342
21
-0.377824
31
4.807273
12
0.018464
22
-0.734806
32
4.895563
13
-0.161797
23
-0.690766
33
4.950245
0
3DFACE
8
coconut_palm1_leaves
10
-0.301469
20
-0.300725
30
4.865407
11
-0.120307
21
-0.337085
31
4.840015
12
-0.161797
22
-0.690766
32
4.950245
13
-0.344381
23
-0.666533
33
4.958099
0
3DFACE
8
coconut_palm1_leaves
10
-0.083745
20
-0.025416
30
4.649240
11
0.096916
21
-0.066051
31
4.621524
12
0.060342
22
-0.377824
32
4.807273
13
-0.120307
23
-0.337085
33
4.840015
0
3DFACE
8
coconut_palm1_leaves
10
-0.264405
20
0.015218
30
4.676957
11
-0.083745
21
-0.025416
31
4.649240
12
-0.120307
22
-0.337085
32
4.840015
13
-0.301469
23
-0.300725
33
4.865407
0
3DFACE
8
coconut_palm1_leaves
10
0.872185
20
-0.273938
30
4.336570
11
0.532307
21
-0.280250
31
4.130326
12
0.576406
22
-0.294249
32
3.472024
13
0.916284
23
-0.287938
33
3.678267
0
3DFACE
8
coconut_palm1_leaves
10
0.519771
20
-0.162063
30
4.683632
11
0.179892
21
-0.168375
31
4.477388
12
0.532307
22
-0.280250
32
4.130326
13
0.872185
23
-0.273938
33
4.336570
0
3DFACE
8
coconut_palm1_leaves
10
0.079969
20
-0.022447
30
4.792846
11
-0.259909
21
-0.028759
31
4.586603
12
0.179892
22
-0.168375
32
4.477388
13
0.519771
23
-0.162063
33
4.683632
0
3DFACE
8
coconut_palm1_leaves
10
0.702246
20
-0.277094
30
4.233448
11
0.685041
21
-0.030272
31
4.092679
12
0.530126
22
0.018906
32
3.397418
13
0.746345
23
-0.291093
33
3.575145
0
3DFACE
8
coconut_palm1_leaves
10
0.626573
20
-0.494432
30
4.216552
11
0.702246
21
-0.277094
31
4.233448
12
0.746345
22
-0.291093
32
3.575145
13
0.517496
23
-0.459805
33
3.465384
0
3DFACE
8
coconut_palm1_leaves
10
0.349832
20
-0.165219
30
4.580510
11
0.397041
21
0.061154
31
4.493015
12
0.685041
22
-0.030272
32
4.092679
13
0.702246
23
-0.277094
33
4.233448
0
3DFACE
8
coconut_palm1_leaves
10
0.295331
20
-0.389278
30
4.637905
11
0.349832
21
-0.165219
31
4.580510
12
0.702246
22
-0.277094
32
4.233448
13
0.626573
23
-0.494432
33
4.216552
0
3DFACE
8
coconut_palm1_leaves
10
-0.089970
20
-0.025603
30
4.689724
11
-0.027317
21
0.195868
31
4.615011
12
0.397041
22
0.061154
32
4.493015
13
0.349832
23
-0.165219
33
4.580510
0
3DFACE
8
coconut_palm1_leaves
10
-0.152623
20
-0.247074
30
4.764438
11
-0.089970
21
-0.025603
31
4.689724
12
0.349832
22
-0.165219
32
4.580510
13
0.295331
23
-0.389278
33
4.637905
0
3DFACE
8
coconut_palm1_leaves
10
0.343063
20
-0.745970
30
5.131499
11
0.246629
21
-0.770780
31
4.720145
12
0.453832
22
-1.140247
32
4.626312
13
0.550267
23
-1.115438
33
5.037666
0
3DFACE
8
coconut_palm1_leaves
10
0.136189
20
-0.377090
30
5.125390
11
0.039754
21
-0.401900
31
4.714036
12
0.246629
22
-0.770780
32
4.720145
13
0.343063
23
-0.745970
33
5.131499
0
3DFACE
8
coconut_palm1_leaves
10
-0.067455
20
-0.013969
30
5.062551
11
-0.163890
21
-0.038779
31
4.651197
12
0.039754
22
-0.401900
32
4.714036
13
0.136189
23
-0.377090
33
5.125390
0
3DFACE
8
coconut_palm1_leaves
10
0.294846
20
-0.758375
30
4.925822
11
0.479130
21
-0.659916
31
4.858256
12
0.681587
22
-1.020918
32
4.727677
13
0.502050
23
-1.127843
33
4.831989
0
3DFACE
8
coconut_palm1_leaves
10
0.111840
20
-0.859113
30
4.956632
11
0.294846
21
-0.758375
31
4.925822
12
0.502050
22
-1.127843
32
4.831989
13
0.320245
23
-1.230723
33
4.826029
0
3DFACE
8
coconut_palm1_leaves
10
0.087972
20
-0.389495
30
4.919713
11
0.273812
21
-0.293810
31
4.867896
12
0.479130
22
-0.659916
32
4.858256
13
0.294846
23
-0.758375
33
4.925822
0
3DFACE
8
coconut_palm1_leaves
10
-0.097430
20
-0.485961
30
4.965450
11
0.087972
21
-0.389495
31
4.919713
12
0.294846
22
-0.758375
32
4.925822
13
0.111840
23
-0.859113
33
4.956632
0
3DFACE
8
coconut_palm1_leaves
10
-0.115672
20
-0.026374
30
4.856874
11
0.070929
21
0.067954
31
4.808427
12
0.273812
22
-0.293810
32
4.867896
13
0.087972
23
-0.389495
33
4.919713
0
3DFACE
8
coconut_palm1_leaves
10
-0.302274
20
-0.120701
30
4.905322
11
-0.115672
21
-0.026374
31
4.856874
12
0.087972
22
-0.389495
32
4.919713
13
-0.097430
23
-0.485961
33
4.965450
0
3DFACE
8
coconut_palm1_leaves
10
-1.237280
20
0.309734
30
4.986142
11
-0.958286
21
0.361225
31
4.689001
12
-1.216417
22
0.457572
32
3.987073
13
-1.495412
23
0.406081
33
4.284214
0
3DFACE
8
coconut_palm1_leaves
10
-0.742999
20
0.125243
30
5.195095
11
-0.464005
21
0.176734
31
4.897954
12
-0.958286
22
0.361225
32
4.689001
13
-1.237280
23
0.309734
33
4.986142
0
3DFACE
8
coconut_palm1_leaves
10
-0.194091
20
-0.240011
30
4.812571
11
-0.098185
21
-0.025849
31
4.743148
12
0.334901
22
-0.150859
32
4.908280
13
0.249998
23
-0.368197
33
4.970979
0
3DFACE
8
coconut_palm1_leaves
10
-0.098185
20
-0.025849
30
4.743148
11
-0.002279
21
0.188313
31
4.673725
12
0.426560
22
0.064529
32
4.825701
13
0.334901
23
-0.150859
33
4.908280
0
3DFACE
8
coconut_palm1_leaves
10
0.249998
20
-0.368197
30
4.970979
11
0.334901
21
-0.150859
31
4.908280
12
0.810405
22
-0.288113
32
4.908047
13
0.746222
23
-0.511432
33
4.922353
0
3DFACE
8
coconut_palm1_leaves
10
0.334901
20
-0.150859
30
4.908280
11
0.426560
21
0.064529
31
4.825701
12
0.890912
22
-0.069506
32
4.769782
13
0.810405
23
-0.288113
33
4.908047
0
3DFACE
8
coconut_palm1_leaves
10
0.746222
20
-0.511432
30
4.922353
11
0.810405
21
-0.288113
31
4.908047
12
1.276025
22
-0.422513
32
4.612953
13
1.195662
23
-0.641162
33
4.509009
0
3DFACE
8
coconut_palm1_leaves
10
0.810405
20
-0.288113
30
4.908047
11
0.890912
21
-0.069506
31
4.769782
12
1.292933
22
-0.185549
32
4.360060
13
1.276025
23
-0.422513
33
4.612953
0
3DFACE
8
coconut_palm1_leaves
10
-0.041600
20
0.026147
30
4.951663
11
-0.154769
21
-0.077846
31
4.534633
12
0.278316
22
-0.202855
32
4.699765
13
0.391485
23
-0.098862
33
5.116795
0
3DFACE
8
coconut_palm1_leaves
10
0.391485
20
-0.098862
30
5.116795
11
0.278316
21
-0.202855
31
4.699765
12
0.753820
22
-0.340109
32
4.699533
13
0.866989
23
-0.236116
33
5.116562
0
3DFACE
8
coconut_palm1_leaves
10
0.866989
20
-0.236116
30
5.116562
11
0.753820
21
-0.340109
31
4.699533
12
1.219440
22
-0.474510
32
4.404438
13
1.332609
23
-0.370517
33
4.821468
0
3DFACE
8
coconut_palm1_leaves
10
-0.349586
20
0.112611
30
4.847948
11
-0.106253
21
-0.026091
31
4.795619
12
-0.312149
22
-0.484683
32
5.039989
13
-0.556709
23
-0.348714
33
5.089911
0
3DFACE
8
coconut_palm1_leaves
10
-0.106253
20
-0.026091
30
4.795619
11
0.137080
21
-0.164794
31
4.743289
12
-0.068830
22
-0.623417
32
4.983783
13
-0.312149
23
-0.484683
33
5.039989
0
3DFACE
8
coconut_palm1_leaves
10
-0.556709
20
-0.348714
30
5.089911
11
-0.312149
21
-0.484683
31
5.039989
12
-0.526397
22
-0.961877
32
5.239969
13
-0.774904
23
-0.834698
33
5.275106
0
3DFACE
8
coconut_palm1_leaves
10
-0.312149
20
-0.484683
30
5.039989
11
-0.068830
21
-0.623417
31
4.983783
12
-0.284551
22
-1.103892
32
5.166296
13
-0.526397
23
-0.961877
33
5.239969
0
3DFACE
8
coconut_palm1_leaves
10
-0.774904
20
-0.834698
30
5.275106
11
-0.526397
21
-0.961877
31
5.239969
12
-0.752971
22
-1.466527
32
5.360049
13
-1.008213
23
-1.354348
33
5.356827
0
3DFACE
8
coconut_palm1_leaves
10
-0.526397
20
-0.961877
30
5.239969
11
-0.284551
21
-1.103892
31
5.166296
12
-0.514053
22
-1.615061
32
5.244648
13
-0.752971
23
-1.466527
33
5.360049
0
3DFACE
8
coconut_palm1_leaves
10
-0.018878
20
0.026334
30
5.060030
11
-0.193628
21
-0.078517
31
4.531207
12
-0.399524
22
-0.537109
32
4.775577
13
-0.224774
23
-0.432257
33
5.304400
0
3DFACE
8
coconut_palm1_leaves
10
-0.224774
20
-0.432257
30
5.304400
11
-0.399524
21
-0.537109
31
4.775577
12
-0.613772
22
-1.014303
32
4.975557
13
-0.439022
23
-0.909451
33
5.504381
0
3DFACE
8
coconut_palm1_leaves
10
-0.439022
20
-0.909451
30
5.504381
11
-0.613772
21
-1.014303
31
4.975557
12
-0.840346
22
-1.518952
32
5.095637
13
-0.665597
23
-1.414101
33
5.624461
0
3DFACE
8
coconut_palm1_leaves
10
-0.016042
20
0.092792
30
4.911996
11
-0.112293
21
-0.026273
31
4.834900
12
-0.340874
22
0.210556
32
4.766752
13
-0.242678
23
0.327605
33
4.846562
0
3DFACE
8
coconut_palm1_leaves
10
-0.112293
20
-0.026273
30
4.834900
11
-0.208545
21
-0.145337
31
4.757803
12
-0.439637
22
0.094093
32
4.690942
13
-0.340874
23
0.210556
33
4.766752
0
3DFACE
8
coconut_palm1_leaves
10
-0.242678
20
0.327605
30
4.846562
11
-0.340874
21
0.210556
31
4.766752
12
-0.574996
22
0.453125
32
4.745423
13
-0.473064
23
0.566304
33
4.836401
0
3DFACE
8
coconut_palm1_leaves
10
-0.340874
20
0.210556
30
4.766752
11
-0.439637
21
0.094093
31
4.690942
12
-0.679035
22
0.342129
32
4.678731
13
-0.574996
23
0.453125
33
4.745423
0
3DFACE
8
coconut_palm1_leaves
10
-0.473064
20
0.566304
30
4.836401
11
-0.574996
21
0.453125
31
4.745423
12
-0.812293
22
0.698984
32
4.807053
13
-0.702711
23
0.804237
33
4.923038
0
3DFACE
8
coconut_palm1_leaves
10
-0.574996
20
0.453125
30
4.745423
11
-0.679035
21
0.342129
31
4.678731
12
-0.922322
22
0.594194
32
4.764328
13
-0.812293
23
0.698984
33
4.807053
0
3DFACE
8
coconut_palm1_leaves
10
-0.168081
20
-0.080679
30
4.985515
11
-0.056505
21
0.028134
31
4.684285
12
-0.285086
22
0.264962
32
4.616138
13
-0.396662
23
0.156149
33
4.917367
0
3DFACE
8
coconut_palm1_leaves
10
-0.396662
20
0.156149
30
4.917367
11
-0.285086
21
0.264962
31
4.616138
12
-0.519208
22
0.507532
32
4.594808
13
-0.630784
23
0.398718
33
4.896038
0
3DFACE
8
coconut_palm1_leaves
10
-0.630784
20
0.398718
30
4.896038
11
-0.519208
21
0.507532
31
4.594808
12
-0.756505
22
0.753391
32
4.656438
13
-0.868081
23
0.644577
33
4.957668
0
3DFACE
8
coconut_palm1_leaves
10
0.092729
20
-0.105974
30
4.771612
11
-0.087883
21
-0.025540
31
4.676154
12
-0.049193
22
0.363675
32
4.856394
13
0.133730
23
0.306477
33
4.948758
0
3DFACE
8
coconut_palm1_leaves
10
-0.087883
20
-0.025540
30
4.676154
11
-0.268496
21
0.054893
31
4.580696
12
-0.231021
22
0.431880
32
4.738913
13
-0.049193
23
0.363675
33
4.856394
0
3DFACE
8
coconut_palm1_leaves
10
0.133730
20
0.306477
30
4.948758
11
-0.049193
21
0.363675
31
4.856394
12
-0.003771
22
0.820601
32
4.801579
13
0.182943
23
0.801552
33
4.836554
0
3DFACE
8
coconut_palm1_leaves
10
-0.049193
20
0.363675
30
4.856394
11
-0.231021
21
0.431880
31
4.738913
12
-0.189348
22
0.851101
32
4.610113
13
-0.003771
23
0.820601
33
4.801579
0
3DFACE
8
coconut_palm1_leaves
10
0.182943
20
0.801552
30
4.836554
11
-0.003771
21
0.820601
31
4.801579
12
0.032063
22
1.181089
32
4.359463
13
0.212605
23
1.099939
33
4.275990
0
3DFACE
8
coconut_palm1_leaves
10
-0.003771
20
0.820601
30
4.801579
11
-0.189348
21
0.851101
31
4.610113
12
-0.169602
22
1.049741
32
4.080990
13
0.032063
23
1.181089
33
4.359463
0
3DFACE
8
coconut_palm1_leaves
10
-0.162954
20
0.044921
30
4.823328
11
-0.012812
21
-0.096001
31
4.528980
12
0.025878
22
0.293214
32
4.709219
13
-0.124264
23
0.434136
33
5.003568
0
3DFACE
8
coconut_palm1_leaves
10
-0.124264
20
0.434136
30
5.003568
11
0.025878
21
0.293214
31
4.709219
12
0.071300
22
0.750140
32
4.654404
13
-0.078843
23
0.891062
33
4.948753
0
3DFACE
8
coconut_palm1_leaves
10
-0.078843
20
0.891062
30
4.948753
11
0.071300
21
0.750140
31
4.654404
12
0.107134
22
1.110628
32
4.212289
13
-0.043008
23
1.251550
33
4.506638
0
3DFACE
8
coconut_palm1_leaves
10
0.043363
20
0.066527
30
4.908462
11
-0.112218
21
-0.026270
31
4.834412
12
-0.338777
22
0.161084
32
5.080743
13
-0.182113
23
0.252986
33
5.154632
0
3DFACE
8
coconut_palm1_leaves
10
-0.112218
20
-0.026270
30
4.834412
11
-0.267800
21
-0.119067
31
4.760363
12
-0.494674
22
0.068548
32
5.008041
13
-0.338777
23
0.161084
33
5.080743
0
3DFACE
8
coconut_palm1_leaves
10
-0.182113
20
0.252986
30
5.154632
11
-0.338777
21
0.161084
31
5.080743
12
-0.557426
22
0.341897
32
5.339072
13
-0.397406
23
0.431024
33
5.414317
0
3DFACE
8
coconut_palm1_leaves
10
-0.338777
20
0.161084
30
5.080743
11
-0.494674
21
0.068548
31
5.008041
12
-0.712720
22
0.248862
32
5.270806
13
-0.557426
23
0.341897
33
5.339072
0
3DFACE
8
coconut_palm1_leaves
10
-0.397406
20
0.431024
30
5.414317
11
-0.557426
21
0.341897
31
5.339072
12
-0.761714
22
0.510835
32
5.617776
13
-0.594701
23
0.594178
33
5.697277
0
3DFACE
8
coconut_palm1_leaves
10
-0.557426
20
0.341897
30
5.339072
11
-0.712720
21
0.248862
31
5.270806
12
-0.914027
22
0.415335
32
5.558545
13
-0.761714
23
0.510835
33
5.617776
0
3DFACE
8
coconut_palm1_leaves
10
-0.082509
20
-0.175197
30
4.958224
11
-0.141928
21
0.122656
31
4.710600
12
-0.368487
22
0.310011
32
4.956931
13
-0.309068
23
0.012158
33
5.204556
0
3DFACE
8
coconut_palm1_leaves
10
-0.309068
20
0.012158
30
5.204556
11
-0.368487
21
0.310011
31
4.956931
12
-0.587135
22
0.490824
32
5.215260
13
-0.527717
23
0.192971
33
5.462884
0
3DFACE
8
coconut_palm1_leaves
10
-0.527717
20
0.192971
30
5.462884
11
-0.587135
21
0.490824
31
5.215260
12
-0.791423
22
0.659761
32
5.493964
13
-0.732004
23
0.361908
33
5.741588
0
3DFACE
8
coconut_palm1_leaves
10
-0.244533
20
0.227466
30
5.018119
11
-0.126944
21
-0.026712
31
4.930180
12
-0.642074
22
-0.275026
32
4.862420
13
-0.773231
23
-0.027389
33
4.921012
0
3DFACE
8
coconut_palm1_leaves
10
-0.126944
20
-0.026712
30
4.930180
11
-0.009356
21
-0.280890
31
4.842240
12
-0.503602
22
-0.519137
32
4.747374
13
-0.642074
23
-0.275026
33
4.862420
0
3DFACE
8
coconut_palm1_leaves
10
-0.773231
20
-0.027389
30
4.921012
11
-0.642074
21
-0.275026
31
4.862420
12
-1.058957
22
-0.475981
32
4.425249
13
-1.147747
23
-0.207920
33
4.351400
0
3DFACE
8
coconut_palm1_leaves
10
-0.642074
20
-0.275026
30
4.862420
11
-0.503602
21
-0.519137
31
4.747374
12
-0.814852
22
-0.669172
32
4.206380
13
-1.058957
23
-0.475981
33
4.425249
0
3DFACE
8
coconut_palm1_leaves
10
-1.147747
20
-0.207920
30
4.351400
11
-1.058957
21
-0.475981
31
4.425249
12
-1.021334
22
-0.457845
32
3.527686
13
-0.808824
23
-0.044545
33
3.340666
0
3DFACE
8
coconut_palm1_leaves
10
-1.058957
20
-0.475981
30
4.425249
11
-0.814852
21
-0.669172
31
4.206380
12
-0.417154
22
-0.477465
32
3.285664
13
-1.021334
23
-0.457845
33
3.527686
0
3DFACE
8
coconut_palm1_leaves
10
-0.270397
20
-0.155528
30
5.031857
11
0.016508
21
0.102104
31
4.828502
12
-0.498622
22
-0.146210
32
4.760742
13
-0.785527
23
-0.403842
33
4.964097
0
3DFACE
8
coconut_palm1_leaves
10
-0.785527
20
-0.403842
30
4.964097
11
-0.498622
21
-0.146210
31
4.760742
12
-0.915504
22
-0.347164
32
4.323571
13
-1.202409
23
-0.604797
33
4.526927
0
3DFACE
8
coconut_palm1_leaves
10
-1.202409
20
-0.604797
30
4.526927
11
-0.915504
21
-0.347164
31
4.323571
12
-0.877882
22
-0.329028
32
3.426008
13
-1.164786
23
-0.586661
33
3.629364
0
3DFACE
8
coconut_palm1_leaves
10
-0.039837
20
-0.170536
30
4.816651
11
-0.101738
21
-0.025956
31
4.766258
12
0.035124
22
0.125924
32
5.017151
13
0.099160
23
-0.016288
33
5.068859
0
3DFACE
8
coconut_palm1_leaves
10
-0.101738
20
-0.025956
30
4.766258
11
-0.163640
21
0.118624
31
4.715865
12
-0.027171
22
0.270068
32
4.963313
13
0.035124
23
0.125924
33
5.017151
0
3DFACE
8
coconut_palm1_leaves
10
0.099160
20
-0.016288
30
5.068859
11
0.035124
21
0.125924
31
5.017151
12
0.192451
22
0.300514
32
5.241484
13
0.263178
23
0.165727
33
5.291924
0
3DFACE
8
coconut_palm1_leaves
10
0.035124
20
0.125924
30
5.017151
11
-0.027171
21
0.270068
31
4.963313
12
0.131475
22
0.446122
32
5.177336
13
0.192451
23
0.300514
33
5.241484
0
3DFACE
8
coconut_palm1_leaves
10
0.263178
20
0.165727
30
5.291924
11
0.192451
21
0.300514
31
5.241484
12
0.381591
22
0.510407
32
5.415013
13
0.464493
23
0.389132
33
5.456242
0
3DFACE
8
coconut_palm1_leaves
10
0.192451
20
0.300514
30
5.241484
11
0.131475
21
0.446122
31
5.177336
12
0.324099
22
0.659881
32
5.329537
13
0.381591
23
0.510407
33
5.415013
0
3DFACE
8
coconut_palm1_leaves
10
-0.223802
20
-0.039100
30
4.874808
11
0.020325
21
-0.012812
31
4.657707
12
0.157188
22
0.139067
32
4.908600
13
-0.086940
23
0.112780
33
5.125701
0
3DFACE
8
coconut_palm1_leaves
10
-0.086940
20
0.112780
30
5.125701
11
0.157188
21
0.139067
31
4.908600
12
0.314515
22
0.313658
32
5.132933
13
0.070388
23
0.287370
33
5.350034
0
3DFACE
8
coconut_palm1_leaves
10
0.070388
20
0.287370
30
5.350034
11
0.314515
21
0.313658
31
5.132933
12
0.503655
22
0.523551
32
5.306463
13
0.259528
23
0.497264
33
5.523564
0
3DFACE
8
coconut_palm1_leaves
10
-0.195929
20
-0.197110
30
4.884949
11
-0.110986
21
-0.026233
31
4.826400
12
0.242674
22
-0.193303
32
4.842822
13
0.159266
23
-0.364904
33
4.899644
0
3DFACE
8
coconut_palm1_leaves
10
-0.110986
20
-0.026233
30
4.826400
11
-0.026044
21
0.144643
31
4.767851
12
0.326211
22
-0.021763
32
4.782380
13
0.242674
23
-0.193303
33
4.842822
0
3DFACE
8
coconut_palm1_leaves
10
0.159266
20
-0.364904
30
4.899644
11
0.242674
21
-0.193303
31
4.842822
12
0.596950
22
-0.360664
32
4.823045
13
0.516311
23
-0.533573
33
4.870845
0
3DFACE
8
coconut_palm1_leaves
10
0.242674
20
-0.193303
30
4.842822
11
0.326211
21
-0.021763
31
4.782380
12
0.677369
22
-0.187651
32
4.753518
13
0.596950
23
-0.360664
33
4.823045
0
3DFACE
8
coconut_palm1_leaves
10
0.516311
20
-0.533573
30
4.870845
11
0.596950
21
-0.360664
31
4.823045
12
0.948048
22
-0.526524
32
4.739996
13
0.869348
23
-0.700349
33
4.765916
0
3DFACE
8
coconut_palm1_leaves
10
0.596950
20
-0.360664
30
4.823045
11
0.677369
21
-0.187651
31
4.753518
12
1.021595
22
-0.350264
32
4.649173
13
0.948048
23
-0.526524
33
4.739996
0
3DFACE
8
coconut_palm1_leaves
10
-0.068757
20
0.018108
30
5.015327
11
-0.153216
21
-0.070575
31
4.637473
12
0.200444
22
-0.237644
32
4.653894
13
0.284903
23
-0.148962
33
5.031749
0
3DFACE
8
coconut_palm1_leaves
10
0.284903
20
-0.148962
30
5.031749
11
0.200444
21
-0.237644
31
4.653894
12
0.554720
22
-0.405005
32
4.634118
13
0.639180
23
-0.316323
33
5.011972
0
3DFACE
8
coconut_palm1_leaves
10
0.639180
20
-0.316323
30
5.011972
11
0.554720
21
-0.405005
31
4.634118
12
0.905819
22
-0.570865
32
4.551069
13
0.990278
23
-0.482182
33
4.928924
0
3DFACE
8
coconut_palm1_leaves
10
-0.399736
20
-0.125645
30
4.872252
11
-0.107439
21
-0.026127
31
4.803333
12
0.113478
22
-0.603489
32
4.858457
13
-0.175906
23
-0.710618
33
4.913169
0
3DFACE
8
coconut_palm1_leaves
10
-0.107439
20
-0.026127
30
4.803333
11
0.184857
21
0.073391
31
4.734414
12
0.403687
22
-0.498517
32
4.773714
13
0.113478
23
-0.603489
33
4.858457
0
3DFACE
8
coconut_palm1_leaves
10
-0.175906
20
-0.710618
30
4.913169
11
0.113478
21
-0.603489
31
4.858457
12
0.335227
22
-1.183027
32
4.723916
13
0.047197
23
-1.293693
33
4.703463
0
3DFACE
8
coconut_palm1_leaves
10
0.113478
20
-0.603489
30
4.858457
11
0.403687
21
-0.498517
31
4.773714
12
0.616759
22
-1.055378
32
4.565029
13
0.335227
23
-1.183027
33
4.723916
0
3DFACE
8
coconut_palm1_leaves
10
0.047197
20
-1.293693
30
4.703463
11
0.335227
21
-1.183027
31
4.723916
12
0.529384
22
-1.690451
32
4.266309
13
0.217065
23
-1.737640
33
4.079436
0
3DFACE
8
coconut_palm1_leaves
10
0.335227
20
-1.183027
30
4.723916
11
0.616759
21
-1.055378
31
4.565029
12
0.772318
22
-1.461927
32
3.952973
13
0.529384
23
-1.690451
33
4.266309
0
3DFACE
8
coconut_palm1_leaves
10
-0.010196
20
-0.109574
30
5.064417
11
-0.204683
21
0.057320
31
4.542250
12
0.016234
22
-0.520041
32
4.597374
13
0.210721
23
-0.686936
33
5.119540
0
3DFACE
8
coconut_palm1_leaves
10
0.210721
20
-0.686936
30
5.119540
11
0.016234
21
-0.520041
31
4.597374
12
0.237984
22
-1.099580
32
4.462832
13
0.432471
23
-1.266475
33
4.985000
0
3DFACE
8
coconut_palm1_leaves
10
0.432471
20
-1.266475
30
4.985000
11
0.237984
21
-1.099580
31
4.462832
12
0.432140
22
-1.607003
32
4.005225
13
0.626628
23
-1.773898
33
4.527392
0
3DFACE
8
coconut_palm1_leaves
10
0.021476
20
0.183438
30
4.985498
11
-0.116561
21
-0.026401
31
4.862652
12
-0.576625
22
0.270529
32
4.894856
13
-0.432844
23
0.476661
33
5.023696
0
3DFACE
8
coconut_palm1_leaves
10
-0.116561
20
-0.026401
30
4.862652
11
-0.254598
21
-0.236239
31
4.739806
12
-0.719725
22
0.063958
32
4.778571
13
-0.576625
23
0.270529
33
4.894856
0
3DFACE
8
coconut_palm1_leaves
10
-0.432844
20
0.476661
30
5.023696
11
-0.576625
21
0.270529
31
4.894856
12
-1.029184
22
0.562615
32
5.016379
13
-0.870030
23
0.758824
33
5.174628
0
3DFACE
8
coconut_palm1_leaves
10
-0.576625
20
0.270529
30
4.894856
11
-0.719725
21
0.063958
31
4.778571
12
-1.178370
22
0.359972
32
4.932650
13
-1.029184
23
0.562615
33
5.016379
0
3DFACE
8
coconut_palm1_leaves
10
-0.870030
20
0.758824
30
5.174628
11
-1.029184
21
0.562615
31
5.016379
12
-1.451466
22
0.835159
32
5.290907
13
-1.253730
23
1.006467
33
5.515091
0
3DFACE
8
coconut_palm1_leaves
10
-1.029184
20
0.562615
30
5.016379
11
-1.178370
21
0.359972
31
4.932650
12
-1.593413
22
0.627844
32
5.282791
13
-1.451466
23
0.835159
33
5.290907
0
3DFACE
8
coconut_palm1_leaves
10
-0.115502
20
-0.168871
30
5.097143
11
-0.117619
21
0.116070
31
4.628160
12
-0.577684
22
0.412999
32
4.660365
13
-0.575567
23
0.128059
33
5.129347
0
3DFACE
8
coconut_palm1_leaves
10
-0.575567
20
0.128059
30
5.129347
11
-0.577684
21
0.412999
31
4.660365
12
-1.030242
22
0.705085
32
4.781888
13
-1.028125
23
0.420144
33
5.250870
0
3DFACE
8
coconut_palm1_leaves
10
-1.028125
20
0.420144
30
5.250870
11
-1.030242
21
0.705085
31
4.781888
12
-1.452524
22
0.977629
32
5.056416
13
-1.450408
23
0.692689
33
5.525398
0
3DFACE
8
coconut_palm1_leaves
10
0.041409
20
-0.038896
30
4.880467
11
-0.106828
21
-0.026109
31
4.799355
12
-0.138250
22
0.300669
32
4.851727
13
0.008351
23
0.304895
33
4.927410
0
3DFACE
8
coconut_palm1_leaves
10
-0.106828
20
-0.026109
30
4.799355
11
-0.255064
21
-0.013321
31
4.718242
12
-0.285101
22
0.299055
32
4.757947
13
-0.138250
23
0.300669
33
4.851727
0
3DFACE
8
coconut_palm1_leaves
10
0.008351
20
0.304895
30
4.927410
11
-0.138250
21
0.300669
31
4.851727
12
-0.169548
22
0.626163
32
4.691099
13
-0.024765
23
0.649285
33
4.721241
0
3DFACE
8
coconut_palm1_leaves
10
-0.138250
20
0.300669
30
4.851727
11
-0.285101
21
0.299055
31
4.757947
12
-0.312127
22
0.580109
32
4.555745
13
-0.169548
23
0.626163
33
4.691099
0
3DFACE
8
coconut_palm1_leaves
10
-0.024765
20
0.649285
30
4.721241
11
-0.169548
21
0.626163
31
4.691099
12
-0.182454
22
0.760371
32
4.215915
13
-0.031942
23
0.723924
33
4.164979
0
3DFACE
8
coconut_palm1_leaves
10
-0.169548
20
0.626163
30
4.691099
11
-0.312127
21
0.580109
31
4.555745
12
-0.311900
22
0.577747
32
4.048428
13
-0.182454
23
0.760371
33
4.215915
0
3DFACE
8
coconut_palm1_leaves
10
-0.172368
20
0.048188
30
4.890161
11
-0.041287
21
-0.100405
31
4.708549
12
-0.072709
22
0.226373
32
4.760921
13
-0.203790
23
0.374966
33
4.942533
0
3DFACE
8
coconut_palm1_leaves
10
-0.203790
20
0.374966
30
4.942533
11
-0.072709
21
0.226373
31
4.760921
12
-0.104008
22
0.551866
32
4.600293
13
-0.235089
23
0.700459
33
4.781905
0
3DFACE
8
coconut_palm1_leaves
10
-0.235089
20
0.700459
30
4.781905
11
-0.104008
21
0.551866
31
4.600293
12
-0.116913
22
0.686075
32
4.125109
13
-0.247994
23
0.834668
33
4.306721
0
3DFACE
8
coconut_palm1_leaves
10
-0.203639
20
-0.314148
30
4.987839
11
-0.121467
21
-0.026548
31
4.894560
12
0.427309
22
-0.221022
32
4.701800
13
0.351620
23
-0.510919
33
4.768591
0
3DFACE
8
coconut_palm1_leaves
10
-0.121467
20
-0.026548
30
4.894560
11
-0.039295
21
0.261052
31
4.801281
12
0.488178
22
0.074128
32
4.590435
13
0.427309
23
-0.221022
33
4.701800
0
3DFACE
8
coconut_palm1_leaves
10
0.351620
20
-0.510919
30
4.768591
11
0.427309
21
-0.221022
31
4.701800
12
0.855038
22
-0.372599
32
4.238364
13
0.733957
23
-0.646411
33
4.198236
0
3DFACE
8
coconut_palm1_leaves
10
0.427309
20
-0.221022
30
4.701800
11
0.488178
21
0.074128
31
4.590435
12
0.820786
22
-0.043741
32
4.050338
13
0.855038
23
-0.372599
33
4.238364
0
3DFACE
8
coconut_palm1_leaves
10
0.733957
20
-0.646411
30
4.198236
11
0.855038
21
-0.372599
31
4.238364
12
0.913957
22
-0.393479
32
3.425746
13
0.554190
23
-0.582705
33
3.263907
0
3DFACE
8
coconut_palm1_leaves
10
0.855038
20
-0.372599
30
4.238364
11
0.820786
21
-0.043741
31
4.050338
12
0.590994
22
0.037692
32
3.187772
13
0.913957
23
-0.393479
33
3.425746
0
3DFACE
8
coconut_palm1_leaves
10
0.109515
20
-0.033667
30
5.015243
11
-0.352450
21
-0.019428
31
4.773877
12
0.196327
22
-0.213902
32
4.581117
13
0.658292
23
-0.228141
33
4.822483
0
3DFACE
8
coconut_palm1_leaves
10
0.658292
20
-0.228141
30
4.822483
11
0.196327
21
-0.213902
31
4.581117
12
0.624056
22
-0.365480
32
4.117682
13
1.086020
23
-0.379719
33
4.359047
0
3DFACE
8
coconut_palm1_leaves
10
1.086020
20
-0.379719
30
4.359047
11
0.624056
21
-0.365480
31
4.117682
12
0.682975
22
-0.386359
32
3.305063
13
1.144940
23
-0.400598
33
3.546429
0
3DFACE
8
coconut_palm1_leaves
10
-0.004655
20
0.184568
30
5.036738
11
-0.127378
21
-0.026725
31
4.932996
12
-0.603502
22
0.150989
32
5.046524
13
-0.504775
23
0.371238
33
5.135024
0
3DFACE
8
coconut_palm1_leaves
10
-0.127378
20
-0.026725
30
4.932996
11
-0.250100
21
-0.238018
31
4.829253
12
-0.710255
22
-0.066265
32
4.915394
13
-0.603502
23
0.150989
33
5.046524
0
3DFACE
8
coconut_palm1_leaves
10
-0.504775
20
0.371238
30
5.135024
11
-0.603502
21
0.150989
31
5.046524
12
-1.097783
22
0.335479
32
4.837571
13
-1.015735
23
0.561954
33
4.820827
0
3DFACE
8
coconut_palm1_leaves
10
-0.603502
20
0.150989
30
5.046524
11
-0.710255
21
-0.066265
31
4.915394
12
-1.139854
22
0.094083
32
4.603452
13
-1.097783
23
0.335479
33
4.837571
0
3DFACE
8
coconut_palm1_leaves
10
-1.015735
20
0.561954
30
4.820827
11
-1.097783
21
0.335479
31
4.837571
12
-1.355914
22
0.431827
32
4.135643
13
-1.107942
23
0.596370
33
3.950979
0
3DFACE
8
coconut_palm1_leaves
10
-1.097783
20
0.335479
30
4.837571
11
-1.139854
21
0.094083
31
4.603452
12
-1.134830
22
0.092208
32
3.799415
13
-1.355914
23
0.431827
33
4.135643
0
3DFACE
8
coconut_palm1_leaves
10
-0.266875
20
-0.052470
30
5.081566
11
0.012120
21
-0.000980
31
4.784425
12
-0.464005
22
0.176734
32
4.897954
13
-0.742999
23
0.125243
33
5.195095
0
3DFACE
8
coconut_palm1_coconuts
10
-0.071274
20
-0.074623
30
4.817555
11
-0.071324
21
-0.099150
31
4.827776
12
-0.083149
22
-0.097910
32
4.812784
13
-0.083149
23
-0.097910
33
4.812784
0
3DFACE
8
coconut_palm1_coconuts
10
-0.071324
20
-0.099150
30
4.827776
11
-0.060376
21
-0.127712
31
4.825716
12
-0.080857
22
-0.125564
32
4.799750
13
-0.083149
23
-0.097910
33
4.812784
0
3DFACE
8
coconut_palm1_coconuts
10
-0.060376
20
-0.127712
30
4.825716
11
-0.041364
21
-0.152656
31
4.811929
12
-0.065014
22
-0.150176
32
4.781945
13
-0.080857
23
-0.125564
33
4.799750
0
3DFACE
8
coconut_palm1_coconuts
10
-0.041364
20
-0.152656
30
4.811929
11
-0.019382
21
-0.167299
31
4.790107
12
-0.039864
22
-0.165151
32
4.764141
13
-0.065014
23
-0.150176
33
4.781945
0
3DFACE
8
coconut_palm1_coconuts
10
-0.019382
20
-0.167299
30
4.790107
11
-0.000321
21
-0.167716
31
4.766098
12
-0.012146
22
-0.166476
32
4.751106
13
-0.039864
23
-0.165151
33
4.764141
0
3DFACE
8
coconut_palm1_coconuts
10
-0.000321
20
-0.167716
30
4.766098
11
0.010712
21
-0.153796
31
4.746336
12
-0.012146
22
-0.166476
32
4.751106
13
-0.012146
23
-0.166476
33
4.751106
0
3DFACE
8
coconut_palm1_coconuts
10
-0.071274
20
-0.074623
30
4.817555
11
-0.056252
21
-0.089129
31
4.833985
12
-0.071324
22
-0.099150
32
4.827776
13
-0.071324
23
-0.099150
33
4.827776
0
3DFACE
8
coconut_palm1_coconuts
10
-0.056252
20
-0.089129
30
4.833985
11
-0.034272
21
-0.110356
31
4.836472
12
-0.060376
22
-0.127712
32
4.825716
13
-0.071324
23
-0.099150
33
4.827776
0
3DFACE
8
coconut_palm1_coconuts
10
-0.034272
20
-0.110356
30
4.836472
11
-0.011221
21
-0.132615
31
4.824347
12
-0.041364
22
-0.152656
32
4.811929
13
-0.060376
23
-0.127712
33
4.825716
0
3DFACE
8
coconut_palm1_coconuts
10
-0.011221
20
-0.132615
30
4.824347
11
0.006722
21
-0.149942
31
4.800862
12
-0.019382
22
-0.167299
32
4.790107
13
-0.041364
23
-0.152656
33
4.811929
0
3DFACE
8
coconut_palm1_coconuts
10
0.006722
20
-0.149942
30
4.800862
11
0.014750
21
-0.157695
31
4.772307
12
-0.000321
22
-0.167716
32
4.766098
13
-0.019382
23
-0.167299
33
4.790107
0
3DFACE
8
coconut_palm1_coconuts
10
0.014750
20
-0.157695
30
4.772307
11
0.010712
21
-0.153796
31
4.746336
12
-0.000321
22
-0.167716
32
4.766098
13
-0.000321
23
-0.167716
33
4.766098
0
3DFACE
8
coconut_palm1_coconuts
10
-0.071274
20
-0.074623
30
4.817555
11
-0.046764
21
-0.073717
31
4.827776
12
-0.056252
22
-0.089129
32
4.833985
13
-0.056252
23
-0.089129
33
4.833985
0
3DFACE
8
coconut_palm1_coconuts
10
-0.046764
20
-0.073717
30
4.827776
11
-0.017837
21
-0.083662
31
4.825716
12
-0.034272
22
-0.110356
32
4.836472
13
-0.056252
23
-0.089129
33
4.833985
0
3DFACE
8
coconut_palm1_coconuts
10
-0.017837
20
-0.083662
30
4.825716
11
0.007756
21
-0.101791
31
4.811929
12
-0.011221
22
-0.132615
32
4.824347
13
-0.034272
23
-0.110356
33
4.836472
0
3DFACE
8
coconut_palm1_coconuts
10
0.007756
20
-0.101791
30
4.811929
11
0.023157
21
-0.123248
31
4.790107
12
0.006722
22
-0.149942
32
4.800862
13
-0.011221
23
-0.132615
33
4.824347
0
3DFACE
8
coconut_palm1_coconuts
10
0.023157
20
-0.123248
30
4.790107
11
0.024239
21
-0.142283
31
4.766098
12
0.014750
22
-0.157695
32
4.772307
13
0.006722
23
-0.149942
33
4.800862
0
3DFACE
8
coconut_palm1_coconuts
10
0.024239
20
-0.142283
30
4.766098
11
0.010712
21
-0.153796
31
4.746336
12
0.014750
22
-0.157695
32
4.772307
13
0.014750
23
-0.157695
33
4.772307
0
3DFACE
8
coconut_palm1_coconuts
10
-0.071274
20
-0.074623
30
4.817555
11
-0.048416
21
-0.061943
31
4.812784
12
-0.046764
22
-0.073717
32
4.827776
13
-0.046764
23
-0.073717
33
4.827776
0
3DFACE
8
coconut_palm1_coconuts
10
-0.048416
20
-0.061943
30
4.812784
11
-0.020698
21
-0.063268
31
4.799750
12
-0.017837
22
-0.083662
32
4.825716
13
-0.046764
23
-0.073717
33
4.827776
0
3DFACE
8
coconut_palm1_coconuts
10
-0.020698
20
-0.063268
30
4.799750
11
0.004452
21
-0.078242
31
4.781945
12
0.007756
22
-0.101791
32
4.811929
13
-0.017837
23
-0.083662
33
4.825716
0
3DFACE
8
coconut_palm1_coconuts
10
0.004452
20
-0.078242
30
4.781945
11
0.020295
21
-0.102854
31
4.764141
12
0.023157
22
-0.123248
32
4.790107
13
0.007756
23
-0.101791
33
4.811929
0
3DFACE
8
coconut_palm1_coconuts
10
0.020295
20
-0.102854
30
4.764141
11
0.022586
21
-0.130509
31
4.751106
12
0.024239
22
-0.142283
32
4.766098
13
0.023157
23
-0.123248
33
4.790107
0
3DFACE
8
coconut_palm1_coconuts
10
0.022586
20
-0.130509
30
4.751106
11
0.010712
21
-0.153796
31
4.746336
12
0.024239
22
-0.142283
32
4.766098
13
0.024239
23
-0.142283
33
4.766098
0
3DFACE
8
coconut_palm1_coconuts
10
-0.071274
20
-0.074623
30
4.817555
11
-0.060241
21
-0.060703
31
4.797792
12
-0.048416
22
-0.061943
32
4.812784
13
-0.048416
23
-0.061943
33
4.812784
0
3DFACE
8
coconut_palm1_coconuts
10
-0.060241
20
-0.060703
30
4.797792
11
-0.041180
21
-0.061120
31
4.773785
12
-0.020698
22
-0.063268
32
4.799750
13
-0.048416
23
-0.061943
33
4.812784
0
3DFACE
8
coconut_palm1_coconuts
10
-0.041180
20
-0.061120
30
4.773785
11
-0.019198
21
-0.075762
31
4.751963
12
0.004452
22
-0.078242
32
4.781945
13
-0.020698
23
-0.063268
33
4.799750
0
3DFACE
8
coconut_palm1_coconuts
10
-0.019198
20
-0.075762
30
4.751963
11
-0.000187
21
-0.100706
31
4.738174
12
0.020295
22
-0.102854
32
4.764141
13
0.004452
23
-0.078242
33
4.781945
0
3DFACE
8
coconut_palm1_coconuts
10
-0.000187
20
-0.100706
30
4.738174
11
0.010761
21
-0.129269
31
4.736115
12
0.022586
22
-0.130509
32
4.751106
13
0.020295
23
-0.102854
33
4.764141
0
3DFACE
8
coconut_palm1_coconuts
10
0.010761
20
-0.129269
30
4.736115
11
0.010712
21
-0.153796
31
4.746336
12
0.022586
22
-0.130509
32
4.751106
13
0.022586
23
-0.130509
33
4.751106
0
3DFACE
8
coconut_palm1_coconuts
10
-0.071274
20
-0.074623
30
4.817555
11
-0.075312
21
-0.070723
31
4.791583
12
-0.060241
22
-0.060703
32
4.797792
13
-0.060241
23
-0.060703
33
4.797792
0
3DFACE
8
coconut_palm1_coconuts
10
-0.075312
20
-0.070723
30
4.791583
11
-0.067284
21
-0.078476
31
4.763029
12
-0.041180
22
-0.061120
32
4.773785
13
-0.060241
23
-0.060703
33
4.797792
0
3DFACE
8
coconut_palm1_coconuts
10
-0.067284
20
-0.078476
30
4.763029
11
-0.049341
21
-0.095804
31
4.739543
12
-0.019198
22
-0.075762
32
4.751963
13
-0.041180
23
-0.061120
33
4.773785
0
3DFACE
8
coconut_palm1_coconuts
10
-0.049341
20
-0.095804
30
4.739543
11
-0.026291
21
-0.118063
31
4.727419
12
-0.000187
22
-0.100706
32
4.738174
13
-0.019198
23
-0.075762
33
4.751963
0
3DFACE
8
coconut_palm1_coconuts
10
-0.026291
20
-0.118063
30
4.727419
11
-0.004310
21
-0.139290
31
4.729905
12
0.010761
22
-0.129269
32
4.736115
13
-0.000187
23
-0.100706
33
4.738174
0
3DFACE
8
coconut_palm1_coconuts
10
-0.004310
20
-0.139290
30
4.729905
11
0.010712
21
-0.153796
31
4.746336
12
0.010761
22
-0.129269
32
4.736115
13
0.010761
23
-0.129269
33
4.736115
0
3DFACE
8
coconut_palm1_coconuts
10
-0.071274
20
-0.074623
30
4.817555
11
-0.084801
21
-0.086135
31
4.797792
12
-0.075312
22
-0.070723
32
4.791583
13
-0.075312
23
-0.070723
33
4.791583
0
3DFACE
8
coconut_palm1_coconuts
10
-0.084801
20
-0.086135
30
4.797792
11
-0.083719
21
-0.105170
31
4.773785
12
-0.067284
22
-0.078476
32
4.763029
13
-0.075312
23
-0.070723
33
4.791583
0
3DFACE
8
coconut_palm1_coconuts
10
-0.083719
20
-0.105170
30
4.773785
11
-0.068318
21
-0.126627
31
4.751963
12
-0.049341
22
-0.095804
32
4.739543
13
-0.067284
23
-0.078476
33
4.763029
0
3DFACE
8
coconut_palm1_coconuts
10
-0.068318
20
-0.126627
30
4.751963
11
-0.042726
21
-0.144757
31
4.738174
12
-0.026291
22
-0.118063
32
4.727419
13
-0.049341
23
-0.095804
33
4.739543
0
3DFACE
8
coconut_palm1_coconuts
10
-0.042726
20
-0.144757
30
4.738174
11
-0.013798
21
-0.154701
31
4.736115
12
-0.004310
22
-0.139290
32
4.729905
13
-0.026291
23
-0.118063
33
4.727419
0
3DFACE
8
coconut_palm1_coconuts
10
-0.013798
20
-0.154701
30
4.736115
11
0.010712
21
-0.153796
31
4.746336
12
-0.004310
22
-0.139290
32
4.729905
13
-0.004310
23
-0.139290
33
4.729905
0
3DFACE
8
coconut_palm1_coconuts
10
-0.071274
20
-0.074623
30
4.817555
11
-0.083149
21
-0.097910
31
4.812784
12
-0.084801
22
-0.086135
32
4.797792
13
-0.084801
23
-0.086135
33
4.797792
0
3DFACE
8
coconut_palm1_coconuts
10
-0.083149
20
-0.097910
30
4.812784
11
-0.080857
21
-0.125564
31
4.799750
12
-0.083719
22
-0.105170
32
4.773785
13
-0.084801
23
-0.086135
33
4.797792
0
3DFACE
8
coconut_palm1_coconuts
10
-0.080857
20
-0.125564
30
4.799750
11
-0.065014
21
-0.150176
31
4.781945
12
-0.068318
22
-0.126627
32
4.751963
13
-0.083719
23
-0.105170
33
4.773785
0
3DFACE
8
coconut_palm1_coconuts
10
-0.065014
20
-0.150176
30
4.781945
11
-0.039864
21
-0.165151
31
4.764141
12
-0.042726
22
-0.144757
32
4.738174
13
-0.068318
23
-0.126627
33
4.751963
0
3DFACE
8
coconut_palm1_coconuts
10
-0.039864
20
-0.165151
30
4.764141
11
-0.012146
21
-0.166476
31
4.751106
12
-0.013798
22
-0.154701
32
4.736115
13
-0.042726
23
-0.144757
33
4.738174
0
3DFACE
8
coconut_palm1_coconuts
10
-0.012146
20
-0.166476
30
4.751106
11
0.010712
21
-0.153796
31
4.746336
12
-0.013798
22
-0.154701
32
4.736115
13
-0.013798
23
-0.154701
33
4.736115
0
3DFACE
8
coconut_palm1_coconuts
10
-0.264287
20
-0.044166
30
4.787230
11
-0.254549
21
-0.037344
31
4.772238
12
-0.270603
22
-0.018800
32
4.782458
13
-0.270603
23
-0.018800
33
4.782458
0
3DFACE
8
coconut_palm1_coconuts
10
-0.264287
20
-0.044166
30
4.787230
11
-0.244415
21
-0.063534
31
4.800263
12
-0.227548
22
-0.051718
32
4.774298
13
-0.254549
23
-0.037344
33
4.772238
0
3DFACE
8
coconut_palm1_coconuts
10
-0.244415
20
-0.063534
30
4.800263
11
-0.216311
21
-0.071714
31
4.818069
12
-0.196835
22
-0.058070
32
4.788085
13
-0.227548
23
-0.051718
33
4.774298
0
3DFACE
8
coconut_palm1_coconuts
10
-0.216311
20
-0.071714
30
4.818069
11
-0.187505
21
-0.066516
31
4.835874
12
-0.170639
22
-0.054700
32
4.809908
13
-0.196835
23
-0.058070
33
4.788085
0
3DFACE
8
coconut_palm1_coconuts
10
-0.187505
20
-0.066516
30
4.835874
11
-0.165717
21
-0.049332
31
4.848907
12
-0.155979
22
-0.042510
32
4.833916
13
-0.170639
23
-0.054700
33
4.809908
0
3DFACE
8
coconut_palm1_coconuts
10
-0.165717
20
-0.049332
30
4.848907
11
-0.156785
21
-0.024765
31
4.853678
12
-0.155979
22
-0.042510
32
4.833916
13
-0.155979
23
-0.042510
33
4.833916
0
3DFACE
8
coconut_palm1_coconuts
10
-0.254549
20
-0.037344
30
4.772238
11
-0.249749
21
-0.019893
31
4.766028
12
-0.270603
22
-0.018800
32
4.782458
13
-0.270603
23
-0.018800
33
4.782458
0
3DFACE
8
coconut_palm1_coconuts
10
-0.254549
20
-0.037344
30
4.772238
11
-0.227548
21
-0.051718
31
4.774298
12
-0.219234
22
-0.021493
32
4.763542
13
-0.249749
23
-0.019893
33
4.766028
0
3DFACE
8
coconut_palm1_coconuts
10
-0.227548
20
-0.051718
30
4.774298
11
-0.196835
21
-0.058070
31
4.788085
12
-0.187234
22
-0.023170
32
4.775666
13
-0.219234
23
-0.021493
33
4.763542
0
3DFACE
8
coconut_palm1_coconuts
10
-0.196835
20
-0.058070
30
4.788085
11
-0.170639
21
-0.054700
31
4.809908
12
-0.162325
22
-0.024475
32
4.799151
13
-0.187234
23
-0.023170
33
4.775666
0
3DFACE
8
coconut_palm1_coconuts
10
-0.170639
20
-0.054700
30
4.809908
11
-0.155979
21
-0.042510
31
4.833916
12
-0.151179
22
-0.025059
32
4.827706
13
-0.162325
23
-0.024475
33
4.799151
0
3DFACE
8
coconut_palm1_coconuts
10
-0.155979
20
-0.042510
30
4.833916
11
-0.156785
21
-0.024765
31
4.853678
12
-0.151179
22
-0.025059
32
4.827706
13
-0.151179
23
-0.025059
33
4.827706
0
3DFACE
8
coconut_palm1_coconuts
10
-0.249749
20
-0.019893
30
4.766028
11
-0.252699
21
-0.002037
31
4.772238
12
-0.270603
22
-0.018800
32
4.782458
13
-0.270603
23
-0.018800
33
4.782458
0
3DFACE
8
coconut_palm1_coconuts
10
-0.249749
20
-0.019893
30
4.766028
11
-0.219234
21
-0.021493
31
4.763542
12
-0.224343
22
0.009436
32
4.774298
13
-0.252699
23
-0.002037
33
4.772238
0
3DFACE
8
coconut_palm1_coconuts
10
-0.219234
20
-0.021493
30
4.763542
11
-0.187234
21
-0.023170
31
4.775666
12
-0.193134
22
0.012543
32
4.788085
13
-0.224343
23
0.009436
33
4.774298
0
3DFACE
8
coconut_palm1_coconuts
10
-0.187234
20
-0.023170
30
4.775666
11
-0.162325
21
-0.024475
31
4.799151
12
-0.167434
22
0.006453
32
4.809908
13
-0.193134
23
0.012543
33
4.788085
0
3DFACE
8
coconut_palm1_coconuts
10
-0.162325
20
-0.024475
30
4.799151
11
-0.151179
21
-0.025059
31
4.827706
12
-0.154129
22
-0.007203
32
4.833916
13
-0.167434
23
0.006453
33
4.809908
0
3DFACE
8
coconut_palm1_coconuts
10
-0.151179
20
-0.025059
30
4.827706
11
-0.156785
21
-0.024765
31
4.853678
12
-0.154129
22
-0.007203
32
4.833916
13
-0.154129
23
-0.007203
33
4.833916
0
3DFACE
8
coconut_palm1_coconuts
10
-0.252699
20
-0.002037
30
4.772238
11
-0.261671
21
0.005766
31
4.787230
12
-0.270603
22
-0.018800
32
4.782458
13
-0.270603
23
-0.018800
33
4.782458
0
3DFACE
8
coconut_palm1_coconuts
10
-0.252699
20
-0.002037
30
4.772238
11
-0.224343
21
0.009436
31
4.774298
12
-0.239883
22
0.022950
32
4.800263
13
-0.261671
23
0.005766
33
4.787230
0
3DFACE
8
coconut_palm1_coconuts
10
-0.224343
20
0.009436
30
4.774298
11
-0.193134
21
0.012543
31
4.788085
12
-0.211077
22
0.028149
32
4.818069
13
-0.239883
23
0.022950
33
4.800263
0
3DFACE
8
coconut_palm1_coconuts
10
-0.193134
20
0.012543
30
4.788085
11
-0.167434
21
0.006453
31
4.809908
12
-0.182973
22
0.019968
32
4.835874
13
-0.211077
23
0.028149
33
4.818069
0
3DFACE
8
coconut_palm1_coconuts
10
-0.167434
20
0.006453
30
4.809908
11
-0.154129
21
-0.007203
31
4.833916
12
-0.163101
22
0.000600
32
4.848907
13
-0.182973
23
0.019968
33
4.835874
0
3DFACE
8
coconut_palm1_coconuts
10
-0.154129
20
-0.007203
30
4.833916
11
-0.156785
21
-0.024765
31
4.853678
12
-0.163101
22
0.000600
32
4.848907
13
-0.163101
23
0.000600
33
4.848907
0
3DFACE
8
coconut_palm1_coconuts
10
-0.261671
20
0.005766
30
4.787230
11
-0.271409
21
-0.001056
31
4.802221
12
-0.270603
22
-0.018800
32
4.782458
13
-0.270603
23
-0.018800
33
4.782458
0
3DFACE
8
coconut_palm1_coconuts
10
-0.261671
20
0.005766
30
4.787230
11
-0.239883
21
0.022950
31
4.800263
12
-0.256749
22
0.011134
32
4.826230
13
-0.271409
23
-0.001056
33
4.802221
0
3DFACE
8
coconut_palm1_coconuts
10
-0.239883
20
0.022950
30
4.800263
11
-0.211077
21
0.028149
31
4.818069
12
-0.230554
22
0.014505
32
4.848051
13
-0.256749
23
0.011134
33
4.826230
0
3DFACE
8
coconut_palm1_coconuts
10
-0.211077
20
0.028149
30
4.818069
11
-0.182973
21
0.019968
31
4.835874
12
-0.199840
22
0.008152
32
4.861839
13
-0.230554
23
0.014505
33
4.848051
0
3DFACE
8
coconut_palm1_coconuts
10
-0.182973
20
0.019968
30
4.835874
11
-0.163101
21
0.000600
31
4.848907
12
-0.172839
22
-0.006222
32
4.863898
13
-0.199840
23
0.008152
33
4.861839
0
3DFACE
8
coconut_palm1_coconuts
10
-0.163101
20
0.000600
30
4.848907
11
-0.156785
21
-0.024765
31
4.853678
12
-0.172839
22
-0.006222
32
4.863898
13
-0.172839
23
-0.006222
33
4.863898
0
3DFACE
8
coconut_palm1_coconuts
10
-0.271409
20
-0.001056
30
4.802221
11
-0.276209
21
-0.018507
31
4.808431
12
-0.270603
22
-0.018800
32
4.782458
13
-0.270603
23
-0.018800
33
4.782458
0
3DFACE
8
coconut_palm1_coconuts
10
-0.271409
20
-0.001056
30
4.802221
11
-0.256749
21
0.011134
31
4.826230
12
-0.265063
22
-0.019091
32
4.836986
13
-0.276209
23
-0.018507
33
4.808431
0
3DFACE
8
coconut_palm1_coconuts
10
-0.256749
20
0.011134
30
4.826230
11
-0.230554
21
0.014505
31
4.848051
12
-0.240154
22
-0.020396
32
4.860471
13
-0.265063
23
-0.019091
33
4.836986
0
3DFACE
8
coconut_palm1_coconuts
10
-0.230554
20
0.014505
30
4.848051
11
-0.199840
21
0.008152
31
4.861839
12
-0.208154
22
-0.022073
32
4.872595
13
-0.240154
23
-0.020396
33
4.860471
0
3DFACE
8
coconut_palm1_coconuts
10
-0.199840
20
0.008152
30
4.861839
11
-0.172839
21
-0.006222
31
4.863898
12
-0.177639
22
-0.023673
32
4.870109
13
-0.208154
23
-0.022073
33
4.872595
0
3DFACE
8
coconut_palm1_coconuts
10
-0.172839
20
-0.006222
30
4.863898
11
-0.156785
21
-0.024765
31
4.853678
12
-0.177639
22
-0.023673
32
4.870109
13
-0.177639
23
-0.023673
33
4.870109
0
3DFACE
8
coconut_palm1_coconuts
10
-0.276209
20
-0.018507
30
4.808431
11
-0.273259
21
-0.036363
31
4.802221
12
-0.270603
22
-0.018800
32
4.782458
13
-0.270603
23
-0.018800
33
4.782458
0
3DFACE
8
coconut_palm1_coconuts
10
-0.276209
20
-0.018507
30
4.808431
11
-0.265063
21
-0.019091
31
4.836986
12
-0.259954
22
-0.050019
32
4.826230
13
-0.273259
23
-0.036363
33
4.802221
0
3DFACE
8
coconut_palm1_coconuts
10
-0.265063
20
-0.019091
30
4.836986
11
-0.240154
21
-0.020396
31
4.860471
12
-0.234254
22
-0.056109
32
4.848051
13
-0.259954
23
-0.050019
33
4.826230
0
3DFACE
8
coconut_palm1_coconuts
10
-0.240154
20
-0.020396
30
4.860471
11
-0.208154
21
-0.022073
31
4.872595
12
-0.203045
22
-0.053002
32
4.861839
13
-0.234254
23
-0.056109
33
4.848051
0
3DFACE
8
coconut_palm1_coconuts
10
-0.208154
20
-0.022073
30
4.872595
11
-0.177639
21
-0.023673
31
4.870109
12
-0.174689
22
-0.041529
32
4.863898
13
-0.203045
23
-0.053002
33
4.861839
0
3DFACE
8
coconut_palm1_coconuts
10
-0.177639
20
-0.023673
30
4.870109
11
-0.156785
21
-0.024765
31
4.853678
12
-0.174689
22
-0.041529
32
4.863898
13
-0.174689
23
-0.041529
33
4.863898
0
3DFACE
8
coconut_palm1_coconuts
10
-0.273259
20
-0.036363
30
4.802221
11
-0.264287
21
-0.044166
31
4.787230
12
-0.270603
22
-0.018800
32
4.782458
13
-0.270603
23
-0.018800
33
4.782458
0
3DFACE
8
coconut_palm1_coconuts
10
-0.273259
20
-0.036363
30
4.802221
11
-0.259954
21
-0.050019
31
4.826230
12
-0.244415
22
-0.063534
32
4.800263
13
-0.264287
23
-0.044166
33
4.787230
0
3DFACE
8
coconut_palm1_coconuts
10
-0.259954
20
-0.050019
30
4.826230
11
-0.234254
21
-0.056109
31
4.848051
12
-0.216311
22
-0.071714
32
4.818069
13
-0.244415
23
-0.063534
33
4.800263
0
3DFACE
8
coconut_palm1_coconuts
10
-0.234254
20
-0.056109
30
4.848051
11
-0.203045
21
-0.053002
31
4.861839
12
-0.187505
22
-0.066516
32
4.835874
13
-0.216311
23
-0.071714
33
4.818069
0
3DFACE
8
coconut_palm1_coconuts
10
-0.203045
20
-0.053002
30
4.861839
11
-0.174689
21
-0.041529
31
4.863898
12
-0.165717
22
-0.049332
32
4.848907
13
-0.187505
23
-0.066516
33
4.835874
0
3DFACE
8
coconut_palm1_coconuts
10
-0.174689
20
-0.041529
30
4.863898
11
-0.156785
21
-0.024765
31
4.853678
12
-0.165717
22
-0.049332
32
4.848907
13
-0.165717
23
-0.049332
33
4.848907
0
3DFACE
8
coconut_palm1_coconuts
10
-0.000853
20
0.157243
30
4.638429
11
-0.000699
21
0.151244
31
4.620259
12
0.023701
22
0.158030
32
4.628301
13
0.023701
23
0.158030
33
4.628301
0
3DFACE
8
coconut_palm1_coconuts
10
-0.000853
20
0.157243
30
4.638429
11
-0.022629
21
0.139944
31
4.651331
12
-0.022363
22
0.129555
32
4.619863
13
-0.000699
23
0.151244
33
4.620259
0
3DFACE
8
coconut_palm1_coconuts
10
-0.022629
20
0.139944
30
4.651331
11
-0.035794
21
0.110771
31
4.663552
12
-0.035486
22
0.098773
32
4.627217
13
-0.022363
23
0.129555
33
4.619863
0
3DFACE
8
coconut_palm1_coconuts
10
-0.035794
20
0.110771
30
4.663552
11
-0.036819
21
0.077538
31
4.671818
12
-0.036553
22
0.067147
32
4.640350
13
-0.035486
23
0.098773
33
4.627217
0
3DFACE
8
coconut_palm1_coconuts
10
-0.036819
20
0.077538
30
4.671818
11
-0.025430
21
0.049151
31
4.673912
12
-0.025276
22
0.043152
32
4.655743
13
-0.036553
23
0.067147
33
4.640350
0
3DFACE
8
coconut_palm1_coconuts
10
-0.025430
20
0.049151
30
4.673912
11
-0.004679
21
0.033216
31
4.669273
12
-0.025276
22
0.043152
32
4.655743
13
-0.025276
23
0.043152
33
4.655743
0
3DFACE
8
coconut_palm1_coconuts
10
-0.000699
20
0.151244
30
4.620259
11
0.012634
21
0.144322
31
4.608410
12
0.023701
22
0.158030
32
4.628301
13
0.023701
23
0.158030
33
4.628301
0
3DFACE
8
coconut_palm1_coconuts
10
-0.000699
20
0.151244
30
4.620259
11
-0.022363
21
0.129555
31
4.619863
12
0.000730
22
0.117566
32
4.599336
13
0.012634
23
0.144322
33
4.608410
0
3DFACE
8
coconut_palm1_coconuts
10
-0.022363
20
0.129555
30
4.619863
11
-0.035486
21
0.098773
31
4.627217
12
-0.008820
22
0.084929
32
4.603511
13
0.000730
23
0.117566
33
4.599336
0
3DFACE
8
coconut_palm1_coconuts
10
-0.035486
20
0.098773
30
4.627217
11
-0.036553
21
0.067147
31
4.640350
12
-0.013459
22
0.055159
32
4.619822
13
-0.008820
23
0.084929
33
4.603511
0
3DFACE
8
coconut_palm1_coconuts
10
-0.036553
20
0.067147
30
4.640350
11
-0.025276
21
0.043152
31
4.655743
12
-0.011943
22
0.036230
32
4.643893
13
-0.013459
23
0.055159
33
4.619822
0
3DFACE
8
coconut_palm1_coconuts
10
-0.025276
20
0.043152
30
4.655743
11
-0.004679
21
0.033216
31
4.669273
12
-0.011943
22
0.036230
32
4.643893
13
-0.011943
23
0.036230
33
4.643893
0
3DFACE
8
coconut_palm1_coconuts
10
0.012634
20
0.144322
30
4.608410
11
0.031336
21
0.140533
31
4.609818
12
0.023701
22
0.158030
32
4.628301
13
0.023701
23
0.158030
33
4.628301
0
3DFACE
8
coconut_palm1_coconuts
10
0.012634
20
0.144322
30
4.608410
11
0.000730
21
0.117566
31
4.599336
12
0.033123
22
0.111002
32
4.601775
13
0.031336
23
0.140533
33
4.609818
0
3DFACE
8
coconut_palm1_coconuts
10
0.000730
20
0.117566
30
4.599336
11
-0.008820
21
0.084929
31
4.603511
12
0.028584
22
0.077350
32
4.606334
13
0.033123
23
0.111002
33
4.601775
0
3DFACE
8
coconut_palm1_coconuts
10
-0.008820
20
0.084929
30
4.603511
11
-0.013459
21
0.055159
31
4.619822
12
0.018934
22
0.048594
32
4.622262
13
0.028584
23
0.077350
33
4.606334
0
3DFACE
8
coconut_palm1_coconuts
10
-0.013459
20
0.055159
30
4.619822
11
-0.011943
21
0.036230
31
4.643893
12
0.006759
22
0.032440
32
4.645299
13
0.018934
23
0.048594
33
4.622262
0
3DFACE
8
coconut_palm1_coconuts
10
-0.011943
20
0.036230
30
4.643893
11
-0.004679
21
0.033216
31
4.669273
12
0.006759
22
0.032440
32
4.645299
13
0.006759
23
0.032440
33
4.645299
0
3DFACE
8
coconut_palm1_coconuts
10
0.031336
20
0.140533
30
4.609818
11
0.044452
21
0.142095
31
4.623664
12
0.023701
22
0.158030
32
4.628301
13
0.023701
23
0.158030
33
4.628301
0
3DFACE
8
coconut_palm1_coconuts
10
0.031336
20
0.140533
30
4.609818
11
0.033123
21
0.111002
31
4.601775
12
0.055841
22
0.113707
32
4.625757
13
0.044452
23
0.142095
33
4.623664
0
3DFACE
8
coconut_palm1_coconuts
10
0.033123
20
0.111002
30
4.601775
11
0.028584
21
0.077350
31
4.606334
12
0.054815
22
0.080475
32
4.634020
13
0.055841
23
0.113707
33
4.625757
0
3DFACE
8
coconut_palm1_coconuts
10
0.028584
20
0.077350
30
4.606334
11
0.018934
21
0.048594
31
4.622262
12
0.041651
22
0.051301
32
4.646243
13
0.054815
23
0.080475
33
4.634020
0
3DFACE
8
coconut_palm1_coconuts
10
0.018934
20
0.048594
30
4.622262
11
0.006759
21
0.032440
31
4.645299
12
0.019874
22
0.034003
32
4.659143
13
0.041651
23
0.051301
33
4.646243
0
3DFACE
8
coconut_palm1_coconuts
10
0.006759
20
0.032440
30
4.645299
11
-0.004679
21
0.033216
31
4.669273
12
0.019874
22
0.034003
32
4.659143
13
0.019874
23
0.034003
33
4.659143
0
3DFACE
8
coconut_palm1_coconuts
10
0.044452
20
0.142095
30
4.623664
11
0.044298
21
0.148093
31
4.641833
12
0.023701
22
0.158030
32
4.628301
13
0.023701
23
0.158030
33
4.628301
0
3DFACE
8
coconut_palm1_coconuts
10
0.044452
20
0.142095
30
4.623664
11
0.055841
21
0.113707
31
4.625757
12
0.055575
22
0.124098
32
4.657226
13
0.044298
23
0.148093
33
4.641833
0
3DFACE
8
coconut_palm1_coconuts
10
0.055841
20
0.113707
30
4.625757
11
0.054815
21
0.080475
31
4.634020
12
0.054508
22
0.092473
32
4.670360
13
0.055575
23
0.124098
33
4.657226
0
3DFACE
8
coconut_palm1_coconuts
10
0.054815
20
0.080475
30
4.634020
11
0.041651
21
0.051301
31
4.646243
12
0.041385
22
0.061691
32
4.677711
13
0.054508
23
0.092473
33
4.670360
0
3DFACE
8
coconut_palm1_coconuts
10
0.041651
20
0.051301
30
4.646243
11
0.019874
21
0.034003
31
4.659143
12
0.019721
22
0.040002
32
4.677314
13
0.041385
23
0.061691
33
4.677711
0
3DFACE
8
coconut_palm1_coconuts
10
0.019874
20
0.034003
30
4.659143
11
-0.004679
21
0.033216
31
4.669273
12
0.019721
22
0.040002
32
4.677314
13
0.019721
23
0.040002
33
4.677314
0
3DFACE
8
coconut_palm1_coconuts
10
0.044298
20
0.148093
30
4.641833
11
0.030965
21
0.155016
31
4.653682
12
0.023701
22
0.158030
32
4.628301
13
0.023701
23
0.158030
33
4.628301
0
3DFACE
8
coconut_palm1_coconuts
10
0.044298
20
0.148093
30
4.641833
11
0.055575
21
0.124098
31
4.657226
12
0.032481
22
0.136086
32
4.677751
13
0.030965
23
0.155016
33
4.653682
0
3DFACE
8
coconut_palm1_coconuts
10
0.055575
20
0.124098
30
4.657226
11
0.054508
21
0.092473
31
4.670360
12
0.027842
22
0.106316
32
4.694062
13
0.032481
23
0.136086
33
4.677751
0
3DFACE
8
coconut_palm1_coconuts
10
0.054508
20
0.092473
30
4.670360
11
0.041385
21
0.061691
31
4.677711
12
0.018291
22
0.073680
32
4.698239
13
0.027842
23
0.106316
33
4.694062
0
3DFACE
8
coconut_palm1_coconuts
10
0.041385
20
0.061691
30
4.677711
11
0.019721
21
0.040002
31
4.677314
12
0.006388
22
0.046923
32
4.689165
13
0.018291
23
0.073680
33
4.698239
0
3DFACE
8
coconut_palm1_coconuts
10
0.019721
20
0.040002
30
4.677314
11
-0.004679
21
0.033216
31
4.669273
12
0.006388
22
0.046923
32
4.689165
13
0.006388
23
0.046923
33
4.689165
0
3DFACE
8
coconut_palm1_coconuts
10
0.030965
20
0.155016
30
4.653682
11
0.012263
21
0.158806
31
4.652275
12
0.023701
22
0.158030
32
4.628301
13
0.023701
23
0.158030
33
4.628301
0
3DFACE
8
coconut_palm1_coconuts
10
0.030965
20
0.155016
30
4.653682
11
0.032481
21
0.136086
31
4.677751
12
0.000088
22
0.142651
32
4.675313
13
0.012263
23
0.158806
33
4.652275
0
3DFACE
8
coconut_palm1_coconuts
10
0.032481
20
0.136086
30
4.677751
11
0.027842
21
0.106316
31
4.694062
12
-0.009562
22
0.113895
32
4.691242
13
0.000088
23
0.142651
33
4.675313
0
3DFACE
8
coconut_palm1_coconuts
10
0.027842
20
0.106316
30
4.694062
11
0.018291
21
0.073680
31
4.698239
12
-0.014102
22
0.080244
32
4.695798
13
-0.009562
23
0.113895
33
4.691242
0
3DFACE
8
coconut_palm1_coconuts
10
0.018291
20
0.073680
30
4.698239
11
0.006388
21
0.046923
31
4.689165
12
-0.012314
22
0.050713
32
4.687754
13
-0.014102
23
0.080244
33
4.695798
0
3DFACE
8
coconut_palm1_coconuts
10
0.006388
20
0.046923
30
4.689165
11
-0.004679
21
0.033216
31
4.669273
12
-0.012314
22
0.050713
32
4.687754
13
-0.012314
23
0.050713
33
4.687754
0
3DFACE
8
coconut_palm1_coconuts
10
0.012263
20
0.158806
30
4.652275
11
-0.000853
21
0.157243
31
4.638429
12
0.023701
22
0.158030
32
4.628301
13
0.023701
23
0.158030
33
4.628301
0
3DFACE
8
coconut_palm1_coconuts
10
0.012263
20
0.158806
30
4.652275
11
0.000088
21
0.142651
31
4.675313
12
-0.022629
22
0.139944
32
4.651331
13
-0.000853
23
0.157243
33
4.638429
0
3DFACE
8
coconut_palm1_coconuts
10
0.000088
20
0.142651
30
4.675313
11
-0.009562
21
0.113895
31
4.691242
12
-0.035794
22
0.110771
32
4.663552
13
-0.022629
23
0.139944
33
4.651331
0
3DFACE
8
coconut_palm1_coconuts
10
-0.009562
20
0.113895
30
4.691242
11
-0.014102
21
0.080244
31
4.695798
12
-0.036819
22
0.077538
32
4.671818
13
-0.035794
23
0.110771
33
4.663552
0
3DFACE
8
coconut_palm1_coconuts
10
-0.014102
20
0.080244
30
4.695798
11
-0.012314
21
0.050713
31
4.687754
12
-0.025430
22
0.049151
32
4.673912
13
-0.036819
23
0.077538
33
4.671818
0
3DFACE
8
coconut_palm1_coconuts
10
-0.012314
20
0.050713
30
4.687754
11
-0.004679
21
0.033216
31
4.669273
12
-0.025430
22
0.049151
32
4.673912
13
-0.025430
23
0.049151
33
4.673912
0
3DFACE
8
coconut_palm1_coconuts
10
-0.005539
20
-0.020395
30
4.718712
11
0.013218
21
-0.036198
31
4.728932
12
0.004667
22
-0.044460
32
4.713941
13
0.004667
23
-0.044460
33
4.713941
0
3DFACE
8
coconut_palm1_coconuts
10
0.013218
20
-0.036198
30
4.728932
11
0.042135
21
-0.046171
31
4.726872
12
0.027324
22
-0.060480
32
4.700907
13
0.004667
23
-0.044460
33
4.713941
0
3DFACE
8
coconut_palm1_coconuts
10
0.042135
20
-0.046171
30
4.726872
11
0.073464
21
-0.047641
31
4.713085
12
0.056362
22
-0.064164
32
4.683102
13
0.027324
23
-0.060480
33
4.700907
0
3DFACE
8
coconut_palm1_coconuts
10
0.073464
20
-0.047641
30
4.713085
11
0.098810
21
-0.040214
31
4.691262
12
0.084000
22
-0.054524
32
4.665297
13
0.056362
23
-0.064164
33
4.683102
0
3DFACE
8
coconut_palm1_coconuts
10
0.098810
20
-0.040214
30
4.691262
11
0.111382
21
-0.025881
31
4.667254
12
0.102831
22
-0.034142
32
4.652263
13
0.084000
23
-0.054524
33
4.665297
0
3DFACE
8
coconut_palm1_coconuts
10
0.111382
20
-0.025881
30
4.667254
11
0.107811
21
-0.008481
31
4.647492
12
0.102831
22
-0.034142
32
4.652263
13
0.102831
23
-0.034142
33
4.652263
0
3DFACE
8
coconut_palm1_coconuts
10
-0.005539
20
-0.020395
30
4.718712
11
0.015229
21
-0.018212
31
4.735142
12
0.013218
22
-0.036198
32
4.728932
13
0.013218
23
-0.036198
33
4.728932
0
3DFACE
8
coconut_palm1_coconuts
10
0.015229
20
-0.018212
30
4.735142
11
0.045619
21
-0.015018
31
4.737628
12
0.042135
22
-0.046171
32
4.726872
13
0.013218
23
-0.036198
33
4.728932
0
3DFACE
8
coconut_palm1_coconuts
10
0.045619
20
-0.015018
30
4.737628
11
0.077487
21
-0.011668
31
4.725504
12
0.073464
22
-0.047641
32
4.713085
13
0.042135
23
-0.046171
33
4.726872
0
3DFACE
8
coconut_palm1_coconuts
10
0.077487
20
-0.011668
30
4.725504
11
0.102294
21
-0.009061
31
4.702019
12
0.098810
22
-0.040214
32
4.691262
13
0.073464
23
-0.047641
33
4.713085
0
3DFACE
8
coconut_palm1_coconuts
10
0.102294
20
-0.009061
30
4.702019
11
0.113393
21
-0.007894
31
4.673464
12
0.111382
22
-0.025881
32
4.667254
13
0.098810
23
-0.040214
33
4.691262
0
3DFACE
8
coconut_palm1_coconuts
10
0.113393
20
-0.007894
30
4.673464
11
0.107811
21
-0.008481
31
4.647492
12
0.111382
22
-0.025881
32
4.667254
13
0.111382
23
-0.025881
33
4.667254
0
3DFACE
8
coconut_palm1_coconuts
10
-0.005539
20
-0.020395
30
4.718712
11
0.009522
21
-0.001037
31
4.728932
12
0.015229
22
-0.018212
32
4.735142
13
0.015229
23
-0.018212
33
4.735142
0
3DFACE
8
coconut_palm1_coconuts
10
0.009522
20
-0.001037
30
4.728932
11
0.035734
21
0.014731
31
4.726872
12
0.045619
22
-0.015018
32
4.737628
13
0.015229
23
-0.018212
33
4.735142
0
3DFACE
8
coconut_palm1_coconuts
10
0.035734
20
0.014731
30
4.726872
11
0.066073
21
0.022682
31
4.713085
12
0.077487
22
-0.011668
32
4.725504
13
0.045619
23
-0.015018
33
4.737628
0
3DFACE
8
coconut_palm1_coconuts
10
0.066073
20
0.022682
30
4.713085
11
0.092409
21
0.020688
31
4.691262
12
0.102294
22
-0.009061
32
4.702019
13
0.077487
23
-0.011668
33
4.725504
0
3DFACE
8
coconut_palm1_coconuts
10
0.092409
20
0.020688
30
4.691262
11
0.107687
21
0.009281
31
4.667254
12
0.113393
22
-0.007894
32
4.673464
13
0.102294
23
-0.009061
33
4.702019
0
3DFACE
8
coconut_palm1_coconuts
10
0.107687
20
0.009281
30
4.667254
11
0.107811
21
-0.008481
31
4.647492
12
0.113393
22
-0.007894
32
4.673464
13
0.113393
23
-0.007894
33
4.673464
0
3DFACE
8
coconut_palm1_coconuts
10
-0.005539
20
-0.020395
30
4.718712
11
-0.000560
21
0.005266
31
4.713941
12
0.009522
22
-0.001037
32
4.728932
13
0.009522
23
-0.001037
33
4.728932
0
3DFACE
8
coconut_palm1_coconuts
10
-0.000560
20
0.005266
30
4.713941
11
0.018272
21
0.025648
31
4.700907
12
0.035734
22
0.014731
32
4.726872
13
0.009522
23
-0.001037
33
4.728932
0
3DFACE
8
coconut_palm1_coconuts
10
0.018272
20
0.025648
30
4.700907
11
0.045909
21
0.035288
31
4.683102
12
0.066073
22
0.022682
32
4.713085
13
0.035734
23
0.014731
33
4.726872
0
3DFACE
8
coconut_palm1_coconuts
10
0.045909
20
0.035288
30
4.683102
11
0.074947
21
0.031605
31
4.665297
12
0.092409
22
0.020688
32
4.691262
13
0.066073
23
0.022682
33
4.713085
0
3DFACE
8
coconut_palm1_coconuts
10
0.074947
20
0.031605
30
4.665297
11
0.097605
21
0.015584
31
4.652263
12
0.107687
22
0.009281
32
4.667254
13
0.092409
23
0.020688
33
4.691262
0
3DFACE
8
coconut_palm1_coconuts
10
0.097605
20
0.015584
30
4.652263
11
0.107811
21
-0.008481
31
4.647492
12
0.107687
22
0.009281
32
4.667254
13
0.107687
23
0.009281
33
4.667254
0
3DFACE
8
coconut_palm1_coconuts
10
-0.005539
20
-0.020395
30
4.718712
11
-0.009111
21
-0.002995
31
4.698949
12
-0.000560
22
0.005266
32
4.713941
13
-0.000560
23
0.005266
33
4.713941
0
3DFACE
8
coconut_palm1_coconuts
10
-0.009111
20
-0.002995
30
4.698949
11
0.003461
21
0.011339
31
4.674940
12
0.018272
22
0.025648
32
4.700907
13
-0.000560
23
0.005266
33
4.713941
0
3DFACE
8
coconut_palm1_coconuts
10
0.003461
20
0.011339
30
4.674940
11
0.028807
21
0.018766
31
4.653119
12
0.045909
22
0.035288
32
4.683102
13
0.018272
23
0.025648
33
4.700907
0
3DFACE
8
coconut_palm1_coconuts
10
0.028807
20
0.018766
30
4.653119
11
0.060136
21
0.017296
31
4.639331
12
0.074947
22
0.031605
32
4.665297
13
0.045909
23
0.035288
33
4.683102
0
3DFACE
8
coconut_palm1_coconuts
10
0.060136
20
0.017296
30
4.639331
11
0.089054
21
0.007323
31
4.637272
12
0.097605
22
0.015584
32
4.652263
13
0.074947
23
0.031605
33
4.665297
0
3DFACE
8
coconut_palm1_coconuts
10
0.089054
20
0.007323
30
4.637272
11
0.107811
21
-0.008481
31
4.647492
12
0.097605
22
0.015584
32
4.652263
13
0.097605
23
0.015584
33
4.652263
0
3DFACE
8
coconut_palm1_coconuts
10
-0.005539
20
-0.020395
30
4.718712
11
-0.011122
21
-0.020981
31
4.692739
12
-0.009111
22
-0.002995
32
4.698949
13
-0.009111
23
-0.002995
33
4.698949
0
3DFACE
8
coconut_palm1_coconuts
10
-0.011122
20
-0.020981
30
4.692739
11
-0.000022
21
-0.019815
31
4.664185
12
0.003461
22
0.011339
32
4.674940
13
-0.009111
23
-0.002995
33
4.698949
0
3DFACE
8
coconut_palm1_coconuts
10
-0.000022
20
-0.019815
30
4.664185
11
0.024785
21
-0.017207
31
4.640699
12
0.028807
22
0.018766
32
4.653119
13
0.003461
23
0.011339
33
4.674940
0
3DFACE
8
coconut_palm1_coconuts
10
0.024785
20
-0.017207
30
4.640699
11
0.056653
21
-0.013858
31
4.628575
12
0.060136
22
0.017296
32
4.639331
13
0.028807
23
0.018766
33
4.653119
0
3DFACE
8
coconut_palm1_coconuts
10
0.056653
20
-0.013858
30
4.628575
11
0.087042
21
-0.010664
31
4.631062
12
0.089054
22
0.007323
32
4.637272
13
0.060136
23
0.017296
33
4.639331
0
3DFACE
8
coconut_palm1_coconuts
10
0.087042
20
-0.010664
30
4.631062
11
0.107811
21
-0.008481
31
4.647492
12
0.089054
22
0.007323
32
4.637272
13
0.089054
23
0.007323
33
4.637272
0
3DFACE
8
coconut_palm1_coconuts
10
-0.005539
20
-0.020395
30
4.718712
11
-0.005415
21
-0.038157
31
4.698949
12
-0.011122
22
-0.020981
32
4.692739
13
-0.011122
23
-0.020981
33
4.692739
0
3DFACE
8
coconut_palm1_coconuts
10
-0.005415
20
-0.038157
30
4.698949
11
0.009862
21
-0.049563
31
4.674940
12
-0.000022
22
-0.019815
32
4.664185
13
-0.011122
23
-0.020981
33
4.692739
0
3DFACE
8
coconut_palm1_coconuts
10
0.009862
20
-0.049563
30
4.674940
11
0.036198
21
-0.051558
31
4.653119
12
0.024785
22
-0.017207
32
4.640699
13
-0.000022
23
-0.019815
33
4.664185
0
3DFACE
8
coconut_palm1_coconuts
10
0.036198
20
-0.051558
30
4.653119
11
0.066537
21
-0.043606
31
4.639331
12
0.056653
22
-0.013858
32
4.628575
13
0.024785
23
-0.017207
33
4.640699
0
3DFACE
8
coconut_palm1_coconuts
10
0.066537
20
-0.043606
30
4.639331
11
0.092749
21
-0.027839
31
4.637272
12
0.087042
22
-0.010664
32
4.631062
13
0.056653
23
-0.013858
33
4.628575
0
3DFACE
8
coconut_palm1_coconuts
10
0.092749
20
-0.027839
30
4.637272
11
0.107811
21
-0.008481
31
4.647492
12
0.087042
22
-0.010664
32
4.631062
13
0.087042
23
-0.010664
33
4.631062
0
3DFACE
8
coconut_palm1_coconuts
10
-0.005539
20
-0.020395
30
4.718712
11
0.004667
21
-0.044460
31
4.713941
12
-0.005415
22
-0.038157
32
4.698949
13
-0.005415
23
-0.038157
33
4.698949
0
3DFACE
8
coconut_palm1_coconuts
10
0.004667
20
-0.044460
30
4.713941
11
0.027324
21
-0.060480
31
4.700907
12
0.009862
22
-0.049563
32
4.674940
13
-0.005415
23
-0.038157
33
4.698949
0
3DFACE
8
coconut_palm1_coconuts
10
0.027324
20
-0.060480
30
4.700907
11
0.056362
21
-0.064164
31
4.683102
12
0.036198
22
-0.051558
32
4.653119
13
0.009862
23
-0.049563
33
4.674940
0
3DFACE
8
coconut_palm1_coconuts
10
0.056362
20
-0.064164
30
4.683102
11
0.084000
21
-0.054524
31
4.665297
12
0.066537
22
-0.043606
32
4.639331
13
0.036198
23
-0.051558
33
4.653119
0
3DFACE
8
coconut_palm1_coconuts
10
0.084000
20
-0.054524
30
4.665297
11
0.102831
21
-0.034142
31
4.652263
12
0.092749
22
-0.027839
32
4.637272
13
0.066537
23
-0.043606
33
4.639331
0
3DFACE
8
coconut_palm1_coconuts
10
0.102831
20
-0.034142
30
4.652263
11
0.107811
21
-0.008481
31
4.647492
12
0.092749
22
-0.027839
32
4.637272
13
0.092749
23
-0.027839
33
4.637272
0
ENDSEC
0
EOF
