999
DXF file generated by Cheetah3D
0
SECTION
2
ENTITIES
0
3DFACE
8
coconut_palm8_trunk
10
0.036867
20
0.137590
30
0.000000
11
0.138152
21
0.111873
31
0.000000
12
0.096363
22
0.080157
32
0.495144
13
0.025665
23
0.095550
33
0.495318
0
3DFACE
8
coconut_palm8_trunk
10
0.138152
20
0.111873
30
0.000000
11
0.143372
21
0.007514
31
0.000000
12
0.098677
22
0.007983
32
0.498481
13
0.096363
23
0.080157
33
0.495144
0
3DFACE
8
coconut_palm8_trunk
10
0.143372
20
0.007514
30
0.000000
11
0.130483
21
-0.084737
31
0.000000
12
0.082349
22
-0.050006
32
0.501391
13
0.098677
23
0.007983
33
0.498481
0
3DFACE
8
coconut_palm8_trunk
10
0.130483
20
-0.084737
30
0.000000
11
0.057678
21
-0.150257
31
0.000000
12
0.041001
22
-0.101572
32
0.504317
13
0.082349
23
-0.050006
33
0.501391
0
3DFACE
8
coconut_palm8_trunk
10
0.057678
20
-0.150257
30
0.000000
11
-0.043728
21
-0.163197
31
0.000000
12
-0.030237
22
-0.113078
32
0.505753
13
0.041001
23
-0.101572
33
0.504317
0
3DFACE
8
coconut_palm8_trunk
10
-0.043728
20
-0.163197
30
0.000000
11
-0.125685
21
-0.101778
31
0.000000
12
-0.076846
22
-0.059946
32
0.503864
13
-0.030237
23
-0.113078
33
0.505753
0
3DFACE
8
coconut_palm8_trunk
10
-0.125685
20
-0.101778
30
0.000000
11
-0.151852
21
-0.007958
31
0.000000
12
-0.106486
22
-0.002698
32
0.501568
13
-0.076846
23
-0.059946
33
0.503864
0
3DFACE
8
coconut_palm8_trunk
10
-0.151852
20
-0.007958
30
0.000000
11
-0.125473
21
0.081483
31
0.000000
12
-0.082263
22
0.056815
32
0.498487
13
-0.106486
23
-0.002698
33
0.501568
0
3DFACE
8
coconut_palm8_trunk
10
-0.125473
20
0.081483
30
0.000000
11
-0.062117
21
0.161820
31
0.000000
12
-0.041658
22
0.113410
32
0.495334
13
-0.082263
23
0.056815
33
0.498487
0
3DFACE
8
coconut_palm8_trunk
10
-0.062117
20
0.161820
30
0.000000
11
0.036867
21
0.137590
31
0.000000
12
0.025665
22
0.095550
32
0.495318
13
-0.041658
23
0.113410
33
0.495334
0
3DFACE
8
coconut_palm8_trunk
10
0.025665
20
0.095550
30
0.495318
11
0.096363
21
0.080157
31
0.495144
12
0.105119
22
0.142342
32
0.972311
13
0.044633
23
0.179576
33
0.967131
0
3DFACE
8
coconut_palm8_trunk
10
0.096363
20
0.080157
30
0.495144
11
0.098677
21
0.007983
31
0.498481
12
0.134953
22
0.077323
32
0.985902
13
0.105119
23
0.142342
33
0.972311
0
3DFACE
8
coconut_palm8_trunk
10
0.098677
20
0.007983
30
0.498481
11
0.082349
21
-0.050006
31
0.501391
12
0.101057
22
0.017731
32
1.002020
13
0.134953
23
0.077323
33
0.985902
0
3DFACE
8
coconut_palm8_trunk
10
0.082349
20
-0.050006
30
0.501391
11
0.041001
21
-0.101572
31
0.504317
12
0.053579
22
-0.022412
32
1.014343
13
0.101057
23
0.017731
33
1.002020
0
3DFACE
8
coconut_palm8_trunk
10
0.041001
20
-0.101572
30
0.504317
11
-0.030237
21
-0.113078
31
0.505753
12
-0.007885
22
-0.016423
32
1.016591
13
0.053579
23
-0.022412
33
1.014343
0
3DFACE
8
coconut_palm8_trunk
10
-0.030237
20
-0.113078
30
0.505753
11
-0.076846
21
-0.059946
31
0.503864
12
-0.057338
22
0.014378
32
1.012262
13
-0.007885
23
-0.016423
33
1.016591
0
3DFACE
8
coconut_palm8_trunk
10
-0.076846
20
-0.059946
30
0.503864
11
-0.106486
21
-0.002698
31
0.501568
12
-0.087794
22
0.067359
32
1.001564
13
-0.057338
23
0.014378
33
1.012262
0
3DFACE
8
coconut_palm8_trunk
10
-0.106486
20
-0.002698
30
0.501568
11
-0.082263
21
0.056815
31
0.498487
12
-0.062236
22
0.121673
32
0.987209
13
-0.087794
23
0.067359
33
1.001564
0
3DFACE
8
coconut_palm8_trunk
10
-0.082263
20
0.056815
30
0.498487
11
-0.041658
21
0.113410
31
0.495334
12
-0.024149
22
0.171864
32
0.973073
13
-0.062236
23
0.121673
33
0.987209
0
3DFACE
8
coconut_palm8_trunk
10
-0.041658
20
0.113410
30
0.495334
11
0.025665
21
0.095550
31
0.495318
12
0.044633
22
0.179576
32
0.967131
13
-0.024149
23
0.171864
33
0.973073
0
3DFACE
8
coconut_palm8_trunk
10
0.044633
20
0.179576
30
0.967131
11
0.105119
21
0.142342
31
0.972311
12
0.124616
22
0.282874
32
1.439368
13
0.074454
23
0.317678
33
1.430689
0
3DFACE
8
coconut_palm8_trunk
10
0.105119
20
0.142342
30
0.972311
11
0.134953
21
0.077323
31
0.985902
12
0.155052
22
0.230194
32
1.456887
13
0.124616
23
0.282874
33
1.439368
0
3DFACE
8
coconut_palm8_trunk
10
0.134953
20
0.077323
30
0.985902
11
0.101057
21
0.017731
31
1.002020
12
0.134046
22
0.174898
32
1.480379
13
0.155052
23
0.230194
33
1.456887
0
3DFACE
8
coconut_palm8_trunk
10
0.101057
20
0.017731
30
1.002020
11
0.053579
21
-0.022412
31
1.014343
12
0.089777
22
0.133566
32
1.500691
13
0.134046
23
0.174898
33
1.480379
0
3DFACE
8
coconut_palm8_trunk
10
0.053579
20
-0.022412
30
1.014343
11
-0.007885
21
-0.016423
31
1.016591
12
0.024368
22
0.130756
32
1.508086
13
0.089777
23
0.133566
33
1.500691
0
3DFACE
8
coconut_palm8_trunk
10
-0.007885
20
-0.016423
30
1.016591
11
-0.057338
21
0.014378
31
1.012262
12
-0.032245
22
0.164614
32
1.500396
13
0.024368
23
0.130756
33
1.508086
0
3DFACE
8
coconut_palm8_trunk
10
-0.057338
20
0.014378
30
1.012262
11
-0.087794
21
0.067359
31
1.001564
12
-0.041251
22
0.223606
32
1.478362
13
-0.032245
23
0.164614
33
1.500396
0
3DFACE
8
coconut_palm8_trunk
10
-0.087794
20
0.067359
30
1.001564
11
-0.062236
21
0.121673
31
0.987209
12
-0.038689
22
0.281390
32
1.455681
13
-0.041251
23
0.223606
33
1.478362
0
3DFACE
8
coconut_palm8_trunk
10
-0.062236
20
0.121673
30
0.987209
11
-0.024149
21
0.171864
31
0.973073
12
0.012604
22
0.314512
32
1.437879
13
-0.038689
23
0.281390
33
1.455681
0
3DFACE
8
coconut_palm8_trunk
10
-0.024149
20
0.171864
30
0.973073
11
0.044633
21
0.179576
31
0.967131
12
0.074454
22
0.317678
32
1.430689
13
0.012604
23
0.314512
33
1.437879
0
3DFACE
8
coconut_palm8_trunk
10
0.074454
20
0.317678
30
1.430689
11
0.124616
21
0.282874
31
1.439368
12
0.168949
22
0.452290
32
1.908261
13
0.114130
23
0.471451
33
1.906197
0
3DFACE
8
coconut_palm8_trunk
10
0.124616
20
0.282874
30
1.439368
11
0.155052
21
0.230194
31
1.456887
12
0.180757
22
0.398444
32
1.927657
13
0.168949
23
0.452290
33
1.908261
0
3DFACE
8
coconut_palm8_trunk
10
0.155052
20
0.230194
30
1.456887
11
0.134046
21
0.174898
31
1.480379
12
0.183244
22
0.340216
32
1.949614
13
0.180757
23
0.398444
33
1.927657
0
3DFACE
8
coconut_palm8_trunk
10
0.134046
20
0.174898
30
1.480379
11
0.089777
21
0.133566
31
1.500691
12
0.132382
22
0.304656
32
1.968030
13
0.183244
23
0.340216
33
1.949614
0
3DFACE
8
coconut_palm8_trunk
10
0.089777
20
0.133566
30
1.500691
11
0.024368
21
0.130756
31
1.508086
12
0.073378
22
0.319361
32
1.968065
13
0.132382
23
0.304656
33
1.968030
0
3DFACE
8
coconut_palm8_trunk
10
0.024368
20
0.130756
30
1.508086
11
-0.032245
21
0.164614
31
1.500396
12
0.022380
22
0.341558
32
1.964479
13
0.073378
23
0.319361
33
1.968065
0
3DFACE
8
coconut_palm8_trunk
10
-0.032245
20
0.164614
30
1.500396
11
-0.041251
21
0.223606
31
1.478362
12
0.008608
22
0.392616
32
1.946333
13
0.022380
23
0.341558
33
1.964479
0
3DFACE
8
coconut_palm8_trunk
10
-0.041251
20
0.223606
30
1.478362
11
-0.038689
21
0.281390
31
1.455681
12
0.015395
22
0.443935
32
1.926123
13
0.008608
23
0.392616
33
1.946333
0
3DFACE
8
coconut_palm8_trunk
10
-0.038689
20
0.281390
30
1.455681
11
0.012604
21
0.314512
31
1.437879
12
0.062421
22
0.469293
32
1.911962
13
0.015395
23
0.443935
33
1.926123
0
3DFACE
8
coconut_palm8_trunk
10
0.012604
20
0.314512
30
1.437879
11
0.074454
21
0.317678
31
1.430689
12
0.114130
22
0.471451
32
1.906197
13
0.062421
23
0.469293
33
1.911962
0
3DFACE
8
coconut_palm8_trunk
10
0.114130
20
0.471451
30
1.906197
11
0.168949
21
0.452290
31
1.908261
12
0.205646
22
0.555032
32
2.419168
13
0.160204
23
0.579243
33
2.417874
0
3DFACE
8
coconut_palm8_trunk
10
0.168949
20
0.452290
30
1.908261
11
0.180757
21
0.398444
31
1.927657
12
0.240760
22
0.506887
32
2.423555
13
0.205646
23
0.555032
33
2.419168
0
3DFACE
8
coconut_palm8_trunk
10
0.180757
20
0.398444
30
1.927657
11
0.183244
21
0.340216
31
1.949614
12
0.225628
22
0.446071
32
2.430991
13
0.240760
23
0.506887
33
2.423555
0
3DFACE
8
coconut_palm8_trunk
10
0.183244
20
0.340216
30
1.949614
11
0.132382
21
0.304656
31
1.968030
12
0.172042
22
0.417725
32
2.435927
13
0.225628
23
0.446071
33
2.430991
0
3DFACE
8
coconut_palm8_trunk
10
0.132382
20
0.304656
30
1.968030
11
0.073378
21
0.319361
31
1.968065
12
0.113390
22
0.404533
32
2.439288
13
0.172042
23
0.417725
33
2.435927
0
3DFACE
8
coconut_palm8_trunk
10
0.073378
20
0.319361
30
1.968065
11
0.022380
21
0.341558
31
1.964479
12
0.063237
22
0.440511
32
2.436854
13
0.113390
23
0.404533
33
2.439288
0
3DFACE
8
coconut_palm8_trunk
10
0.022380
20
0.341558
30
1.964479
11
0.008608
21
0.392616
31
1.946333
12
0.038689
22
0.496754
32
2.431296
13
0.063237
23
0.440511
33
2.436854
0
3DFACE
8
coconut_palm8_trunk
10
0.008608
20
0.392616
30
1.946333
11
0.015395
21
0.443935
31
1.926123
12
0.061589
22
0.552171
32
2.424237
13
0.038689
23
0.496754
33
2.431296
0
3DFACE
8
coconut_palm8_trunk
10
0.015395
20
0.443935
30
1.926123
11
0.062421
21
0.469293
31
1.911962
12
0.109984
22
0.577838
32
2.419697
13
0.061589
23
0.552171
33
2.424237
0
3DFACE
8
coconut_palm8_trunk
10
0.062421
20
0.469293
30
1.911962
11
0.114130
21
0.471451
31
1.906197
12
0.160204
22
0.579243
32
2.417874
13
0.109984
23
0.577838
33
2.419697
0
3DFACE
8
coconut_palm8_trunk
10
0.160204
20
0.579243
30
2.417874
11
0.205646
21
0.555032
31
2.419168
12
0.203866
22
0.566612
32
2.940032
13
0.160378
23
0.590297
33
2.940717
0
3DFACE
8
coconut_palm8_trunk
10
0.205646
20
0.555032
30
2.419168
11
0.240760
21
0.506887
31
2.423555
12
0.218786
22
0.519254
32
2.937674
13
0.203866
23
0.566612
33
2.940032
0
3DFACE
8
coconut_palm8_trunk
10
0.240760
20
0.506887
30
2.423555
11
0.225628
21
0.446071
31
2.430991
12
0.214972
22
0.466697
32
2.934771
13
0.218786
23
0.519254
33
2.937674
0
3DFACE
8
coconut_palm8_trunk
10
0.225628
20
0.446071
30
2.430991
11
0.172042
21
0.417725
31
2.435927
12
0.168169
22
0.442598
32
2.932813
13
0.214972
23
0.466697
33
2.934771
0
3DFACE
8
coconut_palm8_trunk
10
0.172042
20
0.417725
30
2.435927
11
0.113390
21
0.404533
31
2.439288
12
0.120511
22
0.441510
32
2.932093
13
0.168169
23
0.442598
33
2.932813
0
3DFACE
8
coconut_palm8_trunk
10
0.113390
20
0.404533
30
2.439288
11
0.063237
21
0.440511
31
2.436854
12
0.080906
22
0.467188
32
2.932945
13
0.120511
23
0.441510
33
2.932093
0
3DFACE
8
coconut_palm8_trunk
10
0.063237
20
0.440511
30
2.436854
11
0.038689
21
0.496754
31
2.431296
12
0.051283
22
0.510546
32
2.934894
13
0.080906
23
0.467188
33
2.932945
0
3DFACE
8
coconut_palm8_trunk
10
0.038689
20
0.496754
30
2.431296
11
0.061589
21
0.552171
31
2.424237
12
0.076295
22
0.556658
32
2.937739
13
0.051283
23
0.510546
33
2.934894
0
3DFACE
8
coconut_palm8_trunk
10
0.061589
20
0.552171
30
2.424237
11
0.109984
21
0.577838
31
2.419697
12
0.109288
22
0.595645
32
2.940303
13
0.076295
23
0.556658
33
2.937739
0
3DFACE
8
coconut_palm8_trunk
10
0.109984
20
0.577838
30
2.419697
11
0.160204
21
0.579243
31
2.417874
12
0.160378
22
0.590297
32
2.940717
13
0.109288
23
0.595645
33
2.940303
0
3DFACE
8
coconut_palm8_trunk
10
0.160378
20
0.590297
30
2.940717
11
0.203866
21
0.566612
31
2.940032
12
0.170547
22
0.588947
32
3.427805
13
0.131712
23
0.617671
33
3.423780
0
3DFACE
8
coconut_palm8_trunk
10
0.203866
20
0.566612
30
2.940032
11
0.218786
21
0.519254
31
2.937674
12
0.200936
22
0.546253
32
3.434969
13
0.170547
23
0.588947
33
3.427805
0
3DFACE
8
coconut_palm8_trunk
10
0.218786
20
0.519254
30
2.937674
11
0.214972
21
0.466697
31
2.934771
12
0.175375
22
0.501072
32
3.444978
13
0.200936
23
0.546253
33
3.434969
0
3DFACE
8
coconut_palm8_trunk
10
0.214972
20
0.466697
30
2.934771
11
0.168169
21
0.442598
31
2.932813
12
0.138554
22
0.473298
32
3.451960
13
0.175375
23
0.501072
33
3.444978
0
3DFACE
8
coconut_palm8_trunk
10
0.168169
20
0.442598
30
2.932813
11
0.120511
21
0.441510
31
2.932093
12
0.089388
22
0.459714
32
3.456641
13
0.138554
23
0.473298
33
3.451960
0
3DFACE
8
coconut_palm8_trunk
10
0.120511
20
0.441510
30
2.932093
11
0.080906
21
0.467188
31
2.932945
12
0.048690
22
0.492024
32
3.452069
13
0.089388
23
0.459714
33
3.456641
0
3DFACE
8
coconut_palm8_trunk
10
0.080906
20
0.467188
30
2.932945
11
0.051283
21
0.510546
31
2.934894
12
0.033595
22
0.538166
32
3.443718
13
0.048690
23
0.492024
33
3.452069
0
3DFACE
8
coconut_palm8_trunk
10
0.051283
20
0.510546
30
2.934894
11
0.076295
21
0.556658
31
2.937739
12
0.035732
22
0.590283
32
3.433394
13
0.033595
23
0.538166
33
3.443718
0
3DFACE
8
coconut_palm8_trunk
10
0.076295
20
0.556658
30
2.937739
11
0.109288
21
0.595645
31
2.940303
12
0.084714
22
0.609433
32
3.427480
13
0.035732
23
0.590283
33
3.433394
0
3DFACE
8
coconut_palm8_trunk
10
0.109288
20
0.595645
30
2.940303
11
0.160378
21
0.590297
31
2.940717
12
0.131712
22
0.617671
32
3.423780
13
0.084714
23
0.609433
33
3.427480
0
3DFACE
8
coconut_palm8_trunk
10
0.131712
20
0.617671
30
3.423780
11
0.170547
21
0.588947
31
3.427805
12
0.195782
22
0.793236
32
3.874730
13
0.152817
23
0.821858
33
3.866920
0
3DFACE
8
coconut_palm8_trunk
10
0.170547
20
0.588947
30
3.427805
11
0.200936
21
0.546253
31
3.434969
12
0.210067
22
0.748370
32
3.891843
13
0.195782
23
0.793236
33
3.874730
0
3DFACE
8
coconut_palm8_trunk
10
0.200936
20
0.546253
30
3.434969
11
0.175375
21
0.501072
31
3.444978
12
0.203124
22
0.702569
32
3.911288
13
0.210067
23
0.748370
33
3.891843
0
3DFACE
8
coconut_palm8_trunk
10
0.175375
20
0.501072
30
3.444978
11
0.138554
21
0.473298
31
3.451960
12
0.163466
22
0.673773
32
3.926751
13
0.203124
23
0.702569
33
3.911288
0
3DFACE
8
coconut_palm8_trunk
10
0.138554
20
0.473298
30
3.451960
11
0.089388
21
0.459714
31
3.456641
12
0.115236
22
0.681605
32
3.927960
13
0.163466
23
0.673773
33
3.926751
0
3DFACE
8
coconut_palm8_trunk
10
0.089388
20
0.459714
30
3.456641
11
0.048690
21
0.492024
31
3.452069
12
0.066880
22
0.696458
32
3.926296
13
0.115236
23
0.681605
33
3.927960
0
3DFACE
8
coconut_palm8_trunk
10
0.048690
20
0.492024
30
3.452069
11
0.033595
21
0.538166
31
3.443718
12
0.062478
22
0.743196
32
3.907508
13
0.066880
23
0.696458
33
3.926296
0
3DFACE
8
coconut_palm8_trunk
10
0.033595
20
0.538166
30
3.443718
11
0.035732
21
0.590283
31
3.433394
12
0.069645
22
0.783868
32
3.890151
13
0.062478
23
0.743196
33
3.907508
0
3DFACE
8
coconut_palm8_trunk
10
0.035732
20
0.590283
30
3.433394
11
0.084714
21
0.609433
31
3.427480
12
0.105567
22
0.807712
32
3.877064
13
0.069645
23
0.783868
33
3.890151
0
3DFACE
8
coconut_palm8_trunk
10
0.084714
20
0.609433
30
3.427480
11
0.131712
21
0.617671
31
3.423780
12
0.152817
22
0.821858
32
3.866920
13
0.105567
23
0.807712
33
3.877064
0
3DFACE
8
coconut_palm8_trunk
10
0.152817
20
0.821858
30
3.866920
11
0.195782
21
0.793236
31
3.874730
12
0.290267
22
0.990086
32
4.327784
13
0.216419
23
1.021865
33
4.321914
0
3DFACE
8
coconut_palm8_trunk
10
0.195782
20
0.793236
30
3.874730
11
0.210067
21
0.748370
31
3.891843
12
0.308980
22
0.916775
32
4.355668
13
0.290267
23
0.990086
33
4.327784
0
3DFACE
8
coconut_palm8_trunk
10
0.210067
20
0.748370
30
3.891843
11
0.203124
21
0.702569
31
3.911288
12
0.291731
22
0.848641
32
4.384858
13
0.308980
23
0.916775
33
4.355668
0
3DFACE
8
coconut_palm8_trunk
10
0.203124
20
0.702569
30
3.911288
11
0.163466
21
0.673773
31
3.926751
12
0.235708
22
0.799823
32
4.409902
13
0.291731
23
0.848641
33
4.384858
0
3DFACE
8
coconut_palm8_trunk
10
0.163466
20
0.673773
30
3.926751
11
0.115236
21
0.681605
31
3.927960
12
0.152527
22
0.783418
32
4.424405
13
0.235708
23
0.799823
33
4.409902
0
3DFACE
8
coconut_palm8_trunk
10
0.115236
20
0.681605
30
3.927960
11
0.066880
21
0.696458
31
3.926296
12
0.091444
22
0.840728
32
4.407000
13
0.152527
23
0.783418
33
4.424405
0
3DFACE
8
coconut_palm8_trunk
10
0.066880
20
0.696458
30
3.926296
11
0.062478
21
0.743196
31
3.907508
12
0.066426
22
0.908505
32
4.381952
13
0.091444
23
0.840728
33
4.407000
0
3DFACE
8
coconut_palm8_trunk
10
0.062478
20
0.743196
30
3.907508
11
0.069645
21
0.783868
31
3.890151
12
0.089361
22
0.972442
32
4.353921
13
0.066426
23
0.908505
33
4.381952
0
3DFACE
8
coconut_palm8_trunk
10
0.069645
20
0.783868
30
3.890151
11
0.105567
21
0.807712
31
3.877064
12
0.140194
22
1.021681
32
4.329196
13
0.089361
23
0.972442
33
4.353921
0
3DFACE
8
coconut_palm8_trunk
10
0.105567
20
0.807712
30
3.877064
11
0.152817
21
0.821858
31
3.866920
12
0.216419
22
1.021865
32
4.321914
13
0.140194
23
1.021681
33
4.329196
0
3DFACE
8
coconut_palm8_trunk
10
0.216419
20
1.021865
30
4.321914
11
0.290267
21
0.990086
31
4.327784
12
0.173575
22
1.054519
32
4.853563
13
0.168241
23
1.059107
33
4.852194
0
3DFACE
8
coconut_palm8_trunk
10
0.290267
20
0.990086
30
4.327784
11
0.308980
21
0.916775
31
4.355668
12
0.176997
22
1.048731
32
4.855553
13
0.173575
23
1.054519
33
4.853563
0
3DFACE
8
coconut_palm8_trunk
10
0.308980
20
0.916775
30
4.355668
11
0.291731
21
0.848641
31
4.384858
12
0.175873
22
1.041856
32
4.858334
13
0.176997
23
1.048731
33
4.855553
0
3DFACE
8
coconut_palm8_trunk
10
0.291731
20
0.848641
30
4.384858
11
0.235708
21
0.799823
31
4.409902
12
0.170047
22
1.037293
32
4.860583
13
0.175873
23
1.041856
33
4.858334
0
3DFACE
8
coconut_palm8_trunk
10
0.235708
20
0.799823
30
4.409902
11
0.152527
21
0.783418
31
4.424405
12
0.162780
22
1.038728
32
4.860603
13
0.170047
23
1.037293
33
4.860583
0
3DFACE
8
coconut_palm8_trunk
10
0.152527
20
0.783418
30
4.424405
11
0.091444
21
0.840728
31
4.407000
12
0.156631
22
1.041678
32
4.859941
13
0.162780
23
1.038728
33
4.860603
0
3DFACE
8
coconut_palm8_trunk
10
0.091444
20
0.840728
30
4.407000
11
0.066426
21
0.908505
31
4.381952
12
0.153548
22
1.047818
32
4.857785
13
0.156631
23
1.041678
33
4.859941
0
3DFACE
8
coconut_palm8_trunk
10
0.066426
20
0.908505
30
4.381952
11
0.089361
21
0.972442
31
4.353921
12
0.154673
22
1.054779
32
4.854972
13
0.153548
23
1.047818
33
4.857785
0
3DFACE
8
coconut_palm8_trunk
10
0.089361
20
0.972442
30
4.353921
11
0.140194
21
1.021681
31
4.329196
12
0.161123
22
1.058112
32
4.853153
13
0.154673
23
1.054779
33
4.854972
0
3DFACE
8
coconut_palm8_trunk
10
0.140194
20
1.021681
30
4.329196
11
0.216419
21
1.021865
31
4.321914
12
0.168241
22
1.059107
32
4.852194
13
0.161123
23
1.058112
33
4.853153
0
3DFACE
8
coconut_palm8_trunk
10
0.168241
20
1.059107
30
4.852194
11
0.173575
21
1.054519
31
4.853563
12
0.165349
22
1.048262
32
4.856668
13
0.165349
23
1.048262
33
4.856668
0
3DFACE
8
coconut_palm8_trunk
10
0.173575
20
1.054519
30
4.853563
11
0.176997
21
1.048731
31
4.855553
12
0.165349
22
1.048262
32
4.856668
13
0.165349
23
1.048262
33
4.856668
0
3DFACE
8
coconut_palm8_trunk
10
0.176997
20
1.048731
30
4.855553
11
0.175873
21
1.041856
31
4.858334
12
0.165349
22
1.048262
32
4.856668
13
0.165349
23
1.048262
33
4.856668
0
3DFACE
8
coconut_palm8_trunk
10
0.175873
20
1.041856
30
4.858334
11
0.170047
21
1.037293
31
4.860583
12
0.165349
22
1.048262
32
4.856668
13
0.165349
23
1.048262
33
4.856668
0
3DFACE
8
coconut_palm8_trunk
10
0.170047
20
1.037293
30
4.860583
11
0.162780
21
1.038728
31
4.860603
12
0.165349
22
1.048262
32
4.856668
13
0.165349
23
1.048262
33
4.856668
0
3DFACE
8
coconut_palm8_trunk
10
0.162780
20
1.038728
30
4.860603
11
0.156631
21
1.041678
31
4.859941
12
0.165349
22
1.048262
32
4.856668
13
0.165349
23
1.048262
33
4.856668
0
3DFACE
8
coconut_palm8_trunk
10
0.156631
20
1.041678
30
4.859941
11
0.153548
21
1.047818
31
4.857785
12
0.165349
22
1.048262
32
4.856668
13
0.165349
23
1.048262
33
4.856668
0
3DFACE
8
coconut_palm8_trunk
10
0.153548
20
1.047818
30
4.857785
11
0.154673
21
1.054779
31
4.854972
12
0.165349
22
1.048262
32
4.856668
13
0.165349
23
1.048262
33
4.856668
0
3DFACE
8
coconut_palm8_trunk
10
0.154673
20
1.054779
30
4.854972
11
0.161123
21
1.058112
31
4.853153
12
0.165349
22
1.048262
32
4.856668
13
0.165349
23
1.048262
33
4.856668
0
3DFACE
8
coconut_palm8_trunk
10
0.161123
20
1.058112
30
4.853153
11
0.168241
21
1.059107
31
4.852194
12
0.165349
22
1.048262
32
4.856668
13
0.165349
23
1.048262
33
4.856668
0
3DFACE
8
coconut_palm8_leaves
10
0.152169
20
-0.418977
30
4.853325
11
0.051526
21
-0.134805
31
4.486157
12
-0.042243
22
-0.479345
32
3.151746
13
0.037200
23
-0.842637
33
3.594240
0
3DFACE
8
coconut_palm8_leaves
10
0.208503
20
0.252289
30
5.072618
11
0.107860
21
0.536461
31
4.705451
12
0.051526
22
-0.134805
32
4.486157
13
0.152169
23
-0.418977
33
4.853325
0
3DFACE
8
coconut_palm8_leaves
10
0.223930
20
0.856571
30
4.865023
11
0.123288
21
1.140743
31
4.497855
12
0.107860
22
0.536461
32
4.705451
13
0.208503
23
0.252289
33
5.072618
0
3DFACE
8
coconut_palm8_leaves
10
0.101848
20
-0.276891
30
4.669742
11
0.395308
21
-0.259881
31
4.362457
12
0.334408
22
-0.064486
32
2.928609
13
-0.004756
23
-0.669333
33
3.360378
0
3DFACE
8
coconut_palm8_leaves
10
-0.225870
20
-0.250139
30
4.555964
11
0.101848
21
-0.276891
31
4.669742
12
-0.004756
22
-0.669333
32
3.360378
13
-0.305648
23
-0.172497
33
2.952412
0
3DFACE
8
coconut_palm8_leaves
10
0.158182
20
0.394375
30
4.889035
11
0.463606
21
0.347421
31
4.759789
12
0.395308
22
-0.259881
32
4.362457
13
0.101848
23
-0.276891
33
4.669742
0
3DFACE
8
coconut_palm8_leaves
10
-0.154329
20
0.420300
30
4.950336
11
0.158182
21
0.394375
31
4.889035
12
0.101848
22
-0.276891
32
4.669742
13
-0.225870
23
-0.250139
33
4.555964
0
3DFACE
8
coconut_palm8_leaves
10
0.173609
20
0.998657
30
4.681438
11
0.482282
21
0.947391
31
4.592228
12
0.463606
22
0.347421
32
4.759789
13
0.158182
23
0.394375
33
4.889035
0
3DFACE
8
coconut_palm8_leaves
10
-0.135064
20
1.049922
30
4.770649
11
0.173609
21
0.998657
31
4.681438
12
0.158182
22
0.394375
32
4.889035
13
-0.154329
23
0.420300
33
4.950336
0
3DFACE
8
coconut_palm8_leaves
10
1.480555
20
1.017051
30
4.326298
11
1.032562
21
0.728179
31
4.073847
12
1.277975
22
0.506493
32
3.430596
13
1.718320
23
0.766821
33
3.655766
0
3DFACE
8
coconut_palm8_leaves
10
0.983917
20
1.143377
30
4.739224
11
0.535924
21
0.854504
31
4.486773
12
1.032562
22
0.728179
32
4.073847
13
1.480555
23
1.017051
33
4.326298
0
3DFACE
8
coconut_palm8_leaves
10
0.389887
20
1.189446
30
4.971404
11
-0.058106
21
0.900574
31
4.718954
12
0.535924
22
0.854504
32
4.486773
13
0.983917
23
1.143377
33
4.739224
0
3DFACE
8
coconut_palm8_leaves
10
1.256558
20
0.872615
30
4.200072
11
1.124594
21
1.098861
31
3.939817
12
1.170120
22
0.865337
32
3.290182
13
1.495693
23
0.627498
33
3.539885
0
3DFACE
8
coconut_palm8_leaves
10
1.268540
20
0.571049
30
4.296346
11
1.256558
21
0.872615
31
4.200072
12
1.495693
22
0.627498
32
3.539885
13
1.339703
23
0.275759
33
3.505803
0
3DFACE
8
coconut_palm8_leaves
10
0.759921
20
0.998941
30
4.612999
11
0.697602
21
1.253763
31
4.410193
12
1.124594
22
1.098861
32
3.939817
13
1.256558
23
0.872615
33
4.200072
0
3DFACE
8
coconut_palm8_leaves
10
0.808606
20
0.730679
30
4.785010
11
0.759921
21
0.998941
31
4.612999
12
1.256558
22
0.872615
32
4.200072
13
1.268540
23
0.571049
33
4.296346
0
3DFACE
8
coconut_palm8_leaves
10
0.165890
20
1.045009
30
4.845178
11
0.119340
21
1.305969
31
4.654547
12
0.697602
22
1.253763
32
4.410193
13
0.759921
23
0.998941
33
4.612999
0
3DFACE
8
coconut_palm8_leaves
10
0.212441
20
0.784050
30
5.035809
11
0.165890
21
1.045009
31
4.845178
12
0.759921
22
0.998941
32
4.612999
13
0.808606
23
0.730679
33
4.785010
0
3DFACE
8
coconut_palm8_leaves
10
-0.765642
20
1.623084
30
5.204586
11
-0.681532
21
1.684463
31
4.661872
12
-1.277990
22
1.914414
32
4.421144
13
-1.362099
23
1.853036
33
4.963859
0
3DFACE
8
coconut_palm8_leaves
10
-0.261318
20
1.294666
30
5.125072
11
-0.177208
21
1.356045
31
4.582358
12
-0.681532
22
1.684463
32
4.661872
13
-0.765642
23
1.623084
33
5.204586
0
3DFACE
8
coconut_palm8_leaves
10
0.135593
20
0.943712
30
4.867113
11
0.219703
21
1.005090
31
4.324398
12
-0.177208
22
1.356045
32
4.582358
13
-0.261318
23
1.294666
33
5.125072
0
3DFACE
8
coconut_palm8_leaves
10
-0.723587
20
1.653773
30
4.933228
11
-0.941446
21
1.403274
31
4.792963
12
-1.479335
22
1.528196
32
4.401692
13
-1.320044
23
1.883725
33
4.692501
0
3DFACE
8
coconut_palm8_leaves
10
-0.581621
20
1.869583
30
4.907769
11
-0.723587
21
1.653773
31
4.933228
12
-1.320044
22
1.883725
32
4.692501
13
-1.211705
23
2.048469
33
4.518202
0
3DFACE
8
coconut_palm8_leaves
10
-0.219263
20
1.325356
30
4.853715
11
-0.437273
21
1.113687
31
4.795298
12
-0.941446
22
1.403274
32
4.792963
13
-0.723587
23
1.653773
33
4.933228
0
3DFACE
8
coconut_palm8_leaves
10
-0.019367
20
1.535059
30
4.885916
11
-0.219263
21
1.325356
31
4.853715
12
-0.723587
22
1.653773
32
4.933228
13
-0.581621
23
1.869583
33
4.907769
0
3DFACE
8
coconut_palm8_leaves
10
0.177648
20
0.974401
30
4.595755
11
-0.044251
21
0.775512
31
4.559597
12
-0.437273
22
1.113687
32
4.795298
13
-0.219263
23
1.325356
33
4.853715
0
3DFACE
8
coconut_palm8_leaves
10
0.399547
20
1.173291
30
4.631913
11
0.177648
21
0.974401
31
4.595755
12
-0.219263
22
1.325356
32
4.853715
13
-0.019367
23
1.535059
33
4.885916
0
3DFACE
8
coconut_palm8_leaves
10
0.549270
20
-0.027421
30
4.076233
11
0.274727
21
0.285058
31
3.934330
12
0.072601
22
0.380371
32
3.132378
13
0.338020
23
0.033838
33
3.187952
0
3DFACE
8
coconut_palm8_leaves
10
0.500854
20
0.349449
30
4.527514
11
0.226311
21
0.661927
31
4.385611
12
0.274727
22
0.285058
32
3.934330
13
0.549270
23
-0.027421
33
4.076233
0
3DFACE
8
coconut_palm8_leaves
10
0.312997
20
0.829709
30
4.707496
11
0.038454
21
1.142187
31
4.565592
12
0.226311
22
0.661927
32
4.385611
13
0.500854
23
0.349449
33
4.527514
0
3DFACE
8
coconut_palm8_leaves
10
0.411999
20
0.128818
30
4.005282
11
0.562501
21
0.339065
31
3.803183
12
0.247907
22
0.694578
32
3.165806
13
0.205262
23
0.206922
33
3.158705
0
3DFACE
8
coconut_palm8_leaves
10
0.132761
20
0.051235
30
4.016413
11
0.411999
21
0.128818
31
4.005282
12
0.205262
22
0.206922
32
3.158705
13
-0.192307
23
0.351456
33
3.187474
0
3DFACE
8
coconut_palm8_leaves
10
0.363582
20
0.505688
30
4.456562
11
0.573473
21
0.641274
31
4.321040
12
0.562501
22
0.339065
32
3.803183
13
0.411999
23
0.128818
33
4.005282
0
3DFACE
8
coconut_palm8_leaves
10
0.135639
20
0.379655
30
4.550829
11
0.363582
21
0.505688
31
4.456562
12
0.411999
22
0.128818
32
4.005282
13
0.132761
23
0.051235
33
4.016413
0
3DFACE
8
coconut_palm8_leaves
10
0.175725
20
0.985948
30
4.636543
11
0.397742
21
1.109197
31
4.519262
12
0.573473
22
0.641274
32
4.321040
13
0.363582
23
0.505688
33
4.456562
0
3DFACE
8
coconut_palm8_leaves
10
-0.046291
20
0.862697
30
4.753824
11
0.175725
21
0.985948
31
4.636543
12
0.363582
22
0.505688
32
4.456562
13
0.135639
23
0.379655
33
4.550829
0
3DFACE
8
coconut_palm8_leaves
10
0.151937
20
0.151404
30
5.194699
11
0.075119
21
0.226448
31
4.864676
12
0.001355
22
-0.216623
32
4.414513
13
0.078173
23
-0.291667
33
4.744534
0
3DFACE
8
coconut_palm8_leaves
10
0.195381
20
0.629342
30
5.173675
11
0.118564
21
0.704386
31
4.843653
12
0.075119
22
0.226448
32
4.864676
13
0.151937
23
0.151404
33
5.194699
0
3DFACE
8
coconut_palm8_leaves
10
0.209168
20
0.978247
30
4.906899
11
0.132351
21
1.053292
31
4.576877
12
0.118564
22
0.704386
32
4.843653
13
0.195381
23
0.629342
33
5.173675
0
3DFACE
8
coconut_palm8_leaves
10
0.113528
20
0.188926
30
5.029687
11
0.318432
21
0.135145
31
4.880984
12
0.247036
22
-0.168580
32
4.280257
13
0.039764
23
-0.254145
33
4.579523
0
3DFACE
8
coconut_palm8_leaves
10
-0.108489
20
0.195987
30
5.000021
11
0.113528
21
0.188926
31
5.029687
12
0.039764
22
-0.254145
32
4.579523
13
-0.184891
23
-0.156120
33
4.392900
0
3DFACE
8
coconut_palm8_leaves
10
0.156972
20
0.666864
30
5.008664
11
0.367640
21
0.611097
31
4.943408
12
0.318432
22
0.135145
32
4.880984
13
0.113528
23
0.188926
33
5.029687
0
3DFACE
8
coconut_palm8_leaves
10
-0.057270
20
0.703991
30
5.048365
11
0.156972
21
0.666864
31
5.008664
12
0.113528
22
0.188926
32
5.029687
13
-0.108489
23
0.195987
33
5.000021
0
3DFACE
8
coconut_palm8_leaves
10
0.170759
20
1.015769
30
4.741887
11
0.382997
21
0.962541
31
4.695295
12
0.367640
22
0.611097
32
4.943408
13
0.156972
23
0.666864
33
5.008664
0
3DFACE
8
coconut_palm8_leaves
10
-0.041478
20
1.068997
30
4.788480
11
0.170759
21
1.015769
31
4.741887
12
0.156972
22
0.666864
32
5.008664
13
-0.057270
23
0.703991
33
5.048365
0
3DFACE
8
coconut_palm8_leaves
10
0.135147
20
1.880257
30
3.817946
11
0.307773
21
1.435938
31
3.643420
12
0.300083
22
1.566108
32
3.201403
13
0.105404
23
1.928120
33
3.208082
0
3DFACE
8
coconut_palm8_leaves
10
0.125379
20
1.586672
30
4.277925
11
0.298005
21
1.142352
31
4.103399
12
0.307773
22
1.435938
32
3.643420
13
0.135147
23
1.880257
33
3.817946
0
3DFACE
8
coconut_palm8_leaves
10
0.094338
20
1.178529
30
4.619322
11
0.266963
21
0.734210
31
4.444795
12
0.298005
22
1.142352
32
4.103399
13
0.125379
23
1.586672
33
4.277925
0
3DFACE
8
coconut_palm8_leaves
10
0.221460
20
1.658098
30
3.730683
11
-0.040758
21
1.531713
31
3.620915
12
-0.062451
22
1.530557
32
3.194679
13
0.202463
23
1.746066
33
3.210206
0
3DFACE
8
coconut_palm8_leaves
10
0.465620
20
1.680406
30
3.754377
11
0.221460
21
1.658098
31
3.730683
12
0.202463
22
1.746066
32
3.210206
13
0.432922
23
1.673232
33
3.197286
0
3DFACE
8
coconut_palm8_leaves
10
0.211692
20
1.364512
30
4.190662
11
-0.041788
21
1.300859
31
4.096132
12
-0.040758
22
1.531713
32
3.620915
13
0.221460
23
1.658098
33
3.730683
0
3DFACE
8
coconut_palm8_leaves
10
0.462337
20
1.413596
30
4.267899
11
0.211692
21
1.364512
31
4.190662
12
0.221460
22
1.658098
32
3.730683
13
0.465620
23
1.680406
33
3.754377
0
3DFACE
8
coconut_palm8_leaves
10
0.180651
20
0.956369
30
4.532059
11
-0.070598
21
0.910334
31
4.438017
12
-0.041788
22
1.300859
32
4.096132
13
0.211692
23
1.364512
33
4.190662
0
3DFACE
8
coconut_palm8_leaves
10
0.431899
20
1.002404
30
4.626100
11
0.180651
21
0.956369
31
4.532059
12
0.211692
22
1.364512
32
4.190662
13
0.462337
23
1.413596
33
4.267899
0
3DFACE
8
coconut_palm8_leaves
10
-0.458473
20
0.258972
30
5.018719
11
-0.431960
21
0.346954
31
4.652614
12
-0.679153
22
-0.077954
32
4.177596
13
-0.705665
23
-0.165935
33
4.543700
0
3DFACE
8
coconut_palm8_leaves
10
-0.119144
20
0.653756
30
4.998422
11
-0.092631
21
0.741737
31
4.632317
12
-0.431960
22
0.346954
32
4.652614
13
-0.458473
23
0.258972
33
5.018719
0
3DFACE
8
coconut_palm8_leaves
10
0.167298
20
0.912959
30
4.717160
11
0.193810
21
1.000940
31
4.351055
12
-0.092631
22
0.741737
32
4.632317
13
-0.119144
23
0.653756
33
4.998422
0
3DFACE
8
coconut_palm8_leaves
10
-0.445217
20
0.302963
30
4.835666
11
-0.275340
21
0.102763
31
4.700370
12
-0.390438
22
-0.225799
32
4.004803
13
-0.692409
23
-0.121944
33
4.360648
0
3DFACE
8
coconut_palm8_leaves
10
-0.621117
20
0.438546
30
4.765839
11
-0.445217
21
0.302963
31
4.835666
12
-0.692409
22
-0.121944
32
4.360648
13
-0.782310
23
0.064978
33
4.111917
0
3DFACE
8
coconut_palm8_leaves
10
-0.105888
20
0.697746
30
4.815370
11
0.042804
21
0.500317
31
4.779136
12
-0.275340
22
0.102763
32
4.700370
13
-0.445217
23
0.302963
33
4.835666
0
3DFACE
8
coconut_palm8_leaves
10
-0.264421
20
0.875243
30
4.821941
11
-0.105888
21
0.697746
31
4.815370
12
-0.445217
22
0.302963
32
4.835666
13
-0.621117
23
0.438546
33
4.765839
0
3DFACE
8
coconut_palm8_leaves
10
0.180554
20
0.956950
30
4.534108
11
0.325296
21
0.761730
31
4.522385
12
0.042804
22
0.500317
32
4.779136
13
-0.105888
23
0.697746
33
4.815370
0
3DFACE
8
coconut_palm8_leaves
10
0.035812
20
1.152168
30
4.545831
11
0.180554
21
0.956950
31
4.534108
12
-0.105888
22
0.697746
32
4.815370
13
-0.264421
23
0.875243
33
4.821941
0
3DFACE
8
coconut_palm8_leaves
10
-0.136615
20
1.707722
30
4.709667
11
0.017580
21
1.583562
31
4.438153
12
-0.112861
22
1.796852
32
4.141741
13
-0.267056
23
1.921012
33
4.413254
0
3DFACE
8
coconut_palm8_leaves
10
-0.015949
20
1.412235
30
4.858931
11
0.138246
21
1.288074
31
4.587417
12
0.017580
22
1.583562
32
4.438153
13
-0.136615
23
1.707722
33
4.709667
0
3DFACE
8
coconut_palm8_leaves
10
0.091825
20
1.088880
30
4.916609
11
0.246020
21
0.964719
31
4.645096
12
0.138246
22
1.288074
32
4.587417
13
-0.015949
23
1.412235
33
4.858931
0
3DFACE
8
coconut_palm8_leaves
10
-0.059518
20
1.645642
30
4.573911
11
-0.212204
21
1.559873
31
4.498901
12
-0.334219
22
1.721287
32
4.173155
13
-0.189959
23
1.858931
33
4.277496
0
3DFACE
8
coconut_palm8_leaves
10
0.087826
20
1.712530
30
4.601634
11
-0.059518
21
1.645642
31
4.573911
12
-0.189959
22
1.858931
32
4.277496
13
-0.049550
23
1.910843
33
4.255974
0
3DFACE
8
coconut_palm8_leaves
10
0.061149
20
1.350154
30
4.723174
11
-0.094399
21
1.286491
31
4.663838
12
-0.212204
22
1.559873
32
4.498901
13
-0.059518
23
1.645642
33
4.573911
0
3DFACE
8
coconut_palm8_leaves
10
0.215382
20
1.411857
30
4.774288
11
0.061149
21
1.350154
31
4.723174
12
-0.059518
22
1.645642
32
4.573911
13
0.087826
23
1.712530
33
4.601634
0
3DFACE
8
coconut_palm8_leaves
10
0.168923
20
1.026800
30
4.780852
11
0.011724
21
0.971192
31
4.724582
12
-0.094399
22
1.286491
32
4.663838
13
0.061149
23
1.350154
33
4.723174
0
3DFACE
8
coconut_palm8_leaves
10
0.326122
20
1.082407
30
4.837122
11
0.168923
21
1.026800
31
4.780852
12
0.061149
22
1.350154
32
4.723174
13
0.215382
23
1.411857
33
4.774288
0
3DFACE
8
coconut_palm8_leaves
10
-0.590827
20
0.152979
30
5.332970
11
-0.576314
21
0.272746
31
4.833882
12
-0.903422
22
-0.226005
32
4.450187
13
-0.917935
23
-0.345772
33
4.949275
0
3DFACE
8
coconut_palm8_leaves
10
-0.207375
20
0.608260
30
5.317991
11
-0.192862
21
0.728028
31
4.818903
12
-0.576314
22
0.272746
32
4.833882
13
-0.590827
23
0.152979
33
5.332970
0
3DFACE
8
coconut_palm8_leaves
10
0.158993
20
0.982968
30
5.087099
11
0.173506
21
1.102735
31
4.588011
12
-0.192862
22
0.728028
32
4.818903
13
-0.207375
23
0.608260
33
5.317991
0
3DFACE
8
coconut_palm8_leaves
10
-0.583571
20
0.212862
30
5.083426
11
-0.368038
21
-0.005851
31
4.942149
12
-0.600124
22
-0.443674
32
4.368325
13
-0.910678
23
-0.285888
33
4.699730
0
3DFACE
8
coconut_palm8_leaves
10
-0.794668
20
0.382153
30
5.028070
11
-0.583571
21
0.212862
31
5.083426
12
-0.910678
22
-0.285888
32
4.699730
13
-1.072225
23
-0.111551
33
4.449227
0
3DFACE
8
coconut_palm8_leaves
10
-0.200119
20
0.668144
30
5.068447
11
-0.004956
21
0.449846
31
5.016339
12
-0.368038
22
-0.005851
32
4.942149
13
-0.583571
23
0.212862
33
5.083426
0
3DFACE
8
coconut_palm8_leaves
10
-0.399691
20
0.872617
30
5.089870
11
-0.200119
21
0.668144
31
5.068447
12
-0.583571
22
0.212862
32
5.083426
13
-0.794668
23
0.382153
33
5.028070
0
3DFACE
8
coconut_palm8_leaves
10
0.166250
20
1.042851
30
4.837554
11
0.355844
21
0.823636
31
4.806119
12
-0.004956
22
0.449846
32
5.016339
13
-0.200119
23
0.668144
33
5.068447
0
3DFACE
8
coconut_palm8_leaves
10
-0.023345
20
1.262067
30
4.868990
11
0.166250
21
1.042851
31
4.837554
12
-0.200119
22
0.668144
32
5.068447
13
-0.399691
23
0.872617
33
5.089870
0
3DFACE
8
coconut_palm8_leaves
10
-0.589283
20
1.799827
30
5.204329
11
-0.578339
21
1.998793
31
4.596548
12
-0.978914
22
2.463680
32
4.723843
13
-0.989859
23
2.264713
33
5.331623
0
3DFACE
8
coconut_palm8_leaves
10
-0.203464
20
1.333330
30
5.045651
11
-0.192519
21
1.532297
31
4.437872
12
-0.578339
22
1.998793
32
4.596548
13
-0.589283
23
1.799827
33
5.204329
0
3DFACE
8
coconut_palm8_leaves
10
0.173612
20
0.866291
30
4.869173
11
0.184557
21
1.065258
31
4.261392
12
-0.192519
22
1.532297
32
4.437872
13
-0.203464
23
1.333330
33
5.045651
0
3DFACE
8
coconut_palm8_leaves
10
-0.583811
20
1.899310
30
4.900438
11
-0.839609
21
1.714803
31
4.827016
12
-1.244564
22
2.174343
32
4.935621
13
-0.984386
23
2.364196
33
5.027732
0
3DFACE
8
coconut_palm8_leaves
10
-0.336271
20
2.083128
30
4.956708
11
-0.583811
21
1.899310
31
4.900438
12
-0.984386
22
2.364196
32
5.027732
13
-0.748000
23
2.550811
33
5.068010
0
3DFACE
8
coconut_palm8_leaves
10
-0.197992
20
1.432813
30
4.741762
11
-0.452584
21
1.251335
31
4.676481
12
-0.839609
22
1.714803
32
4.827016
13
-0.583811
23
1.899310
33
4.900438
0
3DFACE
8
coconut_palm8_leaves
10
0.055189
20
1.614221
30
4.804201
11
-0.197992
21
1.432813
31
4.741762
12
-0.583811
22
1.899310
32
4.900438
13
-0.336271
23
2.083128
33
4.956708
0
3DFACE
8
coconut_palm8_leaves
10
0.179084
20
0.965775
30
4.565282
11
-0.075898
21
0.785692
31
4.501941
12
-0.452584
22
1.251335
32
4.676481
13
-0.197992
23
1.432813
33
4.741762
0
3DFACE
8
coconut_palm8_leaves
10
0.434067
20
1.145856
30
4.628624
11
0.179084
21
0.965775
31
4.565282
12
-0.197992
22
1.432813
32
4.741762
13
0.055189
23
1.614221
33
4.804201
0
3DFACE
8
coconut_palm8_leaves
10
0.642388
20
1.637162
30
5.881935
11
1.114180
21
1.448693
31
5.508255
12
1.574392
22
1.693507
32
5.862039
13
1.102600
23
1.881976
33
6.235718
0
3DFACE
8
coconut_palm8_leaves
10
0.261904
20
1.384810
30
5.459361
11
0.733696
21
1.196340
31
5.085682
12
1.114180
22
1.448693
32
5.508255
13
0.642388
23
1.637162
33
5.881935
0
3DFACE
8
coconut_palm8_leaves
10
-0.068492
20
1.130154
30
4.999908
11
0.403300
21
0.941685
31
4.626228
12
0.733696
22
1.196340
32
5.085682
13
0.261904
23
1.384810
33
5.459361
0
3DFACE
8
coconut_palm8_leaves
10
0.878284
20
1.542928
30
5.695095
11
0.890790
21
1.818460
31
5.523674
12
1.384082
22
2.054451
32
5.834086
13
1.338496
23
1.787741
33
6.048879
0
3DFACE
8
coconut_palm8_leaves
10
0.911806
20
1.264304
30
5.830084
11
0.878284
21
1.542928
31
5.695095
12
1.338496
22
1.787741
32
6.048879
13
1.413744
23
1.505797
33
6.149496
0
3DFACE
8
coconut_palm8_leaves
10
0.497800
20
1.290575
30
5.272522
11
0.494044
21
1.569454
31
5.119843
12
0.890790
22
1.818460
32
5.523674
13
0.878284
23
1.542928
33
5.695095
0
3DFACE
8
coconut_palm8_leaves
10
0.509684
20
1.011415
30
5.419457
11
0.497800
21
1.290575
31
5.272522
12
0.878284
22
1.542928
32
5.695095
13
0.911806
23
1.264304
33
5.830084
0
3DFACE
8
coconut_palm8_leaves
10
0.167404
20
1.035920
30
4.813068
11
0.160844
21
1.315924
31
4.665048
12
0.494044
22
1.569454
32
5.119843
13
0.497800
23
1.290575
33
5.272522
0
3DFACE
8
coconut_palm8_leaves
10
0.173964
20
0.755915
30
4.961087
11
0.167404
21
1.035920
31
4.813068
12
0.497800
22
1.290575
32
5.272522
13
0.509684
23
1.011415
33
5.419457
0
3DFACE
8
coconut_palm8_leaves
10
0.536387
20
0.192579
30
4.748562
11
0.326892
21
0.310129
31
4.431234
12
0.368343
22
-0.019191
32
4.101137
13
0.577838
23
-0.136741
33
4.418465
0
3DFACE
8
coconut_palm8_leaves
10
0.422192
20
0.574950
30
4.890840
11
0.212697
21
0.692500
31
4.573512
12
0.326892
22
0.310129
32
4.431234
13
0.536387
23
0.192579
33
4.748562
0
3DFACE
8
coconut_palm8_leaves
10
0.274664
20
0.962059
30
4.918443
11
0.065169
21
1.079610
31
4.601116
12
0.212697
22
0.692500
32
4.573512
13
0.422192
23
0.574950
33
4.890840
0
3DFACE
8
coconut_palm8_leaves
10
0.431639
20
0.251354
30
4.589898
11
0.595446
21
0.336954
31
4.467433
12
0.603923
22
0.050696
32
4.079982
13
0.473091
23
-0.077965
33
4.259802
0
3DFACE
8
coconut_palm8_leaves
10
0.244239
20
0.175547
30
4.640613
11
0.431639
21
0.251354
31
4.589898
12
0.473091
22
-0.077965
32
4.259802
13
0.257681
23
-0.128045
33
4.245943
0
3DFACE
8
coconut_palm8_leaves
10
0.317445
20
0.633725
30
4.732176
11
0.493556
21
0.708204
31
4.638341
12
0.595446
22
0.336954
32
4.467433
13
0.431639
23
0.251354
33
4.589898
0
3DFACE
8
coconut_palm8_leaves
10
0.138062
20
0.558984
30
4.813693
11
0.317445
21
0.633725
31
4.732176
12
0.431639
22
0.251354
32
4.589898
13
0.244239
23
0.175547
33
4.640613
0
3DFACE
8
coconut_palm8_leaves
10
0.169916
20
1.020834
30
4.759779
11
0.348854
21
1.092385
31
4.671976
12
0.493556
22
0.708204
32
4.638341
13
0.317445
23
0.633725
33
4.732176
0
3DFACE
8
coconut_palm8_leaves
10
-0.009022
20
0.949284
30
4.847583
11
0.169916
21
1.020834
31
4.759779
12
0.317445
22
0.633725
32
4.732176
13
0.138062
23
0.558984
33
4.813693
0
3DFACE
8
coconut_palm8_leaves
10
-0.816750
20
1.403349
30
5.402620
11
-0.992798
21
1.541105
31
4.847267
12
-1.459977
22
1.802411
32
5.138905
13
-1.283930
23
1.664654
33
5.694257
0
3DFACE
8
coconut_palm8_leaves
10
-0.293766
20
1.178109
30
5.228635
11
-0.469813
21
1.315865
31
4.673283
12
-0.992798
22
1.541105
32
4.847267
13
-0.816750
23
1.403349
33
5.402620
0
3DFACE
8
coconut_palm8_leaves
10
0.099138
20
1.143468
30
4.532971
11
0.181393
21
0.951912
31
4.516313
12
-0.173286
22
0.759181
32
4.592595
13
-0.272028
23
0.936710
33
4.597991
0
3DFACE
8
coconut_palm8_leaves
10
0.181393
20
0.951912
30
4.516313
11
0.263647
21
0.760356
31
4.499656
12
-0.074619
22
0.570503
32
4.554758
13
-0.173286
23
0.759181
33
4.592595
0
3DFACE
8
coconut_palm8_leaves
10
-0.272028
20
0.936710
30
4.597991
11
-0.173286
21
0.759181
31
4.592595
12
-0.478946
22
0.490494
32
4.358553
13
-0.571519
23
0.644027
33
4.282713
0
3DFACE
8
coconut_palm8_leaves
10
-0.173286
20
0.759181
30
4.592595
11
-0.074619
21
0.570503
31
4.554758
12
-0.311082
22
0.318946
32
4.246015
13
-0.478946
23
0.490494
33
4.358553
0
3DFACE
8
coconut_palm8_leaves
10
-0.571519
20
0.644027
30
4.282713
11
-0.478946
21
0.490494
31
4.358553
12
-0.421920
22
0.291046
32
3.619378
13
-0.342010
23
0.534056
33
3.466808
0
3DFACE
8
coconut_palm8_leaves
10
-0.478946
20
0.490494
30
4.358553
11
-0.311082
21
0.318946
31
4.246015
12
-0.022259
22
0.265757
32
3.458069
13
-0.421920
23
0.291046
33
3.619378
0
3DFACE
8
coconut_palm8_leaves
10
0.100545
20
0.882821
30
4.619316
11
0.262240
21
1.021003
31
4.413310
12
-0.092438
22
0.828272
32
4.489592
13
-0.254133
23
0.690091
33
4.695600
0
3DFACE
8
coconut_palm8_leaves
10
-0.254133
20
0.690091
30
4.695600
11
-0.092438
21
0.828272
31
4.489592
12
-0.398098
22
0.559584
32
4.255549
13
-0.559793
23
0.421403
33
4.461556
0
3DFACE
8
coconut_palm8_leaves
10
-0.559793
20
0.421403
30
4.461556
11
-0.398098
21
0.559584
31
4.255549
12
-0.337908
22
0.371948
32
3.519114
13
-0.504667
23
0.214869
33
3.727317
0
3DFACE
8
coconut_palm8_leaves
10
0.113570
20
0.724519
30
4.713897
11
0.180310
21
0.958413
31
4.539279
12
0.750449
22
0.815529
32
4.555964
13
0.686801
23
0.577724
33
4.723529
0
3DFACE
8
coconut_palm8_leaves
10
0.180310
20
0.958413
30
4.539279
11
0.247050
21
1.192308
31
4.364659
12
0.812903
22
1.047314
32
4.373966
13
0.750449
23
0.815529
33
4.555964
0
3DFACE
8
coconut_palm8_leaves
10
0.686801
20
0.577724
30
4.723529
11
0.750449
21
0.815529
31
4.555964
12
1.308854
22
0.633633
32
4.476731
13
1.244904
23
0.380007
33
4.608075
0
3DFACE
8
coconut_palm8_leaves
10
0.750449
20
0.815529
30
4.555964
11
0.812903
21
1.047314
31
4.373966
12
1.356392
22
0.853695
32
4.259075
13
1.308854
23
0.633633
33
4.476731
0
3DFACE
8
coconut_palm8_leaves
10
1.244904
20
0.380007
30
4.608075
11
1.308854
21
0.633633
31
4.476731
12
1.821881
22
0.390856
32
4.231569
13
1.731877
23
0.106826
33
4.278010
0
3DFACE
8
coconut_palm8_leaves
10
1.308854
20
0.633633
30
4.476731
11
1.356392
21
0.853695
31
4.259075
12
1.822170
22
0.587784
32
3.932852
13
1.821881
23
0.390856
33
4.231569
0
3DFACE
8
coconut_palm8_leaves
10
0.294610
20
1.099307
30
4.767576
11
0.066011
21
0.817519
31
4.310982
12
0.636150
22
0.674635
32
4.327667
13
0.864749
23
0.956423
33
4.784262
0
3DFACE
8
coconut_palm8_leaves
10
0.864749
20
0.956423
30
4.784262
11
0.636150
21
0.674635
31
4.327667
12
1.194554
22
0.492739
32
4.248434
13
1.423153
23
0.774527
33
4.705029
0
3DFACE
8
coconut_palm8_leaves
10
1.423153
20
0.774527
30
4.705029
11
1.194554
21
0.492739
31
4.248434
12
1.707582
22
0.249962
32
4.003271
13
1.936181
23
0.531749
33
4.459866
0
3DFACE
8
coconut_palm8_leaves
10
0.015901
20
1.234800
30
4.846104
11
0.167281
21
1.036658
31
4.815678
12
-0.210636
22
0.720820
32
4.844790
13
-0.369312
23
0.909114
33
4.863892
0
3DFACE
8
coconut_palm8_leaves
10
0.167281
20
1.036658
30
4.815678
11
0.318661
21
0.838517
31
4.785252
12
-0.049010
22
0.527225
32
4.800847
13
-0.210636
23
0.720820
33
4.844790
0
3DFACE
8
coconut_palm8_leaves
10
-0.369312
20
0.909114
30
4.863892
11
-0.210636
21
0.720820
31
4.844790
12
-0.551467
22
0.374944
32
4.677616
13
-0.706395
23
0.546682
33
4.634034
0
3DFACE
8
coconut_palm8_leaves
10
-0.210636
20
0.720820
30
4.844790
11
-0.049010
21
0.527225
31
4.800847
12
-0.352484
22
0.195011
32
4.575146
13
-0.551467
23
0.374944
33
4.677616
0
3DFACE
8
coconut_palm8_leaves
10
-0.706395
20
0.546682
30
4.634034
11
-0.551467
21
0.374944
31
4.677616
12
-0.744161
22
0.055380
32
4.190053
13
-0.824782
23
0.250239
33
4.017202
0
3DFACE
8
coconut_palm8_leaves
10
-0.551467
20
0.374944
30
4.677616
11
-0.352484
21
0.195011
31
4.575146
12
-0.433146
22
-0.073885
32
3.932170
13
-0.744161
23
0.055380
33
4.190053
0
3DFACE
8
coconut_palm8_leaves
10
0.101658
20
0.941718
30
5.005665
11
0.232904
21
1.131599
31
4.625691
12
-0.145013
22
0.815760
32
4.654803
13
-0.276259
23
0.625879
33
5.034776
0
3DFACE
8
coconut_palm8_leaves
10
-0.276259
20
0.625879
30
5.034776
11
-0.145013
21
0.815760
31
4.654803
12
-0.485844
22
0.469884
32
4.487629
13
-0.617090
23
0.280003
33
4.867603
0
3DFACE
8
coconut_palm8_leaves
10
-0.617090
20
0.280003
30
4.867603
11
-0.485844
21
0.469884
31
4.487629
12
-0.680139
22
0.144343
32
3.984755
13
-0.809784
23
-0.039560
33
4.380039
0
3DFACE
8
coconut_palm8_leaves
10
0.386173
20
1.071455
30
4.752396
11
0.173878
21
0.997038
31
4.675721
12
0.031051
22
1.421749
32
4.544682
13
0.234472
23
1.511871
33
4.600173
0
3DFACE
8
coconut_palm8_leaves
10
0.173878
20
0.997038
30
4.675721
11
-0.038417
21
0.922622
31
4.599048
12
-0.176203
22
1.319812
32
4.457338
13
0.031051
23
1.421749
33
4.544682
0
3DFACE
8
coconut_palm8_leaves
10
0.234472
20
1.511871
30
4.600173
11
0.031051
21
1.421749
31
4.544682
12
-0.131488
22
1.714319
32
4.162720
13
0.058839
23
1.783542
33
4.133170
0
3DFACE
8
coconut_palm8_leaves
10
0.031051
20
1.421749
30
4.544682
11
-0.176203
21
1.319812
31
4.457338
12
-0.321903
22
1.516666
32
4.035119
13
-0.131488
23
1.714319
33
4.162720
0
3DFACE
8
coconut_palm8_leaves
10
0.058839
20
1.783542
30
4.133170
11
-0.131488
21
1.714319
31
4.162720
12
-0.247487
22
1.600423
32
3.496254
13
-0.027649
23
1.493015
33
3.385217
0
3DFACE
8
coconut_palm8_leaves
10
-0.131488
20
1.714319
30
4.162720
11
-0.321903
21
1.516666
31
4.035119
12
-0.361328
22
1.184762
32
3.435052
13
-0.247487
23
1.600423
33
3.496254
0
3DFACE
8
coconut_palm8_leaves
10
0.066774
20
1.131023
30
4.754930
11
0.280983
21
0.863054
31
4.596513
12
0.138156
22
1.287764
32
4.465473
13
-0.076053
23
1.555733
33
4.623891
0
3DFACE
8
coconut_palm8_leaves
10
-0.076053
20
1.555733
30
4.623891
11
0.138156
21
1.287764
31
4.465473
12
-0.024384
22
1.580333
32
4.083511
13
-0.238593
23
1.848303
33
4.241929
0
3DFACE
8
coconut_palm8_leaves
10
-0.238593
20
1.848303
30
4.241929
11
-0.024384
21
1.580333
31
4.083511
12
-0.140382
22
1.466438
32
3.417046
13
-0.354591
23
1.734408
33
3.575463
0
3DFACE
8
coconut_palm8_leaves
10
-0.050986
20
1.181852
30
4.771085
11
0.171144
21
1.013458
31
4.733725
12
-0.065579
22
0.616560
32
5.036423
13
-0.292543
23
0.774631
33
5.068750
0
3DFACE
8
coconut_palm8_leaves
10
0.171144
20
1.013458
30
4.733725
11
0.393274
21
0.845065
31
4.696365
12
0.157511
22
0.447486
32
4.986264
13
-0.065579
23
0.616560
33
5.036423
0
3DFACE
8
coconut_palm8_leaves
10
-0.292543
20
0.774631
30
5.068750
11
-0.065579
21
0.616560
31
5.036423
12
-0.325815
22
0.148439
32
5.208569
13
-0.564091
23
0.276181
33
5.197987
0
3DFACE
8
coconut_palm8_leaves
10
-0.065579
20
0.616560
30
5.036423
11
0.157511
21
0.447486
31
4.986264
12
-0.101880
22
-0.029963
32
5.103071
13
-0.325815
23
0.148439
33
5.208569
0
3DFACE
8
coconut_palm8_leaves
10
-0.564091
20
0.276181
30
5.197987
11
-0.325815
21
0.148439
31
5.208569
12
-0.600785
22
-0.397763
32
5.129975
13
-0.841855
23
-0.299653
33
4.996965
0
3DFACE
8
coconut_palm8_leaves
10
-0.325815
20
0.148439
30
5.208569
11
-0.101880
21
-0.029963
31
5.103071
12
-0.360777
22
-0.571397
32
4.891892
13
-0.600785
23
-0.397763
33
5.129975
0
3DFACE
8
coconut_palm8_leaves
10
0.230179
20
1.024303
30
4.991326
11
0.112109
21
1.002614
31
4.476124
12
-0.124614
22
0.605716
32
4.778822
13
-0.006544
23
0.627405
33
5.294024
0
3DFACE
8
coconut_palm8_leaves
10
-0.006544
20
0.627405
30
5.294024
11
-0.124614
21
0.605716
31
4.778822
12
-0.384851
22
0.137594
32
4.950968
13
-0.266780
23
0.159283
33
5.466169
0
3DFACE
8
coconut_palm8_leaves
10
-0.266780
20
0.159283
30
5.466169
11
-0.384851
21
0.137594
31
4.950968
12
-0.659821
22
-0.408608
32
4.872375
13
-0.541750
23
-0.386919
33
5.387576
0
3DFACE
8
coconut_palm8_leaves
10
-0.073009
20
0.919136
30
4.803116
11
0.173263
21
1.000735
31
4.688779
12
0.430684
22
0.548265
32
4.886676
13
0.186825
23
0.450587
33
4.984901
0
3DFACE
8
coconut_palm8_leaves
10
0.173263
20
1.000735
30
4.688779
11
0.419535
21
1.082334
31
4.574443
12
0.671099
22
0.627839
32
4.749135
13
0.430684
23
0.548265
33
4.886676
0
3DFACE
8
coconut_palm8_leaves
10
0.186825
20
0.450587
30
4.984901
11
0.430684
21
0.548265
31
4.886676
12
0.647790
22
-0.000414
32
4.799968
13
0.385122
23
-0.122878
33
4.795918
0
3DFACE
8
coconut_palm8_leaves
10
0.430684
20
0.548265
30
4.886676
11
0.671099
21
0.627839
31
4.749135
12
0.854023
22
0.085604
32
4.554725
13
0.647790
23
-0.000414
33
4.799968
0
3DFACE
8
coconut_palm8_leaves
10
0.385122
20
-0.122878
30
4.795918
11
0.647790
21
-0.000414
31
4.799968
12
0.698464
22
-0.502981
32
4.211229
13
0.316550
23
-0.550361
33
3.866660
0
3DFACE
8
coconut_palm8_leaves
10
0.647790
20
-0.000414
30
4.799968
11
0.854023
21
0.085604
31
4.554725
12
0.773882
22
-0.277048
32
3.661144
13
0.698464
23
-0.502981
33
4.211229
0
3DFACE
8
coconut_palm8_leaves
10
0.290315
20
0.954188
30
4.880907
11
0.056211
21
1.047282
31
4.496652
12
0.313631
22
0.594812
32
4.694549
13
0.547736
23
0.501718
33
5.078805
0
3DFACE
8
coconut_palm8_leaves
10
0.547736
20
0.501718
30
5.078805
11
0.313631
21
0.594812
31
4.694549
12
0.530738
22
0.046133
32
4.607841
13
0.764842
23
-0.046961
33
4.992096
0
3DFACE
8
coconut_palm8_leaves
10
0.764842
20
-0.046961
30
4.992096
11
0.530738
21
0.046133
31
4.607841
12
0.575249
22
-0.479436
32
3.946966
13
0.815517
23
-0.549528
33
4.403358
0
3DFACE
8
coconut_palm8_leaves
10
-0.015366
20
1.212391
30
4.610029
11
0.178560
21
0.968922
31
4.576401
12
-0.247749
22
0.557159
32
4.740439
13
-0.460470
23
0.772653
33
4.747616
0
3DFACE
8
coconut_palm8_leaves
10
0.178560
20
0.968922
30
4.576401
11
0.372486
21
0.725454
31
4.542774
12
-0.036992
22
0.319183
32
4.663417
13
-0.247749
23
0.557159
33
4.740439
0
3DFACE
8
coconut_palm8_leaves
10
-0.460470
20
0.772653
30
4.747616
11
-0.247749
21
0.557159
31
4.740439
12
-0.634797
22
0.055926
32
4.452456
13
-0.821088
23
0.248540
33
4.283441
0
3DFACE
8
coconut_palm8_leaves
10
-0.247749
20
0.557159
30
4.740439
11
-0.036992
21
0.319183
31
4.663417
12
-0.328872
22
-0.129755
32
4.202912
13
-0.634797
23
0.055926
33
4.452456
0
3DFACE
8
coconut_palm8_leaves
10
-0.821088
20
0.248540
30
4.283441
11
-0.634797
21
0.055926
31
4.452456
12
-0.623280
22
-0.180444
32
3.091228
13
-0.474244
23
0.392924
33
2.893735
0
3DFACE
8
coconut_palm8_leaves
10
-0.634797
20
0.055926
30
4.452456
11
-0.328872
21
-0.129755
31
4.202912
12
0.084835
22
0.118685
32
2.849554
13
-0.623280
23
-0.180444
33
3.091228
0
3DFACE
8
coconut_palm8_leaves
10
0.096440
20
0.841804
30
4.731959
11
0.260680
21
1.096041
31
4.420844
12
-0.165629
22
0.684278
32
4.584882
13
-0.329869
23
0.430041
33
4.895997
0
3DFACE
8
coconut_palm8_leaves
10
-0.329869
20
0.430041
30
4.895997
11
-0.165629
21
0.684278
31
4.584882
12
-0.552677
22
0.183045
32
4.296900
13
-0.716917
23
-0.071192
33
4.608015
0
3DFACE
8
coconut_palm8_leaves
10
-0.716917
20
-0.071192
30
4.608015
11
-0.552677
21
0.183045
31
4.296900
12
-0.527606
22
-0.002742
32
2.971078
13
-0.717205
23
-0.351620
33
3.231174
0
3DFACE
8
coconut_palm8_leaves
10
-0.023821
20
1.001407
30
4.887700
11
0.167584
21
1.034841
31
4.809259
12
0.261307
22
0.634766
32
4.830786
13
0.069227
23
0.592018
33
4.895543
0
3DFACE
8
coconut_palm8_leaves
10
0.167584
20
1.034841
30
4.809259
11
0.358988
21
1.068275
31
4.730817
12
0.447977
22
0.675233
32
4.736642
13
0.261307
23
0.634766
33
4.830786
0
3DFACE
8
coconut_palm8_leaves
10
0.069227
20
0.592018
30
4.895543
11
0.261307
21
0.634766
31
4.830786
12
0.294830
22
0.256100
32
4.577247
13
0.085997
23
0.224721
33
4.571459
0
3DFACE
8
coconut_palm8_leaves
10
0.261307
20
0.634766
30
4.830786
11
0.447977
21
0.675233
31
4.736642
12
0.458789
22
0.340339
32
4.418918
13
0.294830
23
0.256100
33
4.577247
0
3DFACE
8
coconut_palm8_leaves
10
0.085997
20
0.224721
30
4.571459
11
0.294830
21
0.256100
31
4.577247
12
0.186741
22
0.168741
32
3.943861
13
-0.075103
23
0.289652
33
3.842019
0
3DFACE
8
coconut_palm8_leaves
10
0.294830
20
0.256100
30
4.577247
11
0.458789
21
0.340339
31
4.418918
12
0.296733
22
0.445274
32
3.728070
13
0.186741
23
0.168741
33
3.943861
0
3DFACE
8
coconut_palm8_leaves
10
0.237339
20
0.931028
30
4.907134
11
0.097828
21
1.138654
31
4.711383
12
0.191552
22
0.738579
32
4.732910
13
0.331063
23
0.530953
33
4.928660
0
3DFACE
8
coconut_palm8_leaves
10
0.331063
20
0.530953
30
4.928660
11
0.191552
21
0.738579
31
4.732910
12
0.225075
22
0.359913
32
4.479372
13
0.364586
23
0.152288
33
4.675123
0
3DFACE
8
coconut_palm8_leaves
10
0.364586
20
0.152288
30
4.675123
11
0.225075
21
0.359913
31
4.479372
12
0.116028
22
0.268981
32
3.835799
13
0.256496
23
0.064928
33
4.041737
0
3DFACE
8
coconut_palm8_leaves
10
0.426774
20
0.926611
30
4.916046
11
0.169602
21
1.022723
31
4.766452
12
0.495535
22
1.422158
32
4.435774
13
0.755238
23
1.326640
33
4.572679
0
3DFACE
8
coconut_palm8_leaves
10
0.169602
20
1.022723
30
4.766452
11
-0.087571
21
1.118835
31
4.616858
12
0.231609
22
1.507407
32
4.282593
13
0.495535
23
1.422158
33
4.435774
0
3DFACE
8
coconut_palm8_leaves
10
0.755238
20
1.326640
30
4.572679
11
0.495535
21
1.422158
31
4.435774
12
0.791767
22
1.752844
32
4.004654
13
1.046184
23
1.637879
33
4.094583
0
3DFACE
8
coconut_palm8_leaves
10
0.495535
20
1.422158
30
4.435774
11
0.231609
21
1.507407
31
4.282593
12
0.504806
22
1.797640
32
3.825514
13
0.791767
23
1.752844
33
4.004654
0
3DFACE
8
coconut_palm8_leaves
10
1.046184
20
1.637879
30
4.094583
11
0.791767
21
1.752844
31
4.004654
12
1.017988
22
1.942350
32
3.421048
13
1.237069
23
1.754047
33
3.425601
0
3DFACE
8
coconut_palm8_leaves
10
0.791767
20
1.752844
30
4.004654
11
0.504806
21
1.797640
31
3.825514
12
0.671750
22
1.887807
32
3.194294
13
1.017988
23
1.942350
33
3.421048
0
3DFACE
8
coconut_palm8_leaves
10
0.174723
20
1.286442
30
4.914634
11
0.164480
21
0.759004
31
4.618270
12
0.490413
22
1.158439
32
4.287591
13
0.500657
23
1.685878
33
4.583955
0
3DFACE
8
coconut_palm8_leaves
10
0.500657
20
1.685878
30
4.583955
11
0.490413
21
1.158439
31
4.287591
12
0.786646
22
1.489125
32
3.856473
13
0.796889
23
2.016563
33
4.152836
0
3DFACE
8
coconut_palm8_leaves
10
0.796889
20
2.016563
30
4.152836
11
0.786646
21
1.489125
31
3.856473
12
1.012866
22
1.678630
32
3.272864
13
1.023110
23
2.206069
33
3.569229
0
3DFACE
8
coconut_palm8_leaves
10
0.363667
20
1.163816
30
4.789501
11
0.169801
21
1.021526
31
4.762223
12
-0.117018
22
1.311575
32
5.004933
13
0.057010
23
1.466296
33
5.032992
0
3DFACE
8
coconut_palm8_leaves
10
0.169801
20
1.021526
30
4.762223
11
-0.024066
21
0.879236
31
4.734944
12
-0.307435
22
1.157083
32
4.956460
13
-0.117018
23
1.311575
33
5.004933
0
3DFACE
8
coconut_palm8_leaves
10
0.057010
20
1.466296
30
5.032992
11
-0.117018
21
1.311575
31
5.004933
12
-0.520935
22
1.590060
32
5.074112
13
-0.397279
23
1.756210
33
5.061931
0
3DFACE
8
coconut_palm8_leaves
10
-0.117018
20
1.311575
30
5.004933
11
-0.307435
21
1.157083
31
4.956460
12
-0.707345
22
1.400591
32
4.957387
13
-0.520935
23
1.590060
33
5.074112
0
3DFACE
8
coconut_palm8_leaves
10
-0.397279
20
1.756210
30
5.061931
11
-0.520935
21
1.590060
31
5.074112
12
-0.991285
22
1.768296
32
4.848345
13
-0.869329
23
1.890540
33
4.741910
0
3DFACE
8
coconut_palm8_leaves
10
-0.520935
20
1.590060
30
5.074112
11
-0.707345
21
1.400591
31
4.957387
12
-1.096785
22
1.487161
32
4.642505
13
-0.991285
23
1.768296
33
4.848345
0
3DFACE
8
coconut_palm8_leaves
10
0.134460
20
0.994094
30
4.974885
11
0.205142
21
1.048958
31
4.549562
12
-0.081677
22
1.339008
32
4.792272
13
-0.152359
23
1.284143
33
5.217594
0
3DFACE
8
coconut_palm8_leaves
10
-0.152359
20
1.284143
30
5.217594
11
-0.081677
21
1.339008
31
4.792272
12
-0.485594
22
1.617492
32
4.861451
13
-0.556276
23
1.562627
33
5.286773
0
3DFACE
8
coconut_palm8_leaves
10
-0.556276
20
1.562627
30
5.286773
11
-0.485594
21
1.617492
31
4.861451
12
-0.955944
22
1.795729
32
4.635684
13
-1.026626
23
1.740863
33
5.061006
0
3DFACE
8
coconut_palm8_leaves
10
-0.077940
20
0.809109
30
4.664136
11
0.179341
21
0.964235
31
4.559843
12
0.473800
22
0.840897
32
5.095243
13
0.222458
23
0.674844
33
5.195527
0
3DFACE
8
coconut_palm8_leaves
10
0.179341
20
0.964235
30
4.559843
11
0.436622
21
1.119361
31
4.455549
12
0.735478
22
0.985693
32
4.984049
13
0.473800
23
0.840897
33
5.095243
0
3DFACE
8
coconut_palm8_leaves
10
0.222458
20
0.674844
30
5.195527
11
0.473800
21
0.840897
31
5.095243
12
0.827641
22
0.588423
32
5.555652
13
0.596337
23
0.374439
33
5.622989
0
3DFACE
8
coconut_palm8_leaves
10
0.473800
20
0.840897
30
5.095243
11
0.735478
21
0.985693
31
4.984049
12
1.106037
22
0.687145
32
5.406293
13
0.827641
23
0.588423
33
5.555652
0
3DFACE
8
coconut_palm8_leaves
10
0.596337
20
0.374439
30
5.622989
11
0.827641
21
0.588423
31
5.555652
12
1.243930
22
0.149862
32
5.848960
13
1.020105
23
-0.132009
33
5.816264
0
3DFACE
8
coconut_palm8_leaves
10
0.827641
20
0.588423
30
5.555652
11
1.106037
21
0.687145
31
5.406293
12
1.524801
22
0.184792
32
5.593977
13
1.243930
23
0.149862
33
5.848960
0
3DFACE
8
coconut_palm8_leaves
10
0.137089
20
1.177932
30
4.769386
11
0.221593
21
0.750538
31
4.350299
12
0.516052
22
0.627200
32
4.885701
13
0.431548
23
1.054593
33
5.304787
0
3DFACE
8
coconut_palm8_leaves
10
0.431548
20
1.054593
30
5.304787
11
0.516052
21
0.627200
31
4.885701
12
0.869893
22
0.374726
32
5.346108
13
0.785389
23
0.802119
33
5.765194
0
3DFACE
8
coconut_palm8_leaves
10
0.785389
20
0.802119
30
5.765194
11
0.869893
21
0.374726
31
5.346108
12
1.286181
22
-0.063835
32
5.639416
13
1.201678
23
0.363559
33
6.058503
0
3DFACE
8
coconut_palm8_leaves
10
0.418054
20
1.017796
30
4.897537
11
0.168698
21
1.028148
31
4.785616
12
0.312607
22
1.461774
32
4.505318
13
0.561955
23
1.451401
33
4.617315
0
3DFACE
8
coconut_palm8_leaves
10
0.168698
20
1.028148
30
4.785616
11
-0.080658
21
1.038500
31
4.673696
12
0.063275
22
1.472200
32
4.393413
13
0.312607
23
1.461774
33
4.505318
0
3DFACE
8
coconut_palm8_leaves
10
0.561955
20
1.451401
30
4.617315
11
0.312607
21
1.461774
31
4.505318
12
0.456628
22
1.895792
32
4.225685
13
0.705982
23
1.885460
33
4.337972
0
3DFACE
8
coconut_palm8_leaves
10
0.312607
20
1.461774
30
4.505318
11
0.063275
21
1.472200
31
4.393413
12
0.207365
22
1.906447
32
4.113948
13
0.456628
23
1.895792
33
4.225685
0
3DFACE
8
coconut_palm8_leaves
10
0.705982
20
1.885460
30
4.337972
11
0.456628
21
1.895792
31
4.225685
12
0.600842
22
2.330497
32
3.947218
13
0.850241
23
2.320346
33
4.060146
0
3DFACE
8
coconut_palm8_leaves
10
0.456628
20
1.895792
30
4.225685
11
0.207365
21
1.906447
31
4.113948
12
0.351718
22
2.341617
32
3.835940
13
0.600842
23
2.330497
33
3.947218
0
3DFACE
8
coconut_palm8_leaves
10
0.082970
20
1.188944
30
4.991487
11
0.254426
21
0.867352
31
4.579746
12
0.398335
22
1.300977
32
4.299448
13
0.226879
23
1.622570
33
4.711188
0
3DFACE
8
coconut_palm8_leaves
10
0.226879
20
1.622570
30
4.711188
11
0.398335
21
1.300977
31
4.299448
12
0.542355
22
1.734996
32
4.019814
13
0.370900
23
2.056588
33
4.431556
0
3DFACE
8
coconut_palm8_leaves
10
0.370900
20
2.056588
30
4.431556
11
0.542355
21
1.734996
31
4.019814
12
0.686570
22
2.169701
32
3.741347
13
0.515115
23
2.491293
33
4.153089
0
3DFACE
8
coconut_palm8_leaves
10
0.270515
20
1.326409
30
4.879883
11
0.165840
21
1.045311
31
4.846243
12
-0.381790
22
1.246987
32
4.950959
13
-0.269506
23
1.527789
33
4.988826
0
3DFACE
8
coconut_palm8_leaves
10
0.165840
20
1.045311
30
4.846243
11
0.061166
21
0.764214
31
4.812605
12
-0.490632
22
0.969871
32
4.923662
13
-0.381790
23
1.246987
33
4.950959
0
3DFACE
8
coconut_palm8_leaves
10
-0.269506
20
1.527789
30
4.988826
11
-0.381790
21
1.246987
31
4.950959
12
-0.904774
22
1.472227
32
5.124944
13
-0.769970
23
1.756785
33
5.185815
0
3DFACE
8
coconut_palm8_leaves
10
-0.381790
20
1.246987
30
4.950959
11
-0.490632
21
0.969871
31
4.923662
12
-1.014141
22
1.207915
32
5.126330
13
-0.904774
23
1.472227
33
5.124944
0
3DFACE
8
coconut_palm8_leaves
10
-0.769970
20
1.756785
30
5.185815
11
-0.904774
21
1.472227
31
5.124944
12
-1.371954
22
1.733533
32
5.416580
13
-1.184912
23
2.026445
33
5.530002
0
3DFACE
8
coconut_palm8_leaves
10
-0.904774
20
1.472227
30
5.124944
11
-1.014141
21
1.207915
31
5.126330
12
-1.462041
22
1.492254
32
5.482580
13
-1.371954
23
1.733533
33
5.416580
0
3DFACE
8
coconut_palm8_leaves
10
0.253864
20
0.976433
30
5.123919
11
0.077817
21
1.114189
31
4.568567
12
-0.469813
22
1.315865
32
4.673283
13
-0.293766
23
1.178109
33
5.228635
0
3DFACE
8
coconut_palm8_coconuts
10
0.207450
20
1.056129
30
4.634066
11
0.224965
21
1.076064
31
4.635422
12
0.232155
22
1.061226
32
4.625714
13
0.232155
23
1.061226
33
4.625714
0
3DFACE
8
coconut_palm8_coconuts
10
0.224965
20
1.076064
30
4.635422
11
0.237223
21
1.100318
31
4.621231
12
0.249676
22
1.074618
32
4.604416
13
0.232155
23
1.061226
33
4.625714
0
3DFACE
8
coconut_palm8_coconuts
10
0.237223
20
1.100318
30
4.621231
11
0.240939
21
1.122393
31
4.595296
12
0.255318
22
1.092717
32
4.575879
13
0.249676
23
1.074618
33
4.604416
0
3DFACE
8
coconut_palm8_coconuts
10
0.240939
20
1.122393
30
4.595296
11
0.235117
21
1.136373
31
4.564564
12
0.247569
22
1.110673
32
4.547749
13
0.255318
23
1.092717
33
4.575879
0
3DFACE
8
coconut_palm8_coconuts
10
0.235117
20
1.136373
30
4.564564
11
0.221317
21
1.138512
31
4.537271
12
0.228506
22
1.123674
32
4.527563
13
0.247569
23
1.110673
33
4.547749
0
3DFACE
8
coconut_palm8_coconuts
10
0.221317
20
1.138512
30
4.537271
11
0.203237
21
1.128238
31
4.520730
12
0.228506
22
1.123674
32
4.527563
13
0.228506
23
1.123674
33
4.527563
0
3DFACE
8
coconut_palm8_coconuts
10
0.207450
20
1.056129
30
4.634066
11
0.207350
21
1.082054
31
4.639888
12
0.224965
22
1.076064
32
4.635422
13
0.224965
23
1.076064
33
4.635422
0
3DFACE
8
coconut_palm8_coconuts
10
0.207350
20
1.082054
30
4.639888
11
0.206713
21
1.110693
31
4.628966
12
0.237223
22
1.100318
32
4.621231
13
0.224965
23
1.076064
33
4.635422
0
3DFACE
8
coconut_palm8_coconuts
10
0.206713
20
1.110693
30
4.628966
11
0.205708
21
1.134373
31
4.604227
12
0.240939
22
1.122393
32
4.595296
13
0.237223
23
1.100318
33
4.621231
0
3DFACE
8
coconut_palm8_coconuts
10
0.205708
20
1.134373
30
4.604227
11
0.204606
21
1.146748
31
4.572299
12
0.235117
22
1.136373
32
4.564564
13
0.240939
23
1.122393
33
4.595296
0
3DFACE
8
coconut_palm8_coconuts
10
0.204606
20
1.146748
30
4.572299
11
0.203702
21
1.144502
31
4.541737
12
0.221317
22
1.138512
32
4.537271
13
0.235117
23
1.136373
33
4.564564
0
3DFACE
8
coconut_palm8_coconuts
10
0.203702
20
1.144502
30
4.541737
11
0.203237
21
1.128238
31
4.520730
12
0.221317
22
1.138512
32
4.537271
13
0.221317
23
1.138512
33
4.537271
0
3DFACE
8
coconut_palm8_coconuts
10
0.207450
20
1.056129
30
4.634066
11
0.189628
21
1.075687
31
4.636496
12
0.207350
22
1.082054
32
4.639888
13
0.207350
23
1.082054
33
4.639888
0
3DFACE
8
coconut_palm8_coconuts
10
0.189628
20
1.075687
30
4.636496
11
0.176018
21
1.099665
31
4.623091
12
0.206713
22
1.110693
32
4.628966
13
0.207350
23
1.082054
33
4.639888
0
3DFACE
8
coconut_palm8_coconuts
10
0.176018
20
1.099665
30
4.623091
11
0.170265
21
1.121639
31
4.597443
12
0.205708
22
1.134373
32
4.604227
13
0.206713
23
1.110693
33
4.628966
0
3DFACE
8
coconut_palm8_coconuts
10
0.170265
20
1.121639
30
4.597443
11
0.173911
21
1.135720
31
4.566423
12
0.204606
22
1.146748
32
4.572299
13
0.205708
23
1.134373
33
4.604227
0
3DFACE
8
coconut_palm8_coconuts
10
0.173911
20
1.135720
30
4.566423
11
0.185980
21
1.138135
31
4.538344
12
0.203702
22
1.144502
32
4.541737
13
0.204606
23
1.146748
33
4.572299
0
3DFACE
8
coconut_palm8_coconuts
10
0.185980
20
1.138135
30
4.538344
11
0.203237
21
1.128238
31
4.520730
12
0.203702
22
1.144502
32
4.541737
13
0.203702
23
1.144502
33
4.541737
0
3DFACE
8
coconut_palm8_coconuts
10
0.207450
20
1.056129
30
4.634066
11
0.182181
21
1.060692
31
4.627232
12
0.189628
22
1.075687
32
4.636496
13
0.189628
23
1.075687
33
4.636496
0
3DFACE
8
coconut_palm8_coconuts
10
0.182181
20
1.060692
30
4.627232
11
0.163118
21
1.073694
31
4.607046
12
0.176018
22
1.099665
32
4.623091
13
0.189628
23
1.075687
33
4.636496
0
3DFACE
8
coconut_palm8_coconuts
10
0.163118
20
1.073694
30
4.607046
11
0.155370
21
1.091650
31
4.578916
12
0.170265
22
1.121639
32
4.597443
13
0.176018
23
1.099665
33
4.623091
0
3DFACE
8
coconut_palm8_coconuts
10
0.155370
20
1.091650
30
4.578916
11
0.161012
21
1.109749
31
4.550379
12
0.173911
22
1.135720
32
4.566423
13
0.170265
23
1.121639
33
4.597443
0
3DFACE
8
coconut_palm8_coconuts
10
0.161012
20
1.109749
30
4.550379
11
0.178532
21
1.123141
31
4.529081
12
0.185980
22
1.138135
32
4.538344
13
0.173911
23
1.135720
33
4.566423
0
3DFACE
8
coconut_palm8_coconuts
10
0.178532
20
1.123141
30
4.529081
11
0.203237
21
1.128238
31
4.520730
12
0.185980
22
1.138135
32
4.538344
13
0.185980
23
1.138135
33
4.538344
0
3DFACE
8
coconut_palm8_coconuts
10
0.207450
20
1.056129
30
4.634066
11
0.189371
21
1.045854
31
4.617524
12
0.182181
22
1.060692
32
4.627232
13
0.182181
23
1.060692
33
4.627232
0
3DFACE
8
coconut_palm8_coconuts
10
0.189371
20
1.045854
30
4.617524
11
0.175571
21
1.047993
31
4.590231
12
0.163118
22
1.073694
32
4.607046
13
0.182181
23
1.060692
33
4.627232
0
3DFACE
8
coconut_palm8_coconuts
10
0.175571
20
1.047993
30
4.590231
11
0.169749
21
1.061973
31
4.559500
12
0.155370
22
1.091650
32
4.578916
13
0.163118
23
1.073694
33
4.607046
0
3DFACE
8
coconut_palm8_coconuts
10
0.169749
20
1.061973
30
4.559500
11
0.173464
21
1.084048
31
4.533564
12
0.161012
22
1.109749
32
4.550379
13
0.155370
23
1.091650
33
4.578916
0
3DFACE
8
coconut_palm8_coconuts
10
0.173464
20
1.084048
30
4.533564
11
0.185722
21
1.108302
31
4.519373
12
0.178532
22
1.123141
32
4.529081
13
0.161012
23
1.109749
33
4.550379
0
3DFACE
8
coconut_palm8_coconuts
10
0.185722
20
1.108302
30
4.519373
11
0.203237
21
1.128238
31
4.520730
12
0.178532
22
1.123141
32
4.529081
13
0.178532
23
1.123141
33
4.529081
0
3DFACE
8
coconut_palm8_coconuts
10
0.207450
20
1.056129
30
4.634066
11
0.206986
21
1.039864
31
4.613058
12
0.189371
22
1.045854
32
4.617524
13
0.189371
23
1.045854
33
4.617524
0
3DFACE
8
coconut_palm8_coconuts
10
0.206986
20
1.039864
30
4.613058
11
0.206081
21
1.037618
31
4.582496
12
0.175571
22
1.047993
32
4.590231
13
0.189371
23
1.045854
33
4.617524
0
3DFACE
8
coconut_palm8_coconuts
10
0.206081
20
1.037618
30
4.582496
11
0.204979
21
1.049993
31
4.550568
12
0.169749
22
1.061973
32
4.559500
13
0.175571
23
1.047993
33
4.590231
0
3DFACE
8
coconut_palm8_coconuts
10
0.204979
20
1.049993
30
4.550568
11
0.203974
21
1.073673
31
4.525828
12
0.173464
22
1.084048
32
4.533564
13
0.169749
23
1.061973
33
4.559500
0
3DFACE
8
coconut_palm8_coconuts
10
0.203974
20
1.073673
30
4.525828
11
0.203337
21
1.102312
31
4.514907
12
0.185722
22
1.108302
32
4.519373
13
0.173464
23
1.084048
33
4.533564
0
3DFACE
8
coconut_palm8_coconuts
10
0.203337
20
1.102312
30
4.514907
11
0.203237
21
1.128238
31
4.520730
12
0.185722
22
1.108302
32
4.519373
13
0.185722
23
1.108302
33
4.519373
0
3DFACE
8
coconut_palm8_coconuts
10
0.207450
20
1.056129
30
4.634066
11
0.224708
21
1.046231
31
4.616450
12
0.206986
22
1.039864
32
4.613058
13
0.206986
23
1.039864
33
4.613058
0
3DFACE
8
coconut_palm8_coconuts
10
0.224708
20
1.046231
30
4.616450
11
0.236776
21
1.048646
31
4.588372
12
0.206081
22
1.037618
32
4.582496
13
0.206986
23
1.039864
33
4.613058
0
3DFACE
8
coconut_palm8_coconuts
10
0.236776
20
1.048646
30
4.588372
11
0.240423
21
1.062727
31
4.557353
12
0.204979
22
1.049993
32
4.550568
13
0.206081
23
1.037618
33
4.582496
0
3DFACE
8
coconut_palm8_coconuts
10
0.240423
20
1.062727
30
4.557353
11
0.234670
21
1.084701
31
4.531704
12
0.203974
22
1.073673
32
4.525828
13
0.204979
23
1.049993
33
4.550568
0
3DFACE
8
coconut_palm8_coconuts
10
0.234670
20
1.084701
30
4.531704
11
0.221059
21
1.108680
31
4.518300
12
0.203337
22
1.102312
32
4.514907
13
0.203974
23
1.073673
33
4.525828
0
3DFACE
8
coconut_palm8_coconuts
10
0.221059
20
1.108680
30
4.518300
11
0.203237
21
1.128238
31
4.520730
12
0.203337
22
1.102312
32
4.514907
13
0.203337
23
1.102312
33
4.514907
0
3DFACE
8
coconut_palm8_coconuts
10
0.207450
20
1.056129
30
4.634066
11
0.232155
21
1.061226
31
4.625714
12
0.224708
22
1.046231
32
4.616450
13
0.224708
23
1.046231
33
4.616450
0
3DFACE
8
coconut_palm8_coconuts
10
0.232155
20
1.061226
30
4.625714
11
0.249676
21
1.074618
31
4.604416
12
0.236776
22
1.048646
32
4.588372
13
0.224708
23
1.046231
33
4.616450
0
3DFACE
8
coconut_palm8_coconuts
10
0.249676
20
1.074618
30
4.604416
11
0.255318
21
1.092717
31
4.575879
12
0.240423
22
1.062727
32
4.557353
13
0.236776
23
1.048646
33
4.588372
0
3DFACE
8
coconut_palm8_coconuts
10
0.255318
20
1.092717
30
4.575879
11
0.247569
21
1.110673
31
4.547749
12
0.234670
22
1.084701
32
4.531704
13
0.240423
23
1.062727
33
4.557353
0
3DFACE
8
coconut_palm8_coconuts
10
0.247569
20
1.110673
30
4.547749
11
0.228506
21
1.123674
31
4.527563
12
0.221059
22
1.108680
32
4.518300
13
0.234670
23
1.084701
33
4.531704
0
3DFACE
8
coconut_palm8_coconuts
10
0.228506
20
1.123674
30
4.527563
11
0.203237
21
1.128238
31
4.520730
12
0.221059
22
1.108680
32
4.518300
13
0.221059
23
1.108680
33
4.518300
0
3DFACE
8
coconut_palm8_coconuts
10
0.322505
20
0.899902
30
4.672234
11
0.310446
21
0.895356
31
4.658091
12
0.309048
22
0.877701
32
4.677900
13
0.309048
23
0.877701
33
4.677900
0
3DFACE
8
coconut_palm8_coconuts
10
0.322505
20
0.899902
30
4.672234
11
0.322300
21
0.930558
31
4.672032
12
0.301412
22
0.922686
32
4.647535
13
0.310446
23
0.895356
33
4.658091
0
3DFACE
8
coconut_palm8_coconuts
10
0.322300
20
0.930558
30
4.672032
11
0.308486
21
0.961457
31
4.677348
12
0.284368
22
0.952366
32
4.649061
13
0.301412
23
0.922686
33
4.647535
0
3DFACE
8
coconut_palm8_coconuts
10
0.308486
20
0.961457
30
4.677348
11
0.284766
21
0.984318
31
4.686757
12
0.263879
22
0.976445
32
4.662261
13
0.284368
23
0.952366
33
4.649061
0
3DFACE
8
coconut_palm8_coconuts
10
0.284766
20
0.984318
30
4.686757
11
0.257496
21
0.993016
31
4.697739
12
0.245437
22
0.988470
32
4.683595
13
0.263879
23
0.976445
33
4.662261
0
3DFACE
8
coconut_palm8_coconuts
10
0.257496
20
0.993016
30
4.697739
11
0.233982
21
0.985220
31
4.707350
12
0.245437
22
0.988470
32
4.683595
13
0.245437
23
0.988470
33
4.683595
0
3DFACE
8
coconut_palm8_coconuts
10
0.310446
20
0.895356
30
4.658091
11
0.294622
21
0.884688
31
4.656707
12
0.309048
22
0.877701
32
4.677900
13
0.309048
23
0.877701
33
4.677900
0
3DFACE
8
coconut_palm8_coconuts
10
0.310446
20
0.895356
30
4.658091
11
0.301412
21
0.922686
31
4.647535
12
0.274005
22
0.904207
32
4.645139
13
0.294622
23
0.884688
33
4.656707
0
3DFACE
8
coconut_palm8_coconuts
10
0.301412
20
0.922686
30
4.647535
11
0.284368
21
0.952366
31
4.649061
12
0.252720
22
0.931029
32
4.646294
13
0.274005
23
0.904207
33
4.645139
0
3DFACE
8
coconut_palm8_coconuts
10
0.284368
20
0.952366
30
4.649061
11
0.263879
21
0.976445
31
4.662261
12
0.236472
22
0.957966
32
4.659863
13
0.252720
23
0.931029
33
4.646294
0
3DFACE
8
coconut_palm8_coconuts
10
0.263879
20
0.976445
30
4.662261
11
0.245437
21
0.988470
31
4.683595
12
0.229613
22
0.977802
32
4.682212
13
0.236472
23
0.957966
33
4.659863
0
3DFACE
8
coconut_palm8_coconuts
10
0.245437
20
0.988470
30
4.683595
11
0.233982
21
0.985220
31
4.707350
12
0.229613
22
0.977802
32
4.682212
13
0.229613
23
0.977802
33
4.682212
0
3DFACE
8
coconut_palm8_coconuts
10
0.294622
20
0.884688
30
4.656707
11
0.284304
21
0.874146
31
4.668893
12
0.309048
22
0.877701
32
4.677900
13
0.309048
23
0.877701
33
4.677900
0
3DFACE
8
coconut_palm8_coconuts
10
0.294622
20
0.884688
30
4.656707
11
0.274005
21
0.904207
31
4.645139
12
0.256132
22
0.885948
32
4.666246
13
0.284304
23
0.874146
33
4.668893
0
3DFACE
8
coconut_palm8_coconuts
10
0.274005
20
0.904207
30
4.645139
11
0.252720
21
0.931029
31
4.646294
12
0.232083
22
0.909945
32
4.670666
13
0.256132
23
0.885948
33
4.666246
0
3DFACE
8
coconut_palm8_coconuts
10
0.252720
20
0.931029
30
4.646294
11
0.236472
21
0.957966
31
4.659863
12
0.218599
22
0.939707
32
4.680972
13
0.232083
23
0.909945
33
4.670666
0
3DFACE
8
coconut_palm8_coconuts
10
0.236472
20
0.957966
30
4.659863
11
0.229613
21
0.977802
31
4.682212
12
0.219295
22
0.967260
32
4.694398
13
0.218599
23
0.939707
33
4.680972
0
3DFACE
8
coconut_palm8_coconuts
10
0.229613
20
0.977802
30
4.682212
11
0.233982
21
0.985220
31
4.707350
12
0.219295
22
0.967260
32
4.694398
13
0.219295
23
0.967260
33
4.694398
0
3DFACE
8
coconut_palm8_coconuts
10
0.284304
20
0.874146
30
4.668893
11
0.285534
21
0.869905
31
4.687511
12
0.309048
22
0.877701
32
4.677900
13
0.309048
23
0.877701
33
4.677900
0
3DFACE
8
coconut_palm8_coconuts
10
0.284304
20
0.874146
30
4.668893
11
0.256132
21
0.885948
31
4.666246
12
0.258264
22
0.878603
32
4.698493
13
0.285534
23
0.869905
33
4.687511
0
3DFACE
8
coconut_palm8_coconuts
10
0.256132
20
0.885948
30
4.666246
11
0.232083
21
0.909945
31
4.670666
12
0.234545
22
0.901464
32
4.707902
13
0.258264
23
0.878603
33
4.698493
0
3DFACE
8
coconut_palm8_coconuts
10
0.232083
20
0.909945
30
4.670666
11
0.218599
21
0.939707
31
4.680972
12
0.220731
22
0.932363
32
4.713218
13
0.234545
23
0.901464
33
4.707902
0
3DFACE
8
coconut_palm8_coconuts
10
0.218599
20
0.939707
30
4.680972
11
0.219295
21
0.967260
31
4.694398
12
0.220525
22
0.963019
32
4.713016
13
0.220731
23
0.932363
33
4.713218
0
3DFACE
8
coconut_palm8_coconuts
10
0.219295
20
0.967260
30
4.694398
11
0.233982
21
0.985220
31
4.707350
12
0.220525
22
0.963019
32
4.713016
13
0.220525
23
0.963019
33
4.713016
0
3DFACE
8
coconut_palm8_coconuts
10
0.285534
20
0.869905
30
4.687511
11
0.297594
21
0.874451
31
4.701655
12
0.309048
22
0.877701
32
4.677900
13
0.309048
23
0.877701
33
4.677900
0
3DFACE
8
coconut_palm8_coconuts
10
0.285534
20
0.869905
30
4.687511
11
0.258264
21
0.878603
31
4.698493
12
0.279151
22
0.886477
32
4.722990
13
0.297594
23
0.874451
33
4.701655
0
3DFACE
8
coconut_palm8_coconuts
10
0.258264
20
0.878603
30
4.698493
11
0.234545
21
0.901464
31
4.707902
12
0.258663
22
0.910555
32
4.736188
13
0.279151
23
0.886477
33
4.722990
0
3DFACE
8
coconut_palm8_coconuts
10
0.234545
20
0.901464
30
4.707902
11
0.220731
21
0.932363
31
4.713218
12
0.241618
22
0.940236
32
4.737715
13
0.258663
23
0.910555
33
4.736188
0
3DFACE
8
coconut_palm8_coconuts
10
0.220731
20
0.932363
30
4.713218
11
0.220525
21
0.963019
31
4.713016
12
0.232585
22
0.967565
32
4.727159
13
0.241618
23
0.940236
33
4.737715
0
3DFACE
8
coconut_palm8_coconuts
10
0.220525
20
0.963019
30
4.713016
11
0.233982
21
0.985220
31
4.707350
12
0.232585
22
0.967565
32
4.727159
13
0.232585
23
0.967565
33
4.727159
0
3DFACE
8
coconut_palm8_coconuts
10
0.297594
20
0.874451
30
4.701655
11
0.313417
21
0.885119
31
4.703038
12
0.309048
22
0.877701
32
4.677900
13
0.309048
23
0.877701
33
4.677900
0
3DFACE
8
coconut_palm8_coconuts
10
0.297594
20
0.874451
30
4.701655
11
0.279151
21
0.886477
31
4.722990
12
0.306559
22
0.904955
32
4.725387
13
0.313417
23
0.885119
33
4.703038
0
3DFACE
8
coconut_palm8_coconuts
10
0.279151
20
0.886477
30
4.722990
11
0.258663
21
0.910555
31
4.736188
12
0.290310
22
0.931892
32
4.738956
13
0.306559
23
0.904955
33
4.725387
0
3DFACE
8
coconut_palm8_coconuts
10
0.258663
20
0.910555
30
4.736188
11
0.241618
21
0.940236
31
4.737715
12
0.269026
22
0.958714
32
4.740111
13
0.290310
23
0.931892
33
4.738956
0
3DFACE
8
coconut_palm8_coconuts
10
0.241618
20
0.940236
30
4.737715
11
0.232585
21
0.967565
31
4.727159
12
0.248408
22
0.978233
32
4.728543
13
0.269026
23
0.958714
33
4.740111
0
3DFACE
8
coconut_palm8_coconuts
10
0.232585
20
0.967565
30
4.727159
11
0.233982
21
0.985220
31
4.707350
12
0.248408
22
0.978233
32
4.728543
13
0.248408
23
0.978233
33
4.728543
0
3DFACE
8
coconut_palm8_coconuts
10
0.313417
20
0.885119
30
4.703038
11
0.323736
21
0.895662
31
4.690852
12
0.309048
22
0.877701
32
4.677900
13
0.309048
23
0.877701
33
4.677900
0
3DFACE
8
coconut_palm8_coconuts
10
0.313417
20
0.885119
30
4.703038
11
0.306559
21
0.904955
31
4.725387
12
0.324431
22
0.923214
32
4.704279
13
0.323736
23
0.895662
33
4.690852
0
3DFACE
8
coconut_palm8_coconuts
10
0.306559
20
0.904955
30
4.725387
11
0.290310
21
0.931892
31
4.738956
12
0.310947
22
0.952976
32
4.714583
13
0.324431
23
0.923214
33
4.704279
0
3DFACE
8
coconut_palm8_coconuts
10
0.290310
20
0.931892
30
4.738956
11
0.269026
21
0.958714
31
4.740111
12
0.286898
22
0.976973
32
4.719004
13
0.310947
23
0.952976
33
4.714583
0
3DFACE
8
coconut_palm8_coconuts
10
0.269026
20
0.958714
30
4.740111
11
0.248408
21
0.978233
31
4.728543
12
0.258727
22
0.988775
32
4.716356
13
0.286898
23
0.976973
33
4.719004
0
3DFACE
8
coconut_palm8_coconuts
10
0.248408
20
0.978233
30
4.728543
11
0.233982
21
0.985220
31
4.707350
12
0.258727
22
0.988775
32
4.716356
13
0.258727
23
0.988775
33
4.716356
0
3DFACE
8
coconut_palm8_coconuts
10
0.323736
20
0.895662
30
4.690852
11
0.322505
21
0.899902
31
4.672234
12
0.309048
22
0.877701
32
4.677900
13
0.309048
23
0.877701
33
4.677900
0
3DFACE
8
coconut_palm8_coconuts
10
0.323736
20
0.895662
30
4.690852
11
0.324431
21
0.923214
31
4.704279
12
0.322300
22
0.930558
32
4.672032
13
0.322505
23
0.899902
33
4.672234
0
3DFACE
8
coconut_palm8_coconuts
10
0.324431
20
0.923214
30
4.704279
11
0.310947
21
0.952976
31
4.714583
12
0.308486
22
0.961457
32
4.677348
13
0.322300
23
0.930558
33
4.672032
0
3DFACE
8
coconut_palm8_coconuts
10
0.310947
20
0.952976
30
4.714583
11
0.286898
21
0.976973
31
4.719004
12
0.284766
22
0.984318
32
4.686757
13
0.308486
23
0.961457
33
4.677348
0
3DFACE
8
coconut_palm8_coconuts
10
0.286898
20
0.976973
30
4.719004
11
0.258727
21
0.988775
31
4.716356
12
0.257496
22
0.993016
32
4.697739
13
0.284766
23
0.984318
33
4.686757
0
3DFACE
8
coconut_palm8_coconuts
10
0.258727
20
0.988775
30
4.716356
11
0.233982
21
0.985220
31
4.707350
12
0.257496
22
0.993016
32
4.697739
13
0.257496
23
0.993016
33
4.697739
0
3DFACE
8
coconut_palm8_coconuts
10
-0.009722
20
0.876969
30
4.526619
11
-0.006027
21
0.873037
31
4.508261
12
-0.027955
22
0.887854
32
4.510646
13
-0.027955
23
0.887854
33
4.510646
0
3DFACE
8
coconut_palm8_coconuts
10
-0.009722
20
0.876969
30
4.526619
11
0.018211
21
0.879536
31
4.538990
12
0.024610
22
0.872726
32
4.507195
13
-0.006027
23
0.873037
33
4.508261
0
3DFACE
8
coconut_palm8_coconuts
10
0.018211
20
0.879536
30
4.538990
11
0.048359
21
0.894867
31
4.544447
12
0.055749
22
0.887006
32
4.507734
13
0.024610
23
0.872726
33
4.507195
0
3DFACE
8
coconut_palm8_coconuts
10
0.048359
20
0.894867
30
4.544447
11
0.072645
21
0.918856
31
4.541527
12
0.079045
22
0.912048
32
4.509732
13
0.055749
23
0.887006
33
4.507734
0
3DFACE
8
coconut_palm8_coconuts
10
0.072645
20
0.918856
30
4.541527
11
0.084561
21
0.945074
31
4.531012
12
0.088256
22
0.941142
32
4.512654
13
0.079045
23
0.912048
33
4.509732
0
3DFACE
8
coconut_palm8_coconuts
10
0.084561
20
0.945074
30
4.531012
11
0.080914
21
0.966495
31
4.515718
12
0.088256
22
0.941142
32
4.512654
13
0.088256
23
0.941142
33
4.512654
0
3DFACE
8
coconut_palm8_coconuts
10
-0.006027
20
0.873037
30
4.508261
11
-0.010906
21
0.880871
31
4.491500
12
-0.027955
22
0.887854
32
4.510646
13
-0.027955
23
0.887854
33
4.510646
0
3DFACE
8
coconut_palm8_coconuts
10
-0.006027
20
0.873037
30
4.508261
11
0.024610
21
0.872726
31
4.507195
12
0.016162
22
0.886295
32
4.478162
13
-0.010906
23
0.880871
33
4.491500
0
3DFACE
8
coconut_palm8_coconuts
10
0.024610
20
0.872726
30
4.507195
11
0.055749
21
0.887006
31
4.507734
12
0.045993
22
0.902672
32
4.474207
13
0.016162
23
0.886295
33
4.478162
0
3DFACE
8
coconut_palm8_coconuts
10
0.055749
20
0.887006
30
4.507734
11
0.079045
21
0.912048
31
4.509732
12
0.070596
22
0.925615
32
4.480698
13
0.045993
23
0.902672
33
4.474207
0
3DFACE
8
coconut_palm8_coconuts
10
0.079045
20
0.912048
30
4.509732
11
0.088256
21
0.941142
31
4.512654
12
0.083378
22
0.948976
32
4.495893
13
0.070596
23
0.925615
33
4.480698
0
3DFACE
8
coconut_palm8_coconuts
10
0.088256
20
0.941142
30
4.512654
11
0.080914
21
0.966495
31
4.515718
12
0.083378
22
0.948976
32
4.495893
13
0.083378
23
0.948976
33
4.495893
0
3DFACE
8
coconut_palm8_coconuts
10
-0.010906
20
0.880871
30
4.491500
11
-0.021499
21
0.895880
31
4.486152
12
-0.027955
22
0.887854
32
4.510646
13
-0.027955
23
0.887854
33
4.510646
0
3DFACE
8
coconut_palm8_coconuts
10
-0.010906
20
0.880871
30
4.491500
11
0.016162
21
0.886295
31
4.478162
12
-0.002187
22
0.912292
32
4.468899
13
-0.021499
23
0.895880
33
4.486152
0
3DFACE
8
coconut_palm8_coconuts
10
0.016162
20
0.886295
30
4.478162
11
0.045993
21
0.902672
31
4.474207
12
0.024806
22
0.932694
32
4.463516
13
-0.002187
23
0.912292
33
4.468899
0
3DFACE
8
coconut_palm8_coconuts
10
0.045993
20
0.902672
30
4.474207
11
0.070596
21
0.925615
31
4.480698
12
0.052248
22
0.951614
32
4.471437
13
0.024806
23
0.932694
33
4.463516
0
3DFACE
8
coconut_palm8_coconuts
10
0.070596
20
0.925615
30
4.480698
11
0.083378
21
0.948976
31
4.495893
12
0.072785
22
0.963986
32
4.490543
13
0.052248
23
0.951614
33
4.471437
0
3DFACE
8
coconut_palm8_coconuts
10
0.083378
20
0.948976
30
4.495893
11
0.080914
21
0.966495
31
4.515718
12
0.072785
22
0.963986
32
4.490543
13
0.072785
23
0.963986
33
4.490543
0
3DFACE
8
coconut_palm8_coconuts
10
-0.021499
20
0.895880
30
4.486152
11
-0.031602
21
0.909276
31
4.495355
12
-0.027955
22
0.887854
32
4.510646
13
-0.027955
23
0.887854
33
4.510646
0
3DFACE
8
coconut_palm8_coconuts
10
-0.021499
20
0.895880
30
4.486152
11
-0.002187
21
0.912292
31
4.468899
12
-0.019687
22
0.935493
32
4.484838
13
-0.031602
23
0.909276
33
4.495355
0
3DFACE
8
coconut_palm8_coconuts
10
-0.002187
20
0.912292
30
4.468899
11
0.024806
21
0.932694
31
4.463516
12
0.004599
22
0.959480
32
4.481916
13
-0.019687
23
0.935493
33
4.484838
0
3DFACE
8
coconut_palm8_coconuts
10
0.024806
20
0.932694
30
4.463516
11
0.052248
21
0.951614
31
4.471437
12
0.034748
22
0.974813
32
4.487374
13
0.004599
23
0.959480
33
4.481916
0
3DFACE
8
coconut_palm8_coconuts
10
0.052248
20
0.951614
30
4.471437
11
0.072785
21
0.963986
31
4.490543
12
0.062681
22
0.977379
32
4.499744
13
0.034748
23
0.974813
33
4.487374
0
3DFACE
8
coconut_palm8_coconuts
10
0.072785
20
0.963986
30
4.490543
11
0.080914
21
0.966495
31
4.515718
12
0.062681
22
0.977379
32
4.499744
13
0.062681
23
0.977379
33
4.499744
0
3DFACE
8
coconut_palm8_coconuts
10
-0.031602
20
0.909276
30
4.495355
11
-0.035297
21
0.913207
31
4.513712
12
-0.027955
22
0.887854
32
4.510646
13
-0.027955
23
0.887854
33
4.510646
0
3DFACE
8
coconut_palm8_coconuts
10
-0.031602
20
0.909276
30
4.495355
11
-0.019687
21
0.935493
31
4.484838
12
-0.026086
22
0.942302
32
4.516634
13
-0.035297
23
0.913207
33
4.513712
0
3DFACE
8
coconut_palm8_coconuts
10
-0.019687
20
0.935493
30
4.484838
11
0.004599
21
0.959480
31
4.481916
12
-0.002791
22
0.967344
32
4.518633
13
-0.026086
23
0.942302
33
4.516634
0
3DFACE
8
coconut_palm8_coconuts
10
0.004599
20
0.959480
30
4.481916
11
0.034748
21
0.974813
31
4.487374
12
0.028348
22
0.981622
32
4.519169
13
-0.002791
23
0.967344
33
4.518633
0
3DFACE
8
coconut_palm8_coconuts
10
0.034748
20
0.974813
30
4.487374
11
0.062681
21
0.977379
31
4.499744
12
0.058986
22
0.981312
32
4.518103
13
0.028348
23
0.981622
33
4.519169
0
3DFACE
8
coconut_palm8_coconuts
10
0.062681
20
0.977379
30
4.499744
11
0.080914
21
0.966495
31
4.515718
12
0.058986
22
0.981312
32
4.518103
13
0.058986
23
0.981312
33
4.518103
0
3DFACE
8
coconut_palm8_coconuts
10
-0.035297
20
0.913207
30
4.513712
11
-0.030420
21
0.905372
31
4.530473
12
-0.027955
22
0.887854
32
4.510646
13
-0.027955
23
0.887854
33
4.510646
0
3DFACE
8
coconut_palm8_coconuts
10
-0.035297
20
0.913207
30
4.513712
11
-0.026086
21
0.942302
31
4.516634
12
-0.017637
22
0.928733
32
4.545665
13
-0.030420
23
0.905372
33
4.530473
0
3DFACE
8
coconut_palm8_coconuts
10
-0.026086
20
0.942302
30
4.516634
11
-0.002791
21
0.967344
31
4.518633
12
0.006965
22
0.951677
32
4.552157
13
-0.017637
23
0.928733
33
4.545665
0
3DFACE
8
coconut_palm8_coconuts
10
-0.002791
20
0.967344
30
4.518633
11
0.028348
21
0.981622
31
4.519169
12
0.036797
22
0.968054
32
4.548203
13
0.006965
23
0.951677
33
4.552157
0
3DFACE
8
coconut_palm8_coconuts
10
0.028348
20
0.981622
30
4.519169
11
0.058986
21
0.981312
31
4.518103
12
0.063864
22
0.973478
32
4.534865
13
0.036797
23
0.968054
33
4.548203
0
3DFACE
8
coconut_palm8_coconuts
10
0.058986
20
0.981312
30
4.518103
11
0.080914
21
0.966495
31
4.515718
12
0.063864
22
0.973478
32
4.534865
13
0.063864
23
0.973478
33
4.534865
0
3DFACE
8
coconut_palm8_coconuts
10
-0.030420
20
0.905372
30
4.530473
11
-0.019826
21
0.890363
31
4.535821
12
-0.027955
22
0.887854
32
4.510646
13
-0.027955
23
0.887854
33
4.510646
0
3DFACE
8
coconut_palm8_coconuts
10
-0.030420
20
0.905372
30
4.530473
11
-0.017637
21
0.928733
31
4.545665
12
0.000711
22
0.902736
32
4.554929
13
-0.019826
23
0.890363
33
4.535821
0
3DFACE
8
coconut_palm8_coconuts
10
-0.017637
20
0.928733
30
4.545665
11
0.006965
21
0.951677
31
4.552157
12
0.028152
22
0.921656
32
4.562850
13
0.000711
23
0.902736
33
4.554929
0
3DFACE
8
coconut_palm8_coconuts
10
0.006965
20
0.951677
30
4.552157
11
0.036797
21
0.968054
31
4.548203
12
0.055145
22
0.942056
32
4.557464
13
0.028152
23
0.921656
33
4.562850
0
3DFACE
8
coconut_palm8_coconuts
10
0.036797
20
0.968054
30
4.548203
11
0.063864
21
0.973478
31
4.534865
12
0.074458
22
0.958467
32
4.540210
13
0.055145
23
0.942056
33
4.557464
0
3DFACE
8
coconut_palm8_coconuts
10
0.063864
20
0.973478
30
4.534865
11
0.080914
21
0.966495
31
4.515718
12
0.074458
22
0.958467
32
4.540210
13
0.074458
23
0.958467
33
4.540210
0
3DFACE
8
coconut_palm8_coconuts
10
-0.019826
20
0.890363
30
4.535821
11
-0.009722
21
0.876969
31
4.526619
12
-0.027955
22
0.887854
32
4.510646
13
-0.027955
23
0.887854
33
4.510646
0
3DFACE
8
coconut_palm8_coconuts
10
-0.019826
20
0.890363
30
4.535821
11
0.000711
21
0.902736
31
4.554929
12
0.018211
22
0.879536
32
4.538990
13
-0.009722
23
0.876969
33
4.526619
0
3DFACE
8
coconut_palm8_coconuts
10
0.000711
20
0.902736
30
4.554929
11
0.028152
21
0.921656
31
4.562850
12
0.048359
22
0.894867
32
4.544447
13
0.018211
23
0.879536
33
4.538990
0
3DFACE
8
coconut_palm8_coconuts
10
0.028152
20
0.921656
30
4.562850
11
0.055145
21
0.942056
31
4.557464
12
0.072645
22
0.918856
32
4.541527
13
0.048359
23
0.894867
33
4.544447
0
3DFACE
8
coconut_palm8_coconuts
10
0.055145
20
0.942056
30
4.557464
11
0.074458
21
0.958467
31
4.540210
12
0.084561
22
0.945074
32
4.531012
13
0.072645
23
0.918856
33
4.541527
0
3DFACE
8
coconut_palm8_coconuts
10
0.074458
20
0.958467
30
4.540210
11
0.080914
21
0.966495
31
4.515718
12
0.084561
22
0.945074
32
4.531012
13
0.084561
23
0.945074
33
4.531012
0
3DFACE
8
coconut_palm8_coconuts
10
0.120351
20
1.021273
30
4.543344
11
0.118367
21
1.047740
31
4.542070
12
0.129911
22
1.041029
32
4.528365
13
0.129911
23
1.041029
33
4.528365
0
3DFACE
8
coconut_palm8_coconuts
10
0.118367
20
1.047740
30
4.542070
11
0.104783
21
1.071730
31
4.528659
12
0.124778
22
1.060107
32
4.504922
13
0.129911
23
1.041029
33
4.528365
0
3DFACE
8
coconut_palm8_coconuts
10
0.104783
20
1.071730
30
4.528659
11
0.083238
21
1.086815
31
4.506704
12
0.106327
22
1.073394
32
4.479294
13
0.124778
23
1.060107
33
4.504922
0
3DFACE
8
coconut_palm8_coconuts
10
0.083238
20
1.086815
30
4.506704
11
0.059506
21
1.088953
31
4.482086
12
0.079502
22
1.077331
32
4.458349
13
0.106327
23
1.073394
33
4.479294
0
3DFACE
8
coconut_palm8_coconuts
10
0.059506
20
1.088953
30
4.482086
11
0.039946
21
1.077572
31
4.461404
12
0.051490
22
1.070862
32
4.447699
13
0.079502
23
1.077331
33
4.458349
0
3DFACE
8
coconut_palm8_coconuts
10
0.039946
20
1.077572
30
4.461404
11
0.029798
21
1.055721
31
4.450198
12
0.051490
22
1.070862
32
4.447699
13
0.051490
23
1.070862
33
4.447699
0
3DFACE
8
coconut_palm8_coconuts
10
0.120351
20
1.021273
30
4.543344
11
0.104431
21
1.040298
31
4.552865
12
0.118367
22
1.047740
32
4.542070
13
0.118367
23
1.047740
33
4.542070
0
3DFACE
8
coconut_palm8_coconuts
10
0.104431
20
1.040298
30
4.552865
11
0.080646
21
1.058840
31
4.547357
12
0.104783
22
1.071730
32
4.528659
13
0.118367
23
1.047740
33
4.542070
0
3DFACE
8
coconut_palm8_coconuts
10
0.080646
20
1.058840
30
4.547357
11
0.055367
21
1.071931
31
4.528294
12
0.083238
22
1.086815
32
4.506704
13
0.104783
23
1.071730
33
4.528659
0
3DFACE
8
coconut_palm8_coconuts
10
0.055367
20
1.071931
30
4.528294
11
0.035369
21
1.076064
31
4.500785
12
0.059506
22
1.088953
32
4.482086
13
0.083238
23
1.086815
33
4.506704
0
3DFACE
8
coconut_palm8_coconuts
10
0.035369
20
1.076064
30
4.500785
11
0.026010
21
1.070130
31
4.472199
12
0.039946
22
1.077572
32
4.461404
13
0.059506
23
1.088953
33
4.482086
0
3DFACE
8
coconut_palm8_coconuts
10
0.026010
20
1.070130
30
4.472199
11
0.029798
21
1.055721
31
4.450198
12
0.039946
22
1.077572
32
4.461404
13
0.039946
23
1.077572
33
4.461404
0
3DFACE
8
coconut_palm8_coconuts
10
0.120351
20
1.021273
30
4.543344
11
0.096268
21
1.023063
31
4.554428
12
0.104431
22
1.040298
32
4.552865
13
0.104431
23
1.040298
33
4.552865
0
3DFACE
8
coconut_palm8_coconuts
10
0.096268
20
1.023063
30
4.554428
11
0.066506
21
1.028989
31
4.550063
12
0.080646
22
1.058840
32
4.547357
13
0.104431
23
1.040298
33
4.552865
0
3DFACE
8
coconut_palm8_coconuts
10
0.066506
20
1.028989
30
4.550063
11
0.039041
21
1.037462
31
4.531419
12
0.055367
22
1.071931
32
4.528294
13
0.080646
23
1.058840
33
4.547357
0
3DFACE
8
coconut_palm8_coconuts
10
0.039041
20
1.037462
30
4.531419
11
0.021230
21
1.046212
31
4.503490
12
0.035369
22
1.076064
32
4.500785
13
0.055367
23
1.071931
33
4.528294
0
3DFACE
8
coconut_palm8_coconuts
10
0.021230
20
1.046212
30
4.503490
11
0.017847
21
1.052896
31
4.473762
12
0.026010
22
1.070130
32
4.472199
13
0.035369
23
1.076064
33
4.500785
0
3DFACE
8
coconut_palm8_coconuts
10
0.017847
20
1.052896
30
4.473762
11
0.029798
21
1.055721
31
4.450198
12
0.026010
22
1.070130
32
4.472199
13
0.026010
23
1.070130
33
4.472199
0
3DFACE
8
coconut_palm8_coconuts
10
0.120351
20
1.021273
30
4.543344
11
0.098658
21
1.006131
31
4.545842
12
0.096268
22
1.023063
32
4.554428
13
0.096268
23
1.023063
33
4.554428
0
3DFACE
8
coconut_palm8_coconuts
10
0.098658
20
1.006131
30
4.545842
11
0.070647
21
0.999662
31
4.535192
12
0.066506
22
1.028989
32
4.550063
13
0.096268
23
1.023063
33
4.554428
0
3DFACE
8
coconut_palm8_coconuts
10
0.070647
20
0.999662
30
4.535192
11
0.043822
21
1.003599
31
4.514247
12
0.039041
22
1.037462
32
4.531419
13
0.066506
23
1.028989
33
4.550063
0
3DFACE
8
coconut_palm8_coconuts
10
0.043822
20
1.003599
30
4.514247
11
0.025370
21
1.016886
31
4.488619
12
0.021230
22
1.046212
32
4.503490
13
0.039041
23
1.037462
33
4.531419
0
3DFACE
8
coconut_palm8_coconuts
10
0.025370
20
1.016886
30
4.488619
11
0.020237
21
1.035964
31
4.465176
12
0.017847
22
1.052896
32
4.473762
13
0.021230
23
1.046212
33
4.503490
0
3DFACE
8
coconut_palm8_coconuts
10
0.020237
20
1.035964
30
4.465176
11
0.029798
21
1.055721
31
4.450198
12
0.017847
22
1.052896
32
4.473762
13
0.017847
23
1.052896
33
4.473762
0
3DFACE
8
coconut_palm8_coconuts
10
0.120351
20
1.021273
30
4.543344
11
0.110203
21
0.999421
31
4.532137
12
0.098658
22
1.006131
32
4.545842
13
0.098658
23
1.006131
33
4.545842
0
3DFACE
8
coconut_palm8_coconuts
10
0.110203
20
0.999421
30
4.532137
11
0.090642
21
0.988039
31
4.511454
12
0.070647
22
0.999662
32
4.535192
13
0.098658
23
1.006131
33
4.545842
0
3DFACE
8
coconut_palm8_coconuts
10
0.090642
20
0.988039
30
4.511454
11
0.066910
21
0.990178
31
4.486838
12
0.043822
22
1.003599
32
4.514247
13
0.070647
23
0.999662
33
4.535192
0
3DFACE
8
coconut_palm8_coconuts
10
0.066910
20
0.990178
30
4.486838
11
0.045366
21
1.005263
31
4.464882
12
0.025370
22
1.016886
32
4.488619
13
0.043822
23
1.003599
33
4.514247
0
3DFACE
8
coconut_palm8_coconuts
10
0.045366
20
1.005263
30
4.464882
11
0.031782
21
1.029254
31
4.451471
12
0.020237
22
1.035964
32
4.465176
13
0.025370
23
1.016886
33
4.488619
0
3DFACE
8
coconut_palm8_coconuts
10
0.031782
20
1.029254
30
4.451471
11
0.029798
21
1.055721
31
4.450198
12
0.020237
22
1.035964
32
4.465176
13
0.020237
23
1.035964
33
4.465176
0
3DFACE
8
coconut_palm8_coconuts
10
0.120351
20
1.021273
30
4.543344
11
0.124138
21
1.006863
31
4.521342
12
0.110203
22
0.999421
32
4.532137
13
0.110203
23
0.999421
33
4.532137
0
3DFACE
8
coconut_palm8_coconuts
10
0.124138
20
1.006863
30
4.521342
11
0.114779
21
1.000929
31
4.492756
12
0.090642
22
0.988039
32
4.511454
13
0.110203
23
0.999421
33
4.532137
0
3DFACE
8
coconut_palm8_coconuts
10
0.114779
20
1.000929
30
4.492756
11
0.094781
21
1.005062
31
4.465247
12
0.066910
22
0.990178
32
4.486838
13
0.090642
23
0.988039
33
4.511454
0
3DFACE
8
coconut_palm8_coconuts
10
0.094781
20
1.005062
30
4.465247
11
0.069503
21
1.018153
31
4.446184
12
0.045366
22
1.005263
32
4.464882
13
0.066910
23
0.990178
33
4.486838
0
3DFACE
8
coconut_palm8_coconuts
10
0.069503
20
1.018153
30
4.446184
11
0.045717
21
1.036695
31
4.440676
12
0.031782
22
1.029254
32
4.451471
13
0.045366
23
1.005263
33
4.464882
0
3DFACE
8
coconut_palm8_coconuts
10
0.045717
20
1.036695
30
4.440676
11
0.029798
21
1.055721
31
4.450198
12
0.031782
22
1.029254
32
4.451471
13
0.031782
23
1.029254
33
4.451471
0
3DFACE
8
coconut_palm8_coconuts
10
0.120351
20
1.021273
30
4.543344
11
0.132301
21
1.024097
31
4.519779
12
0.124138
22
1.006863
32
4.521342
13
0.124138
23
1.006863
33
4.521342
0
3DFACE
8
coconut_palm8_coconuts
10
0.132301
20
1.024097
30
4.519779
11
0.128918
21
1.030780
31
4.490050
12
0.114779
22
1.000929
32
4.492756
13
0.124138
23
1.006863
33
4.521342
0
3DFACE
8
coconut_palm8_coconuts
10
0.128918
20
1.030780
30
4.490050
11
0.111108
21
1.039531
31
4.462122
12
0.094781
22
1.005062
32
4.465247
13
0.114779
23
1.000929
33
4.492756
0
3DFACE
8
coconut_palm8_coconuts
10
0.111108
20
1.039531
30
4.462122
11
0.083642
21
1.048004
31
4.443478
12
0.069503
22
1.018153
32
4.446184
13
0.094781
23
1.005062
33
4.465247
0
3DFACE
8
coconut_palm8_coconuts
10
0.083642
20
1.048004
30
4.443478
11
0.053881
21
1.053930
31
4.439114
12
0.045717
22
1.036695
32
4.440676
13
0.069503
23
1.018153
33
4.446184
0
3DFACE
8
coconut_palm8_coconuts
10
0.053881
20
1.053930
30
4.439114
11
0.029798
21
1.055721
31
4.450198
12
0.045717
22
1.036695
32
4.440676
13
0.045717
23
1.036695
33
4.440676
0
3DFACE
8
coconut_palm8_coconuts
10
0.120351
20
1.021273
30
4.543344
11
0.129911
21
1.041029
31
4.528365
12
0.132301
22
1.024097
32
4.519779
13
0.132301
23
1.024097
33
4.519779
0
3DFACE
8
coconut_palm8_coconuts
10
0.129911
20
1.041029
30
4.528365
11
0.124778
21
1.060107
31
4.504922
12
0.128918
22
1.030780
32
4.490050
13
0.132301
23
1.024097
33
4.519779
0
3DFACE
8
coconut_palm8_coconuts
10
0.124778
20
1.060107
30
4.504922
11
0.106327
21
1.073394
31
4.479294
12
0.111108
22
1.039531
32
4.462122
13
0.128918
23
1.030780
33
4.490050
0
3DFACE
8
coconut_palm8_coconuts
10
0.106327
20
1.073394
30
4.479294
11
0.079502
21
1.077331
31
4.458349
12
0.083642
22
1.048004
32
4.443478
13
0.111108
23
1.039531
33
4.462122
0
3DFACE
8
coconut_palm8_coconuts
10
0.079502
20
1.077331
30
4.458349
11
0.051490
21
1.070862
31
4.447699
12
0.053881
22
1.053930
32
4.439114
13
0.083642
23
1.048004
33
4.443478
0
3DFACE
8
coconut_palm8_coconuts
10
0.051490
20
1.070862
30
4.447699
11
0.029798
21
1.055721
31
4.450198
12
0.053881
22
1.053930
32
4.439114
13
0.053881
23
1.053930
33
4.439114
0
ENDSEC
0
EOF
