999
DXF file generated by Cheetah3D
0
SECTION
2
ENTITIES
0
3DFACE
8
coconut_palm10_trunk
10
0.006054
20
0.173379
30
0.000000
11
0.091522
21
0.117143
31
0.000000
12
0.066977
22
0.149285
32
0.500078
13
0.005938
23
0.176266
33
0.500066
0
3DFACE
8
coconut_palm10_trunk
10
0.091522
20
0.117143
30
0.000000
11
0.158350
21
0.045406
31
0.000000
12
0.101280
22
0.094676
32
0.500062
13
0.066977
23
0.149285
33
0.500078
0
3DFACE
8
coconut_palm10_trunk
10
0.158350
20
0.045406
30
0.000000
11
0.132742
21
-0.048314
31
0.000000
12
0.101597
22
0.030008
32
0.500024
13
0.101280
23
0.094676
33
0.500062
0
3DFACE
8
coconut_palm10_trunk
10
0.132742
20
-0.048314
30
0.000000
11
0.085421
21
-0.126641
31
0.000000
12
0.063192
22
-0.024373
32
0.499975
13
0.101597
23
0.030008
33
0.500024
0
3DFACE
8
coconut_palm10_trunk
10
0.085421
20
-0.126641
30
0.000000
11
-0.006048
21
-0.173187
31
0.000000
12
-0.001993
22
-0.050840
32
0.499930
13
0.063192
23
-0.024373
33
0.499975
0
3DFACE
8
coconut_palm10_trunk
10
-0.006048
20
-0.173187
30
0.000000
11
-0.096974
21
-0.124121
31
0.000000
12
-0.069308
22
-0.025201
32
0.499914
13
-0.001993
23
-0.050840
33
0.499930
0
3DFACE
8
coconut_palm10_trunk
10
-0.096974
20
-0.124121
30
0.000000
11
-0.174136
21
-0.049933
31
0.000000
12
-0.103408
22
0.035943
32
0.499934
13
-0.069308
23
-0.025201
33
0.499914
0
3DFACE
8
coconut_palm10_trunk
10
-0.174136
20
-0.049933
30
0.000000
11
-0.144787
21
0.052698
31
0.000000
12
-0.109421
22
0.106795
32
0.499973
13
-0.103408
23
0.035943
33
0.499934
0
3DFACE
8
coconut_palm10_trunk
10
-0.144787
20
0.052698
30
0.000000
11
-0.088479
21
0.131176
31
0.000000
12
-0.054480
22
0.150098
32
0.500023
13
-0.109421
23
0.106795
33
0.499973
0
3DFACE
8
coconut_palm10_trunk
10
-0.088479
20
0.131176
30
0.000000
11
0.006054
21
0.173379
31
0.000000
12
0.005938
22
0.176266
32
0.500066
13
-0.054480
23
0.150098
33
0.500023
0
3DFACE
8
coconut_palm10_trunk
10
0.005938
20
0.176266
30
0.500066
11
0.066977
21
0.149285
31
0.500078
12
0.072458
22
0.314014
32
0.999942
13
0.008534
23
0.334456
33
0.999687
0
3DFACE
8
coconut_palm10_trunk
10
0.066977
20
0.149285
30
0.500078
11
0.101280
21
0.094676
31
0.500062
12
0.113815
22
0.258762
32
1.000231
13
0.072458
23
0.314014
33
0.999942
0
3DFACE
8
coconut_palm10_trunk
10
0.101280
20
0.094676
30
0.500062
11
0.101597
21
0.030008
31
0.500024
12
0.116761
22
0.186823
32
1.000452
13
0.113815
23
0.258762
33
1.000231
0
3DFACE
8
coconut_palm10_trunk
10
0.101597
20
0.030008
30
0.500024
11
0.063192
21
-0.024373
31
0.499975
12
0.057564
22
0.149325
32
1.000382
13
0.116761
23
0.186823
33
1.000452
0
3DFACE
8
coconut_palm10_trunk
10
0.063192
20
-0.024373
30
0.499975
11
-0.001993
21
-0.050840
31
0.499930
12
0.000772
22
0.112155
32
1.000318
13
0.057564
23
0.149325
33
1.000382
0
3DFACE
8
coconut_palm10_trunk
10
-0.001993
20
-0.050840
30
0.499930
11
-0.069308
21
-0.025201
31
0.499914
12
-0.053748
22
0.152504
32
1.000033
13
0.000772
23
0.112155
33
1.000318
0
3DFACE
8
coconut_palm10_trunk
10
-0.069308
20
-0.025201
30
0.499914
11
-0.103408
21
0.035943
31
0.499934
12
-0.103489
22
0.196300
32
0.999753
13
-0.053748
23
0.152504
33
1.000033
0
3DFACE
8
coconut_palm10_trunk
10
-0.103408
20
0.035943
30
0.499934
11
-0.109421
21
0.106795
31
0.499973
12
-0.104208
22
0.266956
32
0.999543
13
-0.103489
23
0.196300
33
0.999753
0
3DFACE
8
coconut_palm10_trunk
10
-0.109421
20
0.106795
30
0.499973
11
-0.054480
21
0.150098
31
0.500023
12
-0.057666
22
0.319877
32
0.999529
13
-0.104208
23
0.266956
33
0.999543
0
3DFACE
8
coconut_palm10_trunk
10
-0.054480
20
0.150098
30
0.500023
11
0.005938
21
0.176266
31
0.500066
12
0.008534
22
0.334456
32
0.999687
13
-0.057666
23
0.319877
33
0.999529
0
3DFACE
8
coconut_palm10_trunk
10
0.008534
20
0.334456
30
0.999687
11
0.072458
21
0.314014
31
0.999942
12
0.073444
22
0.473404
32
1.499720
13
0.012136
23
0.488687
33
1.499446
0
3DFACE
8
coconut_palm10_trunk
10
0.072458
20
0.314014
30
0.999942
11
0.113815
21
0.258762
31
1.000231
12
0.093988
22
0.415120
32
1.500101
13
0.073444
23
0.473404
33
1.499720
0
3DFACE
8
coconut_palm10_trunk
10
0.113815
20
0.258762
30
1.000231
11
0.116761
21
0.186823
31
1.000452
12
0.103257
22
0.356369
32
1.500451
13
0.093988
23
0.415120
33
1.500101
0
3DFACE
8
coconut_palm10_trunk
10
0.116761
20
0.186823
30
1.000452
11
0.057564
21
0.149325
31
1.000382
12
0.066843
22
0.304660
32
1.500620
13
0.103257
23
0.356369
33
1.500451
0
3DFACE
8
coconut_palm10_trunk
10
0.057564
20
0.149325
30
1.000382
11
0.000772
21
0.112155
31
1.000318
12
0.004951
22
0.282940
32
1.500546
13
0.066843
23
0.304660
33
1.500620
0
3DFACE
8
coconut_palm10_trunk
10
0.000772
20
0.112155
30
1.000318
11
-0.053748
21
0.152504
31
1.000033
12
-0.054120
22
0.310278
32
1.500214
13
0.004951
23
0.282940
33
1.500546
0
3DFACE
8
coconut_palm10_trunk
10
-0.053748
20
0.152504
30
1.000033
11
-0.103489
21
0.196300
31
0.999753
12
-0.088904
22
0.362586
32
1.499821
13
-0.054120
23
0.310278
33
1.500214
0
3DFACE
8
coconut_palm10_trunk
10
-0.103489
20
0.196300
30
0.999753
11
-0.104208
21
0.266956
31
0.999543
12
-0.090185
22
0.426458
32
1.499468
13
-0.088904
23
0.362586
33
1.499821
0
3DFACE
8
coconut_palm10_trunk
10
-0.104208
20
0.266956
30
0.999543
11
-0.057666
21
0.319877
31
0.999529
12
-0.042653
22
0.466584
32
1.499397
13
-0.090185
23
0.426458
33
1.499468
0
3DFACE
8
coconut_palm10_trunk
10
-0.057666
20
0.319877
30
0.999529
11
0.008534
21
0.334456
31
0.999687
12
0.012136
22
0.488687
32
1.499446
13
-0.042653
23
0.466584
33
1.499397
0
3DFACE
8
coconut_palm10_trunk
10
0.012136
20
0.488687
30
1.499446
11
0.073444
21
0.473404
31
1.499720
12
0.072915
22
0.644577
32
1.999358
13
0.010594
23
0.645448
33
1.998998
0
3DFACE
8
coconut_palm10_trunk
10
0.073444
20
0.473404
30
1.499720
11
0.093988
21
0.415120
31
1.500101
12
0.097715
22
0.587098
32
2.000097
13
0.072915
23
0.644577
33
1.999358
0
3DFACE
8
coconut_palm10_trunk
10
0.093988
20
0.415120
30
1.500101
11
0.103257
21
0.356369
31
1.500451
12
0.103081
22
0.526755
32
2.000757
13
0.097715
23
0.587098
33
2.000097
0
3DFACE
8
coconut_palm10_trunk
10
0.103257
20
0.356369
30
1.500451
11
0.066843
21
0.304660
31
1.500620
12
0.062893
22
0.479689
32
2.001022
13
0.103081
23
0.526755
33
2.000757
0
3DFACE
8
coconut_palm10_trunk
10
0.066843
20
0.304660
30
1.500620
11
0.004951
21
0.282940
31
1.500546
12
0.003865
22
0.452767
32
2.000970
13
0.062893
23
0.479689
33
2.001022
0
3DFACE
8
coconut_palm10_trunk
10
0.004951
20
0.282940
30
1.500546
11
-0.054120
21
0.310278
31
1.500214
12
-0.044668
22
0.494349
32
2.000263
13
0.003865
23
0.452767
33
2.000970
0
3DFACE
8
coconut_palm10_trunk
10
-0.054120
20
0.310278
30
1.500214
11
-0.088904
21
0.362586
31
1.499821
12
-0.092059
22
0.532516
32
1.999598
13
-0.044668
23
0.494349
33
2.000263
0
3DFACE
8
coconut_palm10_trunk
10
-0.088904
20
0.362586
30
1.499821
11
-0.090185
21
0.426458
31
1.499468
12
-0.081348
22
0.593314
32
1.999025
13
-0.092059
23
0.532516
33
1.999598
0
3DFACE
8
coconut_palm10_trunk
10
-0.090185
20
0.426458
30
1.499468
11
-0.042653
21
0.466584
31
1.499397
12
-0.049244
22
0.645142
32
1.998664
13
-0.081348
23
0.593314
33
1.999025
0
3DFACE
8
coconut_palm10_trunk
10
-0.042653
20
0.466584
30
1.499397
11
0.012136
21
0.488687
31
1.499446
12
0.010594
22
0.645448
32
1.998998
13
-0.049244
23
0.645142
33
1.998664
0
3DFACE
8
coconut_palm10_trunk
10
0.010594
20
0.645448
30
1.998998
11
0.072915
21
0.644577
31
1.999358
12
0.064459
22
0.784044
32
2.499592
13
0.016675
23
0.816594
33
2.499115
0
3DFACE
8
coconut_palm10_trunk
10
0.072915
20
0.644577
30
1.999358
11
0.097715
21
0.587098
31
2.000097
12
0.093421
22
0.741637
32
2.500065
13
0.064459
23
0.784044
33
2.499592
0
3DFACE
8
coconut_palm10_trunk
10
0.097715
20
0.587098
30
2.000097
11
0.103081
21
0.526755
31
2.000757
12
0.094311
22
0.689286
32
2.500493
13
0.093421
23
0.741637
33
2.500065
0
3DFACE
8
coconut_palm10_trunk
10
0.103081
20
0.526755
30
2.000757
11
0.062893
21
0.479689
31
2.001022
12
0.069464
22
0.635568
32
2.500817
13
0.094311
23
0.689286
33
2.500493
0
3DFACE
8
coconut_palm10_trunk
10
0.062893
20
0.479689
30
2.001022
11
0.003865
21
0.452767
31
2.000970
12
0.010406
22
0.637079
32
2.500541
13
0.069464
23
0.635568
33
2.500817
0
3DFACE
8
coconut_palm10_trunk
10
0.003865
20
0.452767
30
2.000970
11
-0.044668
21
0.494349
31
2.000263
12
-0.043845
22
0.645613
32
2.500230
13
0.010406
23
0.637079
33
2.500541
0
3DFACE
8
coconut_palm10_trunk
10
-0.044668
20
0.494349
30
2.000263
11
-0.092059
21
0.532516
31
1.999598
12
-0.076029
22
0.692930
32
2.499703
13
-0.043845
23
0.645613
33
2.500230
0
3DFACE
8
coconut_palm10_trunk
10
-0.092059
20
0.532516
30
1.999598
11
-0.081348
21
0.593314
31
1.999025
12
-0.079161
22
0.752006
32
2.499210
13
-0.076029
23
0.692930
33
2.499703
0
3DFACE
8
coconut_palm10_trunk
10
-0.081348
20
0.593314
30
1.999025
11
-0.049244
21
0.645142
31
1.998664
12
-0.044406
22
0.803756
32
2.498946
13
-0.079161
23
0.752006
33
2.499210
0
3DFACE
8
coconut_palm10_trunk
10
-0.049244
20
0.645142
30
1.998664
11
0.010594
21
0.645448
31
1.998998
12
0.016675
22
0.816594
32
2.499115
13
-0.044406
23
0.803756
33
2.498946
0
3DFACE
8
coconut_palm10_trunk
10
0.016675
20
0.816594
30
2.499115
11
0.064459
21
0.784044
31
2.499592
12
0.060337
22
0.942132
32
2.999602
13
0.016010
23
0.967104
33
2.999140
0
3DFACE
8
coconut_palm10_trunk
10
0.064459
20
0.784044
30
2.499592
11
0.093421
21
0.741637
31
2.500065
12
0.088560
22
0.903388
32
3.000088
13
0.060337
23
0.942132
33
2.999602
0
3DFACE
8
coconut_palm10_trunk
10
0.093421
20
0.741637
30
2.500065
11
0.094311
21
0.689286
31
2.500493
12
0.085082
22
0.855628
32
3.000472
13
0.088560
23
0.903388
33
3.000088
0
3DFACE
8
coconut_palm10_trunk
10
0.094311
20
0.689286
30
2.500493
11
0.069464
21
0.635568
31
2.500817
12
0.060792
22
0.811126
32
3.000712
13
0.085082
23
0.855628
33
3.000472
0
3DFACE
8
coconut_palm10_trunk
10
0.069464
20
0.635568
30
2.500817
11
0.010406
21
0.637079
31
2.500541
12
0.009620
22
0.784106
32
3.000651
13
0.060792
23
0.811126
33
3.000712
0
3DFACE
8
coconut_palm10_trunk
10
0.010406
20
0.637079
30
2.500541
11
-0.043845
21
0.645613
31
2.500230
12
-0.046007
22
0.806181
32
3.000151
13
0.009620
23
0.784106
33
3.000651
0
3DFACE
8
coconut_palm10_trunk
10
-0.043845
20
0.645613
30
2.500230
11
-0.076029
21
0.692930
31
2.499703
12
-0.077153
22
0.855697
32
2.999557
13
-0.046007
23
0.806181
33
3.000151
0
3DFACE
8
coconut_palm10_trunk
10
-0.076029
20
0.692930
30
2.499703
11
-0.079161
21
0.752006
31
2.499210
12
-0.065184
22
0.909894
32
2.999166
13
-0.077153
23
0.855697
33
2.999557
0
3DFACE
8
coconut_palm10_trunk
10
-0.079161
20
0.752006
30
2.499210
11
-0.044406
21
0.803756
31
2.498946
12
-0.035901
22
0.953888
32
2.998959
13
-0.065184
23
0.909894
33
2.999166
0
3DFACE
8
coconut_palm10_trunk
10
-0.044406
20
0.803756
30
2.498946
11
0.016675
21
0.816594
31
2.499115
12
0.016010
22
0.967104
32
2.999140
13
-0.035901
23
0.953888
33
2.998959
0
3DFACE
8
coconut_palm10_trunk
10
0.016010
20
0.967104
30
2.999140
11
0.060337
21
0.942132
31
2.999602
12
0.030843
22
1.042549
32
3.498911
13
-0.019863
23
1.052507
33
3.497963
0
3DFACE
8
coconut_palm10_trunk
10
0.060337
20
0.942132
30
2.999602
11
0.088560
21
0.903388
31
3.000088
12
0.064021
22
0.998993
32
3.500111
13
0.030843
23
1.042549
33
3.498911
0
3DFACE
8
coconut_palm10_trunk
10
0.088560
20
0.903388
30
3.000088
11
0.085082
21
0.855628
31
3.000472
12
0.056420
22
0.945392
32
3.500830
13
0.064021
23
0.998993
33
3.500111
0
3DFACE
8
coconut_palm10_trunk
10
0.085082
20
0.855628
30
3.000472
11
0.060792
21
0.811126
31
3.000712
12
0.024594
22
0.904178
32
3.500976
13
0.056420
23
0.945392
33
3.500830
0
3DFACE
8
coconut_palm10_trunk
10
0.060792
20
0.811126
30
3.000712
11
0.009620
21
0.784106
31
3.000651
12
-0.025560
22
0.889366
32
3.500424
13
0.024594
23
0.904178
33
3.500976
0
3DFACE
8
coconut_palm10_trunk
10
0.009620
20
0.784106
30
3.000651
11
-0.046007
21
0.806181
31
3.000151
12
-0.078601
22
0.902441
32
3.499390
13
-0.025560
23
0.889366
33
3.500424
0
3DFACE
8
coconut_palm10_trunk
10
-0.046007
20
0.806181
30
3.000151
11
-0.077153
21
0.855697
31
2.999557
12
-0.105414
22
0.950367
32
3.498222
13
-0.078601
23
0.902441
33
3.499390
0
3DFACE
8
coconut_palm10_trunk
10
-0.077153
20
0.855697
30
2.999557
11
-0.065184
21
0.909894
31
2.999166
12
-0.096416
22
1.000983
32
3.497571
13
-0.105414
23
0.950367
33
3.498222
0
3DFACE
8
coconut_palm10_trunk
10
-0.065184
20
0.909894
30
2.999166
11
-0.035901
21
0.953888
31
2.998959
12
-0.067385
22
1.040520
32
3.497407
13
-0.096416
23
1.000983
33
3.497571
0
3DFACE
8
coconut_palm10_trunk
10
-0.035901
20
0.953888
30
2.998959
11
0.016010
21
0.967104
31
2.999140
12
-0.019863
22
1.052507
32
3.497963
13
-0.067385
23
1.040520
33
3.497407
0
3DFACE
8
coconut_palm10_trunk
10
-0.019863
20
1.052507
30
3.497963
11
0.030843
21
1.042549
31
3.498911
12
0.063468
22
1.038376
32
3.998952
13
0.015835
23
1.057564
33
3.998463
0
3DFACE
8
coconut_palm10_trunk
10
0.030843
20
1.042549
30
3.498911
11
0.064021
21
0.998993
31
3.500111
12
0.093573
22
0.996795
32
3.999660
13
0.063468
23
1.038376
33
3.998952
0
3DFACE
8
coconut_palm10_trunk
10
0.064021
20
0.998993
30
3.500111
11
0.056420
21
0.945392
31
3.500830
12
0.079130
22
0.949563
32
4.000231
13
0.093573
23
0.996795
33
3.999660
0
3DFACE
8
coconut_palm10_trunk
10
0.056420
20
0.945392
30
3.500830
11
0.024594
21
0.904178
31
3.500976
12
0.051230
22
0.916849
32
4.000541
13
0.079130
23
0.949563
33
4.000231
0
3DFACE
8
coconut_palm10_trunk
10
0.024594
20
0.904178
30
3.500976
11
-0.025560
21
0.889366
31
3.500424
12
0.010121
22
0.893925
32
4.000654
13
0.051230
23
0.916849
33
4.000541
0
3DFACE
8
coconut_palm10_trunk
10
-0.025560
20
0.889366
30
3.500424
11
-0.078601
21
0.902441
31
3.499390
12
-0.029736
22
0.919084
32
4.000122
13
0.010121
23
0.893925
33
4.000654
0
3DFACE
8
coconut_palm10_trunk
10
-0.078601
20
0.902441
30
3.499390
11
-0.105414
21
0.950367
31
3.498222
12
-0.063546
22
0.951735
32
3.999517
13
-0.029736
23
0.919084
33
4.000122
0
3DFACE
8
coconut_palm10_trunk
10
-0.105414
20
0.950367
30
3.498222
11
-0.096416
21
1.000983
31
3.497571
12
-0.065717
22
1.002269
32
3.998821
13
-0.063546
23
0.951735
33
3.999517
0
3DFACE
8
coconut_palm10_trunk
10
-0.096416
20
1.000983
30
3.497571
11
-0.067385
21
1.040520
31
3.497407
12
-0.029075
22
1.035891
32
3.998541
13
-0.065717
23
1.002269
33
3.998821
0
3DFACE
8
coconut_palm10_trunk
10
-0.067385
20
1.040520
30
3.497407
11
-0.019863
21
1.052507
31
3.497963
12
0.015835
22
1.057564
32
3.998463
13
-0.029075
23
1.035891
33
3.998541
0
3DFACE
8
coconut_palm10_trunk
10
0.015835
20
1.057564
30
3.998463
11
0.063468
21
1.038376
31
3.998952
12
0.100613
22
1.131470
32
4.496239
13
0.027954
23
1.168690
33
4.495161
0
3DFACE
8
coconut_palm10_trunk
10
0.063468
20
1.038376
30
3.998952
11
0.093573
21
0.996795
31
3.999660
12
0.137833
22
1.065272
32
4.497975
13
0.100613
23
1.131470
33
4.496239
0
3DFACE
8
coconut_palm10_trunk
10
0.093573
20
0.996795
30
3.999660
11
0.079130
21
0.949563
31
4.000231
12
0.154138
22
0.984767
32
4.500029
13
0.137833
23
1.065272
33
4.497975
0
3DFACE
8
coconut_palm10_trunk
10
0.079130
20
0.949563
30
4.000231
11
0.051230
21
0.916849
31
4.000541
12
0.088901
22
0.935026
32
4.501148
13
0.154138
23
0.984767
33
4.500029
0
3DFACE
8
coconut_palm10_trunk
10
0.051230
20
0.916849
30
4.000541
11
0.010121
21
0.893925
31
4.000654
12
0.018170
22
0.888496
32
4.502177
13
0.088901
23
0.935026
33
4.501148
0
3DFACE
8
coconut_palm10_trunk
10
0.010121
20
0.893925
30
4.000654
11
-0.029736
21
0.919084
31
4.000122
12
-0.066815
22
0.917225
32
4.501287
13
0.018170
23
0.888496
33
4.502177
0
3DFACE
8
coconut_palm10_trunk
10
-0.029736
20
0.919084
30
4.000122
11
-0.063546
21
0.951735
31
3.999517
12
-0.114458
22
0.992936
32
4.499291
13
-0.066815
23
0.917225
33
4.501287
0
3DFACE
8
coconut_palm10_trunk
10
-0.063546
20
0.951735
30
3.999517
11
-0.065717
21
1.002269
31
3.998821
12
-0.107928
22
1.080105
32
4.497116
13
-0.114458
23
0.992936
33
4.499291
0
3DFACE
8
coconut_palm10_trunk
10
-0.065717
20
1.002269
30
3.998821
11
-0.029075
21
1.035891
31
3.998541
12
-0.055831
22
1.149521
32
4.495475
13
-0.107928
23
1.080105
33
4.497116
0
3DFACE
8
coconut_palm10_trunk
10
-0.029075
20
1.035891
30
3.998541
11
0.015835
21
1.057564
31
3.998463
12
0.027954
22
1.168690
32
4.495161
13
-0.055831
23
1.149521
33
4.495475
0
3DFACE
8
coconut_palm10_trunk
10
0.027954
20
1.168690
30
4.495161
11
0.100613
21
1.131470
31
4.496239
12
0.077170
22
1.130184
32
4.995367
13
0.070597
23
1.133950
33
4.995265
0
3DFACE
8
coconut_palm10_trunk
10
0.100613
20
1.131470
30
4.496239
11
0.137833
21
1.065272
31
4.497975
12
0.081260
22
1.124391
32
4.995569
13
0.077170
23
1.130184
33
4.995367
0
3DFACE
8
coconut_palm10_trunk
10
0.137833
20
1.065272
30
4.497975
11
0.154138
21
0.984767
31
4.500029
12
0.082067
22
1.116875
32
4.995867
13
0.081260
23
1.124391
33
4.995569
0
3DFACE
8
coconut_palm10_trunk
10
0.154138
20
0.984767
30
4.500029
11
0.088901
21
0.935026
31
4.501148
12
0.076315
22
1.112080
32
4.996104
13
0.082067
23
1.116875
33
4.995867
0
3DFACE
8
coconut_palm10_trunk
10
0.088901
20
0.935026
30
4.501148
11
0.018170
21
0.888496
31
4.502177
12
0.069790
22
1.110820
32
4.996205
13
0.076315
23
1.112080
33
4.996104
0
3DFACE
8
coconut_palm10_trunk
10
0.018170
20
0.888496
30
4.502177
11
-0.066815
21
0.917225
31
4.501287
12
0.062516
22
1.111447
32
4.996234
13
0.069790
23
1.110820
33
4.996205
0
3DFACE
8
coconut_palm10_trunk
10
-0.066815
20
0.917225
30
4.501287
11
-0.114458
21
0.992936
31
4.499291
12
0.059765
22
1.118238
32
4.995981
13
0.062516
23
1.111447
33
4.996234
0
3DFACE
8
coconut_palm10_trunk
10
-0.114458
20
0.992936
30
4.499291
11
-0.107928
21
1.080105
31
4.497116
12
0.058045
22
1.125618
32
4.995697
13
0.059765
23
1.118238
33
4.995981
0
3DFACE
8
coconut_palm10_trunk
10
-0.107928
20
1.080105
30
4.497116
11
-0.055831
21
1.149521
31
4.495475
12
0.064334
22
1.129832
32
4.995478
13
0.058045
23
1.125618
33
4.995697
0
3DFACE
8
coconut_palm10_trunk
10
-0.055831
20
1.149521
30
4.495475
11
0.027954
21
1.168690
31
4.495161
12
0.070597
22
1.133950
32
4.995265
13
0.064334
23
1.129832
33
4.995478
0
3DFACE
8
coconut_palm10_trunk
10
0.070597
20
1.133950
30
4.995265
11
0.077170
21
1.130184
31
4.995367
12
0.070186
22
1.121343
32
4.995777
13
0.070186
23
1.121343
33
4.995777
0
3DFACE
8
coconut_palm10_trunk
10
0.077170
20
1.130184
30
4.995367
11
0.081260
21
1.124391
31
4.995569
12
0.070186
22
1.121343
32
4.995777
13
0.070186
23
1.121343
33
4.995777
0
3DFACE
8
coconut_palm10_trunk
10
0.081260
20
1.124391
30
4.995569
11
0.082067
21
1.116875
31
4.995867
12
0.070186
22
1.121343
32
4.995777
13
0.070186
23
1.121343
33
4.995777
0
3DFACE
8
coconut_palm10_trunk
10
0.082067
20
1.116875
30
4.995867
11
0.076315
21
1.112080
31
4.996104
12
0.070186
22
1.121343
32
4.995777
13
0.070186
23
1.121343
33
4.995777
0
3DFACE
8
coconut_palm10_trunk
10
0.076315
20
1.112080
30
4.996104
11
0.069790
21
1.110820
31
4.996205
12
0.070186
22
1.121343
32
4.995777
13
0.070186
23
1.121343
33
4.995777
0
3DFACE
8
coconut_palm10_trunk
10
0.069790
20
1.110820
30
4.996205
11
0.062516
21
1.111447
31
4.996234
12
0.070186
22
1.121343
32
4.995777
13
0.070186
23
1.121343
33
4.995777
0
3DFACE
8
coconut_palm10_trunk
10
0.062516
20
1.111447
30
4.996234
11
0.059765
21
1.118238
31
4.995981
12
0.070186
22
1.121343
32
4.995777
13
0.070186
23
1.121343
33
4.995777
0
3DFACE
8
coconut_palm10_trunk
10
0.059765
20
1.118238
30
4.995981
11
0.058045
21
1.125618
31
4.995697
12
0.070186
22
1.121343
32
4.995777
13
0.070186
23
1.121343
33
4.995777
0
3DFACE
8
coconut_palm10_trunk
10
0.058045
20
1.125618
30
4.995697
11
0.064334
21
1.129832
31
4.995478
12
0.070186
22
1.121343
32
4.995777
13
0.070186
23
1.121343
33
4.995777
0
3DFACE
8
coconut_palm10_trunk
10
0.064334
20
1.129832
30
4.995478
11
0.070597
21
1.133950
31
4.995265
12
0.070186
22
1.121343
32
4.995777
13
0.070186
23
1.121343
33
4.995777
0
3DFACE
8
coconut_palm10_leaves
10
-0.191088
20
-0.252589
30
4.722686
11
-0.270847
21
0.024710
31
4.238613
12
-0.381236
22
-0.461866
32
3.759326
13
-0.301477
23
-0.739165
33
4.243398
0
3DFACE
8
coconut_palm10_leaves
10
-0.059300
20
0.328309
30
4.904130
11
-0.139059
21
0.605608
31
4.420057
12
-0.270847
22
0.024710
32
4.238613
13
-0.191088
23
-0.252589
33
4.722686
0
3DFACE
8
coconut_palm10_leaves
10
0.075615
20
0.922991
30
4.907971
11
-0.004143
21
1.200290
31
4.423898
12
-0.139059
22
0.605608
32
4.420057
13
-0.059300
23
0.328309
33
4.904130
0
3DFACE
8
coconut_palm10_leaves
10
-0.230967
20
-0.113940
30
4.480649
11
0.063204
21
-0.147643
31
4.323632
12
-0.022911
22
-0.527221
32
3.711337
13
-0.341357
23
-0.600516
33
4.001362
0
3DFACE
8
coconut_palm10_leaves
10
-0.518472
20
-0.050853
30
4.477511
11
-0.230967
21
-0.113940
31
4.480649
12
-0.341357
22
-0.600516
32
4.001362
13
-0.613883
23
-0.471410
33
3.849277
0
3DFACE
8
coconut_palm10_leaves
10
-0.099179
20
0.466958
30
4.662093
11
0.188414
21
0.404265
31
4.569714
12
0.063204
22
-0.147643
32
4.323632
13
-0.230967
23
-0.113940
33
4.480649
0
3DFACE
8
coconut_palm10_leaves
10
-0.386668
20
0.530114
30
4.727307
11
-0.099179
21
0.466958
31
4.662093
12
-0.230967
22
-0.113940
32
4.480649
13
-0.518472
23
-0.050853
33
4.477511
0
3DFACE
8
coconut_palm10_leaves
10
0.035736
20
1.061641
30
4.665935
11
0.321614
21
0.991387
31
4.587282
12
0.188414
22
0.404265
32
4.569714
13
-0.099179
23
0.466958
33
4.662093
0
3DFACE
8
coconut_palm10_leaves
10
-0.250143
20
1.131894
30
4.744587
11
0.035736
21
1.061641
31
4.665935
12
-0.099179
22
0.466958
32
4.662093
13
-0.386668
23
0.530114
33
4.727307
0
3DFACE
8
coconut_palm10_leaves
10
-0.398427
20
0.257152
30
4.515356
11
-0.288150
21
0.563466
31
4.367490
12
-0.213633
22
0.691599
32
3.600317
13
-0.323910
23
0.385285
33
3.748183
0
3DFACE
8
coconut_palm10_leaves
10
-0.225842
20
0.553916
30
4.929387
11
-0.115565
21
0.860230
31
4.781522
12
-0.288150
22
0.563466
32
4.367490
13
-0.398427
23
0.257152
33
4.515356
0
3DFACE
8
coconut_palm10_leaves
10
0.011043
20
0.961246
30
5.031365
11
0.121319
21
1.267560
31
4.883500
12
-0.115565
22
0.860230
32
4.781522
13
-0.225842
23
0.553916
33
4.929387
0
3DFACE
8
coconut_palm10_leaves
10
-0.343288
20
0.410309
30
4.441423
11
-0.087622
21
0.380177
31
4.305560
12
0.131730
22
0.757358
32
3.537867
13
-0.268772
23
0.538442
33
3.674250
0
3DFACE
8
coconut_palm10_leaves
10
-0.526594
20
0.564867
30
4.379239
11
-0.343288
21
0.410309
31
4.441423
12
-0.268772
22
0.538442
32
3.674250
13
-0.323417
23
0.914236
33
3.559187
0
3DFACE
8
coconut_palm10_leaves
10
-0.170703
20
0.707073
30
4.855454
11
0.041904
21
0.602901
31
4.789306
12
-0.087622
22
0.380177
32
4.305560
13
-0.343288
23
0.410309
33
4.441423
0
3DFACE
8
coconut_palm10_leaves
10
-0.378543
20
0.819443
30
4.881876
11
-0.170703
21
0.707073
31
4.855454
12
-0.343288
22
0.410309
32
4.441423
13
-0.526594
23
0.564867
33
4.379239
0
3DFACE
8
coconut_palm10_leaves
10
0.066181
20
1.114403
30
4.957432
11
0.271224
21
0.997224
31
4.909627
12
0.041904
22
0.602901
32
4.789306
13
-0.170703
23
0.707073
33
4.855454
0
3DFACE
8
coconut_palm10_leaves
10
-0.138862
20
1.231582
30
5.005237
11
0.066181
21
1.114403
31
4.957432
12
-0.170703
22
0.707073
32
4.855454
13
-0.378543
23
0.819443
33
4.881876
0
3DFACE
8
coconut_palm10_leaves
10
-0.641561
20
0.969412
30
5.674828
11
-0.775456
21
0.946926
31
5.252654
12
-1.280486
22
0.845234
32
5.264768
13
-1.146591
23
0.867720
33
5.686943
0
3DFACE
8
coconut_palm10_leaves
10
-0.218098
20
1.054681
30
5.470918
11
-0.351992
21
1.032195
31
5.048743
12
-0.775456
22
0.946926
32
5.252654
13
-0.641561
23
0.969412
33
5.674828
0
3DFACE
8
coconut_palm10_leaves
10
0.132970
20
1.125372
30
5.167005
11
-0.000924
21
1.102886
31
4.744831
12
-0.351992
22
1.032195
32
5.048743
13
-0.218098
23
1.054681
33
5.470918
0
3DFACE
8
coconut_palm10_leaves
10
-0.708509
20
0.958169
30
5.463741
11
-0.685224
21
0.723451
31
5.424704
12
-1.202181
22
0.619357
32
5.357732
13
-1.213539
23
0.856477
33
5.475855
0
3DFACE
8
coconut_palm10_leaves
10
-0.775520
20
1.184082
30
5.428857
11
-0.708509
21
0.958169
31
5.463741
12
-1.213539
22
0.856477
32
5.475855
13
-1.293488
23
1.079784
33
5.362300
0
3DFACE
8
coconut_palm10_leaves
10
-0.285045
20
1.043438
30
5.259830
11
-0.244828
21
0.812129
31
5.252336
12
-0.685224
22
0.723451
32
5.424704
13
-0.708509
23
0.958169
33
5.463741
0
3DFACE
8
coconut_palm10_leaves
10
-0.334495
20
1.272887
30
5.256045
11
-0.285045
21
1.043438
31
5.259830
12
-0.708509
22
0.958169
32
5.463741
13
-0.775520
23
1.184082
33
5.428857
0
3DFACE
8
coconut_palm10_leaves
10
0.066023
20
1.114129
30
4.955918
11
0.110712
21
0.883721
31
4.954195
12
-0.244828
22
0.812129
32
5.252336
13
-0.285045
23
1.043438
33
5.259830
0
3DFACE
8
coconut_palm10_leaves
10
0.021334
20
1.344537
30
4.957641
11
0.066023
21
1.114129
31
4.955918
12
-0.285045
22
1.043438
32
5.259830
13
-0.334495
23
1.272887
33
5.256045
0
3DFACE
8
coconut_palm10_leaves
10
0.045563
20
2.228814
30
4.016023
11
0.086873
21
1.751033
31
3.607768
12
0.097251
22
2.086282
32
3.083150
13
0.057225
23
2.600827
33
3.491405
0
3DFACE
8
coconut_palm10_leaves
10
0.031651
20
1.785017
30
4.471349
11
0.072961
21
1.307236
31
4.063093
12
0.086873
22
1.751033
32
3.607768
13
0.045563
23
2.228814
33
4.016023
0
3DFACE
8
coconut_palm10_leaves
10
0.016543
20
1.303065
30
4.884061
11
0.057853
21
0.825284
31
4.475806
12
0.072961
22
1.307236
32
4.063093
13
0.031651
23
1.785017
33
4.471349
0
3DFACE
8
coconut_palm10_leaves
10
0.066218
20
1.989923
30
3.811895
11
-0.251227
21
1.961074
31
3.771843
12
-0.240928
22
2.289608
32
3.214739
13
0.077880
23
2.361936
33
3.287277
0
3DFACE
8
coconut_palm10_leaves
10
0.382483
20
1.981121
30
3.812621
11
0.066218
21
1.989923
31
3.811895
12
0.077880
22
2.361936
32
3.287277
13
0.392890
23
2.313102
33
3.251824
0
3DFACE
8
coconut_palm10_leaves
10
0.052306
20
1.546126
30
4.267221
11
-0.264603
21
1.534379
31
4.242241
12
-0.251227
22
1.961074
32
3.771843
13
0.066218
23
1.989923
33
3.811895
0
3DFACE
8
coconut_palm10_leaves
10
0.369029
20
1.551939
30
4.285314
11
0.052306
21
1.546126
31
4.267221
12
0.066218
22
1.989923
32
3.811895
13
0.382483
23
1.981121
33
3.812621
0
3DFACE
8
coconut_palm10_leaves
10
0.037198
20
1.064175
30
4.679934
11
-0.279598
21
1.056043
31
4.657851
12
-0.264603
22
1.534379
32
4.242241
13
0.052306
23
1.546126
33
4.267221
0
3DFACE
8
coconut_palm10_leaves
10
0.353994
20
1.072307
30
4.702016
11
0.037198
21
1.064175
31
4.679934
12
0.052306
22
1.546126
32
4.267221
13
0.369029
23
1.551939
33
4.285314
0
3DFACE
8
coconut_palm10_leaves
10
-0.967840
20
0.190182
30
4.802104
11
-0.730086
21
0.479542
31
4.403523
12
-0.984180
22
0.262242
32
3.675798
13
-1.221934
23
-0.027118
33
4.074379
0
3DFACE
8
coconut_palm10_leaves
10
-0.529188
20
0.565315
30
5.126642
11
-0.291434
21
0.854674
31
4.728061
12
-0.730086
22
0.479542
32
4.403523
13
-0.967840
23
0.190182
33
4.802104
0
3DFACE
8
coconut_palm10_leaves
10
-0.049182
20
0.975813
30
5.190366
11
0.188572
21
1.265172
31
4.791785
12
-0.291434
22
0.854674
32
4.728061
13
-0.529188
23
0.565315
33
5.126642
0
3DFACE
8
coconut_palm10_leaves
10
-0.848963
20
0.334862
30
4.602813
11
-0.597902
21
0.135736
31
4.446013
12
-0.683507
22
0.062526
32
3.562640
13
-1.103057
23
0.117562
33
3.875089
0
3DFACE
8
coconut_palm10_leaves
10
-1.031895
20
0.592252
30
4.522050
11
-0.848963
21
0.334862
31
4.602813
12
-1.103057
22
0.117562
32
3.875089
13
-1.138676
23
0.500933
33
3.618844
0
3DFACE
8
coconut_palm10_leaves
10
-0.410311
20
0.709994
30
4.927351
11
-0.199812
21
0.476180
31
4.865230
12
-0.597902
22
0.135736
32
4.446013
13
-0.848963
23
0.334862
33
4.602813
0
3DFACE
8
coconut_palm10_leaves
10
-0.617047
20
0.947027
30
4.947426
11
-0.410311
21
0.709994
31
4.927351
12
-0.848963
22
0.334862
32
4.602813
13
-1.031895
23
0.592252
33
4.522050
0
3DFACE
8
coconut_palm10_leaves
10
0.069695
20
1.120492
30
4.991076
11
0.273961
21
0.881347
31
4.949606
12
-0.199812
22
0.476180
32
4.865230
13
-0.410311
23
0.709994
33
4.927351
0
3DFACE
8
coconut_palm10_leaves
10
-0.134571
20
1.359637
30
5.032545
11
0.069695
21
1.120492
31
4.991076
12
-0.410311
22
0.709994
32
4.927351
13
-0.617047
23
0.947027
33
4.947426
0
3DFACE
8
coconut_palm10_leaves
10
1.049819
20
1.128070
30
4.611022
11
0.896159
21
0.941640
31
4.170102
12
1.400540
22
0.912974
32
4.067946
13
1.554200
23
1.099404
33
4.508867
0
3DFACE
8
coconut_palm10_leaves
10
0.577510
20
1.154914
30
4.796519
11
0.423851
21
0.968484
31
4.355598
12
0.896159
22
0.941640
32
4.170102
13
1.049819
23
1.128070
33
4.611022
0
3DFACE
8
coconut_palm10_leaves
10
0.127362
20
1.180498
30
5.028059
11
-0.026298
21
0.994068
31
4.587138
12
0.423851
22
0.968484
32
4.355598
13
0.577510
23
1.154914
33
4.796519
0
3DFACE
8
coconut_palm10_leaves
10
0.972989
20
1.034855
30
4.390562
11
0.955228
21
1.269718
31
4.317609
12
1.479244
22
1.239936
32
4.249384
13
1.477370
23
1.006189
33
4.288406
0
3DFACE
8
coconut_palm10_leaves
10
1.006364
20
0.799105
30
4.499078
11
0.972989
21
1.034855
31
4.390562
12
1.477370
22
1.006189
32
4.288406
13
1.512925
23
0.770315
33
4.437376
0
3DFACE
8
coconut_palm10_leaves
10
0.500681
20
1.061699
30
4.576058
11
0.470937
21
1.297242
31
4.490848
12
0.955228
22
1.269718
32
4.317609
13
0.972989
23
1.034855
33
4.390562
0
3DFACE
8
coconut_palm10_leaves
10
0.533362
20
0.825988
30
4.667044
11
0.500681
21
1.061699
31
4.576058
12
0.972989
22
1.034855
32
4.390562
13
1.006364
23
0.799105
33
4.499078
0
3DFACE
8
coconut_palm10_leaves
10
0.050532
20
1.087282
30
4.807599
11
0.016561
21
1.323066
31
4.720952
12
0.470937
22
1.297242
32
4.490848
13
0.500681
23
1.061699
33
4.576058
0
3DFACE
8
coconut_palm10_leaves
10
0.084502
20
0.851499
30
4.894245
11
0.050532
21
1.087282
31
4.807599
12
0.500681
22
1.061699
32
4.576058
13
0.533362
23
0.825988
33
4.667044
0
3DFACE
8
coconut_palm10_leaves
10
-1.348568
20
1.317940
30
4.797354
11
-0.986198
21
1.270124
31
4.475705
12
-1.148005
22
1.292964
32
3.499048
13
-1.510375
23
1.340780
33
3.820698
0
3DFACE
8
coconut_palm10_leaves
10
-0.753398
20
1.233930
30
5.179005
11
-0.391029
21
1.186114
31
4.857356
12
-0.986198
22
1.270124
32
4.475705
13
-1.348568
23
1.317940
33
4.797354
0
3DFACE
8
coconut_palm10_leaves
10
-0.112065
20
1.143403
30
5.146390
11
0.250304
21
1.095587
31
4.824740
12
-0.391029
22
1.186114
32
4.857356
13
-0.753398
23
1.233930
33
5.179005
0
3DFACE
8
coconut_palm10_leaves
10
-1.167383
20
1.294032
30
4.636529
11
-1.141977
21
0.963228
31
4.444309
12
-0.896306
22
0.928551
32
3.302985
13
-1.329190
23
1.316872
33
3.659873
0
3DFACE
8
coconut_palm10_leaves
10
-1.053557
20
1.605183
30
4.449061
11
-1.167383
21
1.294032
31
4.636529
12
-1.329190
22
1.316872
32
3.659873
13
-0.810211
23
1.570834
33
3.305490
0
3DFACE
8
coconut_palm10_leaves
10
-0.572213
20
1.210022
30
5.018180
11
-0.618300
21
0.889309
31
4.981602
12
-1.141977
22
0.963228
32
4.444309
13
-1.167383
23
1.294032
33
4.636529
0
3DFACE
8
coconut_palm10_leaves
10
-0.527739
20
1.530962
30
4.986833
11
-0.572213
21
1.210022
31
5.018180
12
-1.167383
22
1.294032
32
4.636529
13
-1.053557
23
1.605183
33
4.449061
0
3DFACE
8
coconut_palm10_leaves
10
0.069119
20
1.119495
30
4.985565
11
0.023288
21
0.798747
31
4.983008
12
-0.618300
22
0.889309
32
4.981602
13
-0.572213
23
1.210022
33
5.018180
0
3DFACE
8
coconut_palm10_leaves
10
0.114950
20
1.440243
30
4.988122
11
0.069119
21
1.119495
31
4.985565
12
-0.572213
22
1.210022
32
5.018180
13
-0.527739
23
1.530962
33
4.986833
0
3DFACE
8
coconut_palm10_leaves
10
-0.583420
20
1.296194
30
4.312012
11
-0.318260
21
1.195045
31
4.169713
12
-0.318648
22
1.195181
32
3.726164
13
-0.583808
23
1.296330
33
3.868463
0
3DFACE
8
coconut_palm10_leaves
10
-0.379326
20
1.224730
30
4.615278
11
-0.114166
21
1.123582
31
4.472979
12
-0.318260
22
1.195045
32
4.169713
13
-0.583420
23
1.296194
33
4.312012
0
3DFACE
8
coconut_palm10_leaves
10
-0.090314
20
1.123532
30
4.799608
11
0.174846
21
1.022384
31
4.657310
12
-0.114166
22
1.123582
32
4.472979
13
-0.379326
23
1.224730
33
4.615278
0
3DFACE
8
coconut_palm10_leaves
10
-0.450840
20
1.245620
30
4.240862
11
-0.486657
21
1.068746
31
4.215946
12
-0.415079
22
1.043683
32
3.751582
13
-0.451228
23
1.245756
33
3.797313
0
3DFACE
8
coconut_palm10_leaves
10
-0.362045
20
1.403943
30
4.209394
11
-0.450840
21
1.245620
31
4.240862
12
-0.451228
22
1.245756
32
3.797313
13
-0.288758
23
1.378281
33
3.747892
0
3DFACE
8
coconut_palm10_leaves
10
-0.246746
20
1.174156
30
4.544128
11
-0.304888
21
1.005099
31
4.542428
12
-0.486657
22
1.068746
32
4.215946
13
-0.450840
23
1.245620
33
4.240862
0
3DFACE
8
coconut_palm10_leaves
10
-0.181973
20
1.340891
30
4.534405
11
-0.246746
21
1.174156
31
4.544128
12
-0.450840
22
1.245620
32
4.240862
13
-0.362045
23
1.403943
33
4.209394
0
3DFACE
8
coconut_palm10_leaves
10
0.042266
20
1.072958
30
4.728459
11
-0.018705
21
0.904892
31
4.732750
12
-0.304888
22
1.005099
32
4.542428
13
-0.246746
23
1.174156
33
4.544128
0
3DFACE
8
coconut_palm10_leaves
10
0.103238
20
1.241024
30
4.724167
11
0.042266
21
1.072958
31
4.728459
12
-0.246746
22
1.174156
32
4.544128
13
-0.181973
23
1.340891
33
4.534405
0
3DFACE
8
coconut_palm10_leaves
10
-0.694862
20
1.095269
30
5.957386
11
-0.890999
21
1.055428
31
5.473861
12
-1.509013
22
1.024729
32
5.508443
13
-1.312877
23
1.064569
33
5.991968
0
3DFACE
8
coconut_palm10_leaves
10
-0.194458
20
1.120126
30
5.658269
11
-0.390594
21
1.080286
31
5.174744
12
-0.890999
22
1.055428
32
5.473861
13
-0.694862
23
1.095269
33
5.957386
0
3DFACE
8
coconut_palm10_leaves
10
0.166401
20
1.138052
30
5.219794
11
-0.029736
21
1.098211
31
4.736269
12
-0.390594
22
1.080286
32
5.174744
13
-0.194458
23
1.120126
33
5.658269
0
3DFACE
8
coconut_palm10_leaves
10
-0.792931
20
1.075349
30
5.715624
11
-0.815686
21
0.790266
31
5.666098
12
-1.415052
22
0.760493
32
5.589896
13
-1.410945
23
1.044649
33
5.750206
0
3DFACE
8
coconut_palm10_leaves
10
-0.864196
20
1.355761
30
5.638595
11
-0.792931
21
1.075349
31
5.715624
12
-1.410945
22
1.044649
32
5.750206
13
-1.455209
23
1.326403
33
5.559545
0
3DFACE
8
coconut_palm10_leaves
10
-0.292526
20
1.100206
30
5.416507
11
-0.276474
21
0.817051
31
5.418447
12
-0.815686
22
0.790266
32
5.666098
13
-0.792931
23
1.075349
33
5.715624
0
3DFACE
8
coconut_palm10_leaves
10
-0.330542
20
1.382270
30
5.395927
11
-0.292526
21
1.100206
31
5.416507
12
-0.792931
22
1.075349
32
5.715624
13
-0.864196
23
1.355761
33
5.638595
0
3DFACE
8
coconut_palm10_leaves
10
0.068333
20
1.118131
30
4.978031
11
0.096576
21
0.835582
31
4.987721
12
-0.276474
22
0.817051
32
5.418447
13
-0.292526
23
1.100206
33
5.416507
0
3DFACE
8
coconut_palm10_leaves
10
0.040089
20
1.400681
30
4.968341
11
0.068333
21
1.118131
31
4.978031
12
-0.292526
22
1.100206
32
5.416507
13
-0.330542
23
1.382270
33
5.395927
0
3DFACE
8
coconut_palm10_leaves
10
1.141218
20
0.536096
30
4.950319
11
1.008263
21
0.336654
31
4.394314
12
1.528369
22
0.024854
32
4.364040
13
1.661324
23
0.224296
33
4.920044
0
3DFACE
8
coconut_palm10_leaves
10
0.621054
20
0.847931
30
4.950748
11
0.488100
21
0.648488
31
4.394743
12
1.008263
22
0.336654
32
4.394314
13
1.141218
23
0.536096
33
4.950319
0
3DFACE
8
coconut_palm10_leaves
10
0.101189
20
1.159587
30
4.934127
11
-0.031766
21
0.960144
31
4.378123
12
0.488100
22
0.648488
32
4.394743
13
0.621054
23
0.847931
33
4.950748
0
3DFACE
8
coconut_palm10_leaves
10
1.074740
20
0.436375
30
4.672317
11
1.218588
21
0.674549
31
4.544722
12
1.735520
22
0.364652
32
4.498972
13
1.594847
23
0.124575
33
4.642042
0
3DFACE
8
coconut_palm10_leaves
10
0.931027
20
0.198120
30
4.784413
11
1.074740
21
0.436375
31
4.672317
12
1.594847
22
0.124575
32
4.642042
13
1.453609
23
-0.115164
33
4.738618
0
3DFACE
8
coconut_palm10_leaves
10
0.554577
20
0.748210
30
4.672746
11
0.700270
21
0.985277
31
4.551644
12
1.218588
22
0.674549
32
4.544722
13
1.074740
23
0.436375
33
4.672317
0
3DFACE
8
coconut_palm10_leaves
10
0.408942
20
0.511107
30
4.791265
11
0.554577
21
0.748210
31
4.672746
12
1.074740
22
0.436375
32
4.672317
13
0.931027
23
0.198120
33
4.784413
0
3DFACE
8
coconut_palm10_leaves
10
0.034711
20
1.059865
30
4.656125
11
0.181316
21
1.296386
31
4.536347
12
0.700270
22
0.985277
32
4.551644
13
0.554577
23
0.748210
33
4.672746
0
3DFACE
8
coconut_palm10_leaves
10
-0.111894
20
0.823344
30
4.775903
11
0.034711
21
1.059865
31
4.656125
12
0.554577
22
0.748210
32
4.672746
13
0.408942
23
0.511107
33
4.791265
0
3DFACE
8
coconut_palm10_leaves
10
0.308616
20
1.875336
30
5.147448
11
0.439451
21
2.000929
31
4.715342
12
0.592467
22
2.399578
32
4.954377
13
0.461632
23
2.273986
33
5.386483
0
3DFACE
8
coconut_palm10_leaves
10
0.144361
20
1.447405
30
5.011298
11
0.275196
21
1.572998
31
4.579192
12
0.439451
22
2.000929
32
4.715342
13
0.308616
23
1.875336
33
5.147448
0
3DFACE
8
coconut_palm10_leaves
10
-0.024099
20
1.008519
30
4.935435
11
0.106736
21
1.134111
31
4.503329
12
0.275196
22
1.572998
32
4.579192
13
0.144361
23
1.447405
33
5.011298
0
3DFACE
8
coconut_palm10_leaves
10
0.374034
20
1.938132
30
4.931395
11
0.156633
21
2.026457
31
4.914400
12
0.305148
22
2.413382
32
5.195434
13
0.527050
23
2.336782
33
5.170430
0
3DFACE
8
coconut_palm10_leaves
10
0.587761
20
1.840237
30
4.991015
11
0.374034
21
1.938132
31
4.931395
12
0.527050
22
2.336782
32
5.170430
13
0.733047
23
2.218747
33
5.269186
0
3DFACE
8
coconut_palm10_leaves
10
0.209778
20
1.510201
30
4.795245
11
-0.007105
21
1.599874
31
4.759892
12
0.156633
22
2.026457
32
4.914400
13
0.374034
23
1.938132
33
4.931395
0
3DFACE
8
coconut_palm10_leaves
10
0.426235
20
1.419417
30
4.837808
11
0.209778
21
1.510201
31
4.795245
12
0.374034
22
1.938132
32
4.931395
13
0.587761
23
1.840237
33
4.991015
0
3DFACE
8
coconut_palm10_leaves
10
0.041318
20
1.071315
30
4.719382
11
-0.175911
21
1.160087
31
4.680192
12
-0.007105
22
1.599874
32
4.759892
13
0.209778
23
1.510201
33
4.795245
0
3DFACE
8
coconut_palm10_leaves
10
0.258547
20
0.982543
30
4.758572
11
0.041318
21
1.071315
31
4.719382
12
0.209778
22
1.510201
32
4.795245
13
0.426235
23
1.419417
33
4.837808
0
3DFACE
8
coconut_palm10_leaves
10
-0.080395
20
0.871037
30
5.502176
11
-0.268529
21
0.708292
31
5.278289
12
-0.443088
22
0.477049
32
5.483904
13
-0.254954
23
0.639794
33
5.707791
0
3DFACE
8
coconut_palm10_leaves
10
0.048935
20
1.042363
30
5.232061
11
-0.139199
21
0.879618
31
5.008173
12
-0.268529
22
0.708292
32
5.278289
13
-0.080395
23
0.871037
33
5.502176
0
3DFACE
8
coconut_palm10_leaves
10
0.145666
20
1.170505
30
4.929763
11
-0.042468
21
1.007760
31
4.705876
12
-0.139199
22
0.879618
32
5.008173
13
0.048935
23
1.042363
33
5.232061
0
3DFACE
8
coconut_palm10_leaves
10
-0.174462
20
0.789664
30
5.390233
11
-0.060694
21
0.659680
31
5.366049
12
-0.242697
22
0.418576
32
5.549083
13
-0.349021
23
0.558422
33
5.595848
0
3DFACE
8
coconut_palm10_leaves
10
-0.303819
20
0.898998
30
5.396717
11
-0.174462
21
0.789664
31
5.390233
12
-0.349021
22
0.558422
32
5.595848
13
-0.488863
23
0.653866
33
5.585573
0
3DFACE
8
coconut_palm10_leaves
10
-0.045132
20
0.960991
30
5.120117
11
0.074061
21
0.838193
31
5.105946
12
-0.060694
22
0.659680
32
5.366049
13
-0.174462
23
0.789664
33
5.390233
0
3DFACE
8
coconut_palm10_leaves
10
-0.167234
20
1.079936
30
5.131698
11
-0.045132
21
0.960991
31
5.120117
12
-0.174462
22
0.789664
32
5.390233
13
-0.303819
23
0.898998
33
5.396717
0
3DFACE
8
coconut_palm10_leaves
10
0.051599
20
1.089133
30
4.817820
11
0.171842
21
0.967725
31
4.806269
12
0.074061
22
0.838193
32
5.105946
13
-0.045132
23
0.960991
33
5.120117
0
3DFACE
8
coconut_palm10_leaves
10
-0.068644
20
1.210540
30
4.829370
11
0.051599
21
1.089133
31
4.817820
12
-0.045132
22
0.960991
32
5.120117
13
-0.167234
23
1.079936
33
5.131698
0
3DFACE
8
coconut_palm10_leaves
10
0.335294
20
0.510697
30
5.307823
11
0.266614
21
0.297203
31
4.988079
12
0.374070
22
-0.005170
32
5.236273
13
0.442750
23
0.208324
33
5.556017
0
3DFACE
8
coconut_palm10_leaves
10
0.215265
20
0.848451
30
5.137034
11
0.146585
21
0.634957
31
4.817290
12
0.266614
22
0.297203
32
4.988079
13
0.335294
23
0.510697
33
5.307823
0
3DFACE
8
coconut_palm10_leaves
10
0.279146
20
0.897382
30
4.830466
11
0.045917
21
1.079286
31
4.763417
12
0.396020
22
1.423545
32
4.407143
13
0.627289
23
1.239715
33
4.453159
0
3DFACE
8
coconut_palm10_leaves
10
0.045917
20
1.079286
30
4.763417
11
-0.187311
21
1.261189
31
4.696368
12
0.148477
22
1.591373
32
4.330706
13
0.396020
23
1.423545
33
4.407143
0
3DFACE
8
coconut_palm10_leaves
10
0.627289
20
1.239715
30
4.453159
11
0.396020
21
1.423545
31
4.407143
12
0.627405
22
1.651068
32
3.865702
13
0.815177
23
1.424468
33
3.841503
0
3DFACE
8
coconut_palm10_leaves
10
0.396020
20
1.423545
30
4.407143
11
0.148477
21
1.591373
31
4.330706
12
0.315842
22
1.755944
32
3.748473
13
0.627405
23
1.651068
33
3.865702
0
3DFACE
8
coconut_palm10_leaves
10
0.815177
20
1.424468
30
3.841503
11
0.627405
21
1.651068
31
3.865702
12
0.590814
22
1.592000
32
3.123832
13
0.630818
23
1.198180
33
3.051996
0
3DFACE
8
coconut_palm10_leaves
10
0.627405
20
1.651068
30
3.865702
11
0.315842
21
1.755944
31
3.748473
12
0.114157
22
1.500659
32
3.012796
13
0.590814
23
1.592000
33
3.123832
0
3DFACE
8
coconut_palm10_leaves
10
0.177010
20
1.295354
30
4.841915
11
-0.085176
21
0.863217
31
4.684919
12
0.264927
22
1.207476
32
4.328645
13
0.527113
23
1.639614
33
4.485641
0
3DFACE
8
coconut_palm10_leaves
10
0.527113
20
1.639614
30
4.485641
11
0.264927
21
1.207476
31
4.328645
12
0.496312
22
1.434999
32
3.787204
13
0.758498
23
1.867137
33
3.944200
0
3DFACE
8
coconut_palm10_leaves
10
0.758498
20
1.867137
30
3.944200
11
0.496312
21
1.434999
31
3.787204
12
0.458855
22
1.351129
32
3.045334
13
0.722742
23
1.831978
33
3.202330
0
3DFACE
8
coconut_palm10_leaves
10
0.242392
20
0.865204
30
4.789292
11
0.040619
21
1.070104
31
4.712688
12
0.453311
22
1.434378
32
4.485193
13
0.658447
23
1.232447
33
4.524931
0
3DFACE
8
coconut_palm10_leaves
10
0.040619
20
1.070104
30
4.712688
11
-0.161154
21
1.275003
31
4.636085
12
0.227582
22
1.618132
32
4.384011
13
0.453311
23
1.434378
33
4.485193
0
3DFACE
8
coconut_palm10_leaves
10
0.658447
20
1.232447
30
4.524931
11
0.453311
21
1.434378
31
4.485193
12
0.680881
22
1.635249
32
3.883083
13
0.804289
23
1.361178
33
3.798576
0
3DFACE
8
coconut_palm10_leaves
10
0.453311
20
1.434378
30
4.485193
11
0.227582
21
1.618132
31
4.384011
12
0.329749
22
1.708313
32
3.706403
13
0.680881
23
1.635249
33
3.883083
0
3DFACE
8
coconut_palm10_leaves
10
0.804289
20
1.361178
30
3.798576
11
0.680881
21
1.635249
31
3.883083
12
0.347834
22
1.276309
32
2.987350
13
0.151559
23
0.711147
33
2.958238
0
3DFACE
8
coconut_palm10_leaves
10
0.680881
20
1.635249
30
3.883083
11
0.329749
21
1.708313
31
3.706403
12
-0.342909
22
1.045470
32
2.973847
13
0.347834
23
1.276309
33
2.987350
0
3DFACE
8
coconut_palm10_leaves
10
0.162786
20
1.235100
30
4.741536
11
-0.081548
21
0.905107
31
4.683841
12
0.331144
22
1.269382
32
4.456346
13
0.575478
23
1.599374
33
4.514040
0
3DFACE
8
coconut_palm10_leaves
10
0.575478
20
1.599374
30
4.514040
11
0.331144
21
1.269382
31
4.456346
12
0.558715
22
1.470253
32
3.854236
13
0.803048
23
1.800245
33
3.911930
0
3DFACE
8
coconut_palm10_leaves
10
0.803048
20
1.800245
30
3.911930
11
0.558715
21
1.470253
31
3.854236
12
0.225349
22
1.102198
32
2.958502
13
0.470319
23
1.450420
33
3.016197
0
3DFACE
8
coconut_palm10_leaves
10
0.226323
20
1.059731
30
4.915745
11
0.059812
21
1.103366
31
4.896454
12
0.128834
22
1.433586
32
4.976043
13
0.296752
23
1.396687
33
4.985676
0
3DFACE
8
coconut_palm10_leaves
10
0.059812
20
1.103366
30
4.896454
11
-0.106699
21
1.147000
31
4.877163
12
-0.038097
22
1.475212
32
4.944234
13
0.128834
23
1.433586
33
4.976043
0
3DFACE
8
coconut_palm10_leaves
10
0.296752
20
1.396687
30
4.985676
11
0.128834
21
1.433586
31
4.976043
12
0.199860
22
1.773396
32
4.798149
13
0.366303
23
1.729441
33
4.754037
0
3DFACE
8
coconut_palm10_leaves
10
0.128834
20
1.433586
30
4.976043
11
-0.038097
21
1.475212
31
4.944234
12
0.027713
22
1.790065
32
4.713142
13
0.199860
23
1.773396
33
4.798149
0
3DFACE
8
coconut_palm10_leaves
10
0.366303
20
1.729441
30
4.754037
11
0.199860
21
1.773396
31
4.798149
12
0.218860
22
1.864298
32
4.258863
13
0.359835
23
1.698493
33
4.157308
0
3DFACE
8
coconut_palm10_leaves
10
0.199860
20
1.773396
30
4.798149
11
0.027713
21
1.790065
31
4.713142
12
0.017021
22
1.738915
32
4.131749
13
0.218860
23
1.864298
33
4.258863
0
3DFACE
8
coconut_palm10_leaves
10
0.063677
20
1.184106
30
4.994227
11
0.055947
21
1.022626
31
4.798680
12
0.124969
22
1.352846
32
4.878269
13
0.132699
23
1.514326
33
5.073816
0
3DFACE
8
coconut_palm10_leaves
10
0.132699
20
1.514326
30
5.073816
11
0.124969
21
1.352846
31
4.878269
12
0.195995
22
1.692656
32
4.700376
13
0.203725
23
1.854136
33
4.895923
0
3DFACE
8
coconut_palm10_leaves
10
0.203725
20
1.854136
30
4.895923
11
0.195995
21
1.692656
31
4.700376
12
0.214995
22
1.783558
32
4.161089
13
0.222725
23
1.945038
33
4.356637
0
3DFACE
8
coconut_palm10_leaves
10
0.294234
20
1.244249
30
4.894834
11
0.059620
21
1.103033
31
4.894616
12
-0.158184
22
1.465293
32
4.546857
13
0.083197
23
1.595253
33
4.531654
0
3DFACE
8
coconut_palm10_leaves
10
0.059620
20
1.103033
30
4.894616
11
-0.174994
21
0.961817
31
4.894397
12
-0.385994
22
1.312760
32
4.531271
13
-0.158184
23
1.465293
33
4.546857
0
3DFACE
8
coconut_palm10_leaves
10
0.083197
20
1.595253
30
4.531654
11
-0.158184
21
1.465293
31
4.546857
12
-0.265294
22
1.643442
32
4.001419
13
0.021082
23
1.698565
33
3.940964
0
3DFACE
8
coconut_palm10_leaves
10
-0.158184
20
1.465293
30
4.546857
11
-0.385994
21
1.312760
31
4.531271
12
-0.448054
22
1.415981
32
3.940716
13
-0.265294
23
1.643442
33
4.001419
0
3DFACE
8
coconut_palm10_leaves
10
0.021082
20
1.698565
30
3.940964
11
-0.265294
21
1.643442
31
4.001419
12
-0.130273
22
1.418869
32
3.325305
13
0.270680
23
1.283426
33
3.326069
0
3DFACE
8
coconut_palm10_leaves
10
-0.265294
20
1.643442
30
4.001419
11
-0.448054
21
1.415981
31
3.940716
12
-0.198435
22
1.000805
32
3.326055
13
-0.130273
23
1.418869
33
3.325305
0
3DFACE
8
coconut_palm10_leaves
10
-0.054776
20
1.292941
30
4.924651
11
0.174017
21
0.913125
31
4.864581
12
-0.043788
22
1.275385
32
4.516822
13
-0.272581
23
1.655201
33
4.576892
0
3DFACE
8
coconut_palm10_leaves
10
-0.272581
20
1.655201
30
4.576892
11
-0.043788
21
1.275385
31
4.516822
12
-0.150898
22
1.453534
32
3.971384
13
-0.379691
23
1.833351
33
4.031454
0
3DFACE
8
coconut_palm10_leaves
10
-0.379691
20
1.833351
30
4.031454
11
-0.150898
21
1.453534
31
3.971384
12
-0.015876
22
1.228961
32
3.295270
13
-0.244669
23
1.608778
33
3.355339
0
3DFACE
8
coconut_palm10_leaves
10
-0.094833
20
1.171255
30
5.025900
11
0.068779
21
1.118905
31
4.982307
12
-0.028363
22
0.778302
32
5.001383
13
-0.193036
23
0.826930
33
5.040824
0
3DFACE
8
coconut_palm10_leaves
10
0.068779
20
1.118905
30
4.982307
11
0.232391
21
1.066556
31
4.938714
12
0.136194
22
0.729266
32
4.953028
13
-0.028363
23
0.778302
33
5.001383
0
3DFACE
8
coconut_palm10_leaves
10
-0.193036
20
0.826930
30
5.040824
11
-0.028363
21
0.778302
31
5.001383
12
-0.125030
22
0.439362
32
4.919869
13
-0.290870
23
0.483900
33
4.936851
0
3DFACE
8
coconut_palm10_leaves
10
-0.028363
20
0.778302
30
5.001383
11
0.136194
21
0.729266
31
4.953028
12
0.042378
22
0.400325
32
4.849677
13
-0.125030
23
0.439362
33
4.919869
0
3DFACE
8
coconut_palm10_leaves
10
-0.290870
20
0.483900
30
4.936851
11
-0.125030
21
0.439362
31
4.919869
12
-0.209938
22
0.141654
32
4.666953
13
-0.372158
23
0.198885
33
4.632216
0
3DFACE
8
coconut_palm10_leaves
10
-0.125030
20
0.439362
30
4.919869
11
0.042378
21
0.400325
31
4.849677
12
-0.033081
22
0.135749
32
4.550502
13
-0.209938
23
0.141654
33
4.666953
0
3DFACE
8
coconut_palm10_leaves
10
0.091442
20
1.053220
30
5.133719
11
0.046116
21
1.184591
31
4.830894
12
-0.051026
22
0.843988
32
4.849970
13
-0.005700
23
0.712617
33
5.152795
0
3DFACE
8
coconut_palm10_leaves
10
-0.005700
20
0.712617
30
5.152795
11
-0.051026
21
0.843988
31
4.849970
12
-0.147693
22
0.505048
32
4.768457
13
-0.102367
23
0.373676
33
5.071282
0
3DFACE
8
coconut_palm10_leaves
10
-0.102367
20
0.373676
30
5.071282
11
-0.147693
21
0.505048
31
4.768457
12
-0.232601
22
0.207340
32
4.515541
13
-0.187275
23
0.075969
33
4.818366
0
3DFACE
8
coconut_palm10_leaves
10
0.370653
20
1.177197
30
4.969367
11
0.065412
21
1.113070
31
4.950067
12
-0.040938
22
1.676534
32
4.700495
13
0.265236
23
1.735723
33
4.702849
0
3DFACE
8
coconut_palm10_leaves
10
0.065412
20
1.113070
30
4.950067
11
-0.239830
21
1.048942
31
4.930767
12
-0.344418
22
1.603077
32
4.666031
13
-0.040938
23
1.676534
33
4.700495
0
3DFACE
8
coconut_palm10_leaves
10
0.265236
20
1.735723
30
4.702849
11
-0.040938
21
1.676534
31
4.700495
12
-0.127252
22
2.133846
32
4.253631
13
0.188385
23
2.142897
33
4.184775
0
3DFACE
8
coconut_palm10_leaves
10
-0.040938
20
1.676534
30
4.700495
11
-0.344418
21
1.603077
31
4.666031
12
-0.419762
22
2.002266
32
4.153026
13
-0.127252
23
2.133846
33
4.253631
0
3DFACE
8
coconut_palm10_leaves
10
0.188385
20
2.142897
30
4.184775
11
-0.127252
21
2.133846
31
4.253631
12
-0.161625
22
2.315968
32
3.531140
13
0.188655
23
2.141465
33
3.361981
0
3DFACE
8
coconut_palm10_leaves
10
-0.127252
20
2.133846
30
4.253631
11
-0.419762
21
2.002266
31
4.153026
12
-0.417775
22
1.991742
32
3.340946
13
-0.161625
23
2.315968
33
3.531140
0
3DFACE
8
coconut_palm10_leaves
10
0.006121
20
1.335713
30
5.107350
11
0.124702
21
0.890426
31
4.792783
12
0.018353
22
1.453891
32
4.543211
13
-0.100228
23
1.899178
33
4.857779
0
3DFACE
8
coconut_palm10_leaves
10
-0.100228
20
1.899178
30
4.857779
11
0.018353
21
1.453891
31
4.543211
12
-0.067961
22
1.911202
32
4.096347
13
-0.186542
23
2.356489
33
4.410914
0
3DFACE
8
coconut_palm10_leaves
10
-0.186542
20
2.356489
30
4.410914
11
-0.067961
21
1.911202
31
4.096347
12
-0.102335
22
2.093324
32
3.373857
13
-0.220916
23
2.538611
33
3.688424
0
3DFACE
8
coconut_palm10_leaves
10
0.286997
20
1.153506
30
4.973719
11
0.066370
21
1.114730
31
4.959239
12
0.005016
22
1.527714
32
4.793630
13
0.225611
23
1.566706
33
4.809252
0
3DFACE
8
coconut_palm10_leaves
10
0.066370
20
1.114730
30
4.959239
11
-0.154258
21
1.075954
31
4.944758
12
-0.215702
22
1.489552
32
4.780129
13
0.005016
23
1.527714
33
4.793630
0
3DFACE
8
coconut_palm10_leaves
10
0.225611
20
1.566706
30
4.809252
11
0.005016
21
1.527714
31
4.793630
12
-0.057407
22
1.947900
32
4.646997
13
0.162963
23
1.988404
33
4.668138
0
3DFACE
8
coconut_palm10_leaves
10
0.005016
20
1.527714
30
4.793630
11
-0.215702
21
1.489552
31
4.780129
12
-0.278470
22
1.912053
32
4.638709
13
-0.057407
23
1.947900
33
4.646997
0
3DFACE
8
coconut_palm10_leaves
10
0.162963
20
1.988404
30
4.668138
11
-0.057407
21
1.947900
31
4.646997
12
-0.121524
22
2.379483
32
4.534013
13
0.098353
23
2.423308
33
4.568460
0
3DFACE
8
coconut_palm10_leaves
10
-0.057407
20
1.947900
30
4.646997
11
-0.278470
21
1.912053
31
4.638709
12
-0.343261
22
2.348175
32
4.538614
13
-0.121524
23
2.379483
33
4.534013
0
3DFACE
8
coconut_palm10_leaves
10
0.041043
20
1.179040
30
5.172352
11
0.091696
21
1.050420
31
4.746125
12
0.030343
22
1.463404
32
4.580516
13
-0.020310
23
1.592025
33
5.006743
0
3DFACE
8
coconut_palm10_leaves
10
-0.020310
20
1.592025
30
5.006743
11
0.030343
21
1.463404
31
4.580516
12
-0.032081
22
1.883589
32
4.433884
13
-0.082734
23
2.012210
33
4.860111
0
3DFACE
8
coconut_palm10_leaves
10
-0.082734
20
2.012210
30
4.860111
11
-0.032081
21
1.883589
31
4.433884
12
-0.096197
22
2.315172
32
4.320899
13
-0.146850
23
2.443793
33
4.747127
0
3DFACE
8
coconut_palm10_leaves
10
-0.108193
20
1.131829
30
4.725546
11
0.039092
21
1.067458
31
4.698071
12
0.006000
22
0.863066
32
4.950124
13
-0.142312
23
0.921097
33
4.978539
0
3DFACE
8
coconut_palm10_leaves
10
0.039092
20
1.067458
30
4.698071
11
0.186377
21
1.003087
31
4.670597
12
0.153198
22
0.798155
32
4.915894
13
0.006000
23
0.863066
33
4.950124
0
3DFACE
8
coconut_palm10_leaves
10
-0.142312
20
0.921097
30
4.978539
11
0.006000
21
0.863066
31
4.950124
12
-0.039443
22
0.582394
32
5.126082
13
-0.190789
23
0.621685
33
5.144036
0
3DFACE
8
coconut_palm10_leaves
10
0.006000
20
0.863066
30
4.950124
11
0.153198
21
0.798155
31
4.915894
12
0.106862
22
0.511967
32
5.068586
13
-0.039443
23
0.582394
33
5.126082
0
3DFACE
8
coconut_palm10_leaves
10
-0.190789
20
0.621685
30
5.144036
11
-0.039443
21
0.582394
31
5.126082
12
-0.096163
22
0.232069
32
5.156280
13
-0.249122
23
0.261398
33
5.141271
0
3DFACE
8
coconut_palm10_leaves
10
-0.039443
20
0.582394
30
5.126082
11
0.106862
21
0.511967
31
5.068586
12
0.051887
22
0.172426
32
5.055813
13
-0.096163
23
0.232069
33
5.156280
0
3DFACE
8
coconut_palm10_leaves
10
0.092065
20
1.121690
30
4.830697
11
-0.013880
21
1.013225
31
4.565446
12
-0.046973
22
0.808833
32
4.817499
13
0.058973
23
0.917298
33
5.082750
0
3DFACE
8
coconut_palm10_leaves
10
0.058973
20
0.917298
30
5.082750
11
-0.046973
21
0.808833
31
4.817499
12
-0.092416
22
0.528162
32
4.993456
13
0.013530
23
0.636627
33
5.258708
0
3DFACE
8
coconut_palm10_leaves
10
0.013530
20
0.636627
30
5.258708
11
-0.092416
21
0.528162
31
4.993456
12
-0.149136
22
0.177837
32
5.023654
13
-0.043190
23
0.286302
33
5.288906
0
3DFACE
8
coconut_palm10_leaves
10
0.103313
20
0.865224
30
5.083747
11
0.069379
21
1.119945
31
4.988052
12
0.607268
22
1.228811
32
4.982008
13
0.663088
23
0.978519
33
5.050567
0
3DFACE
8
coconut_palm10_leaves
10
0.069379
20
1.119945
30
4.988052
11
0.035445
21
1.374667
31
4.892356
12
0.549373
22
1.478683
32
4.856472
13
0.607268
23
1.228811
33
4.982008
0
3DFACE
8
coconut_palm10_leaves
10
0.663088
20
0.978519
30
5.050567
11
0.607268
21
1.228811
31
4.982008
12
1.064307
22
1.321312
32
4.571582
13
1.088879
23
1.064696
33
4.503189
0
3DFACE
8
coconut_palm10_leaves
10
0.607268
20
1.228811
30
4.982008
11
0.549373
21
1.478683
31
4.856472
12
0.888527
22
1.547325
32
4.337002
13
1.064307
23
1.321312
33
4.571582
0
3DFACE
8
coconut_palm10_leaves
10
1.088879
20
1.064696
30
4.503189
11
1.064307
21
1.321312
31
4.571582
12
0.997531
22
1.307797
32
3.652318
13
0.691110
23
0.984190
33
3.467402
0
3DFACE
8
coconut_palm10_leaves
10
1.064307
20
1.321312
30
4.571582
11
0.888527
21
1.547325
31
4.337002
12
0.409983
22
1.450471
32
3.409415
13
0.997531
23
1.307797
33
3.652318
0
3DFACE
8
coconut_palm10_leaves
10
0.216315
20
1.204868
30
5.080463
11
-0.077557
21
1.035022
31
4.895641
12
0.460332
22
1.143888
32
4.889597
13
0.754204
23
1.313734
33
5.074419
0
3DFACE
8
coconut_palm10_leaves
10
0.754204
20
1.313734
30
5.074419
11
0.460332
21
1.143888
31
4.889597
12
0.917371
22
1.236389
32
4.479171
13
1.211243
23
1.406236
33
4.663993
0
3DFACE
8
coconut_palm10_leaves
10
1.211243
20
1.406236
30
4.663993
11
0.917371
21
1.236389
31
4.479171
12
0.850594
22
1.222874
32
3.559907
13
1.144467
23
1.392720
33
3.744729
0
3DFACE
8
coconut_palm10_leaves
10
-0.214021
20
1.052131
30
4.906622
11
0.052897
21
1.091381
31
4.830241
12
0.234567
22
0.756876
32
5.242228
13
-0.026386
23
0.706643
33
5.319055
0
3DFACE
8
coconut_palm10_leaves
10
0.052897
20
1.091381
30
4.830241
11
0.319815
21
1.130631
31
4.753860
12
0.501824
22
0.795502
32
5.152992
13
0.234567
23
0.756876
33
5.242228
0
3DFACE
8
coconut_palm10_leaves
10
-0.026386
20
0.706643
30
5.319055
11
0.234567
21
0.756876
31
5.242228
12
0.458677
22
0.344229
32
5.561826
13
0.216690
23
0.259074
33
5.615391
0
3DFACE
8
coconut_palm10_leaves
10
0.234567
20
0.756876
30
5.242228
11
0.501824
21
0.795502
31
5.152992
12
0.732504
22
0.370757
32
5.425941
13
0.458677
23
0.344229
33
5.561826
0
3DFACE
8
coconut_palm10_leaves
10
0.216690
20
0.259074
30
5.615391
11
0.458677
21
0.344229
31
5.561826
12
0.737624
22
-0.169388
32
5.701361
13
0.520389
23
-0.300119
33
5.677404
0
3DFACE
8
coconut_palm10_leaves
10
0.458677
20
0.344229
30
5.561826
11
0.732504
21
0.370757
31
5.425941
12
1.016038
22
-0.151306
32
5.463166
13
0.737624
23
-0.169388
33
5.701361
0
3DFACE
8
coconut_palm10_leaves
10
0.100249
20
1.240412
30
5.049561
11
0.005544
21
0.942350
31
4.610922
12
0.187215
22
0.607845
32
5.022909
13
0.281919
23
0.905907
33
5.461547
0
3DFACE
8
coconut_palm10_leaves
10
0.281919
20
0.905907
30
5.461547
11
0.187215
21
0.607845
31
5.022909
12
0.411325
22
0.195198
32
5.342507
13
0.506029
23
0.493260
33
5.781145
0
3DFACE
8
coconut_palm10_leaves
10
0.506029
20
0.493260
30
5.781145
11
0.411325
21
0.195198
31
5.342507
12
0.690271
22
-0.318419
32
5.482041
13
0.784976
23
-0.020358
33
5.920680
0
3DFACE
8
coconut_palm10_leaves
10
-0.234537
20
1.196627
30
4.771820
11
0.039928
21
1.068906
31
4.706072
12
-0.138030
22
0.523106
32
4.940303
13
-0.418274
23
0.633101
33
4.989816
0
3DFACE
8
coconut_palm10_leaves
10
0.039928
20
1.068906
30
4.706072
11
0.314393
21
0.941184
31
4.640325
12
0.137175
22
0.397655
32
4.848729
13
-0.138030
23
0.523106
33
4.940303
0
3DFACE
8
coconut_palm10_leaves
10
-0.418274
20
0.633101
30
4.989816
11
-0.138030
21
0.523106
31
4.940303
12
-0.339706
22
-0.095437
32
4.896187
13
-0.628043
23
-0.010263
33
4.839308
0
3DFACE
8
coconut_palm10_leaves
10
-0.138030
20
0.523106
30
4.940303
11
0.137175
21
0.397655
31
4.848729
12
-0.058769
22
-0.203307
32
4.689474
13
-0.339706
23
-0.095437
33
4.896187
0
3DFACE
8
coconut_palm10_leaves
10
-0.628043
20
-0.010263
30
4.839308
11
-0.339706
21
-0.095437
31
4.896187
12
-0.521838
22
-0.654039
32
4.364518
13
-0.775129
23
-0.461380
33
4.082630
0
3DFACE
8
coconut_palm10_leaves
10
-0.339706
20
-0.095437
30
4.896187
11
-0.058769
21
-0.203307
31
4.689474
12
-0.186355
22
-0.594617
32
3.946954
13
-0.521838
23
-0.654039
33
4.364518
0
3DFACE
8
coconut_palm10_leaves
10
0.069278
20
0.975044
30
4.948081
11
0.010578
21
1.162767
31
4.464064
12
-0.167380
22
0.616968
32
4.698295
13
-0.108680
23
0.429245
33
5.182312
0
3DFACE
8
coconut_palm10_leaves
10
-0.108680
20
0.429245
30
5.182312
11
-0.167380
21
0.616968
31
4.698295
12
-0.369056
22
-0.001576
32
4.654179
13
-0.310355
23
-0.189299
33
5.138196
0
3DFACE
8
coconut_palm10_leaves
10
-0.310355
20
-0.189299
30
5.138196
11
-0.369056
21
-0.001576
31
4.654179
12
-0.551188
22
-0.560178
32
4.122509
13
-0.492487
23
-0.747901
33
4.606527
0
3DFACE
8
coconut_palm10_leaves
10
0.073736
20
1.371152
30
4.850397
11
0.054552
21
1.094249
31
4.846089
12
-0.497043
22
1.131173
32
4.901593
13
-0.478830
23
1.408141
33
4.898418
0
3DFACE
8
coconut_palm10_leaves
10
0.054552
20
1.094249
30
4.846089
11
0.035368
21
0.817347
31
4.841782
12
-0.516659
22
0.854299
32
4.889740
13
-0.497043
23
1.131173
33
4.901593
0
3DFACE
8
coconut_palm10_leaves
10
-0.478830
20
1.408141
30
4.898418
11
-0.497043
21
1.131173
31
4.901593
12
-1.054181
22
1.168468
32
4.848542
13
-1.034986
23
1.445370
33
4.807634
0
3DFACE
8
coconut_palm10_leaves
10
-0.497043
20
1.131173
30
4.901593
11
-0.516659
21
0.854299
31
4.889740
12
-1.071729
22
0.891456
32
4.798929
13
-1.054181
23
1.168468
33
4.848542
0
3DFACE
8
coconut_palm10_leaves
10
-1.034986
20
1.445370
30
4.807634
11
-1.054181
21
1.168468
31
4.848542
12
-1.591182
22
1.204415
32
4.606052
13
-1.548635
23
1.479754
33
4.476978
0
3DFACE
8
coconut_palm10_leaves
10
-1.054181
20
1.168468
30
4.848542
11
-1.071729
21
0.891456
31
4.798929
12
-1.583766
22
0.925732
32
4.468489
13
-1.591182
23
1.204415
33
4.606052
0
3DFACE
8
coconut_palm10_leaves
10
-0.002603
20
1.093960
30
5.107375
11
0.111706
21
1.094539
31
4.584804
12
-0.439889
22
1.131463
32
4.640307
13
-0.554198
23
1.130884
33
5.162879
0
3DFACE
8
coconut_palm10_leaves
10
-0.554198
20
1.130884
30
5.162879
11
-0.439889
21
1.131463
31
4.640307
12
-0.997026
22
1.168758
32
4.587256
13
-1.111335
23
1.168179
33
5.109828
0
3DFACE
8
coconut_palm10_leaves
10
-1.111335
20
1.168179
30
5.109828
11
-0.997026
21
1.168758
31
4.587256
12
-1.534028
22
1.204705
32
4.344766
13
-1.648337
23
1.204126
33
4.867338
0
3DFACE
8
coconut_palm10_leaves
10
-0.125761
20
1.052120
30
4.919036
11
0.055225
21
1.095415
31
4.852529
12
0.180925
22
0.741704
32
4.977162
13
-0.001144
23
0.701456
33
5.045189
0
3DFACE
8
coconut_palm10_leaves
10
0.055225
20
1.095415
30
4.852529
11
0.236210
21
1.138710
31
4.786022
12
0.362476
22
0.783408
32
4.913742
13
0.180925
23
0.741704
33
4.977162
0
3DFACE
8
coconut_palm10_leaves
10
-0.001144
20
0.701456
30
5.045189
11
0.180925
21
0.741704
31
4.977162
12
0.300954
22
0.403950
32
5.147951
13
0.115664
23
0.372767
33
5.225303
0
3DFACE
8
coconut_palm10_leaves
10
0.180925
20
0.741704
30
4.977162
11
0.362476
21
0.783408
31
4.913742
12
0.482516
22
0.445624
32
5.097532
13
0.300954
23
0.403950
33
5.147951
0
3DFACE
8
coconut_palm10_leaves
10
0.115664
20
0.372767
30
5.225303
11
0.300954
21
0.403950
31
5.147951
12
0.408410
22
0.101577
32
5.396145
13
0.215720
23
0.091218
33
5.495036
0
3DFACE
8
coconut_palm10_leaves
10
0.300954
20
0.403950
30
5.147951
11
0.482516
21
0.445624
31
5.097532
12
0.587221
22
0.150993
32
5.374095
13
0.408410
23
0.101577
33
5.396145
0
3DFACE
8
coconut_palm10_leaves
10
0.089564
20
1.202162
30
5.012401
11
0.020885
21
0.988668
31
4.692657
12
0.146585
22
0.634957
32
4.817290
13
0.215265
23
0.848451
33
5.137034
0
3DFACE
8
coconut_palm10_coconuts
10
0.005901
20
1.139424
30
4.814396
11
-0.001327
21
1.163932
31
4.821688
12
0.009174
22
1.164318
32
4.805697
13
0.009174
23
1.164318
33
4.805697
0
3DFACE
8
coconut_palm10_coconuts
10
-0.001327
20
1.163932
30
4.821688
11
-0.021099
21
1.187010
31
4.817640
12
-0.002911
22
1.187677
32
4.789944
13
0.009174
23
1.164318
33
4.805697
0
3DFACE
8
coconut_palm10_coconuts
10
-0.021099
20
1.187010
30
4.817640
11
-0.048119
21
1.202473
31
4.803338
12
-0.027118
22
1.203244
32
4.771356
13
-0.002911
23
1.187677
33
4.789944
0
3DFACE
8
coconut_palm10_coconuts
10
-0.048119
20
1.202473
30
4.803338
11
-0.075146
21
1.206180
31
4.782611
12
-0.056958
22
1.206847
32
4.754915
13
-0.027118
23
1.203244
33
4.771356
0
3DFACE
8
coconut_palm10_coconuts
10
-0.075146
20
1.206180
30
4.782611
11
-0.094938
21
1.197135
31
4.761015
12
-0.084438
22
1.197521
32
4.745024
13
-0.056958
23
1.206847
33
4.754915
0
3DFACE
8
coconut_palm10_coconuts
10
-0.094938
20
1.197135
30
4.761015
11
-0.102193
21
1.177764
31
4.744337
12
-0.084438
22
1.197521
32
4.745024
13
-0.084438
23
1.197521
33
4.745024
0
3DFACE
8
coconut_palm10_coconuts
10
0.005901
20
1.139424
30
4.814396
11
-0.011835
21
1.150695
31
4.830657
12
-0.001327
22
1.163932
32
4.821688
13
-0.001327
23
1.163932
33
4.821688
0
3DFACE
8
coconut_palm10_coconuts
10
-0.011835
20
1.150695
30
4.830657
11
-0.039301
21
1.164082
31
4.833176
12
-0.021099
22
1.187010
32
4.817640
13
-0.001327
23
1.163932
33
4.821688
0
3DFACE
8
coconut_palm10_coconuts
10
-0.039301
20
1.164082
30
4.833176
11
-0.069136
21
1.175999
31
4.821276
12
-0.048119
22
1.202473
32
4.803338
13
-0.021099
23
1.187010
33
4.817640
0
3DFACE
8
coconut_palm10_coconuts
10
-0.069136
20
1.175999
30
4.821276
11
-0.093348
21
1.183252
31
4.798147
12
-0.075146
22
1.206180
32
4.782611
13
-0.048119
23
1.202473
33
4.803338
0
3DFACE
8
coconut_palm10_coconuts
10
-0.093348
20
1.183252
30
4.798147
11
-0.105447
21
1.183898
31
4.769985
12
-0.094938
22
1.197135
32
4.761015
13
-0.075146
23
1.206180
33
4.782611
0
3DFACE
8
coconut_palm10_coconuts
10
-0.105447
20
1.183898
30
4.769985
11
-0.102193
21
1.177764
31
4.744337
12
-0.094938
22
1.197135
32
4.761015
13
-0.094938
23
1.197135
33
4.761015
0
3DFACE
8
coconut_palm10_coconuts
10
0.005901
20
1.139424
30
4.814396
11
-0.016196
21
1.132360
31
4.827352
12
-0.011835
22
1.150695
32
4.830657
13
-0.011835
23
1.150695
33
4.830657
0
3DFACE
8
coconut_palm10_coconuts
10
-0.016196
20
1.132360
30
4.827352
11
-0.046854
21
1.132325
31
4.827451
12
-0.039301
22
1.164082
32
4.833176
13
-0.011835
23
1.150695
33
4.830657
0
3DFACE
8
coconut_palm10_coconuts
10
-0.046854
20
1.132325
30
4.827451
11
-0.077858
21
1.139329
31
4.814666
12
-0.069136
22
1.175999
32
4.821276
13
-0.039301
23
1.164082
33
4.833176
0
3DFACE
8
coconut_palm10_coconuts
10
-0.077858
20
1.139329
30
4.814666
11
-0.100901
21
1.151495
31
4.792422
12
-0.093348
22
1.183252
32
4.798147
13
-0.069136
23
1.175999
33
4.821276
0
3DFACE
8
coconut_palm10_coconuts
10
-0.100901
20
1.151495
30
4.792422
11
-0.109808
21
1.165563
31
4.766679
12
-0.105447
22
1.183898
32
4.769985
13
-0.093348
23
1.183252
33
4.798147
0
3DFACE
8
coconut_palm10_coconuts
10
-0.109808
20
1.165563
30
4.766679
11
-0.102193
21
1.177764
31
4.744337
12
-0.105447
22
1.183898
32
4.769985
13
-0.105447
23
1.183898
33
4.769985
0
3DFACE
8
coconut_palm10_coconuts
10
0.005901
20
1.139424
30
4.814396
11
-0.011854
21
1.119668
31
4.813707
12
-0.016196
22
1.132360
32
4.827352
13
-0.016196
23
1.132360
33
4.827352
0
3DFACE
8
coconut_palm10_coconuts
10
-0.011854
20
1.119668
30
4.813707
11
-0.039334
21
1.110341
31
4.803818
12
-0.046854
22
1.132325
32
4.827451
13
-0.016196
23
1.132360
33
4.827352
0
3DFACE
8
coconut_palm10_coconuts
10
-0.039334
20
1.110341
30
4.803818
11
-0.069175
21
1.113944
31
4.787376
12
-0.077858
22
1.139329
32
4.814666
13
-0.046854
23
1.132325
33
4.827451
0
3DFACE
8
coconut_palm10_coconuts
10
-0.069175
20
1.113944
30
4.787376
11
-0.093381
21
1.129511
31
4.768789
12
-0.100901
22
1.151495
32
4.792422
13
-0.077858
23
1.139329
33
4.814666
0
3DFACE
8
coconut_palm10_coconuts
10
-0.093381
20
1.129511
30
4.768789
11
-0.105466
21
1.152871
31
4.753035
12
-0.109808
22
1.165563
32
4.766679
13
-0.100901
23
1.151495
33
4.792422
0
3DFACE
8
coconut_palm10_coconuts
10
-0.105466
20
1.152871
30
4.753035
11
-0.102193
21
1.177764
31
4.744337
12
-0.109808
22
1.165563
32
4.766679
13
-0.109808
23
1.165563
33
4.766679
0
3DFACE
8
coconut_palm10_coconuts
10
0.005901
20
1.139424
30
4.814396
11
-0.001354
21
1.120053
31
4.797717
12
-0.011854
22
1.119668
32
4.813707
13
-0.011854
23
1.119668
33
4.813707
0
3DFACE
8
coconut_palm10_coconuts
10
-0.001354
20
1.120053
30
4.797717
11
-0.021146
21
1.111009
31
4.776122
12
-0.039334
22
1.110341
32
4.803818
13
-0.011854
23
1.119668
33
4.813707
0
3DFACE
8
coconut_palm10_coconuts
10
-0.021146
20
1.111009
30
4.776122
11
-0.048173
21
1.114715
31
4.755395
12
-0.069175
22
1.113944
32
4.787376
13
-0.039334
23
1.110341
33
4.803818
0
3DFACE
8
coconut_palm10_coconuts
10
-0.048173
20
1.114715
30
4.755395
11
-0.075193
21
1.130179
31
4.741092
12
-0.093381
22
1.129511
32
4.768789
13
-0.069175
23
1.113944
33
4.787376
0
3DFACE
8
coconut_palm10_coconuts
10
-0.075193
20
1.130179
30
4.741092
11
-0.094966
21
1.153256
31
4.737045
12
-0.105466
22
1.152871
32
4.753035
13
-0.093381
23
1.129511
33
4.768789
0
3DFACE
8
coconut_palm10_coconuts
10
-0.094966
20
1.153256
30
4.737045
11
-0.102193
21
1.177764
31
4.744337
12
-0.105466
22
1.152871
32
4.753035
13
-0.105466
23
1.152871
33
4.753035
0
3DFACE
8
coconut_palm10_coconuts
10
0.005901
20
1.139424
30
4.814396
11
0.009155
21
1.133290
31
4.788747
12
-0.001354
22
1.120053
32
4.797717
13
-0.001354
23
1.120053
33
4.797717
0
3DFACE
8
coconut_palm10_coconuts
10
0.009155
20
1.133290
30
4.788747
11
-0.002945
21
1.133937
31
4.760585
12
-0.021146
22
1.111009
32
4.776122
13
-0.001354
23
1.120053
33
4.797717
0
3DFACE
8
coconut_palm10_coconuts
10
-0.002945
20
1.133937
30
4.760585
11
-0.027156
21
1.141190
31
4.737455
12
-0.048173
22
1.114715
32
4.755395
13
-0.021146
23
1.111009
33
4.776122
0
3DFACE
8
coconut_palm10_coconuts
10
-0.027156
20
1.141190
30
4.737455
11
-0.056991
21
1.153106
31
4.725556
12
-0.075193
22
1.130179
32
4.741092
13
-0.048173
23
1.114715
33
4.755395
0
3DFACE
8
coconut_palm10_coconuts
10
-0.056991
20
1.153106
30
4.725556
11
-0.084457
21
1.166494
31
4.728074
12
-0.094966
22
1.153256
32
4.737045
13
-0.075193
23
1.130179
33
4.741092
0
3DFACE
8
coconut_palm10_coconuts
10
-0.084457
20
1.166494
30
4.728074
11
-0.102193
21
1.177764
31
4.744337
12
-0.094966
22
1.153256
32
4.737045
13
-0.094966
23
1.153256
33
4.737045
0
3DFACE
8
coconut_palm10_coconuts
10
0.005901
20
1.139424
30
4.814396
11
0.013516
21
1.151625
31
4.792052
12
0.009155
22
1.133290
32
4.788747
13
0.009155
23
1.133290
33
4.788747
0
3DFACE
8
coconut_palm10_coconuts
10
0.013516
20
1.151625
30
4.792052
11
0.004609
21
1.165694
31
4.766311
12
-0.002945
22
1.133937
32
4.760585
13
0.009155
23
1.133290
33
4.788747
0
3DFACE
8
coconut_palm10_coconuts
10
0.004609
20
1.165694
30
4.766311
11
-0.018434
21
1.177860
31
4.744067
12
-0.027156
22
1.141190
32
4.737455
13
-0.002945
23
1.133937
33
4.760585
0
3DFACE
8
coconut_palm10_coconuts
10
-0.018434
20
1.177860
30
4.744067
11
-0.049438
21
1.184864
31
4.731281
12
-0.056991
22
1.153106
32
4.725556
13
-0.027156
23
1.141190
33
4.737455
0
3DFACE
8
coconut_palm10_coconuts
10
-0.049438
20
1.184864
30
4.731281
11
-0.080096
21
1.184829
31
4.731380
12
-0.084457
22
1.166494
32
4.728074
13
-0.056991
23
1.153106
33
4.725556
0
3DFACE
8
coconut_palm10_coconuts
10
-0.080096
20
1.184829
30
4.731380
11
-0.102193
21
1.177764
31
4.744337
12
-0.084457
22
1.166494
32
4.728074
13
-0.084457
23
1.166494
33
4.728074
0
3DFACE
8
coconut_palm10_coconuts
10
0.005901
20
1.139424
30
4.814396
11
0.009174
21
1.164318
31
4.805697
12
0.013516
22
1.151625
32
4.792052
13
0.013516
23
1.151625
33
4.792052
0
3DFACE
8
coconut_palm10_coconuts
10
0.009174
20
1.164318
30
4.805697
11
-0.002911
21
1.187677
31
4.789944
12
0.004609
22
1.165694
32
4.766311
13
0.013516
23
1.151625
33
4.792052
0
3DFACE
8
coconut_palm10_coconuts
10
-0.002911
20
1.187677
30
4.789944
11
-0.027118
21
1.203244
31
4.771356
12
-0.018434
22
1.177860
32
4.744067
13
0.004609
23
1.165694
33
4.766311
0
3DFACE
8
coconut_palm10_coconuts
10
-0.027118
20
1.203244
30
4.771356
11
-0.056958
21
1.206847
31
4.754915
12
-0.049438
22
1.184864
32
4.731281
13
-0.018434
23
1.177860
33
4.744067
0
3DFACE
8
coconut_palm10_coconuts
10
-0.056958
20
1.206847
30
4.754915
11
-0.084438
21
1.197521
31
4.745024
12
-0.080096
22
1.184829
32
4.731380
13
-0.049438
23
1.184864
33
4.731281
0
3DFACE
8
coconut_palm10_coconuts
10
-0.084438
20
1.197521
30
4.745024
11
-0.102193
21
1.177764
31
4.744337
12
-0.080096
22
1.184829
32
4.731380
13
-0.080096
23
1.184829
33
4.731380
0
3DFACE
8
coconut_palm10_coconuts
10
0.195673
20
1.167003
30
4.766154
11
0.187662
21
1.155387
31
4.753230
12
0.209557
22
1.144490
32
4.763618
13
0.209557
23
1.144490
33
4.763618
0
3DFACE
8
coconut_palm10_coconuts
10
0.195673
20
1.167003
30
4.766154
11
0.171541
21
1.180826
31
4.779057
12
0.157666
22
1.160706
32
4.756674
13
0.187662
23
1.155387
33
4.753230
0
3DFACE
8
coconut_palm10_coconuts
10
0.171541
20
1.180826
30
4.779057
11
0.143628
21
1.182255
31
4.798872
12
0.127606
22
1.159023
32
4.773025
13
0.157666
23
1.160706
33
4.756674
0
3DFACE
8
coconut_palm10_coconuts
10
0.143628
20
1.182255
30
4.798872
11
0.119413
21
1.170906
31
4.820288
12
0.105538
22
1.150787
32
4.797904
13
0.127606
23
1.159023
33
4.773025
0
3DFACE
8
coconut_palm10_coconuts
10
0.119413
20
1.170906
30
4.820288
11
0.105385
21
1.149822
31
4.837566
12
0.097374
22
1.138206
32
4.824643
13
0.105538
23
1.150787
33
4.797904
0
3DFACE
8
coconut_palm10_coconuts
10
0.105385
20
1.149822
30
4.837566
11
0.105302
21
1.124650
31
4.846078
12
0.097374
22
1.138206
32
4.824643
13
0.097374
23
1.138206
33
4.824643
0
3DFACE
8
coconut_palm10_coconuts
10
0.187662
20
1.155387
30
4.753230
11
0.188386
21
1.136609
31
4.749628
12
0.209557
22
1.144490
32
4.763618
13
0.209557
23
1.144490
33
4.763618
0
3DFACE
8
coconut_palm10_coconuts
10
0.187662
20
1.155387
30
4.753230
11
0.157666
21
1.160706
31
4.756674
12
0.158920
22
1.128182
32
4.750434
13
0.188386
23
1.136609
33
4.749628
0
3DFACE
8
coconut_palm10_coconuts
10
0.157666
20
1.160706
30
4.756674
11
0.127606
21
1.159023
31
4.773025
12
0.129054
22
1.121466
32
4.765821
13
0.158920
23
1.128182
33
4.750434
0
3DFACE
8
coconut_palm10_coconuts
10
0.127606
20
1.159023
30
4.773025
11
0.105538
21
1.150787
31
4.797904
12
0.106792
22
1.118262
32
4.791664
13
0.129054
23
1.121466
33
4.765821
0
3DFACE
8
coconut_palm10_coconuts
10
0.105538
20
1.150787
30
4.797904
11
0.097374
21
1.138206
31
4.824643
12
0.098098
22
1.119427
32
4.821041
13
0.106792
23
1.118262
33
4.791664
0
3DFACE
8
coconut_palm10_coconuts
10
0.097374
20
1.138206
30
4.824643
11
0.105302
21
1.124650
31
4.846078
12
0.098098
22
1.119427
32
4.821041
13
0.098098
23
1.119427
33
4.821041
0
3DFACE
8
coconut_palm10_coconuts
10
0.188386
20
1.136609
30
4.749628
11
0.197421
21
1.121669
31
4.757456
12
0.209557
22
1.144490
32
4.763618
13
0.209557
23
1.144490
33
4.763618
0
3DFACE
8
coconut_palm10_coconuts
10
0.188386
20
1.136609
30
4.749628
11
0.158920
21
1.128182
31
4.750434
12
0.174569
22
1.102305
32
4.763993
13
0.197421
23
1.121669
33
4.757456
0
3DFACE
8
coconut_palm10_coconuts
10
0.158920
20
1.128182
30
4.750434
11
0.129054
21
1.121466
31
4.765821
12
0.147124
22
1.091586
32
4.781476
13
0.174569
23
1.102305
33
4.763993
0
3DFACE
8
coconut_palm10_coconuts
10
0.129054
20
1.121466
30
4.765821
11
0.106792
21
1.118262
31
4.791664
12
0.122441
22
1.092385
32
4.805224
13
0.147124
23
1.091586
33
4.781476
0
3DFACE
8
coconut_palm10_coconuts
10
0.106792
20
1.118262
30
4.791664
11
0.098098
21
1.119427
31
4.821041
12
0.107133
22
1.104487
32
4.828869
13
0.122441
23
1.092385
33
4.805224
0
3DFACE
8
coconut_palm10_coconuts
10
0.098098
20
1.119427
30
4.821041
11
0.105302
21
1.124650
31
4.846078
12
0.107133
22
1.104487
32
4.828869
13
0.107133
23
1.104487
33
4.828869
0
3DFACE
8
coconut_palm10_coconuts
10
0.197421
20
1.121669
30
4.757456
11
0.209474
21
1.119318
31
4.772130
12
0.209557
22
1.144490
32
4.763618
13
0.209557
23
1.144490
33
4.763618
0
3DFACE
8
coconut_palm10_coconuts
10
0.197421
20
1.121669
30
4.757456
11
0.174569
21
1.102305
31
4.763993
12
0.195445
22
1.098234
32
4.789408
13
0.209474
23
1.119318
33
4.772130
0
3DFACE
8
coconut_palm10_coconuts
10
0.174569
20
1.102305
30
4.763993
11
0.147124
21
1.091586
31
4.781476
12
0.171231
22
1.086885
32
4.810824
13
0.195445
23
1.098234
33
4.789408
0
3DFACE
8
coconut_palm10_coconuts
10
0.147124
20
1.091586
30
4.781476
11
0.122441
21
1.092385
31
4.805224
12
0.143318
22
1.088314
32
4.830639
13
0.171231
23
1.086885
33
4.810824
0
3DFACE
8
coconut_palm10_coconuts
10
0.122441
20
1.092385
30
4.805224
11
0.107133
21
1.104487
31
4.828869
12
0.119186
22
1.102137
32
4.843543
13
0.143318
23
1.088314
33
4.830639
0
3DFACE
8
coconut_palm10_coconuts
10
0.107133
20
1.104487
30
4.828869
11
0.105302
21
1.124650
31
4.846078
12
0.119186
22
1.102137
32
4.843543
13
0.119186
23
1.102137
33
4.843543
0
3DFACE
8
coconut_palm10_coconuts
10
0.209474
20
1.119318
30
4.772130
11
0.217485
21
1.130934
31
4.785053
12
0.209557
22
1.144490
32
4.763618
13
0.209557
23
1.144490
33
4.763618
0
3DFACE
8
coconut_palm10_coconuts
10
0.209474
20
1.119318
30
4.772130
11
0.195445
21
1.098234
31
4.789408
12
0.209321
22
1.118353
32
4.811792
13
0.217485
23
1.130934
33
4.785053
0
3DFACE
8
coconut_palm10_coconuts
10
0.195445
20
1.098234
30
4.789408
11
0.171231
21
1.086885
31
4.810824
12
0.187253
22
1.110118
32
4.836670
13
0.209321
23
1.118353
33
4.811792
0
3DFACE
8
coconut_palm10_coconuts
10
0.171231
20
1.086885
30
4.810824
11
0.143318
21
1.088314
31
4.830639
12
0.157193
22
1.108434
32
4.853022
13
0.187253
23
1.110118
33
4.836670
0
3DFACE
8
coconut_palm10_coconuts
10
0.143318
20
1.088314
30
4.830639
11
0.119186
21
1.102137
31
4.843543
12
0.127197
22
1.113753
32
4.856465
13
0.157193
23
1.108434
33
4.853022
0
3DFACE
8
coconut_palm10_coconuts
10
0.119186
20
1.102137
30
4.843543
11
0.105302
21
1.124650
31
4.846078
12
0.127197
22
1.113753
32
4.856465
13
0.127197
23
1.113753
33
4.856465
0
3DFACE
8
coconut_palm10_coconuts
10
0.217485
20
1.130934
30
4.785053
11
0.216761
21
1.149713
31
4.788655
12
0.209557
22
1.144490
32
4.763618
13
0.209557
23
1.144490
33
4.763618
0
3DFACE
8
coconut_palm10_coconuts
10
0.217485
20
1.130934
30
4.785053
11
0.209321
21
1.118353
31
4.811792
12
0.208067
22
1.150878
32
4.818032
13
0.216761
23
1.149713
33
4.788655
0
3DFACE
8
coconut_palm10_coconuts
10
0.209321
20
1.118353
30
4.811792
11
0.187253
21
1.110118
31
4.836670
12
0.185805
22
1.147674
32
4.843875
13
0.208067
23
1.150878
33
4.818032
0
3DFACE
8
coconut_palm10_coconuts
10
0.187253
20
1.110118
30
4.836670
11
0.157193
21
1.108434
31
4.853022
12
0.155939
22
1.140958
32
4.859262
13
0.185805
23
1.147674
33
4.843875
0
3DFACE
8
coconut_palm10_coconuts
10
0.157193
20
1.108434
30
4.853022
11
0.127197
21
1.113753
31
4.856465
12
0.126473
22
1.132531
32
4.860068
13
0.155939
23
1.140958
33
4.859262
0
3DFACE
8
coconut_palm10_coconuts
10
0.127197
20
1.113753
30
4.856465
11
0.105302
21
1.124650
31
4.846078
12
0.126473
22
1.132531
32
4.860068
13
0.126473
23
1.132531
33
4.860068
0
3DFACE
8
coconut_palm10_coconuts
10
0.216761
20
1.149713
30
4.788655
11
0.207726
21
1.164653
31
4.780828
12
0.209557
22
1.144490
32
4.763618
13
0.209557
23
1.144490
33
4.763618
0
3DFACE
8
coconut_palm10_coconuts
10
0.216761
20
1.149713
30
4.788655
11
0.208067
21
1.150878
31
4.818032
12
0.192418
22
1.176755
32
4.804473
13
0.207726
23
1.164653
33
4.780828
0
3DFACE
8
coconut_palm10_coconuts
10
0.208067
20
1.150878
30
4.818032
11
0.185805
21
1.147674
31
4.843875
12
0.167735
22
1.177554
32
4.828218
13
0.192418
23
1.176755
33
4.804473
0
3DFACE
8
coconut_palm10_coconuts
10
0.185805
20
1.147674
30
4.843875
11
0.155939
21
1.140958
31
4.859262
12
0.140290
22
1.166835
32
4.845703
13
0.167735
23
1.177554
33
4.828218
0
3DFACE
8
coconut_palm10_coconuts
10
0.155939
20
1.140958
30
4.859262
11
0.126473
21
1.132531
31
4.860068
12
0.117438
22
1.147471
32
4.852239
13
0.140290
23
1.166835
33
4.845703
0
3DFACE
8
coconut_palm10_coconuts
10
0.126473
20
1.132531
30
4.860068
11
0.105302
21
1.124650
31
4.846078
12
0.117438
22
1.147471
32
4.852239
13
0.117438
23
1.147471
33
4.852239
0
3DFACE
8
coconut_palm10_coconuts
10
0.207726
20
1.164653
30
4.780828
11
0.195673
21
1.167003
31
4.766154
12
0.209557
22
1.144490
32
4.763618
13
0.209557
23
1.144490
33
4.763618
0
3DFACE
8
coconut_palm10_coconuts
10
0.207726
20
1.164653
30
4.780828
11
0.192418
21
1.176755
31
4.804473
12
0.171541
22
1.180826
32
4.779057
13
0.195673
23
1.167003
33
4.766154
0
3DFACE
8
coconut_palm10_coconuts
10
0.192418
20
1.176755
30
4.804473
11
0.167735
21
1.177554
31
4.828218
12
0.143628
22
1.182255
32
4.798872
13
0.171541
23
1.180826
33
4.779057
0
3DFACE
8
coconut_palm10_coconuts
10
0.167735
20
1.177554
30
4.828218
11
0.140290
21
1.166835
31
4.845703
12
0.119413
22
1.170906
32
4.820288
13
0.143628
23
1.182255
33
4.798872
0
3DFACE
8
coconut_palm10_coconuts
10
0.140290
20
1.166835
30
4.845703
11
0.117438
21
1.147471
31
4.852239
12
0.105385
22
1.149822
32
4.837566
13
0.119413
23
1.170906
33
4.820288
0
3DFACE
8
coconut_palm10_coconuts
10
0.117438
20
1.147471
30
4.852239
11
0.105302
21
1.124650
31
4.846078
12
0.105385
22
1.149822
32
4.837566
13
0.105385
23
1.149822
33
4.837566
0
3DFACE
8
coconut_palm10_coconuts
10
0.002476
20
0.873920
30
4.671907
11
-0.000898
21
0.876885
31
4.653307
12
-0.021128
22
0.864023
32
4.664770
13
-0.021128
23
0.864023
33
4.664770
0
3DFACE
8
coconut_palm10_coconuts
10
0.002476
20
0.873920
30
4.671907
11
0.018277
21
0.898843
31
4.680219
12
0.012433
22
0.903979
32
4.648005
13
-0.000898
23
0.876885
33
4.653307
0
3DFACE
8
coconut_palm10_coconuts
10
0.018277
20
0.898843
30
4.680219
11
0.022042
21
0.932114
31
4.687478
12
0.015292
22
0.938045
32
4.650281
13
0.012433
23
0.903979
33
4.648005
0
3DFACE
8
coconut_palm10_coconuts
10
0.022042
20
0.932114
30
4.687478
11
0.012761
21
0.964817
31
4.691740
12
0.006915
22
0.969953
32
4.659526
13
0.015292
23
0.938045
33
4.650281
0
3DFACE
8
coconut_palm10_coconuts
10
0.012761
20
0.964817
30
4.691740
11
-0.007079
21
0.988190
31
4.691862
12
-0.010453
22
0.991155
32
4.673262
13
0.006915
23
0.969953
33
4.659526
0
3DFACE
8
coconut_palm10_coconuts
10
-0.007079
20
0.988190
30
4.691862
11
-0.032161
21
0.995970
31
4.687811
12
-0.010453
22
0.991155
32
4.673262
13
-0.010453
23
0.991155
33
4.673262
0
3DFACE
8
coconut_palm10_coconuts
10
-0.000898
20
0.876885
30
4.653307
11
-0.016556
21
0.877494
31
4.642328
12
-0.021128
22
0.864023
32
4.664770
13
-0.021128
23
0.864023
33
4.664770
0
3DFACE
8
coconut_palm10_coconuts
10
-0.000898
20
0.876885
30
4.653307
11
0.012433
21
0.903979
31
4.648005
12
-0.014688
22
0.905033
32
4.628984
13
-0.016556
23
0.877494
33
4.642328
0
3DFACE
8
coconut_palm10_coconuts
10
0.012433
20
0.903979
30
4.648005
11
0.015292
21
0.938045
31
4.650281
12
-0.016023
22
0.939261
32
4.628315
13
-0.014688
23
0.905033
33
4.628984
0
3DFACE
8
coconut_palm10_coconuts
10
0.015292
20
0.938045
30
4.650281
11
0.006915
21
0.969953
31
4.659526
12
-0.020204
22
0.971006
32
4.640504
13
-0.016023
23
0.939261
33
4.628315
0
3DFACE
8
coconut_palm10_coconuts
10
0.006915
20
0.969953
30
4.659526
11
-0.010453
21
0.991155
31
4.673262
12
-0.026111
22
0.991763
32
4.662282
13
-0.020204
23
0.971006
33
4.640504
0
3DFACE
8
coconut_palm10_coconuts
10
-0.010453
20
0.991155
30
4.673262
11
-0.032161
21
0.995970
31
4.687811
12
-0.026111
22
0.991763
32
4.662282
13
-0.026111
23
0.991763
33
4.662282
0
3DFACE
8
coconut_palm10_coconuts
10
-0.016556
20
0.877494
30
4.642328
11
-0.035325
21
0.875388
31
4.645396
12
-0.021128
22
0.864023
32
4.664770
13
-0.021128
23
0.864023
33
4.664770
0
3DFACE
8
coconut_palm10_coconuts
10
-0.016556
20
0.877494
30
4.642328
11
-0.014688
21
0.905033
31
4.628984
12
-0.047196
22
0.901386
32
4.634299
13
-0.035325
23
0.875388
33
4.645396
0
3DFACE
8
coconut_palm10_coconuts
10
-0.014688
20
0.905033
30
4.628984
11
-0.016023
21
0.939261
31
4.628315
12
-0.053561
22
0.935051
32
4.634458
13
-0.047196
23
0.901386
33
4.634299
0
3DFACE
8
coconut_palm10_coconuts
10
-0.016023
20
0.939261
30
4.628315
11
-0.020204
21
0.971006
31
4.640504
12
-0.052713
22
0.967360
32
4.645821
13
-0.053561
23
0.935051
33
4.634458
0
3DFACE
8
coconut_palm10_coconuts
10
-0.020204
20
0.971006
30
4.640504
11
-0.026111
21
0.991763
31
4.662282
12
-0.044880
22
0.989658
32
4.665349
13
-0.052713
23
0.967360
33
4.645821
0
3DFACE
8
coconut_palm10_coconuts
10
-0.026111
20
0.991763
30
4.662282
11
-0.032161
21
0.995970
31
4.687811
12
-0.044880
22
0.989658
32
4.665349
13
-0.044880
23
0.989658
33
4.665349
0
3DFACE
8
coconut_palm10_coconuts
10
-0.035325
20
0.875388
30
4.645396
11
-0.046210
21
0.871803
31
4.660721
12
-0.021128
22
0.864023
32
4.664770
13
-0.021128
23
0.864023
33
4.664770
0
3DFACE
8
coconut_palm10_coconuts
10
-0.035325
20
0.875388
30
4.645396
11
-0.047196
21
0.901386
31
4.634299
12
-0.066050
22
0.895176
32
4.660841
13
-0.046210
23
0.871803
33
4.660721
0
3DFACE
8
coconut_palm10_coconuts
10
-0.047196
20
0.901386
30
4.634299
11
-0.053561
21
0.935051
31
4.634458
12
-0.075330
22
0.927878
32
4.665102
13
-0.066050
23
0.895176
33
4.660841
0
3DFACE
8
coconut_palm10_coconuts
10
-0.053561
20
0.935051
30
4.634458
11
-0.052713
21
0.967360
31
4.645821
12
-0.071566
22
0.961149
32
4.672362
13
-0.075330
23
0.927878
33
4.665102
0
3DFACE
8
coconut_palm10_coconuts
10
-0.052713
20
0.967360
30
4.645821
11
-0.044880
21
0.989658
31
4.665349
12
-0.055765
22
0.986072
32
4.680671
13
-0.071566
23
0.961149
33
4.672362
0
3DFACE
8
coconut_palm10_coconuts
10
-0.044880
20
0.989658
30
4.665349
11
-0.032161
21
0.995970
31
4.687811
12
-0.055765
22
0.986072
32
4.680671
13
-0.055765
23
0.986072
33
4.680671
0
3DFACE
8
coconut_palm10_coconuts
10
-0.046210
20
0.871803
30
4.660721
11
-0.042835
21
0.868838
31
4.679320
12
-0.021128
22
0.864023
32
4.664770
13
-0.021128
23
0.864023
33
4.664770
0
3DFACE
8
coconut_palm10_coconuts
10
-0.046210
20
0.871803
30
4.660721
11
-0.066050
21
0.895176
31
4.660841
12
-0.060205
22
0.890040
32
4.693056
13
-0.042835
23
0.868838
33
4.679320
0
3DFACE
8
coconut_palm10_coconuts
10
-0.066050
20
0.895176
30
4.660841
11
-0.075330
21
0.927878
31
4.665102
12
-0.068581
22
0.921948
32
4.702302
13
-0.060205
23
0.890040
33
4.693056
0
3DFACE
8
coconut_palm10_coconuts
10
-0.075330
20
0.927878
30
4.665102
11
-0.071566
21
0.961149
31
4.672362
12
-0.065721
22
0.956013
32
4.704575
13
-0.068581
23
0.921948
33
4.702302
0
3DFACE
8
coconut_palm10_coconuts
10
-0.071566
20
0.961149
30
4.672362
11
-0.055765
21
0.986072
31
4.680671
12
-0.052390
22
0.983107
32
4.699272
13
-0.065721
23
0.956013
33
4.704575
0
3DFACE
8
coconut_palm10_coconuts
10
-0.055765
20
0.986072
30
4.680671
11
-0.032161
21
0.995970
31
4.687811
12
-0.052390
22
0.983107
32
4.699272
13
-0.052390
23
0.983107
33
4.699272
0
3DFACE
8
coconut_palm10_coconuts
10
-0.042835
20
0.868838
30
4.679320
11
-0.027178
21
0.868229
31
4.690300
12
-0.021128
22
0.864023
32
4.664770
13
-0.021128
23
0.864023
33
4.664770
0
3DFACE
8
coconut_palm10_coconuts
10
-0.042835
20
0.868838
30
4.679320
11
-0.060205
21
0.890040
31
4.693056
12
-0.033085
22
0.888986
32
4.712075
13
-0.027178
23
0.868229
33
4.690300
0
3DFACE
8
coconut_palm10_coconuts
10
-0.060205
20
0.890040
30
4.693056
11
-0.068581
21
0.921948
31
4.702302
12
-0.037266
22
0.920732
32
4.724265
13
-0.033085
23
0.888986
33
4.712075
0
3DFACE
8
coconut_palm10_coconuts
10
-0.068581
20
0.921948
30
4.702302
11
-0.065721
21
0.956013
31
4.704575
12
-0.038601
22
0.954959
32
4.723598
13
-0.037266
23
0.920732
33
4.724265
0
3DFACE
8
coconut_palm10_coconuts
10
-0.065721
20
0.956013
30
4.704575
11
-0.052390
21
0.983107
31
4.699272
12
-0.036733
22
0.982498
32
4.710254
13
-0.038601
23
0.954959
33
4.723598
0
3DFACE
8
coconut_palm10_coconuts
10
-0.052390
20
0.983107
30
4.699272
11
-0.032161
21
0.995970
31
4.687811
12
-0.036733
22
0.982498
32
4.710254
13
-0.036733
23
0.982498
33
4.710254
0
3DFACE
8
coconut_palm10_coconuts
10
-0.027178
20
0.868229
30
4.690300
11
-0.008409
21
0.870334
31
4.687232
12
-0.021128
22
0.864023
32
4.664770
13
-0.021128
23
0.864023
33
4.664770
0
3DFACE
8
coconut_palm10_coconuts
10
-0.027178
20
0.868229
30
4.690300
11
-0.033085
21
0.888986
31
4.712075
12
-0.000576
22
0.892633
32
4.706761
13
-0.008409
23
0.870334
33
4.687232
0
3DFACE
8
coconut_palm10_coconuts
10
-0.033085
20
0.888986
30
4.712075
11
-0.037266
21
0.920732
31
4.724265
12
0.000272
22
0.924942
32
4.718124
13
-0.000576
23
0.892633
33
4.706761
0
3DFACE
8
coconut_palm10_coconuts
10
-0.037266
20
0.920732
30
4.724265
11
-0.038601
21
0.954959
31
4.723598
12
-0.006093
22
0.958606
32
4.718280
13
0.000272
23
0.924942
33
4.718124
0
3DFACE
8
coconut_palm10_coconuts
10
-0.038601
20
0.954959
30
4.723598
11
-0.036733
21
0.982498
31
4.710254
12
-0.017964
22
0.984604
32
4.707182
13
-0.006093
23
0.958606
33
4.718280
0
3DFACE
8
coconut_palm10_coconuts
10
-0.036733
20
0.982498
30
4.710254
11
-0.032161
21
0.995970
31
4.687811
12
-0.017964
22
0.984604
32
4.707182
13
-0.017964
23
0.984604
33
4.707182
0
3DFACE
8
coconut_palm10_coconuts
10
-0.008409
20
0.870334
30
4.687232
11
0.002476
21
0.873920
31
4.671907
12
-0.021128
22
0.864023
32
4.664770
13
-0.021128
23
0.864023
33
4.664770
0
3DFACE
8
coconut_palm10_coconuts
10
-0.008409
20
0.870334
30
4.687232
11
-0.000576
21
0.892633
31
4.706761
12
0.018277
22
0.898843
32
4.680219
13
0.002476
23
0.873920
33
4.671907
0
3DFACE
8
coconut_palm10_coconuts
10
-0.000576
20
0.892633
30
4.706761
11
0.000272
21
0.924942
31
4.718124
12
0.022042
22
0.932114
32
4.687478
13
0.018277
23
0.898843
33
4.680219
0
3DFACE
8
coconut_palm10_coconuts
10
0.000272
20
0.924942
30
4.718124
11
-0.006093
21
0.958606
31
4.718280
12
0.012761
22
0.964817
32
4.691740
13
0.022042
23
0.932114
33
4.687478
0
3DFACE
8
coconut_palm10_coconuts
10
-0.006093
20
0.958606
30
4.718280
11
-0.017964
21
0.984604
31
4.707182
12
-0.007079
22
0.988190
32
4.691862
13
0.012761
23
0.964817
33
4.691740
0
3DFACE
8
coconut_palm10_coconuts
10
-0.017964
20
0.984604
30
4.707182
11
-0.032161
21
0.995970
31
4.687811
12
-0.007079
22
0.988190
32
4.691862
13
-0.007079
23
0.988190
33
4.691862
0
3DFACE
8
coconut_palm10_coconuts
10
-0.045346
20
1.053677
30
4.730414
11
-0.067462
21
1.064099
31
4.740820
12
-0.063144
22
1.072375
32
4.724118
13
-0.063144
23
1.072375
33
4.724118
0
3DFACE
8
coconut_palm10_coconuts
10
-0.067462
20
1.064099
30
4.740820
11
-0.098120
21
1.064093
31
4.740915
12
-0.090641
22
1.078429
32
4.711986
13
-0.063144
23
1.072375
33
4.724118
0
3DFACE
8
coconut_palm10_coconuts
10
-0.098120
20
1.064093
30
4.740915
11
-0.129105
21
1.053662
31
4.730672
12
-0.120468
22
1.070215
32
4.697267
13
-0.090641
23
1.078429
33
4.711986
0
3DFACE
8
coconut_palm10_coconuts
10
-0.129105
20
1.053662
30
4.730672
11
-0.152114
21
1.035600
31
4.712836
12
-0.144635
22
1.049935
32
4.683907
13
-0.120468
23
1.070215
33
4.697267
0
3DFACE
8
coconut_palm10_coconuts
10
-0.152114
20
1.035600
30
4.712836
11
-0.160982
21
1.014746
31
4.692187
12
-0.156664
22
1.023023
32
4.675484
13
-0.144635
23
1.049935
33
4.683907
0
3DFACE
8
coconut_palm10_coconuts
10
-0.160982
20
1.014746
30
4.692187
11
-0.153333
21
0.996689
31
4.674257
12
-0.156664
22
1.023023
32
4.675484
13
-0.156664
23
1.023023
33
4.675484
0
3DFACE
8
coconut_palm10_coconuts
10
-0.045346
20
1.053677
30
4.730414
11
-0.063062
21
1.047481
31
4.749223
12
-0.067462
22
1.064099
32
4.740820
13
-0.067462
23
1.064099
33
4.740820
0
3DFACE
8
coconut_palm10_coconuts
10
-0.063062
20
1.047481
30
4.749223
11
-0.090499
21
1.035311
31
4.755469
12
-0.098120
22
1.064093
32
4.740915
13
-0.067462
23
1.064099
33
4.740820
0
3DFACE
8
coconut_palm10_coconuts
10
-0.090499
20
1.035311
30
4.755469
11
-0.120305
21
1.020427
31
4.747477
12
-0.129105
22
1.053662
32
4.730672
13
-0.098120
23
1.064093
33
4.740915
0
3DFACE
8
coconut_palm10_coconuts
10
-0.120305
20
1.020427
30
4.747477
11
-0.144493
21
1.006817
31
4.727390
12
-0.152114
22
1.035600
32
4.712836
13
-0.129105
23
1.053662
33
4.730672
0
3DFACE
8
coconut_palm10_coconuts
10
-0.144493
20
1.006817
30
4.727390
11
-0.156582
21
0.998128
31
4.700589
12
-0.160982
22
1.014746
32
4.692187
13
-0.152114
23
1.035600
33
4.712836
0
3DFACE
8
coconut_palm10_coconuts
10
-0.156582
20
0.998128
30
4.700589
11
-0.153333
21
0.996689
31
4.674257
12
-0.160982
22
1.014746
32
4.692187
13
-0.160982
23
1.014746
33
4.692187
0
3DFACE
8
coconut_palm10_coconuts
10
-0.045346
20
1.053677
30
4.730414
11
-0.052522
21
1.032256
31
4.744404
12
-0.063062
22
1.047481
32
4.749223
13
-0.063062
23
1.047481
33
4.749223
0
3DFACE
8
coconut_palm10_coconuts
10
-0.052522
20
1.032256
30
4.744404
11
-0.072243
21
1.008941
31
4.747122
12
-0.090499
22
1.035311
32
4.755469
13
-0.063062
23
1.047481
33
4.749223
0
3DFACE
8
coconut_palm10_coconuts
10
-0.072243
20
1.008941
30
4.747122
11
-0.099224
21
0.989977
31
4.737840
12
-0.120305
22
1.020427
32
4.747477
13
-0.090499
23
1.035311
33
4.755469
0
3DFACE
8
coconut_palm10_coconuts
10
-0.099224
20
0.989977
30
4.737840
11
-0.126236
21
0.980447
31
4.719043
12
-0.144493
22
1.006817
32
4.727390
13
-0.120305
23
1.020427
33
4.747477
0
3DFACE
8
coconut_palm10_coconuts
10
-0.126236
20
0.980447
30
4.719043
11
-0.146042
21
0.982904
31
4.695770
12
-0.156582
22
0.998128
32
4.700589
13
-0.144493
23
1.006817
33
4.727390
0
3DFACE
8
coconut_palm10_coconuts
10
-0.146042
20
0.982904
30
4.695770
11
-0.153333
21
0.996689
31
4.674257
12
-0.156582
22
0.998128
32
4.700589
13
-0.156582
23
0.998128
33
4.700589
0
3DFACE
8
coconut_palm10_coconuts
10
-0.045346
20
1.053677
30
4.730414
11
-0.042015
21
1.027343
31
4.729186
12
-0.052522
22
1.032256
32
4.744404
13
-0.052522
23
1.032256
33
4.744404
0
3DFACE
8
coconut_palm10_coconuts
10
-0.042015
20
1.027343
30
4.729186
11
-0.054045
21
1.000431
31
4.720764
12
-0.072243
22
1.008941
32
4.747122
13
-0.052522
23
1.032256
33
4.744404
0
3DFACE
8
coconut_palm10_coconuts
10
-0.054045
20
1.000431
30
4.720764
11
-0.078211
21
0.980151
31
4.707403
12
-0.099224
22
0.989977
32
4.737840
13
-0.072243
23
1.008941
33
4.747122
0
3DFACE
8
coconut_palm10_coconuts
10
-0.078211
20
0.980151
30
4.707403
11
-0.108038
21
0.971937
31
4.692685
12
-0.126236
22
0.980447
32
4.719043
13
-0.099224
23
0.989977
33
4.737840
0
3DFACE
8
coconut_palm10_coconuts
10
-0.108038
20
0.971937
30
4.692685
11
-0.135535
21
0.977991
31
4.680552
12
-0.146042
22
0.982904
32
4.695770
13
-0.126236
23
0.980447
33
4.719043
0
3DFACE
8
coconut_palm10_coconuts
10
-0.135535
20
0.977991
30
4.680552
11
-0.153333
21
0.996689
31
4.674257
12
-0.146042
22
0.982904
32
4.695770
13
-0.146042
23
0.982904
33
4.695770
0
3DFACE
8
coconut_palm10_coconuts
10
-0.045346
20
1.053677
30
4.730414
11
-0.037697
21
1.035620
31
4.712483
12
-0.042015
22
1.027343
32
4.729186
13
-0.042015
23
1.027343
33
4.729186
0
3DFACE
8
coconut_palm10_coconuts
10
-0.037697
20
1.035620
30
4.712483
11
-0.046565
21
1.014766
31
4.691833
12
-0.054045
22
1.000431
32
4.720764
13
-0.042015
23
1.027343
33
4.729186
0
3DFACE
8
coconut_palm10_coconuts
10
-0.046565
20
1.014766
30
4.691833
11
-0.069574
21
0.996704
31
4.673999
12
-0.078211
22
0.980151
32
4.707403
13
-0.054045
23
1.000431
33
4.720764
0
3DFACE
8
coconut_palm10_coconuts
10
-0.069574
20
0.996704
30
4.673999
11
-0.100559
21
0.986272
31
4.663755
12
-0.108038
22
0.971937
32
4.692685
13
-0.078211
23
0.980151
33
4.707403
0
3DFACE
8
coconut_palm10_coconuts
10
-0.100559
20
0.986272
30
4.663755
11
-0.131217
21
0.986267
31
4.663851
12
-0.135535
22
0.977991
32
4.680552
13
-0.108038
23
0.971937
33
4.692685
0
3DFACE
8
coconut_palm10_coconuts
10
-0.131217
20
0.986267
30
4.663851
11
-0.153333
21
0.996689
31
4.674257
12
-0.135535
22
0.977991
32
4.680552
13
-0.135535
23
0.977991
33
4.680552
0
3DFACE
8
coconut_palm10_coconuts
10
-0.045346
20
1.053677
30
4.730414
11
-0.042097
21
1.052238
31
4.704081
12
-0.037697
22
1.035620
32
4.712483
13
-0.037697
23
1.035620
33
4.712483
0
3DFACE
8
coconut_palm10_coconuts
10
-0.042097
20
1.052238
30
4.704081
11
-0.054186
21
1.043549
31
4.677279
12
-0.046565
22
1.014766
32
4.691833
13
-0.037697
23
1.035620
33
4.712483
0
3DFACE
8
coconut_palm10_coconuts
10
-0.054186
20
1.043549
30
4.677279
11
-0.078374
21
1.029940
31
4.657193
12
-0.069574
22
0.996704
32
4.673999
13
-0.046565
23
1.014766
33
4.691833
0
3DFACE
8
coconut_palm10_coconuts
10
-0.078374
20
1.029940
30
4.657193
11
-0.108180
21
1.015055
31
4.649201
12
-0.100559
22
0.986272
32
4.663755
13
-0.069574
23
0.996704
33
4.673999
0
3DFACE
8
coconut_palm10_coconuts
10
-0.108180
20
1.015055
30
4.649201
11
-0.135617
21
1.002885
31
4.655447
12
-0.131217
22
0.986267
32
4.663851
13
-0.100559
23
0.986272
33
4.663755
0
3DFACE
8
coconut_palm10_coconuts
10
-0.135617
20
1.002885
30
4.655447
11
-0.153333
21
0.996689
31
4.674257
12
-0.131217
22
0.986267
32
4.663851
13
-0.131217
23
0.986267
33
4.663851
0
3DFACE
8
coconut_palm10_coconuts
10
-0.045346
20
1.053677
30
4.730414
11
-0.052638
21
1.067462
31
4.708899
12
-0.042097
22
1.052238
32
4.704081
13
-0.042097
23
1.052238
33
4.704081
0
3DFACE
8
coconut_palm10_coconuts
10
-0.052638
20
1.067462
30
4.708899
11
-0.072443
21
1.069919
31
4.685627
12
-0.054186
22
1.043549
32
4.677279
13
-0.042097
23
1.052238
33
4.704081
0
3DFACE
8
coconut_palm10_coconuts
10
-0.072443
20
1.069919
30
4.685627
11
-0.099455
21
1.060389
31
4.666831
12
-0.078374
22
1.029940
32
4.657193
13
-0.054186
23
1.043549
33
4.677279
0
3DFACE
8
coconut_palm10_coconuts
10
-0.099455
20
1.060389
30
4.666831
11
-0.126436
21
1.041425
31
4.657548
12
-0.108180
22
1.015055
32
4.649201
13
-0.078374
23
1.029940
33
4.657193
0
3DFACE
8
coconut_palm10_coconuts
10
-0.126436
20
1.041425
30
4.657548
11
-0.146157
21
1.018110
31
4.660267
12
-0.135617
22
1.002885
32
4.655447
13
-0.108180
23
1.015055
33
4.649201
0
3DFACE
8
coconut_palm10_coconuts
10
-0.146157
20
1.018110
30
4.660267
11
-0.153333
21
0.996689
31
4.674257
12
-0.135617
22
1.002885
32
4.655447
13
-0.135617
23
1.002885
33
4.655447
0
3DFACE
8
coconut_palm10_coconuts
10
-0.045346
20
1.053677
30
4.730414
11
-0.063144
21
1.072375
31
4.724118
12
-0.052638
22
1.067462
32
4.708899
13
-0.052638
23
1.067462
33
4.708899
0
3DFACE
8
coconut_palm10_coconuts
10
-0.063144
20
1.072375
30
4.724118
11
-0.090641
21
1.078429
31
4.711986
12
-0.072443
22
1.069919
32
4.685627
13
-0.052638
23
1.067462
33
4.708899
0
3DFACE
8
coconut_palm10_coconuts
10
-0.090641
20
1.078429
30
4.711986
11
-0.120468
21
1.070215
31
4.697267
12
-0.099455
22
1.060389
32
4.666831
13
-0.072443
23
1.069919
33
4.685627
0
3DFACE
8
coconut_palm10_coconuts
10
-0.120468
20
1.070215
30
4.697267
11
-0.144635
21
1.049935
31
4.683907
12
-0.126436
22
1.041425
32
4.657548
13
-0.099455
23
1.060389
33
4.666831
0
3DFACE
8
coconut_palm10_coconuts
10
-0.144635
20
1.049935
30
4.683907
11
-0.156664
21
1.023023
31
4.675484
12
-0.146157
22
1.018110
32
4.660267
13
-0.126436
23
1.041425
33
4.657548
0
3DFACE
8
coconut_palm10_coconuts
10
-0.156664
20
1.023023
30
4.675484
11
-0.153333
21
0.996689
31
4.674257
12
-0.146157
22
1.018110
32
4.660267
13
-0.146157
23
1.018110
33
4.660267
0
ENDSEC
0
EOF
