999
DXF file generated by Cheetah3D
0
SECTION
2
ENTITIES
0
3DFACE
8
coconut_palm4_trunk
10
-0.040262
20
0.161482
30
-0.020574
11
0.062596
21
0.162344
31
-0.017531
12
-0.002285
22
0.302173
32
0.367704
13
-0.071188
23
0.283684
33
0.368947
0
3DFACE
8
coconut_palm4_trunk
10
0.062596
20
0.162344
30
-0.017531
11
0.126195
21
0.084964
31
-0.006079
12
0.041332
22
0.267376
32
0.413856
13
-0.002285
23
0.302173
33
0.367704
0
3DFACE
8
coconut_palm4_trunk
10
0.126195
20
0.084964
30
-0.006079
11
0.141815
21
-0.004038
31
0.005331
12
0.066441
22
0.221704
32
0.466275
13
0.041332
23
0.267376
33
0.413856
0
3DFACE
8
coconut_palm4_trunk
10
0.141815
20
-0.004038
30
0.005331
11
0.135221
21
-0.108124
31
0.017913
12
0.032766
22
0.168904
32
0.510987
13
0.066441
23
0.221704
33
0.466275
0
3DFACE
8
coconut_palm4_trunk
10
0.135221
20
-0.108124
30
0.017913
11
0.037524
21
-0.150500
31
0.020125
12
-0.036069
22
0.142830
32
0.519861
13
0.032766
23
0.168904
33
0.510987
0
3DFACE
8
coconut_palm4_trunk
10
0.037524
20
-0.150500
30
0.020125
11
-0.056527
21
-0.129313
31
0.014643
12
-0.101251
22
0.145784
32
0.500415
13
-0.036069
23
0.142830
33
0.519861
0
3DFACE
8
coconut_palm4_trunk
10
-0.056527
20
-0.129313
30
0.014643
11
-0.122226
21
-0.069463
31
0.005280
12
-0.156276
22
0.167866
32
0.464261
13
-0.101251
23
0.145784
33
0.500415
0
3DFACE
8
coconut_palm4_trunk
10
-0.122226
20
-0.069463
30
0.005280
11
-0.143829
21
0.015268
31
-0.005788
12
-0.175090
22
0.216049
32
0.410928
13
-0.156276
23
0.167866
33
0.464261
0
3DFACE
8
coconut_palm4_trunk
10
-0.143829
20
0.015268
30
-0.005788
11
-0.111479
21
0.097296
31
-0.014872
12
-0.128604
22
0.260712
32
0.377617
13
-0.175090
23
0.216049
33
0.410928
0
3DFACE
8
coconut_palm4_trunk
10
-0.111479
20
0.097296
30
-0.014872
11
-0.040262
21
0.161482
31
-0.020574
12
-0.071188
22
0.283684
32
0.368947
13
-0.128604
23
0.260712
33
0.377617
0
3DFACE
8
coconut_palm4_trunk
10
-0.071188
20
0.283684
30
0.368947
11
-0.002285
21
0.302173
31
0.367704
12
-0.111628
22
0.681874
32
0.570213
13
-0.169072
23
0.671396
33
0.552505
0
3DFACE
8
coconut_palm4_trunk
10
-0.002285
20
0.302173
30
0.367704
11
0.041332
21
0.267376
31
0.413856
12
-0.075352
22
0.680095
32
0.619072
13
-0.111628
23
0.681874
33
0.570213
0
3DFACE
8
coconut_palm4_trunk
10
0.041332
20
0.267376
30
0.413856
11
0.066441
21
0.221704
31
0.466275
12
-0.065274
22
0.668954
32
0.680421
13
-0.075352
23
0.680095
33
0.619072
0
3DFACE
8
coconut_palm4_trunk
10
0.066441
20
0.221704
30
0.466275
11
0.032766
21
0.168904
31
0.510987
12
-0.092504
22
0.648587
32
0.741139
13
-0.065274
23
0.668954
33
0.680421
0
3DFACE
8
coconut_palm4_trunk
10
0.032766
20
0.168904
30
0.510987
11
-0.036069
21
0.142830
31
0.519861
12
-0.158995
22
0.630979
32
0.745233
13
-0.092504
23
0.648587
33
0.741139
0
3DFACE
8
coconut_palm4_trunk
10
-0.036069
20
0.142830
30
0.519861
11
-0.101251
21
0.145784
31
0.500415
12
-0.217360
22
0.620098
32
0.728296
13
-0.158995
23
0.630979
33
0.745233
0
3DFACE
8
coconut_palm4_trunk
10
-0.101251
20
0.145784
30
0.500415
11
-0.156276
21
0.167866
31
0.464261
12
-0.256806
22
0.621077
32
0.679457
13
-0.217360
23
0.620098
33
0.728296
0
3DFACE
8
coconut_palm4_trunk
10
-0.156276
20
0.167866
30
0.464261
11
-0.175090
21
0.216049
31
0.410928
12
-0.258472
22
0.634318
32
0.618159
13
-0.256806
23
0.621077
33
0.679457
0
3DFACE
8
coconut_palm4_trunk
10
-0.175090
20
0.216049
30
0.410928
11
-0.128604
21
0.260712
31
0.377617
12
-0.226935
22
0.653584
32
0.567240
13
-0.258472
23
0.634318
33
0.618159
0
3DFACE
8
coconut_palm4_trunk
10
-0.128604
20
0.260712
30
0.377617
11
-0.071188
21
0.283684
31
0.368947
12
-0.169072
22
0.671396
32
0.552505
13
-0.226935
23
0.653584
33
0.567240
0
3DFACE
8
coconut_palm4_trunk
10
-0.169072
20
0.671396
30
0.552505
11
-0.111628
21
0.681874
31
0.570213
12
-0.232504
22
1.155902
32
0.675696
13
-0.292984
23
1.143973
33
0.660303
0
3DFACE
8
coconut_palm4_trunk
10
-0.111628
20
0.681874
30
0.570213
11
-0.075352
21
0.680095
31
0.619072
12
-0.192585
22
1.154520
32
0.726788
13
-0.232504
23
1.155902
33
0.675696
0
3DFACE
8
coconut_palm4_trunk
10
-0.075352
20
0.680095
30
0.619072
11
-0.065274
21
0.668954
31
0.680421
12
-0.191724
22
1.140573
32
0.789438
13
-0.192585
23
1.154520
33
0.726788
0
3DFACE
8
coconut_palm4_trunk
10
-0.065274
20
0.668954
30
0.680421
11
-0.092504
21
0.648587
31
0.741139
12
-0.228083
22
1.120865
32
0.835622
13
-0.191724
23
1.140573
33
0.789438
0
3DFACE
8
coconut_palm4_trunk
10
-0.092504
20
0.648587
30
0.741139
11
-0.158995
21
0.630979
31
0.745233
12
-0.282486
22
1.101870
32
0.858325
13
-0.228083
23
1.120865
33
0.835622
0
3DFACE
8
coconut_palm4_trunk
10
-0.158995
20
0.630979
30
0.745233
11
-0.217360
21
0.620098
31
0.728296
12
-0.339904
22
1.092198
32
0.836398
13
-0.282486
23
1.101870
33
0.858325
0
3DFACE
8
coconut_palm4_trunk
10
-0.217360
20
0.620098
30
0.728296
11
-0.256806
21
0.621077
31
0.679457
12
-0.383197
22
1.091636
32
0.790103
13
-0.339904
23
1.092198
33
0.836398
0
3DFACE
8
coconut_palm4_trunk
10
-0.256806
20
0.621077
30
0.679457
11
-0.258472
21
0.634318
31
0.618159
12
-0.387630
22
1.104966
32
0.726158
13
-0.383197
23
1.091636
33
0.790103
0
3DFACE
8
coconut_palm4_trunk
10
-0.258472
20
0.634318
30
0.618159
11
-0.226935
21
0.653584
31
0.567240
12
-0.342712
22
1.125183
32
0.687368
13
-0.387630
23
1.104966
33
0.726158
0
3DFACE
8
coconut_palm4_trunk
10
-0.226935
20
0.653584
30
0.567240
11
-0.169072
21
0.671396
31
0.552505
12
-0.292984
22
1.143973
32
0.660303
13
-0.342712
23
1.125183
33
0.687368
0
3DFACE
8
coconut_palm4_trunk
10
-0.292984
20
1.143973
30
0.660303
11
-0.232504
21
1.155902
31
0.675696
12
-0.357434
22
1.627504
32
0.784458
13
-0.414004
23
1.618823
33
0.758829
0
3DFACE
8
coconut_palm4_trunk
10
-0.232504
20
1.155902
30
0.675696
11
-0.192585
21
1.154520
31
0.726788
12
-0.332489
22
1.622385
32
0.835752
13
-0.357434
23
1.627504
33
0.784458
0
3DFACE
8
coconut_palm4_trunk
10
-0.192585
20
1.154520
30
0.726788
11
-0.191724
21
1.140573
31
0.789438
12
-0.322313
22
1.613075
32
0.888960
13
-0.332489
23
1.622385
33
0.835752
0
3DFACE
8
coconut_palm4_trunk
10
-0.191724
20
1.140573
30
0.789438
11
-0.228083
21
1.120865
31
0.835622
12
-0.346247
22
1.595145
32
0.941851
13
-0.322313
23
1.613075
33
0.888960
0
3DFACE
8
coconut_palm4_trunk
10
-0.228083
20
1.120865
30
0.835622
11
-0.282486
21
1.101870
31
0.858325
12
-0.403758
22
1.577728
32
0.954198
13
-0.346247
23
1.595145
33
0.941851
0
3DFACE
8
coconut_palm4_trunk
10
-0.282486
20
1.101870
30
0.858325
11
-0.339904
21
1.092198
31
0.836398
12
-0.456508
22
1.569106
32
0.932655
13
-0.403758
23
1.577728
33
0.954198
0
3DFACE
8
coconut_palm4_trunk
10
-0.339904
20
1.092198
30
0.836398
11
-0.383197
21
1.091636
31
0.790103
12
-0.503819
22
1.565993
32
0.892682
13
-0.456508
23
1.569106
33
0.932655
0
3DFACE
8
coconut_palm4_trunk
10
-0.383197
20
1.091636
30
0.790103
11
-0.387630
21
1.104966
31
0.726158
12
-0.497162
22
1.581165
32
0.832446
13
-0.503819
23
1.565993
33
0.892682
0
3DFACE
8
coconut_palm4_trunk
10
-0.387630
20
1.104966
30
0.726158
11
-0.342712
21
1.125183
31
0.687368
12
-0.465272
22
1.599294
32
0.787729
13
-0.497162
23
1.581165
33
0.832446
0
3DFACE
8
coconut_palm4_trunk
10
-0.342712
20
1.125183
30
0.687368
11
-0.292984
21
1.143973
31
0.660303
12
-0.414004
22
1.618823
32
0.758829
13
-0.465272
23
1.599294
33
0.787729
0
3DFACE
8
coconut_palm4_trunk
10
-0.414004
20
1.618823
30
0.758829
11
-0.357434
21
1.627504
31
0.784458
12
-0.464113
22
2.105872
32
0.881134
13
-0.519850
23
2.097196
33
0.857604
0
3DFACE
8
coconut_palm4_trunk
10
-0.357434
20
1.627504
30
0.784458
11
-0.332489
21
1.622385
31
0.835752
12
-0.426630
22
2.105041
32
0.927413
13
-0.464113
23
2.105872
33
0.881134
0
3DFACE
8
coconut_palm4_trunk
10
-0.332489
20
1.622385
30
0.835752
11
-0.322313
21
1.613075
31
0.888960
12
-0.428887
22
2.092005
32
0.984418
13
-0.426630
23
2.105041
33
0.927413
0
3DFACE
8
coconut_palm4_trunk
10
-0.322313
20
1.613075
30
0.888960
11
-0.346247
21
1.595145
31
0.941851
12
-0.460115
22
2.074826
32
1.027523
13
-0.428887
23
2.092005
33
0.984418
0
3DFACE
8
coconut_palm4_trunk
10
-0.346247
20
1.595145
30
0.941851
11
-0.403758
21
1.577728
31
0.954198
12
-0.510189
22
2.058446
32
1.045615
13
-0.460115
23
2.074826
33
1.027523
0
3DFACE
8
coconut_palm4_trunk
10
-0.403758
20
1.577728
30
0.954198
11
-0.456508
21
1.569106
31
0.932655
12
-0.564626
22
2.048077
32
1.031292
13
-0.510189
23
2.058446
33
1.045615
0
3DFACE
8
coconut_palm4_trunk
10
-0.456508
20
1.569106
30
0.932655
11
-0.503819
21
1.565993
31
0.892682
12
-0.598199
22
2.049968
32
0.984601
13
-0.564626
23
2.048077
33
1.031292
0
3DFACE
8
coconut_palm4_trunk
10
-0.503819
20
1.565993
30
0.892682
11
-0.497162
21
1.581165
31
0.832446
12
-0.603662
22
2.060962
32
0.928176
13
-0.598199
23
2.049968
33
0.984601
0
3DFACE
8
coconut_palm4_trunk
10
-0.497162
20
1.581165
30
0.832446
11
-0.465272
21
1.599294
31
0.787729
12
-0.570377
22
2.078717
32
0.884775
13
-0.603662
23
2.060962
33
0.928176
0
3DFACE
8
coconut_palm4_trunk
10
-0.465272
20
1.599294
30
0.787729
11
-0.414004
21
1.618823
31
0.758829
12
-0.519850
22
2.097196
32
0.857604
13
-0.570377
23
2.078717
33
0.884775
0
3DFACE
8
coconut_palm4_trunk
10
-0.519850
20
2.097196
30
0.857604
11
-0.464113
21
2.105872
31
0.881134
12
-0.569858
22
2.584267
32
0.978677
13
-0.621669
23
2.576282
33
0.957412
0
3DFACE
8
coconut_palm4_trunk
10
-0.464113
20
2.105872
30
0.881134
11
-0.426630
21
2.105041
31
0.927413
12
-0.537065
22
2.582844
32
1.022361
13
-0.569858
23
2.584267
33
0.978677
0
3DFACE
8
coconut_palm4_trunk
10
-0.426630
20
2.105041
30
0.927413
11
-0.428887
21
2.092005
31
0.984418
12
-0.537583
22
2.571529
32
1.074571
13
-0.537065
23
2.582844
33
1.022361
0
3DFACE
8
coconut_palm4_trunk
10
-0.428887
20
2.092005
30
0.984418
11
-0.460115
21
2.074826
31
1.027523
12
-0.558651
22
2.555686
32
1.124697
13
-0.537583
23
2.571529
33
1.074571
0
3DFACE
8
coconut_palm4_trunk
10
-0.460115
20
2.074826
30
1.027523
11
-0.510189
21
2.058446
31
1.045615
12
-0.612222
22
2.538391
32
1.144883
13
-0.558651
23
2.555686
33
1.124697
0
3DFACE
8
coconut_palm4_trunk
10
-0.510189
20
2.058446
30
1.045615
11
-0.564626
21
2.048077
31
1.031292
12
-0.658132
22
2.534669
32
1.110394
13
-0.612222
23
2.538391
33
1.144883
0
3DFACE
8
coconut_palm4_trunk
10
-0.564626
20
2.048077
30
1.031292
11
-0.598199
21
2.049968
31
0.984601
12
-0.705556
22
2.529986
32
1.078674
13
-0.658132
23
2.534669
33
1.110394
0
3DFACE
8
coconut_palm4_trunk
10
-0.598199
20
2.049968
30
0.984601
11
-0.603662
21
2.060962
31
0.928176
12
-0.706486
22
2.542245
32
1.020419
13
-0.705556
23
2.529986
33
1.078674
0
3DFACE
8
coconut_palm4_trunk
10
-0.603662
20
2.060962
30
0.928176
11
-0.570377
21
2.078717
31
0.884775
12
-0.668400
22
2.559567
32
0.982614
13
-0.706486
23
2.542245
33
1.020419
0
3DFACE
8
coconut_palm4_trunk
10
-0.570377
20
2.078717
30
0.884775
11
-0.519850
21
2.097196
31
0.857604
12
-0.621669
22
2.576282
32
0.957412
13
-0.668400
23
2.559567
33
0.982614
0
3DFACE
8
coconut_palm4_trunk
10
-0.621669
20
2.576282
30
0.957412
11
-0.569858
21
2.584267
31
0.978677
12
-0.648279
22
3.065874
32
1.092262
13
-0.699851
23
3.056999
33
1.078374
0
3DFACE
8
coconut_palm4_trunk
10
-0.569858
20
2.584267
30
0.978677
11
-0.537065
21
2.582844
31
1.022361
12
-0.612858
22
3.064754
32
1.134989
13
-0.648279
23
3.065874
33
1.092262
0
3DFACE
8
coconut_palm4_trunk
10
-0.537065
20
2.582844
30
1.022361
11
-0.537583
21
2.571529
31
1.074571
12
-0.621976
22
3.051546
32
1.186066
13
-0.612858
23
3.064754
33
1.134989
0
3DFACE
8
coconut_palm4_trunk
10
-0.537583
20
2.571529
30
1.074571
11
-0.558651
21
2.555686
31
1.124697
12
-0.648443
22
3.037338
32
1.223337
13
-0.621976
23
3.051546
33
1.186066
0
3DFACE
8
coconut_palm4_trunk
10
-0.558651
20
2.555686
30
1.124697
11
-0.612222
21
2.538391
31
1.144883
12
-0.691815
22
3.024768
32
1.235142
13
-0.648443
23
3.037338
33
1.223337
0
3DFACE
8
coconut_palm4_trunk
10
-0.612222
20
2.538391
30
1.144883
11
-0.658132
21
2.534669
31
1.110394
12
-0.734713
22
3.017911
32
1.221173
13
-0.691815
23
3.024768
33
1.235142
0
3DFACE
8
coconut_palm4_trunk
10
-0.658132
20
2.534669
30
1.110394
11
-0.705556
21
2.529986
31
1.078674
12
-0.765818
22
3.018315
32
1.186316
13
-0.734713
23
3.017911
33
1.221173
0
3DFACE
8
coconut_palm4_trunk
10
-0.705556
20
2.529986
30
1.078674
11
-0.706486
21
2.542245
31
1.020419
12
-0.781517
22
3.025754
32
1.135446
13
-0.765818
23
3.018315
33
1.186316
0
3DFACE
8
coconut_palm4_trunk
10
-0.706486
20
2.542245
30
1.020419
11
-0.668400
21
2.559567
31
0.982614
12
-0.746515
22
3.042165
32
1.097097
13
-0.781517
23
3.025754
33
1.135446
0
3DFACE
8
coconut_palm4_trunk
10
-0.668400
20
2.559567
30
0.982614
11
-0.621669
21
2.576282
31
0.957412
12
-0.699851
22
3.056999
32
1.078374
13
-0.746515
23
3.042165
33
1.097097
0
3DFACE
8
coconut_palm4_trunk
10
-0.699851
20
3.056999
30
1.078374
11
-0.648279
21
3.065874
31
1.092262
12
-0.713802
22
3.545780
32
1.224104
13
-0.754029
23
3.540449
33
1.208912
0
3DFACE
8
coconut_palm4_trunk
10
-0.648279
20
3.065874
30
1.092262
11
-0.612858
21
3.064754
31
1.134989
12
-0.669660
22
3.549291
32
1.251404
13
-0.713802
23
3.545780
33
1.224104
0
3DFACE
8
coconut_palm4_trunk
10
-0.612858
20
3.064754
30
1.134989
11
-0.621976
21
3.051546
31
1.186066
12
-0.681688
22
3.535967
32
1.300160
13
-0.669660
23
3.549291
33
1.251404
0
3DFACE
8
coconut_palm4_trunk
10
-0.621976
20
3.051546
30
1.186066
11
-0.648443
21
3.037338
31
1.223337
12
-0.698162
22
3.522449
32
1.345437
13
-0.681688
23
3.535967
33
1.300160
0
3DFACE
8
coconut_palm4_trunk
10
-0.648443
20
3.037338
30
1.223337
11
-0.691815
21
3.024768
31
1.235142
12
-0.745928
22
3.507958
32
1.364474
13
-0.698162
23
3.522449
33
1.345437
0
3DFACE
8
coconut_palm4_trunk
10
-0.691815
20
3.024768
30
1.235142
11
-0.734713
21
3.017911
31
1.221173
12
-0.788283
22
3.505284
32
1.335123
13
-0.745928
23
3.507958
33
1.364474
0
3DFACE
8
coconut_palm4_trunk
10
-0.734713
20
3.017911
30
1.221173
11
-0.765818
21
3.018315
31
1.186316
12
-0.816471
22
3.506725
32
1.300951
13
-0.788283
23
3.505284
33
1.335123
0
3DFACE
8
coconut_palm4_trunk
10
-0.765818
20
3.018315
30
1.186316
11
-0.781517
21
3.025754
31
1.135446
12
-0.823597
22
3.515140
32
1.255738
13
-0.816471
23
3.506725
33
1.300951
0
3DFACE
8
coconut_palm4_trunk
10
-0.781517
20
3.025754
30
1.135446
11
-0.746515
21
3.042165
31
1.097097
12
-0.802023
22
3.529276
32
1.212646
13
-0.823597
23
3.515140
33
1.255738
0
3DFACE
8
coconut_palm4_trunk
10
-0.746515
20
3.042165
30
1.097097
11
-0.699851
21
3.056999
31
1.078374
12
-0.754029
22
3.540449
32
1.208912
13
-0.802023
23
3.529276
33
1.212646
0
3DFACE
8
coconut_palm4_trunk
10
-0.754029
20
3.540449
30
1.208912
11
-0.713802
21
3.545780
31
1.224104
12
-0.758568
22
4.049845
32
1.262087
13
-0.833601
23
4.040641
33
1.231951
0
3DFACE
8
coconut_palm4_trunk
10
-0.713802
20
3.545780
30
1.224104
11
-0.669660
21
3.549291
31
1.251404
12
-0.710064
22
4.046620
32
1.324257
13
-0.758568
23
4.049845
33
1.262087
0
3DFACE
8
coconut_palm4_trunk
10
-0.669660
20
3.549291
30
1.251404
11
-0.681688
21
3.535967
31
1.300160
12
-0.709761
22
4.030334
32
1.400323
13
-0.710064
23
4.046620
33
1.324257
0
3DFACE
8
coconut_palm4_trunk
10
-0.681688
20
3.535967
30
1.300160
11
-0.698162
21
3.522449
31
1.345437
12
-0.739401
22
4.007944
32
1.475679
13
-0.709761
23
4.030334
33
1.400323
0
3DFACE
8
coconut_palm4_trunk
10
-0.698162
20
3.522449
30
1.345437
11
-0.745928
21
3.507958
31
1.364474
12
-0.820459
22
3.987930
32
1.489972
13
-0.739401
23
4.007944
33
1.475679
0
3DFACE
8
coconut_palm4_trunk
10
-0.745928
20
3.507958
30
1.364474
11
-0.788283
21
3.505284
31
1.335123
12
-0.900174
22
3.974940
32
1.472900
13
-0.820459
23
3.987930
33
1.489972
0
3DFACE
8
coconut_palm4_trunk
10
-0.788283
20
3.505284
30
1.335123
11
-0.816471
21
3.506725
31
1.300951
12
-0.953161
22
3.978131
32
1.406529
13
-0.900174
23
3.974940
33
1.472900
0
3DFACE
8
coconut_palm4_trunk
10
-0.816471
20
3.506725
30
1.300951
11
-0.823597
21
3.515140
31
1.255738
12
-0.956139
22
3.995359
32
1.323481
13
-0.953161
23
3.978131
33
1.406529
0
3DFACE
8
coconut_palm4_trunk
10
-0.823597
20
3.515140
30
1.255738
11
-0.802023
21
3.529276
31
1.212646
12
-0.906820
22
4.018973
32
1.261565
13
-0.956139
23
3.995359
33
1.323481
0
3DFACE
8
coconut_palm4_trunk
10
-0.802023
20
3.529276
30
1.212646
11
-0.754029
21
3.540449
31
1.208912
12
-0.833601
22
4.040641
32
1.231951
13
-0.906820
23
4.018973
33
1.261565
0
3DFACE
8
coconut_palm4_trunk
10
-0.833601
20
4.040641
30
1.231951
11
-0.758568
21
4.049845
31
1.262087
12
-0.846344
22
4.505461
32
1.482227
13
-0.852356
23
4.504669
33
1.480551
0
3DFACE
8
coconut_palm4_trunk
10
-0.758568
20
4.049845
30
1.262087
11
-0.710064
21
4.046620
31
1.324257
12
-0.840287
22
4.505697
32
1.486475
13
-0.846344
23
4.505461
33
1.482227
0
3DFACE
8
coconut_palm4_trunk
10
-0.710064
20
4.046620
30
1.324257
11
-0.709761
21
4.030334
31
1.400323
12
-0.841536
22
4.503898
32
1.493577
13
-0.840287
23
4.505697
33
1.486475
0
3DFACE
8
coconut_palm4_trunk
10
-0.709761
20
4.030334
30
1.400323
11
-0.739401
21
4.007944
31
1.475679
12
-0.845188
22
4.502036
32
1.498853
13
-0.841536
23
4.503898
33
1.493577
0
3DFACE
8
coconut_palm4_trunk
10
-0.739401
20
4.007944
30
1.475679
11
-0.820459
21
3.987930
31
1.489972
12
-0.851310
22
4.500473
32
1.500592
13
-0.845188
23
4.502036
33
1.498853
0
3DFACE
8
coconut_palm4_trunk
10
-0.820459
20
3.987930
30
1.489972
11
-0.900174
21
3.974940
31
1.472900
12
-0.857424
22
4.499703
32
1.498723
13
-0.851310
23
4.500473
33
1.500592
0
3DFACE
8
coconut_palm4_trunk
10
-0.900174
20
3.974940
30
1.472900
11
-0.953161
21
3.978131
31
1.406529
12
-0.861729
22
4.499958
32
1.493780
13
-0.857424
23
4.499703
33
1.498723
0
3DFACE
8
coconut_palm4_trunk
10
-0.953161
20
3.978131
30
1.406529
11
-0.956139
21
3.995359
31
1.323481
12
-0.861852
22
4.501348
32
1.487336
13
-0.861729
23
4.499958
33
1.493780
0
3DFACE
8
coconut_palm4_trunk
10
-0.956139
20
3.995359
30
1.323481
11
-0.906820
21
4.018973
31
1.261565
12
-0.858859
22
4.503205
32
1.481507
13
-0.861852
23
4.501348
33
1.487336
0
3DFACE
8
coconut_palm4_trunk
10
-0.906820
20
4.018973
30
1.261565
11
-0.833601
21
4.040641
31
1.231951
12
-0.852356
22
4.504669
32
1.480551
13
-0.858859
23
4.503205
33
1.481507
0
3DFACE
8
coconut_palm4_trunk
10
-0.852356
20
4.504669
30
1.480551
11
-0.846344
21
4.505461
31
1.482227
12
-0.851689
22
4.502645
32
1.490362
13
-0.851689
23
4.502645
33
1.490362
0
3DFACE
8
coconut_palm4_trunk
10
-0.846344
20
4.505461
30
1.482227
11
-0.840287
21
4.505697
31
1.486475
12
-0.851689
22
4.502645
32
1.490362
13
-0.851689
23
4.502645
33
1.490362
0
3DFACE
8
coconut_palm4_trunk
10
-0.840287
20
4.505697
30
1.486475
11
-0.841536
21
4.503898
31
1.493577
12
-0.851689
22
4.502645
32
1.490362
13
-0.851689
23
4.502645
33
1.490362
0
3DFACE
8
coconut_palm4_trunk
10
-0.841536
20
4.503898
30
1.493577
11
-0.845188
21
4.502036
31
1.498853
12
-0.851689
22
4.502645
32
1.490362
13
-0.851689
23
4.502645
33
1.490362
0
3DFACE
8
coconut_palm4_trunk
10
-0.845188
20
4.502036
30
1.498853
11
-0.851310
21
4.500473
31
1.500592
12
-0.851689
22
4.502645
32
1.490362
13
-0.851689
23
4.502645
33
1.490362
0
3DFACE
8
coconut_palm4_trunk
10
-0.851310
20
4.500473
30
1.500592
11
-0.857424
21
4.499703
31
1.498723
12
-0.851689
22
4.502645
32
1.490362
13
-0.851689
23
4.502645
33
1.490362
0
3DFACE
8
coconut_palm4_trunk
10
-0.857424
20
4.499703
30
1.498723
11
-0.861729
21
4.499958
31
1.493780
12
-0.851689
22
4.502645
32
1.490362
13
-0.851689
23
4.502645
33
1.490362
0
3DFACE
8
coconut_palm4_trunk
10
-0.861729
20
4.499958
30
1.493780
11
-0.861852
21
4.501348
31
1.487336
12
-0.851689
22
4.502645
32
1.490362
13
-0.851689
23
4.502645
33
1.490362
0
3DFACE
8
coconut_palm4_trunk
10
-0.861852
20
4.501348
30
1.487336
11
-0.858859
21
4.503205
31
1.481507
12
-0.851689
22
4.502645
32
1.490362
13
-0.851689
23
4.502645
33
1.490362
0
3DFACE
8
coconut_palm4_trunk
10
-0.858859
20
4.503205
30
1.481507
11
-0.852356
21
4.504669
31
1.480551
12
-0.851689
22
4.502645
32
1.490362
13
-0.851689
23
4.502645
33
1.490362
0
3DFACE
8
coconut_palm4_leaves
10
-1.886866
20
5.086512
30
1.807720
11
-2.194392
21
4.651688
31
1.432336
12
-2.726572
22
5.031311
32
1.537503
13
-2.419046
23
5.466136
33
1.912887
0
3DFACE
8
coconut_palm4_leaves
10
-1.302023
20
4.811089
30
1.721425
11
-1.609549
21
4.376264
31
1.346041
12
-2.194392
22
4.651688
32
1.432336
13
-1.886866
23
5.086512
33
1.807720
0
3DFACE
8
coconut_palm4_leaves
10
-0.692203
20
4.597581
30
1.646661
11
-0.999729
21
4.162756
31
1.271277
12
-1.609549
22
4.376264
32
1.346041
13
-1.302023
23
4.811089
33
1.721425
0
3DFACE
8
coconut_palm4_leaves
10
-2.040629
20
4.869101
30
1.620028
11
-2.074851
21
4.706430
31
1.887452
12
-2.585719
22
5.148564
32
2.004457
13
-2.572809
23
5.248724
33
1.725195
0
3DFACE
8
coconut_palm4_leaves
10
-1.979397
20
5.091822
30
1.363648
11
-2.040629
21
4.869101
31
1.620028
12
-2.572809
22
5.248724
32
1.725195
13
-2.462972
23
5.520218
33
1.476443
0
3DFACE
8
coconut_palm4_leaves
10
-1.455786
20
4.593676
30
1.533733
11
-1.492051
21
4.402315
31
1.795334
12
-2.074851
22
4.706430
32
1.887452
13
-2.040629
23
4.869101
33
1.620028
0
3DFACE
8
coconut_palm4_leaves
10
-1.415638
20
4.795306
30
1.274057
11
-1.455786
21
4.593676
31
1.533733
12
-2.040629
22
4.869101
32
1.620028
13
-1.979397
23
5.091822
33
1.363648
0
3DFACE
8
coconut_palm4_leaves
10
-0.845966
20
4.380168
30
1.458969
11
-0.879310
21
4.182018
31
1.719021
12
-1.492051
22
4.402315
32
1.795334
13
-1.455786
23
4.593676
33
1.533733
0
3DFACE
8
coconut_palm4_leaves
10
-0.812623
20
4.578320
30
1.198917
11
-0.845966
21
4.380168
31
1.458969
12
-1.455786
22
4.593676
32
1.533733
13
-1.415638
23
4.795306
33
1.274057
0
3DFACE
8
coconut_palm4_leaves
10
0.096564
20
4.723239
30
1.821783
11
-0.007611
21
4.287762
31
1.855120
12
0.493261
22
3.978018
32
1.948162
13
0.597436
23
4.413495
33
1.914826
0
3DFACE
8
coconut_palm4_leaves
10
-0.380513
20
4.721573
30
1.640071
11
-0.484689
21
4.286097
31
1.673408
12
-0.007611
22
4.287762
32
1.855120
13
0.096564
23
4.723239
33
1.821783
0
3DFACE
8
coconut_palm4_leaves
10
-0.791551
20
4.548090
30
1.429532
11
-0.895726
21
4.112613
31
1.462868
12
-0.484689
22
4.286097
32
1.673408
13
-0.380513
23
4.721573
33
1.640071
0
3DFACE
8
coconut_palm4_leaves
10
0.044477
20
4.505500
30
1.838452
11
0.160002
21
4.396226
31
1.599417
12
0.593736
22
3.961862
32
1.627861
13
0.545348
23
4.195757
33
1.931494
0
3DFACE
8
coconut_palm4_leaves
10
-0.038070
20
4.482858
30
2.048621
11
0.044477
21
4.505500
31
1.838452
12
0.545348
22
4.195757
32
1.931494
13
0.468248
23
4.043327
33
2.103010
0
3DFACE
8
coconut_palm4_leaves
10
-0.432601
20
4.503835
30
1.656739
11
-0.305367
21
4.455856
31
1.441384
12
0.160002
22
4.396226
32
1.599417
13
0.044477
23
4.505500
33
1.838452
0
3DFACE
8
coconut_palm4_leaves
10
-0.549912
20
4.530902
30
1.869302
11
-0.432601
21
4.503835
31
1.656739
12
0.044477
22
4.505500
32
1.838452
13
-0.038070
23
4.482858
33
2.048621
0
3DFACE
8
coconut_palm4_leaves
10
-0.843639
20
4.330352
30
1.446200
11
-0.710598
21
4.297877
31
1.237914
12
-0.305367
22
4.455856
32
1.441384
13
-0.432601
23
4.503835
33
1.656739
0
3DFACE
8
coconut_palm4_leaves
10
-0.976679
20
4.362826
30
1.654485
11
-0.843639
21
4.330352
31
1.446200
12
-0.432601
22
4.503835
32
1.656739
13
-0.549912
23
4.530902
33
1.869302
0
3DFACE
8
coconut_palm4_leaves
10
-0.095141
20
4.986891
30
0.695214
11
0.024728
21
4.458126
31
0.765591
12
0.500699
22
4.339302
32
0.348942
13
0.380831
23
4.868067
33
0.278564
0
3DFACE
8
coconut_palm4_leaves
10
-0.523914
20
4.840763
30
1.070328
11
-0.404045
21
4.311997
31
1.140705
12
0.024728
22
4.458126
32
0.765591
13
-0.095141
23
4.986891
33
0.695214
0
3DFACE
8
coconut_palm4_leaves
10
-0.901692
20
4.554482
30
1.400694
11
-0.781824
21
4.025717
31
1.471071
12
-0.404045
22
4.311997
32
1.140705
13
-0.523914
23
4.840763
33
1.070328
0
3DFACE
8
coconut_palm4_leaves
10
-0.035207
20
4.722508
30
0.730402
11
-0.185954
21
4.589136
31
0.486765
12
0.276214
22
4.329209
32
0.082074
13
0.440765
23
4.603685
33
0.313753
0
3DFACE
8
coconut_palm4_leaves
10
0.150987
20
4.728003
30
0.942908
11
-0.035207
21
4.722508
31
0.730402
12
0.440765
22
4.603685
32
0.313753
13
0.641257
23
4.475314
33
0.513630
0
3DFACE
8
coconut_palm4_leaves
10
-0.463979
20
4.576380
30
1.105517
11
-0.619468
21
4.502109
31
0.866080
12
-0.185954
22
4.589136
32
0.486765
13
-0.035207
23
4.722508
33
0.730402
0
3DFACE
8
coconut_palm4_leaves
10
-0.300155
20
4.630760
30
1.337641
11
-0.463979
21
4.576380
31
1.105517
12
-0.035207
22
4.722508
32
0.730402
13
0.150987
23
4.728003
33
0.942908
0
3DFACE
8
coconut_palm4_leaves
10
-0.841758
20
4.290100
30
1.435882
11
-0.997286
21
4.229078
31
1.196492
12
-0.619468
22
4.502109
32
0.866080
13
-0.463979
23
4.576380
33
1.105517
0
3DFACE
8
coconut_palm4_leaves
10
-0.686230
20
4.351120
30
1.675273
11
-0.841758
21
4.290100
31
1.435882
12
-0.463979
22
4.576380
32
1.105517
13
-0.300155
23
4.630760
33
1.337641
0
3DFACE
8
coconut_palm4_leaves
10
-1.785969
20
3.730579
30
1.783231
11
-1.504845
21
3.591179
31
1.450554
12
-1.549864
22
2.922835
32
1.374100
13
-1.830988
23
3.062235
33
1.706777
0
3DFACE
8
coconut_palm4_leaves
10
-1.439270
20
4.150376
30
1.726011
11
-1.158147
21
4.010975
31
1.393334
12
-1.504845
22
3.591179
32
1.450554
13
-1.785969
23
3.730579
33
1.783231
0
3DFACE
8
coconut_palm4_leaves
10
-0.982939
20
4.373046
30
1.605616
11
-0.701815
21
4.233645
31
1.272939
12
-1.158147
22
4.010975
32
1.393334
13
-1.439270
23
4.150376
33
1.726011
0
3DFACE
8
coconut_palm4_leaves
10
-1.645407
20
3.660879
30
1.616893
11
-1.437412
21
3.467534
31
1.764791
12
-1.276819
22
2.789564
32
1.619063
13
-1.690426
23
2.992535
33
1.540438
0
3DFACE
8
coconut_palm4_leaves
10
-1.743523
20
3.715223
30
1.413683
11
-1.645407
21
3.660879
31
1.616893
12
-1.690426
22
2.992535
32
1.540438
13
-1.645560
23
2.946541
33
1.276259
0
3DFACE
8
coconut_palm4_leaves
10
-1.298708
20
4.080676
30
1.559672
11
-1.169322
21
3.921743
31
1.738254
12
-1.437412
22
3.467534
32
1.764791
13
-1.645407
23
3.660879
33
1.616893
0
3DFACE
8
coconut_palm4_leaves
10
-1.416159
20
4.212060
30
1.373381
11
-1.298708
21
4.080676
31
1.559672
12
-1.645407
22
3.660879
32
1.616893
13
-1.743523
23
3.715223
33
1.413683
0
3DFACE
8
coconut_palm4_leaves
10
-0.842377
20
4.303346
30
1.439278
11
-0.735533
21
4.150931
31
1.626201
12
-1.169322
22
3.921743
32
1.738254
13
-1.298708
23
4.080676
33
1.559672
0
3DFACE
8
coconut_palm4_leaves
10
-0.949221
20
4.455761
30
1.252355
11
-0.842377
21
4.303346
31
1.439278
12
-1.298708
22
4.080676
32
1.559672
13
-1.416159
23
4.212060
33
1.373381
0
3DFACE
8
coconut_palm4_leaves
10
-0.054588
20
4.254232
30
2.511162
11
-0.313911
21
3.812259
31
2.345320
12
0.073852
22
3.206362
32
2.618710
13
0.333175
23
3.648335
33
2.784552
0
3DFACE
8
coconut_palm4_leaves
10
-0.413825
20
4.457445
30
2.026238
11
-0.673148
21
4.015472
31
1.860397
12
-0.313911
22
3.812259
32
2.345320
13
-0.054588
23
4.254232
33
2.511162
0
3DFACE
8
coconut_palm4_leaves
10
-0.707525
20
4.413252
30
1.493726
11
-0.966849
21
3.971280
31
1.327885
12
-0.673148
22
4.015472
32
1.860397
13
-0.413825
23
4.457445
33
2.026238
0
3DFACE
8
coconut_palm4_leaves
10
-0.184250
20
4.033246
30
2.428241
11
0.071822
21
3.845292
31
2.207266
12
0.383547
22
3.096412
32
2.257701
13
0.203514
23
3.427348
33
2.701631
0
3DFACE
8
coconut_palm4_leaves
10
-0.399924
20
3.996856
30
2.573411
11
-0.184250
21
4.033246
31
2.428241
12
0.203514
22
3.427348
32
2.701631
13
-0.009307
23
3.190206
33
2.721840
0
3DFACE
8
coconut_palm4_leaves
10
-0.543487
20
4.236458
30
1.943318
11
-0.276901
21
4.137223
31
1.797772
12
0.071822
22
3.845292
32
2.207266
13
-0.184250
23
4.033246
33
2.428241
0
3DFACE
8
coconut_palm4_leaves
10
-0.798110
20
4.297481
30
2.084672
11
-0.543487
21
4.236458
31
1.943318
12
-0.184250
22
4.033246
32
2.428241
13
-0.399924
23
3.996856
33
2.573411
0
3DFACE
8
coconut_palm4_leaves
10
-0.837187
20
4.192266
30
1.410805
11
-0.565493
21
4.114675
31
1.288023
12
-0.276901
22
4.137223
32
1.797772
13
-0.543487
23
4.236458
33
1.943318
0
3DFACE
8
coconut_palm4_leaves
10
-1.108881
20
4.269857
30
1.533588
11
-0.837187
21
4.192266
31
1.410805
12
-0.543487
22
4.236458
32
1.943318
13
-0.798110
23
4.297481
33
2.084672
0
3DFACE
8
coconut_palm4_leaves
10
-1.328521
20
4.045402
30
2.507197
11
-1.318087
21
3.847764
31
2.110765
12
-1.277969
22
3.083563
32
2.179620
13
-1.288404
23
3.281199
33
2.576052
0
3DFACE
8
coconut_palm4_leaves
10
-1.130711
20
4.441359
30
2.128171
11
-1.120277
21
4.243723
31
1.731739
12
-1.318087
22
3.847764
32
2.110765
13
-1.328521
23
4.045402
33
2.507197
0
3DFACE
8
coconut_palm4_leaves
10
-0.854527
20
4.550543
30
1.675527
11
-0.844092
21
4.352906
31
1.279094
12
-1.120277
22
4.243723
32
1.731739
13
-1.130711
23
4.441359
33
2.128171
0
3DFACE
8
coconut_palm4_leaves
10
-1.323304
20
3.946583
30
2.308981
11
-1.033745
21
3.732315
31
2.310017
12
-0.828423
22
2.958119
32
2.121109
13
-1.283187
23
3.182381
33
2.377836
0
3DFACE
8
coconut_palm4_leaves
10
-1.525787
20
3.948126
30
2.207881
11
-1.323304
21
3.946583
31
2.308981
12
-1.283187
22
3.182381
32
2.377836
13
-1.365987
23
3.046256
33
2.112507
0
3DFACE
8
coconut_palm4_leaves
10
-1.125494
20
4.342541
30
1.929955
11
-0.901096
21
4.191003
31
2.022514
12
-1.033745
22
3.732315
32
2.310017
13
-1.323304
23
3.946583
33
2.308981
0
3DFACE
8
coconut_palm4_leaves
10
-1.341671
20
4.453139
30
1.831546
11
-1.125494
21
4.342541
31
1.929955
12
-1.323304
22
3.946583
32
2.308981
13
-1.525787
23
3.948126
33
2.207881
0
3DFACE
8
coconut_palm4_leaves
10
-0.849310
20
4.451725
30
1.477310
11
-0.643780
21
4.316361
31
1.596715
12
-0.901096
22
4.191003
32
2.022514
13
-1.125494
23
4.342541
33
1.929955
0
3DFACE
8
coconut_palm4_leaves
10
-1.054839
20
4.587088
30
1.357905
11
-0.849310
21
4.451725
31
1.477310
12
-1.125494
22
4.342541
32
1.929955
13
-1.341671
23
4.453139
33
1.831546
0
3DFACE
8
coconut_palm4_leaves
10
-0.315634
20
5.192427
30
2.320565
11
-0.379360
21
4.624850
31
2.525034
12
0.011380
22
4.658210
32
3.061592
13
0.075106
23
5.225788
33
2.857123
0
3DFACE
8
coconut_palm4_leaves
10
-0.599844
20
4.955781
30
1.813539
11
-0.663570
21
4.388204
31
2.018009
12
-0.379360
22
4.624850
32
2.525034
13
-0.315634
23
5.192427
33
2.320565
0
3DFACE
8
coconut_palm4_leaves
10
-0.811637
20
4.611166
30
1.343203
11
-0.875363
21
4.043588
31
1.547672
12
-0.663570
22
4.388204
32
2.018009
13
-0.599844
23
4.955781
33
1.813539
0
3DFACE
8
coconut_palm4_leaves
10
-0.347497
20
4.908639
30
2.422800
11
-0.031965
21
4.782229
31
2.323887
12
0.383544
22
4.690766
32
2.824675
13
0.043243
23
4.941999
33
2.959358
0
3DFACE
8
coconut_palm4_leaves
10
-0.599440
20
4.929227
30
2.547874
11
-0.347497
21
4.908639
31
2.422800
12
0.043243
22
4.941999
32
2.959358
13
-0.147857
23
4.862017
33
3.109837
0
3DFACE
8
coconut_palm4_leaves
10
-0.631707
20
4.671993
30
1.915774
11
-0.332001
21
4.602767
31
1.827308
12
-0.031965
22
4.782229
32
2.323887
13
-0.347497
23
4.908639
33
2.422800
0
3DFACE
8
coconut_palm4_leaves
10
-0.919643
20
4.724723
30
2.010782
11
-0.631707
21
4.671993
31
1.915774
12
-0.347497
22
4.908639
32
2.422800
13
-0.599440
23
4.929227
33
2.547874
0
3DFACE
8
coconut_palm4_leaves
10
-0.843500
20
4.327377
30
1.445437
11
-0.545363
21
4.273830
31
1.363510
12
-0.332001
22
4.602767
32
1.827308
13
-0.631707
23
4.671993
33
1.915774
0
3DFACE
8
coconut_palm4_leaves
10
-1.141637
20
4.380923
30
1.527365
11
-0.843500
21
4.327377
31
1.445437
12
-0.631707
22
4.671993
32
1.915774
13
-0.919643
23
4.724723
33
2.010782
0
3DFACE
8
coconut_palm4_leaves
10
-0.695506
20
4.476520
30
0.626836
11
-0.628641
21
4.235957
31
0.808005
12
-0.478805
22
3.718581
32
0.606355
13
-0.545671
23
3.959144
33
0.425186
0
3DFACE
8
coconut_palm4_leaves
10
-0.812261
20
4.614426
30
1.006106
11
-0.745395
21
4.373863
31
1.187274
12
-0.628641
22
4.235957
32
0.808005
13
-0.695506
23
4.476520
33
0.626836
0
3DFACE
8
coconut_palm4_leaves
10
-0.880322
20
4.520197
30
1.373446
11
-0.813456
21
4.279634
31
1.554615
12
-0.745395
22
4.373863
32
1.187274
13
-0.812261
23
4.614426
33
1.006106
0
3DFACE
8
coconut_palm4_leaves
10
-0.662074
20
4.356238
30
0.717420
11
-0.826047
21
4.210525
31
0.692818
12
-0.691082
22
3.607223
32
0.626154
13
-0.512238
23
3.838863
33
0.515770
0
3DFACE
8
coconut_palm4_leaves
10
-0.476086
20
4.366374
30
0.762281
11
-0.662074
21
4.356238
31
0.717420
12
-0.512238
22
3.838863
32
0.515770
13
-0.327712
23
3.743650
33
0.655053
0
3DFACE
8
coconut_palm4_leaves
10
-0.778828
20
4.494144
30
1.096690
11
-0.947553
21
4.405670
31
1.044291
12
-0.826047
22
4.210525
32
0.692818
13
-0.662074
23
4.356238
33
0.717420
0
3DFACE
8
coconut_palm4_leaves
10
-0.604693
20
4.560412
30
1.144766
11
-0.778828
21
4.494144
31
1.096690
12
-0.662074
22
4.356238
32
0.717420
13
-0.476086
23
4.366374
33
0.762281
0
3DFACE
8
coconut_palm4_leaves
10
-0.846889
20
4.399916
30
1.464031
11
-1.017023
21
4.324977
31
1.406264
12
-0.947553
22
4.405670
32
1.044291
13
-0.778828
23
4.494144
33
1.096690
0
3DFACE
8
coconut_palm4_leaves
10
-0.676755
20
4.474854
30
1.521797
11
-0.846889
21
4.399916
31
1.464031
12
-0.778828
22
4.494144
32
1.096690
13
-0.604693
23
4.560412
33
1.144766
0
3DFACE
8
coconut_palm4_leaves
10
-1.192051
20
5.102357
30
1.229925
11
-1.147243
21
4.849315
31
0.958170
12
-1.317902
22
5.007223
32
0.618114
13
-1.362711
23
5.260265
33
0.889869
0
3DFACE
8
coconut_palm4_leaves
10
-1.022533
20
4.828201
30
1.458546
11
-0.977725
21
4.575160
31
1.186791
12
-1.147243
22
4.849315
32
0.958170
13
-1.192051
23
5.102357
33
1.229925
0
3DFACE
8
coconut_palm4_leaves
10
-0.867987
20
4.498486
30
1.592744
11
-0.823179
21
4.245444
31
1.320989
12
-0.977725
22
4.575160
32
1.186791
13
-1.022533
23
4.828201
33
1.458546
0
3DFACE
8
coconut_palm4_leaves
10
-1.169647
20
4.975836
30
1.094047
11
-1.350373
21
4.884122
31
1.108092
12
-1.510530
22
4.999271
32
0.758219
13
-1.340307
23
5.133744
33
0.753992
0
3DFACE
8
coconut_palm4_leaves
10
-0.994474
20
5.031331
30
1.030451
11
-1.169647
21
4.975836
31
1.094047
12
-1.340307
22
5.133744
32
0.753992
13
-1.159565
23
5.153438
33
0.672971
0
3DFACE
8
coconut_palm4_leaves
10
-1.000129
20
4.701680
30
1.322669
11
-1.180946
21
4.629348
31
1.354489
12
-1.350373
22
4.884122
32
1.108092
13
-1.169647
23
4.975836
33
1.094047
0
3DFACE
8
coconut_palm4_leaves
10
-0.821141
20
4.769042
30
1.281001
11
-1.000129
21
4.701680
31
1.322669
12
-1.169647
22
4.975836
32
1.094047
13
-0.994474
23
5.031331
33
1.030451
0
3DFACE
8
coconut_palm4_leaves
10
-0.845583
20
4.371965
30
1.456866
11
-1.026461
21
4.304258
31
1.492817
12
-1.180946
22
4.629348
32
1.354489
13
-1.000129
23
4.701680
33
1.322669
0
3DFACE
8
coconut_palm4_leaves
10
-0.664705
20
4.439672
30
1.420915
11
-0.845583
21
4.371965
31
1.456866
12
-1.000129
22
4.701680
32
1.322669
13
-0.821141
23
4.769042
33
1.281001
0
3DFACE
8
coconut_palm4_leaves
10
-1.592533
20
3.524583
30
2.086457
11
-1.405507
21
3.463417
31
1.697816
12
-1.221306
22
2.662702
32
1.533892
13
-1.408332
23
2.723867
33
1.922534
0
3DFACE
8
coconut_palm4_leaves
10
-1.339742
20
4.049518
30
1.916077
11
-1.152715
21
3.988352
31
1.527435
12
-1.405507
22
3.463417
32
1.697816
13
-1.592533
23
3.524583
33
2.086457
0
3DFACE
8
coconut_palm4_leaves
10
-0.933816
20
4.289536
30
1.622220
11
-0.746790
21
4.228370
31
1.233578
12
-1.152715
22
3.988352
32
1.527435
13
-1.339742
23
4.049518
33
1.916077
0
3DFACE
8
coconut_palm4_leaves
10
-1.499020
20
3.494000
30
1.892137
11
-1.180235
21
3.293555
31
1.942923
12
-0.713115
22
2.588273
32
1.571774
13
-1.314819
23
2.693285
33
1.728213
0
3DFACE
8
coconut_palm4_leaves
10
-1.648376
20
3.496735
30
1.708683
11
-1.499020
21
3.494000
31
1.892137
12
-1.314819
22
2.693285
32
1.728213
13
-1.235977
23
2.625417
33
1.372654
0
3DFACE
8
coconut_palm4_leaves
10
-1.246228
20
4.018935
30
1.721757
11
-1.041526
21
3.857078
31
1.858695
12
-1.180235
22
3.293555
32
1.942923
13
-1.499020
23
3.494000
33
1.892137
0
3DFACE
8
coconut_palm4_leaves
10
-1.433908
20
4.137203
30
1.570691
11
-1.246228
21
4.018935
31
1.721757
12
-1.499020
22
3.494000
32
1.892137
13
-1.648376
23
3.496735
33
1.708683
0
3DFACE
8
coconut_palm4_leaves
10
-0.840303
20
4.258952
30
1.427899
11
-0.666830
21
4.107333
31
1.588410
12
-1.041526
22
3.857078
32
1.858695
13
-1.246228
23
4.018935
33
1.721757
0
3DFACE
8
coconut_palm4_leaves
10
-1.013775
20
4.410573
30
1.267388
11
-0.840303
21
4.258952
31
1.427899
12
-1.246228
22
4.018935
32
1.721757
13
-1.433908
23
4.137203
33
1.570691
0
3DFACE
8
coconut_palm4_leaves
10
-0.549910
20
5.344562
30
0.994962
11
-0.192088
21
4.990020
31
0.797073
12
0.038385
22
5.386932
32
0.521425
13
-0.319437
23
5.741474
33
0.719314
0
3DFACE
8
coconut_palm4_leaves
10
-0.786084
20
4.955329
30
1.276460
11
-0.428262
21
4.600786
31
1.078571
12
-0.192088
22
4.990020
32
0.797073
13
-0.549910
23
5.344562
33
0.994962
0
3DFACE
8
coconut_palm4_leaves
10
-1.025489
20
4.570529
30
1.561269
11
-0.667667
21
4.215987
31
1.363379
12
-0.428262
22
4.600786
32
1.078571
13
-0.786084
23
4.955329
33
1.276460
0
3DFACE
8
coconut_palm4_leaves
10
-0.370999
20
5.167291
30
0.896018
11
-0.537507
21
5.118518
31
0.689257
12
-0.309404
22
5.519449
32
0.415995
13
-0.140526
23
5.564204
33
0.620369
0
3DFACE
8
coconut_palm4_leaves
10
-0.207124
20
5.219646
30
1.105478
11
-0.370999
21
5.167291
31
0.896018
12
-0.140526
22
5.564204
32
0.620369
13
0.020385
23
5.619593
33
0.832924
0
3DFACE
8
coconut_palm4_leaves
10
-0.607173
20
4.778058
30
1.177516
11
-0.772784
21
4.727469
31
0.969867
12
-0.537507
22
5.118518
32
0.689257
13
-0.370999
23
5.167291
33
0.896018
0
3DFACE
8
coconut_palm4_leaves
10
-0.441999
20
4.829248
30
1.385611
11
-0.607173
21
4.778058
31
1.177516
12
-0.370999
22
5.167291
32
0.896018
13
-0.207124
23
5.219646
33
1.105478
0
3DFACE
8
coconut_palm4_leaves
10
-0.846578
20
4.393258
30
1.462324
11
-1.012071
21
4.342207
31
1.254572
12
-0.772784
22
4.727469
32
0.969867
13
-0.607173
23
4.778058
33
1.177516
0
3DFACE
8
coconut_palm4_leaves
10
-0.681085
20
4.444309
30
1.670076
11
-0.846578
21
4.393258
31
1.462324
12
-0.607173
22
4.778058
32
1.177516
13
-0.441999
23
4.829248
33
1.385611
0
3DFACE
8
coconut_palm4_leaves
10
0.298129
20
4.556940
30
2.021808
11
0.123681
21
4.015785
31
2.036166
12
0.694208
22
3.652468
32
2.224400
13
0.868656
23
4.193624
33
2.210042
0
3DFACE
8
coconut_palm4_leaves
10
-0.252607
20
4.602504
30
1.730802
11
-0.427056
21
4.061349
31
1.745160
12
0.123681
22
4.015785
32
2.036166
13
0.298129
23
4.556940
33
2.021808
0
3DFACE
8
coconut_palm4_leaves
10
-0.750204
20
4.467993
30
1.404946
11
-0.924652
21
3.926838
31
1.419304
12
-0.427056
22
4.061349
32
1.745160
13
-0.252607
23
4.602504
33
1.730802
0
3DFACE
8
coconut_palm4_leaves
10
0.210904
20
4.286363
30
2.028987
11
0.374844
21
4.145103
31
1.743602
12
0.874182
22
3.628452
32
1.837186
13
0.781432
23
3.923046
33
2.217221
0
3DFACE
8
coconut_palm4_leaves
10
0.078721
20
4.259321
30
2.271809
11
0.210904
21
4.286363
31
2.028987
12
0.781432
22
3.923046
32
2.217221
13
0.656164
23
3.729892
33
2.404401
0
3DFACE
8
coconut_palm4_leaves
10
-0.339831
20
4.331926
30
1.737981
11
-0.161573
21
4.264090
31
1.486885
12
0.374844
22
4.145103
32
1.743602
13
0.210904
23
4.286363
33
2.028987
0
3DFACE
8
coconut_palm4_leaves
10
-0.508259
20
4.372309
30
1.984729
11
-0.339831
21
4.331926
31
1.737981
12
0.210904
22
4.286363
32
2.028987
13
0.078721
23
4.259321
33
2.271809
0
3DFACE
8
coconut_palm4_leaves
10
-0.837428
20
4.197416
30
1.412125
11
-0.652101
21
4.146957
31
1.171199
12
-0.161573
22
4.264090
32
1.486885
13
-0.339831
23
4.331926
33
1.737981
0
3DFACE
8
coconut_palm4_leaves
10
-1.022755
20
4.247874
30
1.653052
11
-0.837428
21
4.197416
31
1.412125
12
-0.339831
22
4.331926
32
1.737981
13
-0.508259
23
4.372309
33
1.984729
0
3DFACE
8
coconut_palm4_leaves
10
-1.865770
20
3.857955
30
1.048564
11
-1.442089
21
3.755862
31
0.997730
12
-1.262948
22
2.967796
32
0.819461
13
-1.686629
23
3.069890
33
0.870295
0
3DFACE
8
coconut_palm4_leaves
10
-1.548658
20
4.315173
30
1.288707
11
-1.124977
21
4.213079
31
1.237873
12
-1.442089
22
3.755862
32
0.997730
13
-1.865770
23
3.857955
33
1.048564
0
3DFACE
8
coconut_palm4_leaves
10
-0.870720
20
4.295765
30
1.258442
11
-0.836491
21
4.177369
31
1.406987
12
-1.209704
22
4.124084
32
1.468593
13
-1.251502
23
4.236038
33
1.320376
0
3DFACE
8
coconut_palm4_leaves
10
-0.836491
20
4.177369
30
1.406987
11
-0.802262
21
4.058972
31
1.555532
12
-1.166597
22
4.001078
32
1.614663
13
-1.209704
23
4.124084
33
1.468593
0
3DFACE
8
coconut_palm4_leaves
10
-1.251502
20
4.236038
30
1.320376
11
-1.209704
21
4.124084
31
1.468593
12
-1.561467
22
3.958012
32
1.506756
13
-1.610563
23
4.039651
33
1.354715
0
3DFACE
8
coconut_palm4_leaves
10
-1.209704
20
4.124084
30
1.468593
11
-1.166597
21
4.001078
31
1.614663
12
-1.493507
22
3.812817
32
1.644302
13
-1.561467
23
3.958012
33
1.506756
0
3DFACE
8
coconut_palm4_leaves
10
-1.610563
20
4.039651
30
1.354715
11
-1.561467
21
3.958012
31
1.506756
12
-1.828200
22
3.611182
32
1.497744
13
-1.857557
23
3.629472
33
1.331078
0
3DFACE
8
coconut_palm4_leaves
10
-1.561467
20
3.958012
30
1.506756
11
-1.493507
21
3.812817
31
1.644302
12
-1.696266
22
3.425335
32
1.616178
13
-1.828200
23
3.611182
33
1.497744
0
3DFACE
8
coconut_palm4_leaves
10
-0.907420
20
4.294061
30
1.525663
11
-0.765562
21
4.060677
31
1.288311
12
-1.138775
22
4.007392
32
1.349916
13
-1.280633
23
4.240776
33
1.587269
0
3DFACE
8
coconut_palm4_leaves
10
-1.280633
20
4.240776
30
1.587269
11
-1.138775
21
4.007392
31
1.349916
12
-1.490539
22
3.841320
32
1.388079
13
-1.632396
23
4.074705
33
1.625432
0
3DFACE
8
coconut_palm4_leaves
10
-1.632396
20
4.074705
30
1.625432
11
-1.490539
21
3.841320
31
1.388079
12
-1.757272
22
3.494489
32
1.379068
13
-1.899129
23
3.727874
33
1.616421
0
3DFACE
8
coconut_palm4_leaves
10
-0.672025
20
4.261032
30
1.586605
11
-0.837175
21
4.192013
31
1.410741
12
-0.506305
22
4.271159
32
1.048944
13
-0.333555
23
4.328072
33
1.217202
0
3DFACE
8
coconut_palm4_leaves
10
-0.837175
20
4.192013
30
1.410741
11
-1.002326
21
4.122993
31
1.234877
12
-0.675580
22
4.186467
32
0.878332
13
-0.506305
23
4.271159
33
1.048944
0
3DFACE
8
coconut_palm4_leaves
10
-0.333555
20
4.328072
30
1.217202
11
-0.506305
21
4.271159
31
1.048944
12
-0.162645
22
4.127476
32
0.684582
13
0.016330
23
4.114531
33
0.849640
0
3DFACE
8
coconut_palm4_leaves
10
-0.506305
20
4.271159
30
1.048944
11
-0.675580
21
4.186467
31
0.878332
12
-0.349737
22
3.973255
32
0.536752
13
-0.162645
23
4.127476
33
0.684582
0
3DFACE
8
coconut_palm4_leaves
10
0.016330
20
4.114531
30
0.849640
11
-0.162645
21
4.127476
31
0.684582
12
0.107756
22
3.609649
32
0.418355
13
0.232860
23
3.449777
33
0.649095
0
3DFACE
8
coconut_palm4_leaves
10
-0.162645
20
4.127476
30
0.684582
11
-0.349737
21
3.973255
31
0.536752
12
-0.167106
22
3.327229
32
0.371919
13
0.107756
23
3.609649
33
0.418355
0
3DFACE
8
coconut_palm4_leaves
10
-0.809674
20
4.374483
30
1.298957
11
-0.864676
21
4.009542
31
1.522524
12
-0.533806
22
4.088689
32
1.160727
13
-0.478804
23
4.453629
33
0.937161
0
3DFACE
8
coconut_palm4_leaves
10
-0.478804
20
4.453629
30
0.937161
11
-0.533806
21
4.088689
31
1.160727
12
-0.190146
22
3.945006
32
0.796365
13
-0.135144
23
4.309947
33
0.572799
0
3DFACE
8
coconut_palm4_leaves
10
-0.135144
20
4.309947
30
0.572799
11
-0.190146
21
3.945006
31
0.796365
12
0.080255
22
3.427178
32
0.530138
13
0.135257
23
3.792119
33
0.306571
0
3DFACE
8
coconut_palm4_leaves
10
-1.115453
20
4.213193
30
1.486730
11
-0.836221
21
4.171584
31
1.405504
12
-0.637401
22
4.524731
32
1.820932
13
-0.904229
23
4.567300
33
1.917267
0
3DFACE
8
coconut_palm4_leaves
10
-0.836221
20
4.171584
30
1.405504
11
-0.556989
21
4.129977
31
1.324279
12
-0.356101
22
4.464302
32
1.732489
13
-0.637401
23
4.524731
33
1.820932
0
3DFACE
8
coconut_palm4_leaves
10
-0.904229
20
4.567300
30
1.917267
11
-0.637401
21
4.524731
31
1.820932
12
-0.344711
22
4.751586
32
2.282206
13
-0.568589
23
4.760646
33
2.411971
0
3DFACE
8
coconut_palm4_leaves
10
-0.637401
20
4.524731
30
1.820932
11
-0.356101
21
4.464302
31
1.732489
12
-0.045847
22
4.625384
32
2.180728
13
-0.344711
23
4.751586
33
2.282206
0
3DFACE
8
coconut_palm4_leaves
10
-0.568589
20
4.760646
30
2.411971
11
-0.344711
21
4.751586
31
2.282206
12
0.074202
22
4.737447
32
2.768628
13
-0.089056
23
4.638001
33
2.914179
0
3DFACE
8
coconut_palm4_leaves
10
-0.344711
20
4.751586
30
2.282206
11
-0.045847
21
4.625384
31
2.180728
12
0.387247
22
4.476376
32
2.614689
13
0.074202
23
4.737447
33
2.768628
0
3DFACE
8
coconut_palm4_leaves
10
-0.810504
20
4.433807
30
1.314757
11
-0.861938
21
3.909362
31
1.496252
12
-0.663118
22
4.262508
32
1.911679
13
-0.611683
23
4.786954
33
1.730184
0
3DFACE
8
coconut_palm4_leaves
10
-0.611683
20
4.786954
30
1.730184
11
-0.663118
21
4.262508
31
1.911679
12
-0.370428
22
4.489363
32
2.372954
13
-0.318994
23
5.013809
33
2.191458
0
3DFACE
8
coconut_palm4_leaves
10
-0.318994
20
5.013809
30
2.191458
11
-0.370428
21
4.489363
31
2.372954
12
0.048485
22
4.475224
32
2.859376
13
0.099919
23
4.999671
33
2.677880
0
3DFACE
8
coconut_palm4_leaves
10
-0.656159
20
4.611933
30
1.328263
11
-0.850626
21
4.479901
31
1.484533
12
-1.229508
22
4.873621
32
1.370692
13
-1.047113
23
5.003814
33
1.205089
0
3DFACE
8
coconut_palm4_leaves
10
-0.850626
20
4.479901
30
1.484533
11
-1.045093
21
4.347870
31
1.640802
12
-1.424132
22
4.726771
32
1.520970
13
-1.229508
23
4.873621
33
1.370692
0
3DFACE
8
coconut_palm4_leaves
10
-1.047113
20
5.003814
30
1.205089
11
-1.229508
21
4.873621
31
1.370692
12
-1.683565
22
5.143607
32
1.154174
13
-1.530580
23
5.237499
33
0.953204
0
3DFACE
8
coconut_palm4_leaves
10
-1.229508
20
4.873621
30
1.370692
11
-1.424132
21
4.726771
31
1.520970
12
-1.882530
22
4.939702
32
1.278718
13
-1.683565
23
5.143607
33
1.154174
0
3DFACE
8
coconut_palm4_leaves
10
-1.530580
20
5.237499
30
0.953204
11
-1.683565
21
5.143607
31
1.154174
12
-2.181564
22
5.185060
32
0.815656
13
-2.016252
23
5.189723
33
0.588069
0
3DFACE
8
coconut_palm4_leaves
10
-1.683565
20
5.143607
30
1.154174
11
-1.882530
21
4.939702
31
1.278718
12
-2.334560
22
4.879066
32
0.932460
13
-2.181564
23
5.185060
33
0.815656
0
3DFACE
8
coconut_palm4_leaves
10
-0.860740
20
4.680809
30
1.655523
11
-0.840512
21
4.278994
31
1.313542
12
-1.219394
22
4.672713
32
1.199702
13
-1.239622
23
5.074528
33
1.541682
0
3DFACE
8
coconut_palm4_leaves
10
-1.239622
20
5.074528
30
1.541682
11
-1.219394
21
4.672713
31
1.199702
12
-1.673451
22
4.942700
32
0.983183
13
-1.693679
23
5.344515
33
1.325164
0
3DFACE
8
coconut_palm4_leaves
10
-1.693679
20
5.344515
30
1.325164
11
-1.673451
21
4.942700
31
0.983183
12
-2.171450
22
4.984152
32
0.644666
13
-2.191678
23
5.385967
33
0.986646
0
3DFACE
8
coconut_palm4_leaves
10
-0.986909
20
4.375471
30
1.353909
11
-0.842340
21
4.302547
31
1.439073
12
-0.938658
22
4.465046
32
1.747780
13
-1.083611
23
4.538025
33
1.664444
0
3DFACE
8
coconut_palm4_leaves
10
-0.842340
20
4.302547
30
1.439073
11
-0.697771
21
4.229625
31
1.524237
12
-0.793574
22
4.390649
32
1.831901
13
-0.938658
23
4.465046
33
1.747780
0
3DFACE
8
coconut_palm4_leaves
10
-1.083611
20
4.538025
30
1.664444
11
-0.938658
21
4.465046
31
1.747780
12
-1.033506
22
4.611970
32
2.064888
13
-1.178994
23
4.682816
33
1.986304
0
3DFACE
8
coconut_palm4_leaves
10
-0.938658
20
4.465046
30
1.747780
11
-0.793574
21
4.390649
31
1.831901
12
-0.887170
22
4.532509
32
2.147952
13
-1.033506
23
4.611970
33
2.064888
0
3DFACE
8
coconut_palm4_leaves
10
-1.178994
20
4.682816
30
1.986304
11
-1.033506
21
4.611970
31
2.064888
12
-1.125463
22
4.731159
32
2.395615
13
-1.271274
23
4.795207
33
2.325416
0
3DFACE
8
coconut_palm4_leaves
10
-1.033506
20
4.611970
30
2.064888
11
-0.887170
21
4.532509
31
2.147952
12
-0.976807
22
4.640838
32
2.478198
13
-1.125463
23
4.731159
33
2.395615
0
3DFACE
8
coconut_palm4_leaves
10
-0.744843
20
4.452908
30
1.402807
11
-0.939837
21
4.152188
31
1.475340
12
-1.036155
22
4.314687
32
1.784047
13
-0.841160
23
4.615407
33
1.711513
0
3DFACE
8
coconut_palm4_leaves
10
-0.841160
20
4.615407
30
1.711513
11
-1.036155
21
4.314687
31
1.784047
12
-1.131003
22
4.461611
32
2.101155
13
-0.936009
23
4.762330
33
2.028621
0
3DFACE
8
coconut_palm4_leaves
10
-0.936009
20
4.762330
30
2.028621
11
-1.131003
21
4.461611
31
2.101155
12
-1.222960
22
4.580799
32
2.431881
13
-1.027966
23
4.881518
33
2.359348
0
3DFACE
8
coconut_palm4_leaves
10
-0.640793
20
4.571615
30
1.368682
11
-0.847800
21
4.419420
31
1.469030
12
-1.100411
22
4.399917
32
0.985535
13
-0.893496
23
4.528696
33
0.869019
0
3DFACE
8
coconut_palm4_leaves
10
-0.847800
20
4.419420
30
1.469030
11
-1.054808
21
4.267224
31
1.569378
12
-1.292362
22
4.223628
32
1.097449
13
-1.100411
23
4.399917
33
0.985535
0
3DFACE
8
coconut_palm4_leaves
10
-0.893496
20
4.528696
30
0.869019
11
-1.100411
21
4.399917
31
0.985535
12
-1.222808
22
4.044573
32
0.514981
13
-0.968323
23
4.059776
33
0.409417
0
3DFACE
8
coconut_palm4_leaves
10
-1.100411
20
4.399917
30
0.985535
11
-1.292362
21
4.223628
31
1.097449
12
-1.343757
22
3.772119
32
0.693353
13
-1.222808
23
4.044573
33
0.514981
0
3DFACE
8
coconut_palm4_leaves
10
-0.968323
20
4.059776
30
0.409417
11
-1.222808
21
4.044573
31
0.514981
12
-1.012348
22
3.237052
32
0.355061
13
-0.588173
23
3.125968
33
0.479063
0
3DFACE
8
coconut_palm4_leaves
10
-1.222808
20
4.044573
30
0.514981
11
-1.343757
21
3.772119
31
0.693353
12
-0.952660
22
2.903395
32
0.827835
13
-1.012348
23
3.237052
33
0.355061
0
3DFACE
8
coconut_palm4_leaves
10
-0.996549
20
4.515327
30
1.361262
11
-0.699051
21
4.323513
31
1.576798
12
-0.951662
22
4.304009
32
1.093303
13
-1.249160
23
4.495823
33
0.877767
0
3DFACE
8
coconut_palm4_leaves
10
-1.249160
20
4.495823
30
0.877767
11
-0.951662
21
4.304009
31
1.093303
12
-1.074059
22
3.948666
32
0.622749
13
-1.371557
23
4.140481
33
0.407213
0
3DFACE
8
coconut_palm4_leaves
10
-1.371557
20
4.140481
30
0.407213
11
-1.074059
21
3.948666
31
0.622749
12
-0.863599
22
3.141144
32
0.462829
13
-1.161097
23
3.332959
33
0.247293
0
3DFACE
8
coconut_palm4_leaves
10
-0.986611
20
4.359382
30
1.195357
11
-0.837634
21
4.201841
31
1.413260
12
-1.228345
22
4.362467
32
1.850977
13
-1.396184
23
4.508205
33
1.655520
0
3DFACE
8
coconut_palm4_leaves
10
-0.837634
20
4.201841
30
1.413260
11
-0.688658
21
4.044300
31
1.631163
12
-1.065749
22
4.177833
32
2.055065
13
-1.228345
23
4.362467
33
1.850977
0
3DFACE
8
coconut_palm4_leaves
10
-1.396184
20
4.508205
30
1.655520
11
-1.228345
21
4.362467
31
1.850977
12
-1.637031
22
4.268981
32
2.326391
13
-1.830066
23
4.323286
33
2.165997
0
3DFACE
8
coconut_palm4_leaves
10
-1.228345
20
4.362467
30
1.850977
11
-1.065749
21
4.177833
31
2.055065
12
-1.434613
22
3.984289
32
2.491485
13
-1.637031
23
4.268981
33
2.326391
0
3DFACE
8
coconut_palm4_leaves
10
-1.830066
20
4.323286
30
2.165997
11
-1.637031
21
4.268981
31
2.326391
12
-1.969673
22
3.767398
32
2.741915
13
-2.107169
23
3.644945
33
2.529634
0
3DFACE
8
coconut_palm4_leaves
10
-1.637031
20
4.268981
30
2.326391
11
-1.434613
21
3.984289
31
2.491485
12
-1.630421
22
3.348197
32
2.758966
13
-1.969673
23
3.767398
33
2.741915
0
3DFACE
8
coconut_palm4_leaves
10
-0.794619
20
4.416096
30
1.576147
11
-0.880650
21
3.987585
31
1.250373
12
-1.271360
22
4.148211
32
1.688090
13
-1.185329
23
4.576722
33
2.013864
0
3DFACE
8
coconut_palm4_leaves
10
-1.185329
20
4.576722
30
2.013864
11
-1.271360
21
4.148211
31
1.688090
12
-1.680046
22
4.054725
32
2.163505
13
-1.594015
23
4.483237
33
2.489278
0
3DFACE
8
coconut_palm4_leaves
10
-1.594015
20
4.483237
30
2.489278
11
-1.680046
21
4.054725
31
2.163505
12
-2.012689
22
3.553142
32
2.579029
13
-1.926658
23
3.981654
33
2.904802
0
3DFACE
8
coconut_palm4_leaves
10
-1.014262
20
4.454002
30
1.369229
11
-0.845022
21
4.359961
31
1.453789
12
-0.985664
22
4.428330
32
1.841584
13
-1.156968
23
4.519564
33
1.764744
0
3DFACE
8
coconut_palm4_leaves
10
-0.845022
20
4.359961
30
1.453789
11
-0.675782
21
4.265918
31
1.538349
12
-0.813469
22
4.328778
32
1.920167
13
-0.985664
23
4.428330
33
1.841584
0
3DFACE
8
coconut_palm4_leaves
10
-1.156968
20
4.519564
30
1.764744
11
-0.985664
21
4.428330
31
1.841584
12
-1.116711
22
4.417631
32
2.242582
13
-1.289750
23
4.489285
33
2.181411
0
3DFACE
8
coconut_palm4_leaves
10
-0.985664
20
4.428330
30
1.841584
11
-0.813469
21
4.328778
31
1.920167
12
-0.936531
22
4.295657
32
2.309028
13
-1.116711
23
4.417631
33
2.242582
0
3DFACE
8
coconut_palm4_leaves
10
-1.289750
20
4.489285
30
2.181411
11
-1.116711
21
4.417631
31
2.242582
12
-1.224003
22
4.268479
32
2.645718
13
-1.392923
23
4.289948
33
2.598878
0
3DFACE
8
coconut_palm4_leaves
10
-1.116711
20
4.417631
30
2.242582
11
-0.936531
21
4.295657
31
2.309028
12
-1.026236
22
4.098516
32
2.684697
13
-1.224003
23
4.268479
33
2.645718
0
3DFACE
8
coconut_palm4_leaves
10
-0.763939
20
4.542846
30
1.505057
11
-0.926105
21
4.177073
31
1.402521
12
-1.066748
22
4.245444
32
1.790316
13
-0.904581
23
4.611217
33
1.892852
0
3DFACE
8
coconut_palm4_leaves
10
-0.904581
20
4.611217
30
1.892852
11
-1.066748
21
4.245444
31
1.790316
12
-1.197795
22
4.234744
32
2.191314
13
-1.035628
23
4.600516
33
2.293850
0
3DFACE
8
coconut_palm4_leaves
10
-1.035628
20
4.600516
30
2.293850
11
-1.197795
21
4.234744
31
2.191314
12
-1.305086
22
4.085593
32
2.594450
13
-1.142920
23
4.451366
33
2.696986
0
3DFACE
8
coconut_palm4_leaves
10
-0.960681
20
4.416235
30
1.359579
11
-0.844223
21
4.342866
31
1.449407
12
-0.973129
22
4.470407
32
1.719390
13
-1.089415
23
4.543784
33
1.629132
0
3DFACE
8
coconut_palm4_leaves
10
-0.844223
20
4.342866
30
1.449407
11
-0.727766
21
4.269496
31
1.539236
12
-0.856834
22
4.397373
32
1.809488
13
-0.973129
23
4.470407
33
1.719390
0
3DFACE
8
coconut_palm4_leaves
10
-1.089415
20
4.543784
30
1.629132
11
-0.973129
21
4.470407
31
1.719390
12
-1.101929
22
4.602130
32
1.987426
13
-1.217859
23
4.676032
33
1.896068
0
3DFACE
8
coconut_palm4_leaves
10
-0.973129
20
4.470407
30
1.719390
11
-0.856834
21
4.397373
31
1.809488
12
-0.985943
22
4.530287
32
2.077816
13
-1.101929
23
4.602130
33
1.987426
0
3DFACE
8
coconut_palm4_leaves
10
-1.217859
20
4.676032
30
1.896068
11
-1.101929
21
4.602130
31
1.987426
12
-1.230508
22
4.741137
32
2.251981
13
-1.345867
23
4.816572
33
2.158583
0
3DFACE
8
coconut_palm4_leaves
10
-1.101929
20
4.602130
30
1.987426
11
-0.985943
21
4.530287
31
2.077816
12
-1.114950
22
4.671850
32
2.342408
13
-1.230508
23
4.741137
33
2.251981
0
3DFACE
8
coconut_palm4_leaves
10
-0.746960
20
4.474120
30
1.430546
11
-0.941487
21
4.211612
31
1.468269
12
-1.070392
22
4.339152
32
1.738251
13
-0.875865
23
4.601659
33
1.700528
0
3DFACE
8
coconut_palm4_leaves
10
-0.875865
20
4.601659
30
1.700528
11
-1.070392
21
4.339152
31
1.738251
12
-1.199192
22
4.470876
32
2.006287
13
-1.004666
23
4.733383
33
1.968565
0
3DFACE
8
coconut_palm4_leaves
10
-1.004666
20
4.733383
30
1.968565
11
-1.199192
21
4.470876
31
2.006287
12
-1.327772
22
4.609884
32
2.270842
13
-1.133245
23
4.872390
33
2.233119
0
3DFACE
8
coconut_palm4_leaves
10
-0.789456
20
4.365592
30
1.611296
11
-0.843754
21
4.332811
31
1.446830
12
-0.541849
22
4.449744
32
1.316863
13
-0.483213
23
4.480303
33
1.479063
0
3DFACE
8
coconut_palm4_leaves
10
-0.843754
20
4.332811
30
1.446830
11
-0.898051
21
4.300030
31
1.282364
12
-0.598462
22
4.411956
32
1.152975
13
-0.541849
23
4.449744
33
1.316863
0
3DFACE
8
coconut_palm4_leaves
10
-0.483213
20
4.480303
30
1.479063
11
-0.541849
21
4.449744
31
1.316863
12
-0.221356
22
4.483265
32
1.169661
13
-0.153579
23
4.496905
33
1.325842
0
3DFACE
8
coconut_palm4_leaves
10
-0.541849
20
4.449744
30
1.316863
11
-0.598462
21
4.411956
31
1.152975
12
-0.282536
22
4.424613
32
1.005794
13
-0.221356
23
4.483265
33
1.169661
0
3DFACE
8
coconut_palm4_leaves
10
-0.153579
20
4.496905
30
1.325842
11
-0.221356
21
4.483265
31
1.169661
12
0.104204
22
4.365038
32
1.004616
13
0.176277
23
4.333275
33
1.154152
0
3DFACE
8
coconut_palm4_leaves
10
-0.221356
20
4.483265
30
1.169661
11
-0.282536
21
4.424613
31
1.005794
12
0.026337
22
4.259267
32
0.843790
13
0.104204
23
4.365038
33
1.004616
0
3DFACE
8
coconut_palm4_leaves
10
-0.854379
20
4.497400
30
1.414387
11
-0.833128
21
4.168222
31
1.479274
12
-0.531224
22
4.285155
32
1.349307
13
-0.552475
23
4.614334
33
1.284420
0
3DFACE
8
coconut_palm4_leaves
10
-0.552475
20
4.614334
30
1.284420
11
-0.531224
21
4.285155
31
1.349307
12
-0.210730
22
4.318676
32
1.202104
13
-0.231981
23
4.647854
33
1.137217
0
3DFACE
8
coconut_palm4_leaves
10
-0.231981
20
4.647854
30
1.137217
11
-0.210730
21
4.318676
31
1.202104
12
0.114830
22
4.200449
32
1.037060
13
0.093579
23
4.529627
33
0.972172
0
3DFACE
8
coconut_palm4_leaves
10
-1.097926
20
4.334956
30
1.412427
11
-0.838852
21
4.227905
31
1.419940
12
-0.920464
22
3.914962
32
1.870731
13
-1.177275
23
3.981810
33
1.879659
0
3DFACE
8
coconut_palm4_leaves
10
-0.838852
20
4.227905
30
1.419940
11
-0.579778
21
4.120852
31
1.427454
12
-0.647045
22
3.805051
32
1.833268
13
-0.920464
23
3.914962
33
1.870731
0
3DFACE
8
coconut_palm4_leaves
10
-1.177275
20
3.981810
30
1.879659
11
-0.920464
21
3.914962
31
1.870731
12
-0.877858
22
3.334411
32
2.075847
13
-1.092987
23
3.286769
33
2.016959
0
3DFACE
8
coconut_palm4_leaves
10
-0.920464
20
3.914962
30
1.870731
11
-0.647045
21
3.805051
31
1.833268
12
-0.554141
22
3.219791
32
1.877542
13
-0.877858
23
3.334411
33
2.075847
0
3DFACE
8
coconut_palm4_leaves
10
-1.092987
20
3.286769
30
2.016959
11
-0.877858
21
3.334411
31
2.075847
12
-0.615557
22
2.606364
32
1.653565
13
-0.738289
23
2.574642
33
1.284655
0
3DFACE
8
coconut_palm4_leaves
10
-0.877858
20
3.334411
30
2.075847
11
-0.554141
21
3.219791
31
1.877542
12
-0.226634
22
2.714053
32
1.111502
13
-0.615557
23
2.606364
33
1.653565
0
3DFACE
8
coconut_palm4_leaves
10
-0.797155
20
4.228026
30
1.622869
11
-0.880549
21
4.227783
31
1.217011
12
-0.962161
22
3.914840
32
1.667802
13
-0.878767
23
3.915083
33
2.073660
0
3DFACE
8
coconut_palm4_leaves
10
-0.878767
20
3.915083
30
2.073660
11
-0.962161
21
3.914840
31
1.667802
12
-0.919555
22
3.334290
32
1.872918
13
-0.836161
23
3.334532
33
2.278776
0
3DFACE
8
coconut_palm4_leaves
10
-0.836161
20
3.334532
30
2.278776
11
-0.919555
21
3.334290
31
1.872918
12
-0.657254
22
2.606243
32
1.450636
13
-0.573860
23
2.606486
33
1.856494
0
3DFACE
8
coconut_palm4_leaves
10
-0.838958
20
4.462221
30
1.769340
11
-0.847586
21
4.414833
31
1.467854
12
-0.289526
22
4.641572
32
1.420037
13
-0.284349
23
4.691040
33
1.722444
0
3DFACE
8
coconut_palm4_leaves
10
-0.847586
20
4.414833
30
1.467854
11
-0.856214
21
4.367444
31
1.166368
12
-0.297030
22
4.598090
32
1.119074
13
-0.289526
23
4.641572
33
1.420037
0
3DFACE
8
coconut_palm4_leaves
10
-0.284349
20
4.691040
30
1.722444
11
-0.289526
21
4.641572
31
1.420037
12
0.252700
22
4.907239
32
1.381720
13
0.246805
23
4.969363
33
1.688156
0
3DFACE
8
coconut_palm4_leaves
10
-0.289526
20
4.641572
30
1.420037
11
-0.297030
21
4.598090
31
1.119074
12
0.243148
22
4.880378
32
1.084065
13
0.252700
23
4.907239
33
1.381720
0
3DFACE
8
coconut_palm4_leaves
10
0.246805
20
4.969363
30
1.688156
11
0.252700
21
4.907239
31
1.381720
12
0.763298
22
5.239238
32
1.360327
13
0.732100
23
5.331641
33
1.676212
0
3DFACE
8
coconut_palm4_leaves
10
0.252700
20
4.907239
30
1.381720
11
0.243148
21
4.880378
31
1.084065
12
0.741629
22
5.249368
32
1.071235
13
0.763298
23
5.239238
33
1.360327
0
3DFACE
8
coconut_palm4_leaves
10
-0.994869
20
4.678107
30
1.430045
11
-0.700303
21
4.151559
31
1.505663
12
-0.142243
22
4.378298
32
1.457847
13
-0.436809
23
4.904846
33
1.382228
0
3DFACE
8
coconut_palm4_leaves
10
-0.436809
20
4.904846
30
1.382228
11
-0.142243
21
4.378298
31
1.457847
12
0.399983
22
4.643965
32
1.419529
13
0.105417
23
5.170513
33
1.343911
0
3DFACE
8
coconut_palm4_leaves
10
0.105417
20
5.170513
30
1.343911
11
0.399983
21
4.643965
31
1.419529
12
0.910581
22
4.975964
32
1.398137
13
0.616015
23
5.502512
33
1.322518
0
3DFACE
8
coconut_palm4_leaves
10
-0.797574
20
4.606726
30
1.257232
11
-0.848392
21
4.432089
31
1.472277
12
-1.336818
22
4.264126
32
1.263290
13
-1.295532
23
4.411766
33
1.037050
0
3DFACE
8
coconut_palm4_leaves
10
-0.848392
20
4.432089
30
1.472277
11
-0.899210
21
4.257452
31
1.687322
12
-1.359108
22
4.073159
32
1.482699
13
-1.336818
23
4.264126
33
1.263290
0
3DFACE
8
coconut_palm4_leaves
10
-1.295532
20
4.411766
30
1.037050
11
-1.336818
21
4.264126
31
1.263290
12
-1.653929
22
3.806909
32
1.023147
13
-1.558554
23
3.848662
33
0.782703
0
3DFACE
8
coconut_palm4_leaves
10
-1.336818
20
4.264126
30
1.263290
11
-1.359108
21
4.073159
31
1.482699
12
-1.557795
22
3.552992
32
1.262122
13
-1.653929
23
3.806909
33
1.023147
0
3DFACE
8
coconut_palm4_leaves
10
-1.558554
20
3.848662
30
0.782703
11
-1.653929
21
3.806909
31
1.023147
12
-1.474788
22
3.018843
32
0.844878
13
-1.108390
23
2.972882
33
0.666120
0
3DFACE
8
coconut_palm4_leaves
10
-1.653929
20
3.806909
30
1.023147
11
-1.557795
21
3.552992
31
1.262122
12
-1.057711
22
2.781344
32
1.192991
13
-1.474788
23
3.018843
33
0.844878
0
3DFACE
8
coconut_palm4_leaves
10
-1.060233
20
4.483136
30
1.497694
11
-0.636551
21
4.381042
31
1.446861
12
-1.124977
22
4.213079
32
1.237873
13
-1.548658
23
4.315173
33
1.288707
0
3DFACE
8
coconut_palm4_coconuts
10
-0.766949
20
4.249792
30
1.442400
11
-0.744859
21
4.262580
31
1.449786
12
-0.741485
22
4.243922
32
1.447217
13
-0.741485
23
4.243922
33
1.447217
0
3DFACE
8
coconut_palm4_coconuts
10
-0.744859
20
4.262580
30
1.449786
11
-0.718704
21
4.275743
31
1.440700
12
-0.712860
22
4.243426
32
1.436249
13
-0.741485
23
4.243922
33
1.447217
0
3DFACE
8
coconut_palm4_coconuts
10
-0.718704
20
4.275743
30
1.440700
11
-0.695492
21
4.285754
31
1.417575
12
-0.688744
22
4.248437
32
1.412436
13
-0.712860
23
4.243426
33
1.436249
0
3DFACE
8
coconut_palm4_coconuts
10
-0.695492
20
4.285754
30
1.417575
11
-0.681443
21
4.289930
31
1.386608
12
-0.675599
22
4.257614
32
1.382158
13
-0.688744
23
4.248437
33
1.412436
0
3DFACE
8
coconut_palm4_coconuts
10
-0.681443
20
4.289930
30
1.386608
11
-0.680320
21
4.287153
31
1.356097
12
-0.676946
22
4.268495
32
1.353527
13
-0.675599
23
4.257614
33
1.382158
0
3DFACE
8
coconut_palm4_coconuts
10
-0.680320
20
4.287153
30
1.356097
11
-0.692426
21
4.278166
31
1.334217
12
-0.676946
22
4.268495
32
1.353527
13
-0.676946
23
4.268495
33
1.353527
0
3DFACE
8
coconut_palm4_coconuts
10
-0.766949
20
4.249792
30
1.442400
11
-0.758248
21
4.274860
31
1.443784
12
-0.744859
22
4.262580
32
1.449786
13
-0.744859
23
4.262580
33
1.449786
0
3DFACE
8
coconut_palm4_coconuts
10
-0.758248
20
4.274860
30
1.443784
11
-0.741895
21
4.297013
31
1.430303
12
-0.718704
22
4.275743
32
1.440700
13
-0.744859
23
4.262580
33
1.449786
0
3DFACE
8
coconut_palm4_coconuts
10
-0.741895
20
4.297013
30
1.430303
11
-0.722271
21
4.310315
31
1.405570
12
-0.695492
22
4.285754
32
1.417575
13
-0.718704
23
4.275743
33
1.440700
0
3DFACE
8
coconut_palm4_coconuts
10
-0.722271
20
4.310315
30
1.405570
11
-0.704634
21
4.311201
31
1.376212
12
-0.681443
22
4.289930
32
1.386608
13
-0.695492
23
4.285754
33
1.417575
0
3DFACE
8
coconut_palm4_coconuts
10
-0.704634
20
4.311201
30
1.376212
11
-0.693710
21
4.299433
31
1.350094
12
-0.680320
22
4.287153
32
1.356097
13
-0.681443
23
4.289930
33
1.386608
0
3DFACE
8
coconut_palm4_coconuts
10
-0.693710
20
4.299433
30
1.350094
11
-0.692426
21
4.278166
31
1.334217
12
-0.680320
22
4.287153
32
1.356097
13
-0.680320
23
4.287153
33
1.356097
0
3DFACE
8
coconut_palm4_coconuts
10
-0.766949
20
4.249792
30
1.442400
11
-0.773810
21
4.273570
31
1.432726
12
-0.758248
22
4.274860
32
1.443784
13
-0.758248
23
4.274860
33
1.443784
0
3DFACE
8
coconut_palm4_coconuts
10
-0.773810
20
4.273570
30
1.432726
11
-0.768849
21
4.294777
31
1.411150
12
-0.741895
22
4.297013
32
1.430303
13
-0.758248
23
4.274860
33
1.443784
0
3DFACE
8
coconut_palm4_coconuts
10
-0.768849
20
4.294777
30
1.411150
11
-0.753394
21
4.307733
31
1.383454
12
-0.722271
22
4.310315
32
1.405570
13
-0.741895
23
4.297013
33
1.430303
0
3DFACE
8
coconut_palm4_coconuts
10
-0.753394
20
4.307733
30
1.383454
11
-0.731588
21
4.308965
31
1.357058
12
-0.704634
22
4.311201
32
1.376212
13
-0.722271
23
4.310315
33
1.405570
0
3DFACE
8
coconut_palm4_coconuts
10
-0.731588
20
4.308965
30
1.357058
11
-0.709271
21
4.298142
31
1.339036
12
-0.693710
22
4.299433
32
1.350094
13
-0.704634
23
4.311201
33
1.376212
0
3DFACE
8
coconut_palm4_coconuts
10
-0.709271
20
4.298142
30
1.339036
11
-0.692426
21
4.278166
31
1.334217
12
-0.693710
22
4.299433
32
1.350094
13
-0.693710
23
4.299433
33
1.350094
0
3DFACE
8
coconut_palm4_coconuts
10
-0.766949
20
4.249792
30
1.442400
11
-0.782428
21
4.259463
31
1.423089
12
-0.773810
22
4.273570
32
1.432726
13
-0.773810
23
4.273570
33
1.432726
0
3DFACE
8
coconut_palm4_coconuts
10
-0.782428
20
4.259463
30
1.423089
11
-0.783776
21
4.270344
31
1.394459
12
-0.768849
22
4.294777
32
1.411150
13
-0.773810
23
4.273570
33
1.432726
0
3DFACE
8
coconut_palm4_coconuts
10
-0.783776
20
4.270344
30
1.394459
11
-0.770630
21
4.279520
31
1.364181
12
-0.753394
22
4.307733
32
1.383454
13
-0.768849
23
4.294777
33
1.411150
0
3DFACE
8
coconut_palm4_coconuts
10
-0.770630
20
4.279520
30
1.364181
11
-0.746514
21
4.284532
31
1.340368
12
-0.731588
22
4.308965
32
1.357058
13
-0.753394
23
4.307733
33
1.383454
0
3DFACE
8
coconut_palm4_coconuts
10
-0.746514
20
4.284532
30
1.340368
11
-0.717889
21
4.284036
31
1.329399
12
-0.709271
22
4.298142
32
1.339036
13
-0.731588
23
4.308965
33
1.357058
0
3DFACE
8
coconut_palm4_coconuts
10
-0.717889
20
4.284036
30
1.329399
11
-0.692426
21
4.278166
31
1.334217
12
-0.709271
22
4.298142
32
1.339036
13
-0.709271
23
4.298142
33
1.339036
0
3DFACE
8
coconut_palm4_coconuts
10
-0.766949
20
4.249792
30
1.442400
11
-0.779054
21
4.240805
31
1.420519
12
-0.782428
22
4.259463
32
1.423089
13
-0.782428
23
4.259463
33
1.423089
0
3DFACE
8
coconut_palm4_coconuts
10
-0.779054
20
4.240805
30
1.420519
11
-0.777932
21
4.238028
31
1.390009
12
-0.783776
22
4.270344
32
1.394459
13
-0.782428
23
4.259463
33
1.423089
0
3DFACE
8
coconut_palm4_coconuts
10
-0.777932
20
4.238028
30
1.390009
11
-0.763882
21
4.242204
31
1.359042
12
-0.770630
22
4.279520
32
1.364181
13
-0.783776
23
4.270344
33
1.394459
0
3DFACE
8
coconut_palm4_coconuts
10
-0.763882
20
4.242204
30
1.359042
11
-0.740670
21
4.252214
31
1.335917
12
-0.746514
22
4.284532
32
1.340368
13
-0.770630
23
4.279520
33
1.364181
0
3DFACE
8
coconut_palm4_coconuts
10
-0.740670
20
4.252214
30
1.335917
11
-0.714516
21
4.265378
31
1.326830
12
-0.717889
22
4.284036
32
1.329399
13
-0.746514
23
4.284532
33
1.340368
0
3DFACE
8
coconut_palm4_coconuts
10
-0.714516
20
4.265378
30
1.326830
11
-0.692426
21
4.278166
31
1.334217
12
-0.717889
22
4.284036
32
1.329399
13
-0.717889
23
4.284036
33
1.329399
0
3DFACE
8
coconut_palm4_coconuts
10
-0.766949
20
4.249792
30
1.442400
11
-0.765665
21
4.228524
31
1.426522
12
-0.779054
22
4.240805
32
1.420519
13
-0.779054
23
4.240805
33
1.420519
0
3DFACE
8
coconut_palm4_coconuts
10
-0.765665
20
4.228524
30
1.426522
11
-0.754741
21
4.216757
31
1.400405
12
-0.777932
22
4.238028
32
1.390009
13
-0.779054
23
4.240805
33
1.420519
0
3DFACE
8
coconut_palm4_coconuts
10
-0.754741
20
4.216757
30
1.400405
11
-0.737103
21
4.217643
31
1.371046
12
-0.763882
22
4.242204
32
1.359042
13
-0.777932
23
4.238028
33
1.390009
0
3DFACE
8
coconut_palm4_coconuts
10
-0.737103
20
4.217643
30
1.371046
11
-0.717479
21
4.230944
31
1.346313
12
-0.740670
22
4.252214
32
1.335917
13
-0.763882
23
4.242204
33
1.359042
0
3DFACE
8
coconut_palm4_coconuts
10
-0.717479
20
4.230944
30
1.346313
11
-0.701126
21
4.253097
31
1.332832
12
-0.714516
22
4.265378
32
1.326830
13
-0.740670
23
4.252214
33
1.335917
0
3DFACE
8
coconut_palm4_coconuts
10
-0.701126
20
4.253097
30
1.332832
11
-0.692426
21
4.278166
31
1.334217
12
-0.714516
22
4.265378
32
1.326830
13
-0.714516
23
4.265378
33
1.326830
0
3DFACE
8
coconut_palm4_coconuts
10
-0.766949
20
4.249792
30
1.442400
11
-0.750103
21
4.229815
31
1.437580
12
-0.765665
22
4.228524
32
1.426522
13
-0.765665
23
4.228524
33
1.426522
0
3DFACE
8
coconut_palm4_coconuts
10
-0.750103
20
4.229815
30
1.437580
11
-0.727787
21
4.218994
31
1.419559
12
-0.754741
22
4.216757
32
1.400405
13
-0.765665
23
4.228524
33
1.426522
0
3DFACE
8
coconut_palm4_coconuts
10
-0.727787
20
4.218994
30
1.419559
11
-0.705980
21
4.220225
31
1.393163
12
-0.737103
22
4.217643
32
1.371046
13
-0.754741
23
4.216757
33
1.400405
0
3DFACE
8
coconut_palm4_coconuts
10
-0.705980
20
4.220225
30
1.393163
11
-0.690526
21
4.233181
31
1.365467
12
-0.717479
22
4.230944
32
1.346313
13
-0.737103
23
4.217643
33
1.371046
0
3DFACE
8
coconut_palm4_coconuts
10
-0.690526
20
4.233181
30
1.365467
11
-0.685565
21
4.254389
31
1.343891
12
-0.701126
22
4.253097
32
1.332832
13
-0.717479
23
4.230944
33
1.346313
0
3DFACE
8
coconut_palm4_coconuts
10
-0.685565
20
4.254389
30
1.343891
11
-0.692426
21
4.278166
31
1.334217
12
-0.701126
22
4.253097
32
1.332832
13
-0.701126
23
4.253097
33
1.332832
0
3DFACE
8
coconut_palm4_coconuts
10
-0.766949
20
4.249792
30
1.442400
11
-0.741485
21
4.243922
31
1.447217
12
-0.750103
22
4.229815
32
1.437580
13
-0.750103
23
4.229815
33
1.437580
0
3DFACE
8
coconut_palm4_coconuts
10
-0.741485
20
4.243922
30
1.447217
11
-0.712860
21
4.243426
31
1.436249
12
-0.727787
22
4.218994
32
1.419559
13
-0.750103
23
4.229815
33
1.437580
0
3DFACE
8
coconut_palm4_coconuts
10
-0.712860
20
4.243426
30
1.436249
11
-0.688744
21
4.248437
31
1.412436
12
-0.705980
22
4.220225
32
1.393163
13
-0.727787
23
4.218994
33
1.419559
0
3DFACE
8
coconut_palm4_coconuts
10
-0.688744
20
4.248437
30
1.412436
11
-0.675599
21
4.257614
31
1.382158
12
-0.690526
22
4.233181
32
1.365467
13
-0.705980
23
4.220225
33
1.393163
0
3DFACE
8
coconut_palm4_coconuts
10
-0.675599
20
4.257614
30
1.382158
11
-0.676946
21
4.268495
31
1.353527
12
-0.685565
22
4.254389
32
1.343891
13
-0.690526
23
4.233181
33
1.365467
0
3DFACE
8
coconut_palm4_coconuts
10
-0.676946
20
4.268495
30
1.353527
11
-0.692426
21
4.278166
31
1.334217
12
-0.685565
22
4.254389
32
1.343891
13
-0.685565
23
4.254389
33
1.343891
0
3DFACE
8
coconut_palm4_coconuts
10
-0.757815
20
4.087265
30
1.554664
11
-0.763610
21
4.082307
31
1.537115
12
-0.780526
22
4.073505
32
1.555619
13
-0.780526
23
4.073505
33
1.555619
0
3DFACE
8
coconut_palm4_coconuts
10
-0.757815
20
4.087265
30
1.554664
11
-0.744671
21
4.114606
31
1.550235
12
-0.754708
22
4.106019
32
1.519840
13
-0.763610
23
4.082307
33
1.537115
0
3DFACE
8
coconut_palm4_coconuts
10
-0.744671
20
4.114606
30
1.550235
11
-0.744617
21
4.148202
31
1.543520
12
-0.756206
22
4.138286
32
1.508422
13
-0.754708
23
4.106019
33
1.519840
0
3DFACE
8
coconut_palm4_coconuts
10
-0.744617
20
4.148202
30
1.543520
11
-0.757665
21
4.179051
31
1.536318
12
-0.767702
22
4.170464
32
1.505923
13
-0.756206
23
4.138286
33
1.508422
0
3DFACE
8
coconut_palm4_coconuts
10
-0.757665
20
4.179051
30
1.536318
11
-0.780322
21
4.198887
31
1.530559
12
-0.786116
22
4.193928
32
1.513010
13
-0.767702
23
4.170464
33
1.505923
0
3DFACE
8
coconut_palm4_coconuts
10
-0.780322
20
4.198887
30
1.530559
11
-0.806514
21
4.202394
31
1.527785
12
-0.786116
22
4.193928
32
1.513010
13
-0.786116
23
4.193928
33
1.513010
0
3DFACE
8
coconut_palm4_coconuts
10
-0.763610
20
4.082307
30
1.537115
11
-0.780334
21
4.077250
31
1.529314
12
-0.780526
22
4.073505
32
1.555619
13
-0.780526
23
4.073505
33
1.555619
0
3DFACE
8
coconut_palm4_coconuts
10
-0.763610
20
4.082307
30
1.537115
11
-0.754708
21
4.106019
31
1.519840
12
-0.783675
22
4.097260
32
1.506328
13
-0.780334
23
4.077250
33
1.529314
0
3DFACE
8
coconut_palm4_coconuts
10
-0.754708
20
4.106019
30
1.519840
11
-0.756206
21
4.138286
31
1.508422
12
-0.789654
22
4.128173
32
1.492820
13
-0.783675
23
4.097260
33
1.506328
0
3DFACE
8
coconut_palm4_coconuts
10
-0.756206
20
4.138286
30
1.508422
11
-0.767702
21
4.170464
31
1.505923
12
-0.796669
22
4.161705
32
1.492410
13
-0.789654
23
4.128173
33
1.492820
0
3DFACE
8
coconut_palm4_coconuts
10
-0.767702
20
4.170464
30
1.505923
11
-0.786116
21
4.193928
31
1.513010
12
-0.802840
22
4.188872
32
1.505209
13
-0.796669
23
4.161705
33
1.492410
0
3DFACE
8
coconut_palm4_coconuts
10
-0.786116
20
4.193928
30
1.513010
11
-0.806514
21
4.202394
31
1.527785
12
-0.802840
22
4.188872
32
1.505209
13
-0.802840
23
4.188872
33
1.505209
0
3DFACE
8
coconut_palm4_coconuts
10
-0.780334
20
4.077250
30
1.529314
11
-0.798190
21
4.075057
31
1.535830
12
-0.780526
22
4.073505
32
1.555619
13
-0.780526
23
4.073505
33
1.555619
0
3DFACE
8
coconut_palm4_coconuts
10
-0.780334
20
4.077250
30
1.529314
11
-0.783675
21
4.097260
31
1.506328
12
-0.814603
22
4.093462
32
1.517614
13
-0.798190
23
4.075057
33
1.535830
0
3DFACE
8
coconut_palm4_coconuts
10
-0.783675
20
4.097260
30
1.506328
11
-0.789654
21
4.128173
31
1.492820
12
-0.825366
22
4.123786
32
1.505852
13
-0.814603
23
4.093462
33
1.517614
0
3DFACE
8
coconut_palm4_coconuts
10
-0.789654
20
4.128173
30
1.492820
11
-0.796669
21
4.161705
31
1.492410
12
-0.827597
22
4.157907
32
1.503697
13
-0.825366
23
4.123786
33
1.505852
0
3DFACE
8
coconut_palm4_coconuts
10
-0.796669
20
4.161705
30
1.492410
11
-0.802840
21
4.188872
31
1.505209
12
-0.820697
22
4.186678
32
1.511725
13
-0.827597
23
4.157907
33
1.503697
0
3DFACE
8
coconut_palm4_coconuts
10
-0.802840
20
4.188872
30
1.505209
11
-0.806514
21
4.202394
31
1.527785
12
-0.820697
22
4.186678
32
1.511725
13
-0.820697
23
4.186678
33
1.511725
0
3DFACE
8
coconut_palm4_coconuts
10
-0.798190
20
4.075057
30
1.535830
11
-0.806719
21
4.077013
31
1.552846
12
-0.780526
22
4.073505
32
1.555619
13
-0.780526
23
4.073505
33
1.555619
0
3DFACE
8
coconut_palm4_coconuts
10
-0.798190
20
4.075057
30
1.535830
11
-0.814603
21
4.093462
31
1.517614
12
-0.829375
22
4.096848
32
1.547086
13
-0.806719
23
4.077013
33
1.552846
0
3DFACE
8
coconut_palm4_coconuts
10
-0.814603
20
4.093462
30
1.517614
11
-0.825366
21
4.123786
31
1.505852
12
-0.842424
22
4.127697
32
1.539885
13
-0.829375
23
4.096848
33
1.547086
0
3DFACE
8
coconut_palm4_coconuts
10
-0.825366
20
4.123786
30
1.505852
11
-0.827597
21
4.157907
31
1.503697
12
-0.842369
22
4.161293
32
1.533170
13
-0.842424
23
4.127697
33
1.539885
0
3DFACE
8
coconut_palm4_coconuts
10
-0.827597
20
4.157907
30
1.503697
11
-0.820697
21
4.186678
31
1.511725
12
-0.829225
22
4.188633
32
1.528741
13
-0.842369
23
4.161293
33
1.533170
0
3DFACE
8
coconut_palm4_coconuts
10
-0.820697
20
4.186678
30
1.511725
11
-0.806514
21
4.202394
31
1.527785
12
-0.829225
22
4.188633
32
1.528741
13
-0.829225
23
4.188633
33
1.528741
0
3DFACE
8
coconut_palm4_coconuts
10
-0.806719
20
4.077013
30
1.552846
11
-0.800925
21
4.081971
31
1.570395
12
-0.780526
22
4.073505
32
1.555619
13
-0.780526
23
4.073505
33
1.555619
0
3DFACE
8
coconut_palm4_coconuts
10
-0.806719
20
4.077013
30
1.552846
11
-0.829375
21
4.096848
31
1.547086
12
-0.819339
22
4.105436
32
1.577482
13
-0.800925
23
4.081971
33
1.570395
0
3DFACE
8
coconut_palm4_coconuts
10
-0.829375
20
4.096848
30
1.547086
11
-0.842424
21
4.127697
31
1.539885
12
-0.830835
22
4.137612
32
1.574982
13
-0.819339
23
4.105436
33
1.577482
0
3DFACE
8
coconut_palm4_coconuts
10
-0.842424
20
4.127697
30
1.539885
11
-0.842369
21
4.161293
31
1.533170
12
-0.832333
22
4.169880
32
1.563565
13
-0.830835
23
4.137612
33
1.574982
0
3DFACE
8
coconut_palm4_coconuts
10
-0.842369
20
4.161293
30
1.533170
11
-0.829225
21
4.188633
31
1.528741
12
-0.823431
22
4.193591
32
1.546289
13
-0.832333
23
4.169880
33
1.563565
0
3DFACE
8
coconut_palm4_coconuts
10
-0.829225
20
4.188633
30
1.528741
11
-0.806514
21
4.202394
31
1.527785
12
-0.823431
22
4.193591
32
1.546289
13
-0.823431
23
4.193591
33
1.546289
0
3DFACE
8
coconut_palm4_coconuts
10
-0.800925
20
4.081971
30
1.570395
11
-0.784201
21
4.087027
31
1.578196
12
-0.780526
22
4.073505
32
1.555619
13
-0.780526
23
4.073505
33
1.555619
0
3DFACE
8
coconut_palm4_coconuts
10
-0.800925
20
4.081971
30
1.570395
11
-0.819339
21
4.105436
31
1.577482
12
-0.790372
22
4.114194
32
1.590994
13
-0.784201
23
4.087027
33
1.578196
0
3DFACE
8
coconut_palm4_coconuts
10
-0.819339
20
4.105436
30
1.577482
11
-0.830835
21
4.137612
31
1.574982
12
-0.797387
22
4.147726
32
1.590585
13
-0.790372
23
4.114194
33
1.590994
0
3DFACE
8
coconut_palm4_coconuts
10
-0.830835
20
4.137612
30
1.574982
11
-0.832333
21
4.169880
31
1.563565
12
-0.803366
22
4.178638
32
1.577077
13
-0.797387
23
4.147726
33
1.590585
0
3DFACE
8
coconut_palm4_coconuts
10
-0.832333
20
4.169880
30
1.563565
11
-0.823431
21
4.193591
31
1.546289
12
-0.806707
22
4.198648
32
1.554091
13
-0.803366
23
4.178638
33
1.577077
0
3DFACE
8
coconut_palm4_coconuts
10
-0.823431
20
4.193591
30
1.546289
11
-0.806514
21
4.202394
31
1.527785
12
-0.806707
22
4.198648
32
1.554091
13
-0.806707
23
4.198648
33
1.554091
0
3DFACE
8
coconut_palm4_coconuts
10
-0.784201
20
4.087027
30
1.578196
11
-0.766344
21
4.089221
31
1.571680
12
-0.780526
22
4.073505
32
1.555619
13
-0.780526
23
4.073505
33
1.555619
0
3DFACE
8
coconut_palm4_coconuts
10
-0.784201
20
4.087027
30
1.578196
11
-0.790372
21
4.114194
31
1.590994
12
-0.759444
22
4.117993
32
1.579708
13
-0.766344
23
4.089221
33
1.571680
0
3DFACE
8
coconut_palm4_coconuts
10
-0.790372
20
4.114194
30
1.590994
11
-0.797387
21
4.147726
31
1.590585
12
-0.761674
22
4.152112
32
1.577552
13
-0.759444
23
4.117993
33
1.579708
0
3DFACE
8
coconut_palm4_coconuts
10
-0.797387
20
4.147726
30
1.590585
11
-0.803366
21
4.178638
31
1.577077
12
-0.772438
22
4.182437
32
1.565791
13
-0.761674
23
4.152112
33
1.577552
0
3DFACE
8
coconut_palm4_coconuts
10
-0.803366
20
4.178638
30
1.577077
11
-0.806707
21
4.198648
31
1.554091
12
-0.788850
22
4.200841
32
1.547575
13
-0.772438
23
4.182437
33
1.565791
0
3DFACE
8
coconut_palm4_coconuts
10
-0.806707
20
4.198648
30
1.554091
11
-0.806514
21
4.202394
31
1.527785
12
-0.788850
22
4.200841
32
1.547575
13
-0.788850
23
4.200841
33
1.547575
0
3DFACE
8
coconut_palm4_coconuts
10
-0.766344
20
4.089221
30
1.571680
11
-0.757815
21
4.087265
31
1.554664
12
-0.780526
22
4.073505
32
1.555619
13
-0.780526
23
4.073505
33
1.555619
0
3DFACE
8
coconut_palm4_coconuts
10
-0.766344
20
4.089221
30
1.571680
11
-0.759444
21
4.117993
31
1.579708
12
-0.744671
22
4.114606
32
1.550235
13
-0.757815
23
4.087265
33
1.554664
0
3DFACE
8
coconut_palm4_coconuts
10
-0.759444
20
4.117993
30
1.579708
11
-0.761674
21
4.152112
31
1.577552
12
-0.744617
22
4.148202
32
1.543520
13
-0.744671
23
4.114606
33
1.550235
0
3DFACE
8
coconut_palm4_coconuts
10
-0.761674
20
4.152112
30
1.577552
11
-0.772438
21
4.182437
31
1.565791
12
-0.757665
22
4.179051
32
1.536318
13
-0.744617
23
4.148202
33
1.543520
0
3DFACE
8
coconut_palm4_coconuts
10
-0.772438
20
4.182437
30
1.565791
11
-0.788850
21
4.200841
31
1.547575
12
-0.780322
22
4.198887
32
1.530559
13
-0.757665
23
4.179051
33
1.536318
0
3DFACE
8
coconut_palm4_coconuts
10
-0.788850
20
4.200841
30
1.547575
11
-0.806514
21
4.202394
31
1.527785
12
-0.780322
22
4.198887
32
1.530559
13
-0.780322
23
4.198887
33
1.530559
0
3DFACE
8
coconut_palm4_coconuts
10
-0.974079
20
4.122115
30
1.264628
11
-0.965231
21
4.111427
31
1.251452
12
-0.977413
22
4.132236
32
1.240287
13
-0.977413
23
4.132236
33
1.240287
0
3DFACE
8
coconut_palm4_coconuts
10
-0.974079
20
4.122115
30
1.264628
11
-0.955673
21
4.119797
31
1.289037
12
-0.940350
22
4.101285
32
1.266215
13
-0.965231
23
4.111427
33
1.251452
0
3DFACE
8
coconut_palm4_coconuts
10
-0.955673
20
4.119797
30
1.289037
11
-0.927129
21
4.125904
31
1.306973
12
-0.909434
22
4.104530
32
1.280622
13
-0.940350
23
4.101285
33
1.266215
0
3DFACE
8
coconut_palm4_coconuts
10
-0.927129
20
4.125904
30
1.306973
11
-0.896094
21
4.138799
31
1.313630
12
-0.880770
22
4.120288
32
1.290809
13
-0.909434
23
4.104530
33
1.280622
0
3DFACE
8
coconut_palm4_coconuts
10
-0.896094
20
4.138799
30
1.313630
11
-0.870884
21
4.155027
31
1.307226
12
-0.862036
22
4.144339
32
1.294049
13
-0.880770
23
4.120288
33
1.290809
0
3DFACE
8
coconut_palm4_coconuts
10
-0.870884
20
4.155027
30
1.307226
11
-0.858253
21
4.170239
31
1.289474
12
-0.862036
22
4.144339
32
1.294049
13
-0.862036
23
4.144339
33
1.294049
0
3DFACE
8
coconut_palm4_coconuts
10
-0.965231
20
4.111427
30
1.251452
11
-0.958844
21
4.114421
31
1.233666
12
-0.977413
22
4.132236
32
1.240287
13
-0.977413
23
4.132236
33
1.240287
0
3DFACE
8
coconut_palm4_coconuts
10
-0.965231
20
4.111427
30
1.251452
11
-0.940350
21
4.101285
31
1.266215
12
-0.929286
22
4.106469
32
1.235407
13
-0.958844
23
4.114421
33
1.233666
0
3DFACE
8
coconut_palm4_coconuts
10
-0.940350
20
4.101285
30
1.266215
11
-0.909434
21
4.104530
31
1.280622
12
-0.896659
22
4.110513
32
1.245046
13
-0.929286
23
4.106469
33
1.235407
0
3DFACE
8
coconut_palm4_coconuts
10
-0.909434
20
4.104530
30
1.280622
11
-0.880770
21
4.120288
31
1.290809
12
-0.869706
22
4.125471
32
1.260001
13
-0.896659
23
4.110513
33
1.245046
0
3DFACE
8
coconut_palm4_coconuts
10
-0.880770
20
4.120288
30
1.290809
11
-0.862036
21
4.144339
31
1.294049
12
-0.855649
22
4.147333
32
1.276263
13
-0.869706
23
4.125471
33
1.260001
0
3DFACE
8
coconut_palm4_coconuts
10
-0.862036
20
4.144339
30
1.294049
11
-0.858253
21
4.170239
31
1.289474
12
-0.855649
22
4.147333
32
1.276263
13
-0.855649
23
4.147333
33
1.276263
0
3DFACE
8
coconut_palm4_coconuts
10
-0.958844
20
4.114421
30
1.233666
11
-0.958659
21
4.129340
31
1.221687
12
-0.977413
22
4.132236
32
1.240287
13
-0.977413
23
4.132236
33
1.240287
0
3DFACE
8
coconut_palm4_coconuts
10
-0.958844
20
4.114421
30
1.233666
11
-0.929286
21
4.106469
31
1.235407
12
-0.928964
22
4.132311
32
1.214660
13
-0.958659
23
4.129340
33
1.221687
0
3DFACE
8
coconut_palm4_coconuts
10
-0.929286
20
4.106469
30
1.235407
11
-0.896659
21
4.110513
31
1.245046
12
-0.896288
22
4.140356
32
1.221093
13
-0.928964
23
4.132311
33
1.214660
0
3DFACE
8
coconut_palm4_coconuts
10
-0.896659
20
4.110513
30
1.245046
11
-0.869706
21
4.125471
31
1.260001
12
-0.869384
22
4.151314
32
1.239254
13
-0.896288
23
4.140356
33
1.221093
0
3DFACE
8
coconut_palm4_coconuts
10
-0.869706
20
4.125471
30
1.260001
11
-0.855649
21
4.147333
31
1.276263
12
-0.855462
22
4.162251
32
1.264283
13
-0.869384
23
4.151314
33
1.239254
0
3DFACE
8
coconut_palm4_coconuts
10
-0.855649
20
4.147333
30
1.276263
11
-0.858253
21
4.170239
31
1.289474
12
-0.855462
22
4.162251
32
1.264283
13
-0.855462
23
4.162251
33
1.264283
0
3DFACE
8
coconut_palm4_coconuts
10
-0.958659
20
4.129340
30
1.221687
11
-0.964784
21
4.147449
31
1.222537
12
-0.977413
22
4.132236
32
1.240287
13
-0.977413
23
4.132236
33
1.240287
0
3DFACE
8
coconut_palm4_coconuts
10
-0.958659
20
4.129340
30
1.221687
11
-0.928964
21
4.132311
31
1.214660
12
-0.939573
22
4.163677
32
1.216130
13
-0.964784
23
4.147449
33
1.222537
0
3DFACE
8
coconut_palm4_coconuts
10
-0.928964
20
4.132311
30
1.214660
11
-0.896288
21
4.140356
31
1.221093
12
-0.908538
22
4.176570
32
1.222787
13
-0.939573
23
4.163677
33
1.216130
0
3DFACE
8
coconut_palm4_coconuts
10
-0.896288
20
4.140356
30
1.221093
11
-0.869384
21
4.151314
31
1.239254
12
-0.879994
22
4.182678
32
1.240724
13
-0.908538
23
4.176570
33
1.222787
0
3DFACE
8
coconut_palm4_coconuts
10
-0.869384
20
4.151314
30
1.239254
11
-0.855462
21
4.162251
31
1.264283
12
-0.861588
22
4.180359
32
1.265131
13
-0.879994
23
4.182678
33
1.240724
0
3DFACE
8
coconut_palm4_coconuts
10
-0.855462
20
4.162251
30
1.264283
11
-0.858253
21
4.170239
31
1.289474
12
-0.861588
22
4.180359
32
1.265131
13
-0.861588
23
4.180359
33
1.265131
0
3DFACE
8
coconut_palm4_coconuts
10
-0.964784
20
4.147449
30
1.222537
11
-0.973631
21
4.158137
31
1.235713
12
-0.977413
22
4.132236
32
1.240287
13
-0.977413
23
4.132236
33
1.240287
0
3DFACE
8
coconut_palm4_coconuts
10
-0.964784
20
4.147449
30
1.222537
11
-0.939573
21
4.163677
31
1.216130
12
-0.954897
22
4.182188
32
1.238952
13
-0.973631
23
4.158137
33
1.235713
0
3DFACE
8
coconut_palm4_coconuts
10
-0.939573
20
4.163677
30
1.216130
11
-0.908538
21
4.176570
31
1.222787
12
-0.926233
22
4.197947
32
1.249141
13
-0.954897
23
4.182188
33
1.238952
0
3DFACE
8
coconut_palm4_coconuts
10
-0.908538
20
4.176570
30
1.222787
11
-0.879994
21
4.182678
31
1.240724
12
-0.895317
22
4.201189
32
1.263545
13
-0.926233
23
4.197947
33
1.249141
0
3DFACE
8
coconut_palm4_coconuts
10
-0.879994
20
4.182678
30
1.240724
11
-0.861588
21
4.180359
31
1.265131
12
-0.870435
22
4.191048
32
1.278308
13
-0.895317
23
4.201189
33
1.263545
0
3DFACE
8
coconut_palm4_coconuts
10
-0.861588
20
4.180359
30
1.265131
11
-0.858253
21
4.170239
31
1.289474
12
-0.870435
22
4.191048
32
1.278308
13
-0.870435
23
4.191048
33
1.278308
0
3DFACE
8
coconut_palm4_coconuts
10
-0.973631
20
4.158137
30
1.235713
11
-0.980018
21
4.155143
31
1.253498
12
-0.977413
22
4.132236
32
1.240287
13
-0.977413
23
4.132236
33
1.240287
0
3DFACE
8
coconut_palm4_coconuts
10
-0.973631
20
4.158137
30
1.235713
11
-0.954897
21
4.182188
31
1.238952
12
-0.965960
22
4.177003
32
1.269758
13
-0.980018
23
4.155143
33
1.253498
0
3DFACE
8
coconut_palm4_coconuts
10
-0.954897
20
4.182188
30
1.238952
11
-0.926233
21
4.197947
31
1.249141
12
-0.939008
22
4.191962
32
1.284715
13
-0.965960
23
4.177003
33
1.269758
0
3DFACE
8
coconut_palm4_coconuts
10
-0.926233
20
4.197947
30
1.249141
11
-0.895317
21
4.201189
31
1.263545
12
-0.906381
22
4.196007
32
1.294354
13
-0.939008
23
4.191962
33
1.284715
0
3DFACE
8
coconut_palm4_coconuts
10
-0.895317
20
4.201189
30
1.263545
11
-0.870435
21
4.191048
31
1.278308
12
-0.876823
22
4.188055
32
1.296095
13
-0.906381
23
4.196007
33
1.294354
0
3DFACE
8
coconut_palm4_coconuts
10
-0.870435
20
4.191048
30
1.278308
11
-0.858253
21
4.170239
31
1.289474
12
-0.876823
22
4.188055
32
1.296095
13
-0.876823
23
4.188055
33
1.296095
0
3DFACE
8
coconut_palm4_coconuts
10
-0.980018
20
4.155143
30
1.253498
11
-0.980204
21
4.140224
31
1.265477
12
-0.977413
22
4.132236
32
1.240287
13
-0.977413
23
4.132236
33
1.240287
0
3DFACE
8
coconut_palm4_coconuts
10
-0.980018
20
4.155143
30
1.253498
11
-0.965960
21
4.177003
31
1.269758
12
-0.966282
22
4.151163
32
1.290507
13
-0.980204
23
4.140224
33
1.265477
0
3DFACE
8
coconut_palm4_coconuts
10
-0.965960
20
4.177003
30
1.269758
11
-0.939008
21
4.191962
31
1.284715
12
-0.939379
22
4.162120
32
1.308669
13
-0.966282
23
4.151163
33
1.290507
0
3DFACE
8
coconut_palm4_coconuts
10
-0.939008
20
4.191962
30
1.284715
11
-0.906381
21
4.196007
31
1.294354
12
-0.906703
22
4.170164
32
1.315100
13
-0.939379
23
4.162120
33
1.308669
0
3DFACE
8
coconut_palm4_coconuts
10
-0.906381
20
4.196007
30
1.294354
11
-0.876823
21
4.188055
31
1.296095
12
-0.877008
22
4.173133
32
1.308071
13
-0.906703
23
4.170164
33
1.315100
0
3DFACE
8
coconut_palm4_coconuts
10
-0.876823
20
4.188055
30
1.296095
11
-0.858253
21
4.170239
31
1.289474
12
-0.877008
22
4.173133
32
1.308071
13
-0.877008
23
4.173133
33
1.308071
0
3DFACE
8
coconut_palm4_coconuts
10
-0.980204
20
4.140224
30
1.265477
11
-0.974079
21
4.122115
31
1.264628
12
-0.977413
22
4.132236
32
1.240287
13
-0.977413
23
4.132236
33
1.240287
0
3DFACE
8
coconut_palm4_coconuts
10
-0.980204
20
4.140224
30
1.265477
11
-0.966282
21
4.151163
31
1.290507
12
-0.955673
22
4.119797
32
1.289037
13
-0.974079
23
4.122115
33
1.264628
0
3DFACE
8
coconut_palm4_coconuts
10
-0.966282
20
4.151163
30
1.290507
11
-0.939379
21
4.162120
31
1.308669
12
-0.927129
22
4.125904
32
1.306973
13
-0.955673
23
4.119797
33
1.289037
0
3DFACE
8
coconut_palm4_coconuts
10
-0.939379
20
4.162120
30
1.308669
11
-0.906703
21
4.170164
31
1.315100
12
-0.896094
22
4.138799
32
1.313630
13
-0.927129
23
4.125904
33
1.306973
0
3DFACE
8
coconut_palm4_coconuts
10
-0.906703
20
4.170164
30
1.315100
11
-0.877008
21
4.173133
31
1.308071
12
-0.870884
22
4.155027
32
1.307226
13
-0.896094
23
4.138799
33
1.313630
0
3DFACE
8
coconut_palm4_coconuts
10
-0.877008
20
4.173133
30
1.308071
11
-0.858253
21
4.170239
31
1.289474
12
-0.870884
22
4.155027
32
1.307226
13
-0.870884
23
4.155027
33
1.307226
0
3DFACE
8
coconut_palm4_coconuts
10
-0.814394
20
4.215931
30
1.325635
11
-0.804042
21
4.239735
31
1.319957
12
-0.792018
22
4.225661
32
1.315113
13
-0.792018
23
4.225661
33
1.315113
0
3DFACE
8
coconut_palm4_coconuts
10
-0.804042
20
4.239735
30
1.319957
11
-0.799051
21
4.260943
31
1.298387
12
-0.778226
22
4.236566
32
1.289998
13
-0.792018
23
4.225661
33
1.315113
0
3DFACE
8
coconut_palm4_coconuts
10
-0.799051
20
4.260943
30
1.298387
11
-0.800760
21
4.273872
31
1.266707
12
-0.776713
22
4.245723
32
1.257019
13
-0.778226
23
4.236566
33
1.289998
0
3DFACE
8
coconut_palm4_coconuts
10
-0.800760
20
4.273872
30
1.266707
11
-0.808710
21
4.275057
31
1.233402
12
-0.787884
22
4.250680
32
1.225012
13
-0.776713
23
4.245723
33
1.257019
0
3DFACE
8
coconut_palm4_coconuts
10
-0.808710
20
4.275057
30
1.233402
11
-0.820771
21
4.264183
31
1.207399
12
-0.808747
22
4.250108
32
1.202555
13
-0.787884
23
4.250680
33
1.225012
0
3DFACE
8
coconut_palm4_coconuts
10
-0.820771
20
4.264183
30
1.207399
11
-0.833711
21
4.244161
31
1.195664
12
-0.808747
22
4.250108
32
1.202555
13
-0.808747
23
4.250108
33
1.202555
0
3DFACE
8
coconut_palm4_coconuts
10
-0.814394
20
4.215931
30
1.325635
11
-0.822887
21
4.240973
31
1.323027
12
-0.804042
22
4.239735
32
1.319957
13
-0.804042
23
4.239735
33
1.319957
0
3DFACE
8
coconut_palm4_coconuts
10
-0.822887
20
4.240973
30
1.323027
11
-0.831693
21
4.263087
31
1.303705
12
-0.799051
22
4.260943
32
1.298387
13
-0.804042
23
4.239735
33
1.319957
0
3DFACE
8
coconut_palm4_coconuts
10
-0.831693
20
4.263087
30
1.303705
11
-0.838451
21
4.276348
31
1.272846
12
-0.800760
22
4.273872
32
1.266707
13
-0.799051
23
4.260943
33
1.298387
0
3DFACE
8
coconut_palm4_coconuts
10
-0.838451
20
4.276348
30
1.272846
11
-0.841352
21
4.277202
31
1.238719
12
-0.808710
22
4.275057
32
1.233402
13
-0.800760
23
4.273872
33
1.266707
0
3DFACE
8
coconut_palm4_coconuts
10
-0.841352
20
4.277202
30
1.238719
11
-0.839616
21
4.265420
31
1.210468
12
-0.820771
22
4.264183
32
1.207399
13
-0.808710
23
4.275057
33
1.233402
0
3DFACE
8
coconut_palm4_coconuts
10
-0.839616
20
4.265420
30
1.210468
11
-0.833711
21
4.244161
31
1.195664
12
-0.820771
22
4.264183
32
1.207399
13
-0.820771
23
4.264183
33
1.207399
0
3DFACE
8
coconut_palm4_coconuts
10
-0.814394
20
4.215931
30
1.325635
11
-0.837516
21
4.228649
31
1.322524
12
-0.822887
22
4.240973
32
1.323027
13
-0.822887
23
4.240973
33
1.323027
0
3DFACE
8
coconut_palm4_coconuts
10
-0.837516
20
4.228649
30
1.322524
11
-0.857030
21
4.241742
31
1.302834
12
-0.831693
22
4.263087
32
1.303705
13
-0.822887
23
4.240973
33
1.323027
0
3DFACE
8
coconut_palm4_coconuts
10
-0.857030
20
4.241742
30
1.302834
11
-0.867708
21
4.251701
31
1.271841
12
-0.838451
22
4.276348
32
1.272846
13
-0.831693
23
4.263087
33
1.303705
0
3DFACE
8
coconut_palm4_coconuts
10
-0.867708
20
4.251701
30
1.271841
11
-0.866688
21
4.255856
31
1.237848
12
-0.841352
22
4.277202
32
1.238719
13
-0.838451
23
4.276348
33
1.272846
0
3DFACE
8
coconut_palm4_coconuts
10
-0.866688
20
4.255856
30
1.237848
11
-0.854245
21
4.253097
31
1.209966
12
-0.839616
22
4.265420
32
1.210468
13
-0.841352
23
4.277202
33
1.238719
0
3DFACE
8
coconut_palm4_coconuts
10
-0.854245
20
4.253097
30
1.209966
11
-0.833711
21
4.244161
31
1.195664
12
-0.839616
22
4.265420
32
1.210468
13
-0.839616
23
4.265420
33
1.210468
0
3DFACE
8
coconut_palm4_coconuts
10
-0.814394
20
4.215931
30
1.325635
11
-0.839358
21
4.209983
31
1.318743
12
-0.837516
22
4.228649
32
1.322524
13
-0.837516
23
4.228649
33
1.322524
0
3DFACE
8
coconut_palm4_coconuts
10
-0.839358
20
4.209983
30
1.318743
11
-0.860221
21
4.209411
31
1.296286
12
-0.857030
22
4.241742
32
1.302834
13
-0.837516
23
4.228649
33
1.322524
0
3DFACE
8
coconut_palm4_coconuts
10
-0.860221
20
4.209411
30
1.296286
11
-0.871392
21
4.214368
31
1.264280
12
-0.867708
22
4.251701
32
1.271841
13
-0.857030
23
4.241742
33
1.302834
0
3DFACE
8
coconut_palm4_coconuts
10
-0.871392
20
4.214368
30
1.264280
11
-0.869879
21
4.223526
31
1.231300
12
-0.866688
22
4.255856
32
1.237848
13
-0.867708
23
4.251701
33
1.271841
0
3DFACE
8
coconut_palm4_coconuts
10
-0.869879
20
4.223526
30
1.231300
11
-0.856087
21
4.234430
31
1.206185
12
-0.854245
22
4.253097
32
1.209966
13
-0.866688
23
4.255856
33
1.237848
0
3DFACE
8
coconut_palm4_coconuts
10
-0.856087
20
4.234430
30
1.206185
11
-0.833711
21
4.244161
31
1.195664
12
-0.854245
22
4.253097
32
1.209966
13
-0.854245
23
4.253097
33
1.209966
0
3DFACE
8
coconut_palm4_coconuts
10
-0.814394
20
4.215931
30
1.325635
11
-0.827334
21
4.195909
31
1.313899
12
-0.839358
22
4.209983
32
1.318743
13
-0.839358
23
4.209983
33
1.318743
0
3DFACE
8
coconut_palm4_coconuts
10
-0.827334
20
4.195909
30
1.313899
11
-0.839395
21
4.185033
31
1.287896
12
-0.860221
22
4.209411
32
1.296286
13
-0.839358
23
4.209983
33
1.318743
0
3DFACE
8
coconut_palm4_coconuts
10
-0.839395
20
4.185033
30
1.287896
11
-0.847345
21
4.186219
31
1.254592
12
-0.871392
22
4.214368
32
1.264280
13
-0.860221
23
4.209411
33
1.296286
0
3DFACE
8
coconut_palm4_coconuts
10
-0.847345
20
4.186219
30
1.254592
11
-0.849054
21
4.199148
31
1.222911
12
-0.869879
22
4.223526
32
1.231300
13
-0.871392
23
4.214368
33
1.264280
0
3DFACE
8
coconut_palm4_coconuts
10
-0.849054
20
4.199148
30
1.222911
11
-0.844063
21
4.220356
31
1.201342
12
-0.856087
22
4.234430
32
1.206185
13
-0.869879
23
4.223526
33
1.231300
0
3DFACE
8
coconut_palm4_coconuts
10
-0.844063
20
4.220356
30
1.201342
11
-0.833711
21
4.244161
31
1.195664
12
-0.856087
22
4.234430
32
1.206185
13
-0.856087
23
4.234430
33
1.206185
0
3DFACE
8
coconut_palm4_coconuts
10
-0.814394
20
4.215931
30
1.325635
11
-0.808489
21
4.194671
31
1.310830
12
-0.827334
22
4.195909
32
1.313899
13
-0.827334
23
4.195909
33
1.313899
0
3DFACE
8
coconut_palm4_coconuts
10
-0.808489
20
4.194671
30
1.310830
11
-0.806753
21
4.182889
31
1.282579
12
-0.839395
22
4.185033
32
1.287896
13
-0.827334
23
4.195909
33
1.313899
0
3DFACE
8
coconut_palm4_coconuts
10
-0.806753
20
4.182889
30
1.282579
11
-0.809654
21
4.183743
31
1.248452
12
-0.847345
22
4.186219
32
1.254592
13
-0.839395
23
4.185033
33
1.287896
0
3DFACE
8
coconut_palm4_coconuts
10
-0.809654
20
4.183743
30
1.248452
11
-0.816412
21
4.197004
31
1.217594
12
-0.849054
22
4.199148
32
1.222911
13
-0.847345
23
4.186219
33
1.254592
0
3DFACE
8
coconut_palm4_coconuts
10
-0.816412
20
4.197004
30
1.217594
11
-0.825217
21
4.219118
31
1.198272
12
-0.844063
22
4.220356
32
1.201342
13
-0.849054
23
4.199148
33
1.222911
0
3DFACE
8
coconut_palm4_coconuts
10
-0.825217
20
4.219118
30
1.198272
11
-0.833711
21
4.244161
31
1.195664
12
-0.844063
22
4.220356
32
1.201342
13
-0.844063
23
4.220356
33
1.201342
0
3DFACE
8
coconut_palm4_coconuts
10
-0.814394
20
4.215931
30
1.325635
11
-0.793860
21
4.206994
31
1.311332
12
-0.808489
22
4.194671
32
1.310830
13
-0.808489
23
4.194671
33
1.310830
0
3DFACE
8
coconut_palm4_coconuts
10
-0.793860
20
4.206994
30
1.311332
11
-0.781416
21
4.204234
31
1.283449
12
-0.806753
22
4.182889
32
1.282579
13
-0.808489
23
4.194671
33
1.310830
0
3DFACE
8
coconut_palm4_coconuts
10
-0.781416
20
4.204234
30
1.283449
11
-0.780397
21
4.208391
31
1.249458
12
-0.809654
22
4.183743
32
1.248452
13
-0.806753
23
4.182889
33
1.282579
0
3DFACE
8
coconut_palm4_coconuts
10
-0.780397
20
4.208391
30
1.249458
11
-0.791075
21
4.218349
31
1.218464
12
-0.816412
22
4.197004
32
1.217594
13
-0.809654
23
4.183743
33
1.248452
0
3DFACE
8
coconut_palm4_coconuts
10
-0.791075
20
4.218349
30
1.218464
11
-0.810589
21
4.231442
31
1.198775
12
-0.825217
22
4.219118
32
1.198272
13
-0.816412
23
4.197004
33
1.217594
0
3DFACE
8
coconut_palm4_coconuts
10
-0.810589
20
4.231442
30
1.198775
11
-0.833711
21
4.244161
31
1.195664
12
-0.825217
22
4.219118
32
1.198272
13
-0.825217
23
4.219118
33
1.198272
0
3DFACE
8
coconut_palm4_coconuts
10
-0.814394
20
4.215931
30
1.325635
11
-0.792018
21
4.225661
31
1.315113
12
-0.793860
22
4.206994
32
1.311332
13
-0.793860
23
4.206994
33
1.311332
0
3DFACE
8
coconut_palm4_coconuts
10
-0.792018
20
4.225661
30
1.315113
11
-0.778226
21
4.236566
31
1.289998
12
-0.781416
22
4.204234
32
1.283449
13
-0.793860
23
4.206994
33
1.311332
0
3DFACE
8
coconut_palm4_coconuts
10
-0.778226
20
4.236566
30
1.289998
11
-0.776713
21
4.245723
31
1.257019
12
-0.780397
22
4.208391
32
1.249458
13
-0.781416
23
4.204234
33
1.283449
0
3DFACE
8
coconut_palm4_coconuts
10
-0.776713
20
4.245723
30
1.257019
11
-0.787884
21
4.250680
31
1.225012
12
-0.791075
22
4.218349
32
1.218464
13
-0.780397
23
4.208391
33
1.249458
0
3DFACE
8
coconut_palm4_coconuts
10
-0.787884
20
4.250680
30
1.225012
11
-0.808747
21
4.250108
31
1.202555
12
-0.810589
22
4.231442
32
1.198775
13
-0.791075
23
4.218349
33
1.218464
0
3DFACE
8
coconut_palm4_coconuts
10
-0.808747
20
4.250108
30
1.202555
11
-0.833711
21
4.244161
31
1.195664
12
-0.810589
22
4.231442
32
1.198775
13
-0.810589
23
4.231442
33
1.198775
0
ENDSEC
0
EOF
